<svg width="196" height="48" viewBox="0 0 196 48" fill="none" xmlns="http://www.w3.org/2000/svg">
<g clip-path="url(#clip0)">
<g clip-path="url(#clip1)">
<rect x="147.385" y="1.98218" width="43.6071" height="43.6071" fill="white"/>
<path fill-rule="evenodd" clip-rule="evenodd" d="M196 0H142V47.5714H196V0ZM185.977 10.818C187.631 12.4303 188.48 14.5517 188.48 17.1398H183.134C183.134 14.976 181.691 13.3213 179.824 13.3213C178 13.3213 176.515 14.5941 176.515 16.2488C176.515 17.9884 178.467 19.431 180.843 20.6614C184.322 22.2737 188.904 24.9467 188.862 30.5897C188.862 32.8808 188.013 34.8326 186.316 36.4873C184.619 38.0996 182.54 38.9057 180.121 38.9057H179.443C177.024 38.9057 174.945 38.0996 173.206 36.4873C171.508 34.8326 170.66 32.8808 170.66 30.5897V29.232H176.048V30.5897C176.048 32.4141 177.618 33.9416 179.527 33.9416H179.994C181.861 33.9416 183.431 32.4566 183.431 30.8867C183.431 28.6804 181.479 27.0681 179.061 25.8801L179.009 25.8551C175.621 24.2031 171.085 21.992 171.127 16.6307C171.127 14.2971 171.975 12.303 173.63 10.7331C175.327 9.16328 177.406 8.35714 179.824 8.35714C182.285 8.35714 184.322 9.16328 185.977 10.818ZM166.007 38.4814H149.714V8.78142H165.667V13.7456H155.06V20.4917H164.734V25.4558H155.06V33.5173H166.007V38.4814Z" fill="#FFD200"/>
</g>
<path d="M11.0704 19.4361L10.9024 19.4361L6.28235 8.60005L0.360352 8.60005L0.360351 38.0001L5.56835 38.0001L5.56835 20.5281L5.27435 16.7481L5.44235 16.7481L8.88635 25.0221L13.0864 25.0221L16.5304 16.7481L16.6984 16.7481L16.4044 20.5281L16.4044 38.0001L21.6124 38.0001L21.6124 8.60005L15.6904 8.60005L11.0704 19.4361Z" fill="white"/>
<path d="M28.333 38.0001L44.461 38.0001L44.461 33.0861L33.625 33.0861L33.625 25.1061L43.201 25.1061L43.201 20.1921L33.625 20.1921L33.625 13.5141L44.125 13.5141L44.125 8.60005L28.333 8.60005L28.333 38.0001Z" fill="white"/>
<path d="M53.5612 13.5141L53.5612 38.0001L58.9372 38.0001L58.9372 13.5141L64.9432 13.5141L64.9432 8.60005L47.5972 8.60005L47.5972 13.5141L53.5612 13.5141Z" fill="white"/>
<path d="M81.6126 20.1081L74.5986 20.1081L74.5986 8.60005L69.3486 8.60005L69.3486 38.0001L74.5986 38.0001L74.5986 25.1061L81.6126 25.1061L81.6126 38.0001L86.9046 38.0001L86.9046 8.60005L81.6126 8.60005L81.6126 20.1081Z" fill="white"/>
<path d="M111.144 16.4121C111.144 14.1441 110.304 12.2121 108.624 10.6161C106.944 8.97805 104.928 8.18005 102.534 8.18005L101.862 8.18005C99.4679 8.18005 97.4519 8.97805 95.7299 10.6161C94.0499 12.2121 93.2099 14.1441 93.2099 16.4121L93.2099 30.1461C93.2099 32.4141 94.0499 34.3461 95.7299 35.9841C97.4519 37.6221 99.4679 38.4201 101.862 38.4201L102.534 38.4201C104.928 38.4201 106.944 37.6221 108.624 36.0261C110.304 34.3881 111.144 32.4561 111.144 30.1881L111.144 16.4121ZM105.852 30.4401C105.852 32.1201 104.256 33.5061 102.408 33.5061L101.988 33.5061C100.14 33.5061 98.5439 32.1201 98.5439 30.3981L98.5439 16.1601C98.5439 14.4801 100.14 13.0941 101.988 13.0941L102.45 13.0941C104.298 13.0941 105.852 14.4381 105.852 16.1601L105.852 30.4401Z" fill="white"/>
<path d="M134.554 16.7901C134.554 14.5221 133.714 12.5901 132.034 10.9941C130.354 9.39805 128.338 8.60005 125.944 8.60005L117.46 8.60005L117.46 38.0001L125.944 38.0001C128.338 38.0001 130.354 37.2021 132.034 35.6061C133.714 34.0101 134.554 32.0781 134.554 29.8101L134.554 16.7901ZM129.094 30.0201C129.094 31.7421 127.666 33.0861 125.818 33.0861L122.752 33.0861L122.752 13.5141L125.818 13.5141C127.666 13.5141 129.094 14.9001 129.094 16.6221L129.094 30.0201Z" fill="white"/>
</g>
<defs>
<clipPath id="clip0">
<rect x="0.360352" width="195.64" height="47.5714" fill="white"/>
</clipPath>
<clipPath id="clip1">
<rect x="142" width="54" height="47.5714" fill="white"/>
</clipPath>
</defs>
</svg>
