<svg width="1502" height="737" viewBox="0 0 1502 737" fill="none" xmlns="http://www.w3.org/2000/svg">
<g clip-path="url(#clip0)">
<g opacity="0.95">
<path opacity="0.548932" d="M214.795 123.825L419.933 -17.4869L492.389 8.8045L492.974 7.19631L419.69 -19.397L216.141 120.82L198.709 -17.297L197.128 -16.1549L214.619 122.43L214.795 123.825Z" fill="#FFF96C"/>
<g opacity="0.261186">
<path opacity="0.261186" d="M494.88 1.95141C496.076 2.38553 497.117 3.16473 497.87 4.19038C498.623 5.21603 499.055 6.44208 499.111 7.71355C499.167 8.98502 498.845 10.2448 498.185 11.3335C497.525 12.4222 496.557 13.291 495.403 13.83C494.25 14.3691 492.963 14.5541 491.704 14.3617C490.446 14.1693 489.273 13.6082 488.335 12.7492C487.396 11.8903 486.733 10.7722 486.43 9.53623C486.127 8.30026 486.197 7.00197 486.632 5.80556C487.215 4.20137 488.412 2.89417 489.959 2.17141C491.505 1.44864 493.276 1.36948 494.88 1.95141Z" fill="#FFF96C"/>
</g>
<path opacity="0.654624" d="M492.974 7.19604L492.389 8.80505L545.712 28.1545L546.296 26.5455L492.974 7.19604Z" fill="#FFF96C"/>
<path opacity="0.466878" d="M614.294 -31L688.384 78.1055L546.297 26.5462L545.712 28.1544L692.771 81.518L616.364 -31L614.294 -31Z" fill="#FFF96C"/>
<path opacity="0.811368" d="M481.615 -30.9997L520.718 153.843L598.415 47.5684L597.033 46.5594L521.6 149.738L483.365 -30.9998L481.615 -30.9997Z" fill="#FFF96C"/>
<path opacity="0.525458" d="M605.5 34.9758L597.034 46.5594L598.416 47.5685L606.882 35.9849L605.5 34.9758Z" fill="#FFF96C"/>
<g opacity="0.263755">
<path opacity="0.263755" d="M600.997 31.6857C601.749 30.6579 602.788 29.8759 603.984 29.4383C605.179 29.0008 606.478 28.9275 607.715 29.2277C608.951 29.5279 610.071 30.1881 610.933 31.1249C611.794 32.0616 612.358 33.2329 612.553 34.4905C612.748 35.748 612.566 37.0355 612.03 38.19C611.493 39.3445 610.626 40.3142 609.539 40.9765C608.451 41.6388 607.192 41.964 605.92 41.9108C604.648 41.8576 603.421 41.4286 602.393 40.6779C601.016 39.6711 600.095 38.1582 599.833 36.4719C599.571 34.7857 599.99 33.064 600.997 31.6857Z" fill="#FFF96C"/>
</g>
<path opacity="0.678233" d="M633.464 -3.27616L605.504 34.9785L606.886 35.9876L634.846 -2.26702L633.464 -3.27616Z" fill="#FFF96C"/>
<g opacity="0.911256">
<path opacity="0.911256" d="M628.962 -6.56534C629.714 -7.59316 630.753 -8.37531 631.949 -8.81285C633.144 -9.2504 634.443 -9.32369 635.679 -9.02349C636.916 -8.72329 638.036 -8.0631 638.898 -7.12634C639.759 -6.18957 640.323 -5.0183 640.518 -3.76073C640.713 -2.50315 640.531 -1.2157 639.995 -0.0611831C639.458 1.09333 638.591 2.06301 637.504 2.72532C636.416 3.38762 635.157 3.71275 633.885 3.65961C632.613 3.60648 631.386 3.17749 630.358 2.42682C628.981 1.42011 628.059 -0.0927444 627.798 -1.77906C627.536 -3.46537 627.955 -5.18704 628.962 -6.56534V-6.56534Z" fill="#FFF96C"/>
</g>
<path opacity="0.320836" d="M483.573 -33.0286L482.758 -31.5225L690.17 80.565L690.985 79.0589L483.573 -33.0286Z" fill="#FFF96C"/>
<path opacity="0.22822" d="M653.251 -29.8424L689.784 80.075L691.409 79.5344L654.876 -30.383L653.251 -29.8424Z" fill="#FFF96C"/>
<path opacity="0.356486" d="M287.042 -30.9999L214.694 121.956L216.242 122.688L288.936 -30.9999L287.042 -30.9999Z" fill="#FFF96C"/>
<path opacity="0.449774" d="M382.134 -30.9999L214.889 121.687L216.043 122.951L384.672 -30.9999L382.134 -30.9999Z" fill="#FFF96C"/>
<g opacity="0.650612">
<path opacity="0.650612" d="M555.133 5.40619C554.899 6.6573 554.299 7.81098 553.409 8.72145C552.519 9.63191 551.379 10.2583 550.133 10.5212C548.887 10.7841 547.592 10.6718 546.411 10.1986C545.229 9.72539 544.215 8.91249 543.496 7.86262C542.777 6.81274 542.385 5.5731 542.371 4.30045C542.357 3.02779 542.721 1.77927 543.416 0.712795C544.111 -0.353677 545.107 -1.19023 546.278 -1.69106C547.448 -2.19188 548.741 -2.33454 549.992 -2.10091C551.67 -1.78748 553.154 -0.82052 554.118 0.587287C555.083 1.99509 555.448 3.72851 555.133 5.40619V5.40619Z" fill="#FFF96C"/>
</g>
<path opacity="0.671925" d="M547.999 4.07355L520.283 151.626L521.966 151.941L549.682 4.38856L547.999 4.07355Z" fill="#FFF96C"/>
<g opacity="0.569208">
<path opacity="0.569208" d="M527.485 152.972C527.251 154.223 526.651 155.377 525.76 156.287C524.87 157.198 523.73 157.824 522.485 158.087C521.239 158.35 519.944 158.237 518.762 157.764C517.581 157.291 516.566 156.478 515.847 155.428C515.128 154.378 514.737 153.139 514.723 151.866C514.709 150.593 515.072 149.345 515.768 148.278C516.463 147.212 517.459 146.375 518.629 145.874C519.8 145.374 521.093 145.231 522.344 145.465C524.022 145.778 525.506 146.745 526.47 148.153C527.434 149.561 527.799 151.294 527.485 152.972V152.972Z" fill="#FFF96C"/>
</g>
<path opacity="0.742891" d="M80.001 -4.54778L420.726 200.087L421.071 200.224L521.525 152.564L520.793 151.018L421.009 198.359L80.001 -6.67041L80.001 -4.54778Z" fill="#FFF96C"/>
<path opacity="0.239653" d="M420.763 -18.4404L420.171 199.289L421.883 199.293L422.476 -18.4368L420.763 -18.4404Z" fill="#FFF96C"/>
<g opacity="0.79485">
<path opacity="0.79485" d="M427.475 199.304C427.472 200.577 427.091 201.82 426.381 202.877C425.671 203.934 424.663 204.757 423.486 205.241C422.309 205.726 421.014 205.851 419.766 205.6C418.518 205.349 417.373 204.734 416.475 203.832C415.578 202.93 414.968 201.782 414.723 200.533C414.478 199.285 414.608 197.991 415.099 196.816C415.589 195.641 416.417 194.638 417.477 193.933C418.537 193.228 419.783 192.853 421.056 192.856C422.763 192.859 424.398 193.541 425.602 194.75C426.806 195.959 427.479 197.597 427.475 199.304V199.304Z" fill="#FFF96C"/>
</g>
<path opacity="0.568358" d="M330.98 43.9645L420.302 199.715L421.787 198.863L332.465 43.1126L330.98 43.9645Z" fill="#FFF96C"/>
<path opacity="0.773664" d="M320.355 25.4282L330.984 43.9619L332.469 43.11L321.84 24.5763L320.355 25.4282Z" fill="#FFF96C"/>
<g opacity="0.769702">
<path opacity="0.769702" d="M315.514 28.2048C314.881 27.1009 314.59 25.8339 314.677 24.5641C314.764 23.2943 315.226 22.0788 316.004 21.071C316.783 20.0633 317.842 19.3088 319.049 18.9028C320.255 18.4969 321.555 18.4577 322.784 18.7903C324.012 19.1229 325.114 19.8124 325.951 20.7715C326.787 21.7306 327.32 22.9162 327.482 24.1785C327.644 25.4408 327.428 26.723 326.861 27.863C326.295 29.003 325.403 29.9496 324.298 30.5831C322.817 31.4324 321.06 31.6589 319.412 31.2129C317.765 30.7669 316.363 29.6849 315.514 28.2048V28.2048Z" fill="#FFF96C"/>
</g>
<path opacity="0.94539" d="M287.74 -31.4452L320.358 25.4264L321.843 24.5744L289.225 -32.2972L287.74 -31.4452Z" fill="#FFF96C"/>
</g>
<g opacity="0.735122">
<path opacity="0.576199" d="M542.167 -4.45945L541.859 -2.42297L651.391 14.1013L651.699 12.0648L542.167 -4.45945Z" fill="#FFF96C"/>
<g opacity="0.740749">
<path opacity="0.740749" d="M652.701 5.4255C654.216 5.6541 655.63 6.32669 656.763 7.35819C657.896 8.38969 658.697 9.7338 659.066 11.2205C659.435 12.7072 659.354 14.2698 658.834 15.7106C658.314 17.1514 657.379 18.4058 656.145 19.315C654.912 20.2243 653.437 20.7476 651.906 20.8189C650.375 20.8901 648.857 20.506 647.544 19.7152C646.232 18.9244 645.183 17.7624 644.532 16.3761C643.88 14.9898 643.654 13.4415 643.882 11.927C644.189 9.89621 645.291 8.07043 646.944 6.85121C648.598 5.63199 650.669 5.11914 652.701 5.4255V5.4255Z" fill="#FFF96C"/>
</g>
<path opacity="0.653462" d="M978.316 -31.0001L1085.3 77.4785L651.699 12.0647L651.391 14.1009L1091.11 80.4391L981.21 -31.0001L978.316 -31.0001Z" fill="#FFF96C"/>
<path opacity="0.726273" d="M664.541 -31.0004L616.599 153.352L618.593 153.87L666.67 -31.0004L664.541 -31.0004Z" fill="#FFF96C"/>
<path opacity="0.836763" d="M987.137 -21.5868L617.155 152.68L618.034 154.542L988.015 -19.7241L987.137 -21.5868Z" fill="#FFF96C"/>
<path opacity="0.979603" d="M806.826 -31.0001L853.23 42.7687L854.974 41.6726L809.261 -31.0001L806.826 -31.0001Z" fill="#FFF96C"/>
<g opacity="0.685416">
<path opacity="0.685416" d="M860.648 38.1094C861.463 39.4063 861.876 40.9157 861.833 42.4468C861.79 43.9779 861.294 45.4618 860.407 46.711C859.52 47.9603 858.283 48.9186 856.851 49.4649C855.419 50.0111 853.858 50.1208 852.363 49.78C850.869 49.4392 849.51 48.6633 848.456 47.5503C847.403 46.4373 846.704 45.0373 846.447 43.5272C846.19 42.0172 846.387 40.465 847.013 39.0669C847.639 37.6688 848.666 36.4876 849.963 35.6726C851.703 34.58 853.807 34.2228 855.81 34.6798C857.814 35.1368 859.554 36.3704 860.648 38.1094Z" fill="#FFF96C"/>
</g>
<path opacity="0.980323" d="M853.183 41.7301L772.82 187.02L774.624 188.017L854.987 42.7268L853.183 41.7301Z" fill="#FFF96C"/>
<g opacity="0.8493">
<path opacity="0.8493" d="M780.501 191.265C779.76 192.605 778.637 193.695 777.276 194.398C775.914 195.101 774.374 195.384 772.851 195.213C771.328 195.041 769.89 194.421 768.719 193.433C767.549 192.445 766.697 191.131 766.273 189.659C765.849 188.187 765.871 186.623 766.337 185.164C766.802 183.704 767.69 182.416 768.889 181.461C770.087 180.506 771.542 179.928 773.069 179.8C774.596 179.671 776.127 179.998 777.469 180.74C779.267 181.734 780.597 183.401 781.166 185.375C781.735 187.348 781.496 189.467 780.501 191.265Z" fill="#FFF96C"/>
</g>
<path opacity="0.984283" d="M925.656 53.4989L773.041 186.741L774.397 188.293L927.012 55.05L925.656 53.4989Z" fill="#FFF96C"/>
<path opacity="0.27286" d="M999.639 -11.0949L925.655 53.4988L927.011 55.05L1001 -9.54372L999.639 -11.0949Z" fill="#FFF96C"/>
<path opacity="0.75419" d="M1176.78 -30.9998L1087.41 78.3074L1089 79.6104L1179.44 -30.9998L1176.78 -30.9998Z" fill="#FFF96C"/>
<path opacity="0.998997" d="M1042.58 -46.1328L1040.65 -45.4122L1087.26 79.3114L1089.19 78.5908L1042.58 -46.1328Z" fill="#FFF96C"/>
</g>
<path opacity="0.667884" d="M625.095 155.56C624.709 157.042 623.892 158.377 622.748 159.395C621.603 160.414 620.182 161.07 618.664 161.281C617.146 161.493 615.599 161.249 614.22 160.582C612.84 159.915 611.689 158.854 610.913 157.533C610.137 156.212 609.77 154.691 609.859 153.162C609.947 151.633 610.488 150.164 611.411 148.942C612.335 147.72 613.601 146.799 615.049 146.296C616.496 145.793 618.06 145.73 619.544 146.116C621.533 146.633 623.235 147.918 624.276 149.689C625.317 151.46 625.611 153.572 625.095 155.56V155.56Z" fill="#FFF96C"/>
<path opacity="0.760004" d="M921.235 48.4417C922.389 47.434 923.817 46.791 925.337 46.594C926.856 46.397 928.401 46.6549 929.774 47.3351C931.147 48.0152 932.288 49.087 933.052 50.415C933.816 51.743 934.168 53.2676 934.065 54.7958C933.962 56.324 933.408 57.7874 932.473 59.0007C931.537 60.2141 930.263 61.123 928.811 61.6126C927.359 62.1021 925.794 62.1502 924.314 61.7509C922.834 61.3516 921.506 60.5227 920.498 59.3691C919.146 57.8221 918.464 55.8019 918.602 53.7526C918.741 51.7034 919.688 49.793 921.235 48.4417Z" fill="#FFF96C"/>
<path opacity="0.945532" d="M1094.21 83.8594C1093.24 85.0454 1091.94 85.9174 1090.47 86.365C1089 86.8127 1087.44 86.816 1085.97 86.3744C1084.5 85.9328 1083.2 85.0662 1082.23 83.8842C1081.25 82.7022 1080.65 81.2579 1080.49 79.7339C1080.34 78.2099 1080.64 76.6747 1081.36 75.3223C1082.08 73.97 1083.19 72.8613 1084.54 72.1364C1085.89 71.4116 1087.42 71.1032 1088.95 71.2502C1090.47 71.3971 1091.92 71.9929 1093.11 72.9622C1094.7 74.262 1095.71 76.1402 1095.91 78.1838C1096.12 80.2273 1095.51 82.2688 1094.21 83.8594Z" fill="#FFF96C"/>
<path opacity="0.811058" d="M548.202 21.3003C549.399 21.7344 550.439 22.5136 551.193 23.5393C551.946 24.5649 552.378 25.791 552.434 27.0625C552.49 28.3341 552.167 29.5939 551.507 30.6827C550.847 31.7714 549.88 32.6402 548.726 33.1793C547.572 33.7183 546.285 33.9034 545.027 33.711C543.768 33.5186 542.596 32.9574 541.657 32.0985C540.718 31.2395 540.055 30.1214 539.752 28.8853C539.449 27.6493 539.519 26.351 539.954 25.1546C540.538 23.5504 541.734 22.2432 543.281 21.5204C544.828 20.7976 546.598 20.7184 548.202 21.3003Z" fill="#FFF96C"/>
<path opacity="0.965084" d="M338.004 42.124C337.224 38.6572 333.779 36.4798 330.311 37.2606C326.843 38.0414 324.664 41.4848 325.444 44.9516C326.225 48.4184 329.669 50.5959 333.137 49.8151C336.606 49.0343 338.785 45.5908 338.004 42.124Z" fill="#FFF96C"/>
<path opacity="0.899716" d="M693.64 74.1501C694.759 74.7551 695.674 75.6786 696.269 76.8038C696.863 77.929 697.11 79.2053 696.979 80.4713C696.848 81.7374 696.344 82.9363 695.531 83.9165C694.719 84.8967 693.634 85.6142 692.414 85.9782C691.194 86.3421 689.893 86.3363 688.677 85.9613C687.461 85.5864 686.383 84.8592 685.58 83.8717C684.778 82.8842 684.286 81.6807 684.168 80.4136C684.05 79.1464 684.31 77.8724 684.916 76.7526C685.728 75.2512 687.104 74.1336 688.74 73.6455C690.376 73.1575 692.138 73.339 693.64 74.1501Z" fill="#FFF96C"/>
<path opacity="0.969718" d="M209.654 114.174C211.095 113.019 212.846 112.316 214.686 112.155C216.526 111.995 218.372 112.383 219.99 113.271C221.609 114.16 222.927 115.508 223.779 117.146C224.631 118.784 224.977 120.638 224.775 122.473C224.573 124.309 223.83 126.043 222.642 127.458C221.454 128.872 219.874 129.902 218.1 130.419C216.327 130.936 214.44 130.915 212.679 130.359C210.918 129.804 209.362 128.739 208.207 127.299C206.659 125.367 205.941 122.9 206.212 120.439C206.484 117.977 207.722 115.724 209.654 114.174Z" fill="#FFF96C"/>
<path opacity="0.969718" d="M207.373 110.151C210.347 108.014 214.043 107.133 217.66 107.699C221.278 108.266 224.526 110.234 226.701 113.178C228.876 116.121 229.804 119.804 229.283 123.428C228.763 127.052 226.835 130.326 223.919 132.542C221.002 134.757 217.331 135.736 213.7 135.265C210.069 134.795 206.77 132.913 204.517 130.028C202.265 127.143 201.24 123.486 201.664 119.85C202.089 116.213 203.929 112.889 206.786 110.597C206.979 110.443 207.175 110.294 207.373 110.151ZM222.617 131.371C222.791 131.246 222.963 131.115 223.132 130.979C224.384 129.976 225.427 128.736 226.2 127.33C226.973 125.924 227.462 124.38 227.638 122.785C227.814 121.191 227.674 119.578 227.226 118.038C226.779 116.498 226.032 115.061 225.029 113.81C224.025 112.559 222.785 111.518 221.379 110.747C219.973 109.975 218.428 109.489 216.834 109.314C215.239 109.14 213.625 109.282 212.085 109.731C210.545 110.18 209.108 110.928 207.856 111.933C205.373 113.925 203.764 116.807 203.374 119.966C202.983 123.124 203.842 126.31 205.766 128.844C207.69 131.378 210.528 133.06 213.676 133.532C216.823 134.004 220.032 133.228 222.617 131.371Z" fill="#FFF96C"/>
<path opacity="0.578736" d="M592.529 43.2683C593.28 42.2405 594.319 41.4584 595.515 41.0208C596.711 40.5833 598.009 40.51 599.246 40.8102C600.483 41.1105 601.603 41.7706 602.464 42.7074C603.325 43.6442 603.889 44.8154 604.084 46.073C604.28 47.3306 604.097 48.618 603.561 49.7725C603.024 50.927 602.158 51.8968 601.07 52.5591C599.983 53.2214 598.723 53.5465 597.452 53.4933C596.18 53.4402 594.952 53.0111 593.925 52.2604C592.547 51.2537 591.626 49.7408 591.364 48.0545C591.102 46.3682 591.521 44.6466 592.529 43.2683V43.2683Z" fill="#FFF96C"/>
</g>
<defs>
<clipPath id="clip0">
<rect x="-210" y="15.2819" width="1613" height="806" transform="rotate(-8.20795 -210 15.2819)" fill="white"/>
</clipPath>
</defs>
</svg>
