<svg width="425" height="409" viewBox="0 0 425 409" fill="none" xmlns="http://www.w3.org/2000/svg">
<path d="M224.132 11.9999L212.132 -3.05176e-05L200.132 11.9999H224.132Z" fill="#0F0F0F"/>
<path d="M166.132 45.9999L180.132 31.9999H244.132L258.132 45.9999H166.132Z" fill="#0F0F0F"/>
<path d="M132.132 79.9999L148.132 63.9999H276.132L292.132 79.9999H132.132Z" fill="#0F0F0F"/>
<path d="M98.1321 114L116.132 95.9999H308.132L326.132 114H98.1321Z" fill="#0F0F0F"/>
<path d="M64.1321 148L84.1321 128H340.132L360.132 148H64.1321Z" fill="#0F0F0F"/>
<path d="M30.1321 182L52.1321 160H372.132L394.132 182H30.1321Z" fill="#0F0F0F"/>
<path d="M3.86794 216L0 212.132L20.1321 192H404.132L424.264 212.132L420.396 216H3.86794Z" fill="#0F0F0F"/>
<path d="M36.8679 249L12.8679 225H411.396L387.396 249H36.8679Z" fill="#0F0F0F"/>
<path d="M68.8679 281L46.8679 259H377.396L355.396 281H68.8679Z" fill="#0F0F0F"/>
<path d="M100.868 313L80.8679 293H343.396L323.396 313H100.868Z" fill="#0F0F0F"/>
<path d="M132.868 345L114.868 327H309.396L291.396 345H132.868Z" fill="#0F0F0F"/>
<path d="M164.868 377L148.868 361H275.396L259.396 377H164.868Z" fill="#0F0F0F"/>
<path d="M196.868 409L182.868 395H241.396L227.396 409H196.868Z" fill="#0F0F0F"/>
<rect width="424" height="380" fill="url(#paint0_linear)"/>
<defs>
<linearGradient id="paint0_linear" x1="158.227" y1="220.361" x2="158.227" y2="11.7526" gradientUnits="userSpaceOnUse">
<stop stop-color="#F3F3F9" stop-opacity="0"/>
<stop offset="1" stop-color="#F3F3F9" stop-opacity="0.94"/>
</linearGradient>
</defs>
</svg>
