<svg width="425" height="409" viewBox="0 0 425 409" fill="none" xmlns="http://www.w3.org/2000/svg">
<path d="M224.132 12L212.132 0L200.132 12H224.132Z" fill="#0F0F0F"/>
<path d="M166.132 46L180.132 32H244.132L258.132 46H166.132Z" fill="#0F0F0F"/>
<path d="M132.132 80L148.132 64H276.132L292.132 80H132.132Z" fill="#0F0F0F"/>
<path d="M98.1321 114L116.132 96H308.132L326.132 114H98.1321Z" fill="#0F0F0F"/>
<path d="M64.1321 148L84.1321 128H340.132L360.132 148H64.1321Z" fill="#0F0F0F"/>
<path d="M30.1321 182L52.1321 160H372.132L394.132 182H30.1321Z" fill="#0F0F0F"/>
<path d="M3.86794 216L0 212.132L20.1321 192H404.132L424.264 212.132L420.396 216H3.86794Z" fill="#0F0F0F"/>
<path d="M36.8679 249L12.8679 225H411.396L387.396 249H36.8679Z" fill="#0F0F0F"/>
<path d="M68.8679 281L46.8679 259H377.396L355.396 281H68.8679Z" fill="#0F0F0F"/>
<path d="M100.868 313L80.8679 293H343.396L323.396 313H100.868Z" fill="#0F0F0F"/>
<path d="M132.868 345L114.868 327H309.396L291.396 345H132.868Z" fill="#0F0F0F"/>
<path d="M164.868 377L148.868 361H275.396L259.396 377H164.868Z" fill="#0F0F0F"/>
<path d="M196.868 409L182.868 395H241.396L227.396 409H196.868Z" fill="#0F0F0F"/>
<path d="M424 212.396L420.396 216H3.86794L0 212.132L20.1321 192H404.132L424 211.868V212.396Z" fill="url(#paint0_linear)"/>
<path d="M224.132 12L212.132 0L200.132 12H224.132Z" fill="url(#paint1_linear)"/>
<path d="M166.132 46L180.132 32H244.132L258.132 46H166.132Z" fill="url(#paint2_linear)"/>
<path d="M148.132 64L132.132 80H292.132L276.132 64H148.132Z" fill="url(#paint3_linear)"/>
<path d="M98.1321 114L116.132 96H308.132L326.132 114H98.1321Z" fill="url(#paint4_linear)"/>
<path d="M84.1321 128L64.1321 148H360.132L340.132 128H84.1321Z" fill="url(#paint5_linear)"/>
<path d="M30.1321 182L52.1321 160H372.132L394.132 182H30.1321Z" fill="url(#paint6_linear)"/>
<path d="M36.8679 249L12.8679 225H411.396L387.396 249H36.8679Z" fill="url(#paint7_linear)"/>
<path d="M46.8679 259L68.8679 281H355.396L377.396 259H46.8679Z" fill="url(#paint8_linear)"/>
<path d="M100.868 313L80.8679 293H343.396L323.396 313H100.868Z" fill="url(#paint9_linear)"/>
<path d="M114.868 327L132.868 345H291.396L309.396 327H114.868Z" fill="url(#paint10_linear)"/>
<path d="M164.868 377L148.868 361H275.396L259.396 377H164.868Z" fill="url(#paint11_linear)"/>
<path d="M182.868 395L196.868 409H227.396L241.396 395H182.868Z" fill="url(#paint12_linear)"/>
<defs>
<linearGradient id="paint0_linear" x1="158.227" y1="228.894" x2="158.227" y2="-14.299" gradientUnits="userSpaceOnUse">
<stop stop-color="#F3F3F9" stop-opacity="0"/>
<stop offset="1" stop-color="#F3F3F9" stop-opacity="0.94"/>
</linearGradient>
<linearGradient id="paint1_linear" x1="158.227" y1="228.894" x2="158.227" y2="-14.299" gradientUnits="userSpaceOnUse">
<stop stop-color="#F3F3F9" stop-opacity="0"/>
<stop offset="1" stop-color="#F3F3F9" stop-opacity="0.94"/>
</linearGradient>
<linearGradient id="paint2_linear" x1="158.227" y1="228.894" x2="158.227" y2="-14.299" gradientUnits="userSpaceOnUse">
<stop stop-color="#F3F3F9" stop-opacity="0"/>
<stop offset="1" stop-color="#F3F3F9" stop-opacity="0.94"/>
</linearGradient>
<linearGradient id="paint3_linear" x1="158.227" y1="228.894" x2="158.227" y2="-14.299" gradientUnits="userSpaceOnUse">
<stop stop-color="#F3F3F9" stop-opacity="0"/>
<stop offset="1" stop-color="#F3F3F9" stop-opacity="0.94"/>
</linearGradient>
<linearGradient id="paint4_linear" x1="158.227" y1="228.894" x2="158.227" y2="-14.299" gradientUnits="userSpaceOnUse">
<stop stop-color="#F3F3F9" stop-opacity="0"/>
<stop offset="1" stop-color="#F3F3F9" stop-opacity="0.94"/>
</linearGradient>
<linearGradient id="paint5_linear" x1="158.227" y1="228.894" x2="158.227" y2="-14.299" gradientUnits="userSpaceOnUse">
<stop stop-color="#F3F3F9" stop-opacity="0"/>
<stop offset="1" stop-color="#F3F3F9" stop-opacity="0.94"/>
</linearGradient>
<linearGradient id="paint6_linear" x1="158.227" y1="228.894" x2="158.227" y2="-14.299" gradientUnits="userSpaceOnUse">
<stop stop-color="#F3F3F9" stop-opacity="0"/>
<stop offset="1" stop-color="#F3F3F9" stop-opacity="0.94"/>
</linearGradient>
<linearGradient id="paint7_linear" x1="158.227" y1="228.894" x2="158.227" y2="-14.299" gradientUnits="userSpaceOnUse">
<stop stop-color="#F3F3F9" stop-opacity="0"/>
<stop offset="1" stop-color="#F3F3F9" stop-opacity="0.94"/>
</linearGradient>
<linearGradient id="paint8_linear" x1="158.227" y1="228.894" x2="158.227" y2="-14.299" gradientUnits="userSpaceOnUse">
<stop stop-color="#F3F3F9" stop-opacity="0"/>
<stop offset="1" stop-color="#F3F3F9" stop-opacity="0.94"/>
</linearGradient>
<linearGradient id="paint9_linear" x1="158.227" y1="228.894" x2="158.227" y2="-14.299" gradientUnits="userSpaceOnUse">
<stop stop-color="#F3F3F9" stop-opacity="0"/>
<stop offset="1" stop-color="#F3F3F9" stop-opacity="0.94"/>
</linearGradient>
<linearGradient id="paint10_linear" x1="158.227" y1="228.894" x2="158.227" y2="-14.299" gradientUnits="userSpaceOnUse">
<stop stop-color="#F3F3F9" stop-opacity="0"/>
<stop offset="1" stop-color="#F3F3F9" stop-opacity="0.94"/>
</linearGradient>
<linearGradient id="paint11_linear" x1="158.227" y1="228.894" x2="158.227" y2="-14.299" gradientUnits="userSpaceOnUse">
<stop stop-color="#F3F3F9" stop-opacity="0"/>
<stop offset="1" stop-color="#F3F3F9" stop-opacity="0.94"/>
</linearGradient>
<linearGradient id="paint12_linear" x1="158.227" y1="228.894" x2="158.227" y2="-14.299" gradientUnits="userSpaceOnUse">
<stop stop-color="#F3F3F9" stop-opacity="0"/>
<stop offset="1" stop-color="#F3F3F9" stop-opacity="0.94"/>
</linearGradient>
</defs>
</svg>
