<svg width="40" height="40" viewBox="0 0 40 40" fill="none" xmlns="http://www.w3.org/2000/svg">
<path fill-rule="evenodd" clip-rule="evenodd" d="M38.5 1.5H1.5V38.5H38.5V1.5ZM0 0V40H40V0H0Z" fill="#D0D4D9"/>
<path fill-rule="evenodd" clip-rule="evenodd" d="M20.5871 19.7277H24.8895L25.135 17.7502H20.5871V13.0722C20.5871 12.2946 20.672 11.2284 21.3633 10.3756C22.1142 9.44924 23.2507 9.14907 24.4615 9.14895L25.5 9.14846V7.56923C24.8913 7.53133 24.1272 7.5 23.3021 7.5C21.7936 7.5 20.6703 7.97136 19.9226 8.73893C19.1728 9.50868 18.6383 10.7436 18.6383 12.5795V17.7503H14.5V19.7278H18.6382V32.5L20.5871 32.4999V19.7277ZM22.0871 33.9999L17.1382 34V21.2278H13V16.2503H17.1383V12.5795C17.1383 8.31954 19.6432 6 23.3021 6C25.0546 6 26.5609 6.13548 27 6.19592V10.6477L24.4623 10.649C22.4725 10.649 22.0871 11.6311 22.0871 13.0722V16.2502H26.8327L26.2148 21.2277H22.0871V33.9999Z" fill="#D0D4D9"/>
</svg>
