<svg width="66" height="66" viewBox="0 0 66 66" fill="none" xmlns="http://www.w3.org/2000/svg">
<g clip-path="url(#clip0)">
<path d="M42.7206 30.4651C42.4828 29.7333 41.8062 29.2416 41.0367 29.2416H32.757L30.1983 21.3671C29.9606 20.6353 29.2838 20.1436 28.5144 20.1436C27.745 20.1436 27.0682 20.6352 26.8305 21.367L24.2718 29.2415H15.9921C15.2226 29.2415 14.5459 29.7331 14.308 30.4649C14.0703 31.1967 14.3288 31.9924 14.9513 32.4446L21.6497 37.3113L19.0911 45.1858C18.8533 45.9176 19.1118 46.7132 19.7343 47.1654C20.3568 47.6177 21.1933 47.6177 21.8158 47.1654L28.5143 42.2987L35.2127 47.1654C35.5241 47.3915 35.8887 47.5047 36.2535 47.5047C36.6183 47.5047 36.983 47.3916 37.2943 47.1654C37.9168 46.7132 38.1753 45.9176 37.9376 45.1858L35.3789 37.3113L42.0774 32.4446C42.6999 31.9924 42.9583 31.1968 42.7206 30.4651ZM34.1467 35.8167C33.5242 36.269 33.2657 37.0644 33.5035 37.7964L35.9436 45.3064L29.5551 40.6649C28.9326 40.2126 28.096 40.2128 27.4736 40.6649L21.085 45.3066L23.5252 37.7964C23.763 37.0646 23.5046 36.269 22.882 35.8167L16.4935 31.1752H24.3902C25.1596 31.1752 25.8364 30.6836 26.0741 29.9518L28.5143 22.4416L30.9545 29.9518C31.1923 30.6836 31.8691 31.1752 32.6384 31.1752H40.5349L34.1467 35.8167Z" fill="#0F0F0F"/>
<path d="M52.371 46.8364C49.8827 46.8364 47.8584 48.8609 47.8584 51.3492C47.8584 53.8375 49.8827 55.8618 52.371 55.8618C54.8593 55.8618 56.8836 53.8375 56.8836 51.3492C56.8836 48.8609 54.8593 46.8364 52.371 46.8364ZM52.371 53.9282C50.9489 53.9282 49.792 52.7713 49.792 51.3492C49.792 49.9271 50.9489 48.77 52.371 48.77C53.7931 48.77 54.95 49.9271 54.95 51.3492C54.95 52.7713 53.7931 53.9282 52.371 53.9282Z" fill="#0F0F0F"/>
<path d="M63.6256 48.0066H63.2734C63.0615 47.3149 62.7834 46.6442 62.4434 46.0043L62.693 45.7548C63.6186 44.829 63.6186 43.3228 62.693 42.397L61.3237 41.0277C60.8752 40.5792 60.279 40.3321 59.6448 40.3321C59.0106 40.3321 58.4144 40.5791 57.9661 41.0275L57.7165 41.2772C57.0767 40.937 56.406 40.6591 55.7142 40.4472V40.095C55.7142 38.7859 54.649 37.7207 53.3399 37.7207H51.4033C50.0941 37.7207 49.029 38.7859 49.029 40.095V40.4472C48.337 40.6591 47.6664 40.937 47.0267 41.2771L46.7771 41.0277C46.3287 40.5792 45.7325 40.3321 45.0982 40.3321C44.464 40.3321 43.8678 40.5791 43.4194 41.0275L42.0499 42.397C41.1243 43.3228 41.1243 44.8291 42.05 45.7549L42.2996 46.0043C41.9594 46.6442 41.6815 47.3148 41.4695 48.0066H41.1174C39.8082 48.0066 38.7432 49.0718 38.7432 50.3808V52.3175C38.7432 53.6267 39.8083 54.6917 41.1174 54.6917H41.4695C41.6816 55.3836 41.9595 56.0543 42.2996 56.694L42.0499 56.9436C41.1243 57.8694 41.1243 59.3757 42.05 60.3013L43.4192 61.6706C43.8677 62.1192 44.4639 62.3662 45.0982 62.3662C45.7325 62.3662 46.3287 62.1192 46.777 61.6707L47.0266 61.4211C47.6664 61.7612 48.337 62.0393 49.0289 62.2512V62.6033C49.0289 63.9126 50.094 64.9777 51.4032 64.9777H53.3397C54.649 64.9777 55.7141 63.9125 55.7141 62.6033V62.2512C56.4059 62.0393 57.0765 61.7612 57.7164 61.4211L57.9657 61.6705C58.4141 62.119 59.0103 62.366 59.6447 62.366C60.2789 62.366 60.8752 62.119 61.3235 61.6706L62.693 60.3011C63.6186 59.3753 63.6186 57.869 62.6929 56.9433L62.4434 56.6938C62.7835 56.0539 63.0615 55.3833 63.2734 54.6915H63.6257C64.9349 54.6915 65.9999 53.6263 65.9999 52.3173V50.3806C65.9997 49.0718 64.9346 48.0066 63.6256 48.0066ZM64.0662 52.3175C64.0662 52.5605 63.8684 52.7581 63.6256 52.7581H62.8574C62.2312 52.7581 61.6825 53.1781 61.5232 53.7793C61.3083 54.591 60.9848 55.3717 60.5616 56.0996C60.2485 56.6387 60.339 57.3244 60.7817 57.7669L61.3255 58.3106C61.4973 58.4825 61.4973 58.7622 61.3256 58.934L59.9561 60.3035C59.7872 60.4724 59.502 60.4725 59.333 60.3034L58.7889 59.7594C58.5273 59.4981 58.1799 59.3541 57.8108 59.3541C57.569 59.3541 57.3307 59.4183 57.1217 59.5398C56.394 59.9627 55.6134 60.2863 54.8017 60.5013C54.2003 60.6605 53.7803 61.2091 53.7803 61.8353V62.6033C53.7803 62.8463 53.5826 63.0441 53.3396 63.0441H51.403C51.1601 63.0441 50.9623 62.8463 50.9623 62.6033V61.8353C50.9623 61.2091 50.5423 60.6605 49.9411 60.5013C49.1294 60.2863 48.3487 59.9628 47.6211 59.5398C47.4121 59.4183 47.1738 59.3541 46.9319 59.3541C46.5626 59.3541 46.2152 59.4981 45.9537 59.7597L45.4097 60.3037C45.2408 60.4725 44.9557 60.4727 44.7865 60.3035L43.4172 58.9342C43.2453 58.7623 43.2453 58.4827 43.417 58.3109L43.9612 57.7669C44.4037 57.3241 44.4941 56.6385 44.1809 56.0995C43.7579 55.3717 43.4343 54.5912 43.2194 53.7793C43.0602 53.178 42.5115 52.7581 41.8853 52.7581H41.1172C40.8742 52.7581 40.6766 52.5604 40.6766 52.3175V50.3808C40.6766 50.1379 40.8744 49.9402 41.1172 49.9402H41.8853C42.5115 49.9402 43.0602 49.5203 43.2194 48.919C43.4343 48.1075 43.7579 47.3268 44.1811 46.5989C44.4942 46.06 44.4038 45.3744 43.961 44.9313L43.4173 44.3877C43.2455 44.2159 43.2455 43.9363 43.4172 43.7645L44.7867 42.395C44.9555 42.226 45.2407 42.226 45.4099 42.3951L45.9534 42.9386C46.215 43.2002 46.5625 43.3444 46.9321 43.3444C47.174 43.3444 47.4124 43.2802 47.6212 43.1587C48.3489 42.7357 49.1294 42.4122 49.9416 42.1972C50.5427 42.0378 50.9624 41.4891 50.9624 40.8632V40.0952C50.9624 39.8522 51.1602 39.6544 51.4032 39.6544H53.3397C53.5827 39.6544 53.7805 39.8522 53.7805 40.0952V40.8632C53.7805 41.4893 54.2003 42.0379 54.8018 42.1974C55.6136 42.4124 56.3943 42.7359 57.1221 43.159C57.3309 43.2803 57.5691 43.3444 57.8108 43.3444C58.1802 43.3444 58.5276 43.2004 58.7891 42.9388L59.3331 42.3948C59.502 42.226 59.7871 42.2258 59.9562 42.395L61.3256 43.7643C61.4974 43.9362 61.4974 44.2158 61.3256 44.3875L60.7817 44.9313C60.339 45.3741 60.2485 46.0598 60.5618 46.5989C60.9849 47.3268 61.3085 48.1073 61.5233 48.9189C61.6825 49.5203 62.2312 49.9402 62.8575 49.9402H63.6257C63.8687 49.9402 64.0663 50.138 64.0663 50.3808V52.3175H64.0662Z" fill="#0F0F0F"/>
<path d="M37.6011 56.5053H3.38611C2.58521 56.5053 1.93359 55.8536 1.93359 55.0527V17.3014H55.095V36.6589C55.095 37.1929 55.5279 37.6257 56.0618 37.6257C56.5958 37.6257 57.0286 37.1929 57.0286 36.6589V8.82941C57.0286 6.96233 55.5096 5.4433 53.6425 5.4433H51.3061V4.52974C51.3061 2.59576 49.7327 1.02246 47.7988 1.02246C45.865 1.02246 44.2915 2.59589 44.2915 4.52974V5.4433H38.4499V4.52974C38.4499 2.59576 36.8765 1.02246 34.9426 1.02246C33.0088 1.02246 31.4353 2.59589 31.4353 4.52974V5.4433H25.5937V4.52974C25.5937 2.59576 24.0203 1.02246 22.0864 1.02246C20.1526 1.02246 18.5791 2.59589 18.5791 4.52974V5.4433H12.7372V4.52974C12.7372 2.59576 11.1638 1.02246 9.22995 1.02246C7.29609 1.02246 5.72254 2.59576 5.72254 4.52974V5.4433H3.38611C1.51903 5.4433 0 6.96233 0 8.82941V55.0529C0 56.92 1.51903 58.439 3.38611 58.439H37.6011C38.1351 58.439 38.5679 58.0061 38.5679 57.4722C38.5679 56.9383 38.1351 56.5053 37.6011 56.5053ZM46.2251 4.52974C46.2251 3.66195 46.9312 2.95605 47.7988 2.95605C48.6665 2.95605 49.3725 3.66207 49.3725 4.52974V8.32719C49.3725 9.19486 48.6665 9.90088 47.7988 9.90088C46.9312 9.90088 46.2251 9.19486 46.2251 8.32719V4.52974ZM33.3688 4.52974C33.3688 3.66195 34.0748 2.95605 34.9425 2.95605C35.8103 2.95605 36.5162 3.66207 36.5162 4.52974V8.32719C36.5162 9.19486 35.8102 9.90088 34.9425 9.90088C34.0748 9.90088 33.3688 9.19486 33.3688 8.32719V4.52974ZM20.5123 4.52974C20.5123 3.66195 21.2184 2.95605 22.086 2.95605C22.9537 2.95605 23.6597 3.66207 23.6597 4.52974V8.32719C23.6597 9.19486 22.9537 9.90088 22.086 9.90088C21.2184 9.90088 20.5123 9.19486 20.5123 8.32719V4.52974ZM7.65613 4.52974C7.65613 3.66195 8.36215 2.95605 9.22982 2.95605C10.0975 2.95605 10.8036 3.66195 10.8036 4.52974V8.32719C10.8036 9.19486 10.0976 9.90088 9.22995 9.90088C8.36228 9.90088 7.65626 9.19486 7.65626 8.32719L7.65613 4.52974ZM1.93359 8.82941C1.93359 8.02852 2.58521 7.37689 3.38611 7.37689H5.72254V8.32719C5.72254 10.261 7.29597 11.8345 9.22982 11.8345C11.1637 11.8345 12.7372 10.261 12.7372 8.32719V7.37689H18.5789V8.32719C18.5789 10.261 20.1523 11.8345 22.0862 11.8345C24.02 11.8345 25.5934 10.261 25.5934 8.32719V7.37689H31.4351V8.32719C31.4351 10.261 33.0085 11.8345 34.9424 11.8345C36.8763 11.8345 38.4496 10.261 38.4496 8.32719V7.37689H44.2913V8.32719C44.2913 10.261 45.8647 11.8345 47.7986 11.8345C49.7324 11.8345 51.3059 10.261 51.3059 8.32719V7.37689H53.6423C54.4432 7.37689 55.0948 8.02852 55.0948 8.82941V15.3679H1.93359V8.82941Z" fill="#0F0F0F"/>
<path fill-rule="evenodd" clip-rule="evenodd" d="M32.9996 53.8998H1.09961V52.0298H32.9996V53.8998Z" fill="#0F0F0F"/>
<path d="M15.125 22.8249H11.275V20.8999H15.125V22.8249ZM9.35 22.8249H5.5V20.8999H9.35V22.8249Z" fill="#0F0F0F"/>
<path d="M50.3252 22.8249H46.4752V20.8999H50.3252V22.8249ZM44.5502 22.8249H40.7002V20.8999H44.5502V22.8249Z" fill="#0F0F0F"/>
</g>
<defs>
<clipPath id="clip0">
<rect width="66" height="66" fill="white"/>
</clipPath>
</defs>
</svg>
