<svg width="66" height="66" viewBox="0 0 66 66" fill="none" xmlns="http://www.w3.org/2000/svg">
<path d="M39.233 13.9491C39.2388 12.1194 38.8835 10.3065 38.1874 8.61437C37.4912 6.92225 36.4679 5.38417 35.1762 4.0883C33.8845 2.79242 32.3497 1.76424 30.6598 1.06268C28.9699 0.361128 27.1582 0 25.3285 0C23.4988 0 21.687 0.361128 19.9972 1.06268C18.3073 1.76424 16.7725 2.79242 15.4808 4.0883C14.189 5.38417 13.1657 6.92225 12.4696 8.61437C11.7735 10.3065 11.4181 12.1194 11.424 13.9491V19.7285C10.8953 19.921 10.4227 20.2417 10.0484 20.6618C9.67405 21.0819 9.40978 21.5883 9.2792 22.1356C9.02724 23.1657 9.16993 24.2529 9.67918 25.1831C10.1884 26.1133 11.0274 26.8193 12.031 27.1621L12.5342 28.8932C12.8784 30.6844 13.5953 32.3833 14.6382 33.8796C15.6811 35.376 17.0268 36.6366 18.5882 37.5795V41.4882L7.57316 44.3464C6.34938 44.7303 5.2406 45.4132 4.34707 46.3334C3.45353 47.2535 2.80343 48.3818 2.45554 49.6163C2.42864 49.7134 2.40387 49.8112 2.38109 49.9089C2.25633 50.4584 2.19571 51.0206 2.20045 51.5842V58.0652C2.20045 58.3295 2.30544 58.5829 2.49231 58.7698C2.67918 58.9567 2.93263 59.0617 3.1969 59.0617H43.6049V57.0688H4.19335V51.5842C4.18879 51.173 4.23178 50.7627 4.32146 50.3614C4.3384 50.2891 4.35662 50.2172 4.37655 50.1449C4.63736 49.229 5.1223 48.3926 5.78754 47.7112C6.45277 47.0298 7.27733 46.5249 8.18668 46.2422L19.4837 43.2927C21.3001 44.1908 23.2991 44.658 25.3254 44.658C27.3517 44.658 29.3508 44.1908 31.1672 43.2927L40.7285 46.7794L41.3432 44.8837L32.0635 41.4882V37.58C33.6249 36.637 34.9707 35.3765 36.0136 33.8801C37.0565 32.3836 37.7732 30.6847 38.1174 28.8935L38.6207 27.1624C39.6244 26.8197 40.4634 26.1137 40.9726 25.1835C41.4819 24.2532 41.6245 23.166 41.3724 22.1359C41.2421 21.5894 40.9785 21.0837 40.6052 20.664C40.2319 20.2442 39.7605 19.9234 39.233 19.7302V13.9491ZM26.4037 14.3334C27.5817 15.5693 31.087 18.6502 37.2401 19.3138V19.5416C34.7521 19.4685 27.9012 18.9078 22.3559 15.1044C23.7183 14.9222 25.0696 14.6646 26.4037 14.3334ZM13.4169 13.9491C13.4115 12.3813 13.7156 10.828 14.3117 9.37803C14.9079 7.92809 15.7845 6.61009 16.8911 5.49963C17.9977 4.38916 19.3127 3.50807 20.7606 2.90687C22.2084 2.30568 23.7608 1.99621 25.3285 1.99621C26.8962 1.99621 28.4485 2.30568 29.8964 2.90687C31.3443 3.50807 32.6592 4.38916 33.7659 5.49963C34.8725 6.61009 35.749 7.92809 36.3452 9.37803C36.9414 10.828 37.2455 12.3813 37.2401 13.9491V17.3069C33.9932 16.9152 31.6244 15.7728 30.1639 14.8329C29.6249 14.4869 29.1104 14.1042 28.6241 13.6873C30.9071 12.9186 32.8593 11.9204 34.4582 10.6942C34.6651 10.5325 34.7998 10.2955 34.833 10.0349C34.8661 9.77437 34.7951 9.51124 34.6352 9.3028C34.4754 9.09436 34.2397 8.95746 33.9794 8.92189C33.7192 8.88632 33.4554 8.95496 33.2455 9.11288C26.8469 14.02 15.4074 13.5024 15.2921 13.4965C15.1609 13.4898 15.0297 13.509 14.906 13.5532C14.7823 13.5973 14.6685 13.6655 14.5713 13.7538C14.474 13.842 14.3952 13.9487 14.3392 14.0675C14.2833 14.1864 14.2515 14.3151 14.2455 14.4463L14.032 19.1332C14.0275 19.2599 13.9896 19.3832 13.9223 19.4906C13.855 19.5981 13.7605 19.6859 13.6485 19.7453C13.576 19.7842 13.4978 19.8113 13.4167 19.8254L13.4169 13.9491ZM30.0706 41.6106C28.5855 42.3057 26.9657 42.666 25.3258 42.666C23.686 42.666 22.0662 42.3057 20.5811 41.6106V38.5643C23.6309 39.7618 27.0208 39.7618 30.0706 38.5643V41.6106ZM39.5012 23.1466C39.5023 23.6753 39.3166 24.1874 38.9768 24.5925C38.637 24.9976 38.1649 25.2696 37.6441 25.3604C37.443 25.3955 37.2575 25.4916 37.1128 25.6357C36.9681 25.7797 36.8711 25.9647 36.835 26.1657L36.1905 28.3822C36.1816 28.4132 36.174 28.4447 36.1681 28.4763C35.6928 31.0043 34.3492 33.2868 32.3694 34.9291C30.3896 36.5714 27.8982 37.4703 25.3258 37.4703C22.7535 37.4703 20.2621 36.5714 18.2823 34.9291C16.3025 33.2868 14.9589 31.0043 14.4836 28.4763C14.4777 28.4447 14.4701 28.4132 14.4612 28.3823L13.8167 26.1657C13.7806 25.9647 13.6837 25.7797 13.539 25.6357C13.3943 25.4917 13.2089 25.3956 13.0078 25.3604C12.7048 25.3065 12.4161 25.1911 12.1595 25.0213C11.9028 24.8515 11.6838 24.6309 11.5157 24.3731C11.3477 24.1153 11.2343 23.8258 11.1826 23.5225C11.1308 23.2191 11.1418 22.9084 11.2149 22.6095C11.2698 22.3691 11.3869 22.1475 11.5545 21.9666C11.7221 21.7858 11.9343 21.6523 12.1698 21.5793C12.5754 21.7643 13.0202 21.847 13.4652 21.8201C13.9102 21.7932 14.3419 21.6576 14.7222 21.425C15.1026 21.1924 15.4201 20.8701 15.6469 20.4863C15.8737 20.1024 16.0028 19.6688 16.023 19.2234L16.1921 15.5096C16.948 15.5135 18.0881 15.4968 19.468 15.4C27.0641 21.8912 37.8148 21.5567 38.2748 21.5389C38.2908 21.5389 38.3061 21.536 38.3219 21.5346C38.5917 21.587 38.8405 21.7164 39.0384 21.9072C39.2362 22.0979 39.3746 22.3418 39.4368 22.6095C39.4797 22.7854 39.5013 22.9655 39.5012 23.1466Z" fill="#0F0F0F"/>
<path d="M45.5539 42.9372L48.8322 45.2552L47.5835 48.9952C47.5169 49.1944 47.5151 49.4095 47.5781 49.6099C47.6411 49.8102 47.7659 49.9856 47.9345 50.1108C48.1031 50.236 48.307 50.3048 48.517 50.3072C48.727 50.3097 48.9324 50.2457 49.1039 50.1244L52.4113 47.7859L55.7186 50.1243C55.8901 50.2455 56.0955 50.3094 56.3055 50.3069C56.5154 50.3044 56.7192 50.2357 56.8878 50.1105C57.0564 49.9853 57.1811 49.81 57.2442 49.6097C57.3072 49.4094 57.3054 49.1944 57.2389 48.9952L55.9904 45.2552L59.2687 42.9373C59.4414 42.8152 59.5708 42.6413 59.6381 42.4408C59.7054 42.2402 59.7072 42.0235 59.6431 41.8219C59.5791 41.6203 59.4525 41.4443 59.2818 41.3194C59.111 41.1945 58.905 41.1272 58.6934 41.1272H54.6116L53.3559 37.3663C53.2897 37.1681 53.1628 36.9956 52.9932 36.8735C52.8236 36.7513 52.6198 36.6855 52.4108 36.6855C52.2017 36.6855 51.998 36.7513 51.8284 36.8735C51.6588 36.9956 51.5319 37.1681 51.4656 37.3663L50.2098 41.1272H46.1291C45.9176 41.1273 45.7116 41.1946 45.5409 41.3195C45.3702 41.4443 45.2437 41.6203 45.1796 41.8219C45.1156 42.0234 45.1173 42.2401 45.1846 42.4407C45.2519 42.6412 45.3812 42.8151 45.5539 42.9372V42.9372ZM50.9283 43.1201C51.1373 43.1201 51.3411 43.0544 51.5107 42.9322C51.6804 42.81 51.8073 42.6376 51.8735 42.4393L52.4113 40.8283L52.9491 42.4393C53.0153 42.6376 53.1422 42.81 53.3118 42.9322C53.4814 43.0544 53.6852 43.1201 53.8943 43.1201H55.5582L54.2356 44.0552C54.0608 44.1787 53.9305 44.3552 53.8638 44.5586C53.7971 44.762 53.7978 44.9815 53.8655 45.1845L54.3851 46.7408L52.9864 45.7519C52.8181 45.6329 52.6172 45.5691 52.4111 45.5691C52.2051 45.5691 52.0041 45.6329 51.8359 45.7519L50.437 46.7409L50.9566 45.1845C51.0243 44.9815 51.0249 44.7621 50.9583 44.5587C50.8916 44.3554 50.7613 44.1789 50.5865 44.0554L49.2639 43.1201H50.9283Z" fill="#0F0F0F"/>
<path d="M44.3135 65.9197C44.493 65.9963 44.6911 66.0185 44.8832 65.9836C45.0752 65.9486 45.2528 65.8581 45.3938 65.7231L52.4116 59.007L59.4295 65.7231C59.5705 65.8581 59.7481 65.9488 59.9402 65.9838C60.1323 66.0188 60.3305 65.9965 60.5101 65.9199C60.6896 65.8432 60.8427 65.7154 60.9503 65.5524C61.0579 65.3895 61.1152 65.1985 61.1152 65.0032V52.4639C62.276 51.3554 63.2006 50.0235 63.8332 48.5484C64.4658 47.0732 64.7934 45.4853 64.7962 43.8802C64.7962 37.2198 59.2406 31.8013 52.4118 31.8013C45.583 31.8013 40.0273 37.2198 40.0273 43.8802C40.0301 45.4853 40.3577 47.0732 40.9904 48.5484C41.623 50.0236 42.5476 51.3555 43.7085 52.4639V65.0032C43.7085 65.1984 43.7658 65.3894 43.8734 65.5523C43.9809 65.7152 44.134 65.843 44.3135 65.9197V65.9197ZM59.1223 62.6704L53.1009 56.9079C52.9154 56.7304 52.6686 56.6314 52.4119 56.6314C52.1552 56.6314 51.9084 56.7304 51.7229 56.9079L45.7015 62.6704V54.027C47.7122 55.289 50.0381 55.9585 52.412 55.9585C54.7859 55.9585 57.1117 55.289 59.1224 54.027L59.1223 62.6704ZM42.0202 43.8802C42.0202 38.3188 46.6819 33.7942 52.4118 33.7942C58.1416 33.7942 62.8033 38.3188 62.8033 43.8802C62.8033 49.4417 58.1416 53.9663 52.4118 53.9663C46.6819 53.9663 42.0202 49.441 42.0202 43.8795V43.8802Z" fill="#0F0F0F"/>
<path fill-rule="evenodd" clip-rule="evenodd" d="M25.7028 49.2489C21.8664 49.3291 17.9757 47.8551 13.7471 44.7541L14.8529 43.2461C18.8743 46.1951 22.3696 47.4481 25.6637 47.3793C28.9619 47.3104 32.212 45.9135 35.7368 43.2537L36.8632 44.7464C33.16 47.5408 29.5351 49.1688 25.7028 49.2489Z" fill="#0F0F0F"/>
<path fill-rule="evenodd" clip-rule="evenodd" d="M24.5304 58.2998V47.2998H26.4004V58.2998H24.5304Z" fill="#0F0F0F"/>
</svg>
