<svg width="72" height="72" viewBox="0 0 72 72" fill="none" xmlns="http://www.w3.org/2000/svg">
<g clip-path="url(#clip0)">
<path d="M63.6019 48.45C65.369 48.45 66.8066 47.0125 66.8066 45.2455C66.8066 43.4786 65.369 42.0411 63.6019 42.0411C61.835 42.0411 60.3975 43.4786 60.3975 45.2455C60.3975 47.0125 61.8351 48.45 63.6019 48.45ZM63.6019 44.1543C64.2035 44.1543 64.693 44.6438 64.693 45.2452C64.693 45.8467 64.2035 46.3362 63.6019 46.3362C63.0003 46.3362 62.511 45.8467 62.511 45.2452C62.511 44.6438 63.0005 44.1543 63.6019 44.1543Z" fill="#D0D4D9"/>
<path d="M17.3907 46.8553C16.2992 47.7337 15.5996 49.0804 15.5996 50.5872C15.5996 53.2277 17.7478 55.3759 20.3881 55.3759H37.3863C36.858 56.5279 36.2481 58.2828 35.8995 60.7222C35.0898 66.3907 36.3134 68.1995 37.4824 69.7254C38.4718 71.0169 39.8011 71.7979 41.3264 71.9838C42.6134 72.1419 43.7886 71.1197 43.8229 69.8268C44.0207 67.7942 44.7445 63.418 45.7812 61.3443C48.4445 56.0177 54.7943 52.842 56.7555 51.9634C57.4417 52.5532 58.333 52.9108 59.3067 52.9108H67.898C70.0597 52.9108 71.8184 51.1523 71.8184 48.9904V27.5126C71.8184 25.3508 70.0597 23.5923 67.898 23.5923H59.307C58.1503 23.5923 57.1093 24.0962 56.3912 24.8955C55.2759 24.1914 53.4759 23.407 50.9901 23.407H23.3737C20.7332 23.407 18.5852 25.5551 18.5852 28.1955C18.5852 29.4059 19.0366 30.5129 19.7799 31.3569C18.1898 32.1367 17.0926 33.7726 17.0926 35.6596C17.0926 36.87 17.544 37.9768 18.2873 38.821C16.6972 39.6006 15.6 41.2365 15.6 43.1236C15.5996 44.6302 16.2993 45.977 17.3907 46.8553ZM59.307 25.7059H67.898C68.8943 25.7059 69.7049 26.5165 69.7049 27.5128V48.9906C69.7049 49.9869 68.8943 50.7975 67.898 50.7975H59.307C58.8024 50.7975 58.3461 50.5891 58.018 50.2544V26.6884C58.018 26.562 57.9951 26.438 57.9517 26.3215C58.2832 25.9451 58.7671 25.7059 59.307 25.7059ZM24.8281 45.7987H20.3877C18.9126 45.7987 17.7126 44.5984 17.7126 43.1236C17.7126 41.6487 18.9127 40.4485 20.3877 40.4485H24.8281C25.4117 40.4485 25.8849 39.9754 25.8849 39.3917C25.8849 38.8079 25.4117 38.3349 24.8281 38.3349H21.8806C20.4054 38.3349 19.2055 37.1346 19.2055 35.6597C19.2055 34.1849 20.4056 32.9846 21.8806 32.9846H25.6382C26.2218 32.9846 26.695 32.5116 26.695 31.9278C26.695 31.3441 26.2218 30.871 25.6382 30.871H23.3735C21.8985 30.871 20.6984 29.6708 20.6984 28.1958C20.6984 26.7208 21.8985 25.5207 23.3735 25.5207H50.9898C53.1709 25.5207 54.6496 26.2514 55.4524 26.8C55.4097 27.0314 55.3862 27.2695 55.3862 27.5131V48.9906C55.3862 49.4037 55.4509 49.8018 55.5698 50.1759C53.0937 51.3123 46.7545 54.6722 43.8909 60.3992C42.4587 63.2636 41.7446 69.3578 41.7149 69.6669C41.7118 69.7004 41.7101 69.7343 41.7101 69.7679C41.7101 69.8039 41.6963 69.8345 41.6692 69.8584C41.6312 69.8918 41.5947 69.8875 41.5824 69.886C40.9209 69.8053 39.9637 69.4889 39.16 68.4401C38.2374 67.2358 37.2858 65.9629 37.9917 61.021C38.5901 56.8322 40.0088 54.9998 40.0177 54.9884C40.5716 54.3114 40.0728 53.2623 39.2 53.2623H20.3879C18.9127 53.2623 17.7127 52.0621 17.7127 50.5871C17.7127 49.1119 18.9128 47.912 20.3879 47.912H24.8282C25.4118 47.912 25.885 47.4389 25.885 46.8552C25.885 46.2715 25.4118 45.7987 24.8281 45.7987Z" fill="#D0D4D9"/>
<path d="M41.2876 15.3954L38.7572 17.135C39.1597 18.1971 39.4585 19.2885 39.651 20.4001H37.4695C37.2811 19.449 37.0038 18.5159 36.639 17.6084C36.3388 16.8616 36.5909 16.0217 37.2528 15.5666L40.0728 13.6284C40.1516 13.5737 40.1716 13.4661 40.1174 13.3873L37.9227 10.195C37.8686 10.1162 37.7611 10.0958 37.6817 10.1504L34.8616 12.0891C34.1998 12.5436 33.3259 12.4783 32.736 11.9312C31.4105 10.7003 29.8962 9.7167 28.2348 9.00861C27.4942 8.69255 27.0789 7.92044 27.2251 7.13078L27.8482 3.76623C27.8656 3.67232 27.8034 3.58186 27.7095 3.56447L23.9007 2.85911C23.8068 2.84172 23.7158 2.90382 23.6984 2.99772L23.0753 6.36227C22.929 7.15193 22.2648 7.72411 21.4607 7.7541C19.6559 7.82029 17.8897 8.19636 16.2108 8.87088C15.8985 8.99648 15.57 9.02538 15.2597 8.96793C14.8292 8.8882 14.4341 8.6418 14.1697 8.25661L12.2314 5.43721C12.1773 5.35846 12.0692 5.33787 11.9903 5.39256L8.79802 7.58726C8.71927 7.6414 8.69934 7.74903 8.75338 7.82833L10.6922 10.6478C11.1467 11.3096 11.0819 12.1842 10.5337 12.7739C9.30332 14.0995 8.32027 15.6139 7.61109 17.2751C7.29557 18.0158 6.52357 18.4306 5.73391 18.2843L2.3699 17.6614C2.27545 17.6439 2.18499 17.7061 2.1675 17.8005L1.46214 21.6093C1.44475 21.7032 1.50684 21.7942 1.60129 21.8117L4.9653 22.4347C5.75496 22.5809 6.32724 23.2447 6.35713 24.0493C6.42387 25.8542 6.79939 27.6203 7.47345 29.2985C7.77417 30.0454 7.52163 30.8847 6.85963 31.3403L4.04024 33.2786C3.96148 33.3327 3.94145 33.4409 3.99559 33.5196L6.19029 36.712C6.24443 36.7907 6.35261 36.8108 6.43136 36.7566L9.25086 34.8178C9.9133 34.3628 10.7879 34.4277 11.377 34.9758C12.1234 35.6689 12.9296 36.2834 13.7882 36.8146C13.68 37.5237 13.5696 38.2603 13.4565 39.0152C13.4524 39.0422 13.4484 39.0692 13.4443 39.0962C12.2733 38.4525 11.1796 37.6787 10.1772 36.7835L7.64616 38.5236C6.59312 39.2476 5.14724 38.9798 4.42273 37.9267L2.22859 34.7344C1.50408 33.6813 1.77184 32.2354 2.82553 31.511L5.35596 29.7714C4.71114 28.0702 4.33251 26.2933 4.23048 24.4796L1.21079 23.9204C-0.0461842 23.6876 -0.879319 22.4758 -0.64654 21.2188L0.0588143 17.41C0.291593 16.153 1.50344 15.3199 2.76041 15.5527L5.78011 16.1119C6.5255 14.4546 7.51476 12.931 8.72592 11.5741L6.98637 9.04314C6.26186 7.98999 6.52963 6.54412 7.58332 5.81971L10.7751 3.62491C11.8287 2.90105 13.2746 3.16881 13.9984 4.22241L15.7386 6.75294C17.4393 6.10802 19.216 5.72993 21.0305 5.62691L21.5897 2.60721C21.8224 1.35079 23.0342 0.517654 24.2912 0.750433L28.1 1.45579C29.357 1.68857 30.1901 2.90041 29.9574 4.15684L29.3982 7.17653C31.0554 7.92247 32.5789 8.91174 33.9359 10.1229L36.4664 8.3827C37.52 7.65884 38.9659 7.9266 39.6898 8.97964L41.8845 12.172C42.609 13.2251 42.3412 14.6715 41.2876 15.3954Z" fill="#D0D4D9"/>
<path d="M14.6539 31.7295C14.5085 32.4316 14.3622 33.2416 14.2132 34.133C10.2527 31.2145 8.07246 26.1933 9.02682 21.0399C10.3574 13.855 17.2848 9.0924 24.4697 10.423C29.6844 11.3887 33.7582 15.3949 34.9523 20.4001H32.7359C31.5937 16.4373 28.2774 13.3091 24.0792 12.5317C18.0574 11.4165 12.2507 15.4085 11.1355 21.4304C10.405 25.3752 11.8661 29.2277 14.6539 31.7295Z" fill="#D0D4D9"/>
</g>
<defs>
<clipPath id="clip0">
<rect width="72" height="72" fill="white"/>
</clipPath>
</defs>
</svg>
