<svg width="60" height="57" viewBox="0 0 60 57" fill="none" xmlns="http://www.w3.org/2000/svg">
<path d="M55.2128 0H4.78723C2.14749 0 0 2.14762 0 4.78724V43.0851C0 45.7247 2.14749 47.8724 4.78723 47.8724H23.2979V54.8936H16.5957C16.067 54.8936 15.6383 55.3223 15.6383 55.8511C15.6383 56.3798 16.067 56.8085 16.5957 56.8085H43.4043C43.933 56.8085 44.3617 56.3798 44.3617 55.8511C44.3617 55.3223 43.933 54.8936 43.4043 54.8936H36.7021V47.8724H55.2128C57.8525 47.8724 60 45.7247 60 43.0851V4.78724C60 2.14762 57.8525 0 55.2128 0ZM34.7872 54.8936H25.2128V47.8724H34.7872V54.8936ZM58.0851 43.0851C58.0851 44.6689 56.7966 45.9575 55.2128 45.9575H4.78723C3.20336 45.9575 1.91489 44.6689 1.91489 43.0851V40.2128H58.0851V43.0851ZM58.0851 38.2979H1.91489V4.78724C1.91489 3.20349 3.20336 1.91489 4.78723 1.91489H55.2128C56.7966 1.91489 58.0851 3.20349 58.0851 4.78724V38.2979Z" fill="#0F0F0F"/>
<path d="M35.5446 18.6608L28.7716 25.4337L25.4391 22.1013C25.2794 21.9459 25.0649 21.8596 24.842 21.8611C24.6192 21.8627 24.4059 21.9519 24.2483 22.1095C24.0907 22.2671 24.0015 22.4804 24 22.7032C23.9985 22.9261 24.0848 23.1406 24.2403 23.3003L28.1722 27.2322C28.3312 27.3912 28.5468 27.4804 28.7716 27.4804C28.9964 27.4804 29.212 27.3912 29.371 27.2322L36.7435 19.8598C36.8239 19.7815 36.8881 19.6879 36.9321 19.5846C36.9761 19.4813 36.9992 19.3703 37 19.258C37.0007 19.1457 36.9792 19.0343 36.9366 18.9304C36.894 18.8265 36.8311 18.7321 36.7517 18.6527C36.6723 18.5733 36.5779 18.5104 36.474 18.4678C36.3701 18.4252 36.2588 18.4036 36.1465 18.4044C36.0342 18.4051 35.9231 18.4282 35.8198 18.4722C35.7165 18.5162 35.623 18.5804 35.5446 18.6608Z" fill="#0F0F0F"/>
<path fill-rule="evenodd" clip-rule="evenodd" d="M43.3 11.1043H15.7V29.7043H43.3V11.1043ZM14 9.4043V31.4043H45V9.4043H14Z" fill="#0F0F0F"/>
<path fill-rule="evenodd" clip-rule="evenodd" d="M38 15.4043H21V13.7043H38V15.4043Z" fill="#0F0F0F"/>
</svg>
