<svg width="72" height="72" viewBox="0 0 72 72" fill="none" xmlns="http://www.w3.org/2000/svg">
<g clip-path="url(#clip0)">
<path d="M70.8511 3H1.14894C0.514264 3 0 3.51442 0 4.14894V66.9574C0 67.592 0.514264 68.1064 1.14894 68.1064H70.8511C71.4857 68.1064 72 67.592 72 66.9574V54.7021C72 54.0676 71.4857 53.5532 70.8511 53.5532C70.2164 53.5532 69.7021 54.0676 69.7021 54.7021V65.8085H2.29787V14.4894H69.7021V50.1064C69.7021 50.7409 70.2164 51.2553 70.8511 51.2553C71.4857 51.2553 72 50.7409 72 50.1064V4.14894C72 3.51442 71.4857 3 70.8511 3ZM2.29787 5.29787H44.8085V12.1915H2.29787V5.29787ZM47.1064 12.1915V5.29787H69.7021V12.1915H47.1064Z" fill="#D0D4D9"/>
<path d="M58.4423 7.51904C57.7666 7.51904 57.2168 8.06885 57.2168 8.74457C57.2168 9.4203 57.7666 9.97011 58.4423 9.97011C59.1181 9.97011 59.6679 9.4203 59.6679 8.74457C59.6679 8.06885 59.1181 7.51904 58.4423 7.51904Z" fill="#D0D4D9"/>
<path d="M52.1621 7.51904C51.4863 7.51904 50.9365 8.06885 50.9365 8.74457C50.9365 9.4203 51.4863 9.97011 52.1621 9.97011C52.8378 9.97011 53.3876 9.4203 53.3876 8.74457C53.3876 8.06885 52.8378 7.51904 52.1621 7.51904Z" fill="#D0D4D9"/>
<path d="M64.7236 7.51904C64.0479 7.51904 63.498 8.06885 63.498 8.74457C63.498 9.4203 64.0479 9.97011 64.7236 9.97011C65.3993 9.97011 65.9491 9.4203 65.9491 8.74457C65.9491 8.06885 65.3993 7.51904 64.7236 7.51904Z" fill="#D0D4D9"/>
<path d="M28.0895 46.9071C28.5384 46.4584 29.2658 46.4584 29.7144 46.9071L35.8815 53.0741C36.3316 52.8584 36.8351 52.7372 37.3667 52.7372C39.2672 52.7372 40.8135 54.2834 40.8135 56.1841C40.8135 58.0847 39.2672 59.6309 37.3667 59.6309C35.4662 59.6309 33.9199 58.0847 33.9199 56.1841C33.9199 55.6526 34.0409 55.1489 34.2567 54.699L28.0897 48.5318C27.641 48.0833 27.641 47.3558 28.0895 46.9071ZM37.3667 57.3331C38.0003 57.3331 38.5156 56.8178 38.5156 56.1842C38.5156 55.5506 38.0003 55.0353 37.3667 55.0353C36.7331 55.0353 36.2177 55.5506 36.2177 56.1842C36.2177 56.8178 36.7331 57.3331 37.3667 57.3331Z" fill="#D0D4D9"/>
<path d="M51.4237 56.1842C51.4237 56.8187 51.938 57.3331 52.5727 57.3331H60.7716C61.4063 57.3331 61.9205 56.8187 61.9205 56.1842C61.9205 56.1551 61.9195 56.1263 61.9173 56.0978C61.8942 49.0484 59.041 42.6538 54.4384 37.9901C54.4045 37.9443 54.3682 37.8997 54.3265 37.858C54.2858 37.8173 54.2421 37.7816 54.1971 37.7482C49.514 33.1253 43.085 30.2671 36.0002 30.2671C28.9164 30.2671 22.4883 33.1249 17.8054 37.7468C17.7597 37.7805 17.7153 37.8168 17.674 37.858C17.6326 37.8994 17.5963 37.9438 17.5626 37.9895C12.9408 42.6724 10.083 49.1005 10.083 56.1842C10.083 56.8187 10.5973 57.3331 11.2319 57.3331H19.428C20.0627 57.3331 20.5769 56.8187 20.5769 56.1842C20.5769 47.6798 27.4958 40.7609 36.0002 40.7609C44.5047 40.7609 51.4237 47.6798 51.4237 56.1842ZM24.3148 42.8737L20.1396 38.6984C24.0698 35.13 29.2036 32.8646 34.8515 32.5928V38.5011C30.8285 38.7599 27.1672 40.3665 24.3148 42.8737ZM37.1493 32.5928C42.7972 32.8648 47.931 35.13 51.8612 38.6984L47.686 42.8737C44.8337 40.3665 41.1723 38.7597 37.1493 38.501V32.5928ZM53.6847 55.0352C53.4261 51.0121 51.8185 47.3505 49.3112 44.4983L53.4861 40.3233C57.0546 44.2538 59.32 49.3875 59.592 55.0354H53.6847V55.0352ZM18.3161 55.0351H12.4086C12.6807 49.3872 14.9461 44.2535 18.5145 40.323L22.6894 44.498C20.1823 47.3504 18.5747 51.012 18.3161 55.0351Z" fill="#D0D4D9"/>
</g>
<defs>
<clipPath id="clip0">
<rect width="72" height="72" fill="white"/>
</clipPath>
</defs>
</svg>
