<svg width="60" height="63" viewBox="0 0 60 63" fill="none" xmlns="http://www.w3.org/2000/svg">
<path d="M53.4805 14.7879H47.3814V11.2577H55.2022C55.6938 11.2577 56.0917 10.8593 56.0917 10.3682V5.24491C56.0888 2.34941 53.7422 0.0034746 50.8473 0C50.7639 0 50.6805 0.0023164 50.5983 0.00637011V0H17.0441C13.8301 0.0104238 11.2183 2.59726 11.1772 5.81127L11.1263 14.7873H6.51951C2.9204 14.792 0.00405371 17.7083 0 21.3074V47.7184C0.00405371 51.3169 2.9204 54.2339 6.51951 54.2379H29.1102V60.5291H18.3702C17.8791 60.5291 17.4807 60.9275 17.4807 61.4186C17.4807 61.9097 17.8791 62.3081 18.3702 62.3081H42.3027C42.7944 62.3081 43.1922 61.9097 43.1922 61.4186C43.1922 60.9275 42.7944 60.5291 42.3027 60.5291H30.8892V54.2379H53.4805C57.0796 54.2339 59.9959 51.3169 60 47.7184V21.3074C59.9959 17.7083 57.0796 14.792 53.4805 14.7879ZM54.3127 5.24491V9.47871H47.3814V5.24491C47.3814 3.33041 48.9328 1.779 50.8473 1.779C52.7612 1.779 54.3127 3.33041 54.3127 5.24491ZM12.9562 5.82633C12.9857 3.58753 14.8053 1.78595 17.0441 1.779H46.9152C46.0686 2.73509 45.6012 3.968 45.6018 5.24491V45.8573H12.7223L12.8948 16.5669H13.0222V14.7879H12.9052L12.9562 5.82633ZM6.51951 16.5669H11.1158L10.9433 45.8573H1.779V21.3074C1.78189 18.6905 3.90256 16.5698 6.51951 16.5669ZM53.4805 52.4589H6.51951C3.90256 52.456 1.78189 50.3354 1.779 47.7184V47.6363H58.221V47.7184C58.2181 50.3354 56.0974 52.456 53.4805 52.4589ZM58.221 45.8573H47.3814V16.5669H53.4805C56.0974 16.5698 58.2181 18.6905 58.221 21.3074V45.8573Z" fill="#0F0F0F"/>
<path d="M26.6084 25.5071C26.6084 25.9982 27.0068 26.3966 27.4979 26.3966H37.6223C38.114 26.3966 38.5118 25.9982 38.5118 25.5071C38.5118 25.016 38.114 24.6176 37.6223 24.6176H27.4979C27.0068 24.6176 26.6084 25.016 26.6084 25.5071Z" fill="#0F0F0F"/>
<path d="M40.3655 33.3989H38.8651C38.374 33.3989 37.9756 33.7973 37.9756 34.2884C37.9756 34.7801 38.374 35.1779 38.8651 35.1779H40.3661C40.8572 35.1779 41.2556 34.7801 41.2556 34.2884C41.2556 33.7973 40.8572 33.3989 40.3661 33.3989H40.3655Z" fill="#0F0F0F"/>
<path d="M36.6997 34.2884C36.6997 33.7973 36.3713 33.3989 35.9664 33.3989H28.2509C27.846 33.3989 27.5176 33.7973 27.5176 34.2884C27.5176 34.7801 27.846 35.1779 28.2509 35.1779H35.9664C36.3713 35.1779 36.6997 34.7801 36.6997 34.2884Z" fill="#0F0F0F"/>
<path d="M27.6118 18.5921H36.3166C36.6105 18.5921 36.8483 18.1942 36.8483 17.7026C36.8483 17.2115 36.6105 16.8131 36.3166 16.8131H27.6118C27.3182 16.8131 27.0801 17.2115 27.0801 17.7026C27.0801 18.1942 27.3182 18.5921 27.6118 18.5921Z" fill="#0F0F0F"/>
<path d="M40.3652 18.592C40.8569 18.592 41.2547 18.1942 41.2547 17.7025C41.2547 17.2114 40.8569 16.813 40.3652 16.813H39.287C38.7959 16.813 38.3975 17.2114 38.3975 17.7025C38.3975 18.1942 38.7959 18.592 39.287 18.592H40.3652Z" fill="#0F0F0F"/>
<path d="M26.4717 41.1161C26.4717 41.6072 26.8701 42.0056 27.3612 42.0056H39.685C40.1761 42.0056 40.5745 41.6072 40.5745 41.1161C40.5745 40.6245 40.1761 40.2266 39.685 40.2266H27.3612C26.8701 40.2266 26.4717 40.6245 26.4717 41.1161Z" fill="#0F0F0F"/>
<path d="M27.4276 10.7881H40.3659C40.8575 10.7881 41.2554 10.3897 41.2554 9.89859C41.2554 9.40752 40.8575 9.00909 40.3659 9.00909H27.4276C26.9365 9.00909 26.5381 9.40752 26.5381 9.89859C26.5381 10.3897 26.9365 10.7881 27.4276 10.7881Z" fill="#0F0F0F"/>
<path d="M14.8799 17.5828H24.6481V7.81454H14.8799V17.5828ZM16.5079 9.44258H23.0201V15.9547H16.5079V9.44258Z" fill="#0F0F0F"/>
<path d="M14.8799 30.4036H24.6481V20.6354H14.8799V30.4036ZM16.5079 22.2634H23.0201V28.7756H16.5079V22.2634Z" fill="#0F0F0F"/>
<path d="M14.8799 43.2244H24.6481V33.4562H14.8799V43.2244ZM16.5079 35.0842H23.0201V41.5964H16.5079V35.0842Z" fill="#0F0F0F"/>
</svg>
