<svg width="60" height="61" viewBox="0 0 60 61" fill="none" xmlns="http://www.w3.org/2000/svg">
<path d="M34.9358 30.8214L45.2908 16.5218C45.5615 16.148 45.5205 15.6328 45.1942 15.3065C44.8679 14.9801 44.3527 14.9391 43.9789 15.21L29.6794 25.5649C27.0999 25.7306 25.0518 27.8806 25.0518 30.5011C25.0518 33.2292 27.2714 35.4489 29.9996 35.4489C32.62 35.4489 34.7701 33.4007 34.9358 30.8214ZM34.4343 28.3104C33.9525 27.3391 33.1614 26.5479 32.1903 26.0663L40.3252 20.1755L34.4343 28.3104ZM26.9307 30.5011C26.9307 28.8089 28.3074 27.4322 29.9996 27.4322C31.6917 27.4322 33.0685 28.8089 33.0685 30.5011C33.0685 32.1932 31.6917 33.57 29.9996 33.57C28.3074 33.57 26.9307 32.1932 26.9307 30.5011Z" fill="#0F0F0F"/>
<path d="M59.9995 30.4915C59.9992 30.0627 59.9906 29.6329 59.9724 29.2017C59.8256 25.7351 59.0702 22.3503 57.7661 19.1818C57.7543 19.1276 57.7384 19.0736 57.7164 19.0205C57.6923 18.9624 57.6627 18.908 57.629 18.8575C56.1733 15.4358 54.0749 12.2738 51.4058 9.54563C51.3992 9.53874 51.3923 9.53223 51.3855 9.52534C51.3418 9.43979 51.2847 9.35924 51.2131 9.28772C51.1413 9.21594 51.0606 9.1587 50.9748 9.11498C48.2351 6.4235 45.0522 4.30772 41.6015 2.84642C41.563 2.8235 41.5231 2.80208 41.4804 2.78442C41.4407 2.76801 41.4005 2.75561 41.3602 2.74484C38.3789 1.51327 35.2028 0.767593 31.9424 0.56204C31.3053 0.521956 30.6709 0.503793 30.0386 0.502666C30.0257 0.502415 30.013 0.501038 30 0.501038C29.9866 0.501038 29.9734 0.502541 29.9602 0.503042C26.4083 0.506048 22.9375 1.12196 19.6182 2.34613C15.8365 3.74116 12.4219 5.85419 9.4691 8.62672C9.24413 8.83803 9.02405 9.05311 8.80634 9.27018C8.79996 9.27632 8.79307 9.28158 8.7868 9.28784C8.77891 9.29574 8.77215 9.30425 8.76463 9.31227C6.14042 11.9391 4.05094 14.9848 2.54931 18.3808C0.857661 22.2068 0 26.2845 0 30.501C0 36.5317 1.78772 42.3507 5.17002 47.3291C6.0843 48.6746 7.61311 49.4781 9.25941 49.4781H10.9603C11.4792 49.4781 11.8998 49.0574 11.8998 48.5386C11.8998 48.0198 11.4792 47.5992 10.9603 47.5992H9.25941C8.23603 47.5992 7.28831 47.1034 6.72413 46.2731C5.82488 44.9495 5.04614 43.5622 4.39165 42.1253L7.21428 40.9561C7.69365 40.7575 7.92125 40.2079 7.72271 39.7286C7.52417 39.2493 6.97453 39.0217 6.49528 39.2202L3.67152 40.3899C2.59904 37.5408 1.99691 34.5255 1.8952 31.4405H4.94781C5.46664 31.4405 5.88726 31.0199 5.88726 30.501C5.88726 29.9822 5.46664 29.5616 4.94781 29.5616H1.89595C1.99616 26.4749 2.59002 23.4743 3.66789 20.6108L6.49528 21.782C6.61277 21.8307 6.73465 21.8538 6.8544 21.8538C7.22305 21.8538 7.5729 21.6353 7.72271 21.2736C7.92125 20.7942 7.69365 20.2447 7.21428 20.0461L4.38889 18.8758C5.66154 16.0752 7.36371 13.5323 9.46296 11.2926L11.6211 13.4508C11.8045 13.6341 12.045 13.726 12.2853 13.726C12.5257 13.726 12.7662 13.6343 12.9496 13.4508C13.3165 13.0839 13.3165 12.489 12.9496 12.1222L10.7911 9.9635C13.0678 7.83294 15.623 6.12789 18.3696 4.87766L19.5451 7.71532C19.695 8.07707 20.0448 8.29553 20.4134 8.29553C20.5333 8.29553 20.655 8.27248 20.7725 8.22375C21.2519 8.02521 21.4795 7.47557 21.281 6.99632L20.1055 4.15853C22.9445 3.09281 25.9586 2.49419 29.0605 2.39548V5.44885C29.0605 5.96768 29.4812 6.3883 30 6.3883C30.5188 6.3883 30.9394 5.96768 30.9394 5.44885V2.39661C31.2339 2.40626 31.5287 2.41891 31.8243 2.43757C34.6021 2.61269 37.3152 3.20617 39.8853 4.18083L38.7192 6.99632C38.5206 7.47569 38.7482 8.02521 39.2276 8.22375C39.3451 8.27248 39.467 8.29553 39.5867 8.29553C39.9554 8.29553 40.3052 8.07707 40.455 7.71532L41.6186 4.90634C44.3683 6.16722 46.923 7.87928 49.1781 9.99432L47.0503 12.1221C46.6834 12.489 46.6834 13.0839 47.0503 13.4506C47.2336 13.634 47.4741 13.7258 47.7145 13.7258C47.9549 13.7258 48.1954 13.6341 48.3788 13.4506L50.5062 11.3232C52.6196 13.5818 54.3283 16.1377 55.5879 18.8851L52.7856 20.0459C52.3062 20.2444 52.0786 20.7941 52.2771 21.2733C52.4271 21.6351 52.7768 21.8535 53.1455 21.8535C53.2653 21.8535 53.3871 21.8305 53.5046 21.7817L56.3134 20.6182C57.3601 23.3763 57.9688 26.2965 58.0951 29.281C58.0991 29.3746 58.1012 29.4679 58.1043 29.5613H55.0522C54.5333 29.5613 54.1127 29.982 54.1127 30.5008C54.1127 31.0196 54.5333 31.4402 55.0522 31.4402H58.1052C58.0047 34.5297 57.4057 37.5416 56.3317 40.3909L53.5046 39.2198C53.0253 39.0214 52.4757 39.2489 52.2771 39.7283C52.0786 40.2076 52.3062 40.7572 52.7856 40.9557L55.6095 42.1254C54.9551 43.5596 54.1769 44.9464 53.2755 46.273C52.7115 47.1035 51.7638 47.5992 50.7406 47.5992H49.0396C48.5208 47.5992 48.1002 48.0198 48.1002 48.5386C48.1002 49.0574 48.5208 49.4781 49.0396 49.4781H50.7406C52.387 49.4781 53.9156 48.6748 54.8298 47.3293C58.2242 42.3334 59.9987 36.545 59.9995 30.5136C59.9995 30.5093 60.0001 30.5053 60.0001 30.501C60 30.4978 59.9995 30.4946 59.9995 30.4915Z" fill="#0F0F0F"/>
<path d="M41.023 38.5782H18.9771C16.2489 38.5782 14.0293 40.7979 14.0293 43.5261V55.5511C14.0293 58.2793 16.2489 60.4989 18.9771 60.4989H41.023C43.7512 60.4989 45.9708 58.2793 45.9708 55.5511V43.5261C45.9708 40.7979 43.7512 38.5782 41.023 38.5782ZM44.0919 55.5511C44.0919 57.2433 42.7152 58.62 41.023 58.62H18.9771C17.285 58.62 15.9082 57.2433 15.9082 55.5511V43.5261C15.9082 41.8339 17.285 40.4572 18.9771 40.4572H41.023C42.7152 40.4572 44.0919 41.8339 44.0919 43.5261V55.5511Z" fill="#0F0F0F"/>
<path d="M25.6532 43.8639C25.2863 43.497 24.6914 43.497 24.3247 43.8639L19.3142 48.8744C18.9473 49.2412 18.9473 49.8361 19.3142 50.2029L24.3247 55.2133C24.508 55.3967 24.7485 55.4885 24.9889 55.4885C25.2293 55.4885 25.4698 55.3968 25.6532 55.2133C26.0201 54.8464 26.0201 54.2516 25.6532 53.8848L21.307 49.5386L25.6532 45.1924C26.0201 44.8257 26.0201 44.2307 25.6532 43.8639Z" fill="#0F0F0F"/>
<path d="M35.674 43.8639C35.3071 43.497 34.7122 43.497 34.3455 43.8639C33.9786 44.2308 33.9786 44.8257 34.3455 45.1924L38.6917 49.5386L34.3455 53.8848C33.9786 54.2517 33.9786 54.8465 34.3455 55.2133C34.5289 55.3967 34.7694 55.4885 35.0097 55.4885C35.2501 55.4885 35.4906 55.3968 35.674 55.2133L40.6844 50.2029C41.0513 49.836 41.0513 49.2411 40.6844 48.8744L35.674 43.8639Z" fill="#0F0F0F"/>
<path d="M30 50.6033C29.7532 50.6033 29.5102 50.7035 29.3361 50.8789C29.1608 51.053 29.0605 51.296 29.0605 51.5428C29.0605 51.7896 29.1608 52.0326 29.3361 52.2067C29.5102 52.382 29.7532 52.4823 30 52.4823C30.2468 52.4823 30.4898 52.382 30.6639 52.2067C30.8393 52.0326 30.9395 51.7896 30.9395 51.5428C30.9395 51.296 30.8393 51.053 30.6639 50.8789C30.4898 50.7035 30.2468 50.6033 30 50.6033Z" fill="#0F0F0F"/>
<path d="M33.0059 50.6033C32.7591 50.6033 32.5161 50.7035 32.342 50.8789C32.1666 51.053 32.0664 51.296 32.0664 51.5428C32.0664 51.7896 32.1666 52.0326 32.342 52.2067C32.5161 52.382 32.7591 52.4823 33.0059 52.4823C33.2526 52.4823 33.4956 52.382 33.6697 52.2067C33.8451 52.0326 33.9453 51.7896 33.9453 51.5428C33.9453 51.2948 33.8451 51.053 33.6697 50.8789C33.4956 50.7035 33.2526 50.6033 33.0059 50.6033Z" fill="#0F0F0F"/>
<path d="M26.9941 50.6033C26.7474 50.6033 26.5044 50.7035 26.3303 50.8789C26.1549 51.053 26.0547 51.296 26.0547 51.5428C26.0547 51.7896 26.1549 52.0326 26.3303 52.2067C26.5044 52.382 26.7474 52.4823 26.9941 52.4823C27.2409 52.4823 27.4839 52.382 27.658 52.2067C27.8334 52.0326 27.9336 51.7896 27.9336 51.5428C27.9336 51.296 27.8334 51.053 27.658 50.8789C27.4839 50.7035 27.2409 50.6033 26.9941 50.6033Z" fill="#0F0F0F"/>
<path d="M48 45.1192C51.1297 41.1903 53 36.2135 53 30.8C53 18.0974 42.7025 7.79999 30 7.79999C17.2975 7.79999 7 18.0974 7 30.8C7 36.2135 8.8703 41.1903 12 45.1192V48.1494C7.66568 43.6536 5 37.5381 5 30.8C5 16.9929 16.1929 5.79999 30 5.79999C43.8071 5.79999 55 16.9929 55 30.8C55 37.5381 52.3343 43.6536 48 48.1494V45.1192Z" fill="#0F0F0F"/>
</svg>
