<svg width="61" height="60" viewBox="0 0 61 60" fill="none" xmlns="http://www.w3.org/2000/svg">
<g clip-path="url(#clip0)">
<path d="M60.1776 27.3413C53.4741 21.0798 46.6119 16.9384 39.6743 14.9516C39.7082 14.8583 39.7278 14.7578 39.7278 14.6531L39.6966 3.93848C39.6943 3.16035 40.336 2.52691 41.1356 2.52464L58.4273 2.45684C58.9234 2.45456 59.3241 2.05958 59.3222 1.57449C59.3204 1.09032 58.9183 0.698975 58.4235 0.698975C58.4221 0.698975 58.4207 0.698975 58.4198 0.698975L41.1295 0.766777C39.3392 0.771783 37.8937 2.19245 37.8988 3.94349L37.9295 14.4979C28.261 12.2368 18.9079 14.26 10.495 19.4412C5.68473 22.404 2.2869 25.7363 0.689668 27.4592C-0.216453 28.4371 -0.231345 29.9251 0.654763 30.9207C5.85367 36.7599 11.4589 40.824 17.4029 43.0824V55.8412C17.4029 56.5592 16.8053 57.1435 16.0704 57.1435H1.75356C1.25698 57.1435 0.854417 57.5371 0.854417 58.0227C0.854417 58.5078 1.25698 58.9014 1.75356 58.9014H16.0704C17.7966 58.9014 19.2002 57.5285 19.2002 55.8412V43.7077C29.1503 46.8457 39.1446 44.767 48.2296 39.7933C53.9134 36.6812 58.1578 33.0121 60.1823 31.1018C61.2745 30.0716 61.2722 28.3638 60.1776 27.3413ZM36.4421 42.1482C25.2927 47.1119 13.3097 36.9215 16.7318 25.4629C16.8709 24.9964 16.5977 24.5086 16.1212 24.3726C15.6446 24.2365 15.1452 24.5041 15.0066 24.97C13.0128 31.6438 15.72 38.7567 21.6333 42.5619C14.6291 40.8349 8.04986 36.5497 2.01092 29.7663C1.72237 29.4423 1.72703 28.9581 2.02162 28.64C4.23271 26.2551 11.1252 19.5435 20.9398 16.6708C19.1318 17.9663 17.6197 19.6168 16.4898 21.5521C16.2436 21.974 16.3934 22.5105 16.8248 22.7512C17.2563 22.9919 17.805 22.8454 18.0507 22.4236C23.842 12.5053 38.7225 13.207 43.551 23.5762C44.4087 25.4187 44.8438 27.3704 44.8438 29.3777C44.8438 34.8633 41.5461 39.8761 36.4421 42.1482ZM58.9341 29.8373C56.555 32.082 50.0362 37.711 41.4413 40.9796C44.6949 38.0364 46.6417 33.8472 46.6417 29.3781C46.6417 27.1174 46.1525 24.9209 45.1873 22.8481C44.1206 20.5579 42.5294 18.5984 40.5911 17.0808C46.772 19.1299 52.9086 22.9828 58.9359 28.6123C59.291 28.944 59.2906 29.5005 58.9341 29.8373Z" fill="#0F0F0F"/>
<path d="M39.2323 20.2349L33.9219 21.8415C33.4478 21.9854 33.1725 22.4803 33.3077 22.9475C33.4429 23.4146 33.9371 23.6766 34.4114 23.5331L37.2962 22.6604L32.0341 30.1095L30.1124 27.1243C29.7604 26.5775 28.9437 26.5994 28.5972 27.1607L21.5879 38.5238C21.3285 38.9446 21.4581 39.4873 21.8776 39.7357C22.2967 39.9844 22.8473 39.8448 23.1066 39.424L29.3631 29.2816L31.2338 32.1876C31.5717 32.7126 32.3491 32.7198 32.7179 32.1983L38.8192 23.5612L39.1038 26.4957C39.1679 27.1526 39.9101 27.492 40.4681 27.1328C40.7448 26.9547 40.9154 26.6343 40.8818 26.2906L40.377 21.0879C40.3853 20.5171 39.8335 20.0529 39.2323 20.2349Z" fill="#0F0F0F"/>
<path d="M58.424 5.18896H43.2038C42.7073 5.18896 42.3047 5.58258 42.3047 6.06767C42.3047 6.55321 42.7073 6.94683 43.2038 6.94683H58.424C58.9201 6.94683 59.3227 6.55321 59.3227 6.06767C59.3227 5.58258 58.9201 5.18896 58.424 5.18896Z" fill="#0F0F0F"/>
<path d="M58.4235 10.54H56.386C55.8899 10.54 55.4873 10.9336 55.4873 11.4191C55.4873 11.9042 55.8899 12.2978 56.386 12.2978H58.4235C58.9196 12.2978 59.3221 11.9042 59.3221 11.4191C59.3221 10.9336 58.9196 10.54 58.4235 10.54Z" fill="#0F0F0F"/>
<path d="M43.2038 10.54C42.7073 10.54 42.3047 10.9336 42.3047 11.4191C42.3047 11.9042 42.7073 12.2978 43.2038 12.2978H52.7914C53.2875 12.2978 53.69 11.9042 53.69 11.4191C53.69 10.9336 53.2875 10.54 52.7914 10.54H43.2038Z" fill="#0F0F0F"/>
<path d="M1.75363 55.1376H14.6934C15.1895 55.1376 15.5921 54.744 15.5921 54.2585C15.5921 53.7734 15.1895 53.3798 14.6934 53.3798H1.75363C1.25706 53.3798 0.854492 53.7734 0.854492 54.2585C0.854492 54.744 1.25706 55.1376 1.75363 55.1376Z" fill="#0F0F0F"/>
<path d="M0.854492 50.274C0.854492 50.7596 1.25706 51.1532 1.75363 51.1532H14.6934C15.1895 51.1532 15.5921 50.7596 15.5921 50.274C15.5921 49.7889 15.1895 49.3953 14.6934 49.3953H1.75363C1.25706 49.3953 0.854492 49.7889 0.854492 50.274Z" fill="#0F0F0F"/>
<path d="M14.6938 47.1684C15.19 47.1684 15.5925 46.7752 15.5925 46.2897C15.5925 45.8041 15.19 45.4109 14.6938 45.4109H9.78442C9.28784 45.4109 8.88574 45.8041 8.88574 46.2897C8.88574 46.7752 9.28784 47.1684 9.78442 47.1684H14.6938Z" fill="#0F0F0F"/>
</g>
<defs>
<clipPath id="clip0">
<rect width="61" height="59.6444" fill="white"/>
</clipPath>
</defs>
</svg>
