<svg width="66" height="66" viewBox="0 0 66 66" fill="none" xmlns="http://www.w3.org/2000/svg">
<g clip-path="url(#clip0)">
<path d="M49.5228 34.543H26.3771C25.9228 34.543 25.5547 34.9111 25.5547 35.3654C25.5547 35.8197 25.9228 36.1878 26.3771 36.1878H49.5228C49.9771 36.1878 50.3452 35.8197 50.3452 35.3654C50.3452 34.9111 49.9771 34.543 49.5228 34.543Z" fill="#0F0F0F"/>
<path d="M42.3497 48.2095H32.4504C31.9961 48.2095 31.6279 48.5776 31.6279 49.0319C31.6279 49.4861 31.9961 49.8543 32.4504 49.8543H42.3497C42.804 49.8543 43.1721 49.4862 43.1721 49.0319C43.1721 48.5776 42.804 48.2095 42.3497 48.2095Z" fill="#0F0F0F"/>
<path d="M52.8222 39.0024H31.1935C30.7392 39.0024 30.3711 39.3706 30.3711 39.8249C30.3711 40.279 30.7392 40.6473 31.1935 40.6473H52.8222C53.2765 40.6473 53.6447 40.2792 53.6447 39.8249C53.6447 39.3706 53.2765 39.0024 52.8222 39.0024Z" fill="#0F0F0F"/>
<path d="M27.3669 39.0024H23.0763C22.6221 39.0024 22.2539 39.3706 22.2539 39.8249C22.2539 40.2792 22.6221 40.6473 23.0763 40.6473H27.3669C27.8212 40.6473 28.1893 40.2792 28.1893 39.8249C28.1893 39.3707 27.8212 39.0024 27.3669 39.0024Z" fill="#0F0F0F"/>
<path d="M61.7534 30.953C61.5621 30.7651 61.3088 30.6617 61.0387 30.6617C59.3719 30.6617 58.007 29.3587 57.932 27.6947C57.9073 27.1537 57.4627 26.73 56.9198 26.73H20.9827C20.4397 26.73 19.995 27.1538 19.9704 27.6953C19.8989 29.2853 18.5973 30.587 17.0072 30.6585C16.4659 30.6828 16.042 31.1276 16.042 31.6708V50.7298C16.042 51.273 16.4659 51.7177 17.0072 51.742C18.5973 51.8137 19.8989 53.1152 19.9704 54.7058C19.9951 55.2468 20.4398 55.6705 20.9827 55.6705H43.061C43.5153 55.6705 43.8834 55.3024 43.8834 54.8481C43.8834 54.3939 43.5153 54.0257 43.061 54.0257H21.5483C21.2083 52.0447 19.6677 50.5041 17.6868 50.164V32.2363C19.6677 31.8963 21.2083 30.3553 21.5483 28.3747H56.3545C56.7084 30.4182 58.3536 31.9956 60.4115 32.2656V44.0324C60.4115 44.4866 60.7796 44.8548 61.2339 44.8548C61.6882 44.8548 62.0563 44.4867 62.0563 44.0324V31.6754C62.0563 31.4016 61.9487 31.145 61.7534 30.953Z" fill="#0F0F0F"/>
<path d="M63.7167 22.6245H14.3825C13.1238 22.6245 12.0996 23.6487 12.0996 24.9074V57.4927C12.0996 58.7515 13.1238 59.7756 14.3825 59.7756H46.7024L45.4803 62.3366C45.3233 62.6654 45.3615 63.051 45.5798 63.3427C45.7981 63.6344 46.1574 63.7794 46.5169 63.7219L48.7923 63.3561L50.0614 65.4394C50.2393 65.7317 50.5556 65.9081 50.8953 65.9081C50.9119 65.9081 50.9285 65.9077 50.9452 65.9068C51.3037 65.8886 51.6225 65.6761 51.7773 65.3519L53.9825 60.731L56.1875 65.3516C56.342 65.6757 56.6607 65.8885 57.0193 65.9069C57.0361 65.9078 57.053 65.9082 57.0696 65.9082C57.4094 65.9082 57.7256 65.7318 57.9036 65.4396L59.1727 63.3563L61.4481 63.7222C61.8087 63.7798 62.1673 63.6344 62.3854 63.3425C62.6037 63.0506 62.6416 62.6652 62.4846 62.3369L61.2624 59.7759H63.7167C64.9755 59.7759 65.9996 58.7519 65.9996 57.493V24.9074C65.9996 23.6487 64.9755 22.6245 63.7167 22.6245ZM50.8242 63.53L49.9633 62.1171C49.756 61.7768 49.3679 61.5977 48.9741 61.661L47.5131 61.8959L49.0522 58.671C49.6587 59.29 50.5229 59.6244 51.42 59.5399C51.7267 59.5105 52.0341 59.5932 52.2854 59.7716C52.3682 59.8306 52.4542 59.8829 52.5413 59.9322L50.8242 63.53ZM54.1786 58.6533C54.1761 58.6536 54.1736 58.6538 54.1709 58.6543C54.0463 58.6727 53.9195 58.6727 53.7948 58.6544C53.7916 58.6539 53.7884 58.6536 53.7854 58.6532C53.5922 58.6232 53.4044 58.5493 53.2381 58.4311C52.7406 58.0774 52.1466 57.8893 51.5407 57.8893C51.4489 57.8893 51.3569 57.8937 51.2648 57.9024C50.7204 57.9538 50.2031 57.6547 49.9758 57.1582C49.8749 56.9377 49.7462 56.7337 49.5967 56.5471C49.5901 56.5378 49.5829 56.529 49.576 56.52C49.5677 56.51 49.5599 56.4995 49.5516 56.4896C49.542 56.4784 49.5321 56.4678 49.5219 56.4571C49.2499 56.1442 48.9139 55.8887 48.5311 55.7136C48.0345 55.4863 47.7354 54.9683 47.7869 54.4245C47.8531 53.7248 47.6654 53.024 47.2583 52.4513C46.9417 52.0061 46.9417 51.4079 47.2582 50.9627C47.6654 50.39 47.8531 49.6892 47.7869 48.9895C47.7354 48.4457 48.0346 47.9276 48.5311 47.7004C49.1703 47.408 49.6833 46.8949 49.9757 46.2558C50.2031 45.7591 50.7222 45.46 51.2648 45.5116C51.9653 45.5777 52.6655 45.39 53.2382 44.9828C53.6835 44.6664 54.2816 44.6664 54.7267 44.9828C55.2995 45.39 55.9998 45.5772 56.7001 45.5116C57.2443 45.4599 57.762 45.7592 57.9893 46.2558C58.2817 46.8949 58.7947 47.408 59.4337 47.7003C59.9304 47.9276 60.2295 48.4457 60.178 48.9894C60.1118 49.6892 60.2995 50.39 60.7067 50.9626C61.0233 51.4078 61.0233 52.006 60.7067 52.4511C60.2995 53.024 60.1118 53.7248 60.178 54.4244C60.2295 54.9682 59.9304 55.4862 59.4336 55.7136C59.0518 55.8884 58.7165 56.1432 58.4448 56.4552C58.4337 56.4668 58.4227 56.4785 58.4124 56.4907C58.4053 56.4992 58.3986 56.5081 58.3915 56.5167C58.3833 56.5273 58.3749 56.5376 58.3673 56.5484C58.2183 56.7347 58.0898 56.9383 57.9893 57.1582C57.7619 57.6547 57.2439 57.954 56.7001 57.9024C56.001 57.8365 55.2997 58.0239 54.7267 58.4311C54.5601 58.5494 54.3721 58.6235 54.1786 58.6533ZM58.9907 61.6609C58.5968 61.5979 58.2089 61.7768 58.0015 62.1172L57.1407 63.5301L55.4237 59.9322C55.5108 59.8829 55.5967 59.8306 55.6796 59.7716C55.931 59.593 56.2387 59.5102 56.545 59.5398C57.4424 59.6244 58.3064 59.29 58.9129 58.671L60.4519 61.8958L58.9907 61.6609ZM64.3549 57.4928C64.3549 57.8446 64.0687 58.1309 63.7167 58.1309H60.4775L60.0534 57.2423C60.0748 57.231 60.0961 57.2192 60.1182 57.2091C61.2507 56.6907 61.9328 55.5094 61.8154 54.2695C61.7864 53.9627 61.8687 53.6553 62.0473 53.4041C62.7689 52.3889 62.7689 51.0248 62.0472 50.0096C61.8687 49.7585 61.7864 49.4512 61.8154 49.1443C61.9328 47.9044 61.2507 46.723 60.1181 46.2046C59.8379 46.0763 59.613 45.8514 59.4847 45.5712C58.9664 44.4386 57.7845 43.7567 56.5449 43.874C56.2379 43.9032 55.9308 43.8207 55.6796 43.6421C54.6645 42.9205 53.3002 42.9204 52.2851 43.6421C52.0339 43.8207 51.7259 43.9032 51.4199 43.8739C50.1784 43.7571 48.9984 44.4386 48.4802 45.5711C48.3519 45.8514 48.1269 46.0762 47.8467 46.2045C46.7141 46.7229 46.0321 47.9042 46.1494 49.1442C46.1785 49.4511 46.0962 49.7583 45.9176 50.0096C45.1959 51.0248 45.1959 52.3889 45.9176 53.404C46.0962 53.6551 46.1785 53.9624 46.1494 54.2694C46.0321 55.5094 46.7141 56.6907 47.8467 57.209C47.8688 57.2191 47.8899 57.2309 47.9113 57.2422L47.4873 58.1309H14.3825C14.0307 58.1309 13.7444 57.8447 13.7444 57.4928V24.9074C13.7444 24.5556 14.0306 24.2693 14.3825 24.2693H63.7167C64.0685 24.2693 64.3549 24.5556 64.3549 24.9074V57.4928Z" fill="#0F0F0F"/>
<path d="M53.9222 46.5972C51.1047 46.5972 48.8125 48.8894 48.8125 51.7068C48.8125 54.5243 51.1047 56.8165 53.9222 56.8165C56.7397 56.8165 59.0318 54.5241 59.0318 51.7068C59.0318 48.8893 56.7397 46.5972 53.9222 46.5972ZM53.9222 55.1716C52.0116 55.1716 50.4573 53.6172 50.4573 51.7067C50.4573 49.7962 52.0116 48.2418 53.9222 48.2418C55.8327 48.2418 57.387 49.7962 57.387 51.7067C57.387 53.6172 55.8327 55.1716 53.9222 55.1716Z" fill="#0F0F0F"/>
<path fill-rule="evenodd" clip-rule="evenodd" d="M31.5357 21H33L33.2513 19.2723C33.3289 18.5929 33.3679 17.9093 33.3679 17.2252C33.3679 7.72731 25.8832 0 16.684 0C7.48424 0 0 7.72731 0 17.2252C0 25.0452 5.07313 31.6648 12 33.7599V32.1714C9.68351 31.3948 7.57616 30.0532 5.85936 28.254C6.65419 27.4249 7.53784 26.6918 8.49321 26.0691C9.3542 28.1565 10.5365 29.9867 12 31.4859V29.2206C11.1068 28.0732 10.3623 26.7627 9.78168 25.3181C10.4984 24.9477 11.2402 24.6368 12 24.3872V22.8031C11.065 23.0809 10.1528 23.4427 9.274 23.8855C8.69384 21.9734 8.37478 19.9864 8.32705 17.9831H15.9496V21H17.418V17.9831H25.0401C25.036 18.1186 25.0304 18.2535 25.024 18.3884L24.649 21H26L26.5159 18.0759L31.7 18L31.5357 21ZM1.48603 16.4673C1.63968 13.1245 2.8286 9.92062 4.8777 7.32702C5.8055 8.28414 6.84128 9.12241 7.96282 9.8247C7.27979 11.9706 6.90713 14.2092 6.85787 16.4673H1.48603ZM6.85787 17.9831C6.90713 20.2418 7.27979 22.4799 7.96282 24.626C6.84128 25.3281 5.8055 26.1663 4.8777 27.1235C2.8286 24.5304 1.63968 21.3262 1.48603 17.9831H6.85787ZM15.9499 16.4673H8.32705C8.37478 14.464 8.69384 12.4776 9.274 10.5652C11.3588 11.6156 13.632 12.2096 15.9499 12.31V16.4673ZM15.9499 1.7859V10.7931C13.8041 10.6912 11.7026 10.1254 9.78168 9.13268C11.0776 5.90821 13.1899 3.35229 15.9499 1.7859ZM23.575 9.10607C21.6617 10.1127 19.5629 10.6877 17.418 10.7931V1.78617C20.1703 3.34834 22.2779 5.8945 23.575 9.10607ZM17.418 16.4673V12.31C19.7359 12.2062 22.0071 11.6022 24.0853 10.5373C24.6713 12.4581 24.9926 14.454 25.0409 16.4673H17.418ZM8.49321 8.38138C7.53784 7.75867 6.65419 7.02581 5.85936 6.19677C7.83928 4.12151 10.3386 2.65553 13.0792 1.96246C11.1105 3.6166 9.55681 5.8028 8.49321 8.38138ZM24.8591 8.34449C23.7961 5.78198 22.2483 3.6087 20.2888 1.96246C23.0107 2.65079 25.4955 4.10149 27.4693 6.15513C26.6818 6.98365 25.8061 7.71809 24.8591 8.34449ZM28.4542 7.28143C30.5 9.8247 31.5357 13 31.8998 16.5H26.5159C26.4723 14.001 26.0866 11.9068 25.3934 9.78833C26.5065 9.08103 27.5341 8.2396 28.4542 7.28143Z" fill="#0F0F0F"/>
</g>
<defs>
<clipPath id="clip0">
<rect width="66" height="66" fill="white"/>
</clipPath>
</defs>
</svg>
