<svg width="55" height="61" viewBox="0 0 55 61" fill="none" xmlns="http://www.w3.org/2000/svg">
<path d="M2.26553 44.3171H12.0714V44.9588C12.0714 46.3196 13.1785 47.4268 14.5393 47.4268H15.8876L11.7986 58.6614C11.3854 59.7965 12.2277 61 13.4359 61H17.2866C18.0163 61 18.6744 60.5393 18.9238 59.8533L23.447 47.4268H24.7524C25.2462 47.4268 25.6464 47.0266 25.6464 46.5333C25.6464 46.0395 25.2462 45.6397 24.7524 45.6397C22.505 45.6397 16.5014 45.6397 14.5393 45.6397C14.1638 45.6397 13.8585 45.3344 13.8585 44.9588V44.3171H40.2332V44.9588C40.2332 45.3344 39.9279 45.6397 39.5524 45.6397C38.4592 45.6397 30.2445 45.6397 28.9228 45.6397C28.429 45.6397 28.0292 46.0395 28.0292 46.5333C28.0292 47.0266 28.429 47.4268 28.9228 47.4268H30.6447L35.1679 59.8533C35.4173 60.5393 36.0754 61 36.8051 61H40.6558C41.864 61 42.7063 59.7965 42.2931 58.6614L38.2041 47.4268H39.5524C40.9132 47.4268 42.0203 46.3196 42.0203 44.9588V44.3171H51.8262C53.0753 44.3171 54.0917 43.3006 54.0917 42.0515V39.4793C54.0917 38.347 53.2559 37.4088 52.1692 37.2426V24.2437C52.1692 23.7499 51.7689 23.3502 51.2756 23.3502C50.7818 23.3502 50.3821 23.7499 50.3821 24.2437V37.2138H3.70965V7.10329H50.3821V20.0733C50.3821 20.5671 50.7823 20.9669 51.2761 20.9669C51.7694 20.9669 52.1696 20.5671 52.1696 20.0733V7.07444C53.2563 6.90829 54.0922 5.97006 54.0922 4.83776V2.26553C54.0922 1.01642 53.0758 0 51.8262 0H2.26553C1.01642 0 0 1.01642 0 2.26553V4.83776C0 5.97006 0.835846 6.90829 1.92254 7.07444V37.2426C0.835846 37.4088 0 38.347 0 39.4793V42.0515C0 43.3006 1.01642 44.3171 2.26553 44.3171ZM21.5454 47.4268L17.2554 59.2129H13.5001L17.7896 47.4268H21.5454ZM40.592 59.2129H36.8368L32.5468 47.4268H36.3021L40.592 59.2129ZM1.78711 2.26553C1.78711 2.00631 2.00631 1.78711 2.26553 1.78711H51.8266C52.0859 1.78711 52.3051 2.00631 52.3051 2.26553V4.83776C52.3051 5.09698 52.0859 5.31618 51.8266 5.31618C51.2966 5.31618 2.82401 5.31618 2.26553 5.31618C2.00631 5.31618 1.78711 5.09698 1.78711 4.83776V2.26553ZM1.78711 39.4793C1.78711 39.2201 2.00631 39.0009 2.26553 39.0009H51.8266C52.0859 39.0009 52.3051 39.2201 52.3051 39.4793V42.0515C52.3051 42.3107 52.0859 42.5299 51.8266 42.5299H41.1273C40.7042 42.5299 3.24286 42.5299 2.26553 42.5299C2.00631 42.5299 1.78711 42.3107 1.78711 42.0515V39.4793Z" fill="#0F0F0F"/>
<path fill-rule="evenodd" clip-rule="evenodd" d="M19.5443 22.8499C16.4239 22.8499 13.8943 25.3795 13.8943 28.4999C13.8943 31.6203 16.4239 34.1499 19.5443 34.1499C22.6647 34.1499 25.1943 31.6203 25.1943 28.4999C25.1943 25.3795 22.6647 22.8499 19.5443 22.8499ZM12.1943 28.4999C12.1943 24.4406 15.485 21.1499 19.5443 21.1499C23.6036 21.1499 26.8943 24.4406 26.8943 28.4999C26.8943 32.5592 23.6036 35.8499 19.5443 35.8499C15.485 35.8499 12.1943 32.5592 12.1943 28.4999Z" fill="#0F0F0F"/>
<path d="M16.4792 11.1033C14.3463 11.1033 12.6113 12.8383 12.6113 14.9712C12.6113 17.1041 14.3463 18.8391 16.4792 18.8391C18.6121 18.8391 20.3471 17.1041 20.3471 14.9712C20.3471 12.8383 18.6121 11.1033 16.4792 11.1033ZM16.4792 17.052C15.332 17.052 14.3984 16.1184 14.3984 14.9712C14.3984 13.824 15.332 12.8904 16.4792 12.8904C17.6264 12.8904 18.56 13.824 18.56 14.9712C18.56 16.1184 17.6264 17.052 16.4792 17.052Z" fill="#0F0F0F"/>
<path d="M30.6484 29.3458C30.6484 31.4787 32.3839 33.2137 34.5163 33.2137C36.6492 33.2137 38.3842 31.4787 38.3842 29.3458C38.3842 27.213 36.6492 25.478 34.5163 25.478C32.3834 25.478 30.6484 27.213 30.6484 29.3458ZM36.5971 29.3458C36.5971 30.493 35.664 31.4266 34.5163 31.4266C33.3691 31.4266 32.4355 30.493 32.4355 29.3458C32.4355 28.1987 33.3691 27.2651 34.5163 27.2651C35.664 27.2651 36.5971 28.1987 36.5971 29.3458Z" fill="#0F0F0F"/>
<path d="M15.6494 28.3458C15.6494 30.4787 17.3849 32.2137 19.5173 32.2137C21.6502 32.2137 23.3852 30.4787 23.3852 28.3458C23.3852 26.2129 21.6502 24.4779 19.5173 24.4779C17.3844 24.4779 15.6494 26.2129 15.6494 28.3458ZM21.5981 28.3458C21.5981 29.493 20.665 30.4266 19.5173 30.4266C18.3701 30.4266 17.4365 29.493 17.4365 28.3458C17.4365 27.1986 18.3701 26.265 19.5173 26.265C20.665 26.265 21.5981 27.1986 21.5981 28.3458Z" fill="#0F0F0F"/>
<path d="M40.9362 13.0207L36.448 10.2744C35.6615 9.79322 34.6809 10.3908 34.6809 11.3448V13.2539C30.3802 13.6672 26.5263 15.6474 23.498 19.0117C21.1003 21.6752 20.0666 24.2483 20.0238 24.3563C19.8423 24.8152 20.0671 25.3346 20.5264 25.5161C20.9844 25.6976 21.5042 25.4732 21.6857 25.0139C21.722 24.9218 25.3409 16.0472 34.6809 15.0498V16.8374C34.6809 17.7915 35.661 18.389 36.448 17.9078L40.9362 15.1611C41.7125 14.6859 41.7139 13.4973 40.9362 13.0207ZM36.468 15.8V12.3822L39.2608 14.0911L36.468 15.8Z" fill="#0F0F0F"/>
</svg>
