<svg width="66" height="66" viewBox="0 0 66 66" fill="none" xmlns="http://www.w3.org/2000/svg">
<path d="M41.4603 44.9951H29.4287C28.8945 44.9951 28.4619 45.4282 28.4619 45.9619C28.4619 46.4962 28.8945 46.9287 29.4287 46.9287H41.4603C41.9946 46.9287 42.4271 46.4962 42.4271 45.9619C42.4271 45.4282 41.994 44.9951 41.4603 44.9951Z" fill="#0F0F0F"/>
<path d="M43.6603 39.4951H23.9287C23.3945 39.4951 22.9619 39.9282 22.9619 40.4619C22.9619 40.9962 23.3945 41.4287 23.9287 41.4287H43.6603C44.1946 41.4287 44.6271 40.9962 44.6271 40.4619C44.6271 39.9282 44.194 39.4951 43.6603 39.4951Z" fill="#0F0F0F"/>
<path d="M55.4308 39.6528C52.46 39.6528 50.043 42.0698 50.043 45.0412C50.043 48.0121 52.46 50.4291 55.4308 50.4291C58.4022 50.4291 60.8192 48.0121 60.8192 45.0412C60.8192 42.0698 58.4022 39.6528 55.4308 39.6528ZM55.4308 48.4955C53.5265 48.4955 51.9766 46.9461 51.9766 45.0412C51.9766 43.1363 53.5265 41.5864 55.4308 41.5864C57.3357 41.5864 58.8856 43.1363 58.8856 45.0412C58.8856 46.9461 57.3357 48.4955 55.4308 48.4955Z" fill="#0F0F0F"/>
<path d="M12.5898 37.4V55.8023C12.5898 58.3457 14.6589 60.4147 17.2018 60.4147H34.2889C34.8226 60.4147 35.2557 59.9817 35.2557 59.4479C35.2557 58.9137 34.8226 58.4811 34.2889 58.4811H17.2018C15.7249 58.4811 14.5234 57.2797 14.5234 55.8023V37.4H12.5898Z" fill="#0F0F0F"/>
<path d="M12.5898 8.8H14.5234V4.61192C14.5234 3.13504 15.7249 1.93359 17.2018 1.93359H55.8877C57.3646 1.93359 58.5661 3.13504 58.5661 4.61192V25.5395C58.5661 26.0738 58.9986 26.5063 59.5329 26.5063C60.0671 26.5063 60.4997 26.0738 60.4997 25.5395V4.61192C60.4997 2.06905 58.4306 0 55.8877 0H17.2018C14.6589 0 12.5898 2.06905 12.5898 4.61192V8.8Z" fill="#0F0F0F"/>
<path fill-rule="evenodd" clip-rule="evenodd" d="M16.7536 37.4V49.0488C16.7536 49.8071 17.3684 50.4209 18.1368 50.4209C20.359 50.4209 22.1672 52.2291 22.1672 54.4508C22.1672 54.557 22.1626 54.6658 22.1536 54.773C22.0886 55.5696 22.7236 56.2504 23.5217 56.2504H48.526V58.4811H38.8006C38.2669 58.4811 37.8338 58.9136 37.8338 59.4479C37.8338 59.9816 38.2669 60.4147 38.8006 60.4147H48.526V64.3685C48.526 65.6742 49.9822 66.44 51.0573 65.7255L55.4305 62.8196C56.2696 63.3769 57.1226 63.9437 57.9797 64.5132L59.8043 65.7255C60.8854 66.4441 62.3356 65.6671 62.3356 64.3685V50.7875C63.6352 49.2285 64.4187 47.225 64.4187 45.0411C64.4187 41.9645 62.8638 39.2449 60.4997 37.624V30.0517C60.4997 29.5175 60.0671 29.0849 59.5329 29.0849C58.9991 29.0849 58.5661 29.5175 58.5661 30.0517V36.6184C57.8601 36.3545 57.1124 36.1768 56.3359 36.0987V11.3659C56.3359 10.605 55.7186 9.99372 54.9577 9.99372H54.9527C52.7305 9.99372 50.9223 8.18551 50.9223 5.96339C50.9223 5.85614 50.9269 5.74788 50.9359 5.64113C51.0009 4.84604 50.3669 4.16374 49.5678 4.16374H23.5217C22.7206 4.16374 22.0886 4.84805 22.1536 5.64113C22.2536 6.86228 21.794 7.99595 20.9965 8.8H23.3821C23.8203 7.99285 24.0776 7.07386 24.0993 6.09784H48.9902C49.0577 9.14022 51.4143 11.6277 54.4023 11.9021V36.1133L54.386 36.1155L54.3756 36.117C54.3674 36.1182 54.3592 36.1194 54.3509 36.1204C49.8619 36.6607 46.4428 40.4992 46.4428 45.0411C46.4428 47.1046 47.1523 49.1485 48.526 50.7951V54.3168H24.0993C24.0318 51.2764 21.6772 48.7895 18.6877 48.513V37.4H16.7536ZM50.4596 63.801V52.5272C50.8891 52.8122 51.4042 53.0922 51.8916 53.3017V62.8493L50.4596 63.801ZM54.5287 61.097L53.8257 61.5643V53.8853C54.855 54.0716 55.9733 54.0776 57.0358 53.8853V61.5643L56.3329 61.097C55.785 60.7329 55.077 60.7329 54.5287 61.097ZM60.4015 63.801L58.9694 62.8493V53.3017C59.4427 53.0983 59.9584 52.8213 60.4015 52.5272V63.801ZM62.4846 45.0411C62.4846 49.0921 59.0459 52.3701 54.9189 52.0741C51.2199 51.8037 48.3764 48.72 48.3764 45.0411C48.3764 41.182 51.516 38.0177 55.3761 37.9885C55.3772 37.9885 55.3787 37.988 55.3802 37.988C55.3884 37.988 55.3967 37.9878 55.405 37.9875C55.4133 37.9873 55.422 37.987 55.4305 37.987C59.3204 37.987 62.4846 41.1513 62.4846 45.0411Z" fill="#0F0F0F"/>
<path fill-rule="evenodd" clip-rule="evenodd" d="M42.9 12.925H2.2C2.04812 12.925 1.925 13.0481 1.925 13.2V33C1.925 33.1519 2.04812 33.275 2.2 33.275H42.9C43.0519 33.275 43.175 33.1519 43.175 33V13.2C43.175 13.0481 43.0519 12.925 42.9 12.925ZM2.2 11C0.984974 11 0 11.985 0 13.2V33C0 34.215 0.984973 35.2 2.2 35.2H42.9C44.115 35.2 45.1 34.215 45.1 33V13.2C45.1 11.985 44.115 11 42.9 11H2.2Z" fill="#0F0F0F"/>
<path d="M21.4763 25.0202C21.1203 25.0202 20.7723 24.9033 20.4764 24.6844C20.1804 24.4655 19.9498 24.1543 19.8136 23.7903C19.6774 23.4263 19.6418 23.0257 19.7113 22.6393C19.7808 22.2529 19.9523 21.898 20.2041 21.6195C20.4558 21.3409 20.7766 21.1513 21.1257 21.0746C21.4749 20.9978 21.8367 21.0374 22.1656 21.1883C22.4944 21.3392 22.7754 21.5947 22.973 21.9224C23.1707 22.2501 23.2761 22.6353 23.2759 23.0293H24.8148C24.8148 22.2984 24.619 21.584 24.2522 20.9763C23.8853 20.3686 23.3639 19.895 22.7539 19.6153C22.1438 19.3356 21.4726 19.2624 20.8249 19.405C20.1773 19.5476 19.5825 19.8995 19.1155 20.4163C18.6486 20.9331 18.3307 21.5915 18.2018 22.3084C18.073 23.0252 18.1391 23.7682 18.3918 24.4434C18.6445 25.1186 19.0724 25.6957 19.6215 26.1018C20.1705 26.5078 20.816 26.7246 21.4763 26.7246H35.1994V25.0202H21.4763Z" fill="#0F0F0F"/>
<path d="M35.1996 29.4689V27.6546H21.4764C20.6501 27.6546 19.8423 27.3834 19.1552 26.8752C18.4681 26.3671 17.9326 25.6448 17.6164 24.7998C17.3001 23.9548 17.2174 23.025 17.3786 22.1279C17.5398 21.2308 17.9377 20.4068 18.5221 19.7601C19.1064 19.1133 19.8508 18.6729 20.6613 18.4944C21.4718 18.316 22.3119 18.4076 23.0753 18.7576C23.8388 19.1076 24.4913 19.7004 24.9504 20.4609C25.4095 21.2214 25.6545 22.1155 25.6545 23.0301H27.2937C27.2937 21.7566 26.9525 20.5117 26.3133 19.4529C25.6741 18.394 24.7655 17.5688 23.7026 17.0814C22.6396 16.5941 21.47 16.4666 20.3415 16.715C19.2131 16.9635 18.1766 17.5767 17.363 18.4772C16.5495 19.3777 15.9954 20.5249 15.771 21.7739C15.5465 23.0229 15.6617 24.3176 16.102 25.4941C16.5423 26.6707 17.2879 27.6763 18.2445 28.3838C19.2012 29.0913 20.3259 29.4689 21.4764 29.4689H35.1996Z" fill="#0F0F0F"/>
<path d="M10.4345 29.4728V20.8243H8.7998V19.0591H11.9097V29.4728H10.4345Z" fill="#0F0F0F"/>
<path d="M10.4316 18.3535H12.5841V29.4728H14.0991V16.5H10.4316V18.3535Z" fill="#0F0F0F"/>
</svg>
