<svg width="66" height="66" viewBox="0 0 66 66" fill="none" xmlns="http://www.w3.org/2000/svg">
<g clip-path="url(#clip0)">
<path fill-rule="evenodd" clip-rule="evenodd" d="M30.7446 66H7.3305C5.86136 66 4.66602 64.8048 4.66602 63.3354V50.8799C4.66602 46.4463 7.61731 43.2125 10.3594 42.084L10.378 42.0767C14.1921 40.598 20.2865 39.5171 22.2924 38.7412C25.5659 37.475 26.7398 37.0209 26.8198 36.9755V34.4055C25.1618 33.2139 23.8896 31.5422 23.1946 29.5465C22.9344 29.6459 22.6533 29.7027 22.3586 29.7027H21.4726C20.7836 29.7027 20.1648 29.4033 19.734 28.9298H18.1879C16.4004 28.9298 14.9464 27.4758 14.9464 25.6884V20.6742C14.9464 18.8869 16.4004 17.4327 18.1879 17.4327H19.2636V15.8781C19.2636 12.6604 20.3637 9.56947 22.3759 7.08481C21.4435 5.92595 21.7729 4.62451 22.6159 3.94621L23.2316 3.4507C29.1277 -1.29419 37.2677 -1.00261 42.8221 3.44644L43.4392 3.94067C44.3033 4.63289 44.5951 5.94387 43.6854 7.07965C45.6614 9.51997 46.7414 12.5561 46.7414 15.7181V17.4328H47.8139C49.6013 17.4328 51.0553 18.8869 51.0553 20.6743V25.6885C51.0553 27.4759 49.6012 28.93 47.8139 28.93H46.2678C45.9572 29.2712 45.549 29.5205 45.0866 29.6334V32.6288C45.0866 33.8245 44.1138 34.7974 42.9182 34.7974H40.647C40.4555 35.5566 39.8997 36.1707 39.1759 36.4431L39.1763 36.9851L55.6229 42.0768C55.6292 42.0791 55.6355 42.0817 55.6417 42.0843C58.9938 43.464 61.3348 47.0809 61.3348 50.8802V54.0337C61.3348 54.5676 60.9021 55.0005 60.368 55.0005C59.834 55.0005 59.4012 54.5676 59.4012 54.0337V50.8802C59.4012 47.4988 57.1459 44.7992 54.9148 43.8761L44.1762 40.9952L38.9519 47.0612C38.2303 47.899 37.0343 48.0496 36.144 47.509V55.838C36.144 56.771 35.3849 57.5302 34.4519 57.5302H31.5505C30.6175 57.5302 29.8583 56.771 29.8583 55.838V47.509C28.9676 48.05 27.7717 47.8984 27.0505 47.0612L21.824 40.9927L11.0866 43.8759C9.27955 44.624 6.5996 47.1021 6.5996 50.8802V63.3357C6.5996 63.7386 6.92754 64.0665 7.3305 64.0665H14.2828V53.1573C14.2828 52.6234 14.7156 52.1905 15.2496 52.1905C15.7837 52.1905 16.2164 52.6234 16.2164 53.1573V64.0665H30.7446C31.2786 64.0665 31.7114 64.4993 31.7114 65.0332C31.7114 65.5672 31.2786 66 30.7446 66ZM47.8139 19.3663H46.8827L46.8825 26.9962H47.8139C48.5351 26.9962 49.1217 26.4096 49.1217 25.6884V20.6742C49.1217 19.9531 48.5351 19.3663 47.8139 19.3663ZM18.1877 26.9964H19.1189V19.3664H18.1877C17.4666 19.3664 16.8798 19.9531 16.8798 20.6743V25.6885C16.8798 26.4097 17.4665 26.9964 18.1877 26.9964ZM31.7919 55.5966H34.2105V53.8375H31.7919V55.5966ZM31.7919 51.9039H34.2105V45.8558L33.0012 44.7934L31.7919 45.8558V51.9039ZM37.2423 36.5971H34.9928C34.6248 36.5971 34.2606 36.5077 33.9513 36.3556C32.1679 36.4979 30.2873 36.1657 28.7532 35.5029V36.9989C28.7532 37.3075 28.6843 37.5977 28.5542 37.8562L33.0012 41.5929L37.4478 37.8566C37.317 37.5971 37.2435 37.3072 37.2427 37.0071L37.2423 36.5971ZM34.5457 33.3131V34.2164C34.5457 34.4595 34.7548 34.6636 34.9928 34.6634H38.341C38.5833 34.6634 38.788 34.4587 38.788 34.2164V33.3131C38.788 33.0726 38.5844 32.8661 38.341 32.8661H34.9928C34.7503 32.8661 34.5457 33.0709 34.5457 33.3131ZM37.4868 45.7993L42.2627 40.2541L39.0712 39.0181L34.106 43.1902L37.1058 45.8259C37.2186 45.925 37.3893 45.9126 37.4868 45.7993ZM42.9182 32.8638C43.0477 32.8638 43.153 32.7583 43.153 32.6288V29.6508C43.0331 29.6253 42.9174 29.5889 42.805 29.5459C42.3769 30.7608 41.7235 31.8824 40.8657 32.8638H42.9182ZM44.9491 27.3494V19.0134C44.9491 18.7893 44.7569 18.5934 44.5291 18.5935H43.6431C43.4155 18.5935 43.2233 18.7857 43.2233 19.0134V27.3494C43.2233 27.5703 43.4115 27.7693 43.6431 27.7693H44.5291C44.7588 27.7693 44.9491 27.5714 44.9491 27.3494ZM24.4438 4.95709L23.828 5.4526C23.7318 5.53008 23.7183 5.66865 23.7944 5.76327L24.7854 6.99496C24.8623 7.09048 25.0009 7.10505 25.096 7.02861L25.7118 6.53296C29.993 3.0877 36.0622 3.10098 40.3486 6.53438L40.9655 7.02848C41.0606 7.10466 41.1991 7.09022 41.2759 6.99432L42.2645 5.7603C42.3404 5.6653 42.3251 5.52595 42.2301 5.44977L41.613 4.95554C36.548 0.898364 29.4876 0.898106 24.4438 4.95709ZM22.3585 27.7692C22.5922 27.7692 22.7783 27.5682 22.7783 27.3493V19.0132C22.7783 18.7857 22.5861 18.5934 22.3585 18.5934H21.4725C21.2376 18.5934 21.0525 18.7976 21.0525 19.0132V27.3493C21.0525 27.5734 21.2449 27.7692 21.4725 27.7692H22.3585ZM21.4726 16.6598H22.3586C23.4806 16.6598 24.4204 17.4499 24.6547 18.5025H33.6211C35.6886 18.5025 37.5795 17.3679 38.5559 15.5417C38.8028 15.0795 39.3311 14.8457 39.8389 14.9733C40.3482 15.1009 40.7039 15.5566 40.7039 16.0815C40.7039 16.806 41.0312 17.4713 41.5605 17.9209C41.9549 17.1721 42.7398 16.6598 43.6431 16.6598H44.5291C44.6235 16.6598 44.7161 16.667 44.8077 16.6778V15.718C44.8077 13.12 43.9592 10.6212 42.4009 8.57419C41.6305 9.158 40.5432 9.1678 39.7566 8.53771L39.1398 8.04361C35.5338 5.15522 30.5103 5.15342 26.9241 8.03936L26.3083 8.53487C25.5297 9.16161 24.4421 9.16496 23.6629 8.57638C22.0668 10.6684 21.1972 13.223 21.1972 15.8781V16.6773C21.2877 16.6668 21.3793 16.6598 21.4726 16.6598ZM24.712 27.3493C24.712 27.4521 24.6994 27.5978 24.6893 27.6686C25.4054 31.4939 28.5949 34.2251 32.623 34.4394C32.616 34.3655 32.6123 34.2913 32.6123 34.2164V33.3131C32.6123 32.3287 33.213 31.4818 34.0671 31.1199C34.3519 30.9993 34.6647 30.9325 34.9929 30.9325H38.3411C38.7878 30.9325 39.2532 31.0671 39.6387 31.3182C40.4888 30.2574 41.061 29.0155 41.3129 27.6725C41.3017 27.5928 41.2897 27.4505 41.2897 27.3493V20.0257C40.3665 19.5954 39.6325 18.8588 39.2001 17.962C37.7918 19.5188 35.7778 20.4361 33.621 20.4361H24.712V27.3493ZM31.8963 43.1902L26.9269 39.0144L23.7371 40.251L28.5155 45.7993C28.6131 45.9126 28.7838 45.925 28.8966 45.8258L31.8963 43.1902Z" fill="#0F0F0F"/>
<path d="M61.3349 58.5453V63.3357C61.3349 64.8049 60.1397 66.0001 58.6705 66.0001H35.2564C34.7224 66.0001 34.2896 65.5672 34.2896 65.0333C34.2896 64.4994 34.7224 64.0665 35.2564 64.0665H49.786V53.1573C49.786 52.6234 50.2188 52.1905 50.7528 52.1905C51.2869 52.1905 51.7196 52.6234 51.7196 53.1573V64.0665H58.6704C59.0734 64.0665 59.4013 63.7387 59.4013 63.3357V58.5453C59.4013 58.0114 59.8341 57.5785 60.3681 57.5785C60.9022 57.5785 61.3349 58.0114 61.3349 58.5453Z" fill="#0F0F0F"/>
</g>
<defs>
<clipPath id="clip0">
<rect width="66" height="66" fill="white"/>
</clipPath>
</defs>
</svg>
