<svg width="60" height="60" viewBox="0 0 60 60" fill="none" xmlns="http://www.w3.org/2000/svg">
<g clip-path="url(#clip0)">
<path d="M29.0625 19.6875H30.9375V21.5625H29.0625V19.6875Z" fill="#0F0F0F"/>
<path d="M45.9375 47.8125H47.8125V49.6875H45.9375V47.8125Z" fill="#0F0F0F"/>
<path d="M12.1875 47.8125H14.0625V49.6875H12.1875V47.8125Z" fill="#0F0F0F"/>
<path d="M25.3125 10.7465L26.25 11.461V14.268L20.8791 15.6102C19.6275 15.9238 18.7495 17.049 18.75 18.3394V22.5H16.875V24.375H43.125V22.5H41.25V18.3394C41.2505 17.0485 40.372 15.9233 39.12 15.6102L33.75 14.268V11.461L34.6875 10.7465V2.8125C34.6875 1.25931 33.4282 3.07115e-06 31.875 3.07115e-06H29.1779C26.4752 -0.00274351 24.1187 1.83701 23.4659 4.45954L23.1743 5.625H25.3125V10.7465ZM33.4433 16.1252L38.6646 17.4298C39.0825 17.5342 39.3755 17.9095 39.375 18.3403V22.5H37.5V20.625H35.625V22.5H24.375V20.625H22.5V22.5H20.625V18.3394C20.6245 17.9091 20.9175 17.5337 21.3345 17.4289L26.5567 16.1243C27.0003 16.9688 27.9927 17.8125 30 17.8125C32.0073 17.8125 33.0002 16.9688 33.4433 16.1252ZM28.125 15V12.8897L28.4335 13.125H31.5665L31.875 12.8897V14.9794C31.8617 15.1501 31.7111 15.9375 30 15.9375C28.2742 15.9375 28.1355 15.1341 28.125 15ZM29.1779 1.875H31.875C32.3927 1.875 32.8125 2.29477 32.8125 2.8125V9.81858L30.9329 11.25H29.0671L27.1921 9.81858V5.625H30.9421V3.75H25.7812C26.5155 2.58225 27.7986 1.87363 29.1779 1.875Z" fill="#0F0F0F"/>
<path d="M58.1249 50.625V46.4644C58.1253 45.1735 57.2469 44.0483 55.9949 43.7352L50.6249 42.393V39.586L51.5624 38.8714V30.9375C51.5624 29.3843 50.3031 28.125 48.7499 28.125H46.0527C43.3501 28.1223 40.9936 29.962 40.3408 32.5845L40.0492 33.75H42.1874V38.8714L43.1249 39.586V42.393L37.754 43.7352C36.5024 44.0487 35.6245 45.1739 35.6249 46.4644V50.625H33.7499V52.5H46.2354C36.7112 60 23.2891 60 13.7645 52.5H26.2499V50.625H24.3749V46.4644C24.3754 45.1735 23.497 44.0483 22.245 43.7352L16.875 42.393V39.586L17.8125 38.8714V30.9375C17.8125 29.3843 16.5532 28.125 15 28.125H12.3028C9.6002 28.1223 7.24364 29.962 6.59087 32.5845L6.29927 33.75H8.43748V38.8714L9.37498 39.586V42.393L4.00405 43.7352C2.75253 44.0487 1.87454 45.1739 1.875 46.4644V50.625H0V52.5H10.8966C21.6691 62.5003 38.3308 62.5003 49.1033 52.5H59.9999V50.625H58.1249ZM8.90623 31.875C9.64048 30.7068 10.924 29.9986 12.3037 30H15C15.5177 30 15.9375 30.4198 15.9375 30.9375V37.9436L14.0625 39.375H12.1971L10.3125 37.9436V33.75H14.0625V31.875H8.90623ZM15 41.0147V43.1044C14.9867 43.2751 14.8361 44.0625 13.125 44.0625C11.3992 44.0625 11.2605 43.2591 11.25 43.125V41.0147L11.5585 41.25H14.6914L15 41.0147ZM7.49998 50.625V48.75H5.62499V50.625H3.74999V46.4644C3.74953 46.0341 4.0425 45.6587 4.45952 45.5539L9.68168 44.2492C10.1253 45.0938 11.1177 45.9375 13.125 45.9375C15.1323 45.9375 16.1251 45.0938 16.5683 44.2502L21.7895 45.5548C22.2074 45.6592 22.5004 46.0345 22.4999 46.4653V50.625H20.625V48.75H18.75V50.625H7.49998ZM42.6562 31.875C43.3904 30.7068 44.674 29.9986 46.0537 30H48.7499C49.2676 30 49.6874 30.4198 49.6874 30.9375V37.9436L47.8124 39.375H45.947L44.0624 37.9436V33.75H47.8124V31.875H42.6562ZM48.7499 41.0147V43.1044C48.7366 43.2751 48.586 44.0625 46.8749 44.0625C45.1491 44.0625 45.0104 43.2591 44.9999 43.125V41.0147L45.3084 41.25H48.4414L48.7499 41.0147ZM56.2499 50.625H54.3749V48.75H52.4999V50.625H41.2499V48.75H39.3749V50.625H37.4999V46.4644C37.4995 46.0341 37.7924 45.6587 38.2094 45.5539L43.4316 44.2492C43.8752 45.0938 44.8676 45.9375 46.8749 45.9375C48.8822 45.9375 49.8751 45.0938 50.3182 44.2502L55.5394 45.5548C55.9574 45.6592 56.2503 46.0345 56.2499 46.4653V50.625Z" fill="#0F0F0F"/>
<path d="M44.3076 58.2393L45.2067 59.8854C47.1956 58.7986 49.0638 57.5032 50.779 56.0209L49.5518 54.6037C47.9381 55.9985 46.1799 57.2171 44.3076 58.2393Z" fill="#0F0F0F"/>
<path d="M8.51746 10.9689L7.17712 9.65607C4.4429 12.448 2.24976 15.7219 0.708008 19.3126L2.43149 20.0551C3.88031 16.6759 5.94437 13.5951 8.51746 10.9689Z" fill="#0F0F0F"/>
<path d="M52.2192 9.05041C49.4278 6.31757 46.1538 4.12625 42.5627 2.58862L41.8184 4.31256C45.2003 5.75818 48.2838 7.8204 50.9123 10.393L52.2192 9.05041Z" fill="#0F0F0F"/>
<path d="M2.96168 39.6336L4.76344 39.1164C0.980024 25.8888 8.03828 11.982 20.9486 7.22717L20.3018 5.46661C6.46678 10.5588 -1.09731 25.4604 2.95802 39.6336H2.96168Z" fill="#0F0F0F"/>
<path d="M56.2501 31.875C56.2529 34.3245 55.9119 36.7616 55.2367 39.1164L57.0389 39.6336C61.0942 25.4604 53.5297 10.5588 39.6951 5.46661L39.0479 7.22717C49.3663 11.0449 56.2254 20.8731 56.2501 31.875Z" fill="#0F0F0F"/>
</g>
<defs>
<clipPath id="clip0">
<rect width="60" height="60" fill="white"/>
</clipPath>
</defs>
</svg>
