<svg width="66" height="66" viewBox="0 0 66 66" fill="none" xmlns="http://www.w3.org/2000/svg">
<g clip-path="url(#clip0)">
<path d="M25.8936 14.1333H36.2267C36.7605 14.1333 37.1935 13.7003 37.1935 13.1665C37.1935 12.6328 36.7605 12.1997 36.2267 12.1997H25.8936C25.3593 12.1997 24.9268 12.6328 24.9268 13.1665C24.9268 13.7003 25.3593 14.1333 25.8936 14.1333Z" fill="#0F0F0F"/>
<path d="M25.8936 19.3003H36.2267C36.7605 19.3003 37.1935 18.8673 37.1935 18.3335C37.1935 17.7992 36.7605 17.3667 36.2267 17.3667H25.8936C25.3593 17.3667 24.9268 17.7992 24.9268 18.3335C24.9268 18.8673 25.3593 19.3003 25.8936 19.3003Z" fill="#0F0F0F"/>
<path d="M20.2139 28.8672C20.2139 29.4009 20.6469 29.834 21.1807 29.834H44.9473C45.481 29.834 45.9141 29.4009 45.9141 28.8672C45.9141 28.3329 45.481 27.9004 44.9473 27.9004H21.1807C20.6469 27.9004 20.2139 28.3329 20.2139 28.8672Z" fill="#0F0F0F"/>
<path d="M21.1807 33.0664C20.6469 33.0664 20.2139 33.4995 20.2139 34.0332C20.2139 34.567 20.6469 35 21.1807 35H41.847C42.3812 35 42.8138 34.567 42.8138 34.0332C42.8138 33.4995 42.3812 33.0664 41.847 33.0664H21.1807Z" fill="#0F0F0F"/>
<path d="M21.1807 40.167H39.7804C40.3147 40.167 40.7472 39.7339 40.7472 39.2002C40.7472 38.6659 40.3147 38.2334 39.7804 38.2334H21.1807C20.6469 38.2334 20.2139 38.6659 20.2139 39.2002C20.2139 39.7339 20.6469 40.167 21.1807 40.167Z" fill="#0F0F0F"/>
<path d="M66.4403 16.3917C66.1966 15.6188 65.6669 14.9874 64.9483 14.6127L63.973 14.1042L64.0037 14.0452C64.3783 13.3267 64.4503 12.5054 64.2071 11.7325C63.9639 10.9595 63.4337 10.3281 62.7151 9.95348C61.2322 9.18054 59.3963 9.75861 58.6234 11.242L58.2875 11.8871C58.0408 12.3604 58.2246 12.9445 58.6979 13.1912C59.1717 13.438 59.7553 13.2542 60.0021 12.7803L60.3384 12.1353C60.6184 11.5975 61.2841 11.3881 61.8218 11.6685C62.0827 11.804 62.2745 12.0331 62.3626 12.3136C62.4508 12.5935 62.4246 12.8916 62.2891 13.152L58.9159 19.6255L56.9652 18.6093L58.2049 16.2301C58.4511 15.7568 58.2674 15.1727 57.794 14.9259C57.3202 14.6797 56.7366 14.8635 56.4899 15.3368L55.2139 17.7855V11.2999C55.2139 11.0436 55.1122 10.7979 54.9309 10.6166L44.5973 0.282989C44.416 0.101715 44.1703 0 43.914 0H12.914C12.3803 0 11.9472 0.433044 11.9472 0.966797V7.23335H5.68066C5.14691 7.23335 4.71387 7.6664 4.71387 8.20015V65.0332C4.71387 65.5675 5.14691 66 5.68066 66H47.0137C47.5475 66 47.9805 65.5675 47.9805 65.0332V58.7666H54.2471C54.7808 58.7666 55.2139 58.3336 55.2139 57.7999V39.2001C55.2139 38.6658 54.7808 38.2333 54.2471 38.2333C53.7133 38.2333 53.2803 38.6658 53.2803 39.2001V56.8331H13.8808V1.93359H42.9472V11.2999C42.9472 11.8342 43.3797 12.2667 43.914 12.2667H53.2803V21.4961L43.8213 39.6503C43.7644 39.759 43.7292 39.8784 43.7166 40.0007L43.1803 45.3523L42.5826 46.4999H39.7804C39.5241 46.4999 39.2784 46.6016 39.0971 46.7829L37.7139 48.1661L34.7807 45.233C34.4031 44.8553 33.7913 44.8553 33.4136 45.233L30.8305 47.8162C30.4528 48.1938 30.4528 48.8061 30.8305 49.1833C31.2081 49.5609 31.8199 49.5609 32.1976 49.1833L34.0974 47.2839L37.0301 50.2165C37.2113 50.3983 37.4576 50.5 37.7139 50.5C37.9702 50.5 38.2164 50.3983 38.3977 50.2165L40.1807 48.433C40.1807 48.433 43.1204 48.4335 43.1682 48.4335C43.5172 48.4335 43.854 48.2437 44.0262 47.9128L44.8954 46.2456L48.9745 42.74C49.0677 42.6594 49.1447 42.5622 49.2016 42.4535L63.0797 15.8192L64.055 16.3273C64.3154 16.4632 64.5077 16.6918 64.5958 16.9723C64.684 17.2528 64.6578 17.5504 64.5218 17.8107L59.7473 26.9746C59.5005 27.4485 59.6843 28.0321 60.1576 28.2788C60.3007 28.3533 60.4532 28.3886 60.6038 28.3886C60.9527 28.3886 61.2896 28.1992 61.4618 27.8684L66.2369 18.7045C66.6115 17.9859 66.6835 17.1647 66.4403 16.3917ZM46.0469 58.7666V64.0664H6.64746V9.16695H11.9472V57.7999C11.9472 58.3336 12.3803 58.7666 12.914 58.7666H46.0469ZM58.0221 21.3405L57.006 23.2912L55.0553 22.2746L56.0714 20.3239L58.0221 21.3405ZM48.4111 39.7862L46.4604 38.7701L54.1615 23.9897L56.1122 25.0058L48.4111 39.7862ZM44.8807 3.3007L51.9132 10.3331H44.8807V3.3007ZM45.6094 40.5068L47.475 41.4791L45.3269 43.3251L45.6094 40.5068Z" fill="#0F0F0F"/>
</g>
<defs>
<clipPath id="clip0">
<rect width="66" height="66" fill="white"/>
</clipPath>
</defs>
</svg>
