<svg width="72" height="69" viewBox="0 0 72 69" fill="none" xmlns="http://www.w3.org/2000/svg">
<g clip-path="url(#clip0)">
<path d="M68.7274 39.9925H67.6499V30.789C67.6499 29.3319 66.8852 28.0419 65.7173 27.258V26.0049C65.7173 24.1871 64.1579 22.7083 62.2411 22.7083H61.4365L64.5147 18.4249C65.5464 16.9892 65.1541 15.025 63.6401 14.0465L42.753 0.548191C42.0196 0.0741118 41.1356 -0.100851 40.2632 0.0561088C39.3912 0.212802 38.6356 0.68208 38.1358 1.37766L20.1075 26.4649H15.0907L16.3011 14.8457C16.3147 14.7147 16.4045 14.6012 16.5296 14.5565C18.089 13.999 19.4404 12.9577 20.3348 11.6247C20.4052 11.5198 20.5381 11.4598 20.6757 11.473L28.5443 12.2101C29.1085 12.262 29.6104 11.8724 29.6661 11.3376C29.7218 10.8028 29.3099 10.3266 28.746 10.2738L20.8773 9.53663C19.964 9.45182 19.0929 9.85095 18.6035 10.5801C17.946 11.5603 16.9523 12.3258 15.8058 12.7357C14.9428 13.0443 14.3502 13.7793 14.2591 14.6543L13.0289 26.4648H11.7207L13.6348 8.08785C13.7037 7.42641 14.3263 6.94046 15.0246 7.00674L30.9257 8.49632C31.4896 8.54793 31.9918 8.15853 32.0474 7.62378C32.1031 7.08902 31.6912 6.61281 31.1273 6.56L15.2263 5.07042C13.4032 4.89985 11.773 6.1674 11.5928 7.89649L10.0499 22.7083H7.42231C5.50559 22.7083 3.94606 24.1871 3.94606 26.0049V26.8597C2.37795 27.5443 1.28613 29.0475 1.28613 30.789V63.9539C1.28613 66.3383 3.33167 68.2781 5.84618 68.2781H63.09C65.6044 68.2781 67.6499 66.3383 67.6499 63.9539V54.7505H68.7274C69.9992 54.7505 71.0338 53.7694 71.0338 52.5634V42.1797C71.0339 40.9736 69.9992 39.9925 68.7274 39.9925ZM62.2411 24.6542C63.0266 24.6541 63.6654 25.2601 63.6654 26.005V26.5007C63.4767 26.478 63.2851 26.4651 63.09 26.4651H58.737L60.0382 24.6542H62.2411ZM39.8313 2.47331C40.0226 2.20727 40.3116 2.02777 40.6451 1.96776C40.7249 1.95349 40.8049 1.94629 40.8843 1.94629C41.137 1.94629 41.384 2.01804 41.5974 2.15593L62.4846 15.6542C63.0637 16.0285 63.2139 16.7798 62.8193 17.329L56.2541 26.4647H54.6785L57.8973 21.9856C58.4193 21.2593 58.4623 20.3348 58.0092 19.573C57.4071 18.5608 57.1629 17.369 57.3219 16.217C57.44 15.3599 57.0423 14.5232 56.284 14.0333L45.4562 7.03581C44.6978 6.54573 43.7311 6.50079 42.9332 6.91859C41.861 7.48002 40.602 7.70046 39.3884 7.53936C38.4884 7.41961 37.5756 7.80501 37.0613 8.52046L24.1661 26.4648H22.5906L39.8313 2.47331ZM40.2832 18.9949C35.8154 18.9949 32.1479 22.2985 31.849 26.4648H26.6489L38.7565 9.61624C38.7567 9.61624 38.7567 9.61624 38.7567 9.61624C38.8254 9.52036 38.9395 9.46329 39.0566 9.46329C39.0722 9.46329 39.0878 9.46435 39.1035 9.46635C40.7541 9.68532 42.4662 9.38581 43.9248 8.62208C44.0395 8.5618 44.1869 8.57047 44.3005 8.64382L55.1285 15.6414C55.2419 15.7147 55.3042 15.8417 55.2873 15.9649C55.0711 17.5317 55.4033 19.1525 56.2222 20.529C56.2878 20.6396 56.2798 20.7812 56.2019 20.8899L52.1958 26.4647H48.7177C48.4186 22.2985 44.7512 18.9949 40.2832 18.9949ZM46.6602 26.4649H33.9062C34.2001 23.3725 36.9471 20.9408 40.2832 20.9408C43.6193 20.9407 46.3665 23.3725 46.6602 26.4649ZM5.99792 26.0049C5.99792 25.2599 6.63678 24.654 7.42231 24.654H9.84725L9.65867 26.4648H5.99792V26.0049ZM3.33799 30.789C3.33799 29.4776 4.46313 28.4106 5.84618 28.4106H63.09C64.4731 28.4106 65.5981 29.4776 65.5981 30.789V33.4886H3.33799V30.789ZM65.5981 63.9539C65.5981 65.2653 64.4731 66.3323 63.09 66.3323H5.84618C4.46313 66.3323 3.33799 65.2653 3.33799 63.9539V61.2542H8.87047C9.43718 61.2542 9.89633 60.8187 9.89633 60.2814C9.89633 59.7441 9.43704 59.3086 8.87047 59.3086H3.33799V35.4344H65.5981V39.9925H55.8435H55.8433C52.7698 39.9925 50.1075 41.6915 48.844 44.1507C48.8398 44.159 48.835 44.167 48.8306 44.1752C48.8199 44.1962 48.8107 44.2179 48.8003 44.239C48.6498 44.5421 48.519 44.8559 48.4125 45.1797C48.4123 45.1806 48.412 45.1814 48.4117 45.1823C48.1846 45.8743 48.0621 46.6095 48.0621 47.3715C48.0621 51.4403 51.5527 54.7505 55.8432 54.7505H55.8433H65.5979V59.3086H15.4396C14.8729 59.3086 14.4138 59.7441 14.4138 60.2814C14.4138 60.8187 14.873 61.2542 15.4396 61.2542H65.5981V63.9539ZM68.9821 52.5633C68.9821 52.6964 68.8679 52.8047 68.7274 52.8047H55.8436C53.6716 52.8047 51.778 51.6526 50.8067 49.9591C50.7625 49.8822 50.7203 49.804 50.68 49.725C50.5994 49.5667 50.5267 49.4041 50.4624 49.2377C50.2372 48.6555 50.1143 48.0268 50.1143 47.3715C50.1143 46.7162 50.2373 46.0876 50.4624 45.5053C50.5268 45.339 50.5995 45.1765 50.68 45.018C50.7203 44.939 50.7625 44.8608 50.8067 44.7839C51.778 43.0904 53.6716 41.9383 55.8436 41.9383H68.7274C68.8677 41.9383 68.9821 42.0466 68.9821 42.1797V52.5633Z" fill="#D0D4D9"/>
</g>
<defs>
<clipPath id="clip0">
<rect width="72" height="68.2781" fill="white"/>
</clipPath>
</defs>
</svg>
