<svg width="72" height="72" viewBox="0 0 72 72" fill="none" xmlns="http://www.w3.org/2000/svg">
<g clip-path="url(#clip0)">
<path d="M15.75 52.875H13.5V58.5H15.75V52.875Z" fill="#D0D4D9"/>
<path d="M56.25 52.875H54V58.5H56.25V52.875Z" fill="#D0D4D9"/>
<path d="M2.25 3.32682V3.37182H12.5348C13.099 1.18005 15.2056 -0.249823 17.4507 0.0363705C19.6963 0.322015 21.3777 2.23364 21.375 4.49682C21.3701 5.23126 21.1827 5.95306 20.8306 6.59741L30.8068 13.8522C31.6005 12.129 33.394 11.093 35.2831 11.266C37.1722 11.4391 38.7477 12.7833 39.2151 14.6218H57.5349C57.9584 12.9255 59.3289 11.6297 61.0461 11.3018C62.7638 10.9738 64.515 11.6736 65.534 13.0947C66.5524 14.5158 66.653 16.3989 65.7911 17.9205L69.75 21.2202V21.3268L72 23.2468V26.0234L64.2376 19.5585C63.0286 20.3204 61.5273 20.4567 60.2007 19.9249C58.8741 19.3932 57.8831 18.2577 57.5349 16.8718H39.2151C38.6845 18.9477 36.7581 20.3567 34.6185 20.2331C32.4794 20.1095 30.7282 18.4879 30.4404 16.3643L19.3107 8.27117C18.1016 9.06054 16.5855 9.2171 15.2402 8.6914C13.8955 8.16515 12.8875 7.02203 12.5348 5.62182H0V3.32682H2.25ZM61.875 17.9968C63.1176 17.9968 64.125 16.9894 64.125 15.7468C64.125 14.5043 63.1176 13.4968 61.875 13.4968C60.6324 13.4968 59.625 14.5043 59.625 15.7468C59.625 16.9894 60.6324 17.9968 61.875 17.9968ZM34.875 17.9968C36.1176 17.9968 37.125 16.9894 37.125 15.7468C37.125 14.5043 36.1176 13.4968 34.875 13.4968C33.6324 13.4968 32.625 14.5043 32.625 15.7468C32.625 16.9894 33.6324 17.9968 34.875 17.9968ZM16.875 6.74682C18.1175 6.74682 19.125 5.73937 19.125 4.49682C19.125 3.25427 18.1175 2.24682 16.875 2.24682C15.6324 2.24682 14.625 3.25427 14.625 4.49682C14.625 5.73937 15.6324 6.74682 16.875 6.74682Z" fill="#D0D4D9"/>
<path d="M43.2002 58.8H40.8002V72H43.2002V58.8Z" fill="#D0D4D9"/>
<path d="M28.7998 58.8H26.3998V72H28.7998V58.8Z" fill="#D0D4D9"/>
<path d="M3.68097 47.9823L10.125 46.3728V43.0032L9 42.1458V36H6.43414L6.78351 34.6025C7.56628 31.455 10.3947 29.2462 13.6384 29.25H16.875C18.7388 29.25 20.25 30.7612 20.25 32.625V42.1458L19.125 43.0032V46.3728L24.75 47.7779V39.375C24.75 33.783 29.283 29.25 34.875 29.25C40.467 29.25 45 33.783 45 39.375V47.7779L50.625 46.3728V43.0032L49.5 42.1458V32.625C49.5 30.7612 51.0112 29.25 52.875 29.25H56.1116C59.3553 29.2462 62.1837 31.455 62.9665 34.6025L63.3159 36H60.75V42.1458L59.625 43.0032V46.3728L66.0701 47.9823C67.572 48.3585 68.6255 49.7088 68.625 51.2573V72H66.375V59.625H64.125V72H61.875V54H64.125V57.375H66.375V51.2573C66.3755 50.7409 66.0245 50.2905 65.5236 50.1647L59.2718 48.6002C58.7406 49.6126 57.5316 50.625 55.125 50.625C52.7184 50.625 51.5094 49.6126 50.9782 48.6002L45 50.096V50.3042C46.3447 50.7821 47.2451 52.0521 47.25 53.4793V72H45V53.4793C45 52.914 44.5809 52.4361 44.02 52.3631L40.3797 51.8906C39.993 53.8973 38.6911 55.6084 36.8597 56.5153L36 56.9455V72H33.75V56.9455L32.8903 56.5153C31.0589 55.6084 29.757 53.8973 29.3703 51.8906L25.7289 52.3642C25.1691 52.4378 24.7505 52.9146 24.75 53.4793V72H22.5V53.4793C22.5049 52.0521 23.4053 50.7821 24.75 50.3042V50.096L18.7718 48.6002C18.2406 49.6126 17.0316 50.625 14.625 50.625C12.2184 50.625 11.0094 49.6126 10.4782 48.6002L4.22754 50.1625C3.72656 50.2877 3.37445 50.7382 3.375 51.2551V57.375H5.625V54H7.875V72H5.625V59.625H3.375V72H1.125V51.2573C1.12445 49.7082 2.17859 48.358 3.68097 47.9823ZM54 36V33.75H60.1875C59.3069 32.3482 57.7661 31.4978 56.1105 31.5H52.875C52.2537 31.5 51.75 32.0037 51.75 32.625V41.0323L54 42.75H56.239L58.5 41.0323V36H54ZM55.125 48.375C57.1959 48.375 57.3624 47.411 57.375 47.25V44.7177L57.0048 45H53.2452L52.875 44.7177V47.2253C52.8909 47.4302 53.0717 48.375 55.125 48.375ZM33.8972 54.5026L34.875 54.9921L35.8528 54.5026C37.0382 53.9127 37.8853 52.8091 38.15 51.5116C37.0421 51.0771 36.2455 50.09 36.0549 48.915L34.875 49.4654L33.6951 48.915C33.5045 50.09 32.7079 51.0771 31.6 51.5116C31.8647 52.8091 32.7118 53.9127 33.8972 54.5026ZM33.4473 46.3173L34.875 46.9825L36.3016 46.3173C37.4881 45.7603 38.2467 44.5683 38.25 43.2576V39.843L31.5 41.5305V43.2576C31.5033 44.5683 32.2619 45.7603 33.4484 46.3173H33.4473ZM30.5068 49.4731C31.0688 49.4127 31.4956 48.9403 31.5 48.375V47.7395C30.0899 46.6798 29.2571 45.0209 29.25 43.2576V39.77L40.5 36.9575V43.2576C40.4929 45.0209 39.6601 46.6798 38.25 47.7395V48.375C38.2549 48.9386 38.6801 49.4099 39.2399 49.4731L42.75 49.9285V39.375C42.75 35.0255 39.2245 31.5 34.875 31.5C30.5255 31.5 27 35.0255 27 39.375V49.9296L30.5068 49.4731ZM18 32.625C18 32.0037 17.4963 31.5 16.875 31.5H13.6384C11.9828 31.4984 10.4431 32.3482 9.5625 33.75H15.75V36H11.25V41.0323L13.5 42.75H15.739L18 41.0323V32.625ZM14.625 48.375C16.6959 48.375 16.8624 47.411 16.875 47.25V44.7177L16.5048 45H12.7452L12.375 44.7177V47.2253C12.3909 47.4302 12.5717 48.375 14.625 48.375Z" fill="#D0D4D9"/>
<path fill-rule="evenodd" clip-rule="evenodd" d="M1.20039 72.0001H68.4004V69.6001H1.20039V72.0001Z" fill="#D0D4D9"/>
</g>
<defs>
<clipPath id="clip0">
<rect width="72" height="72" transform="matrix(-1 0 0 1 72 0)" fill="white"/>
</clipPath>
</defs>
</svg>
