<svg width="160" height="146" viewBox="0 0 160 146" fill="none" xmlns="http://www.w3.org/2000/svg">
<g clip-path="url(#clip0)">
<path d="M159.999 14.4995L159.761 134.033L47.6055 145.532L47.8677 21.6297L159.999 14.4995Z" fill="#F3F3F9"/>
<path d="M47.868 21.6297L47.6057 145.532L0 129.161L0.252253 7.1311L47.868 21.6297Z" fill="#D0D4D9"/>
<path d="M159.999 14.4995L47.8677 21.6297L0.251953 7.13106L112.39 0L159.999 14.4995Z" fill="#D0D4D9"/>
<path opacity="0.15" d="M47.868 21.6297L47.6057 145.532L0 129.161L0.252253 7.1311L47.868 21.6297Z" fill="#0F0F0F"/>
<path d="M134.12 49.657C132.796 48.4593 131.234 47.5535 129.537 46.9984C127.839 46.4433 126.044 46.2514 124.267 46.4352C120.468 46.838 116.955 48.6405 114.415 51.4911C114.258 51.6641 114.106 51.8401 113.958 52.0192L113.946 52.0156C110.577 51.0067 107.044 50.664 103.544 51.0067C87.7967 52.4717 74.9844 66.6322 74.9844 82.5721C74.9844 98.5121 87.7968 110.288 103.545 108.822C103.744 108.803 103.941 108.781 104.139 108.759C104.222 108.763 104.305 108.753 104.385 108.73C119.747 106.848 132.106 92.9106 132.106 77.2552C132.106 76.2779 132.061 74.2936 131.972 72.9893L134.328 70.2322C135.735 68.6208 136.829 66.7617 137.554 64.7501C138.232 62.859 138.519 60.8505 138.399 58.8455C138.208 55.3473 136.675 52.0567 134.12 49.657ZM82.9709 99.4014C78.9843 94.9523 76.7277 89.2227 76.6108 83.2532L86.9069 82.2949C86.9429 86.3096 87.6265 90.2923 88.9313 94.0897C86.7316 95.6065 84.7294 97.3908 82.9709 99.4014ZM88.9322 68.4583C87.6459 72.3901 86.9634 76.4938 86.9078 80.6298L76.6108 81.5882C76.8427 75.2845 79.0694 69.2164 82.9708 64.256C84.7377 65.9451 86.747 67.3614 88.9322 68.4583ZM102.739 69.5016C98.7038 69.7817 94.6601 69.0971 90.943 67.5045C93.1215 61.449 97.2762 56.3015 102.739 52.8904V69.5016ZM102.739 71.1677V79.1564L88.5211 80.4797C88.576 76.6247 89.1995 72.7989 90.3717 69.1256C94.2763 70.7671 98.5131 71.4667 102.739 71.1677ZM88.5211 82.1446L102.739 80.8213V88.8106C98.3519 89.3547 94.1339 90.8365 90.3717 93.1549C89.183 89.6039 88.5586 85.8887 88.5211 82.1446ZM102.739 90.4756V107.087C97.381 104.846 93.3266 100.489 90.943 94.6684C94.5237 92.4324 98.5488 91.0017 102.739 90.4756ZM104.352 90.3256C108.385 90.0508 112.425 90.7536 116.127 92.3742C113.945 98.4081 109.798 103.536 104.352 106.936V90.3256ZM104.352 88.6593V80.6712L118.57 79.3479C118.515 83.2207 117.886 87.0641 116.703 90.7527C112.811 89.0832 108.577 88.3659 104.352 88.6604V88.6593ZM118.523 76.3525C118.545 76.7915 118.56 77.236 118.569 77.6823L104.352 79.0057V71.0166C106.928 70.7036 109.452 70.0558 111.86 69.0896C112.502 70.1968 113.291 71.2113 114.207 72.1051L118.523 76.3525ZM104.352 69.351V52.7412C106.847 53.7837 109.11 55.3126 111.007 57.2385C110.528 58.6054 110.235 60.0306 110.137 61.4756C110.006 63.4296 110.294 65.3891 110.982 67.2231C111.034 67.362 111.089 67.4996 111.146 67.6367C108.961 68.4887 106.679 69.0646 104.352 69.351V69.351ZM111.71 55.5265C110.553 54.4213 109.277 53.4465 107.907 52.6198C109.588 52.7382 111.253 53.0264 112.876 53.4802C112.44 54.1342 112.051 54.8178 111.71 55.526V55.5265ZM99.1775 53.437C94.8127 56.9534 91.4763 61.5786 89.5185 66.827C87.5198 65.7977 85.6819 64.483 84.0626 62.9245C88.0266 58.3107 93.2959 55.0033 99.1775 53.437L99.1775 53.437ZM84.0626 100.53C85.6752 98.6758 87.5073 97.0243 89.5185 95.6115C91.4063 100.412 94.7934 104.478 99.1774 107.204C93.5094 106.826 88.1567 104.463 84.0626 100.53ZM107.913 106.39C112.261 102.889 115.588 98.2855 117.548 93.0616C119.53 94.102 121.352 95.4229 122.957 96.9833C119.001 101.556 113.759 104.834 107.913 106.39ZM130.493 77.4057C130.443 84.036 128.176 90.4596 124.054 95.6566C122.301 93.9644 120.307 92.5407 118.137 91.4318C119.522 87.2151 120.216 82.8024 120.191 78.3646C120.191 78.241 120.19 78.1173 120.189 77.9935L123.685 81.435C123.76 81.5092 123.851 81.5656 123.951 81.6001C124.052 81.6351 124.16 81.6479 124.267 81.6375C124.378 81.6267 124.486 81.594 124.584 81.5412C124.685 81.4868 124.775 81.4141 124.85 81.3266L130.438 74.7847C130.474 75.7832 130.493 76.8216 130.493 77.4057ZM136.042 64.3099C135.393 66.1005 134.417 67.755 133.163 69.1889L124.267 79.6015L115.372 70.8448C114.414 69.9148 113.613 68.8363 112.999 67.6511L112.752 66.9563L112.688 66.9851C112.619 66.825 112.553 66.6646 112.493 66.5017C111.886 64.8867 111.631 63.1608 111.746 61.4396C111.984 58.1426 113.322 55.0206 115.546 52.5729C117.796 50.0513 120.905 48.4568 124.267 48.1004C125.84 47.9378 127.429 48.1074 128.931 48.5982C130.434 49.089 131.816 49.8901 132.989 50.9494C135.258 53.0803 136.619 56.0022 136.789 59.1087C136.894 60.875 136.64 62.6442 136.042 64.3099H136.042Z" fill="#0F0F0F" stroke="#0F0F0F" stroke-width="0.189707"/>
<path d="M124.268 50.3015C121.677 50.6321 119.295 51.8928 117.566 53.8485C115.837 55.8042 114.88 58.3212 114.872 60.9301C114.872 66.3088 119.087 70.292 124.268 69.8098C126.859 69.4793 129.241 68.2186 130.97 66.2629C132.698 64.3072 133.656 61.7901 133.663 59.1811C133.663 53.8025 129.448 49.8194 124.268 50.3015ZM124.268 68.1439C123.257 68.2384 122.238 68.1161 121.278 67.7851C120.318 67.4541 119.441 66.9221 118.704 66.2247C117.967 65.5273 117.388 64.6807 117.005 63.7415C116.622 62.8024 116.445 61.7923 116.485 60.7792C116.49 58.617 117.283 56.5305 118.715 54.9089C120.147 53.2874 122.12 52.2415 124.268 51.9665C125.278 51.872 126.298 51.9943 127.257 52.3253C128.217 52.6563 129.094 53.1883 129.831 53.8857C130.568 54.5831 131.148 55.4297 131.53 56.3689C131.913 57.3081 132.09 58.3181 132.05 59.3313C132.045 61.4935 131.253 63.58 129.821 65.2016C128.389 66.8231 126.415 67.8689 124.268 68.1439Z" fill="#0F0F0F" stroke="#0F0F0F" stroke-width="0.189707"/>
</g>
<defs>
<clipPath id="clip0">
<rect width="160" height="145.532" fill="white"/>
</clipPath>
</defs>
</svg>
