<svg width="160" height="146" viewBox="0 0 160 146" fill="none" xmlns="http://www.w3.org/2000/svg">
<g clip-path="url(#clip0)">
<path d="M159.999 14.5092L159.761 134.122L47.6055 145.629L47.8677 21.6441L159.999 14.5092Z" fill="#F3F3F9"/>
<path d="M47.868 21.6441L47.6057 145.629L0 129.246L0.252253 7.13586L47.868 21.6441Z" fill="#D0D4D9"/>
<path d="M159.999 14.5092L47.8677 21.6441L0.251953 7.13581L112.39 0L159.999 14.5092Z" fill="#D0D4D9"/>
<path opacity="0.15" d="M47.868 21.6441L47.6057 145.629L0 129.246L0.252253 7.13586L47.868 21.6441Z" fill="#0F0F0F"/>
<path d="M99.8591 78.5466L109.675 77.7686C109.927 77.7421 110.16 77.6235 110.33 77.4357C110.5 77.2479 110.594 77.0041 110.595 76.7509C110.599 76.6313 110.577 76.5122 110.532 76.4016C110.486 76.2909 110.418 76.1912 110.331 76.1088C110.244 76.0265 110.14 75.9635 110.027 75.9239C109.914 75.8843 109.794 75.869 109.675 75.8791L99.8591 76.6571C99.6072 76.6837 99.374 76.8022 99.2042 76.99C99.0344 77.1778 98.9399 77.4217 98.9389 77.6748C98.9352 77.7944 98.9569 77.9134 99.0025 78.0241C99.0481 78.1347 99.1166 78.2345 99.2035 78.3168C99.2904 78.3991 99.3937 78.4622 99.5067 78.5018C99.6197 78.5414 99.7397 78.5566 99.8591 78.5466Z" fill="#0F0F0F"/>
<path d="M125.626 64.5369C126.213 64.4743 126.757 64.1974 127.153 63.7593C127.549 63.3212 127.77 62.7525 127.773 62.1621V59.3276L131.761 59.0116C132.348 58.949 132.892 58.6721 133.288 58.2341C133.684 57.796 133.905 57.2273 133.908 56.6368V49.0783C133.916 48.7993 133.866 48.5217 133.759 48.2636C133.653 48.0056 133.493 47.7729 133.29 47.5809C133.087 47.3889 132.846 47.2418 132.583 47.1492C132.319 47.0567 132.039 47.0208 131.761 47.0439L121.945 47.8219C121.357 47.8845 120.814 48.1613 120.418 48.5994C120.021 49.0375 119.801 49.6062 119.798 50.1966V57.7552C119.789 58.0342 119.84 58.3118 119.947 58.5699C120.053 58.8279 120.213 59.0606 120.416 59.2526C120.619 59.4446 120.86 59.5917 121.123 59.6843C121.387 59.7768 121.667 59.8127 121.945 59.7896L125.933 59.4735V62.3079C125.932 62.3923 125.901 62.4736 125.844 62.5362C125.788 62.5988 125.71 62.6383 125.626 62.6473L105.687 64.2276V61.0781L109.982 60.7377C110.569 60.6751 111.113 60.3983 111.509 59.9602C111.905 59.5221 112.126 58.9535 112.129 58.363V50.8045C112.137 50.5255 112.086 50.2478 111.98 49.9898C111.873 49.7318 111.714 49.4991 111.511 49.3071C111.308 49.1151 111.067 48.968 110.804 48.8754C110.54 48.7829 110.26 48.747 109.982 48.7701L99.5523 49.5967C98.9648 49.6593 98.4211 49.9361 98.0249 50.3742C97.6288 50.8123 97.4081 51.381 97.4051 51.9715V59.53C97.3969 59.809 97.4477 60.0866 97.5542 60.3447C97.6607 60.6027 97.8206 60.8353 98.0232 61.0274C98.2259 61.2194 98.4669 61.3665 98.7304 61.4591C98.9939 61.5516 99.274 61.5875 99.5523 61.5644L103.847 61.224V64.3733L83.9081 65.9537C83.8683 65.957 83.8283 65.9518 83.7907 65.9386C83.753 65.9254 83.7186 65.9044 83.6896 65.8769C83.6606 65.8495 83.6378 65.8162 83.6226 65.7794C83.6074 65.7425 83.6001 65.7028 83.6013 65.6629V62.8286L87.5891 62.5126C88.1766 62.45 88.7204 62.1732 89.1165 61.7351C89.5126 61.297 89.7333 60.7283 89.7363 60.1378V52.5793C89.7446 52.3002 89.6937 52.0226 89.5872 51.7646C89.4807 51.5066 89.3208 51.2739 89.1182 51.0819C88.9155 50.8898 88.6745 50.7427 88.411 50.6502C88.1475 50.5577 87.8674 50.5218 87.5891 50.5449L77.7731 51.3229C77.1856 51.3855 76.6419 51.6623 76.2457 52.1004C75.8496 52.5385 75.6289 53.1072 75.6259 53.6976V61.2562C75.6176 61.5352 75.6685 61.8128 75.775 62.0708C75.8815 62.3289 76.0414 62.5615 76.244 62.7535C76.4467 62.9456 76.6877 63.0927 76.9512 63.1852C77.2147 63.2777 77.4948 63.3136 77.7731 63.2905L81.7609 62.9745V65.8089C81.7526 66.0879 81.8034 66.3656 81.91 66.6236C82.0165 66.8816 82.1763 67.1143 82.379 67.3063C82.5817 67.4984 82.8227 67.6455 83.0862 67.738C83.3497 67.8306 83.6298 67.8665 83.9081 67.8434L103.847 66.2631V70.6721L96.1782 71.2799C95.255 71.3783 94.4004 71.8132 93.7779 72.5017C93.1554 73.1901 92.8087 74.0837 92.8039 75.0116V85.0898C92.791 85.5282 92.8708 85.9645 93.0382 86.37C93.2056 86.7755 93.4568 87.1411 93.7753 87.4428C94.0938 87.7446 94.4725 87.9757 94.8866 88.1211C95.3006 88.2665 95.7408 88.3229 96.1782 88.2866L103.847 87.6788V92.0878L83.9081 93.6681C83.3206 93.7307 82.7769 94.0076 82.3807 94.4457C81.9846 94.8837 81.7639 95.4524 81.7609 96.0429V98.8774L77.7731 99.1935C77.1856 99.2561 76.6419 99.5329 76.2457 99.971C75.8496 100.409 75.6289 100.978 75.6259 101.568V109.127C75.6176 109.406 75.6685 109.683 75.775 109.941C75.8815 110.199 76.0414 110.432 76.2441 110.624C76.4467 110.816 76.6877 110.963 76.9512 111.056C77.2147 111.148 77.4948 111.184 77.7731 111.161L87.5891 110.383C88.1766 110.321 88.7204 110.044 89.1165 109.606C89.5126 109.168 89.7333 108.599 89.7363 108.008V100.45C89.7446 100.171 89.6938 99.8932 89.5872 99.6352C89.4807 99.3771 89.3209 99.1445 89.1182 98.9524C88.9155 98.7604 88.6745 98.6133 88.411 98.5208C88.1475 98.4282 87.8674 98.3923 87.5891 98.4155L83.6013 98.7315V95.897C83.6018 95.8126 83.6333 95.7314 83.6899 95.6688C83.7465 95.6062 83.8242 95.5667 83.9081 95.5577L103.847 93.9774V97.1269L99.5523 97.4673C98.9648 97.5299 98.4211 97.8067 98.0249 98.2448C97.6288 98.6829 97.4081 99.2516 97.4051 99.842V107.401C97.3969 107.68 97.4477 107.957 97.5542 108.215C97.6607 108.473 97.8206 108.706 98.0232 108.898C98.2259 109.09 98.4669 109.237 98.7304 109.33C98.9939 109.422 99.274 109.458 99.5523 109.435L109.982 108.608C110.569 108.546 111.113 108.269 111.509 107.831C111.905 107.393 112.126 106.824 112.129 106.234V98.675C112.137 98.396 112.086 98.1184 111.98 97.8604C111.873 97.6023 111.714 97.3697 111.511 97.1777C111.308 96.9856 111.067 96.8385 110.804 96.746C110.54 96.6535 110.26 96.6176 109.982 96.6407L105.687 96.9811V93.8318L125.626 92.2515C125.666 92.2482 125.706 92.2533 125.743 92.2665C125.781 92.2798 125.816 92.3008 125.845 92.3282C125.873 92.3557 125.896 92.3889 125.912 92.4258C125.927 92.4626 125.934 92.5023 125.933 92.5421V95.3764L121.945 95.6925C121.358 95.7551 120.814 96.0319 120.418 96.47C120.022 96.9081 119.801 97.4768 119.798 98.0672V105.626C119.79 105.905 119.84 106.182 119.947 106.44C120.053 106.699 120.213 106.931 120.416 107.123C120.619 107.315 120.86 107.462 121.123 107.555C121.387 107.647 121.667 107.683 121.945 107.66L131.761 106.882C132.349 106.82 132.892 106.543 133.288 106.105C133.685 105.667 133.905 105.098 133.908 104.507V96.9488C133.917 96.6698 133.866 96.3922 133.759 96.1342C133.653 95.8761 133.493 95.6435 133.29 95.4514C133.087 95.2594 132.846 95.1123 132.583 95.0198C132.319 94.9272 132.039 94.8914 131.761 94.9145L127.773 95.2305V92.396C127.781 92.117 127.731 91.8394 127.624 91.5814C127.518 91.3233 127.358 91.0907 127.155 90.8986C126.952 90.7066 126.711 90.5595 126.448 90.467C126.184 90.3744 125.904 90.3385 125.626 90.3617L105.687 91.942V87.5328L113.356 86.925C114.279 86.8267 115.134 86.3917 115.756 85.7033C116.379 85.0149 116.725 84.1213 116.73 83.1934V73.1153C116.743 72.6768 116.663 72.2405 116.496 71.8351C116.328 71.4296 116.077 71.064 115.759 70.7622C115.44 70.4604 115.062 70.2293 114.647 70.0839C114.233 69.9385 113.793 69.8821 113.356 69.9185L105.687 70.5263V66.1172L125.626 64.5369ZM121.945 57.9C121.905 57.9033 121.865 57.8982 121.828 57.8849C121.79 57.8717 121.755 57.8507 121.726 57.8233C121.698 57.7958 121.675 57.7626 121.659 57.7257C121.644 57.6889 121.637 57.6492 121.638 57.6093V50.0508C121.639 49.9664 121.67 49.8852 121.727 49.8226C121.783 49.76 121.861 49.7204 121.945 49.7115L131.761 48.9335C131.801 48.9302 131.841 48.9353 131.878 48.9485C131.916 48.9618 131.95 48.9828 131.979 49.0102C132.008 49.0377 132.031 49.0709 132.046 49.1078C132.062 49.1446 132.069 49.1843 132.068 49.2242V56.7827C132.067 56.8671 132.036 56.9483 131.979 57.0109C131.923 57.0735 131.845 57.113 131.761 57.122L121.945 57.9ZM77.7731 61.4009C77.7333 61.4042 77.6933 61.3991 77.6557 61.3859C77.618 61.3727 77.5836 61.3517 77.5546 61.3242C77.5257 61.2968 77.5028 61.2636 77.4876 61.2267C77.4724 61.1898 77.4651 61.1502 77.4663 61.1103V53.5518C77.4667 53.4674 77.4983 53.3862 77.5549 53.3236C77.6115 53.261 77.6892 53.2214 77.7731 53.2125L87.5891 52.4345C87.6289 52.4312 87.6689 52.4363 87.7065 52.4495C87.7442 52.4627 87.7786 52.4837 87.8076 52.5112C87.8365 52.5386 87.8594 52.5719 87.8746 52.6087C87.8898 52.6456 87.8971 52.6853 87.8959 52.7251V60.2837C87.8954 60.368 87.8639 60.4493 87.8073 60.5119C87.7507 60.5745 87.673 60.614 87.5891 60.623L77.7731 61.4009ZM87.5891 100.305C87.6289 100.302 87.6689 100.307 87.7065 100.32C87.7442 100.333 87.7786 100.354 87.8076 100.382C87.8365 100.409 87.8594 100.442 87.8746 100.479C87.8898 100.516 87.8971 100.556 87.8959 100.596V108.154C87.8954 108.239 87.8639 108.32 87.8073 108.382C87.7507 108.445 87.673 108.485 87.5891 108.494L77.7731 109.272C77.7333 109.275 77.6933 109.27 77.6557 109.256C77.618 109.243 77.5836 109.222 77.5546 109.195C77.5257 109.167 77.5028 109.134 77.4876 109.097C77.4724 109.06 77.4651 109.021 77.4663 108.981V101.422C77.4667 101.338 77.4983 101.257 77.5549 101.194C77.6115 101.132 77.6892 101.092 77.7731 101.083L87.5891 100.305ZM131.761 96.8041C131.801 96.8008 131.841 96.8059 131.878 96.8191C131.916 96.8324 131.95 96.8534 131.979 96.8808C132.008 96.9082 132.031 96.9415 132.046 96.9783C132.062 97.0152 132.069 97.0549 132.068 97.0947V104.653C132.067 104.738 132.036 104.819 131.979 104.881C131.923 104.944 131.845 104.984 131.761 104.993L121.945 105.771C121.905 105.774 121.865 105.769 121.828 105.756C121.79 105.742 121.755 105.721 121.726 105.694C121.698 105.666 121.675 105.633 121.659 105.596C121.644 105.559 121.637 105.52 121.638 105.48V97.9214C121.639 97.837 121.67 97.7558 121.727 97.6932C121.783 97.6306 121.861 97.5911 121.945 97.5821L131.761 96.8041ZM109.982 98.5303C110.022 98.527 110.062 98.5321 110.099 98.5453C110.137 98.5585 110.171 98.5795 110.2 98.607C110.229 98.6344 110.252 98.6676 110.267 98.7045C110.283 98.7414 110.29 98.781 110.289 98.8209V106.379C110.288 106.464 110.257 106.545 110.2 106.608C110.143 106.67 110.066 106.71 109.982 106.719L99.5523 107.545C99.5126 107.549 99.4726 107.544 99.4349 107.53C99.3973 107.517 99.3628 107.496 99.3339 107.469C99.3049 107.441 99.2821 107.408 99.2669 107.371C99.2517 107.334 99.2444 107.295 99.2456 107.255V99.6961C99.246 99.6118 99.2775 99.5305 99.3341 99.468C99.3907 99.4054 99.4684 99.3658 99.5523 99.3569L109.982 98.5303ZM113.356 71.8082C113.555 71.7916 113.755 71.8172 113.943 71.8833C114.131 71.9494 114.304 72.0545 114.448 72.1917C114.593 72.3288 114.707 72.495 114.783 72.6794C114.859 72.8637 114.896 73.062 114.89 73.2613V83.3394C114.888 83.7612 114.73 84.1674 114.447 84.4804C114.164 84.7933 113.776 84.991 113.356 85.0357L96.1781 86.3972C95.9793 86.4137 95.7792 86.3881 95.591 86.322C95.4027 86.2559 95.2306 86.1509 95.0858 86.0137C94.941 85.8765 94.8268 85.7103 94.7507 85.526C94.6747 85.3416 94.6384 85.1433 94.6443 84.944V74.866C94.6464 74.4442 94.804 74.0379 95.087 73.725C95.37 73.412 95.7584 73.2143 96.1781 73.1696L113.356 71.8082ZM99.5522 59.6748C99.5124 59.6781 99.4724 59.6729 99.4348 59.6597C99.3971 59.6465 99.3627 59.6255 99.3338 59.5981C99.3048 59.5706 99.282 59.5374 99.2667 59.5005C99.2515 59.4636 99.2443 59.424 99.2454 59.3841V51.8256C99.2459 51.7412 99.2774 51.66 99.334 51.5974C99.3906 51.5348 99.4683 51.4953 99.5522 51.4863L109.982 50.6597C110.021 50.6564 110.062 50.6615 110.099 50.6747C110.137 50.688 110.171 50.709 110.2 50.7364C110.229 50.7638 110.252 50.7971 110.267 50.8339C110.282 50.8708 110.29 50.9105 110.288 50.9503V58.5089C110.288 58.5932 110.257 58.6745 110.2 58.7371C110.143 58.7997 110.066 58.8392 109.982 58.8481L99.5522 59.6748Z" fill="#0F0F0F"/>
<path d="M108.448 79.7556L101.086 80.3391C100.834 80.3656 100.601 80.4842 100.431 80.672C100.261 80.8598 100.166 81.1036 100.165 81.3567C100.162 81.4764 100.183 81.5954 100.229 81.7061C100.275 81.8168 100.343 81.9165 100.43 81.9989C100.517 82.0812 100.62 82.1443 100.733 82.1839C100.846 82.2235 100.966 82.2387 101.086 82.2287L108.448 81.6452C108.7 81.6186 108.933 81.5001 109.103 81.3122C109.272 81.1244 109.367 80.8805 109.368 80.6274C109.372 80.5078 109.35 80.3887 109.304 80.2781C109.259 80.1674 109.19 80.0676 109.103 79.9853C109.016 79.903 108.913 79.8399 108.8 79.8004C108.687 79.7608 108.567 79.7455 108.448 79.7556Z" fill="#0F0F0F"/>
</g>
<defs>
<clipPath id="clip0">
<rect width="160" height="145.629" fill="white"/>
</clipPath>
</defs>
</svg>
