<svg width="159" height="145" viewBox="0 0 159 145" fill="none" xmlns="http://www.w3.org/2000/svg">
<g clip-path="url(#clip0)">
<path d="M159.553 14.5168L159.313 134.193L47.1582 145.706L47.4205 21.6555L159.553 14.5168Z" fill="#F3F3F9"/>
<path d="M47.4207 21.6556L47.1585 145.706L-0.447266 129.315L-0.195012 7.13965L47.4207 21.6556Z" fill="#D0D4D9"/>
<path d="M159.553 14.5169L47.4204 21.6555L-0.195312 7.13959L111.943 0L159.553 14.5169Z" fill="#D0D4D9"/>
<path opacity="0.15" d="M47.4207 21.6556L47.1585 145.706L-0.447266 129.315L-0.195012 7.13965L47.4207 21.6556Z" fill="#0F0F0F"/>
<path d="M129.18 82.9091L120.437 72.9142V71.5565C120.475 66.4585 119.27 61.4279 116.925 56.901C114.715 52.6538 111.499 49.0121 107.558 46.2935C106.984 45.8997 106.294 44.8283 105.604 44.8904C104.914 44.9525 104.223 46.148 103.65 46.6454C99.7152 50.056 96.5262 54.2414 94.282 58.9399C91.979 63.7078 90.7788 68.9329 90.7705 74.2279V75.5855L82.0274 87.1551C81.6374 87.667 81.424 88.2916 81.419 88.9352V96.2478C81.4088 96.5892 81.4715 96.9288 81.6029 97.2441C81.7343 97.5594 81.9314 97.843 82.181 98.0761C82.4307 98.3092 82.7272 98.4864 83.0507 98.5959C83.3743 98.7053 83.7174 98.7445 84.0573 98.7109L90.9098 98.0939C91.1026 98.747 91.5179 99.312 92.0838 99.6909C92.6496 100.07 93.3302 100.239 94.0075 100.168L97.5591 99.8483V101.673C97.094 101.891 96.6996 102.236 96.4211 102.667C96.1425 103.099 95.9911 103.6 95.9841 104.114V105.106C95.9748 105.415 96.0316 105.723 96.1508 106.009C96.2699 106.295 96.4486 106.552 96.675 106.763C96.9013 106.975 97.1702 107.135 97.4635 107.235C97.7568 107.334 98.068 107.369 98.3761 107.339L103.415 106.885C103.672 106.855 103.909 106.733 104.082 106.54C104.254 106.348 104.351 106.099 104.353 105.84C104.357 105.719 104.335 105.598 104.288 105.486C104.241 105.374 104.171 105.273 104.082 105.19C103.994 105.107 103.888 105.044 103.773 105.005C103.658 104.966 103.536 104.952 103.415 104.964L98.3761 105.418C98.3099 105.424 98.2432 105.415 98.1804 105.394C98.1176 105.372 98.0601 105.337 98.0115 105.292C97.9629 105.247 97.9245 105.191 97.8985 105.13C97.8726 105.069 97.8599 105.003 97.8611 104.937V103.945C97.8639 103.803 97.9175 103.667 98.012 103.562C98.1065 103.457 98.2358 103.389 98.3761 103.371L112.831 102.069C112.897 102.064 112.964 102.072 113.027 102.093C113.09 102.115 113.147 102.15 113.196 102.195C113.244 102.24 113.283 102.295 113.309 102.357C113.335 102.418 113.348 102.484 113.347 102.55V103.542C113.344 103.684 113.29 103.82 113.196 103.925C113.101 104.03 112.972 104.098 112.831 104.116L107.793 104.57C107.536 104.6 107.299 104.722 107.126 104.915C106.953 105.107 106.857 105.356 106.855 105.615C106.851 105.736 106.873 105.857 106.92 105.969C106.966 106.082 107.037 106.183 107.125 106.266C107.214 106.349 107.32 106.412 107.435 106.45C107.55 106.489 107.672 106.503 107.793 106.491L112.831 106.037C113.486 105.961 114.09 105.648 114.531 105.157C114.971 104.667 115.217 104.032 115.223 103.373V102.381C115.235 101.898 115.087 101.425 114.803 101.035C114.518 100.645 114.112 100.36 113.649 100.225V98.3995L117.2 98.0797C117.919 97.9972 118.597 97.703 119.149 97.2344C119.7 96.7657 120.1 96.1438 120.298 95.4475L127.15 94.8305C127.872 94.746 128.539 94.4009 129.025 93.8599C129.51 93.3189 129.782 92.6192 129.789 91.8922V84.5796C129.795 83.9675 129.578 83.374 129.18 82.9091H129.18ZM127.736 84.2661C127.851 84.4005 127.914 84.5719 127.912 84.7486V89.1117L120.437 89.7848V75.9217L127.736 84.2661ZM104.784 48.074C104.99 47.8858 105.249 47.7653 105.525 47.7285C105.802 47.6918 106.083 47.7407 106.331 47.8687C108.787 49.5323 110.951 51.5895 112.737 53.9575L98.47 55.2423C100.244 52.5806 102.367 50.1696 104.784 48.074ZM92.6471 74.0589C92.6639 68.1652 94.2274 62.3792 97.1813 57.2792L114.026 55.7624C117.039 60.5374 118.614 66.0794 118.56 71.7255V92.44L108.49 93.3468V87.1849C108.494 87.0634 108.472 86.9425 108.425 86.8303C108.378 86.718 108.308 86.6171 108.219 86.5341C108.131 86.4512 108.025 86.3882 107.91 86.3493C107.795 86.3105 107.673 86.2967 107.552 86.3088C107.295 86.3385 107.057 86.4612 106.885 86.6537C106.712 86.8462 106.615 87.0952 106.613 87.3539V91.0301L104.594 91.212V78.6414C104.597 78.471 104.662 78.3076 104.776 78.1808C104.889 78.0541 105.045 77.9724 105.214 77.9507L105.993 77.8805C106.073 77.8737 106.153 77.8836 106.229 77.9097C106.304 77.9359 106.374 77.9775 106.432 78.0321C106.491 78.0867 106.537 78.1529 106.568 78.2266C106.599 78.3002 106.615 78.3795 106.613 78.4595V82.8707C106.61 82.9922 106.632 83.1131 106.678 83.2253C106.725 83.3376 106.795 83.4386 106.884 83.5215C106.973 83.6045 107.078 83.6675 107.193 83.7064C107.309 83.7453 107.431 83.7592 107.552 83.7471C107.809 83.7173 108.046 83.5946 108.219 83.402C108.392 83.2095 108.488 82.9604 108.49 82.7017V78.2905C108.5 77.9675 108.44 77.6461 108.316 77.3477C108.192 77.0494 108.005 76.781 107.769 76.5604C107.533 76.3398 107.252 76.1721 106.946 76.0686C106.64 75.965 106.315 75.9278 105.993 75.9596L105.214 76.0298C104.531 76.1098 103.9 76.4364 103.44 76.9483C102.98 77.4602 102.723 78.1223 102.717 78.8104V93.8667L92.6471 94.7734V74.0589ZM106.613 94.1236C106.609 94.2938 106.545 94.4569 106.431 94.5835C106.317 94.7102 106.162 94.792 105.993 94.8143L105.214 94.8844C105.134 94.8909 105.054 94.8807 104.979 94.8545C104.903 94.8283 104.834 94.7865 104.776 94.732C104.718 94.6775 104.671 94.6114 104.64 94.538C104.609 94.4645 104.593 94.3853 104.594 94.3055V93.1329L106.613 92.951V94.1236ZM83.4709 88.2521L90.7705 78.593V92.4562L83.2955 93.1293V88.7662C83.297 88.5804 83.3585 88.4001 83.4709 88.2521ZM83.2955 96.0782V95.0508L90.7705 94.3777V96.185L84.0573 96.7895C83.9592 96.7993 83.8601 96.788 83.7666 96.7564C83.6732 96.7248 83.5876 96.6736 83.5155 96.6063C83.4434 96.5389 83.3864 96.457 83.3485 96.366C83.3106 96.2749 83.2925 96.1768 83.2955 96.0782ZM111.772 100.243L99.4351 101.354V99.6794L111.772 98.5685V100.243ZM117.2 96.1582L94.0075 98.2467C93.8323 98.2641 93.6553 98.2439 93.4885 98.1875C93.3217 98.1311 93.1688 98.0397 93.04 97.9196C92.9113 97.7994 92.8097 97.6532 92.7419 97.4906C92.6741 97.3281 92.6418 97.153 92.6471 96.977V96.6944L103.076 95.7552C103.299 96.1126 103.617 96.4004 103.995 96.5861C104.373 96.7718 104.795 96.8479 105.214 96.8058L105.993 96.7356C106.439 96.6859 106.866 96.5294 107.238 96.2795C107.61 96.0296 107.917 95.6936 108.131 95.3L118.56 94.3609V94.6435C118.557 95.0184 118.417 95.3791 118.166 95.658C117.916 95.9369 117.572 96.1148 117.2 96.1582ZM127.912 92.0606C127.91 92.2706 127.832 92.4727 127.691 92.6289C127.551 92.7852 127.359 92.8848 127.15 92.9092L120.437 93.5137V91.7063L127.912 91.0332V92.0606Z" fill="#0F0F0F"/>
<path d="M105.412 73.97C107.523 73.723 109.471 72.7143 110.891 71.1329C112.311 69.5516 113.105 67.5064 113.124 65.3812C113.154 64.3832 112.971 63.3903 112.587 62.4687C112.203 61.5471 111.626 60.7179 110.897 60.0366C110.167 59.3552 109.3 58.8372 108.354 58.5172C107.409 58.1972 106.405 58.0826 105.412 58.1808C103.301 58.4279 101.353 59.4368 99.9331 61.0182C98.5132 62.5996 97.7194 64.6448 97.7004 66.77C97.6705 67.7679 97.8537 68.7608 98.2377 69.6823C98.6217 70.6039 99.1978 71.4329 99.9276 72.1143C100.657 72.7956 101.524 73.3135 102.47 73.6335C103.415 73.9535 104.418 74.0682 105.412 73.97ZM105.412 60.1022C106.164 60.0278 106.923 60.1145 107.638 60.3566C108.354 60.5987 109.01 60.9906 109.562 61.5061C110.114 62.0217 110.55 62.6491 110.841 63.3464C111.131 64.0438 111.27 64.7951 111.247 65.5502C111.233 67.1582 110.632 68.7057 109.558 69.9023C108.483 71.0988 107.009 71.8621 105.412 72.0489C104.66 72.1233 103.901 72.0365 103.186 71.7944C102.47 71.5523 101.814 71.1604 101.262 70.6448C100.71 70.1293 100.274 69.502 99.9834 68.8047C99.6928 68.1074 99.5542 67.3561 99.5768 66.601C99.5912 64.993 100.192 63.4455 101.266 62.2489C102.341 61.0524 103.815 60.289 105.412 60.1022Z" fill="#0F0F0F"/>
<path d="M100.793 110.841V108.98C100.797 108.859 100.775 108.738 100.728 108.625C100.681 108.513 100.611 108.412 100.522 108.329C100.434 108.246 100.328 108.183 100.213 108.145C100.098 108.106 99.9756 108.092 99.8547 108.104C99.5977 108.134 99.3605 108.256 99.1877 108.449C99.0149 108.641 98.9184 108.89 98.9164 109.149V111.01C98.9126 111.132 98.9348 111.253 98.9815 111.365C99.0282 111.477 99.0983 111.578 99.1871 111.661C99.2759 111.744 99.3814 111.807 99.4965 111.846C99.6117 111.885 99.7338 111.899 99.8547 111.886C100.112 111.857 100.349 111.734 100.522 111.542C100.694 111.349 100.791 111.1 100.793 110.841Z" fill="#0F0F0F"/>
<path d="M104.498 110.508V108.646C104.502 108.525 104.48 108.404 104.433 108.292C104.386 108.18 104.316 108.079 104.227 107.996C104.139 107.913 104.033 107.85 103.918 107.811C103.803 107.772 103.681 107.758 103.56 107.77C103.303 107.8 103.066 107.923 102.893 108.115C102.72 108.308 102.623 108.557 102.622 108.815V110.677C102.618 110.798 102.64 110.919 102.687 111.031C102.733 111.143 102.803 111.244 102.892 111.327C102.981 111.41 103.086 111.473 103.202 111.512C103.317 111.551 103.439 111.565 103.56 111.553C103.817 111.523 104.054 111.4 104.227 111.208C104.399 111.015 104.496 110.766 104.498 110.508Z" fill="#0F0F0F"/>
<path d="M108.203 110.174V108.313C108.207 108.191 108.185 108.07 108.138 107.958C108.091 107.846 108.021 107.745 107.932 107.662C107.844 107.579 107.738 107.516 107.623 107.477C107.508 107.438 107.386 107.424 107.265 107.437C107.008 107.466 106.771 107.589 106.598 107.781C106.425 107.974 106.329 108.223 106.327 108.482V110.343C106.323 110.465 106.345 110.585 106.392 110.698C106.438 110.81 106.508 110.911 106.597 110.994C106.686 111.077 106.792 111.14 106.907 111.178C107.022 111.217 107.144 111.231 107.265 111.219C107.522 111.189 107.759 111.067 107.932 110.874C108.105 110.682 108.201 110.433 108.203 110.174Z" fill="#0F0F0F"/>
<path d="M111.908 109.84V107.979C111.912 107.858 111.89 107.737 111.843 107.624C111.796 107.512 111.726 107.411 111.638 107.328C111.549 107.245 111.443 107.182 111.328 107.144C111.213 107.105 111.091 107.091 110.97 107.103C110.713 107.133 110.476 107.255 110.303 107.448C110.13 107.64 110.034 107.889 110.032 108.148V110.009C110.028 110.131 110.05 110.252 110.097 110.364C110.143 110.476 110.213 110.577 110.302 110.66C110.391 110.743 110.497 110.806 110.612 110.845C110.727 110.884 110.849 110.898 110.97 110.885C111.227 110.856 111.464 110.733 111.637 110.541C111.81 110.348 111.906 110.099 111.908 109.84Z" fill="#0F0F0F"/>
<path d="M105.412 70.6735C106.641 70.5297 107.776 69.9422 108.603 69.0212C109.43 68.1002 109.893 66.909 109.904 65.6712C109.921 65.0899 109.815 64.5116 109.591 63.9748C109.367 63.438 109.032 62.9551 108.607 62.5582C108.182 62.1614 107.677 61.8597 107.126 61.6734C106.575 61.487 105.991 61.4202 105.412 61.4775C104.183 61.6214 103.048 62.209 102.221 63.13C101.394 64.0511 100.932 65.2423 100.921 66.4801C100.903 67.0613 101.01 67.6396 101.234 68.1763C101.457 68.713 101.793 69.1959 102.218 69.5927C102.643 69.9896 103.148 70.2912 103.698 70.4776C104.249 70.6639 104.833 70.7307 105.412 70.6735ZM105.412 63.3984C105.749 63.3651 106.089 63.404 106.41 63.5125C106.731 63.6211 107.024 63.7967 107.272 64.0278C107.519 64.2588 107.715 64.54 107.845 64.8525C107.975 65.165 108.037 65.5017 108.027 65.8402C108.021 66.5608 107.751 67.2543 107.27 67.7905C106.788 68.3267 106.128 68.6687 105.412 68.7525C105.075 68.7857 104.735 68.7468 104.414 68.6383C104.094 68.5298 103.8 68.3542 103.552 68.1232C103.305 67.8922 103.11 67.611 102.979 67.2986C102.849 66.9861 102.787 66.6495 102.797 66.3111C102.804 65.5905 103.073 64.897 103.554 64.3607C104.036 63.8244 104.696 63.4823 105.412 63.3984V63.3984Z" fill="#0F0F0F"/>
</g>
<defs>
<clipPath id="clip0">
<rect x="-1" width="160" height="145.706" fill="white"/>
</clipPath>
</defs>
</svg>
