<svg width="160" height="145" viewBox="0 0 160 145" fill="none" xmlns="http://www.w3.org/2000/svg">
<g clip-path="url(#clip0)">
<path d="M160.276 13.5168L160.037 133.193L47.8809 144.706L48.1431 20.6555L160.276 13.5168Z" fill="#F3F3F9"/>
<path d="M48.1435 20.6556L47.8812 144.706L0.276367 128.315L0.52771 6.13965L48.1435 20.6556Z" fill="#D0D4D9"/>
<path d="M160.276 13.5169L48.1431 20.6555L0.527344 6.13959L112.665 -1L160.276 13.5169Z" fill="#D0D4D9"/>
<path opacity="0.15" d="M48.1435 20.6556L47.8812 144.706L0.276367 128.315L0.52771 6.13965L48.1435 20.6556Z" fill="#0F0F0F"/>
<path d="M111.875 92.0857C111.876 91.972 111.854 91.8593 111.81 91.7544C111.766 91.6496 111.701 91.5549 111.619 91.4762C111.537 91.3999 111.44 91.3419 111.334 91.3059C111.228 91.27 111.115 91.257 111.003 91.2677L101.254 92.1064C101.017 92.1297 100.796 92.242 100.638 92.4209C100.476 92.5999 100.385 92.8325 100.383 93.0743V98.879C100.381 98.9927 100.403 99.1054 100.447 99.2102C100.491 99.3151 100.556 99.4098 100.638 99.4884C100.72 99.5648 100.818 99.6228 100.924 99.6588C101.03 99.6948 101.143 99.7078 101.254 99.6971L111.003 98.8584C111.241 98.8351 111.461 98.7227 111.619 98.5438C111.782 98.3648 111.873 98.1322 111.875 97.8904V92.0857ZM102.126 93.8174L110.132 93.1286V97.1473L102.126 97.836V93.8174Z" fill="#0F0F0F"/>
<path d="M126.997 90.7846C126.998 90.671 126.976 90.5582 126.932 90.4534C126.889 90.3485 126.824 90.2538 126.742 90.1751C126.659 90.0988 126.562 90.0408 126.456 90.0048C126.35 89.9688 126.237 89.9558 126.125 89.9665L116.376 90.8053C116.139 90.8285 115.918 90.9409 115.76 91.1199C115.598 91.2989 115.507 91.5315 115.505 91.7732V97.578C115.503 97.6916 115.525 97.8044 115.569 97.9092C115.613 98.014 115.678 98.1087 115.76 98.1874C115.842 98.2637 115.94 98.3218 116.046 98.3578C116.152 98.3937 116.265 98.4068 116.376 98.396L126.125 97.5573C126.363 97.5341 126.583 97.4217 126.742 97.2427C126.904 97.0637 126.995 96.8311 126.997 96.5893V90.7846ZM117.248 92.5163L125.254 91.8275V95.8462L117.248 96.535V92.5163Z" fill="#0F0F0F"/>
<path d="M135.129 95.4167V68.262C135.136 66.7629 134.789 65.2834 134.117 63.9434C133.464 62.6423 132.492 61.5275 131.292 60.7026C130.093 59.8778 128.704 59.3695 127.255 59.2252C125.759 59.0748 124.248 59.2768 122.844 59.8152L122.054 45.5005C122.046 45.276 121.95 45.0638 121.786 44.9101C121.705 44.8361 121.609 44.7792 121.506 44.7429C121.402 44.7065 121.292 44.6915 121.183 44.6986L116.411 45.1091C116.178 45.1385 115.964 45.2504 115.808 45.4245C115.647 45.5989 115.553 45.824 115.541 46.0608L114.261 70.2029L112.732 69.7093C112.603 69.6658 112.464 69.6577 112.331 69.6856C112.192 69.7145 112.062 69.7771 111.953 69.8677C111.839 69.9625 111.747 70.0821 111.686 70.2174C111.626 70.3505 111.597 70.4959 111.603 70.642V74.829L101.744 70.6621C101.608 70.6187 101.463 70.6105 101.322 70.6382C101.176 70.667 101.039 70.7295 100.921 70.8207C100.801 70.9128 100.703 71.0305 100.635 71.1652C100.567 71.2982 100.53 71.445 100.528 71.5944V83.7245L96.752 84.0493V85.8354L128.884 83.0712V103.125L96.752 105.889V107.675L129.811 104.831C129.923 104.823 130.032 104.793 130.132 104.742C130.235 104.69 130.326 104.618 130.402 104.531C130.479 104.444 130.538 104.343 130.577 104.234C130.615 104.127 130.632 104.013 130.627 103.899V101.635L137.452 101.048C137.568 101.038 137.681 101.006 137.785 100.954C137.892 100.9 137.988 100.827 138.068 100.738C138.149 100.649 138.213 100.546 138.257 100.434C138.301 100.323 138.323 100.206 138.324 100.087V98.9674C138.322 98.0735 137.994 97.2108 137.402 96.5409C136.815 95.8904 136.002 95.4883 135.129 95.4167ZM117.238 46.8241L120.355 46.5559L121.131 60.6187C118.643 62.13 116.85 64.5595 116.139 67.3822L117.238 46.8241ZM124.818 75.6179V81.6349L113.346 82.6218V71.8157L124.818 75.6179ZM102.27 72.7685L111.603 76.7548V82.7718L102.27 83.5746V72.7685ZM126.561 81.485V74.8656C126.563 74.6921 126.511 74.5222 126.413 74.3791C126.316 74.2404 126.178 74.1369 126.017 74.0844L117.557 71.3081V69.7736C117.575 67.5776 118.4 65.4649 119.875 63.8383C121.313 62.2131 123.312 61.1923 125.472 60.981C126.485 60.8836 127.508 61.0021 128.473 61.3286C129.438 61.6551 130.322 62.1823 131.068 62.8755C131.813 63.5903 132.403 64.4506 132.802 65.403C133.201 66.3553 133.4 67.3795 133.386 68.4119V95.5931L130.627 95.8304V82.065C130.638 81.9533 130.624 81.8405 130.587 81.7344C130.551 81.6283 130.492 81.5313 130.415 81.4499C130.337 81.3684 130.243 81.3045 130.139 81.2623C130.035 81.2202 129.924 81.2008 129.811 81.2054L126.561 81.485ZM136.581 99.3368L130.627 99.849V97.6165L134.548 97.2792C134.806 97.2468 135.068 97.2705 135.316 97.3487C135.565 97.4269 135.793 97.5577 135.986 97.7321C136.179 97.9066 136.332 98.1207 136.435 98.3598C136.537 98.5988 136.587 98.8572 136.581 99.1173V99.3368Z" fill="#0F0F0F"/>
<path d="M99.9468 110.763V109.643C99.981 108.892 99.7738 108.151 99.3556 107.526C98.9375 106.902 98.3303 106.428 97.6233 106.174V58.2672C97.74 51.5865 93.585 47.1188 87.148 47.6265C80.711 48.1342 76.306 54.1274 76.6728 60.0695V107.977C75.9861 108.368 75.4115 108.929 75.0046 109.607C74.5976 110.284 74.372 111.055 74.3493 111.845V112.965C74.3447 113.081 74.364 113.197 74.406 113.305C74.4481 113.413 74.512 113.511 74.5937 113.594C74.6755 113.676 74.7733 113.741 74.8812 113.784C74.989 113.827 75.1046 113.847 75.2206 113.843L99.1168 111.788C99.3556 111.746 99.5713 111.619 99.7238 111.431C99.8764 111.242 99.9556 111.005 99.9468 110.763ZM95.8806 97.7976L90.3623 98.2723V91.2969L95.8806 90.8222V97.7976ZM95.8806 84.2932L90.3623 84.7679V77.7923L95.8806 77.3176V84.2932ZM95.8806 70.7886L90.3623 71.2633V64.2878L95.8806 63.8131V70.7886ZM87.148 49.2657C92.6237 48.724 96.0049 53.0319 95.8806 58.4171V62.0271L89.5545 62.5713C89.3126 62.5867 89.0846 62.6893 88.9127 62.8601C88.7407 63.0309 88.6366 63.2583 88.6196 63.5V72.3165C88.6238 72.4322 88.6519 72.5457 88.7021 72.65C88.7523 72.7543 88.8236 72.8471 88.9114 72.9225C88.9992 72.9979 89.1017 73.0543 89.2124 73.0882C89.323 73.122 89.4395 73.1326 89.5545 73.1193L95.8806 72.5751V75.532L89.5545 76.0762C89.313 76.0907 89.0851 76.1925 88.9131 76.3626C88.7411 76.5327 88.6368 76.7596 88.6196 77.0009V85.8173C88.6237 85.9332 88.6517 86.0469 88.7019 86.1514C88.752 86.256 88.8232 86.349 88.9109 86.4247C88.9987 86.5004 89.1012 86.5572 89.2119 86.5915C89.3227 86.6257 89.4393 86.6367 89.5545 86.6238L95.8806 86.0796V89.0365L89.5545 89.5807C89.3134 89.5945 89.0855 89.6955 88.9135 89.865C88.7415 90.0345 88.637 90.2608 88.6196 90.5016V99.3182C88.6236 99.4342 88.6515 99.5482 88.7016 99.653C88.7516 99.7577 88.8227 99.851 88.9105 99.927C88.9982 100.003 89.1007 100.06 89.2115 100.095C89.3223 100.129 89.4391 100.141 89.5545 100.128L95.8806 99.5841V105.964L78.4155 107.467V59.9196C77.9502 55.1901 81.6724 49.8074 87.148 49.2657ZM98.2041 110.08L76.092 111.982V111.695C76.0937 111.118 76.2982 110.559 76.6698 110.117C77.0415 109.675 77.5565 109.378 78.125 109.277L96.2124 107.721C96.4819 107.717 96.7492 107.769 96.9979 107.873C97.2467 107.976 97.4714 108.13 97.6581 108.325C97.8449 108.519 97.9898 108.749 98.0837 109.002C98.1776 109.254 98.2186 109.524 98.2041 109.793V110.08Z" fill="#0F0F0F"/>
</g>
<defs>
<clipPath id="clip0">
<rect y="-1" width="160" height="145.706" fill="white"/>
</clipPath>
</defs>
</svg>
