<svg width="337" height="33" viewBox="0 0 337 33" fill="none" xmlns="http://www.w3.org/2000/svg">
<path d="M127.397 27.5523C127.397 27.9714 127.259 28.3206 126.983 28.5999C126.707 28.8793 126.362 29.019 125.948 29.019H123.5C123.086 29.019 122.741 28.8793 122.466 28.5999C122.19 28.3206 122.052 27.9714 122.052 27.5523V21.1968C122.052 20.7777 122.19 20.4285 122.466 20.1492C122.741 19.8698 123.086 19.7301 123.5 19.7301H124.259C124.586 19.2936 124.879 18.7523 125.138 18.1412C125.397 17.5126 125.603 16.8492 125.793 16.0984C125.966 15.365 126.121 14.5968 126.241 13.8111C126.362 13.0253 126.431 12.2396 126.483 11.4714L126.638 9.18407C126.655 8.76503 126.828 8.41582 127.121 8.13646C127.414 7.85709 127.759 7.71741 128.172 7.71741H138.931C139.345 7.71741 139.69 7.85709 139.966 8.13646C140.241 8.41582 140.379 8.76503 140.379 9.18407V19.7301H141.793C142.207 19.7301 142.552 19.8698 142.828 20.1492C143.103 20.4285 143.241 20.7777 143.241 21.1968V27.5523C143.241 27.9714 143.103 28.3206 142.828 28.5999C142.552 28.8793 142.207 29.019 141.793 29.019H139.345C138.931 29.019 138.586 28.8793 138.31 28.5999C138.034 28.3206 137.897 27.9714 137.897 27.5523V25.1428H127.397V27.5523ZM134.638 13.1301H132.069L132 13.8285C131.828 15.2952 131.586 16.5174 131.276 17.4777C130.966 18.438 130.638 19.1888 130.276 19.7301H134.638V13.1301Z" fill="#0073E6"/>
<path d="M150.724 18.3507C151 19.1714 151.517 19.7825 152.241 20.1666C152.966 20.5507 153.81 20.7428 154.759 20.7428C155.397 20.7428 155.966 20.7079 156.448 20.6206C156.931 20.5507 157.414 20.4111 157.862 20.2365C158.138 20.1317 158.431 20.0793 158.707 20.0793C159.328 20.0793 159.759 20.3587 160.052 20.8999L160.672 22.1396C160.776 22.3492 160.828 22.5761 160.828 22.838C160.828 23.4142 160.603 23.8333 160.138 24.1126C159.035 24.7412 158.035 25.1253 157.103 25.3174C156.19 25.492 155.207 25.5968 154.155 25.5968C152.724 25.5968 151.431 25.3698 150.293 24.9333C149.138 24.4968 148.172 23.8682 147.362 23.065C146.552 22.2619 145.931 21.3015 145.483 20.1492C145.035 19.0142 144.81 17.7571 144.81 16.3952C144.81 15.1206 145.035 13.9333 145.483 12.8333C145.931 11.7158 146.552 10.738 147.362 9.89995C148.172 9.06185 149.138 8.39836 150.293 7.92693C151.448 7.4555 152.724 7.21106 154.155 7.21106C155.259 7.21106 156.31 7.40312 157.31 7.78725C158.31 8.17138 159.207 8.73011 159.966 9.46344C160.724 10.1793 161.345 11.0523 161.81 12.065C162.276 13.0777 162.5 14.1952 162.5 15.4349C162.5 16.1333 162.466 16.7095 162.379 17.1809C162.328 17.4603 162.172 17.7222 161.897 17.9841C161.621 18.2285 161.362 18.3507 161.069 18.3507H150.724ZM156.741 14.4746C156.741 13.8809 156.5 13.3222 156.035 12.8333C155.569 12.3269 154.862 12.0825 153.948 12.0825C152.983 12.0825 152.241 12.292 151.724 12.7111C151.207 13.1301 150.81 13.7238 150.535 14.492H156.741V14.4746Z" fill="#0073E6"/>
<path fill-rule="evenodd" clip-rule="evenodd" d="M170.448 25.1428C170.034 25.1428 169.69 25.0031 169.414 24.7238C169.138 24.4444 169 24.0952 169 23.6761V13.5142H165.483C165.069 13.5142 164.724 13.3745 164.448 13.0952C164.172 12.8158 164.034 12.4666 164.034 12.0476V9.18407C164.034 8.76503 164.172 8.41582 164.448 8.13646C164.724 7.85709 165.069 7.71741 165.483 7.71741H178.276C178.69 7.71741 179.034 7.85709 179.31 8.13646C179.586 8.41582 179.724 8.76503 179.724 9.18407V12.0476C179.724 12.4666 179.586 12.8158 179.31 13.0952C179.034 13.3745 178.69 13.5142 178.276 13.5142H174.759V23.6761C174.759 24.0952 174.621 24.4444 174.345 24.7238C174.069 25.0031 173.724 25.1428 173.31 25.1428H170.448Z" fill="#0073E6"/>
<path fill-rule="evenodd" clip-rule="evenodd" d="M193.672 13.3571C192.759 12.8857 191.879 12.6587 191.034 12.6587C190.569 12.6587 190.121 12.7285 189.69 12.8857C189.259 13.0428 188.862 13.2873 188.5 13.6015C188.138 13.9333 187.862 14.3174 187.638 14.7888C187.414 15.2603 187.31 15.8015 187.31 16.4127C187.31 17.0063 187.431 17.5301 187.655 18.0015C187.879 18.473 188.172 18.8571 188.534 19.1888C188.897 19.5206 189.293 19.765 189.741 19.9222C190.19 20.0968 190.638 20.1666 191.103 20.1666C192 20.1666 192.897 19.8873 193.793 19.3111C194.121 19.0841 194.483 18.9619 194.862 18.9619C195.345 18.9619 195.741 19.1714 196.052 19.5904L197.241 21.1793C197.448 21.4587 197.552 21.773 197.552 22.1047C197.552 22.6285 197.345 23.0301 196.931 23.3444C195.776 24.2698 194.69 24.8809 193.672 25.1603C192.655 25.4396 191.672 25.5793 190.759 25.5793C189.31 25.5793 187.983 25.3523 186.793 24.9158C185.603 24.4793 184.603 23.8507 183.759 23.0476C182.931 22.2444 182.293 21.2841 181.845 20.1317C181.397 18.9968 181.172 17.7396 181.172 16.3777C181.172 15.1031 181.397 13.9158 181.828 12.8158C182.259 11.6984 182.879 10.7206 183.69 9.88249C184.5 9.0444 185.466 8.38091 186.586 7.90948C187.707 7.43805 188.948 7.1936 190.293 7.1936C191.448 7.1936 192.483 7.29837 193.397 7.50789C194.31 7.71741 195.293 8.15392 196.31 8.83487C196.879 9.20154 197.155 9.65551 197.155 10.1968C197.155 10.4587 197.086 10.7031 196.931 10.9301L195.828 12.7984C195.517 13.3222 195.086 13.5666 194.517 13.5666C194.207 13.5841 193.931 13.5142 193.672 13.3571Z" fill="#0073E6"/>
<path fill-rule="evenodd" clip-rule="evenodd" d="M206.535 16.8142V23.6761C206.535 24.0952 206.397 24.4444 206.121 24.7238C205.845 25.0031 205.5 25.1428 205.086 25.1428H202.259C201.845 25.1428 201.5 25.0031 201.224 24.7238C200.948 24.4444 200.81 24.0952 200.81 23.6761V9.16662C200.81 8.74758 200.948 8.39837 201.224 8.119C201.5 7.83964 201.845 7.69996 202.259 7.69996H205.086C205.5 7.69996 205.845 7.83964 206.121 8.119C206.397 8.39837 206.535 8.74758 206.535 9.16662V15.2952L210.983 8.66027C211.19 8.38091 211.448 8.13646 211.776 7.96186C212.103 7.78726 212.431 7.6825 212.793 7.6825H215.483C215.914 7.6825 216.276 7.83964 216.552 8.15392C216.828 8.46821 216.966 8.81742 216.966 9.20154C216.966 9.51583 216.862 9.81265 216.655 10.092L212.603 15.5222L214.483 18.1238C215.19 19.0841 215.879 19.6428 216.552 19.8C217.138 19.9222 217.534 20.1317 217.724 20.3761C217.914 20.6381 218.017 21.0571 218.017 21.6507V24.0254C218.017 24.3396 217.897 24.619 217.672 24.8809C217.448 25.1428 217.172 25.3 216.862 25.3523C216.655 25.3698 216.466 25.4047 216.293 25.4047C216.121 25.4222 215.931 25.4222 215.724 25.4222C215.259 25.4222 214.793 25.3698 214.293 25.265C213.793 25.1603 213.293 24.9682 212.793 24.7063C212.293 24.4269 211.793 24.0603 211.293 23.5539C210.793 23.065 210.293 22.4365 209.776 21.6507L206.535 16.8142Z" fill="#0073E6"/>
<path fill-rule="evenodd" clip-rule="evenodd" d="M234.569 25.1428C234.155 25.1428 233.81 25.0031 233.534 24.7238C233.259 24.4444 233.121 24.0952 233.121 23.6761V16.0285L227.638 24.1825C227.431 24.4619 227.19 24.7063 226.931 24.8809C226.655 25.0555 226.345 25.1603 226 25.1603H222.707C222.293 25.1603 221.948 25.0206 221.672 24.7412C221.397 24.4619 221.259 24.1126 221.259 23.6936V9.18408C221.259 8.76503 221.397 8.41582 221.672 8.13646C221.948 7.85709 222.293 7.71741 222.707 7.71741H225.534C225.948 7.71741 226.293 7.85709 226.569 8.13646C226.845 8.41582 226.983 8.76503 226.983 9.18408V16.8317L232.466 8.67773C232.672 8.39836 232.897 8.15392 233.155 7.97932C233.414 7.80471 233.724 7.69995 234.069 7.69995H237.397C237.81 7.69995 238.155 7.83963 238.431 8.119C238.707 8.39836 238.845 8.74757 238.845 9.16662V23.6761C238.845 24.0952 238.707 24.4444 238.431 24.7238C238.155 25.0031 237.81 25.1428 237.397 25.1428H234.569Z" fill="#0073E6"/>
<path d="M256.414 25.1428C256 25.1428 255.655 25.0032 255.379 24.7238C255.103 24.4444 254.966 24.0952 254.966 23.6762V16.0286L249.483 24.1825C249.276 24.4619 249.034 24.7063 248.776 24.8809C248.5 25.0555 248.19 25.1603 247.845 25.1603H244.552C244.138 25.1603 243.793 25.0206 243.517 24.7413C243.241 24.4619 243.103 24.1127 243.103 23.6936V9.18411C243.103 8.76507 243.241 8.41586 243.517 8.1365C243.793 7.85713 244.138 7.71745 244.552 7.71745H247.379C247.793 7.71745 248.138 7.85713 248.414 8.1365C248.69 8.41586 248.828 8.76507 248.828 9.18411V16.8317L254.31 8.67777C254.517 8.3984 254.741 8.15396 255 7.97935C255.259 7.80475 255.569 7.69999 255.914 7.69999H259.241C259.655 7.69999 260 7.83967 260.276 8.11903C260.552 8.3984 260.69 8.74761 260.69 9.16665V23.6762C260.69 24.0952 260.552 24.4444 260.276 24.7238C260 25.0032 259.655 25.1428 259.241 25.1428H256.414ZM255.569 0.0523682C256.328 0.0523682 256.914 0.279352 257.31 0.71586C257.707 1.15237 257.897 1.72856 257.897 2.42697C257.897 3.43967 257.397 4.29523 256.414 4.99364C255.431 5.69205 253.966 6.04126 252.034 6.04126C249.897 6.04126 248.345 5.69205 247.414 4.99364C246.483 4.29523 246.017 3.43967 246.017 2.42697C246.017 1.72856 246.207 1.15237 246.586 0.71586C246.966 0.279352 247.552 0.0523682 248.31 0.0523682C248.966 0.0523682 249.466 0.192051 249.759 0.471416C250.069 0.750781 250.276 1.09999 250.414 1.51903C250.534 1.86824 250.724 2.16507 250.948 2.39205C251.172 2.61903 251.534 2.7238 252.017 2.7238C252.448 2.7238 252.776 2.61903 252.983 2.39205C253.19 2.16507 253.345 1.86824 253.483 1.51903C253.603 1.09999 253.828 0.733321 254.138 0.471416C254.448 0.192051 254.931 0.0523682 255.569 0.0523682Z" fill="#0073E6"/>
<path fill-rule="evenodd" clip-rule="evenodd" d="M278.328 23.6761C278.328 24.0952 278.19 24.4444 277.914 24.7238C277.638 25.0031 277.293 25.1428 276.879 25.1428H274.052C273.638 25.1428 273.293 25.0031 273.017 24.7238C272.741 24.4444 272.603 24.0952 272.603 23.6761V9.16662C272.603 8.74757 272.741 8.39836 273.017 8.119C273.293 7.83963 273.638 7.69995 274.052 7.69995H276.776C277.431 7.69995 278.034 7.99678 278.534 8.59043L282.931 13.6365L286.983 8.62535C287.207 8.34598 287.466 8.119 287.741 7.9444C288.017 7.76979 288.345 7.69995 288.707 7.69995H291.276C291.69 7.69995 292.034 7.83963 292.31 8.119C292.586 8.39836 292.724 8.74757 292.724 9.16662V23.6761C292.724 24.0952 292.586 24.4444 292.31 24.7238C292.034 25.0031 291.69 25.1428 291.276 25.1428H288.448C288.034 25.1428 287.69 25.0031 287.414 24.7238C287.138 24.4444 287 24.0952 287 23.6761V16.5698L283.724 20.3063C283.448 20.6206 283.103 20.7777 282.724 20.7777C282.345 20.7777 282.017 20.638 281.724 20.3587L278.31 16.6047V23.6761H278.328Z" fill="#0073E6"/>
<path fill-rule="evenodd" clip-rule="evenodd" d="M310.259 25.1428C309.845 25.1428 309.5 25.0031 309.224 24.7238C308.948 24.4444 308.81 24.0952 308.81 23.6761V16.0285L303.328 24.1825C303.121 24.4619 302.879 24.7063 302.621 24.8809C302.345 25.0555 302.034 25.1603 301.69 25.1603H298.397C297.983 25.1603 297.638 25.0206 297.362 24.7412C297.086 24.4619 296.948 24.1126 296.948 23.6936V9.18408C296.948 8.76503 297.086 8.41582 297.362 8.13646C297.638 7.85709 297.983 7.71741 298.397 7.71741H301.224C301.638 7.71741 301.983 7.85709 302.259 8.13646C302.534 8.41582 302.672 8.76503 302.672 9.18408V16.8317L308.155 8.67773C308.362 8.39836 308.586 8.15392 308.845 7.97932C309.103 7.80471 309.414 7.69995 309.759 7.69995H313.086C313.5 7.69995 313.845 7.83963 314.121 8.119C314.397 8.39836 314.534 8.74757 314.534 9.16662V23.6761C314.534 24.0952 314.397 24.4444 314.121 24.7238C313.845 25.0031 313.5 25.1428 313.086 25.1428H310.259Z" fill="#0073E6"/>
<path d="M324.517 31.4285C324.517 31.8476 324.379 32.1968 324.103 32.4761C323.828 32.7555 323.483 32.8952 323.069 32.8952H320.241C319.828 32.8952 319.483 32.7555 319.207 32.4761C318.931 32.1968 318.793 31.8476 318.793 31.4285V9.16661C318.793 8.74756 318.931 8.39836 319.207 8.11899C319.483 7.83963 319.828 7.69994 320.241 7.69994H323.276C323.638 7.69994 323.931 7.82217 324.172 8.06661C324.414 8.31106 324.534 8.60788 324.534 8.97455C325.017 8.50312 325.672 8.10153 326.483 7.75233C327.293 7.40312 328.241 7.22852 329.31 7.22852C330.466 7.22852 331.517 7.4555 332.466 7.89201C333.431 8.32852 334.241 8.95709 334.897 9.76026C335.552 10.5634 336.069 11.5063 336.448 12.5888C336.81 13.6714 337 14.8587 337 16.1507C337 17.4777 336.776 18.6999 336.328 19.8523C335.879 21.0047 335.259 21.9999 334.448 22.8555C333.638 23.7111 332.672 24.3745 331.534 24.8809C330.397 25.3698 329.121 25.6142 327.724 25.6142C327.138 25.6142 326.552 25.5618 325.983 25.4745C325.414 25.3872 324.914 25.2476 324.5 25.073V31.4285H324.517ZM324.517 19.5206C324.948 19.7825 325.362 19.9571 325.724 20.0444C326.086 20.1317 326.586 20.1841 327.207 20.1841C328.466 20.1841 329.379 19.7999 329.983 19.0317C330.586 18.2634 330.879 17.338 330.879 16.2555C330.879 15.2428 330.586 14.3872 330.017 13.6888C329.448 12.9904 328.603 12.6412 327.5 12.6412C326.431 12.6412 325.431 13.165 324.517 14.1952V19.5206Z" fill="#0073E6"/>
<path fill-rule="evenodd" clip-rule="evenodd" d="M106.077 20.6243C105.023 23.512 103.952 25.6209 103.124 27.0347C102.271 28.486 100.607 29.2477 98.9739 28.9276C97.4106 28.6227 95.1672 28.0606 92.2836 27.0303C89.4042 25.9995 87.3167 25.0107 85.9188 24.2584C84.4556 23.4705 83.6676 21.8318 83.9495 20.1759C84.2238 18.5624 84.7624 16.2647 85.8159 13.3769C86.8712 10.4869 87.9407 8.37944 88.77 6.96599C89.6223 5.51469 91.2857 4.75258 92.9201 5.07212C94.4813 5.3773 96.7238 5.93906 99.6051 6.96754C102.488 8.0005 104.576 8.98847 105.976 9.7426C107.437 10.5299 108.225 12.1706 107.943 13.8244C107.669 15.437 107.131 17.736 106.077 20.6243Z" fill="#00C2FC"/>
<path fill-rule="evenodd" clip-rule="evenodd" d="M78.08 13.334C79.1459 16.2122 79.6935 18.5058 79.9762 20.1136C80.265 21.7652 79.4856 23.4056 78.0288 24.1987C76.6354 24.9589 74.555 25.9547 71.6813 26.9993C68.8105 28.0409 66.5727 28.6112 65.0158 28.9242C63.3858 29.2515 61.7208 28.499 60.8632 27.0534C60.0271 25.645 58.9498 23.5453 57.8839 20.6671C56.8178 17.786 56.27 15.4945 55.9882 13.8864C55.6994 12.2348 56.4779 10.5947 57.9352 9.80042C59.3273 9.04167 61.4068 8.04618 64.2775 7.00166C67.1521 5.95972 69.3896 5.3885 70.9494 5.07547C72.5777 4.7488 74.2442 5.50277 75.1003 6.94692C75.936 8.35441 77.0146 10.4547 78.08 13.334Z" fill="#06C92E"/>
<path fill-rule="evenodd" clip-rule="evenodd" d="M50.148 20.6243C49.0946 23.512 48.0235 25.6209 47.1951 27.0347C46.3428 28.486 44.6785 29.2477 43.0453 28.9276C41.482 28.6227 39.2387 28.0606 36.3551 27.0303C33.4756 25.9995 31.3881 25.0107 29.9903 24.2584C28.5271 23.4705 27.739 21.8318 28.0209 20.1759C28.2952 18.5624 28.8339 16.2647 29.8873 13.3769C30.9426 10.4869 32.0121 8.37944 32.8415 6.96599C33.6937 5.51469 35.3572 4.75258 36.9915 5.07212C38.5527 5.3773 40.7952 5.93906 43.6765 6.96754C46.5592 8.0005 48.647 8.98847 50.0471 9.7426C51.5086 10.5299 52.2968 12.1706 52.0147 13.8244C51.7408 15.437 51.2027 17.736 50.148 20.6243Z" fill="#FABC22"/>
<path fill-rule="evenodd" clip-rule="evenodd" d="M22.1514 13.334C23.2173 16.2122 23.7649 18.5058 24.0476 20.1136C24.3364 21.7652 23.557 23.4056 22.1002 24.1987C20.7068 24.9589 18.6264 25.9547 15.7527 26.9993C12.8819 28.0409 10.6441 28.6112 9.08722 28.9242C7.45723 29.2515 5.79226 28.499 4.93459 27.0534C4.09853 25.645 3.02122 23.5453 1.95527 20.6671C0.889223 17.786 0.341368 15.4945 0.0596133 13.8864C-0.229198 12.2348 0.549301 10.5947 2.00663 9.80042C3.39868 9.04167 5.47819 8.04618 8.34889 7.00166C11.2235 5.95972 13.461 5.3885 15.0208 5.07547C16.6491 4.7488 18.3156 5.50277 19.1717 6.94692C20.0075 8.35441 21.086 10.4547 22.1514 13.334Z" fill="#F72A16"/>
</svg>
