<svg width="209" height="64" viewBox="0 0 209 64" fill="none" xmlns="http://www.w3.org/2000/svg">
<g clip-path="url(#clip0)">
<path d="M182.149 59.0364C181.424 60.3455 179.392 62.8182 175.908 62.8182H161.54C158.056 62.8182 156.024 60.3455 155.444 59.1818L136.14 19.6182C134.253 15.8364 130.19 14.6727 126.851 14.6727H91.5826C88.3896 14.6727 86.5028 16.7091 86.5028 19.7636C86.5028 22.9636 88.6799 24.8545 91.7278 24.8545H115.966C126.271 24.8545 134.834 31.1091 134.834 43.7636C134.834 56.4182 126.271 62.6727 115.966 62.6727H84.7611C82.0035 62.6727 79.5361 61.0727 79.5361 57.4364V50.6C79.5361 49.4364 80.2618 48.8545 81.2778 48.8545H108.999C111.902 48.8545 114.224 47.1091 114.224 43.7636C114.224 40.4182 111.902 38.6727 108.999 38.6727H82.8743C78.5201 38.6727 74.6014 37.5091 71.6986 35.6182C70.2472 52.3455 58.3458 62.6727 40.784 62.6727C40.784 62.6727 2.75764 62.6727 1.74167 62.6727C0.725695 62.6727 0 62.0909 0 60.9273V26.7455C0 25.5818 0.725695 25 1.74167 25H15.5299C19.1583 25 20.7549 27.3273 20.7549 30.0909V47.2545C20.7549 48.4182 21.4806 49 22.4965 49C26.125 49 34.3979 49 34.3979 49C43.8319 49 51.5243 43.3273 51.5243 31.8364C51.5243 20.3455 43.8319 14.6727 34.3979 14.6727H1.74167C0.870833 14.6727 0.145139 14.0909 0.145139 13.0727V6.23636C0.145139 2.30909 2.90278 1 5.37014 1H41.0743C51.0889 1 60.2326 4.78182 65.4576 11.6182C68.3604 4.63636 74.8917 1 83.0194 1H134.108C140.349 1 147.461 3.18182 151.235 10.4545L167.781 45.2182C167.926 45.5091 168.361 45.8 168.651 45.8C169.087 45.8 169.377 45.6545 169.522 45.3636C169.522 45.3636 189.987 2.30909 190.132 2.01818C190.277 1.58182 190.713 1 191.728 1C192.89 1 207.403 1 207.403 1C208.419 1 209.145 1.58182 209.145 2.74545C209.145 3.03636 209.145 3.32727 209 3.61818L182.149 59.0364Z" fill="#002664"/>
</g>
<defs>
<clipPath id="clip0">
<rect width="209" height="64" fill="white"/>
</clipPath>
</defs>
</svg>
