<svg id="a24c6935-a806-40c5-bd63-505f72976953" data-name="Layer 1" xmlns="http://www.w3.org/2000/svg" viewBox="0 0 432.00387 55.41127"><title>_logostentex</title><path d="M.02688,55.41127c-.00895-.28236-.02566-.56473-.02571-.84709Q-.001,44.06957,0,33.57493v-.92171c.39557-.02264.73653-.05916,1.0775-.05922q23.46273-.00423,46.92546-.00245,13.42748,0,26.85492.01141a4.47488,4.47488,0,0,0,3.28259-1.205,4.96487,4.96487,0,0,1,3.66834-1.32826c10.36495.03343,20.73007.018,31.09512.018h1.04336a6.46378,6.46378,0,0,1,.07161.66036q.00459,12.12006.00094,24.24011c0,.141-.016.28207-.0246.42311Z" style="fill:#a91b35"/><path d="M432.00387,48.19987q-1.30016.97055-2.60044,1.941c-.281.20967-.56308.41805-.94689.70286-4.81326-6.55547-9.5989-13.07328-14.469-19.70609-4.89559,6.62032-9.7179,13.1415-14.57818,19.714L395.808,48.35075c5.126-7.008,10.20945-13.95791,15.34383-20.97743C406.20824,20.605,401.28258,13.8613,396.3,7.03963l3.53669-2.77546c4.72875,6.48076,9.40251,12.88613,14.15177,19.39494,4.75109-6.4707,9.4429-12.86064,14.20076-19.34053l3.7597,2.49912c-5.04746,6.88207-10.032,13.6784-15.04916,20.51909.13094.20511.24376.40449.37774.58846q7.15764,9.82617,14.32044,19.64852c.12386.16991.27013.32349.40594.48469Z" style="fill:#777b80"/><path d="M113.96225.14027V25.25084c-.28541.01814-.53543.04785-.78545.04791q-16.01331.00345-32.02662.00817a3.31044,3.31044,0,0,1-2.45884-.89569A6.12484,6.12484,0,0,0,73.937,22.74728q-36.3745.06264-72.74919.02777H.08158V.17668C.57876-.02423,113.1014-.07674,113.96225.14027Z" style="fill:#777b80"/><path d="M263.34015,5.14531c.25537-.01407.48741-.0375.71946-.03792,1.72019-.00315,3.44072.01814,5.16036-.01274a1.24743,1.24743,0,0,1,1.24469.69554q6.31116,10.6373,12.6603,21.252,4.05476,6.79855,8.10368,13.6006c.69582,1.17492,1.32155,2.39132,1.98012,3.58831a1.861,1.861,0,0,0,.5193.65269V5.18h4.90979V50.22145c-.27.02341-.51924.063-.76862.06374-1.74375.00545-3.48788-.0174-5.231.01478a1.13059,1.13059,0,0,1-1.11639-.65771Q280.06275,30.38963,268.57846,11.152c-.14054-.23562-.28959-.46616-.48689-.78293V50.22419h-4.71842C263.16559,49.69107,263.11849,6.0186,263.34015,5.14531Z" style="fill:#777b80"/><path d="M248.43684,9.71074H224.80749v14.561h22.00709v4.543H224.79683V45.64487h23.749V50.215H219.71507V5.26735c.56828-.20372,27.95236-.23672,28.72177-.03346Z" style="fill:#777b80"/><path d="M361.63175,24.27766H383.579v4.53839c-2.392.04066-4.80553.01308-7.21824.018-2.45064.005-4.90125.00111-7.3519.00111H361.754c-.20765.53447-.28781,15.49314-.08869,16.82063,2.60165.01778,5.22766.00549,7.85333.00773q3.92338.00335,7.84677.00049h7.8758a15.36846,15.36846,0,0,1,.12894,4.459c-.53933.2188-28.0862.245-28.81046.01206V5.1717h28.70282V9.72065H361.63175Z" style="fill:#777b80"/><path d="M163.76124,5.15979V9.664c-.58585-.07122-1.13419-.12708-1.6792-.20586a64.99685,64.99685,0,0,0-12.192-.54489c-1.78117.0787-3.55419.34512-5.33024.53244a3.42135,3.42135,0,0,0-.479.12033,3.93164,3.93164,0,0,0-3.17324,3.53893,23.15846,23.15846,0,0,0,.08063,6.40521,3.365,3.365,0,0,0,1.76175,2.59726,19.95112,19.95112,0,0,0,3.28084,1.4572c3.32082,1.05514,6.69049,1.95808,10.00281,3.03786a62.93148,62.93148,0,0,1,6.182,2.39877,6.56858,6.56858,0,0,1,4.0508,5.47844,30.00808,30.00808,0,0,1,.08032,8.02468,8.4785,8.4785,0,0,1-5.7919,7.11471,20.19131,20.19131,0,0,1-5.99767,1.241c-2.30126.13391-4.61414.2054-6.91719.13861a46.6031,46.6031,0,0,1-10.12469-1.39917c-.22563-.05721-.44544-.13741-.71946-.223V44.968c.81592.16537,1.571.32512,2.32878.4709a58.10054,58.10054,0,0,0,13.352,1.02324,21.16248,21.16248,0,0,0,5.09951-.675,4.72863,4.72863,0,0,0,3.77544-4.47765,46.74657,46.74657,0,0,0-.02834-5.42443,3.66289,3.66289,0,0,0-2.24274-3.20312,27.432,27.432,0,0,0-3.67616-1.43932c-3.35361-1.03009-6.74959-1.92492-10.08921-2.99664a39.52954,39.52954,0,0,1-5.35738-2.17265,7.0101,7.0101,0,0,1-4.06109-6.11032,35.90283,35.90283,0,0,1-.01329-7.11357,8.25638,8.25638,0,0,1,6.36154-7.44284,27.61774,27.61774,0,0,1,6.403-1.01718,51.29844,51.29844,0,0,1,5.43516-.10785c2.93531.14942,5.86287.45276,8.793.69982A8.12561,8.12561,0,0,1,163.76124,5.15979Z" style="fill:#777b80"/><path d="M309.51,9.72383V5.16873h36.17285V9.70991c-1.28748.00663-2.56975.0158-3.852.01912-1.27233.0033-2.54468.00073-3.817.00073H330.2307c-.02527.40714-.06476.74769-.06483,1.08824q-.00477,19.15579-.00466,38.31158c-.00007.34549-.02952.691-.04795,1.09552h-5.112c-.00942-4.49643-.00307-8.96051-.00421-13.42449q-.00171-6.75046-.00028-13.50094V9.7367C319.80715,9.7183,314.691,9.74058,309.51,9.72383Z" style="fill:#777b80"/><path d="M208.85082,5.22788V9.71661H193.34929V50.21776h-5.13466v-40.49H172.71849v-4.456C173.22749,5.06836,207.95656,5.01417,208.85082,5.22788Z" style="fill:#777b80"/></svg>