<svg xmlns="http://www.w3.org/2000/svg" viewBox="0 0 69.36074 52.35334"><title>logo_auto-sale</title><g id="1905f979-a271-4c60-ac30-54aa260c71cc" data-name="Layer 42"><path d="M58.70353,47.86456,8.95384,51.50029a7.74664,7.74664,0,0,1-8.50152-6.746l-.42749-5.0426a7.547,7.547,0,0,1,7.27164-7.91047l49.74969-3.63573a7.74664,7.74664,0,0,1,8.50152,6.746l.42749,5.0426A7.547,7.547,0,0,1,58.70353,47.86456Z" style="fill:#74b641"/><path d="M3.12612,49.87878l1.95215-3.3125a6.23584,6.23584,0,0,0,4.31347,1.79981c1.59375-.12207,2.31739-.93555,2.22559-2.13965-.09863-1.27637-1.09082-1.61231-2.62305-2.22656L6.713,43.04382a6.11542,6.11542,0,0,1,1.7207-11.77051,7.217,7.217,0,0,1,5.63965,2.24122l-1.707,3.03613a5.02167,5.02167,0,0,0-3.6289-1.31934c-1.31739.10156-2.10547.82422-2.01661,1.9834.09571,1.24512,1.23633,1.61133,2.76465,2.20215l2.2334.88183a5.59832,5.59832,0,0,1,3.77539,5.25879,6.0982,6.0982,0,0,1-5.88476,6.77442A8.5354,8.5354,0,0,1,3.12612,49.87878Z" style="fill:#fff"/><path d="M22.71987,30.59167l4.57129-.35058L34.151,50.11316l-4.043.30957L27.11049,40.32312c-.625-1.99219-1.26074-4.35547-1.873-6.4375l-.1045.00879c-.24414,2.17285-.51367,4.5791-.82812,6.64355L22.87416,50.97742l-3.90625.2998Zm-.89649,12.02344,8.1294-.623.27344,3.5625-8.1294.623Z" style="fill:#fff"/><path d="M36.02993,29.57117l3.82031-.293L41.11,45.71081l6.669-.51074.29492,3.84571-10.48926.80371Z" style="fill:#fff"/><path d="M50.26528,28.4032l10.58691-.81153.294,3.84473-6.76758.51855.3125,4.07227,5.76172-.44141.29492,3.84375L54.986,39.871l.3584,4.67188,7.02734-.53907.29492,3.84571-10.84667.832Z" style="fill:#fff"/><path d="M7.61148,8.9776h4.51511L17.369,27.74421h-3.9941L11.19085,18.2403c-.4637-1.877-.90969-4.0957-1.35568-6.05371H9.73305c-.40326,1.98144-.84925,4.17676-1.313,6.05371L6.22663,27.74421H2.369Zm-1.786,10.999h8.03091V23.2735H5.82545Z" style="fill:#1c1c1b"/><path d="M20.13393,19.04792V8.9776h3.6978V19.48151c0,3.67481,1.00868,4.94531,2.83921,4.94531,1.83869,0,2.8974-1.2705,2.8974-4.94531V8.9776h3.56559V19.04792c0,6.30078-2.23226,9.042-6.463,9.042C22.43919,28.08991,20.13393,25.3487,20.13393,19.04792Z" style="fill:#1c1c1b"/><path d="M40.644,12.5362H36.21376V8.9776h12.5v3.5586H44.2835v15.208H40.644Z" style="fill:#1c1c1b"/><path d="M50.25185,18.27936c0-6.13086,2.88672-9.64746,7.10547-9.64746s7.10449,3.54,7.10449,9.64746c0,6.13184-2.88574,9.81055-7.10449,9.81055S50.25185,24.4112,50.25185,18.27936Zm10.58594,0c0-3.76269-1.34668-5.9834-3.48047-5.9834-2.13477,0-3.48047,2.22071-3.48047,5.9834s1.3457,6.14746,3.48047,6.14746C59.49111,24.42682,60.83779,22.04206,60.83779,18.27936Z" style="fill:#1c1c1b"/><path d="M59.95839,4.94141a4.707,4.707,0,1,1,9.40235,0,4.70558,4.70558,0,1,1-9.40235,0Zm8.40821,0a3.7203,3.7203,0,1,0-7.41406,0,3.7179,3.7179,0,1,0,7.41406,0ZM62.84316,2.334h1.9082c1.041,0,1.95508.42286,1.95508,1.61817A1.46639,1.46639,0,0,1,65.76113,5.333l1.1582,2.07031H65.7748l-.88867-1.74707H63.87441V7.40332H62.84316ZM64.515,4.85059c.66992,0,1.09179-.27735,1.09179-.83008,0-.499-.28125-.84375-1.02929-.84375h-.70313V4.85059Z" style="fill:#1c1c1b"/></g></svg>