<svg width="300" height="87" viewBox="0 0 300 87" fill="none" xmlns="http://www.w3.org/2000/svg">
<g clip-path="url(#clip0)">
<path d="M7.46883 32.3023C7.56162 32.4158 7.66592 32.5135 7.75944 32.6264C8.63151 29.6952 9.8159 26.8662 11.2923 24.1879C10.4101 22.8476 9.66808 21.4201 9.07803 19.928C7.36355 22.6546 5.9568 25.5629 4.88358 28.5996C5.64013 29.904 6.50492 31.1426 7.46883 32.3023Z" fill="#40792D"/>
<path d="M8.95954 60.6583C7.21086 59.0663 5.57488 57.3549 4.06342 55.5363C6.1305 62.5609 9.9451 68.9468 15.1507 74.0972C20.3563 79.2476 26.7829 82.9943 33.8299 84.9871C28.2089 82.9042 23.0894 79.6615 18.8045 75.4698C14.5195 71.2782 11.1651 66.2316 8.95954 60.6583V60.6583Z" fill="#40792D"/>
<path d="M5.17351 52.3862C5.70126 52.9576 6.313 53.5432 6.95828 54.133C6.25768 51.1365 5.88628 48.0726 5.85068 44.9956C5.85068 44.3868 5.94244 43.8026 5.96809 43.2C5.85902 43.0663 5.74297 42.9489 5.63419 42.8142C4.47423 41.2794 3.45257 39.6449 2.58117 37.9298C2.33662 39.714 2.20452 41.5117 2.18564 43.3124C2.21297 45.3345 2.38223 47.3521 2.69217 49.3504C3.3956 50.4574 4.2286 51.4765 5.17351 52.3862V52.3862Z" fill="#40792D"/>
<path d="M45.504 2.84288e-06C39.2786 -0.00225571 33.1263 1.34125 27.4688 3.93846C21.8112 6.53567 16.7821 10.3252 12.7262 15.0473C13.2725 16.4147 13.9664 17.7184 14.7957 18.9353C18.2335 14.4717 22.5245 10.7358 27.419 7.94491C32.3136 5.15397 37.7141 3.36359 43.3068 2.67785C48.8994 1.9921 54.5727 2.42467 59.9967 3.9504C65.4206 5.47613 70.4872 8.0646 74.9019 11.5653C66.9191 4.13002 56.4138 -0.00281162 45.504 2.84288e-06V2.84288e-06Z" fill="#40792D"/>
<path d="M150.609 68.4655L149.226 72.5238H132.344L133.466 68.7717H114.314C111.937 68.9632 109.563 68.3816 107.544 67.1137C104.502 65.1052 105.057 60.6588 106.056 56.4974C107.408 50.8655 109.039 45.2871 110.624 39.7067C111.046 36.9978 112.495 34.5556 114.671 32.888C116.848 31.2203 119.583 30.4556 122.309 30.7528C143.386 30.7002 162.905 30.7331 183.712 30.7331C190.096 30.7331 190.265 35.485 189.256 39.1855C187.437 45.8523 185.582 52.513 183.544 59.1153C183.053 62.0446 181.438 64.6669 179.044 66.4255C176.65 68.1841 173.665 68.9404 170.722 68.534C164.378 68.6379 150.609 68.4655 150.609 68.4655ZM151.67 63.3318C154.447 63.3318 156.472 63.3318 158.497 63.3318C159.177 63.3318 159.859 63.3641 160.536 63.3276C162.228 63.4864 163.918 62.9983 165.264 61.9615C166.611 60.9248 167.514 59.4165 167.793 57.7403C169.396 52.8107 170.717 48.3788 171.745 44.3332C172.382 41.8301 174.683 36.6567 171.245 36.2916H158.906L151.67 63.3318ZM121.679 57.6846C121.679 58.5193 120.492 60.331 121.193 61.6255C122.339 63.7399 127.143 63.345 134.7 63.2975C137.08 54.7194 139.756 45.5143 142.286 36.395C137.886 36.395 135.1 36.2916 130.353 36.2916C128.985 36.2916 127.683 37.4578 126.862 39.6789C124.355 46.4577 122.276 55.4457 121.679 57.6846H121.679Z" fill="#467D34"/>
<path d="M299.128 32.9185C300.302 36.4469 300.131 40.2845 298.648 43.6947C297.116 49.6954 295.877 53.9525 294.412 59.4352C293.745 61.9896 292.263 64.2569 290.191 65.8938C288.119 67.5308 285.571 68.4481 282.931 68.5069C272.503 68.6549 262.072 68.4907 251.642 68.5022C247.727 68.5064 242.313 66.3611 243.061 61.9257C244.884 54.5795 246.413 48.3268 248.319 40.7729C248.643 38.0472 249.955 35.5347 252.006 33.7105C254.058 31.8863 256.706 30.8768 259.452 30.8729C272.604 30.8729 279.785 30.8267 293.587 30.9171C294.603 30.7976 295.632 30.9162 296.594 31.2636C297.555 31.611 298.423 32.1776 299.128 32.9185V32.9185ZM265.632 39.9274C263.631 47.0226 262.147 52.1373 260.425 60.1138C260.346 60.4952 260.351 60.8893 260.439 61.2687C260.528 61.6481 260.697 62.0037 260.937 62.311C261.176 62.6183 261.48 62.8699 261.826 63.0484C262.172 63.2268 262.553 63.3278 262.942 63.3445C267.86 63.5271 268.122 63.3449 273.552 63.3449C274.43 63.2945 275.278 63.0088 276.007 62.5177C276.737 62.0266 277.32 61.3483 277.697 60.5539C280.263 53.2771 282.395 45.8543 284.081 38.3247C284.112 38.0733 284.091 37.8183 284.02 37.5752C283.949 37.3321 283.829 37.1059 283.668 36.9106C283.507 36.7152 283.308 36.5547 283.083 36.4388C282.857 36.3228 282.611 36.254 282.358 36.2364C279.602 36.1205 275.045 36.1539 270.273 36.2895C269.212 36.3219 268.19 36.6924 267.355 37.3469C266.52 38.0013 265.917 38.9055 265.632 39.9274V39.9274Z" fill="#467D34"/>
<path d="M202.96 68.303H186.702L196.808 30.8507C203.391 30.7763 211.669 29.9816 212.218 33.6968C211.916 37.5417 211.038 41.3195 209.614 44.9037C219 40.1947 227.187 35.1225 234.856 30.9537H245.564C239.075 34.8995 232.832 38.9041 226.758 42.5978C231.693 51.4735 241.649 68.3413 241.649 68.3413H224.008L213.569 50.2542C213.569 50.2542 209.442 52.0115 207.397 53.2112C205.928 57.8841 202.96 68.303 202.96 68.303Z" fill="#467D34"/>
<path d="M59.0092 52.634L60.4336 47.09H86.8152L88.9049 38.7787C89.2949 36.0422 85.1469 36.1573 82.9071 36.1573C75.6557 36.1573 61.9851 36.2911 61.9851 36.2911H56.3601L58.0554 30.8101L73.2018 30.8105C73.2018 30.8105 90.1807 30.7772 97.675 30.7784C100.603 30.7788 104.501 32.0573 105.035 34.2662C105.419 37.4491 105.075 40.6775 104.03 43.7083C102.781 48.948 101.15 54.9493 99.5419 60.5234C99.0287 62.8757 97.7123 64.9759 95.8189 66.4635C93.9255 67.951 91.5732 68.7329 89.166 68.6751C75.6157 68.8493 47.9786 68.7333 47.9786 68.7333L49.5349 63.4049C49.5349 63.4049 69.5675 63.3413 79.5229 63.3413C82.5882 63.0686 82.3938 63.3444 84.9125 52.634H59.0092Z" fill="#467D34"/>
<path d="M4.10007 33.0845C2.6942 30.297 2.07321 27.1797 2.30361 24.0663C2.53402 20.9529 3.60715 17.9609 5.40805 15.4106C4.89593 17.6929 4.98845 20.0693 5.67647 22.3048C6.36448 24.5403 7.62416 26.5576 9.33095 28.1571C18.6408 38.7776 30.9744 46.2997 44.6795 49.7156C41.6234 53.8093 38.4906 58.1617 36.8772 59.8366C25.4866 55.3128 15.3929 48.0405 7.49636 38.6684C6.16879 36.9332 5.03025 35.0613 4.10007 33.0845V33.0845Z" fill="#467D34"/>
<path d="M39.0052 32.5308C22.9267 25.2019 15.0517 16.4994 13.9417 9.00757C13.6777 7.58522 13.7429 6.12133 14.1323 4.72807C14.5216 3.3348 15.2248 2.04915 16.1879 0.969604C13.9014 2.07323 12.0584 3.92163 10.9615 6.21112C9.86464 8.50061 9.57922 11.095 10.1521 13.5682C11.6957 23.4288 23.9273 32.8903 30.1486 36.4645C33.0906 38.1548 40.8707 42.1794 40.8707 42.1794L46.5557 35.3677C46.5557 35.3677 39.656 32.8274 39.0052 32.5308Z" fill="#C1CCC9"/>
<path d="M6.41475 50.5245C13.5975 56.8575 21.5185 62.3005 30.006 66.7353L26.7828 70.6525C22.5408 68.277 18.4971 65.5637 14.6911 62.5387C10.674 59.588 7.0868 56.093 4.03271 52.1541C1.00684 48.245 -0.381803 43.3134 0.159802 38.4C1.11726 42.9301 3.278 47.1184 6.41475 50.5245V50.5245Z" fill="#C1CCC9"/>
<path d="M151.552 79.3962H155.93L155.768 80.1682H152.282L151.006 86.1723H150.119L151.552 79.3962Z" fill="#467D34"/>
<path d="M157.481 86.1724L158.9 79.3963H161.729C162.104 79.3771 162.479 79.4347 162.831 79.5658C163.089 79.6897 163.302 79.8912 163.439 80.1421C163.601 80.4208 163.684 80.7381 163.68 81.0603C163.677 81.3536 163.619 81.6437 163.509 81.9154C163.41 82.1787 163.264 82.4216 163.078 82.6319C162.925 82.8017 162.746 82.9453 162.547 83.0571C162.367 83.1533 162.174 83.2249 161.974 83.2698C161.542 83.3711 161.1 83.4223 160.657 83.4223H158.96L158.387 86.1724H157.481ZM159.122 82.655H160.615C161.048 82.6782 161.482 82.6148 161.891 82.4685C162.159 82.3454 162.385 82.1468 162.543 81.8969C162.702 81.6554 162.787 81.3726 162.788 81.0834C162.795 80.8937 162.751 80.7054 162.658 80.5396C162.572 80.4008 162.444 80.2929 162.293 80.2314C161.999 80.147 161.692 80.1131 161.387 80.1313H159.649L159.122 82.655Z" fill="#467D34"/>
<path d="M166.408 79.3962H167.319L168.895 83.6764L171.489 79.3962H172.45L168.868 85.1463C168.685 85.4528 168.462 85.7327 168.204 85.9782C167.998 86.1663 167.728 86.2688 167.449 86.2648C167.31 86.2648 167.056 86.2432 166.686 86.2001L166.436 86.1723L166.598 85.3912C167.054 85.4652 167.302 85.5022 167.342 85.5021C167.595 85.5021 167.868 85.2664 168.16 84.7949L168.304 84.5638L166.408 79.3962Z" fill="#467D34"/>
<path d="M174.894 86.1723L176.313 79.3962H181.634L180.219 86.1723H179.313L180.594 80.1682H177.081L175.8 86.1723H174.894Z" fill="#467D34"/>
<path d="M184.373 86.1723L185.792 79.3962H191.113L189.698 86.1723H188.792L190.073 80.1682H186.559L185.279 86.1723H184.373Z" fill="#467D34"/>
<path d="M193.725 86.1723L197.566 79.3962H198.634L199.753 86.1723H198.875L198.546 84.2218H195.805L194.719 86.1723H193.725ZM196.193 83.5239H198.435L198.172 81.8229C198.07 81.1481 198.007 80.5857 197.982 80.1358C197.786 80.6101 197.561 81.0717 197.307 81.5178L196.193 83.5239Z" fill="#467D34"/>
<path d="M210.926 79.3964H211.837L211.203 82.3824C211.435 82.3909 211.666 82.3521 211.883 82.2683C212.099 82.1618 212.289 82.0081 212.438 81.8184C212.665 81.5452 212.866 81.2512 213.038 80.9402C213.245 80.5457 213.485 80.1704 213.758 79.8186C213.906 79.6554 214.093 79.5316 214.3 79.4581C214.502 79.3855 214.715 79.3475 214.929 79.3456C214.957 79.3456 215.134 79.3579 215.461 79.3826L215.304 80.136L215.133 80.1221C215.006 80.1067 214.921 80.099 214.878 80.099C214.799 80.099 214.72 80.115 214.647 80.1459C214.574 80.1769 214.508 80.2223 214.453 80.2793C214.267 80.4805 214.107 80.7041 213.977 80.9449C213.725 81.41 213.423 81.8464 213.077 82.2468C212.859 82.475 212.579 82.6346 212.271 82.7059C212.869 83.0462 213.308 83.6097 213.492 84.2728L214.259 86.1725H213.265L212.622 84.5874C212.465 84.1321 212.232 83.7065 211.934 83.3286C211.702 83.1054 211.391 82.9831 211.069 82.9881L210.39 86.1728H209.48L210.926 79.3964Z" fill="#467D34"/>
<path d="M218.689 83.3345C218.642 82.2577 219.018 81.2052 219.736 80.4011C220.055 80.0439 220.447 79.7592 220.885 79.566C221.323 79.3728 221.798 79.2756 222.277 79.281C222.659 79.267 223.04 79.333 223.396 79.475C223.751 79.6169 224.073 79.8316 224.34 80.1053C224.613 80.4028 224.824 80.7516 224.961 81.1314C225.098 81.5112 225.159 81.9145 225.138 82.3178C225.144 82.9519 225.006 83.5791 224.736 84.1528C224.548 84.5578 224.292 84.9273 223.978 85.2451C223.695 85.5369 223.363 85.7772 222.998 85.9554C222.539 86.1764 222.037 86.2902 221.528 86.2882C221.008 86.2944 220.496 86.1603 220.047 85.8999C219.607 85.6492 219.254 85.2717 219.033 84.8168C218.804 84.3563 218.687 83.8486 218.689 83.3345V83.3345ZM219.582 83.3808C219.577 83.7601 219.662 84.1353 219.828 84.4762C219.99 84.8051 220.247 85.0775 220.566 85.2574C220.879 85.4414 221.235 85.5388 221.597 85.5393C221.944 85.5402 222.285 85.455 222.591 85.2912C222.915 85.12 223.201 84.8865 223.434 84.6041C223.697 84.282 223.897 83.9129 224.023 83.5163C224.162 83.1079 224.234 82.6797 224.237 82.2483C224.266 81.6574 224.063 81.0783 223.671 80.6352C223.494 80.4414 223.278 80.2876 223.036 80.184C222.795 80.0804 222.535 80.0294 222.272 80.0343C221.912 80.0388 221.557 80.1225 221.232 80.2796C220.908 80.4367 220.622 80.6633 220.395 80.9433C219.826 81.624 219.535 82.4947 219.582 83.3808V83.3808Z" fill="#467D34"/>
<path d="M229.26 86.1723L230.674 79.3962H231.788L232.472 83.7873C232.559 84.3371 232.618 84.8909 232.648 85.4467C232.926 84.8112 233.241 84.1923 233.591 83.5932L235.967 79.3962H237.1L235.685 86.1723H234.793L235.5 82.8767C235.664 82.1156 235.898 81.2621 236.203 80.3161C236.009 80.7567 235.769 81.2313 235.482 81.7397L232.958 86.1723H232.084L231.404 81.8275C231.336 81.3663 231.292 80.902 231.27 80.4363C231.193 81.031 231.118 81.5024 231.044 81.8506L230.142 86.1723H229.26Z" fill="#467D34"/>
<path d="M240.434 86.1723L241.853 79.3962H247.174L245.759 86.1723H244.853L246.134 80.1682H242.621L241.34 86.1723H240.434Z" fill="#467D34"/>
<path d="M249.397 86.1723L253.239 79.3962H254.307L255.425 86.1723H254.547L254.219 84.2218H251.477L250.391 86.1723H249.397ZM251.865 83.5239H254.108L253.844 81.8229C253.742 81.1481 253.679 80.5857 253.654 80.1358C253.459 80.6101 253.233 81.0717 252.98 81.5178L251.865 83.5239Z" fill="#467D34"/>
<path d="M259.448 86.1723L260.867 79.3962H261.769L261.182 82.2111H264.695L265.282 79.3962H266.188L264.774 86.1723H263.868L264.533 82.9784H261.025L260.354 86.1723H259.448Z" fill="#467D34"/>
<path d="M270.808 79.3962H271.673L270.568 84.6008L275.214 79.3962H276.064L274.613 86.1723H273.753L274.863 81.0048L270.23 86.1723H269.352L270.808 79.3962Z" fill="#467D34"/>
<path d="M280.328 79.3962H281.192L280.087 84.6008L284.733 79.3962H285.584L284.132 86.1723H283.273L284.382 81.0048L279.75 86.1723H278.872L280.328 79.3962ZM281.742 77.8108H282.288C282.303 77.9963 282.383 78.1706 282.514 78.3023C282.654 78.4141 282.83 78.4696 283.009 78.4579C283.214 78.4628 283.416 78.4029 283.585 78.2869C283.751 78.1662 283.88 78.0012 283.957 77.8108H284.511C284.421 78.1578 284.221 78.4661 283.94 78.689C283.667 78.9037 283.328 79.0179 282.981 79.0124C282.821 79.0186 282.662 78.9931 282.512 78.9373C282.362 78.8815 282.224 78.7965 282.107 78.6873C281.876 78.454 281.745 78.1394 281.742 77.8108V77.8108Z" fill="#467D34"/>
</g>
<defs>
<clipPath id="clip0">
<rect width="300" height="86.2876" fill="white"/>
</clipPath>
</defs>
</svg>
