<svg width="153" height="115" viewBox="0 0 153 115" fill="none" xmlns="http://www.w3.org/2000/svg">
<g clip-path="url(#clip0)">
<path d="M129.491 105.14L19.7507 113.126C15.2986 113.595 10.8397 112.305 7.33274 109.534C3.82581 106.763 1.55101 102.732 0.997534 98.3078L0.0545512 87.2312C-0.0530226 85.038 0.278038 82.8453 1.02851 80.7805C1.77898 78.7157 2.93391 76.82 4.42622 75.2034C5.91854 73.5867 7.71851 72.2815 9.72161 71.3633C11.7247 70.4452 13.891 69.9325 16.0948 69.855L125.836 61.8687C130.288 61.4001 134.747 62.69 138.253 65.4611C141.76 68.2322 144.035 72.2631 144.589 76.687L145.532 87.7637C145.639 89.9569 145.308 92.1496 144.558 94.2144C143.807 96.2792 142.652 98.1749 141.16 99.7915C139.668 101.408 137.868 102.713 135.865 103.632C133.862 104.55 131.695 105.062 129.491 105.14V105.14Z" fill="#74B641"/>
<path d="M6.89577 109.564L11.2019 102.288C13.7389 104.784 17.1504 106.202 20.7168 106.242C24.2324 105.973 25.8287 104.187 25.6262 101.542C25.4086 98.7379 23.22 98 19.8401 96.6507L14.8079 94.5506C11.9918 93.4311 9.63652 91.3994 8.12222 88.7833C6.60791 86.1673 6.02286 83.1195 6.46147 80.1317C6.90009 77.1439 8.33679 74.3904 10.5397 72.3155C12.7427 70.2405 15.5834 68.9652 18.6035 68.6953C20.9117 68.5673 23.2202 68.9413 25.3686 69.7915C27.5169 70.6417 29.4535 71.9476 31.0438 73.6184L27.2784 80.2876C26.2022 79.3025 24.9408 78.5392 23.5669 78.0418C22.193 77.5444 20.7339 77.3227 19.2736 77.3895C16.3676 77.6126 14.6292 79.2 14.8252 81.7463C15.0363 84.4814 17.5524 85.2858 20.9236 86.5836L25.8502 88.5206C28.2688 89.35 30.3691 90.9069 31.8609 92.9761C33.3527 95.0454 34.1624 97.5249 34.1782 100.072C34.3852 101.913 34.2066 103.777 33.6536 105.545C33.1006 107.314 32.1852 108.949 30.9653 110.348C29.7453 111.746 28.2474 112.877 26.5661 113.67C24.8848 114.463 23.0567 114.9 21.1972 114.953C18.5675 115.101 15.9359 114.698 13.4724 113.769C11.009 112.841 8.76848 111.409 6.89577 109.564V109.564Z" fill="white"/>
<path d="M50.1168 67.1981L60.2004 66.428L75.3323 110.079L66.414 110.759L59.8019 88.5743C58.4232 84.1982 57.0209 79.007 55.6703 74.4336L55.4398 74.4529C54.9013 79.2258 54.3067 84.5114 53.6131 89.0462L50.4572 111.978L41.8405 112.636L50.1168 67.1981ZM48.1393 93.6089L66.0716 92.2404L66.6748 100.066L48.7424 101.434L48.1393 93.6089Z" fill="white"/>
<path d="M79.477 64.9564L87.904 64.3127L90.6829 100.409L105.394 99.287L106.044 107.735L82.9065 109.5L79.477 64.9564Z" fill="white"/>
<path d="M110.878 62.3908L134.231 60.6082L134.88 69.0536L119.952 70.1927L120.641 79.1379L133.35 78.1682L134.001 86.6115L121.291 87.5811L122.082 97.8435L137.583 96.6593L138.234 105.107L114.308 106.934L110.878 62.3908Z" fill="white"/>
<path d="M16.7898 19.7203H26.7495L38.3136 60.9433H29.5031L24.6854 40.0669C23.6626 35.9438 22.6788 31.0702 21.695 26.7692H21.4697C20.5802 31.1217 19.5964 35.9439 18.5734 40.0669L13.7351 60.9433H5.22568L16.7898 19.7203ZM12.8502 43.8808H30.5652V51.1229H12.8501L12.8502 43.8808Z" fill="#1C1C1B"/>
<path d="M44.4126 41.8409V19.7203H52.5694V42.7933C52.5694 50.8655 54.7944 53.6563 58.8323 53.6563C62.8882 53.6563 65.2236 50.8655 65.2236 42.7933V19.7203H73.0888V41.8409C73.0888 55.6813 68.1647 61.7027 58.8323 61.7027C49.4977 61.7026 44.4126 55.6813 44.4126 41.8409Z" fill="#1C1C1B"/>
<path d="M89.6549 27.5372H79.8824V19.7203H107.456V27.5372H97.6832V60.9433H89.6549V27.5372Z" fill="#1C1C1B"/>
<path d="M110.848 40.1527C110.848 26.6855 117.216 18.9609 126.522 18.9609C135.828 18.9609 142.194 26.7369 142.194 40.1527C142.194 53.6219 135.828 61.7027 126.522 61.7027C117.216 61.7027 110.848 53.6219 110.848 40.1527ZM134.2 40.1527C134.2 31.8875 131.229 27.0095 126.522 27.0095C121.813 27.0095 118.845 31.8875 118.845 40.1527C118.845 48.4178 121.813 53.6563 126.522 53.6563C131.229 53.6563 134.2 48.4179 134.2 40.1527Z" fill="#1C1C1B"/>
<path d="M132.26 10.8544C132.19 9.45499 132.406 8.05606 132.896 6.74252C133.385 5.42897 134.138 4.22821 135.108 3.21315C136.078 2.19809 137.244 1.38991 138.538 0.83767C139.831 0.285434 141.223 0.000671387 142.63 0.000671387C144.037 0.000671387 145.429 0.285434 146.722 0.83767C148.015 1.38991 149.182 2.19809 150.152 3.21315C151.122 4.22821 151.875 5.42897 152.364 6.74252C152.854 8.05606 153.07 9.45499 153 10.8544C153.061 12.2481 152.837 13.6396 152.343 14.9451C151.85 16.2506 151.096 17.443 150.127 18.4506C149.158 19.4581 147.994 20.2599 146.706 20.8077C145.417 21.3554 144.031 21.6378 142.63 21.6378C141.229 21.6378 139.843 21.3554 138.554 20.8077C137.266 20.2599 136.102 19.4581 135.133 18.4506C134.164 17.443 133.41 16.2506 132.916 14.9451C132.423 13.6396 132.199 12.2481 132.26 10.8544V10.8544ZM150.807 10.8544C150.903 9.72709 150.763 8.59229 150.395 7.52179C150.028 6.4513 149.441 5.46843 148.673 4.63541C147.904 3.80239 146.97 3.13738 145.93 2.68248C144.89 2.22757 143.766 1.99268 142.63 1.99268C141.494 1.99268 140.37 2.22757 139.33 2.68248C138.29 3.13738 137.356 3.80239 136.587 4.63541C135.819 5.46843 135.232 6.4513 134.865 7.52179C134.497 8.59229 134.357 9.72709 134.453 10.8544C134.366 11.9761 134.514 13.1036 134.886 14.166C135.257 15.2284 135.846 16.2028 136.613 17.0282C137.381 17.8535 138.312 18.512 139.347 18.9624C140.383 19.4127 141.5 19.6452 142.63 19.6452C143.76 19.6452 144.877 19.4127 145.913 18.9624C146.948 18.512 147.879 17.8535 148.647 17.0282C149.414 16.2028 150.002 15.2284 150.374 14.166C150.746 13.1036 150.893 11.9761 150.807 10.8544V10.8544ZM138.623 5.12688H142.832C145.129 5.12688 147.145 6.05574 147.145 8.68137C147.15 9.33839 146.952 9.98107 146.58 10.5232C146.207 11.0654 145.677 11.4811 145.06 11.7145L147.615 16.2622H145.09L143.13 12.4246H140.898V16.2622H138.623V5.12688ZM142.311 10.6549C143.789 10.6549 144.719 10.0456 144.719 8.83149C144.719 7.73538 144.099 6.9781 142.449 6.9781H140.898V10.6549H142.311Z" fill="#1C1C1B"/>
</g>
<defs>
<clipPath id="clip0">
<rect width="153" height="115" fill="white"/>
</clipPath>
</defs>
</svg>
