<svg xmlns="http://www.w3.org/2000/svg" viewBox="0 0 150.3146 48.35562"><title>logo_fumigatcion</title><g id="4d1244ac-29d1-4a14-b74e-82381ecbe08e" data-name="Layer 41"><path d="M0,41.12464c.575-3.274.93938-4.80192,2.58743-6.73888,2.57951-3.0317,5.96568-4.03182,9.81881-3.791.46814.02926.93465.08416,1.40235.12173a2.74547,2.74547,0,0,0,.70505.079,5.51181,5.51181,0,0,0-1.04216-1.472,23.42988,23.42988,0,0,1-4.739-10.91856,13.87034,13.87034,0,0,1,1.36-8.06147,38.32847,38.32847,0,0,1,6.9-9.67839A8.40648,8.40648,0,0,0,17.80291,0s1.1119.702,1.67206,1.11005c5.76457,4.1987,8.63615,9.69165,8.19459,16.80193A15.37693,15.37693,0,0,1,22.1607,28.56789a13.14135,13.14135,0,0,1-3.02628,2.09635,14.3912,14.3912,0,0,1,4.49665.31242,6.578,6.578,0,0,1,4.95323,6.3041,20.59437,20.59437,0,0,1-.26843,3.89768s-1.38979.02693-3.64219.037c-2.63637-.11743-5.06082-.57343-6.83292-2.73527a2.28182,2.28182,0,0,0-.362-.44945c-.08459-.05329-.35112-.8508-.48964-.89482-.41876,1.02831-.6266,1.78-.825,2.41083A11.195,11.195,0,0,1,10.206,46.81941a16.07869,16.07869,0,0,1-7.77573,1.52828,5.69869,5.69869,0,0,1-1.80295-.32311A26.04468,26.04468,0,0,1,0,41.12464Z" style="fill:#00d000"/><path d="M50.176,12.69159H48.81644V3.54078h-5.058v9.15081H42.40594V2.43479H50.176Z" style="fill:#5a5a5a"/><path d="M55.59325,12.83248a3.33012,3.33012,0,0,1-2.52193-1.01793,3.77784,3.77784,0,0,1-.97214-2.7227V8.85233A4.57018,4.57018,0,0,1,52.53257,6.827a3.37648,3.37648,0,0,1,1.21165-1.39481,3.04644,3.04644,0,0,1,1.687-.50369,2.85508,2.85508,0,0,1,2.3106.97919,4.23979,4.23979,0,0,1,.8242,2.80371v.54243H53.40241a2.709,2.709,0,0,0,.65851,1.821,2.07079,2.07079,0,0,0,1.60278.69388,2.26934,2.26934,0,0,0,1.16938-.28178,2.93516,2.93516,0,0,0,.8383-.74672l.796.61992A3.20031,3.20031,0,0,1,55.59325,12.83248Zm-.162-6.83317a1.73851,1.73851,0,0,0-1.32437.57413,2.79147,2.79147,0,0,0-.66218,1.60967H57.2628V8.08448a2.48232,2.48232,0,0,0-.53538-1.53922A1.63695,1.63695,0,0,0,55.43123,5.99931Z" style="fill:#5a5a5a"/><path d="M66.51224,8.96505a4.563,4.563,0,0,1-.796,2.80371,2.55143,2.55143,0,0,1-2.15562,1.06372,2.795,2.795,0,0,1-2.1838-.88056V15.6221H60.07356V5.06943h1.19052l.0634.84534a2.685,2.685,0,0,1,2.212-.98623,2.59964,2.59964,0,0,1,2.17339,1.03555,4.61461,4.61461,0,0,1,.7994,2.8812ZM65.209,8.81711a3.36779,3.36779,0,0,0-.54947-2.03586A1.77041,1.77041,0,0,0,63.152,6.03453a1.91587,1.91587,0,0,0-1.77522,1.04963v3.642a1.91951,1.91951,0,0,0,1.78931,1.04259,1.762,1.762,0,0,0,1.49006-.7432A3.67739,3.67739,0,0,0,65.209,8.81711Z" style="fill:#5a5a5a"/><path d="M68.28745,12.69159V5.06943h2.816a4.27212,4.27212,0,0,1,2.3354.53186,1.74714,1.74714,0,0,1,.81349,1.56036,1.56029,1.56029,0,0,1-.317.95453,1.96328,1.96328,0,0,1-.93692.65162,2.07125,2.07125,0,0,1,1.10936.634,1.63942,1.63942,0,0,1,.4193,1.12713,1.85789,1.85789,0,0,1-.77153,1.60614,3.67872,3.67872,0,0,1-2.18012.55652Zm1.30324-4.38873h1.52682q1.83173,0,1.83157-1.07076,0-1.0707-1.73295-1.106H69.59069Zm0,1.04259V11.642h1.9988a2.03172,2.03172,0,0,0,1.22207-.30292,1.00225,1.00225,0,0,0,.40521-.85238q0-1.14122-1.67659-1.14121Z" style="fill:#5a5a5a"/><path d="M80.95868,12.69159a2.73664,2.73664,0,0,1-.18316-.80307,2.90724,2.90724,0,0,1-2.1697.944,2.69085,2.69085,0,0,1-1.84934-.63753,2.063,2.063,0,0,1-.72191-1.61671,2.15512,2.15512,0,0,1,.90507-1.84919,4.269,4.269,0,0,1,2.54674-.65866h1.268V7.47161a1.46444,1.46444,0,0,0-.40858-1.08838,1.642,1.642,0,0,0-1.20461-.40506,1.90041,1.90041,0,0,0-1.16939.35223,1.03836,1.03836,0,0,0-.472.85239H76.18955a1.79836,1.79836,0,0,1,.40521-1.10247A2.76314,2.76314,0,0,1,77.6937,5.2385a3.69712,3.69712,0,0,1,1.525-.31,3.01355,3.01355,0,0,1,2.064.65866,2.37625,2.37625,0,0,1,.77489,1.814v3.50816a4.28653,4.28653,0,0,0,.26769,1.66955v.11271ZM78.796,11.69831a2.2904,2.2904,0,0,0,1.16234-.317,1.918,1.918,0,0,0,.796-.82421V8.99322H79.73294q-2.395,0-2.39514,1.40186a1.18657,1.18657,0,0,0,.40859.95805A1.57014,1.57014,0,0,0,78.796,11.69831Z" style="fill:#5a5a5a"/><path d="M89.76952,5.06943v7.62216H88.45924V9.72585h-1.8086l-1.79635,2.96574h-1.4089l1.91611-3.163a2.27625,2.27625,0,0,1-1.12376-.82773,2.22732,2.22732,0,0,1-.39081-1.30676A2.06166,2.06166,0,0,1,84.62887,5.714a3.24064,3.24064,0,0,1,2.09222-.64458ZM85.15721,7.40821a1.14939,1.14939,0,0,0,.3804.89817,1.47566,1.47566,0,0,0,1.00736.34871h1.91427v-2.529h-1.717a1.756,1.756,0,0,0-1.1553.35575A1.14606,1.14606,0,0,0,85.15721,7.40821Z" style="fill:#5a5a5a"/><path d="M47.40754,19.30179h.21838a4.32878,4.32878,0,0,1,2.12039.54242A3.81432,3.81432,0,0,1,51.23607,21.32a4.1953,4.1953,0,0,1,.532,2.10278,4.24778,4.24778,0,0,1-.53538,2.1204,3.8196,3.8196,0,0,1-1.47934,1.48287,4.31073,4.31073,0,0,1-2.09927.546h-.24655v1.53754H46.09726V27.572H45.9a4.3175,4.3175,0,0,1-2.13785-.53539,3.79713,3.79713,0,0,1-1.49344-1.47934,4.49156,4.49156,0,0,1,0-4.24079,3.79912,3.79912,0,0,1,1.49344-1.47935A4.31919,4.31919,0,0,1,45.9,19.30179h.19725V17.85062h1.31028ZM45.9,20.36551a2.74921,2.74921,0,0,0-2.09559.81364,3.14875,3.14875,0,0,0-.77152,2.25776,3.14355,3.14355,0,0,0,.76785,2.25777,2.778,2.778,0,0,0,2.11335.80659h.18316V20.36551Zm1.50753,0v6.13576h.19724a2.70706,2.70706,0,0,0,2.10294-.82773,3.20714,3.20714,0,0,0,.75713-2.25072,3.17343,3.17343,0,0,0-.75713-2.23311,2.74937,2.74937,0,0,0-2.13112-.8242Z" style="fill:#00d000"/><path d="M56.70322,26.77784l1.77522-5.71309h1.39481l-3.06436,8.79859q-.71164,1.902-2.26129,1.902l-.24656-.02114-.48607-.09158V30.596l.35223.02818a1.73474,1.73474,0,0,0,1.03217-.2677,1.93852,1.93852,0,0,0,.6092-.97918l.28882-.7749-2.71918-7.53762h1.423Z" style="fill:#00d000"/><path d="M65.58114,26.961l2.59237-5.89625H69.8008v7.62216H68.49756v-5.544l-2.46558,5.544h-.90169L62.6154,23.02312v5.66379H61.31217V21.06475h1.69068Z" style="fill:#00d000"/><path d="M76.82417,21.06475H78.1274v7.62216H76.82417V23.12879L73.309,28.68691H72.00573V21.06475H73.309v5.56516Z" style="fill:#00d000"/><path d="M85.14373,22.14256H81.62852v6.54435H80.31824V21.06475h4.82549Z" style="fill:#00d000"/><path d="M90.97658,28.68691a2.73938,2.73938,0,0,1-.18316-.80308,2.90725,2.90725,0,0,1-2.1697.944,2.69094,2.69094,0,0,1-1.84934-.63768,2.06248,2.06248,0,0,1-.72191-1.61657,2.15512,2.15512,0,0,1,.90507-1.84918,4.26891,4.26891,0,0,1,2.54674-.65866h1.268v-.59878a1.46441,1.46441,0,0,0-.40858-1.08838,1.642,1.642,0,0,0-1.20461-.40506,1.90041,1.90041,0,0,0-1.16939.35223,1.03834,1.03834,0,0,0-.472.85238H86.20745a1.79833,1.79833,0,0,1,.40521-1.10246,2.763,2.763,0,0,1,1.09895-.84182,3.697,3.697,0,0,1,1.525-.31,3.01355,3.01355,0,0,1,2.064.65866,2.37623,2.37623,0,0,1,.77489,1.814v3.50817a4.28648,4.28648,0,0,0,.26769,1.66954v.11272Zm-2.16266-.99328a2.29049,2.29049,0,0,0,1.16234-.317,1.918,1.918,0,0,0,.796-.82421V24.98854H89.75084q-2.395,0-2.39514,1.40186a1.18657,1.18657,0,0,0,.40859.95805A1.57014,1.57014,0,0,0,88.81392,27.69363Z" style="fill:#00d000"/><path d="M94.23114,21.06475h1.31028v6.55844h3.665V21.06475h1.30324v6.55844h.90874l-.1268,3.325h-1.16939V28.68691H94.23114Z" style="fill:#00d000"/><path d="M108.22184,21.06475h1.30323v7.62216h-1.30323V23.12879l-3.672,5.55812h-1.30323V21.06475h1.30323v5.56516Z" style="fill:#00d000"/><path d="M111.27211,24.80538a4.50355,4.50355,0,0,1,.44013-2.01473,3.28774,3.28774,0,0,1,1.22574-1.38072,3.33716,3.33716,0,0,1,1.793-.48607,3.2135,3.2135,0,0,1,2.51826,1.07781,4.14534,4.14534,0,0,1,.96173,2.86711v.09158a4.53926,4.53926,0,0,1-.42635,1.99712,3.23521,3.23521,0,0,1-1.21839,1.3772,3.37691,3.37691,0,0,1-1.82116.49312A3.20731,3.20731,0,0,1,112.23353,27.75a4.12711,4.12711,0,0,1-.96142-2.853Zm1.31028.155a3.25935,3.25935,0,0,0,.58837,2.03586,1.99315,1.99315,0,0,0,3.15226-.01056,3.5648,3.5648,0,0,0,.58469-2.18028,3.25673,3.25673,0,0,0-.5951-2.03234,1.89293,1.89293,0,0,0-1.58165-.77841,1.87151,1.87151,0,0,0-1.55683.76785A3.53943,3.53943,0,0,0,112.58239,24.96036Z" style="fill:#00d000"/><path d="M126.22943,28.68691H124.9262V25.43234h-3.65794v3.25457H119.958V21.06475h1.31027v3.30387h3.65794V21.06475h1.30323Z" style="fill:#00d000"/><path d="M134.70581,28.68691h-1.30323V25.43234h-3.65794v3.25457h-1.31028V21.06475h1.31028v3.30387h3.65794V21.06475h1.30323Z" style="fill:#00d000"/><path d="M141.50376,28.68691a2.73938,2.73938,0,0,1-.18316-.80308,2.90725,2.90725,0,0,1-2.1697.944,2.69094,2.69094,0,0,1-1.84934-.63768,2.06248,2.06248,0,0,1-.72191-1.61657,2.15512,2.15512,0,0,1,.90507-1.84918,4.26891,4.26891,0,0,1,2.54674-.65866h1.268v-.59878a1.46441,1.46441,0,0,0-.40858-1.08838,1.642,1.642,0,0,0-1.20461-.40506,1.90041,1.90041,0,0,0-1.16939.35223,1.03834,1.03834,0,0,0-.472.85238h-1.31028a1.79833,1.79833,0,0,1,.40521-1.10246,2.763,2.763,0,0,1,1.09894-.84182,3.69712,3.69712,0,0,1,1.525-.31,3.01355,3.01355,0,0,1,2.064.65866,2.37623,2.37623,0,0,1,.77489,1.814v3.50817a4.28648,4.28648,0,0,0,.26769,1.66954v.11272Zm-2.16266-.99328a2.29049,2.29049,0,0,0,1.16234-.317,1.91809,1.91809,0,0,0,.796-.82421V24.98854H140.278q-2.395,0-2.39514,1.40186a1.18657,1.18657,0,0,0,.40859.95805A1.57014,1.57014,0,0,0,139.3411,27.69363Z" style="fill:#00d000"/><path d="M150.3146,21.06475v7.62216h-1.31028V25.72117h-1.8086l-1.79635,2.96574h-1.4089l1.91611-3.163a2.27625,2.27625,0,0,1-1.12376-.82773,2.22729,2.22729,0,0,1-.39081-1.30675,2.06168,2.06168,0,0,1,.78194-1.68012,3.2407,3.2407,0,0,1,2.09222-.64457Zm-4.61231,2.33878a1.14939,1.14939,0,0,0,.3804.89817,1.47561,1.47561,0,0,0,1.00736.3487h1.91427v-2.529h-1.717a1.75609,1.75609,0,0,0-1.1553.35574A1.14608,1.14608,0,0,0,145.70229,23.40353Z" style="fill:#00d000"/><path d="M45.319,40.23193H43.75848V44.839H42.40594V34.58224h1.35254v4.52257h1.37031l3.58565-4.52257h1.68364l-3.91674,4.97342L50.68691,44.839H49.03145Z" style="fill:#00d000"/><path d="M51.18707,40.95752a4.50317,4.50317,0,0,1,.44012-2.01473,3.28786,3.28786,0,0,1,1.22575-1.38073,3.33723,3.33723,0,0,1,1.793-.48607,3.21352,3.21352,0,0,1,2.51826,1.07781,4.14513,4.14513,0,0,1,.96172,2.86712v.09158a4.54091,4.54091,0,0,1-.42634,1.99727,3.23577,3.23577,0,0,1-1.21839,1.377,3.37685,3.37685,0,0,1-1.82116.49312,3.2073,3.2073,0,0,1-2.51152-1.07781,4.12706,4.12706,0,0,1-.96142-2.853Zm1.31027.155a3.25944,3.25944,0,0,0,.58837,2.03586,1.99329,1.99329,0,0,0,3.15227-.01042,3.56616,3.56616,0,0,0,.58469-2.18042,3.25587,3.25587,0,0,0-.59511-2.03219,1.89224,1.89224,0,0,0-1.58164-.77857,1.87154,1.87154,0,0,0-1.55684.76785A3.53891,3.53891,0,0,0,52.49734,41.1125Z" style="fill:#00d000"/><path d="M64.149,43.11314l2.59238-5.89626h1.62728V44.839H67.06538V39.295l-2.46557,5.544h-.9017l-2.51489-5.66378V44.839H59.88V37.21688h1.69068Z" style="fill:#00d000"/><path d="M76.69522,44.839H75.392V38.29469H71.88383V44.839H70.57355V37.21688h6.12167Z" style="fill:#00d000"/><path d="M83.49317,44.839A2.73971,2.73971,0,0,1,83.31,44.036a2.90724,2.90724,0,0,1-2.1697.944,2.69094,2.69094,0,0,1-1.84934-.63768,2.06269,2.06269,0,0,1-.72191-1.61656,2.15539,2.15539,0,0,1,.90507-1.84934,4.27007,4.27007,0,0,1,2.54674-.65851h1.268v-.59878a1.46356,1.46356,0,0,0-.40858-1.08822,1.64138,1.64138,0,0,0-1.20461-.40521,1.89945,1.89945,0,0,0-1.16939.35222,1.03815,1.03815,0,0,0-.472.85239H78.724a1.79874,1.79874,0,0,1,.40521-1.10262,2.76416,2.76416,0,0,1,1.099-.84167,3.69463,3.69463,0,0,1,1.525-.31,3.01424,3.01424,0,0,1,2.064.65851,2.37633,2.37633,0,0,1,.77489,1.81412v3.50816a4.28632,4.28632,0,0,0,.2677,1.66955V44.839Zm-2.16266-.99328a2.2904,2.2904,0,0,0,1.16234-.317,1.918,1.918,0,0,0,.796-.82421V41.14067H82.26743q-2.395,0-2.39513,1.40186a1.18654,1.18654,0,0,0,.40858.95805A1.57092,1.57092,0,0,0,81.33051,43.84576Z" style="fill:#00d000"/><path d="M92.86236,44.839H91.55913V41.58448H88.058V44.839H86.74773V37.21688H88.058v3.30388h3.50112V37.21688h1.30323Z" style="fill:#00d000"/><path d="M99.88574,37.21688H101.189V44.839H99.88574V39.28092L96.37053,44.839H95.06729V37.21688h1.30324V42.782Z" style="fill:#00d000"/><path d="M108.95018,37.21688V44.839H107.6399V41.8733h-1.8086L104.035,44.839h-1.4089l1.91611-3.163a2.27557,2.27557,0,0,1-1.12376-.82789,2.22647,2.22647,0,0,1-.39081-1.3066,2.062,2.062,0,0,1,.78194-1.68027,3.24065,3.24065,0,0,1,2.09222-.64442Zm-4.61232,2.33878a1.14908,1.14908,0,0,0,.38041.898,1.47574,1.47574,0,0,0,1.00736.34886h1.91427v-2.529h-1.717a1.75442,1.75442,0,0,0-1.1553.3559A1.14558,1.14558,0,0,0,104.33786,39.55566Z" style="fill:#00d000"/></g></svg>