<svg width="116" height="29" viewBox="0 0 116 29" fill="none" xmlns="http://www.w3.org/2000/svg">
<g clip-path="url(#clip0)">
<rect x="87.1738" y="1.17529" width="25.8558" height="25.8558" fill="#FFD200"/>
<path fill-rule="evenodd" clip-rule="evenodd" d="M115.999 0H83.9814V28.2063H115.999V0ZM110.056 6.41426C111.037 7.37023 111.541 8.62808 111.541 10.1627H108.371C108.371 8.87965 107.515 7.89853 106.409 7.89853C105.327 7.89853 104.446 8.65323 104.446 9.63436C104.446 10.6658 105.603 11.5211 107.012 12.2507C109.075 13.2066 111.792 14.7915 111.767 18.1374C111.767 19.4959 111.264 20.6531 110.258 21.6342C109.251 22.5902 108.019 23.0682 106.585 23.0682H106.182C104.748 23.0682 103.515 22.5902 102.484 21.6342C101.478 20.6531 100.975 19.4959 100.975 18.1374V17.3324H104.17V18.1374C104.17 19.2192 105.1 20.1248 106.232 20.1248H106.509C107.616 20.1248 108.547 19.2443 108.547 18.3135C108.547 17.0053 107.39 16.0494 105.956 15.345L105.925 15.3301C103.916 14.3506 101.227 13.0396 101.251 9.86077C101.251 8.47713 101.754 7.29476 102.736 6.36395C103.742 5.43314 104.975 4.95516 106.409 4.95516C107.868 4.95516 109.075 5.43314 110.056 6.41426ZM98.2157 22.8166H88.5554V5.20673H98.0145V8.15009H91.7252V12.1501H97.461V15.0934H91.7252V19.8732H98.2157V22.8166Z" fill="#0F0F0F"/>
</g>
<path d="M6.35023 11.5241L6.25062 11.5241L3.5113 5.09913L-1.55369e-09 5.09913L-1.10312e-07 22.5311L3.08796 22.5311L3.08796 12.1715L2.91364 9.93028L3.01325 9.93028L5.05528 14.8361L7.54557 14.8361L9.5876 9.93028L9.68721 9.93028L9.51289 12.1715L9.51289 22.5311L12.6008 22.5311L12.6009 5.09913L9.08955 5.09913L6.35023 11.5241Z" fill="#0F0F0F"/>
<path d="M16.5857 22.5311L26.1484 22.5311L26.1484 19.6175L19.7235 19.6175L19.7235 14.886L25.4013 14.886L25.4013 11.9723L19.7235 11.9723L19.7235 8.01276L25.9492 8.01276L25.9492 5.09913L16.5857 5.09913L16.5857 22.5311Z" fill="#0F0F0F"/>
<path d="M31.5441 8.01276L31.5441 22.5311L34.7317 22.5311L34.7317 8.01276L38.2928 8.01276L38.2928 5.09913L28.0079 5.09913L28.0079 8.01276L31.5441 8.01276Z" fill="#0F0F0F"/>
<path d="M48.1765 11.9225L44.0178 11.9225L44.0178 5.09913L40.9049 5.09913L40.9049 22.5311L44.0178 22.5311L44.0178 14.886L48.1765 14.886L48.1765 22.5311L51.3143 22.5311L51.3143 5.09913L48.1765 5.09913L48.1765 11.9225Z" fill="#0F0F0F"/>
<path d="M65.6864 9.73106C65.6864 8.38631 65.1883 7.24077 64.1922 6.29446C63.1961 5.32325 62.0007 4.8501 60.5813 4.8501L60.1828 4.8501C58.7634 4.8501 57.568 5.32325 56.547 6.29446C55.5509 7.24077 55.0528 8.38631 55.0528 9.73106L55.0528 17.8743C55.0528 19.2191 55.5509 20.3646 56.547 21.3358C57.568 22.307 58.7634 22.7802 60.1828 22.7802L60.5813 22.7802C62.0007 22.7802 63.1961 22.307 64.1922 21.3607C65.1883 20.3895 65.6864 19.244 65.6864 17.8992L65.6864 9.73106ZM62.5486 18.0486C62.5486 19.0447 61.6023 19.8665 60.5066 19.8665L60.2575 19.8665C59.1618 19.8665 58.2155 19.0447 58.2155 18.0237L58.2155 9.58164C58.2155 8.58553 59.1618 7.76373 60.2575 7.76373L60.5315 7.76373C61.6272 7.76373 62.5486 8.56062 62.5486 9.58164L62.5486 18.0486Z" fill="#0F0F0F"/>
<path d="M79.5668 9.95519C79.5668 8.61043 79.0687 7.4649 78.0726 6.51859C77.0765 5.57228 75.8812 5.09913 74.4617 5.09913L69.4313 5.09913L69.4313 22.5311L74.4617 22.5311C75.8812 22.5311 77.0765 22.058 78.0726 21.1117C79.0687 20.1654 79.5668 19.0198 79.5668 17.6751L79.5668 9.95519ZM76.3294 17.7996C76.3294 18.8206 75.4827 19.6175 74.387 19.6175L72.5691 19.6175L72.5691 8.01276L74.387 8.01276C75.4827 8.01276 76.3294 8.83456 76.3294 9.85558L76.3294 17.7996Z" fill="#0F0F0F"/>
<defs>
<clipPath id="clip0">
<rect x="83.9814" width="32.018" height="28.2063" fill="white"/>
</clipPath>
</defs>
</svg>
