<svg id="en168ng8gww1" xmlns="http://www.w3.org/2000/svg" xmlns:xlink="http://www.w3.org/1999/xlink" viewBox="0 0 1099.438940 256.132800" shape-rendering="geometricPrecision" text-rendering="geometricPrecision" width="1099.438940" height="256.132800"><style><![CDATA[#en168ng8gww57 {animation: en168ng8gww57_c_o 7000ms linear 1 normal forwards}@keyframes en168ng8gww57_c_o { 0% {opacity: 0.578736} 18.571429% {opacity: 0.140000} 24.285714% {opacity: 1} 30% {opacity: 0.578736} 100% {opacity: 0.578736} }#en168ng8gww59 {animation: en168ng8gww59_c_o 7000ms linear 1 normal forwards}@keyframes en168ng8gww59_c_o { 0% {opacity: 0.969718} 55.714286% {opacity: 0.969718} 90% {opacity: 0} 94.285714% {opacity: 1} 100% {opacity: 0.969718} }#en168ng8gww61 {animation: en168ng8gww61_c_o 7000ms linear 1 normal forwards}@keyframes en168ng8gww61_c_o { 0% {opacity: 0.969718} 10% {opacity: 0} 14.285714% {opacity: 1} 20% {opacity: 0.800000} 45.714286% {opacity: 0.969718} 77.142857% {opacity: 0} 81.428571% {opacity: 1} 87.142857% {opacity: 0.800000} 100% {opacity: 0.800000} }#en168ng8gww63 {animation: en168ng8gww63_c_o 7000ms linear 1 normal forwards}@keyframes en168ng8gww63_c_o { 0% {opacity: 0.899716} 4.285714% {opacity: 0.899716} 22.857143% {opacity: 0} 27.142857% {opacity: 1} 31.428571% {opacity: 0.280000} 42.857143% {opacity: 0.800000} 64.285714% {opacity: 0} 68.571429% {opacity: 1} 72.857143% {opacity: 0.280000} 84.285714% {opacity: 0.800000} 100% {opacity: 0.800000} }#en168ng8gww65 {animation: en168ng8gww65_c_o 7000ms linear 1 normal forwards}@keyframes en168ng8gww65_c_o { 0% {opacity: 0.965084} 14.285714% {opacity: 0.965084} 31.428571% {opacity: 0.040000} 37.142857% {opacity: 1} 40% {opacity: 0.900000} 61.428571% {opacity: 0.965084} 84.285714% {opacity: 0.040000} 90% {opacity: 1} 92.857143% {opacity: 0.900000} 100% {opacity: 0.900000} }#en168ng8gww67 {animation: en168ng8gww67_c_o 7000ms linear 1 normal forwards}@keyframes en168ng8gww67_c_o { 0% {opacity: 0.811058} 24.285714% {opacity: 0.811058} 45.714286% {opacity: 0} 51.428571% {opacity: 1} 54.285714% {opacity: 0.811058} 100% {opacity: 0.811058} }#en168ng8gww69 {animation: en168ng8gww69_c_o 7000ms linear 1 normal forwards}@keyframes en168ng8gww69_c_o { 0% {opacity: 0.945532} 34.285714% {opacity: 0.945532} 54.285714% {opacity: 0} 58.571429% {opacity: 1} 62.857143% {opacity: 0.740000} 78.571429% {opacity: 0} 82.857143% {opacity: 0.660000} 100% {opacity: 0.660000} }#en168ng8gww71 {animation: en168ng8gww71_c_o 7000ms linear 1 normal forwards}@keyframes en168ng8gww71_c_o { 0% {opacity: 0.760004} 8.571429% {opacity: 0} 12.857143% {opacity: 1} 17.142857% {opacity: 0.700000} 52.857143% {opacity: 0.760004} 90% {opacity: 0} 94.285714% {opacity: 1} 98.571429% {opacity: 0.700000} 100% {opacity: 0.700000} }#en168ng8gww73 {animation: en168ng8gww73_c_o 7000ms linear 1 normal forwards}@keyframes en168ng8gww73_c_o { 0% {opacity: 0.667884} 48.571429% {opacity: 0.667884} 70% {opacity: 0} 74.285714% {opacity: 1} 78.571429% {opacity: 0.667884} 100% {opacity: 0.667884} }]]></style><defs><clipPath id="en168ng8gww2"><rect id="en168ng8gww3" width="1613" height="806" rx="0" ry="0" transform="matrix(0.98975600000000 -0.14276600000000 0.14276600000000 0.98975600000000 -289.00014465400000 15.28220771000001)" fill="none" stroke="none" stroke-width="1"/></clipPath></defs><g id="en168ng8gww4"><g id="en168ng8gww5" clip-path="url(#en168ng8gww2)"><g id="en168ng8gww6"><rect id="en168ng8gww7" width="1079" height="210" rx="0" ry="0" transform="matrix(1 0 0 1 0 46.13280000000000)" fill="rgb(255,210,0)" stroke="none" stroke-width="1"/><g id="en168ng8gww8" opacity="0.95"><path id="en168ng8gww9" style="isolation:isolate" d="M135.795000,123.825000L340.933000,-17.486900L413.389000,8.804500L413.974000,7.196310L340.690000,-19.397000L137.141000,120.820000L119.709000,-17.297000L118.128000,-16.154900L135.619000,122.430000Z" transform="matrix(1 0 0 1 -1.00100000000000 46.13280000000000)" opacity="0.548932" fill="rgb(255,249,108)" stroke="none" stroke-width="1"/><g id="en168ng8gww10" opacity="0.261186"><path id="en168ng8gww11" style="isolation:isolate" d="M415.880000,1.951410C418.769505,2.998576,420.516706,5.941265,420.052857,8.979462C419.589009,12.017658,417.043335,14.304944,413.973000,14.442207C410.902666,14.579471,408.163043,12.528472,407.429934,9.543787C406.696824,6.559102,408.174466,3.472242,410.959000,2.171410C412.505153,1.447985,414.275461,1.368841,415.880000,1.951410Z" transform="matrix(1 0 0 1 -1.00100000000000 46.13280000000000)" opacity="0.261186" fill="rgb(255,249,108)" stroke="none" stroke-width="1"/></g><path id="en168ng8gww12" style="isolation:isolate" d="M413.974000,7.196000L413.389000,8.805000L466.712000,28.154500L467.296000,26.545500Z" transform="matrix(1 0 0 1 -1.00100000000000 46.13280000000000)" opacity="0.654624" fill="rgb(255,249,108)" stroke="none" stroke-width="1"/><path id="en168ng8gww13" style="isolation:isolate" d="M535.294000,-31L609.384000,78.105500L467.297000,26.546200L466.712000,28.154400L613.771000,81.518000L537.364000,-31Z" transform="matrix(1 0 0 1 -1.00100000000000 46.13280000000000)" opacity="0.466878" fill="rgb(255,249,108)" stroke="none" stroke-width="1"/><path id="en168ng8gww14" style="isolation:isolate" d="M402.615000,-30.999700L441.718000,153.843000L519.415000,47.568400L518.033000,46.559400L442.600000,149.738000L404.365000,-30.999800Z" transform="matrix(1 0 0 1 -1.00100000000000 46.13280000000000)" opacity="0.811368" fill="rgb(255,249,108)" stroke="none" stroke-width="1"/><path id="en168ng8gww15" style="isolation:isolate" d="M526.500000,34.975800L518.034000,46.559400L519.416000,47.568500L527.882000,35.984900Z" transform="matrix(1 0 0 1 -1.00100000000000 46.13280000000000)" opacity="0.525458" fill="rgb(255,249,108)" stroke="none" stroke-width="1"/><g id="en168ng8gww16" opacity="0.263755"><path id="en168ng8gww17" style="isolation:isolate" d="M521.997000,31.685700C523.808896,29.207465,527.119063,28.354221,529.903191,29.647761C532.687319,30.941302,534.170017,34.021373,533.444553,37.004378C532.719089,39.987382,529.987506,42.042543,526.920285,41.913041C523.853064,41.783538,521.304437,39.505440,520.833000,36.471900C520.571992,34.785312,520.990600,33.064056,521.997000,31.685700Z" transform="matrix(1 0 0 1 -1.00100000000000 46.13280000000000)" opacity="0.263755" fill="rgb(255,249,108)" stroke="none" stroke-width="1"/></g><path id="en168ng8gww18" style="isolation:isolate" d="M554.464000,-3.276160L526.504000,34.978500L527.886000,35.987600L555.846000,-2.267000Z" transform="matrix(1 0 0 1 -1.00100000000000 46.13280000000000)" opacity="0.678233" fill="rgb(255,249,108)" stroke="none" stroke-width="1"/><g id="en168ng8gww19" opacity="0.911256"><path id="en168ng8gww20" style="isolation:isolate" d="M549.962000,-6.565340C550.713759,-7.593157,551.753157,-8.375232,552.949000,-8.812850C554.144164,-9.250375,555.442227,-9.323678,556.679050,-9.023490C557.916014,-8.723260,559.036209,-8.063062,559.898050,-7.126340C560.759181,-6.189484,561.322973,-5.018184,561.518050,-3.760730C561.713030,-2.502959,561.531040,-1.215615,560.995050,-0.061180C560.458058,1.093231,559.591298,2.062812,558.504050,2.725320C557.416548,3.387534,556.157204,3.712649,554.885050,3.659610C553.613339,3.606516,552.385933,3.177502,551.358050,2.426820C549.980479,1.420052,549.059546,-0.092969,548.798050,-1.779060C548.536321,-3.465704,548.954995,-5.187258,549.962050,-6.565340Z" transform="matrix(1 0 0 1 -1.00100000000000 46.13280000000000)" opacity="0.911256" fill="rgb(255,249,108)" stroke="none" stroke-width="1"/></g><path id="en168ng8gww21" style="isolation:isolate" d="M404.573000,-33.028600L403.758000,-31.522500L611.170000,80.565000L611.985000,79.058900Z" transform="matrix(1 0 0 1 -1.00100000000000 46.13280000000000)" opacity="0.320836" fill="rgb(255,249,108)" stroke="none" stroke-width="1"/><path id="en168ng8gww22" style="isolation:isolate" d="M574.251000,-29.842400L610.784000,80.075000L612.409000,79.534400L575.876000,-30.383000Z" transform="matrix(1 0 0 1 -1.00100000000000 46.13280000000000)" opacity="0.22822" fill="rgb(255,249,108)" stroke="none" stroke-width="1"/><path id="en168ng8gww23" style="isolation:isolate" d="M208.042000,-30.999900L135.694000,121.956000L137.242000,122.688000L209.936000,-30.999900Z" transform="matrix(1 0 0 1 -1.00100000000000 46.13280000000000)" opacity="0.356486" fill="rgb(255,249,108)" stroke="none" stroke-width="1"/><path id="en168ng8gww24" style="isolation:isolate" d="M303.134000,-30.999900L135.889000,121.687000L137.043000,122.951000L305.672000,-30.999900Z" transform="matrix(1 0 0 1 -1.00100000000000 46.13280000000000)" opacity="0.449774" fill="rgb(255,249,108)" stroke="none" stroke-width="1"/><g id="en168ng8gww25" opacity="0.650612"><path id="en168ng8gww26" style="isolation:isolate" d="M476.133000,5.406190C475.567770,8.421762,472.951206,10.618211,469.883309,10.652431C466.815413,10.686651,464.150506,8.549112,463.518153,5.546898C462.885800,2.544684,464.462092,-0.486174,467.283143,-1.692337C470.104195,-2.898500,473.384422,-1.944087,475.118000,0.587290C476.081868,1.995482,476.446965,3.728849,476.133000,5.406190Z" transform="matrix(1 0 0 1 -1.00100000000000 46.13280000000000)" opacity="0.650612" fill="rgb(255,249,108)" stroke="none" stroke-width="1"/></g><path id="en168ng8gww27" style="isolation:isolate" d="M468.999000,4.073550L441.283000,151.626000L442.966000,151.941000L470.682000,4.388560Z" transform="matrix(1 0 0 1 -1.00100000000000 46.13280000000000)" opacity="0.671925" fill="rgb(255,249,108)" stroke="none" stroke-width="1"/><g id="en168ng8gww28" opacity="0.81"><path id="en168ng8gww29" style="isolation:isolate" d="M448.485000,152.972000C447.919706,155.987375,445.303246,158.183623,442.235531,158.217785C439.167816,158.251946,436.503097,156.114509,435.870794,153.112470C435.238491,150.110432,436.814678,147.079755,439.635550,145.873635C442.456422,144.667516,445.736464,145.621815,447.470000,148.153000C448.434710,149.560870,448.799880,151.294617,448.485000,152.972000Z" transform="matrix(1 0 0 1 -1.00100000000000 46.13280000000000)" opacity="0.569208" fill="rgb(255,249,108)" stroke="none" stroke-width="1"/></g><path id="en168ng8gww30" style="isolation:isolate" d="M1.001000,-4.547780L341.726000,200.087000L342.071000,200.224000L442.525000,152.564000L441.793000,151.018000L342.009000,198.359000L1.001000,-6.670410Z" transform="matrix(1 0 0 1 -1.00100000000000 46.13280000000000)" opacity="0.742891" fill="rgb(255,249,108)" stroke="none" stroke-width="1"/><path id="en168ng8gww31" style="isolation:isolate" d="M341.763000,-18.440400L341.171000,199.289000L342.883000,199.293000L343.476000,-18.436800Z" transform="matrix(1 0 0 1 -1.00100000000000 46.13280000000000)" opacity="0.239653" fill="rgb(255,249,108)" stroke="none" stroke-width="1"/><g id="en168ng8gww32" opacity="0.79485"><path id="en168ng8gww33" style="isolation:isolate" d="M348.475000,199.304000C348.466743,202.371689,346.292795,205.006417,343.282496,205.597082C340.272197,206.187747,337.263824,204.569868,336.096957,201.732755C334.930090,198.895643,335.929666,195.629347,338.484458,193.931164C341.039249,192.232981,344.437824,192.575804,346.602000,194.750000C347.805414,195.959640,348.479131,197.597713,348.475000,199.304000Z" transform="matrix(1 0 0 1 -1.00100000000000 46.13280000000000)" opacity="0.79485" fill="rgb(255,249,108)" stroke="none" stroke-width="1"/></g><path id="en168ng8gww34" style="isolation:isolate" d="M251.980000,43.964500L341.302000,199.715000L342.787000,198.863000L253.465000,43.112600Z" transform="matrix(1 0 0 1 -1.00100000000000 46.13280000000000)" opacity="0.568358" fill="rgb(255,249,108)" stroke="none" stroke-width="1"/><path id="en168ng8gww35" style="isolation:isolate" d="M241.355000,25.428200L251.984000,43.961900L253.469000,43.110000L242.840000,24.576300Z" transform="matrix(1 0 0 1 -1.00100000000000 46.13280000000000)" opacity="0.773664" fill="rgb(255,249,108)" stroke="none" stroke-width="1"/><g id="en168ng8gww36" opacity="0.769702"><path id="en168ng8gww37" style="isolation:isolate" d="M236.514000,28.204800C234.986128,25.542134,235.551994,22.170974,237.865517,20.153105C240.179041,18.135236,243.595824,18.032705,246.026180,19.908219C248.456537,21.783734,249.223526,25.114897,247.858063,27.864387C246.492599,30.613876,243.375011,32.015864,240.412000,31.212900C238.765237,30.766660,237.363126,29.684646,236.514000,28.204800Z" transform="matrix(1 0 0 1 -1.00100000000000 46.13280000000000)" opacity="0.769702" fill="rgb(255,249,108)" stroke="none" stroke-width="1"/></g><path id="en168ng8gww38" style="isolation:isolate" d="M208.740000,-31.445200L241.358000,25.426400L242.843000,24.574400L210.225000,-32.297200Z" transform="matrix(1 0 0 1 -1.00100000000000 46.13280000000000)" opacity="0.94539" fill="rgb(255,249,108)" stroke="none" stroke-width="1"/></g><g id="en168ng8gww39" opacity="0.735122"><path id="en168ng8gww40" style="isolation:isolate" d="M463.167000,-4.459450L462.859000,-2.423000L572.391000,14.101300L572.699000,12.064800Z" transform="matrix(1 0 0 1 -1.00100000000000 46.13280000000000)" opacity="0.576199" fill="rgb(255,249,108)" stroke="none" stroke-width="1"/><g id="en168ng8gww41" opacity="0.740749"><path id="en168ng8gww42" style="isolation:isolate" d="M573.701000,5.425500C577.356176,5.977769,580.112238,9.035103,580.283712,12.727787C580.455186,16.420471,577.994316,19.720060,574.406050,20.608687C570.817783,21.497314,567.101483,19.727490,565.529856,16.381551C563.958229,13.035613,564.968987,9.045433,567.944000,6.851210C569.598184,5.631718,571.668885,5.118913,573.701000,5.425500Z" transform="matrix(1 0 0 1 0.70690469500002 46.67838804000000)" opacity="0.740749" fill="rgb(255,249,108)" stroke="none" stroke-width="1"/></g><path id="en168ng8gww43" style="isolation:isolate" d="M899.316000,-31.000100L1006.300050,77.478500L572.699000,12.064700L572.391000,14.100900L1012.110000,80.439100L902.210000,-31.000100Z" transform="matrix(1 0 0 1 -1.00100000000000 46.13280000000000)" opacity="0.653462" fill="rgb(255,249,108)" stroke="none" stroke-width="1"/><path id="en168ng8gww44" style="isolation:isolate" d="M585.541000,-31.000400L537.599000,153.352000L539.593000,153.870000L587.670000,-31.000400Z" transform="matrix(1 0 0 1 -1.00100000000000 46.13280000000000)" opacity="0.726273" fill="rgb(255,249,108)" stroke="none" stroke-width="1"/><path id="en168ng8gww45" style="isolation:isolate" d="M908.137000,-21.586800L538.155000,152.680000L539.034000,154.542000L909.015000,-19.724100Z" transform="matrix(1 0 0 1 -1.00100000000000 46.13280000000000)" opacity="0.836763" fill="rgb(255,249,108)" stroke="none" stroke-width="1"/><path id="en168ng8gww46" style="isolation:isolate" d="M727.826000,-31.000100L774.230000,42.768700L775.974000,41.672600L730.261000,-31.000100Z" transform="matrix(1 0 0 1 -1.00100000000000 46.13280000000000)" opacity="0.979603" fill="rgb(255,249,108)" stroke="none" stroke-width="1"/><g id="en168ng8gww47" opacity="0.685416"><path id="en168ng8gww48" style="isolation:isolate" d="M781.648000,38.109400C783.618478,41.240417,783.102523,45.327398,780.415728,47.870464C777.728932,50.413530,773.619782,50.704235,770.601716,48.564765C767.583651,46.425295,766.497440,42.451660,768.007485,39.074410C769.517530,35.697160,773.203164,33.857126,776.810000,34.679800C778.813840,35.135790,780.554267,36.369558,781.648000,38.109400Z" transform="matrix(1 0 0 1 -1.00100000000000 46.13280000000000)" opacity="0.685416" fill="rgb(255,249,108)" stroke="none" stroke-width="1"/></g><path id="en168ng8gww49" style="isolation:isolate" d="M774.183000,41.730100L693.820000,187.020000L695.624000,188.017000L775.987000,42.726800Z" transform="matrix(1 0 0 1 -1.00100000000000 46.13280000000000)" opacity="0.980323" fill="rgb(255,249,108)" stroke="none" stroke-width="1"/><g id="en168ng8gww50" opacity="0.8493"><path id="en168ng8gww51" style="isolation:isolate" d="M701.501000,191.265000C699.713265,194.497037,695.891470,196.016244,692.372700,194.893604C688.853930,193.770964,686.618118,190.319117,687.032495,186.648919C687.446872,182.978721,690.396041,180.112275,694.076539,179.802455C697.757038,179.492636,701.143897,181.825723,702.166000,185.375000C702.733873,187.348861,702.494678,189.467443,701.501000,191.265000Z" transform="matrix(1 0 0 1 -1.00100000000000 46.13280000000000)" opacity="0.8493" fill="rgb(255,249,108)" stroke="none" stroke-width="1"/></g><path id="en168ng8gww52" style="isolation:isolate" d="M846.656000,53.498900L694.041000,186.741000L695.397000,188.293000L848.012000,55.050000Z" transform="matrix(1 0 0 1 -1.00100000000000 46.13280000000000)" opacity="0.984283" fill="rgb(255,249,108)" stroke="none" stroke-width="1"/><path id="en168ng8gww53" style="isolation:isolate" d="M920.639000,-11.094900L846.655000,53.498800L848.011000,55.050000L922,-9.543720Z" transform="matrix(1 0 0 1 -1.00100000000000 46.13280000000000)" opacity="0.27286" fill="rgb(255,249,108)" stroke="none" stroke-width="1"/><path id="en168ng8gww54" style="isolation:isolate" d="M1097.780000,-30.999800L1008.410000,78.307400L1010,79.610400L1100.439940,-30.999800Z" transform="matrix(1 0 0 1 -1.00100000000000 46.13280000000000)" opacity="0.75419" fill="rgb(255,249,108)" stroke="none" stroke-width="1"/><path id="en168ng8gww55" style="isolation:isolate" d="M963.580000,-46.132800L961.650060,-45.412200L1008.260060,79.311400L1010.189990,78.590800Z" transform="matrix(1 0 0 1 -1.00100000000000 46.13280000000000)" opacity="0.998997" fill="rgb(255,249,108)" stroke="none" stroke-width="1"/></g></g></g></g><g id="en168ng8gww56"><path id="en168ng8gww57" style="isolation:isolate" d="M513.529000,43.268300C515.341005,40.791873,518.649908,39.940123,521.432400,41.233874C524.214892,42.527626,525.696153,45.606616,524.970430,48.588122C524.244708,51.569629,521.514087,53.623413,518.448274,53.493639C515.382460,53.363865,512.835168,51.086670,512.364000,48.054500C512.102431,46.367742,512.521480,44.646152,513.529000,43.268300Z" transform="matrix(1 0 0 1 -1.00100000000000 46.13280000000000)" opacity="0.578736" fill="rgb(255,249,108)" stroke="none" stroke-width="1"/></g><g id="en168ng8gww58"><path id="en168ng8gww59" style="isolation:isolate" d="M128.373000,110.151000C134.566343,105.698610,143.188003,107.050097,147.721887,113.184034C152.255771,119.317970,151.018390,127.956744,144.944933,132.571330C138.871476,137.185915,130.217097,136.062857,125.522617,130.050941C120.828136,124.039025,121.836676,115.370555,127.786000,110.597000Q128.075500,110.366000,128.373000,110.151000ZM143.617000,131.371000Q143.878000,131.183500,144.132000,130.979000C149.329275,126.800514,150.203813,119.221103,146.094693,113.968813C141.985573,108.716523,134.418440,107.741439,129.112061,111.780469C123.805682,115.819499,122.730225,123.373020,126.698453,128.732553C130.666681,134.092085,138.205259,135.267726,143.617000,131.371000Z" transform="matrix(1 0 0 1 -1.00100000000000 46.13280000000000)" opacity="0.969718" fill="rgb(255,249,108)" stroke="none" stroke-width="1"/></g><g id="en168ng8gww60"><path id="en168ng8gww61" style="isolation:isolate" d="M130.654000,114.174000C134.129812,111.388457,139.089244,111.445968,142.499525,114.311365C145.909807,117.176762,146.821218,122.052067,144.676416,125.955955C142.531614,129.859844,137.927900,131.705131,133.680516,130.363396C129.433133,129.021661,126.724923,124.866559,127.212000,120.439000C127.484195,117.977187,128.722113,115.723975,130.654000,114.174000Z" transform="matrix(1 0 0 1 -1.00100000000000 46.13280000000000)" opacity="0.969718" fill="rgb(255,249,108)" stroke="none" stroke-width="1"/></g><g id="en168ng8gww62"><path id="en168ng8gww63" style="isolation:isolate" d="M614.640000,74.150100C617.343933,75.609905,618.639935,78.776614,617.735287,81.713261C616.830639,84.649907,613.977355,86.538409,610.920691,86.223635C607.864026,85.908861,605.455497,83.478500,605.168318,80.419119C604.881138,77.359739,606.795310,74.523612,609.740000,73.645500C611.375642,73.157467,613.138146,73.338969,614.640000,74.150100Z" transform="matrix(1 0 0 1 -1.00100000000000 46.13280000000000)" opacity="0.899716" fill="rgb(255,249,108)" stroke="none" stroke-width="1"/></g><g id="en168ng8gww64"><path id="en168ng8gww65" style="isolation:isolate" d="M259.004000,42.124000C258.433229,39.583492,256.388168,37.637042,253.822575,37.192418C251.256982,36.747793,248.676203,37.892572,247.283838,40.092863C245.891473,42.293154,245.961778,45.115564,247.461964,47.243803C248.962151,49.372042,251.596726,50.386909,254.137000,49.815100C255.802354,49.440682,257.250742,48.419997,258.163496,46.977613C259.076250,45.535229,259.378592,43.789315,259.004000,42.124000Z" transform="matrix(1 0 0 1 -1.00100000000000 46.13280000000000)" opacity="0.965084" fill="rgb(255,249,108)" stroke="none" stroke-width="1"/></g><g id="en168ng8gww66"><path id="en168ng8gww67" style="isolation:isolate" d="M469.202000,21.300300C472.091619,22.347409,473.838954,25.290136,473.375168,28.328432C472.911383,31.366727,470.365686,33.654138,467.295266,33.791468C464.224847,33.928798,461.485107,31.877787,460.751930,28.893027C460.018753,25.908268,461.496399,22.821298,464.281000,21.520400C465.827196,20.797175,467.597412,20.717999,469.202000,21.300300Z" transform="matrix(1 0 0 1 -2.06522633999932 46.05524543000016)" opacity="0.811058" fill="rgb(255,249,108)" stroke="none" stroke-width="1"/></g><g id="en168ng8gww68"><path id="en168ng8gww69" style="isolation:isolate" d="M1015.210000,83.859400C1012.873130,86.733565,1008.830861,87.555705,1005.556957,85.822691C1002.283053,84.089678,1000.690157,80.284611,1001.753081,76.736093C1002.816004,73.187575,1006.238443,70.884802,1009.925954,71.237012C1013.613464,71.589221,1016.538104,74.498230,1016.910070,78.183800C1017.118283,80.226242,1016.506766,82.267760,1015.210000,83.859400Z" transform="matrix(1 0 0 1 -1.00100000000000 46.13280000000000)" opacity="0.945532" fill="rgb(255,249,108)" stroke="none" stroke-width="1"/></g><g id="en168ng8gww70"><path id="en168ng8gww71" style="isolation:isolate" d="M842.235000,48.441700C845.017014,46.013335,849.126927,45.888120,852.051611,48.142622C854.976296,50.397125,855.901327,54.403542,854.261067,57.712033C852.620808,61.020523,848.872013,62.709784,845.306995,61.746869C841.741978,60.783953,839.353472,57.436998,839.602000,53.752600C839.741416,51.703388,840.688401,49.793269,842.235000,48.441700Z" transform="matrix(1 0 0 1 -1.00100000000000 46.13280000000000)" opacity="0.760004" fill="rgb(255,249,108)" stroke="none" stroke-width="1"/></g><g id="en168ng8gww72"><path id="en168ng8gww73" style="isolation:isolate" d="M546.095000,155.560000C545.166219,159.136633,541.840244,161.559094,538.151141,161.345878C534.462038,161.132662,531.437295,158.343155,530.926753,154.683334C530.416210,151.023513,532.562065,147.512711,536.051977,146.298028C539.541890,145.083345,543.403850,146.503094,545.276000,149.689000C546.316393,151.460084,546.610977,153.571804,546.095000,155.560000Z" transform="matrix(1 0 0 1 -1.00100000000000 46.13280000000000)" opacity="0.667884" fill="rgb(255,249,108)" stroke="none" stroke-width="1"/></g></svg>