<svg width="1545" height="714" viewBox="0 0 1545 714" fill="none" xmlns="http://www.w3.org/2000/svg">
<g opacity="0.15">
<g clip-path="url(#clip0)">
<g opacity="0.9">
<path opacity="0.548932" d="M953.477 55.9087L1198.34 99.2462L1231.24 168.984L1232.78 168.246L1199.51 97.7106L956.546 54.7084L1041.32 -56.2054L1039.39 -56.5018L954.333 54.7881L953.477 55.9087Z" fill="#D0D4D9" fill-opacity="0.6"/>
<g opacity="0.261186">
<path opacity="0.261186" d="M1238.19 165.783C1238.73 166.934 1238.92 168.222 1238.73 169.485C1238.54 170.747 1237.99 171.927 1237.13 172.876C1236.28 173.824 1235.16 174.498 1233.93 174.813C1232.7 175.127 1231.4 175.068 1230.21 174.643C1229.01 174.218 1227.97 173.445 1227.22 172.423C1226.46 171.401 1226.03 170.176 1225.96 168.902C1225.9 167.628 1226.22 166.363 1226.88 165.266C1227.53 164.17 1228.49 163.291 1229.64 162.741C1231.18 162.004 1232.95 161.911 1234.55 162.481C1236.15 163.052 1237.46 164.239 1238.19 165.783Z" fill="#D0D4D9" fill-opacity="0.6"/>
</g>
<path opacity="0.654624" d="M1233.16 168.194L1231.61 168.933L1255.92 220.173L1257.48 219.434L1233.16 168.194Z" fill="#D0D4D9" fill-opacity="0.6"/>
<g opacity="0.811058">
<path opacity="0.811058" d="M1262.52 217.025C1263.06 218.176 1263.25 219.465 1263.06 220.727C1262.87 221.99 1262.31 223.17 1261.46 224.119C1260.61 225.067 1259.49 225.741 1258.26 226.056C1257.03 226.37 1255.73 226.311 1254.54 225.886C1253.34 225.46 1252.3 224.688 1251.55 223.666C1250.79 222.644 1250.35 221.419 1250.29 220.145C1250.23 218.871 1250.55 217.605 1251.2 216.509C1251.86 215.412 1252.82 214.534 1253.97 213.984C1255.51 213.247 1257.28 213.153 1258.88 213.724C1260.48 214.294 1261.79 215.482 1262.52 217.025Z" fill="#D0D4D9" fill-opacity="0.6"/>
</g>
<path opacity="0.466878" d="M1321.97 356.054L1257.63 219.551L1256.09 220.287L1322.68 361.567L1390.21 -2.08944L1388.52 -2.34944L1321.97 356.054Z" fill="#D0D4D9" fill-opacity="0.6"/>
<path opacity="0.811368" d="M1279.45 271.078L1279.18 269.388L1153.36 289.996L1345.07 -9.17727L1343.23 -9.46143L1149.86 292.304L1279.45 271.078Z" fill="#D0D4D9" fill-opacity="0.6"/>
<g opacity="0.578736">
<path opacity="0.578736" d="M1278.63 263.815C1279.89 263.609 1281.17 263.78 1282.33 264.307C1283.48 264.835 1284.45 265.695 1285.11 266.779C1285.78 267.863 1286.11 269.122 1286.06 270.397C1286.01 271.672 1285.58 272.906 1284.84 273.942C1284.09 274.978 1283.06 275.771 1281.87 276.219C1280.68 276.667 1279.38 276.751 1278.15 276.461C1276.91 276.17 1275.79 275.517 1274.93 274.585C1274.07 273.653 1273.5 272.484 1273.3 271.225C1273.03 269.537 1273.44 267.808 1274.44 266.419C1275.44 265.029 1276.95 264.093 1278.63 263.815Z" fill="#D0D4D9" fill-opacity="0.6"/>
</g>
<path opacity="0.525458" d="M1293.67 267.047L1279.51 269.364L1279.77 271.026L1293.94 268.709L1293.67 267.047Z" fill="#D0D4D9" fill-opacity="0.6"/>
<g opacity="0.263755">
<path opacity="0.263755" d="M1292.8 261.528C1294.05 261.322 1295.34 261.493 1296.49 262.021C1297.64 262.548 1298.61 263.408 1299.28 264.492C1299.94 265.576 1300.27 266.835 1300.22 268.11C1300.17 269.385 1299.75 270.619 1299 271.655C1298.26 272.691 1297.22 273.484 1296.03 273.932C1294.84 274.38 1293.55 274.464 1292.31 274.174C1291.08 273.883 1289.96 273.23 1289.09 272.298C1288.23 271.366 1287.66 270.197 1287.46 268.938C1287.2 267.25 1287.61 265.521 1288.61 264.132C1289.61 262.742 1291.11 261.806 1292.8 261.528Z" fill="#D0D4D9" fill-opacity="0.6"/>
</g>
<path opacity="0.678233" d="M1340.45 259.492L1293.68 267.119L1293.94 268.741L1340.71 261.114L1340.45 259.492Z" fill="#D0D4D9" fill-opacity="0.6"/>
<g opacity="0.911256">
<path opacity="0.911256" d="M1339.57 253.975C1340.83 253.769 1342.11 253.94 1343.27 254.468C1344.42 254.995 1345.39 255.855 1346.06 256.939C1346.72 258.023 1347.05 259.282 1347 260.557C1346.95 261.832 1346.53 263.066 1345.78 264.102C1345.04 265.138 1344 265.931 1342.81 266.379C1341.62 266.827 1340.32 266.912 1339.09 266.621C1337.85 266.33 1336.73 265.677 1335.87 264.746C1335.01 263.814 1334.44 262.644 1334.24 261.385C1333.97 259.697 1334.39 257.968 1335.39 256.579C1336.39 255.189 1337.89 254.253 1339.57 253.975Z" fill="#D0D4D9" fill-opacity="0.6"/>
</g>
<path opacity="0.297002" d="M1629.95 212.727L1340.47 259.669L1340.72 261.21L1630.19 214.267L1629.95 212.727Z" fill="#D0D4D9" fill-opacity="0.6"/>
<path opacity="0.456858" d="M1388.57 12.5246L1387.47 13.8477L1629.53 214.256L1630.63 212.932L1388.57 12.5246Z" fill="#D0D4D9" fill-opacity="0.6"/>
<g opacity="0.213724">
<path opacity="0.213724" d="M1383.91 18.1619C1382.93 17.3505 1382.22 16.2654 1381.86 15.0438C1381.5 13.8223 1381.51 12.5191 1381.89 11.2991C1382.27 10.0791 1382.99 8.99713 1383.98 8.18993C1384.97 7.38273 1386.17 6.88659 1387.44 6.76424C1388.7 6.6419 1389.97 6.89884 1391.09 7.50258C1392.2 8.10633 1393.11 9.02977 1393.7 10.1561C1394.29 11.2825 1394.54 12.5611 1394.41 13.8304C1394.27 15.0997 1393.77 16.3026 1392.95 17.287C1391.86 18.6069 1390.3 19.4406 1388.6 19.6047C1386.91 19.7687 1385.22 19.2497 1383.91 18.1619Z" fill="#D0D4D9" fill-opacity="0.6"/>
</g>
<path opacity="0.672518" d="M1388.54 12.5259L1366.79 -5.53169L1363.5 -6.03955L1387.44 13.8485L1388.54 12.5259Z" fill="#D0D4D9" fill-opacity="0.6"/>
<path opacity="0.941167" d="M1254.52 133.006L1205.07 -30.6773L1203.19 -30.9658L1252.88 133.507L1254.52 133.006Z" fill="#D0D4D9" fill-opacity="0.6"/>
<g opacity="0.694362">
<path opacity="0.694362" d="M1260.07 131.329C1260.43 132.549 1260.43 133.852 1260.06 135.074C1259.69 136.296 1258.97 137.382 1257.98 138.195C1257 139.008 1255.8 139.511 1254.54 139.641C1253.27 139.77 1252 139.521 1250.88 138.924C1249.76 138.326 1248.85 137.408 1248.25 136.285C1247.65 135.163 1247.4 133.885 1247.53 132.615C1247.65 131.345 1248.15 130.14 1248.96 129.15C1249.77 128.161 1250.85 127.433 1252.06 127.059C1253.69 126.556 1255.45 126.724 1256.95 127.525C1258.45 128.326 1259.57 129.694 1260.07 131.329Z" fill="#D0D4D9" fill-opacity="0.6"/>
</g>
<path opacity="0.320836" d="M1254.76 132.971L1253.1 133.477L1321.83 358.991L1323.49 358.485L1254.76 132.971Z" fill="#D0D4D9" fill-opacity="0.6"/>
<g opacity="0.899716">
<path opacity="0.899716" d="M1328.82 356.843C1329.19 358.062 1329.19 359.366 1328.82 360.588C1328.45 361.81 1327.72 362.896 1326.74 363.709C1325.76 364.522 1324.56 365.025 1323.29 365.155C1322.03 365.284 1320.76 365.035 1319.64 364.437C1318.52 363.84 1317.6 362.922 1317.01 361.799C1316.41 360.676 1316.16 359.399 1316.28 358.129C1316.41 356.859 1316.91 355.653 1317.71 354.664C1318.52 353.675 1319.6 352.947 1320.82 352.572C1322.45 352.07 1324.21 352.238 1325.71 353.039C1327.21 353.839 1328.33 355.208 1328.82 356.843Z" fill="#D0D4D9" fill-opacity="0.6"/>
</g>
<path opacity="0.22822" d="M1373.2 254.503L1321.92 358.373L1323.45 359.127L1374.73 255.257L1373.2 254.503Z" fill="#D0D4D9" fill-opacity="0.6"/>
<g opacity="0.783568">
<path opacity="0.783568" d="M1374.89 261.239C1378.42 260.708 1380.87 257.435 1380.36 253.929C1379.86 250.423 1376.59 248.012 1373.06 248.543C1369.54 249.075 1367.09 252.347 1367.59 255.853C1368.1 259.359 1371.37 261.771 1374.89 261.239Z" fill="#D0D4D9" fill-opacity="0.6"/>
</g>
<path opacity="0.856333" d="M1600.52 83.074L1600.4 84.7843L1463.54 75.8734L1374.79 255.618L1373.26 254.862L1462.51 74.0884L1600.52 83.074Z" fill="#D0D4D9" fill-opacity="0.6"/>
<path opacity="0.921795" d="M1601.02 83.6901L1540.17 21.3467L1537.35 20.9126L1599.8 84.8918L1601.02 83.6901Z" fill="#D0D4D9" fill-opacity="0.6"/>
<path opacity="0.356486" d="M955.178 56.172L1196.05 -32.3319L1192.55 -32.8711L954.595 54.5605L955.178 56.172Z" fill="#D0D4D9" fill-opacity="0.6"/>
<path opacity="0.449774" d="M1294.79 67.5907L954.876 54.178L954.808 55.9086L1294.72 69.3213L1294.79 67.5907Z" fill="#D0D4D9" fill-opacity="0.6"/>
<g opacity="0.401693">
<path opacity="0.401693" d="M1295.03 62.016C1296.3 62.063 1297.52 62.4871 1298.55 63.2345C1299.57 63.9819 1300.35 65.0191 1300.79 66.2149C1301.22 67.4108 1301.3 68.7115 1301 69.9527C1300.7 71.1939 1300.04 72.3197 1299.1 73.1879C1298.17 74.0561 1297 74.6276 1295.75 74.8301C1294.49 75.0326 1293.21 74.8571 1292.05 74.3257C1290.9 73.7944 1289.93 72.931 1289.27 71.8449C1288.61 70.7587 1288.29 69.4985 1288.34 68.2237C1288.41 66.5142 1289.16 64.8999 1290.41 63.7358C1291.66 62.5716 1293.32 61.953 1295.03 62.016Z" fill="#D0D4D9" fill-opacity="0.6"/>
</g>
<path opacity="0.805188" d="M1462.84 74.2288L1294.8 67.6018L1294.73 69.3319L1462.77 75.9588L1462.84 74.2288Z" fill="#D0D4D9" fill-opacity="0.6"/>
<g opacity="0.815113">
<path opacity="0.815113" d="M1463.08 68.653C1464.35 68.7 1465.57 69.1241 1466.6 69.8715C1467.63 70.6189 1468.41 71.6561 1468.84 72.8519C1469.28 74.0478 1469.35 75.3485 1469.05 76.5897C1468.75 77.8308 1468.09 78.9567 1467.16 79.8249C1466.22 80.693 1465.06 81.2645 1463.8 81.467C1462.55 81.6696 1461.26 81.494 1460.11 80.9627C1458.96 80.4313 1457.99 79.5679 1457.33 78.4818C1456.67 77.3956 1456.34 76.1354 1456.4 74.8605C1456.47 73.1511 1457.21 71.5368 1458.47 70.3727C1459.72 69.2086 1461.38 68.59 1463.08 68.653Z" fill="#D0D4D9" fill-opacity="0.6"/>
</g>
<path opacity="0.639901" d="M1462.34 74.4188L1363.03 143.201L1364 144.601L1463.31 75.8181L1462.34 74.4188Z" fill="#D0D4D9" fill-opacity="0.6"/>
<g opacity="0.929103">
<path opacity="0.929103" d="M1367.18 149.211C1366.14 149.941 1364.9 150.344 1363.63 150.369C1362.36 150.395 1361.11 150.041 1360.05 149.354C1358.98 148.666 1358.14 147.675 1357.64 146.507C1357.14 145.338 1356.99 144.044 1357.22 142.788C1357.45 141.532 1358.04 140.371 1358.93 139.451C1359.81 138.531 1360.95 137.894 1362.19 137.621C1363.43 137.347 1364.72 137.449 1365.9 137.913C1367.08 138.378 1368.1 139.185 1368.82 140.231C1369.79 141.634 1370.16 143.369 1369.85 145.053C1369.54 146.737 1368.58 148.233 1367.18 149.211Z" fill="#D0D4D9" fill-opacity="0.6"/>
</g>
<path opacity="0.832256" d="M1363.07 143.237L1274.46 204.61L1275.43 206.009L1364.04 144.636L1363.07 143.237Z" fill="#D0D4D9" fill-opacity="0.6"/>
<g opacity="0.650612">
<path opacity="0.650612" d="M1278.6 210.616C1277.56 211.346 1276.32 211.749 1275.05 211.774C1273.78 211.8 1272.53 211.446 1271.47 210.759C1270.4 210.071 1269.56 209.08 1269.06 207.912C1268.56 206.743 1268.41 205.449 1268.64 204.193C1268.87 202.937 1269.46 201.776 1270.35 200.856C1271.23 199.936 1272.37 199.299 1273.61 199.026C1274.85 198.752 1276.14 198.854 1277.32 199.318C1278.5 199.783 1279.52 200.59 1280.24 201.636C1281.21 203.039 1281.58 204.774 1281.27 206.458C1280.96 208.142 1280 209.638 1278.6 210.616Z" fill="#D0D4D9" fill-opacity="0.6"/>
</g>
<path opacity="0.671925" d="M1274.49 204.649L1151.06 290.135L1152.03 291.535L1275.46 206.049L1274.49 204.649Z" fill="#D0D4D9" fill-opacity="0.6"/>
<g opacity="0.569208">
<path opacity="0.569208" d="M1155.22 296.15C1154.17 296.88 1152.93 297.283 1151.67 297.308C1150.4 297.333 1149.15 296.98 1148.08 296.292C1147.02 295.605 1146.18 294.614 1145.67 293.446C1145.17 292.277 1145.02 290.983 1145.25 289.727C1145.48 288.471 1146.08 287.31 1146.96 286.39C1147.85 285.47 1148.98 284.833 1150.22 284.559C1151.46 284.286 1152.76 284.387 1153.94 284.852C1155.12 285.317 1156.13 286.123 1156.85 287.17C1157.82 288.573 1158.19 290.307 1157.89 291.991C1157.58 293.675 1156.62 295.171 1155.22 296.15Z" fill="#D0D4D9" fill-opacity="0.6"/>
</g>
<path opacity="0.742891" d="M1045.91 255.212L1150.54 291.775L1151.11 290.157L1047.18 253.838L924.662 -230.799L922.658 -231.108L1045.76 254.872L1045.91 255.212Z" fill="#D0D4D9" fill-opacity="0.6"/>
<path opacity="0.711723" d="M1233.71 67.6295L1314.29 -13.7885L1312.21 -14.1096L1232.5 66.4235L1233.71 67.6295Z" fill="#D0D4D9" fill-opacity="0.6"/>
<g opacity="0.954145">
<path opacity="0.954145" d="M1237.63 71.4333C1236.73 72.3408 1235.59 72.9622 1234.35 73.2188C1233.1 73.4753 1231.81 73.3555 1230.64 72.8746C1229.46 72.3936 1228.46 71.5731 1227.75 70.5167C1227.04 69.4603 1226.67 68.2156 1226.66 66.9399C1226.66 65.6642 1227.04 64.4149 1227.74 63.3498C1228.45 62.2848 1229.45 61.4519 1230.62 60.9565C1231.79 60.4611 1233.09 60.3255 1234.33 60.5667C1235.58 60.8079 1236.72 61.4152 1237.62 62.3117C1238.83 63.514 1239.5 65.1504 1239.51 66.8609C1239.51 68.5715 1238.83 70.2162 1237.63 71.4333Z" fill="#D0D4D9" fill-opacity="0.6"/>
</g>
<path opacity="0.483165" d="M1232.48 66.2985L1199.8 99.2019L1201.01 100.403L1233.69 67.4992L1232.48 66.2985Z" fill="#D0D4D9" fill-opacity="0.6"/>
<g opacity="0.251043">
<path opacity="0.251043" d="M1204.95 104.334C1204.05 105.241 1202.91 105.863 1201.67 106.119C1200.42 106.376 1199.13 106.256 1197.95 105.775C1196.78 105.294 1195.78 104.474 1195.07 103.417C1194.36 102.361 1193.99 101.116 1193.98 99.8407C1193.98 98.565 1194.36 97.3157 1195.06 96.2506C1195.77 95.1855 1196.77 94.3526 1197.94 93.8572C1199.11 93.3618 1200.4 93.2261 1201.65 93.4673C1202.9 93.7085 1204.04 94.3157 1204.94 95.2122C1206.15 96.4145 1206.82 98.0508 1206.83 99.7614C1206.83 101.472 1206.15 103.117 1204.95 104.334Z" fill="#D0D4D9" fill-opacity="0.6"/>
</g>
<path opacity="0.239653" d="M1199.81 99.2054L1046.35 253.672L1047.56 254.872L1201.02 100.406L1199.81 99.2054Z" fill="#D0D4D9" fill-opacity="0.6"/>
<g opacity="0.79485">
<path opacity="0.79485" d="M1051.51 258.81C1050.61 259.717 1049.47 260.339 1048.23 260.595C1046.98 260.852 1045.69 260.732 1044.52 260.251C1043.34 259.77 1042.34 258.949 1041.63 257.893C1040.92 256.836 1040.55 255.592 1040.54 254.316C1040.54 253.04 1040.92 251.791 1041.62 250.726C1042.33 249.661 1043.33 248.828 1044.5 248.333C1045.67 247.837 1046.97 247.702 1048.21 247.943C1049.46 248.184 1050.6 248.792 1051.5 249.688C1052.71 250.89 1053.39 252.527 1053.39 254.237C1053.39 255.948 1052.71 257.593 1051.51 258.81Z" fill="#D0D4D9" fill-opacity="0.6"/>
</g>
<path opacity="0.568358" d="M1092.09 80.4882L1046.14 254.063L1047.79 254.499L1093.73 80.9234L1092.09 80.4882Z" fill="#D0D4D9" fill-opacity="0.6"/>
<g opacity="0.965084">
<path opacity="0.965084" d="M1098.35 84.106C1100.24 81.0822 1099.33 77.1106 1096.33 75.235C1093.32 73.3595 1089.35 74.2903 1087.46 77.314C1085.58 80.3378 1086.48 84.3095 1089.49 86.185C1092.5 88.0606 1096.46 87.1297 1098.35 84.106Z" fill="#D0D4D9" fill-opacity="0.6"/>
</g>
<path opacity="0.773664" d="M1097.56 59.8361L1092.08 80.4951L1093.73 80.93L1099.2 60.271L1097.56 59.8361Z" fill="#D0D4D9" fill-opacity="0.6"/>
<g opacity="0.769702">
<path opacity="0.769702" d="M1092.18 58.4208C1092.5 57.1868 1093.19 56.0763 1094.14 55.2299C1095.1 54.3835 1096.28 53.8391 1097.54 53.6655C1098.8 53.492 1100.08 53.6971 1101.22 54.255C1102.35 54.8129 1103.3 55.6984 1103.94 56.7997C1104.57 57.9009 1104.87 59.1684 1104.79 60.4418C1104.7 61.7152 1104.25 62.9374 1103.48 63.9537C1102.7 64.9701 1101.65 65.735 1100.45 66.1518C1099.24 66.5685 1097.95 66.6184 1096.72 66.295C1095.08 65.8613 1093.67 64.7881 1092.82 63.3114C1091.97 61.8348 1091.74 60.0756 1092.18 58.4208Z" fill="#D0D4D9" fill-opacity="0.6"/>
</g>
<path opacity="0.94539" d="M1114.33 -3.54359L1097.55 59.8418L1099.2 60.2768L1115.98 -3.10855L1114.33 -3.54359Z" fill="#D0D4D9" fill-opacity="0.6"/>
<g opacity="0.845728">
<path opacity="0.845728" d="M1108.95 -4.95705C1109.28 -6.1911 1109.96 -7.30156 1110.92 -8.14801C1111.87 -8.99446 1113.05 -9.53888 1114.31 -9.71241C1115.57 -9.88595 1116.85 -9.6808 1117.99 -9.12294C1119.13 -8.56507 1120.08 -7.67953 1120.71 -6.57829C1121.35 -5.47706 1121.65 -4.20959 1121.56 -2.93617C1121.48 -1.66276 1121.02 -0.44059 1120.25 0.575783C1119.48 1.59216 1118.42 2.35708 1117.22 2.77383C1116.02 3.19058 1114.72 3.24044 1113.5 2.91709C1111.85 2.48332 1110.45 1.41011 1109.6 -0.0665191C1108.74 -1.54315 1108.51 -3.30228 1108.95 -4.95705Z" fill="#D0D4D9" fill-opacity="0.6"/>
</g>
<path opacity="0.969718" d="M1235.33 56.7451C1238.05 57.1706 1240.49 58.6539 1242.12 60.874C1243.76 63.0942 1244.45 65.8724 1244.05 68.6074C1243.65 71.3425 1242.2 73.8141 1240 75.4874C1237.8 77.1607 1235.04 77.9009 1232.31 77.5479C1229.58 77.1949 1227.1 75.777 1225.41 73.6012C1223.72 71.4254 1222.95 68.6667 1223.28 65.9223C1223.6 63.178 1224.99 60.6687 1227.15 58.9378C1229.3 57.207 1232.04 56.3936 1234.78 56.674C1234.97 56.6932 1235.15 56.7168 1235.33 56.7451ZM1232.24 76.2298C1232.39 76.2546 1232.56 76.2752 1232.72 76.2916C1235.14 76.5399 1237.57 75.8123 1239.46 74.2689C1241.35 72.7254 1242.56 70.4926 1242.82 68.0616C1243.07 65.6306 1242.36 63.2005 1240.82 61.306C1239.29 59.4114 1237.07 58.2076 1234.65 57.9593C1232.27 57.7154 1229.88 58.4137 1228 59.9057C1226.12 61.3977 1224.89 63.5655 1224.57 65.9472C1224.26 68.3289 1224.88 70.7365 1226.32 72.6571C1227.75 74.5777 1229.87 75.8596 1232.24 76.2298Z" fill="#D0D4D9" fill-opacity="0.6"/>
<path opacity="0.969718" d="M956.445 45.1382C958.278 45.3262 960.013 46.0555 961.431 47.2338C962.848 48.4122 963.883 49.9868 964.406 51.7585C964.929 53.5301 964.916 55.4192 964.368 57.1869C963.82 58.9547 962.763 60.5216 961.329 61.6896C959.896 62.8576 958.15 63.5742 956.314 63.7488C954.478 63.9234 952.633 63.5481 951.013 62.6704C949.393 61.7927 948.07 60.4521 947.213 58.8179C946.355 57.1838 946 55.3297 946.194 53.4899C946.454 51.023 947.68 48.7572 949.602 47.191C951.524 45.6248 953.986 44.8864 956.445 45.1382Z" fill="#D0D4D9" fill-opacity="0.6"/>
<path opacity="0.969718" d="M957.656 40.6628C961.266 41.2273 964.505 43.1961 966.671 46.1428C968.837 49.0894 969.755 52.777 969.228 56.4072C968.701 60.0374 966.77 63.3182 963.853 65.5392C960.937 67.7603 957.269 68.7429 953.645 68.2745C950.02 67.8061 946.73 65.9242 944.487 63.0364C942.244 60.1485 941.228 56.4869 941.66 52.8443C942.091 49.2017 943.935 45.8711 946.792 43.5736C949.649 41.2761 953.29 40.1964 956.926 40.5684C957.171 40.594 957.415 40.6252 957.656 40.6628ZM953.545 66.524C953.757 66.557 953.97 66.5843 954.186 66.6061C955.778 66.7701 957.389 66.6177 958.925 66.1575C960.461 65.6973 961.893 64.9383 963.139 63.924C964.384 62.9096 965.419 61.6598 966.184 60.2458C966.949 58.8319 967.43 57.2815 967.598 55.6834C967.766 54.0852 967.619 52.4705 967.164 50.9316C966.71 49.3927 965.957 47.9597 964.949 46.7145C963.942 45.4692 962.698 44.4362 961.291 43.6743C959.883 42.9125 958.339 42.4368 956.746 42.2744C953.585 41.9506 950.419 42.8775 947.922 44.8577C945.425 46.838 943.794 49.7151 943.377 52.8764C942.96 56.0376 943.789 59.233 945.689 61.7822C947.588 64.3313 950.407 66.0327 953.545 66.524Z" fill="#D0D4D9" fill-opacity="0.6"/>
</g>
<path opacity="0.576199" d="M611.467 362.732L611.157 364.781L720.684 381.293L720.993 379.244L611.467 362.732Z" fill="#F3F3F9"/>
<g opacity="0.740749">
<path opacity="0.740749" d="M724.011 372.595C725.522 372.821 726.93 373.492 728.058 374.524C729.186 375.556 729.983 376.901 730.347 378.391C730.712 379.881 730.628 381.447 730.106 382.893C729.584 384.339 728.648 385.598 727.416 386.513C726.184 387.427 724.711 387.955 723.184 388.03C721.657 388.104 720.144 387.723 718.836 386.933C717.529 386.143 716.485 384.98 715.838 383.592C715.191 382.203 714.969 380.652 715.201 379.133C715.511 377.096 716.614 375.263 718.266 374.037C719.918 372.811 721.985 372.293 724.011 372.595Z" fill="#F3F3F9"/>
</g>
<path opacity="0.653462" fill-rule="evenodd" clip-rule="evenodd" d="M1072.05 434.408L1160.18 447.664L898.126 179.86L896.657 181.308L1154.37 444.703L1072.34 432.364L1072.05 434.408ZM816.099 395.907L816.386 393.865L721.069 379.527L720.76 381.567L816.099 395.907Z" fill="#F3F3F9"/>
<g opacity="0.470438">
<path opacity="0.470438" d="M794.941 89.5756C793.87 88.4842 793.147 87.097 792.863 85.5894C792.579 84.0817 792.746 82.5214 793.345 81.1057C793.943 79.69 794.945 78.4824 796.224 77.6358C797.503 76.7892 799.002 76.3415 800.53 76.3493C802.059 76.3571 803.549 76.8202 804.812 77.6798C806.075 78.5395 807.054 79.7572 807.626 81.1789C808.197 82.6006 808.336 84.1625 808.023 85.6671C807.711 87.1716 806.962 88.5513 805.871 89.6316C804.408 91.0799 802.434 91.8877 800.384 91.8772C798.335 91.8667 796.376 91.0388 794.941 89.5756Z" fill="#F3F3F9"/>
</g>
<path opacity="0.726273" fill-rule="evenodd" clip-rule="evenodd" d="M740.417 310.912L799.47 83.8532L801.454 84.3687L742.424 311.34L740.417 310.912ZM729.437 353.129L685.896 520.548L687.88 521.063L731.445 353.557L729.437 353.129Z" fill="#F3F3F9"/>
<g opacity="0.667884">
<path opacity="0.667884" d="M694.367 522.74C693.979 524.227 693.162 525.567 692.018 526.591C690.874 527.614 689.455 528.275 687.94 528.49C686.426 528.705 684.884 528.465 683.509 527.799C682.134 527.133 680.989 526.072 680.218 524.749C679.446 523.427 679.084 521.903 679.176 520.37C679.267 518.836 679.81 517.363 680.734 516.136C681.658 514.908 682.923 513.983 684.367 513.475C685.812 512.967 687.373 512.901 688.852 513.284C690.834 513.798 692.529 515.083 693.564 516.856C694.598 518.629 694.887 520.746 694.367 522.74Z" fill="#F3F3F9"/>
</g>
<path opacity="0.836763" d="M960.004 391L686.453 519.883L687.326 521.734L960.877 392.851L960.004 391Z" fill="#F3F3F9"/>
<g opacity="0.484253">
<path opacity="0.484253" d="M1104.98 22.2449C1106.37 21.5872 1107.91 21.3557 1109.43 21.5797C1110.94 21.8038 1112.35 22.4733 1113.48 23.5036C1114.6 24.5339 1115.4 25.8788 1115.77 27.3681C1116.13 28.8574 1116.05 30.4243 1115.53 31.8706C1115.01 33.3169 1114.08 34.5776 1112.85 35.4934C1111.62 36.4092 1110.14 36.9389 1108.62 37.0155C1107.09 37.0921 1105.58 36.7122 1104.27 35.9238C1102.96 35.1354 1101.91 33.9738 1101.27 32.5862C1100.4 30.7254 1100.3 28.5906 1101 26.6513C1101.69 24.712 1103.13 23.1271 1104.98 22.2449Z" fill="#F3F3F9"/>
</g>
<g opacity="0.519867">
<path opacity="0.519867" d="M1309.38 219.042C1310.76 218.384 1312.31 218.153 1313.82 218.377C1315.33 218.601 1316.74 219.271 1317.87 220.301C1319 221.331 1319.8 222.676 1320.16 224.166C1320.53 225.655 1320.45 227.222 1319.93 228.668C1319.41 230.114 1318.47 231.375 1317.24 232.291C1316.01 233.207 1314.54 233.736 1313.01 233.813C1311.48 233.889 1309.97 233.51 1308.66 232.721C1307.35 231.933 1306.31 230.771 1305.66 229.384C1304.79 227.523 1304.69 225.388 1305.39 223.449C1306.09 221.509 1307.52 219.924 1309.38 219.042Z" fill="#F3F3F9"/>
</g>
<path opacity="0.563344" d="M1356.06 206.673L1313.09 227.038L1312.21 225.17L1347.78 208.315L1287.38 205.194L1287.49 203.129L1356.06 206.673Z" fill="#F3F3F9" fill-opacity="0.7"/>
<g opacity="0.908346">
<path opacity="0.908346" d="M1286.98 211.914C1285.45 211.836 1283.98 211.306 1282.76 210.389C1281.54 209.473 1280.62 208.212 1280.11 206.765C1279.6 205.318 1279.53 203.752 1279.91 202.263C1280.29 200.773 1281.11 199.429 1282.24 198.399C1283.38 197.37 1284.8 196.701 1286.31 196.478C1287.82 196.255 1289.37 196.487 1290.75 197.146C1292.12 197.804 1293.28 198.859 1294.05 200.178C1294.83 201.496 1295.2 203.018 1295.12 204.552C1295.01 206.608 1294.09 208.539 1292.56 209.92C1291.03 211.301 1289.02 212.018 1286.98 211.914Z" fill="#F3F3F9"/>
</g>
<path opacity="0.603303" d="M1287.45 203.116L1156.12 193.942L1156.01 196.016L1287.34 205.19L1287.45 203.116Z" fill="#F3F3F9"/>
<g opacity="0.657548">
<path opacity="0.657548" d="M1154.84 204.015C1153.31 203.938 1151.85 203.407 1150.63 202.491C1149.4 201.574 1148.48 200.313 1147.97 198.866C1147.47 197.42 1147.4 195.853 1147.78 194.364C1148.16 192.875 1148.97 191.53 1150.11 190.501C1151.25 189.471 1152.66 188.802 1154.17 188.579C1155.69 188.356 1157.23 188.588 1158.61 189.247C1159.99 189.906 1161.14 190.961 1161.92 192.279C1162.7 193.597 1163.07 195.12 1162.98 196.653C1162.87 198.71 1161.95 200.64 1160.42 202.021C1158.9 203.402 1156.89 204.119 1154.84 204.015Z" fill="#F3F3F9"/>
</g>
<path opacity="0.849423" d="M993.103 184.904L777.452 176.262L777.342 178.336L992.993 186.979L993.103 184.904Z" fill="#F3F3F9"/>
<g opacity="0.58069">
<path opacity="0.58069" d="M776.966 185.023C775.44 184.946 773.973 184.415 772.75 183.499C771.527 182.582 770.604 181.321 770.098 179.874C769.591 178.427 769.523 176.86 769.903 175.371C770.283 173.882 771.094 172.538 772.232 171.508C773.371 170.479 774.786 169.81 776.3 169.587C777.813 169.364 779.357 169.596 780.735 170.254C782.113 170.913 783.264 171.968 784.043 173.286C784.821 174.605 785.192 176.127 785.108 177.661C784.995 179.717 784.074 181.648 782.548 183.029C781.021 184.41 779.013 185.127 776.966 185.023Z" fill="#F3F3F9"/>
</g>
<path opacity="0.979603" fill-rule="evenodd" clip-rule="evenodd" d="M776.504 177.828L778.253 176.729L827.119 254.415L825.384 255.537L776.504 177.828ZM903.21 379.262L922.52 409.961L924.269 408.862L904.945 378.141L903.21 379.262Z" fill="#F3F3F9"/>
<g opacity="0.685416">
<path opacity="0.685416" d="M929.937 405.276C930.748 406.575 931.156 408.087 931.11 409.622C931.063 411.157 930.565 412.646 929.678 413.9C928.791 415.155 927.554 416.118 926.125 416.669C924.696 417.22 923.138 417.333 921.648 416.995C920.158 416.656 918.804 415.881 917.756 414.768C916.708 413.654 916.014 412.252 915.761 410.739C915.508 409.226 915.708 407.669 916.336 406.266C916.963 404.863 917.99 403.677 919.286 402.857C921.024 401.757 923.122 401.395 925.12 401.848C927.117 402.302 928.85 403.535 929.937 405.276Z" fill="#F3F3F9"/>
</g>
<g opacity="0.8493">
<path opacity="0.8493" d="M849.772 558.451C849.029 559.796 847.907 560.892 846.547 561.6C845.187 562.307 843.651 562.595 842.132 562.426C840.614 562.257 839.181 561.639 838.015 560.651C836.85 559.662 836.003 558.348 835.584 556.873C835.164 555.398 835.189 553.83 835.657 552.366C836.125 550.902 837.013 549.608 838.211 548.648C839.408 547.688 840.861 547.105 842.384 546.973C843.908 546.841 845.434 547.166 846.77 547.906C848.562 548.898 849.885 550.567 850.448 552.544C851.011 554.522 850.768 556.647 849.772 558.451Z" fill="#F3F3F9"/>
</g>
<path opacity="0.984283" d="M994.956 420.69L842.338 553.94L843.689 555.485L996.307 422.235L994.956 420.69Z" fill="#F3F3F9"/>
<g opacity="0.760004">
<path opacity="0.760004" d="M990.557 415.63C991.711 414.617 993.136 413.969 994.652 413.768C996.169 413.567 997.708 413.823 999.077 414.501C1000.44 415.18 1001.58 416.252 1002.34 417.582C1003.1 418.912 1003.45 420.439 1003.34 421.972C1003.23 423.504 1002.68 424.972 1001.74 426.191C1000.81 427.409 999.534 428.324 998.084 428.817C996.635 429.311 995.074 429.363 993.599 428.966C992.124 428.569 990.801 427.741 989.798 426.587C988.453 425.039 987.777 423.015 987.92 420.96C988.062 418.905 989.011 416.988 990.557 415.63Z" fill="#F3F3F9"/>
</g>
<path opacity="0.27286" d="M1068.94 356.096L994.953 420.697L996.304 422.242L1070.29 357.642L1068.94 356.096Z" fill="#F3F3F9"/>
<g opacity="0.576038">
<path opacity="0.576038" d="M1064.54 351.036C1065.69 350.023 1067.12 349.375 1068.64 349.175C1070.15 348.974 1071.69 349.229 1073.06 349.908C1074.43 350.587 1075.56 351.659 1076.32 352.988C1077.08 354.318 1077.43 355.846 1077.32 357.378C1077.22 358.91 1076.66 360.379 1075.73 361.597C1074.79 362.816 1073.52 363.73 1072.07 364.224C1070.62 364.718 1069.06 364.77 1067.58 364.373C1066.11 363.975 1064.79 363.147 1063.78 361.993C1062.44 360.445 1061.76 358.421 1061.9 356.366C1062.05 354.312 1063 352.394 1064.54 351.036Z" fill="#F3F3F9"/>
</g>
<path opacity="0.495233" fill-rule="evenodd" clip-rule="evenodd" d="M1015.59 62.1929L1012.54 62.3966L1077.83 -5.4524L1084.12 57.6193L1082.07 57.7565L1076.23 -0.814773L1015.59 62.1929Z" fill="#F3F3F9"/>
<g opacity="0.961224">
<path opacity="0.961224" d="M902.533 189.112C901.47 190.221 900.105 190.989 898.611 191.319C897.117 191.65 895.56 191.529 894.138 190.971C892.717 190.413 891.493 189.443 890.623 188.184C889.753 186.925 889.276 185.434 889.251 183.898C889.225 182.363 889.654 180.853 890.483 179.558C891.311 178.264 892.502 177.244 893.904 176.627C895.307 176.01 896.858 175.824 898.362 176.092C899.866 176.361 901.255 177.071 902.354 178.134C903.827 179.56 904.673 181.518 904.706 183.576C904.74 185.635 903.958 187.626 902.533 189.112Z" fill="#F3F3F9"/>
</g>
<path opacity="0.635578" d="M872.277 68.0189L870.227 68.4761L895.942 183.965L897.993 183.508L872.277 68.0189Z" fill="#F3F3F9"/>
<g opacity="0.640366">
<path opacity="0.640366" d="M863.692 69.9507C863.363 68.4526 863.484 66.8881 864.04 65.4552C864.596 64.0223 865.562 62.7853 866.815 61.9006C868.068 61.016 869.553 60.5234 871.081 60.4851C872.61 60.4469 874.113 60.8648 875.401 61.6858C876.69 62.5069 877.705 63.6944 878.319 65.098C878.933 66.5016 879.118 68.0584 878.85 69.5715C878.583 71.0846 877.875 72.486 876.817 73.5986C875.758 74.7111 874.397 75.4848 872.904 75.8218C870.902 76.2735 868.807 75.9087 867.079 74.8077C865.352 73.7067 864.134 71.9596 863.692 69.9507Z" fill="#F3F3F9"/>
</g>
<path opacity="0.703626" d="M848.178 -40.1129L846.128 -39.6558L870.204 68.4742L872.254 68.0171L848.178 -40.1129Z" fill="#F3F3F9"/>
<path opacity="0.75419" d="M1389.03 164.153L1158.34 447.146L1156.75 445.844L1386.54 163.955L1323.37 43.7807L1325.15 42.746L1389.03 164.153Z" fill="#F3F3F9" fill-opacity="0.5"/>
<g opacity="0.945532">
<path opacity="0.945532" d="M1163.48 451.05C1162.51 452.242 1161.21 453.119 1159.74 453.571C1158.28 454.023 1156.72 454.029 1155.26 453.59C1153.79 453.151 1152.5 452.285 1151.53 451.102C1150.56 449.919 1149.96 448.472 1149.81 446.945C1149.66 445.417 1149.96 443.877 1150.68 442.52C1151.41 441.162 1152.51 440.048 1153.86 439.319C1155.21 438.589 1156.74 438.277 1158.26 438.421C1159.78 438.565 1161.22 439.159 1162.4 440.128C1163.99 441.427 1164.99 443.308 1165.19 445.357C1165.39 447.405 1164.78 449.453 1163.48 451.05Z" fill="#F3F3F9"/>
</g>
<path opacity="0.998997" d="M1132.01 390.008L1130.07 390.734L1156.54 446.495L1158.48 445.77L1132.01 390.008Z" fill="#F3F3F9"/>
<g opacity="0.548529">
<path opacity="0.548529" d="M1055.69 195.593C1055.15 194.155 1055.06 192.59 1055.42 191.095C1055.77 189.6 1056.56 188.242 1057.68 187.193C1058.8 186.144 1060.2 185.451 1061.71 185.202C1063.22 184.953 1064.77 185.159 1066.16 185.794C1067.55 186.429 1068.72 187.464 1069.52 188.769C1070.32 190.073 1070.72 191.589 1070.66 193.124C1070.6 194.658 1070.09 196.143 1069.19 197.391C1068.3 198.638 1067.05 199.592 1065.62 200.132C1063.7 200.856 1061.57 200.784 1059.71 199.933C1057.85 199.082 1056.4 197.521 1055.69 195.593Z" fill="#F3F3F9"/>
</g>
<path opacity="0.676251" d="M1014.31 61.697L1012.36 62.4236L1061.98 195.217L1063.92 194.491L1014.31 61.697Z" fill="#F3F3F9"/>
<g opacity="0.442594">
<path opacity="0.442594" d="M1007.1 64.7801C1006.57 63.3425 1006.47 61.7772 1006.83 60.282C1007.18 58.7868 1007.97 57.4288 1009.09 56.3799C1010.21 55.331 1011.62 54.6383 1013.13 54.3892C1014.64 54.1402 1016.18 54.346 1017.57 54.9808C1018.96 55.6155 1020.13 56.6507 1020.93 57.9553C1021.73 59.2599 1022.13 60.7753 1022.07 62.3101C1022.01 63.8448 1021.5 65.3298 1020.61 66.5774C1019.71 67.8249 1018.47 68.779 1017.03 69.3189C1015.11 70.0427 1012.98 69.9711 1011.12 69.1199C1009.26 68.2688 1007.81 66.7077 1007.1 64.7801Z" fill="#F3F3F9"/>
</g>
<g opacity="0.546915">
<path opacity="0.546915" d="M1279.67 298.684C1280.76 299.752 1281.51 301.124 1281.83 302.625C1282.14 304.126 1282.01 305.689 1281.44 307.117C1280.87 308.545 1279.89 309.773 1278.63 310.647C1277.37 311.52 1275.88 311.999 1274.35 312.024C1272.83 312.048 1271.33 311.617 1270.05 310.784C1268.76 309.951 1267.76 308.755 1267.16 307.345C1266.56 305.936 1266.39 304.378 1266.67 302.867C1266.95 301.356 1267.67 299.961 1268.74 298.858C1270.17 297.379 1272.13 296.53 1274.18 296.497C1276.23 296.465 1278.2 297.251 1279.67 298.684Z" fill="#F3F3F9"/>
</g>
<path opacity="0.406868" fill-rule="evenodd" clip-rule="evenodd" d="M1038.01 -38.8541L1039.45 -40.3336L1169.05 86.8163L1167.48 88.1618L1038.01 -38.8541ZM1255.03 174.056L1308.99 227.001L1310.43 225.521L1256.6 172.711L1255.03 174.056Z" fill="#F3F3F9"/>
<path opacity="0.768117" d="M1274 304.011L1274.87 305.866L1353.69 267.854L1352.82 265.999L1274 304.011Z" fill="#F3F3F9"/>
<g opacity="0.605484">
<path opacity="0.605484" d="M1358.85 260.824C1359.94 261.893 1360.7 263.264 1361.01 264.765C1361.33 266.267 1361.19 267.83 1360.62 269.258C1360.06 270.686 1359.08 271.914 1357.82 272.787C1356.56 273.661 1355.07 274.14 1353.54 274.165C1352.01 274.189 1350.51 273.758 1349.23 272.925C1347.95 272.092 1346.94 270.896 1346.34 269.486C1345.74 268.077 1345.57 266.519 1345.85 265.008C1346.13 263.497 1346.85 262.102 1347.92 260.999C1349.35 259.52 1351.31 258.671 1353.36 258.638C1355.41 258.605 1357.38 259.392 1358.85 260.824Z" fill="#F3F3F9"/>
</g>
<path opacity="0.886214" d="M1353.14 207.53L1351.1 207.577L1352.42 266.428L1354.45 266.381L1353.14 207.53Z" fill="#F3F3F9"/>
<g opacity="0.634812">
<path opacity="0.634812" d="M1344.38 207.751C1344.35 206.216 1344.77 204.704 1345.59 203.406C1346.42 202.109 1347.6 201.084 1349 200.461C1350.4 199.838 1351.95 199.645 1353.46 199.907C1354.96 200.169 1356.36 200.874 1357.46 201.933C1358.56 202.991 1359.33 204.356 1359.66 205.854C1359.98 207.352 1359.86 208.916 1359.31 210.349C1358.75 211.782 1357.79 213.019 1356.53 213.904C1355.28 214.789 1353.79 215.281 1352.27 215.319C1350.22 215.37 1348.24 214.602 1346.76 213.182C1345.28 211.763 1344.42 209.809 1344.38 207.751Z" fill="#F3F3F9"/>
</g>
<path opacity="0.250338" d="M1350.53 93.0231L1348.5 93.0696L1351.07 207.585L1353.11 207.538L1350.53 93.0231Z" fill="#F3F3F9"/>
<g opacity="0.704983">
<path opacity="0.704983" d="M1341.77 93.2435C1341.74 91.7084 1342.16 90.1963 1342.98 88.8986C1343.8 87.6009 1344.99 86.5758 1346.39 85.953C1347.79 85.3302 1349.34 85.1376 1350.85 85.3996C1352.35 85.6616 1353.74 86.3664 1354.85 87.4249C1355.95 88.4834 1356.71 89.848 1357.04 91.3462C1357.37 92.8445 1357.25 94.409 1356.7 95.8419C1356.14 97.2748 1355.17 98.5119 1353.92 99.3966C1352.67 100.281 1351.18 100.774 1349.65 100.812C1347.6 100.863 1345.62 100.094 1344.14 98.675C1342.66 97.2557 1341.81 95.302 1341.77 93.2435Z" fill="#F3F3F9"/>
</g>
<path opacity="0.84062" d="M1077.35 -4.00069L1076.67 -2.04932L1349.15 94.0222L1349.84 92.0708L1077.35 -4.00069Z" fill="#F3F3F9"/>
<g opacity="0.821589">
<path opacity="0.821589" d="M1074.42 4.2988C1072.98 3.79105 1071.72 2.86494 1070.81 1.6376C1069.89 0.410246 1069.37 -1.06322 1069.29 -2.59648C1069.21 -4.12973 1069.58 -5.65391 1070.37 -6.97628C1071.15 -8.29864 1072.31 -9.35979 1073.69 -10.0255C1075.07 -10.6913 1076.61 -10.9317 1078.12 -10.7165C1079.64 -10.5012 1081.05 -9.83991 1082.18 -8.81619C1083.32 -7.79247 1084.12 -6.45232 1084.5 -4.96521C1084.87 -3.47809 1084.8 -1.91081 1084.29 -0.461541C1083.6 1.48177 1082.18 3.07501 1080.33 3.96773C1078.48 4.86045 1076.35 4.97953 1074.42 4.2988Z" fill="#F3F3F9"/>
</g>
<path opacity="0.519095" d="M1076.58 -2.24008L970.651 -39.5957L873.576 68.6294L872.039 67.2612L970.033 -42.0039L1077.27 -4.18903L1076.58 -2.24008Z" fill="#F3F3F9"/>
<g opacity="0.877975">
<path opacity="0.877975" d="M783.036 182.4C782.019 183.551 780.687 184.375 779.207 184.767C777.727 185.16 776.167 185.103 774.723 184.604C773.28 184.106 772.017 183.188 771.096 181.966C770.175 180.744 769.637 179.274 769.548 177.742C769.46 176.209 769.827 174.683 770.602 173.355C771.376 172.028 772.524 170.96 773.901 170.285C775.277 169.611 776.82 169.361 778.334 169.567C779.848 169.772 781.265 170.425 782.407 171.441C783.937 172.805 784.863 174.725 784.981 176.78C785.099 178.835 784.399 180.857 783.036 182.4Z" fill="#F3F3F9"/>
</g>
<path opacity="0.960914" d="M776.004 177.995L689.539 273.077L691.075 274.439L777.54 179.357L776.004 177.995Z" fill="#F3F3F9"/>
<g opacity="0.698647">
<path opacity="0.698647" d="M617.079 368.89C616.062 370.041 614.73 370.865 613.25 371.257C611.77 371.649 610.21 371.593 608.766 371.094C607.323 370.595 606.06 369.677 605.139 368.456C604.218 367.234 603.679 365.764 603.591 364.231C603.503 362.698 603.87 361.172 604.645 359.845C605.419 358.518 606.567 357.449 607.944 356.775C609.32 356.101 610.863 355.85 612.377 356.056C613.891 356.262 615.308 356.914 616.45 357.931C617.98 359.294 618.906 361.215 619.024 363.27C619.142 365.325 618.442 367.346 617.079 368.89Z" fill="#F3F3F9"/>
</g>
<path opacity="0.735122" d="M1362.36 214.209C1360.49 216.965 1357.63 218.878 1354.37 219.533C1351.12 220.189 1347.74 219.535 1344.98 217.712C1342.21 215.889 1340.27 213.045 1339.58 209.794C1338.89 206.544 1339.51 203.149 1341.3 200.344C1343.09 197.54 1345.9 195.552 1349.14 194.81C1352.37 194.068 1355.77 194.633 1358.58 196.381C1361.4 198.13 1363.41 200.922 1364.18 204.152C1364.96 207.383 1364.43 210.793 1362.72 213.644C1362.6 213.836 1362.48 214.025 1362.36 214.209ZM1342.77 200.932C1342.66 201.094 1342.56 201.259 1342.45 201.428C1341.7 202.677 1341.2 204.061 1340.98 205.502C1340.77 206.942 1340.83 208.411 1341.18 209.824C1341.53 211.238 1342.15 212.568 1343.01 213.738C1343.87 214.909 1344.96 215.897 1346.2 216.647C1347.44 217.397 1348.82 217.893 1350.26 218.108C1351.7 218.322 1353.16 218.251 1354.57 217.898C1355.98 217.544 1357.31 216.916 1358.48 216.049C1359.65 215.182 1360.64 214.092 1361.39 212.843C1362.88 210.365 1363.35 207.404 1362.69 204.591C1362.04 201.778 1360.31 199.335 1357.89 197.782C1355.46 196.23 1352.52 195.69 1349.7 196.278C1346.87 196.867 1344.39 198.537 1342.77 200.932Z" fill="#F3F3F9"/>
<path opacity="0.735122" d="M906.778 187.247C905.631 189.156 903.945 190.681 901.935 191.631C899.925 192.582 897.681 192.914 895.486 192.585C893.291 192.257 891.245 191.284 889.605 189.788C887.965 188.292 886.806 186.341 886.274 184.181C885.742 182.022 885.861 179.751 886.616 177.656C887.371 175.561 888.728 173.736 890.516 172.411C892.303 171.087 894.441 170.322 896.659 170.215C898.876 170.107 901.074 170.661 902.974 171.807C905.522 173.343 907.354 175.833 908.067 178.729C908.781 181.624 908.317 184.688 906.778 187.247Z" fill="#F3F3F9"/>
<path opacity="0.735122" d="M911.02 190.843C908.549 194.501 904.743 197.04 900.425 197.91C896.108 198.78 891.628 197.911 887.953 195.492C884.279 193.073 881.707 189.297 880.794 184.983C879.88 180.669 880.699 176.163 883.073 172.441C885.447 168.719 889.185 166.08 893.478 165.095C897.771 164.111 902.274 164.86 906.011 167.181C909.748 169.502 912.419 173.207 913.446 177.496C914.473 181.784 913.773 186.309 911.498 190.093C911.344 190.348 911.185 190.599 911.02 190.843ZM885.024 173.222C884.88 173.436 884.74 173.655 884.605 173.88C883.608 175.537 882.945 177.374 882.656 179.286C882.366 181.198 882.454 183.148 882.916 185.023C883.378 186.899 884.204 188.664 885.347 190.218C886.49 191.772 887.928 193.083 889.579 194.078C891.229 195.073 893.06 195.732 894.966 196.017C896.873 196.302 898.818 196.207 900.689 195.738C902.561 195.27 904.324 194.436 905.876 193.285C907.428 192.134 908.74 190.688 909.736 189.03C911.715 185.741 912.336 181.812 911.468 178.078C910.6 174.344 908.312 171.101 905.09 169.041C901.869 166.98 897.969 166.264 894.221 167.045C890.473 167.826 887.173 170.042 885.024 173.222Z" fill="#F3F3F9"/>
<line y1="-1" x2="109.116" y2="-1" transform="matrix(-0.403241 0.916457 -0.914159 -0.402242 1154 194)" stroke="#F3F3F9" stroke-width="2"/>
</g>
</g>
<defs>
<clipPath id="clip0">
<rect x="-182" y="37.2817" width="1628.47" height="806" transform="rotate(-8.20795 -182 37.2817)" fill="white"/>
</clipPath>
</defs>
</svg>
