<svg width="1248" height="571" viewBox="0 0 1248 571" fill="none" xmlns="http://www.w3.org/2000/svg">
<path d="M561 10L569 2H679L687 10H561Z" fill="#FFD200"/>
<path d="M1248 571H0L8 563H1240L1248 571Z" fill="#FFD200"/>
<path d="M1216 539H32L42 529H1206L1216 539Z" fill="#FFD200"/>
<path d="M1184 507H64L76 495H1172L1184 507Z" fill="#FFD200"/>
<path d="M1152 475H96L110 461H1138L1152 475Z" fill="#FFD200"/>
<path d="M1120 443H128L144 427H1104L1120 443Z" fill="#FFD200"/>
<path d="M1088 411H160L178 393H1070L1088 411Z" fill="#FFD200"/>
<path d="M1056 379H192L212 359H1036L1056 379Z" fill="#FFD200"/>
<path d="M1024 347H224L246 325H1002L1024 347Z" fill="#FFD200"/>
<path d="M992 315H256L280 291H968L992 315Z" fill="#FFD200"/>
<path d="M959 282H289L313 258H935L959 282Z" fill="#FFD200"/>
<path d="M925 248H323L345 226H903L925 248Z" fill="#FFD200"/>
<path d="M891 214H357L377 194H871L891 214Z" fill="#FFD200"/>
<path d="M857 180H391L409 162H839L857 180Z" fill="#FFD200"/>
<path d="M823 146H425L441 130H807L823 146Z" fill="#FFD200"/>
<path d="M789 112H459L473 98H775L789 112Z" fill="#FFD200"/>
<path d="M755 78H493L505 66H743L755 78Z" fill="#FFD200"/>
<path d="M721 44L711 34H537L527 44H721Z" fill="#FFD200"/>
<rect width="1248" height="557" fill="url(#paint0_linear)"/>
<defs>
<linearGradient id="paint0_linear" x1="624" y1="0" x2="624" y2="557" gradientUnits="userSpaceOnUse">
<stop stop-color="#0F0F0F"/>
<stop offset="1" stop-color="#0F0F0F" stop-opacity="0"/>
</linearGradient>
</defs>
</svg>
