<svg width="807" height="426" viewBox="0 0 807 426" fill="none" xmlns="http://www.w3.org/2000/svg">
<path d="M747.664 344.874C727.886 331.355 709.197 318.585 690.986 324.007C677.109 328.139 665.175 342.662 654.5 368.408C639.611 404.312 599.028 429.541 565.837 423.496C550.446 420.692 524.379 408.507 522.715 358.415C522.711 358.295 522.68 358.177 522.624 358.07C522.569 357.963 522.49 357.87 522.394 357.798C522.298 357.725 522.187 357.675 522.07 357.651C521.952 357.627 521.83 357.63 521.714 357.659C481.824 367.639 447.42 352.38 425.574 337.824C389.555 313.821 366.144 278.075 363.56 262.293L365.862 257.47C365.913 257.362 365.94 257.244 365.941 257.124C365.941 257.004 365.914 256.885 365.863 256.777C365.216 255.406 365.04 254.99 364.691 254.164L364.407 253.5C369.64 250.843 374.234 247.93 381.643 243.229C387.61 239.445 395.781 234.261 407.644 227.112C407.823 227.004 407.953 226.831 408.007 226.629C408.061 226.427 408.035 226.212 407.934 226.03C407.832 225.847 407.664 225.71 407.465 225.649C407.265 225.588 407.049 225.607 406.863 225.702L373.807 242.538L355.015 251.97C354.846 252.054 354.712 252.196 354.637 252.37C339.979 286.217 322.339 316.493 292.86 309.02C291.16 308.658 289.553 307.952 288.135 306.946C286.718 305.94 285.521 304.655 284.618 303.169C281.313 297.568 282.693 290.006 283.067 288.29L347.292 257.533C347.467 257.45 347.605 257.307 347.683 257.13C347.76 256.953 347.772 256.754 347.715 256.569L345.725 250.047C345.692 249.937 345.635 249.835 345.558 249.748C345.481 249.662 345.387 249.593 345.281 249.546C345.176 249.498 345.061 249.474 344.945 249.476C344.83 249.477 344.716 249.504 344.611 249.554L281.686 279.2C281.634 279.224 281.585 279.254 281.539 279.288C278.989 281.242 277.509 285.01 277.139 290.485C276.652 297.686 278.292 306.184 279.758 308.975C277.255 311.098 266.401 319.868 260.103 319.191C259.496 319.145 258.907 318.964 258.378 318.663C257.849 318.362 257.393 317.947 257.044 317.448C252.78 311.46 268.722 295.414 275.224 289.737C275.368 289.611 275.463 289.438 275.491 289.248C275.519 289.059 275.48 288.865 275.379 288.703C275.278 288.54 275.122 288.418 274.94 288.36C274.758 288.301 274.561 288.31 274.384 288.383C274.243 288.445 260.154 294.249 252.332 291.011C249.145 289.693 233.417 282.563 236.79 271.628C239.321 263.428 293.249 245.511 321.403 242.962C311.471 247.199 297.118 252.064 283.178 256.791C256.805 265.735 241.854 270.967 241.228 274.535C240.173 280.547 246.708 282.946 251.959 284.873L253.076 285.285C258.717 287.384 275.417 285.416 276.124 285.33C276.276 285.311 276.42 285.25 276.538 285.154C276.657 285.057 276.745 284.928 276.793 284.783C276.841 284.638 276.847 284.482 276.81 284.333C276.773 284.185 276.694 284.05 276.583 283.945C273.898 281.39 272.69 278.775 272.993 276.17C273.369 272.937 276.174 269.707 281.102 266.83C293.085 259.835 331.272 244.547 336.248 244.25C341.296 243.967 348.936 247.763 349.013 247.8C349.123 247.856 349.244 247.886 349.367 247.887C349.49 247.888 349.611 247.861 349.722 247.808L463.367 193.594C463.55 193.507 463.693 193.354 463.769 193.166C463.844 192.978 463.845 192.768 463.773 192.578L460.141 183.064C460.085 182.905 459.978 182.768 459.837 182.675C459.696 182.581 459.529 182.536 459.36 182.546C456.117 182.658 453.706 182.724 451.903 182.774C446.319 182.928 446.212 182.93 445.417 183.786C445.308 183.907 445.193 184.021 445.071 184.13C444.956 184.231 444.873 184.363 444.83 184.511C444.546 186.476 444.658 188.478 445.162 190.399C445.307 191.209 445.453 192.035 445.545 192.789C442.198 190.064 442.678 184.913 442.683 184.856C442.695 184.738 442.681 184.619 442.642 184.507C442.603 184.395 442.54 184.293 442.458 184.208C442.374 184.125 442.274 184.061 442.163 184.019C442.053 183.978 441.935 183.96 441.817 183.968L424.043 185.41C423.841 185.427 423.652 185.518 423.515 185.667C423.378 185.816 423.301 186.011 423.301 186.214C423.322 189.061 423.653 191.898 424.287 194.673L420.077 186.239C420.009 186.098 419.901 185.98 419.766 185.901C419.631 185.822 419.475 185.784 419.318 185.794C414.042 186.044 406.432 186.467 401.296 187.258C401.092 187.289 400.909 187.398 400.782 187.561C400.656 187.724 400.597 187.929 400.617 188.134C401.451 196.276 403.417 204.262 406.457 211.861C401.41 204.977 397.874 189.323 397.833 189.141C397.797 188.957 397.697 188.792 397.55 188.676C397.403 188.56 397.22 188.501 397.033 188.51L385.816 188.697C385.703 188.698 385.591 188.724 385.489 188.772C385.386 188.819 385.295 188.888 385.221 188.974C385.147 189.059 385.091 189.159 385.058 189.267C385.025 189.376 385.016 189.489 385.03 189.602C385.056 189.813 387.405 208.841 389.882 220.5C384.941 212.681 380.683 194.446 381.029 189.836C381.037 189.719 381.021 189.603 380.98 189.494C380.94 189.384 380.876 189.285 380.793 189.203C380.711 189.12 380.612 189.056 380.502 189.016C380.393 188.976 380.276 188.96 380.16 188.971C376.26 189.287 373.331 189.517 371.102 189.692C363.902 190.256 363.902 190.256 362.081 190.77C361.733 190.868 361.318 190.985 360.761 191.131C360.577 191.179 360.415 191.292 360.306 191.448C360.196 191.604 360.145 191.794 360.162 191.984C361.209 203.625 363.528 215.116 367.076 226.252C363.183 219.486 359.032 208.563 357.001 191.307C356.989 191.202 356.957 191.101 356.906 191.008C356.854 190.916 356.785 190.835 356.703 190.769C356.62 190.703 356.525 190.654 356.424 190.625C356.322 190.596 356.216 190.588 356.111 190.6L351.806 191.085C348.135 191.5 348.135 191.5 346.659 191.573L345.365 191.639C345.257 191.645 345.151 191.672 345.054 191.72C344.957 191.768 344.87 191.834 344.799 191.916C344.728 191.998 344.674 192.093 344.641 192.196C344.608 192.299 344.596 192.408 344.605 192.516C345.927 207.462 349.055 220.683 355.328 237.68C348.124 232.901 343.882 218.876 341.687 192.9C341.666 192.688 341.564 192.492 341.402 192.355C341.24 192.217 341.03 192.148 340.818 192.163L246.627 199.806C246.48 199.818 246.338 199.87 246.219 199.958C190.201 240.696 135.079 238.915 127.014 230.903C125.937 229.833 126.256 229.055 126.655 228.497C135.469 216.16 193.146 208.544 235.262 202.984C235.47 202.956 235.659 202.848 235.789 202.683C235.918 202.518 235.979 202.308 235.957 202.099C235.935 201.89 235.832 201.698 235.671 201.564C235.509 201.429 235.302 201.363 235.092 201.38L132.604 209.484C132.447 209.496 132.298 209.554 132.173 209.651C132.049 209.748 131.956 209.879 131.905 210.028C131.876 210.114 128.937 218.611 124.425 220.031C120.244 221.339 108.382 218.854 107.589 216.971C107.531 216.832 107.863 216.531 108.378 216.254C114.428 213.003 128.664 205.938 130.22 205.166L241.421 195.981C241.609 195.965 241.786 195.884 241.921 195.751C242.055 195.618 242.139 195.442 242.157 195.254C242.175 195.065 242.126 194.876 242.019 194.721C241.912 194.565 241.753 194.451 241.571 194.4C203.63 183.812 135.708 182.259 127.559 200.03C124.898 198.867 115.83 194.478 114.561 188.204C113.947 185.165 115.292 182.024 118.558 178.87C137.872 160.218 237.439 191.684 238.443 192.004C238.538 192.034 238.637 192.046 238.737 192.04C249.893 191.359 263.91 190.43 279.977 189.365C301.975 187.909 326.909 186.257 353.969 184.604C354.144 184.593 354.31 184.526 354.444 184.411C354.577 184.297 354.669 184.143 354.707 183.971C354.744 183.8 354.725 183.621 354.652 183.462C354.579 183.302 354.455 183.171 354.301 183.088L345.739 178.489C345.718 178.026 345.708 177.794 345.705 177.676C345.761 177.147 345.78 176.613 345.761 176.081C345.547 164.21 346.853 152.361 349.646 140.822L360.497 137.448C360.667 137.395 360.815 137.288 360.917 137.142C361.019 136.996 361.071 136.821 361.063 136.643C361.055 136.465 360.989 136.295 360.874 136.158C360.76 136.022 360.603 135.928 360.429 135.89L349.788 133.567L315.483 123.129L312.695 118.303L364.343 134.105L363.778 137.278C360.989 150.026 359.54 163.031 359.452 176.081V183.788H359.453V183.808C359.452 183.966 359.499 184.121 359.586 184.253C359.624 184.334 359.68 184.404 359.75 184.459C359.821 184.514 359.903 184.552 359.99 184.569C360.092 184.605 360.2 184.62 360.307 184.613L395.984 182.433C396.169 182.422 396.345 182.347 396.482 182.221C396.618 182.094 396.707 181.925 396.733 181.741C396.759 181.556 396.72 181.369 396.624 181.21C396.528 181.051 396.379 180.93 396.204 180.868L382.539 176.029C380.912 161.011 382.381 156.328 383.678 152.191C383.976 151.24 384.261 150.332 384.502 149.334L399.374 149.243C399.567 149.241 399.753 149.171 399.898 149.044C400.043 148.918 400.139 148.743 400.166 148.552C400.194 148.361 400.153 148.167 400.049 148.004C399.946 147.841 399.788 147.72 399.604 147.664C382.247 142.383 374.47 139.832 371.542 138.873C371.258 138.779 371.021 138.702 370.83 138.639L370.612 135.54C398.374 144.036 405.196 146.217 413.078 148.735C422.782 151.836 433.781 155.351 489.165 172.296C489.346 172.353 489.542 172.344 489.717 172.269C489.891 172.195 490.034 172.061 490.119 171.89L492.79 166.634C492.845 166.528 492.875 166.412 492.878 166.293C492.882 166.174 492.859 166.055 492.812 165.946C492.765 165.837 492.694 165.74 492.604 165.662C492.515 165.583 492.409 165.526 492.294 165.493L469.264 158.873C478.164 155.702 489.316 154.224 496.128 162.498C508.03 176.95 496.575 195.692 486.558 204.112C486.439 204.212 486.351 204.345 486.305 204.495C486.26 204.644 486.258 204.803 486.301 204.953C486.345 205.103 486.43 205.238 486.548 205.34C486.666 205.442 486.811 205.508 486.966 205.529C489.919 205.971 492.933 205.756 495.793 204.901C498.654 204.045 501.292 202.57 503.519 200.579C509.808 195.09 513.562 185.932 513.562 176.081C513.562 160.194 502.196 147.532 487.125 146.627C479.68 145.998 472.277 148.248 466.438 152.914C465.139 153.912 463.735 154.767 462.252 155.462L450.815 151.643L451.432 150.41C458.729 134.87 472.171 126.311 489.281 126.311C513.42 126.311 533.06 148.057 533.06 174.787C533.06 201.381 513.616 223.044 489.642 223.259L486.769 220.025L483.343 200.081C483.314 199.91 483.23 199.754 483.105 199.634C482.98 199.515 482.819 199.439 482.648 199.417C480.577 199.094 478.587 198.376 476.787 197.302L487.559 193.257C487.669 193.216 487.768 193.151 487.851 193.067C487.933 192.983 487.996 192.883 488.035 192.772C490.637 185.45 490.63 183.665 487.976 175.418C487.937 175.293 487.867 175.181 487.774 175.089C487.681 174.998 487.568 174.93 487.443 174.893C481.004 172.949 471.15 169.911 462.405 167.215C456.316 165.337 450.763 163.626 447.275 162.564C447.091 162.508 446.893 162.519 446.717 162.596C446.541 162.673 446.398 162.811 446.315 162.984C444.421 166.596 443.548 170.656 443.788 174.728L424.205 175.252C424.202 174.471 424.195 173.744 424.189 173.059C424.003 169.286 424.295 165.504 425.06 161.805L443.349 163.707C443.549 163.733 443.752 163.681 443.914 163.562C444.077 163.442 444.187 163.264 444.223 163.065C444.262 162.869 444.227 162.664 444.124 162.492C444.021 162.32 443.858 162.192 443.667 162.133L404.074 150.085C403.969 150.054 403.859 150.044 403.75 150.057C403.641 150.069 403.536 150.103 403.44 150.157C403.345 150.211 403.262 150.285 403.196 150.373C403.13 150.46 403.082 150.561 403.057 150.668C401.024 159.131 400.001 167.806 400.008 176.51L400.119 181.342C400.122 181.451 400.146 181.557 400.191 181.656C400.236 181.755 400.3 181.844 400.38 181.917C400.544 182.061 400.756 182.137 400.974 182.128L459.538 178.551C459.715 178.54 459.883 178.471 460.017 178.355C460.117 178.278 460.23 178.221 460.352 178.187C461.196 177.873 461.877 177.409 462.721 174.91L463.258 177.797C463.289 177.995 463.395 178.173 463.553 178.295C463.712 178.417 463.911 178.474 464.11 178.454L477.767 177.43L474.857 181.28C472.195 181.482 470.416 181.645 469.19 181.757C468.352 181.866 467.508 181.919 466.663 181.918C466.29 181.887 465.917 181.98 465.603 182.182C465.288 182.385 465.049 182.686 464.924 183.039C464.113 184.931 465.122 189.309 467.264 191.194C467.383 191.298 467.529 191.365 467.685 191.387C467.841 191.409 468 191.384 468.143 191.316L481.631 184.882L481.171 189.194C472.865 193.263 466.57 196.169 461.953 198.3C457.909 200.167 454.987 201.515 453.044 202.573C452.945 202.628 452.858 202.702 452.79 202.792C452.721 202.882 452.672 202.985 452.646 203.095C452.62 203.206 452.617 203.32 452.638 203.431C452.659 203.542 452.703 203.648 452.767 203.741C460.216 214.502 468.245 220.373 480.691 223.926C468.074 224.838 451.135 213.304 448.123 206.201C448.08 206.1 448.017 206.009 447.938 205.933C447.858 205.857 447.764 205.798 447.661 205.759C447.557 205.721 447.447 205.704 447.337 205.711C447.227 205.717 447.12 205.746 447.021 205.796L414.215 222.259C414.039 222.347 413.902 222.496 413.828 222.678L411.449 228.574L396.092 236.308C395.906 236.4 395.764 236.561 395.694 236.756C395.625 236.952 395.633 237.166 395.718 237.355C414.781 280.226 453.137 305.819 498.32 305.819C562.492 305.819 614.699 247.619 614.699 176.081C614.699 104.544 562.492 46.3433 498.32 46.3433C447.402 46.3433 405.711 77.2562 389.513 127.02C389.448 127.219 389.464 127.437 389.556 127.625C389.649 127.814 389.811 127.959 390.009 128.03L409.835 135.1C410.034 135.17 410.251 135.16 410.442 135.072C410.634 134.984 410.783 134.825 410.859 134.628C425.333 96.8913 454.968 76.1084 494.302 76.1084C545.405 76.1084 586.982 121.141 586.982 176.492C586.982 231.844 545.405 276.876 494.302 276.876C460.379 276.876 433.82 260.143 417.467 228.472L418.431 226.776L435.794 218.03C448.582 241.239 468.025 253.498 492.073 253.498C530.383 253.498 561.551 218.769 561.551 176.081C561.551 133.394 530.383 98.6648 492.073 98.6648C464.092 98.6648 440.695 114.038 431.009 138.786C430.946 138.947 430.936 139.123 430.981 139.29C431.026 139.457 431.123 139.605 431.259 139.712L442.981 149.028L369.331 124.438L369.804 121.238C373.441 92.4463 417.754 20.0794 500.819 20.0794C577.88 20.0794 640.575 90.0616 640.575 176.081C640.575 262.101 577.88 332.083 500.819 332.083C444.449 332.083 401.068 302.533 378.665 248.875C378.612 248.747 378.527 248.636 378.418 248.55C378.309 248.465 378.181 248.409 378.044 248.388C377.908 248.369 377.768 248.384 377.639 248.432C377.51 248.481 377.396 248.561 377.306 248.665L366.721 261.209C366.622 261.328 366.558 261.472 366.538 261.625C366.518 261.779 366.542 261.935 366.608 262.074C393.653 319.326 444.526 352.163 506.182 352.163C595.529 352.163 668.217 273.173 668.217 176.081C668.217 78.9894 595.529 0 506.182 0C433.949 0 373.595 44.042 352.421 112.202C352.37 112.366 352.373 112.543 352.429 112.705C352.485 112.868 352.592 113.008 352.734 113.106C356.214 115.703 359.312 118.777 361.937 122.238L353.651 119.203L313.941 105.946C299.952 81.4482 260.27 54.213 240.415 55.5642C235.248 55.9203 231.662 58.2758 230.044 62.3756C229.984 62.526 229.972 62.6908 230.007 62.8486C230.042 63.0064 230.124 63.1499 230.242 63.2604C230.36 63.371 230.508 63.4436 230.668 63.4687C230.828 63.4939 230.991 63.4705 231.137 63.4015C247.609 55.6216 278.18 72.8476 309.103 107.307L305.994 115.274C304.777 116.634 295.419 119.028 281.131 119.931C266.711 120.841 217.758 121.768 193.269 95.4204C192.167 94.2347 192.44 93.5643 192.529 93.3446C193.969 89.7977 209.207 87.7351 218.579 87.2562L300.456 113.163C300.577 113.202 300.705 113.211 300.83 113.19C300.955 113.17 301.073 113.12 301.176 113.045C301.278 112.97 301.361 112.872 301.418 112.759C301.476 112.646 301.505 112.521 301.505 112.394V105.167C301.505 104.994 301.45 104.825 301.346 104.686C301.243 104.547 301.097 104.445 300.932 104.395L220.665 80.2107C218.412 72.5552 220.123 69.0707 228.05 64.8684C228.182 64.7984 228.293 64.6929 228.368 64.5637C228.444 64.4345 228.482 64.2867 228.479 64.1369C228.476 63.9871 228.43 63.8413 228.349 63.7157C228.267 63.5901 228.152 63.4897 228.017 63.4258C225.713 62.3379 205.377 52.9122 200.726 56.8207C200.208 57.3054 199.851 57.9379 199.703 58.6325C199.556 59.3271 199.626 60.0503 199.903 60.7039C201.852 67.8361 209.089 75.4758 212.988 79.1919C181.912 71.7383 148.821 93.6564 129.268 119.475C115.209 138.038 83.3266 153.471 66.166 145.012C55.2684 139.643 52.5498 125.641 58.3037 104.518C68.2779 67.9071 58.3493 47.0066 48.2648 35.9204C38.3361 25.0067 15.1978 18.9868 0.0205078 19.2291V20.8415C14.752 20.5967 37.4491 26.4275 47.0732 37.0067C56.8861 47.7936 66.5297 68.1891 56.7482 104.095C49.1897 131.84 57.3103 142.448 65.4537 146.459C83.7673 155.486 116.042 139.608 130.552 120.45C150.454 94.171 184.53 71.9778 215.779 81.6288C215.956 81.6837 216.147 81.6756 216.319 81.6058C216.492 81.5361 216.634 81.4089 216.724 81.2459C216.813 81.0829 216.843 80.894 216.809 80.7113C216.775 80.5285 216.679 80.3631 216.538 80.243C216.413 80.1366 203.976 69.4945 201.458 60.2784C201.021 58.68 201.579 58.2104 201.763 58.0568C204.511 55.7421 217.438 60.3801 225.892 64.22C218.424 68.5483 216.757 72.972 219.247 81.0946C219.286 81.2213 219.355 81.3365 219.449 81.43C219.543 81.5234 219.659 81.5922 219.785 81.6302L299.893 105.767V111.293L218.927 85.6742C218.836 85.6466 218.74 85.6341 218.644 85.6371C216.062 85.7656 193.343 87.0529 191.035 92.7371C190.804 93.3996 190.781 94.1172 190.969 94.7933C191.157 95.4694 191.548 96.0716 192.089 96.5188C217.06 123.387 266.632 122.46 281.233 121.542C294.739 120.688 305.725 118.42 307.355 116.151C307.395 116.096 307.427 116.036 307.451 115.973L310.785 107.432C310.84 107.293 310.854 107.142 310.828 106.995C310.801 106.848 310.735 106.712 310.635 106.601C280.342 72.7262 250.091 55.2135 232.526 61.1081C233.462 59.8745 234.673 58.8765 236.061 58.1935C237.45 57.5105 238.979 57.1613 240.527 57.1736C259.976 55.8312 299.069 82.849 312.691 107.009C312.789 107.184 312.949 107.315 313.138 107.378L353.119 120.726L362.74 124.25C362.93 124.32 363.139 124.316 363.326 124.238C363.513 124.161 363.664 124.016 363.748 123.832C364.961 121.213 356.413 113.939 354.129 112.141C375.24 44.9796 434.862 1.61348 506.182 1.61348C594.639 1.61348 666.605 79.8789 666.605 176.081C666.605 272.283 594.639 350.549 506.182 350.549C445.342 350.549 395.11 318.231 368.288 261.852L377.69 250.711C400.504 304.242 444.182 333.696 500.819 333.696C578.769 333.696 642.187 262.99 642.187 176.081C642.187 89.1714 578.769 18.4659 500.819 18.4659C453.907 18.4659 422.034 40.7111 403.555 59.3724C381.85 81.2938 370.015 106.704 368.207 121.019L367.637 124.871C367.609 125.059 367.648 125.25 367.747 125.411C367.847 125.573 367.999 125.694 368.179 125.754L446.806 152.006C446.986 152.066 447.181 152.06 447.357 151.991C447.533 151.921 447.679 151.792 447.77 151.625C447.86 151.458 447.888 151.265 447.85 151.079C447.812 150.893 447.71 150.727 447.561 150.609L432.729 138.82C442.299 115.03 464.98 100.278 492.073 100.278C529.493 100.278 559.939 134.283 559.939 176.081C559.939 217.879 529.493 251.885 492.073 251.885C468.418 251.885 449.318 239.675 436.836 216.574C436.736 216.39 436.568 216.253 436.369 216.19C436.169 216.128 435.953 216.145 435.766 216.238L417.489 225.445C417.347 225.516 417.229 225.628 417.151 225.766L415.85 228.054C415.785 228.17 415.749 228.301 415.746 228.435C415.743 228.568 415.773 228.701 415.833 228.82C432.463 261.315 459.598 278.49 494.302 278.49C546.295 278.49 588.594 232.734 588.594 176.492C588.594 120.251 546.295 74.4949 494.302 74.4949C454.51 74.4949 424.471 95.3772 409.639 133.316L391.291 126.774C407.436 78.1338 448.378 47.9568 498.32 47.9568C561.603 47.9568 613.087 105.433 613.087 176.081C613.087 246.729 561.603 304.206 498.32 304.206C454.039 304.206 416.406 279.249 397.504 237.401L412.444 229.879C412.619 229.791 412.756 229.643 412.829 229.461L415.208 223.565L447.011 207.605C451.371 215.84 471.189 228.894 484.671 224.84C484.841 224.789 484.989 224.683 485.093 224.54C485.197 224.396 485.25 224.221 485.245 224.044C485.24 223.866 485.176 223.696 485.064 223.558C484.952 223.42 484.797 223.324 484.625 223.283C470.663 219.977 462.441 214.599 454.614 203.567C456.492 202.598 459.14 201.375 462.628 199.766C467.326 197.597 473.76 194.626 482.279 190.446C482.402 190.386 482.507 190.296 482.585 190.185C482.663 190.073 482.712 189.944 482.726 189.808L483.386 183.619C483.401 183.476 483.378 183.332 483.32 183.201C483.261 183.07 483.168 182.958 483.051 182.875C482.934 182.792 482.797 182.742 482.654 182.729C482.511 182.717 482.368 182.743 482.238 182.805L467.967 189.614C466.837 188.126 466.236 186.302 466.26 184.434C466.296 183.79 466.46 183.549 466.52 183.525C467.461 183.544 468.403 183.49 469.336 183.364C470.613 183.247 472.489 183.075 475.34 182.862C475.454 182.853 475.565 182.821 475.666 182.766C475.766 182.711 475.854 182.636 475.923 182.544L480.131 176.979C480.224 176.855 480.281 176.707 480.292 176.552C480.304 176.398 480.271 176.243 480.197 176.106C480.122 175.97 480.01 175.858 479.874 175.784C479.738 175.709 479.583 175.676 479.428 175.688L464.709 176.791L463.669 171.196C463.635 171.014 463.54 170.849 463.4 170.729C463.259 170.609 463.082 170.541 462.897 170.536C462.714 170.537 462.536 170.598 462.391 170.709C462.246 170.821 462.141 170.977 462.093 171.154C460.862 176.275 460.217 176.516 459.79 176.675C459.584 176.745 459.386 176.839 459.201 176.955L401.712 180.467L401.62 176.492C401.615 168.208 402.556 159.949 404.426 151.879L435.172 161.235L424.509 160.126C424.313 160.108 424.117 160.161 423.957 160.276C423.797 160.391 423.684 160.56 423.638 160.751C422.725 164.791 422.368 168.937 422.577 173.074C422.585 173.992 422.594 174.983 422.594 176.081C422.594 176.189 422.616 176.295 422.658 176.395C422.7 176.494 422.761 176.584 422.838 176.659C422.997 176.807 423.206 176.888 423.422 176.888L444.66 176.32C444.768 176.317 444.875 176.292 444.973 176.247C445.072 176.202 445.16 176.137 445.233 176.057C445.306 175.977 445.362 175.883 445.398 175.781C445.434 175.679 445.449 175.571 445.443 175.463C445.084 171.629 445.786 167.771 447.472 164.311C450.978 165.381 456.216 166.996 461.931 168.757C470.498 171.397 480.127 174.366 486.572 176.315C488.956 183.773 488.962 185.296 486.641 191.879L474.707 196.359C474.572 196.41 474.452 196.497 474.361 196.61C474.271 196.724 474.212 196.859 474.192 197.003C474.172 197.147 474.192 197.294 474.248 197.427C474.304 197.561 474.395 197.677 474.512 197.764C476.713 199.318 479.213 200.396 481.853 200.93L485.218 220.526C485.245 220.674 485.311 220.812 485.41 220.924L488.678 224.604C488.754 224.689 488.847 224.757 488.951 224.803C489.055 224.85 489.167 224.874 489.281 224.874C514.31 224.874 534.672 202.405 534.672 174.787C534.672 147.168 514.31 124.698 489.281 124.698C480.997 124.521 472.845 126.801 465.852 131.25C458.859 135.7 453.338 142.121 449.983 149.705L448.958 151.753C448.906 151.856 448.877 151.969 448.873 152.085C448.869 152.201 448.89 152.316 448.934 152.423C448.978 152.529 449.045 152.625 449.129 152.704C449.214 152.783 449.314 152.843 449.424 152.879L462.016 157.083C462.189 157.14 462.375 157.138 462.546 157.077C464.268 156.341 465.887 155.386 467.363 154.234C472.895 149.762 479.944 147.613 487.027 148.238C501.236 149.091 511.95 161.061 511.95 176.081C511.95 185.473 508.402 194.177 502.459 199.364C498.777 202.659 493.941 204.363 489.007 204.101C499.101 194.777 509.449 176.136 497.371 161.472C489.352 151.735 476.108 154.333 466.409 158.23C466.254 158.293 466.122 158.403 466.031 158.545C465.941 158.686 465.897 158.853 465.906 159.02C465.914 159.188 465.975 159.349 466.08 159.481C466.184 159.612 466.327 159.708 466.488 159.754L490.911 166.774L488.99 170.555C434.176 153.783 423.23 150.286 413.568 147.198C405.577 144.644 398.675 142.438 369.961 133.654C369.836 133.616 369.704 133.608 369.575 133.633C369.447 133.657 369.326 133.712 369.224 133.794C369.121 133.876 369.041 133.981 368.988 134.101C368.935 134.221 368.913 134.351 368.922 134.482L369.26 139.298C369.271 139.461 369.332 139.616 369.434 139.744C369.536 139.872 369.674 139.966 369.83 140.013C370.02 140.071 370.407 140.198 371.04 140.406C373.671 141.268 380.211 143.413 394.072 147.661L383.853 147.725C383.669 147.726 383.491 147.79 383.348 147.906C383.206 148.022 383.107 148.184 383.069 148.364C382.818 149.547 382.489 150.596 382.14 151.708C380.781 156.043 379.24 160.955 380.992 176.71C381.009 176.86 381.068 177.003 381.162 177.122C381.256 177.241 381.382 177.33 381.524 177.381L391.927 181.065L361.064 182.951C361.064 182.48 361.064 182.037 361.064 181.623V176.081C361.152 163.137 362.591 150.237 365.358 137.592L366.056 133.685C366.091 133.49 366.053 133.29 365.95 133.122C365.848 132.954 365.687 132.829 365.498 132.771L311.207 116.161C311.052 116.113 310.887 116.114 310.732 116.162C310.578 116.21 310.441 116.304 310.341 116.43C310.24 116.557 310.18 116.712 310.168 116.873C310.156 117.035 310.193 117.196 310.275 117.336L314.247 124.212C314.35 124.388 314.515 124.52 314.71 124.58L349.382 135.127L357.102 136.814L348.722 139.42C348.586 139.462 348.465 139.539 348.369 139.643C348.273 139.747 348.206 139.875 348.175 140.013C345.286 151.812 343.933 163.935 344.149 176.081C344.149 176.828 344.142 177.164 344.132 177.316C344.096 177.883 344.102 178.452 344.149 179.019C344.156 179.158 344.198 179.294 344.272 179.412C344.347 179.53 344.451 179.627 344.574 179.693L351.039 183.167C325.067 184.762 301.102 186.35 279.871 187.756C263.878 188.816 249.918 189.74 238.788 190.42C232.95 188.567 137.25 158.577 117.439 177.709C113.75 181.271 112.251 184.91 112.982 188.525C114.637 196.71 127.177 201.637 127.711 201.842C127.812 201.881 127.919 201.9 128.027 201.896C128.135 201.893 128.242 201.867 128.34 201.822C128.438 201.776 128.526 201.711 128.598 201.631C128.671 201.551 128.726 201.457 128.762 201.355C134.185 185.753 194.959 184.421 236.603 194.761L129.934 203.572C129.833 203.58 129.734 203.607 129.643 203.652C129.487 203.729 114.012 211.395 107.616 214.833C105.717 215.852 105.854 217.003 106.104 217.597C107.499 220.915 120.831 222.853 124.908 221.569C129.546 220.111 132.503 213.032 133.249 211.051L207.137 205.209C166.029 211.139 132.327 217.782 125.344 227.558C124.833 228.229 124.603 229.073 124.703 229.911C124.803 230.749 125.224 231.516 125.878 232.049C134.177 240.291 190.312 242.516 246.983 201.396L340.149 193.836C342.635 222.445 347.543 236.312 356.517 240.149C356.662 240.211 356.822 240.229 356.978 240.201C357.133 240.172 357.277 240.099 357.391 239.989C357.505 239.88 357.584 239.739 357.619 239.585C357.654 239.431 357.643 239.27 357.587 239.122C350.989 221.614 347.691 208.24 346.286 193.208L346.738 193.185C348.266 193.109 348.266 193.109 351.987 192.689L355.496 192.293C357.607 209.461 362.192 223.092 368.775 231.751C368.889 231.901 369.053 232.007 369.237 232.049C369.421 232.091 369.614 232.067 369.783 231.981C369.951 231.895 370.084 231.752 370.158 231.578C370.232 231.405 370.242 231.21 370.188 231.029C365.926 216.902 363.223 207.408 361.83 192.515C362.092 192.443 362.316 192.38 362.518 192.323C364.186 191.852 364.186 191.852 371.227 191.3C373.286 191.139 375.94 190.931 379.403 190.651C379.557 197.549 385.023 219.13 390.915 224.312C391.044 224.426 391.206 224.495 391.378 224.51C391.549 224.524 391.721 224.484 391.868 224.394C392.015 224.304 392.129 224.169 392.194 224.01C392.259 223.85 392.271 223.674 392.228 223.507C389.816 213.957 387.296 194.66 386.741 190.295L396.408 190.134C397.279 193.824 401.76 211.622 408.045 215.704C408.187 215.797 408.355 215.842 408.524 215.834C408.694 215.826 408.856 215.764 408.988 215.658C409.121 215.552 409.216 215.407 409.262 215.244C409.307 215.08 409.299 214.907 409.24 214.748L408.981 214.044C405.865 205.628 403.388 198.938 402.299 188.741C407.159 188.057 413.922 187.669 418.87 187.431L427.569 204.86C427.662 205.047 427.824 205.19 428.021 205.26C428.218 205.329 428.434 205.32 428.624 205.233C428.814 205.146 428.963 204.989 429.039 204.795C429.116 204.6 429.114 204.384 429.034 204.191C426.627 198.745 425.233 192.905 424.921 186.958L441.038 185.65C441.035 187.769 441.532 192.79 446.086 195.04C446.207 195.1 446.342 195.129 446.477 195.123C446.612 195.118 446.743 195.079 446.859 195.009C446.975 194.939 447.071 194.842 447.139 194.725C447.208 194.608 447.246 194.477 447.25 194.341C447.217 192.92 447.05 191.505 446.749 190.116C446.35 188.498 446.208 186.826 446.329 185.163C446.434 185.06 446.521 184.968 446.598 184.886C446.913 184.545 446.932 184.525 451.947 184.387C453.646 184.34 455.88 184.278 458.841 184.178L462.002 192.458L349.38 246.184C347.747 245.402 341.047 242.361 336.152 242.64C330.556 242.973 291.4 258.951 280.29 265.437C274.83 268.623 271.836 272.171 271.392 275.984C271.287 277.436 271.493 278.894 271.996 280.259C272.499 281.625 273.288 282.867 274.309 283.904C269.933 284.349 257.942 285.377 253.638 283.773L252.513 283.358C247.341 281.46 241.994 279.498 242.816 274.815C243.307 272.015 265.701 264.422 283.696 258.319C299.714 252.888 316.279 247.271 326.147 242.607C326.314 242.528 326.449 242.393 326.53 242.226C326.61 242.059 326.63 241.869 326.587 241.688C326.547 241.506 326.444 241.344 326.296 241.231C326.147 241.117 325.964 241.061 325.777 241.071C302.618 241.785 238.538 260.499 235.25 271.152C232.318 280.658 241.833 288.415 251.716 292.502C257.562 294.922 266.21 292.842 271.162 291.256C264.639 297.409 250.923 311.634 255.731 318.384C256.211 319.067 256.835 319.637 257.559 320.053C258.283 320.469 259.089 320.722 259.921 320.793C267.75 321.675 280.803 310.219 281.353 309.73C281.435 309.658 281.502 309.569 281.548 309.469C281.595 309.37 281.621 309.262 281.624 309.152C281.627 309.042 281.608 308.933 281.568 308.831C281.528 308.729 281.468 308.636 281.391 308.558C280.372 307.532 278.207 298.567 278.747 290.594C279.077 285.723 280.357 282.278 282.453 280.621L344.456 251.41L345.971 256.377L282.022 287.001C281.917 287.052 281.823 287.125 281.749 287.215C281.674 287.306 281.62 287.411 281.591 287.524C281.489 287.91 279.154 297.073 283.226 303.982C284.234 305.655 285.574 307.103 287.162 308.239C288.751 309.374 290.555 310.171 292.463 310.583C323.042 318.355 341.081 287.671 355.999 253.281L374.533 243.978L389.556 236.326C386.171 238.447 383.282 240.28 380.78 241.867C375.046 245.688 369.114 249.202 363.009 252.397C362.825 252.488 362.682 252.647 362.611 252.841C362.54 253.035 362.547 253.249 362.628 253.438L363.206 254.793C363.532 255.565 363.711 255.986 364.243 257.121L361.998 261.824C361.929 261.97 361.905 262.133 361.929 262.293C364.352 278.238 388.094 314.787 424.682 339.168C446.622 353.789 481.092 369.103 521.139 359.461C523.152 409.857 549.783 422.21 565.549 425.083C568.973 425.7 572.445 426.007 575.923 426C607.45 426 642.351 401.919 655.99 369.026C666.466 343.758 678.063 329.538 691.446 325.553C708.931 320.361 727.303 332.908 746.754 346.205C761.481 356.273 790.678 366.586 806.021 369.339V367.7C791.09 364.928 762.148 354.775 747.664 344.874Z" fill="#0F0F0F"/>
</svg>
