<svg width="623" height="312" viewBox="0 0 623 312" fill="none" xmlns="http://www.w3.org/2000/svg">
<mask id="mask0" mask-type="alpha" maskUnits="userSpaceOnUse" x="0" y="0" width="623" height="312">
<path d="M0.447266 0L311.554 311.107L622.661 0H0.447266Z" fill="#C4C4C4"/>
</mask>
<g mask="url(#mask0)">
<rect width="895" height="24" transform="matrix(1 -6.23899e-09 -6.23899e-09 -1 -99 26)" fill="url(#paint0_linear)"/>
<rect width="895" height="24" transform="matrix(1 -6.23899e-09 -6.23899e-09 -1 -99 58)" fill="url(#paint1_linear)"/>
<rect width="895" height="22" transform="matrix(1 -6.23899e-09 -6.23899e-09 -1 -99 90)" fill="url(#paint2_linear)"/>
<rect width="895" height="20" transform="matrix(1 -6.23899e-09 -6.23899e-09 -1 -99 122)" fill="url(#paint3_linear)"/>
<rect width="895" height="18" transform="matrix(1 -6.23899e-09 -6.23899e-09 -1 -99 154)" fill="url(#paint4_linear)"/>
<rect width="895" height="16" transform="matrix(1 -6.23899e-09 -6.23899e-09 -1 -99 186)" fill="url(#paint5_linear)"/>
<rect width="895" height="14" transform="matrix(1 -6.23899e-09 -6.23899e-09 -1 -99 218)" fill="url(#paint6_linear)"/>
<rect width="895" height="12" transform="matrix(1 -6.23899e-09 -6.23899e-09 -1 -99 250)" fill="url(#paint7_linear)"/>
<rect width="895" height="10" transform="matrix(1 -6.23899e-09 -6.23899e-09 -1 -99 282)" fill="url(#paint8_linear)"/>
<rect width="895" height="8" transform="matrix(1 -6.23899e-09 -6.23899e-09 -1 -99 314)" fill="url(#paint9_linear)"/>
<rect x="-18.0186" y="-2" width="601" height="335" fill="url(#paint10_linear)"/>
</g>
<defs>
<linearGradient id="paint0_linear" x1="0" y1="0" x2="933" y2="-2.23239e-06" gradientUnits="userSpaceOnUse">
<stop offset="0.0416667" stop-color="#F3F3F9"/>
<stop offset="0.421875" stop-color="#FFD200"/>
</linearGradient>
<linearGradient id="paint1_linear" x1="0" y1="0" x2="933" y2="-2.23239e-06" gradientUnits="userSpaceOnUse">
<stop offset="0.0416667" stop-color="#F3F3F9"/>
<stop offset="0.421875" stop-color="#FFD200"/>
</linearGradient>
<linearGradient id="paint2_linear" x1="0" y1="0" x2="933" y2="-2.43534e-06" gradientUnits="userSpaceOnUse">
<stop offset="0.0416667" stop-color="#F3F3F9"/>
<stop offset="0.421875" stop-color="#FFD200"/>
</linearGradient>
<linearGradient id="paint3_linear" x1="0" y1="0" x2="933" y2="-2.67887e-06" gradientUnits="userSpaceOnUse">
<stop offset="0.0416667" stop-color="#F3F3F9"/>
<stop offset="0.421875" stop-color="#FFD200"/>
</linearGradient>
<linearGradient id="paint4_linear" x1="0" y1="0" x2="933" y2="-2.97653e-06" gradientUnits="userSpaceOnUse">
<stop offset="0.0416667" stop-color="#F3F3F9"/>
<stop offset="0.421875" stop-color="#FFD200"/>
</linearGradient>
<linearGradient id="paint5_linear" x1="0" y1="0" x2="933" y2="-3.34859e-06" gradientUnits="userSpaceOnUse">
<stop offset="0.0416667" stop-color="#F3F3F9"/>
<stop offset="0.421875" stop-color="#FFD200"/>
</linearGradient>
<linearGradient id="paint6_linear" x1="0" y1="0" x2="933" y2="-3.82696e-06" gradientUnits="userSpaceOnUse">
<stop offset="0.0416667" stop-color="#F3F3F9"/>
<stop offset="0.421875" stop-color="#FFD200"/>
</linearGradient>
<linearGradient id="paint7_linear" x1="0" y1="0" x2="933" y2="-4.46479e-06" gradientUnits="userSpaceOnUse">
<stop offset="0.0416667" stop-color="#F3F3F9"/>
<stop offset="0.421875" stop-color="#FFD200"/>
</linearGradient>
<linearGradient id="paint8_linear" x1="0" y1="0" x2="933" y2="-5.35775e-06" gradientUnits="userSpaceOnUse">
<stop offset="0.0416667" stop-color="#F3F3F9"/>
<stop offset="0.421875" stop-color="#FFD200"/>
</linearGradient>
<linearGradient id="paint9_linear" x1="0" y1="0" x2="933" y2="-6.69718e-06" gradientUnits="userSpaceOnUse">
<stop offset="0.0416667" stop-color="#F3F3F9"/>
<stop offset="0.421875" stop-color="#FFD200"/>
</linearGradient>
<linearGradient id="paint10_linear" x1="20.9814" y1="2.99999" x2="356.813" y2="83.3442" gradientUnits="userSpaceOnUse">
<stop offset="0.118867" stop-color="#F3F3F9" stop-opacity="0.7"/>
<stop offset="1" stop-color="#F3F3F9" stop-opacity="0"/>
</linearGradient>
</defs>
</svg>
