<svg width="796" height="619" viewBox="0 0 796 619" fill="none" xmlns="http://www.w3.org/2000/svg">
<g clip-path="url(#clip0)">
<rect width="400" height="619" fill="white"/>
<path d="M0.205078 521.703L565.044 471.537L795.72 568.463L230.882 618.63L0.205078 521.703Z" fill="#D0D4D9"/>
<path d="M399.599 0.998169L0 521.877L230.776 618.115L399.599 0.998169Z" fill="#E4E4EA"/>
<path d="M399.599 0.998169L230.776 618.115L795.926 568.278L399.599 0.998169Z" fill="#E4E4EA"/>
<path d="M704.231 437.144L796 569.161L230.776 618.998L270.192 474.014L704.231 437.144Z" fill="#D0D4D9"/>
<path d="M270.484 473.877L230.776 618.115L0 521.877L84.7645 411.234L270.484 473.877Z" fill="#D0D4D9"/>
<path d="M309.384 330.199L348.438 187.764L267.078 173.729L174.277 294.641L309.384 330.199Z" fill="#F3F3F9"/>
<path d="M309.402 330.436L614.426 308.675L523.259 178.047L348.438 187.764L309.402 330.436Z" fill="#F3F3F9"/>
<path d="M399.599 0.998169L523.259 178.047L348.438 187.764L399.599 0.998169Z" fill="#FFD200"/>
<path d="M399.599 0.998169L348.437 187.764L267.078 173.729L399.599 0.998169Z" fill="#FFD200"/>
<path opacity="0.15" d="M399.599 0.998169L0 521.877L230.776 618.115L399.599 0.998169Z" fill="#0F0F0F"/>
<path d="M503.564 501.871L507.083 501.548C507.195 501.542 507.304 501.506 507.402 501.445C507.499 501.383 507.583 501.297 507.645 501.193C507.707 501.09 507.747 500.971 507.76 500.848C507.774 500.724 507.761 500.598 507.723 500.481C507.65 500.212 507.498 499.977 507.291 499.813C507.084 499.65 506.834 499.567 506.581 499.578L503.062 499.901C503.047 499.902 503.033 499.897 503.021 499.888C503.009 499.878 503.001 499.865 502.997 499.849L501.368 493.459C501.365 493.452 501.365 493.445 501.366 493.438C501.366 493.43 501.369 493.424 501.372 493.418C501.376 493.412 501.38 493.407 501.386 493.403C501.392 493.4 501.398 493.398 501.404 493.397L515.504 492.103C515.617 492.097 515.726 492.061 515.823 492C515.921 491.938 516.004 491.852 516.067 491.748C516.129 491.645 516.168 491.526 516.182 491.402C516.196 491.279 516.183 491.153 516.145 491.036C516.071 490.766 515.919 490.532 515.712 490.368C515.506 490.205 515.256 490.122 515.002 490.133L500.902 491.427C500.672 491.441 500.447 491.514 500.247 491.641C500.046 491.768 499.875 491.945 499.747 492.158C499.619 492.371 499.537 492.614 499.509 492.869C499.481 493.123 499.507 493.381 499.584 493.622L501.213 500.013C501.365 500.567 501.678 501.05 502.104 501.386C502.529 501.722 503.042 501.893 503.564 501.871Z" fill="#0F0F0F"/>
<path d="M547.435 517.739L543.248 518.124L543.128 517.655C542.753 516.286 541.979 515.093 540.928 514.263C539.878 513.433 538.609 513.011 537.32 513.065L527.765 513.942C527.648 513.797 527.517 513.666 527.374 513.553L517.884 506.053C517.742 505.941 517.589 505.847 517.428 505.772L516.139 500.717L526.932 499.726C527.162 499.712 527.387 499.639 527.587 499.512C527.788 499.386 527.959 499.208 528.087 498.995C528.215 498.782 528.296 498.539 528.325 498.284C528.353 498.03 528.327 497.772 528.249 497.531L526.621 491.14C526.469 490.586 526.156 490.103 525.731 489.767C525.305 489.431 524.792 489.26 524.27 489.282L519.106 489.756C518.994 489.762 518.885 489.798 518.787 489.859C518.689 489.921 518.606 490.007 518.544 490.111C518.482 490.214 518.442 490.333 518.428 490.457C518.415 490.58 518.427 490.706 518.465 490.823C518.539 491.092 518.691 491.327 518.898 491.491C519.105 491.654 519.354 491.737 519.608 491.726L524.772 491.252C524.787 491.251 524.801 491.256 524.813 491.266C524.825 491.275 524.833 491.288 524.837 491.304L526.466 497.695C526.468 497.701 526.469 497.708 526.468 497.715C526.468 497.722 526.465 497.729 526.462 497.735C526.458 497.741 526.454 497.746 526.448 497.75C526.443 497.753 526.436 497.755 526.43 497.756L510.685 499.201C510.572 499.208 510.463 499.243 510.366 499.305C510.268 499.366 510.185 499.452 510.123 499.556C510.06 499.66 510.021 499.778 510.007 499.902C509.993 500.025 510.006 500.151 510.044 500.268C510.118 500.538 510.27 500.773 510.477 500.936C510.683 501.099 510.933 501.182 511.187 501.171L514.356 500.88L515.644 505.936C515.529 506.034 515.43 506.152 515.349 506.286L510.029 515.145C509.948 515.281 509.887 515.43 509.848 515.587L500.294 516.464C499.725 516.498 499.17 516.678 498.674 516.991C498.178 517.305 497.756 517.742 497.439 518.269C497.123 518.796 496.922 519.397 496.852 520.026C496.783 520.654 496.846 521.291 497.038 521.888L497.226 522.625C496.587 522.798 495.988 523.117 495.468 523.563C494.948 524.009 494.518 524.571 494.206 525.213C493.894 525.855 493.706 526.562 493.656 527.289C493.606 528.017 493.694 528.747 493.915 529.434C494.358 531.027 495.218 532.438 496.384 533.489C497.55 534.54 498.971 535.184 500.466 535.339L502.981 545.205C502.342 545.378 501.744 545.697 501.223 546.143C500.703 546.589 500.273 547.151 499.961 547.793C499.649 548.435 499.462 549.142 499.412 549.87C499.361 550.597 499.449 551.328 499.67 552.015C500.153 553.774 501.146 555.306 502.496 556.373C503.846 557.44 505.476 557.981 507.132 557.912C507.787 557.88 508.427 557.694 509.012 557.366C509.597 557.039 510.113 556.578 510.526 556.013C510.938 555.449 511.238 554.793 511.406 554.091C511.574 553.388 511.605 552.654 511.498 551.937L515.957 551.527L515.914 551.359C516.053 551.903 515.443 551.611 515.935 551.565C516.744 551.681 517.688 550.094 517.239 549.395L515.428 542.289C515.414 542.247 515.409 542.201 515.414 542.157C515.419 542.112 515.434 542.069 515.456 542.032C515.479 541.994 515.509 541.963 515.544 541.941C515.58 541.918 515.619 541.906 515.66 541.903L519.366 541.563L520.373 545.513C520.511 546.014 520.794 546.451 521.179 546.755C521.564 547.06 522.029 547.214 522.501 547.195L526.076 546.866L528.24 555.354C528.414 555.99 528.774 556.544 529.262 556.93C529.75 557.316 530.339 557.512 530.938 557.487L550.664 555.676C550.929 555.66 551.186 555.576 551.417 555.431C551.647 555.285 551.843 555.082 551.99 554.837C552.137 554.593 552.231 554.313 552.263 554.021C552.295 553.729 552.266 553.433 552.177 553.156L551.38 550.029L555.566 549.644C555.797 549.631 556.021 549.558 556.222 549.431C556.423 549.304 556.594 549.127 556.722 548.914C556.85 548.701 556.931 548.457 556.959 548.203C556.987 547.949 556.961 547.691 556.884 547.45L549.785 519.597C549.633 519.043 549.32 518.56 548.895 518.224C548.47 517.888 547.956 517.718 547.435 517.739ZM511.645 516.422L516.964 507.563C516.966 507.561 516.969 507.559 516.971 507.559C516.974 507.559 516.976 507.56 516.978 507.561L526.468 515.061C526.47 515.063 526.471 515.065 526.472 515.068C526.473 515.071 526.473 515.074 526.471 515.076L521.152 523.936C521.151 523.937 521.15 523.938 521.149 523.938C521.148 523.939 521.146 523.939 521.145 523.94C521.144 523.94 521.143 523.939 521.141 523.939C521.14 523.939 521.139 523.938 521.138 523.937L511.648 516.437C511.647 516.435 511.645 516.433 511.644 516.43C511.644 516.428 511.644 516.425 511.645 516.422V516.422ZM495.698 529.271C495.527 528.739 495.47 528.171 495.533 527.611C495.595 527.051 495.774 526.515 496.056 526.046C496.338 525.576 496.714 525.186 497.156 524.907C497.598 524.628 498.093 524.467 498.6 524.437C499.749 524.389 500.88 524.765 501.817 525.505C502.753 526.245 503.443 527.308 503.778 528.529C503.949 529.06 504.005 529.629 503.943 530.188C503.881 530.748 503.702 531.285 503.42 531.754C503.138 532.224 502.761 532.614 502.319 532.893C501.877 533.172 501.383 533.333 500.875 533.363C499.726 533.41 498.595 533.035 497.659 532.294C496.722 531.554 496.033 530.491 495.698 529.271L495.698 529.271ZM506.63 555.942C505.481 555.99 504.35 555.614 503.414 554.874C502.477 554.134 501.788 553.071 501.453 551.85C501.282 551.319 501.225 550.751 501.288 550.191C501.35 549.631 501.529 549.095 501.811 548.626C502.093 548.156 502.47 547.766 502.911 547.487C503.353 547.208 503.848 547.047 504.355 547.017C505.504 546.97 506.635 547.345 507.572 548.085C508.508 548.825 509.198 549.888 509.533 551.109C509.704 551.64 509.76 552.208 509.698 552.768C509.636 553.328 509.457 553.864 509.175 554.334C508.893 554.803 508.516 555.193 508.074 555.473C507.632 555.752 507.138 555.913 506.63 555.942ZM517.858 535.643L518.864 539.593L515.157 539.933C514.893 539.948 514.635 540.032 514.405 540.178C514.174 540.323 513.978 540.527 513.831 540.772C513.684 541.016 513.59 541.296 513.558 541.588C513.526 541.88 513.555 542.176 513.644 542.453L515.455 549.557L510.996 549.967C510.439 548.61 509.57 547.441 508.476 546.576C507.382 545.712 506.101 545.182 504.764 545.041L502.25 535.175C502.888 535.002 503.487 534.682 504.007 534.236C504.527 533.791 504.957 533.229 505.27 532.587C505.582 531.945 505.769 531.237 505.819 530.51C505.869 529.783 505.781 529.052 505.561 528.365C505.117 526.773 504.258 525.362 503.092 524.311C501.926 523.26 500.505 522.616 499.009 522.46L498.821 521.723C498.705 521.362 498.666 520.975 498.709 520.594C498.751 520.213 498.873 519.848 499.065 519.529C499.257 519.209 499.513 518.944 499.814 518.754C500.114 518.564 500.451 518.454 500.796 518.434L510.35 517.557C510.468 517.702 510.6 517.832 510.743 517.946L520.232 525.446C520.375 525.558 520.528 525.652 520.688 525.727L522.626 533.328L519.05 533.656C518.842 533.669 518.638 533.735 518.457 533.85C518.275 533.964 518.12 534.125 518.005 534.318C517.889 534.511 517.815 534.731 517.79 534.961C517.764 535.191 517.787 535.425 517.858 535.643H517.858ZM519.676 535.615L528.364 534.817L530.81 544.416L522.122 545.213L519.676 535.615ZM550.393 553.32C550.407 553.362 550.412 553.408 550.407 553.452C550.402 553.497 550.387 553.54 550.365 553.577C550.342 553.615 550.312 553.646 550.277 553.668C550.242 553.69 550.202 553.703 550.162 553.706L530.436 555.517C530.344 555.52 530.254 555.49 530.18 555.431C530.105 555.372 530.05 555.287 530.023 555.19L527.86 546.703L531.435 546.374C531.644 546.362 531.847 546.296 532.029 546.181C532.21 546.066 532.365 545.906 532.481 545.713C532.597 545.52 532.67 545.3 532.696 545.069C532.722 544.839 532.698 544.606 532.628 544.387L531.621 540.438L540.735 539.601L543.059 548.719C543.211 549.273 543.524 549.756 543.95 550.092C544.375 550.428 544.888 550.598 545.41 550.577L549.596 550.192L550.393 553.32ZM555.101 547.613C555.103 547.62 555.104 547.627 555.103 547.634C555.102 547.641 555.1 547.648 555.096 547.654C555.093 547.66 555.088 547.665 555.082 547.668C555.077 547.672 555.071 547.674 555.064 547.674L544.908 548.607C544.894 548.608 544.879 548.603 544.867 548.593C544.855 548.584 544.847 548.571 544.843 548.555L540.431 531.247C540.358 530.978 540.205 530.743 539.999 530.579C539.792 530.416 539.542 530.333 539.289 530.344C539.176 530.35 539.067 530.386 538.97 530.447C538.872 530.509 538.789 530.595 538.726 530.699C538.664 530.802 538.625 530.921 538.611 531.044C538.597 531.168 538.61 531.294 538.648 531.411L540.233 537.631L531.119 538.468L530.113 534.518C529.975 534.017 529.692 533.58 529.307 533.275C528.922 532.971 528.457 532.817 527.985 532.836L524.409 533.164L522.472 525.563C522.587 525.465 522.687 525.347 522.768 525.213L528.087 516.353C528.168 516.218 528.229 516.069 528.267 515.912L537.822 515.035C538.604 515.002 539.373 515.258 540.011 515.762C540.648 516.265 541.117 516.989 541.345 517.819L541.465 518.287L537.278 518.672C537.048 518.685 536.823 518.758 536.623 518.885C536.422 519.012 536.251 519.189 536.123 519.402C535.995 519.615 535.913 519.858 535.885 520.113C535.857 520.367 535.883 520.625 535.96 520.866L537.492 526.877C537.566 527.146 537.718 527.381 537.925 527.544C538.132 527.708 538.381 527.791 538.635 527.78C538.747 527.773 538.856 527.738 538.954 527.676C539.051 527.615 539.135 527.529 539.197 527.425C539.259 527.321 539.299 527.203 539.312 527.079C539.326 526.956 539.313 526.83 539.276 526.713L537.744 520.702C537.742 520.696 537.741 520.688 537.742 520.681C537.743 520.674 537.745 520.668 537.748 520.662C537.752 520.656 537.757 520.651 537.762 520.648C537.768 520.644 537.774 520.642 537.781 520.642L547.937 519.709C547.951 519.709 547.965 519.713 547.977 519.723C547.989 519.732 547.998 519.745 548.002 519.761L555.101 547.613Z" fill="#0F0F0F"/>
<path d="M521.363 519.582L523.001 516.854C523.125 516.636 523.206 516.39 523.235 516.134C523.265 515.878 523.244 515.618 523.173 515.372C523.022 514.811 522.704 514.323 522.271 513.988L519.349 511.679C519.165 511.503 518.952 511.369 518.722 511.285C518.491 511.202 518.248 511.17 518.006 511.192C517.765 511.214 517.529 511.29 517.314 511.414C517.099 511.539 516.909 511.71 516.754 511.917L515.117 514.645C514.992 514.863 514.912 515.109 514.882 515.365C514.852 515.621 514.874 515.881 514.944 516.127C515.095 516.689 515.414 517.176 515.847 517.511L518.769 519.82C519.186 520.163 519.699 520.331 520.217 520.295C520.445 520.281 520.666 520.21 520.865 520.087C521.064 519.963 521.234 519.79 521.363 519.582ZM516.753 516.002C516.741 515.993 516.732 515.979 516.728 515.964C516.725 515.957 516.725 515.95 516.726 515.942C516.726 515.935 516.729 515.928 516.732 515.922L518.37 513.194C518.374 513.188 518.379 513.184 518.384 513.18C518.39 513.177 518.396 513.175 518.402 513.174C518.417 513.173 518.431 513.178 518.443 513.187L521.364 515.497C521.377 515.506 521.386 515.52 521.39 515.536C521.392 515.542 521.393 515.55 521.392 515.557C521.391 515.564 521.388 515.571 521.385 515.577L519.747 518.305C519.743 518.311 519.739 518.316 519.733 518.319C519.728 518.323 519.721 518.324 519.715 518.325C519.7 518.326 519.686 518.321 519.674 518.311L516.753 516.002Z" fill="#0F0F0F"/>
<path d="M546.395 528.265L543.724 528.51C543.612 528.517 543.502 528.552 543.405 528.614C543.307 528.675 543.224 528.761 543.162 528.865C543.1 528.969 543.06 529.087 543.046 529.211C543.033 529.334 543.045 529.46 543.083 529.577C543.157 529.847 543.309 530.081 543.516 530.245C543.723 530.408 543.972 530.491 544.226 530.48L546.897 530.235C547.009 530.229 547.119 530.193 547.216 530.132C547.314 530.07 547.397 529.984 547.459 529.88C547.522 529.777 547.561 529.658 547.575 529.535C547.588 529.411 547.576 529.285 547.538 529.168C547.464 528.899 547.312 528.664 547.105 528.5C546.898 528.337 546.649 528.254 546.395 528.265Z" fill="#0F0F0F"/>
<path d="M547.872 534.06L545.2 534.305C545.088 534.311 544.979 534.347 544.881 534.408C544.784 534.47 544.701 534.556 544.638 534.66C544.576 534.763 544.537 534.882 544.523 535.005C544.509 535.129 544.522 535.255 544.56 535.372C544.633 535.641 544.786 535.876 544.992 536.04C545.199 536.203 545.449 536.286 545.703 536.275L548.374 536.03C548.486 536.023 548.595 535.988 548.693 535.926C548.79 535.865 548.873 535.779 548.936 535.675C548.998 535.571 549.038 535.453 549.051 535.329C549.065 535.206 549.052 535.08 549.014 534.963C548.941 534.693 548.789 534.458 548.582 534.295C548.375 534.132 548.125 534.049 547.872 534.06Z" fill="#0F0F0F"/>
<path d="M549.349 539.854L546.678 540.099C546.566 540.105 546.457 540.141 546.359 540.202C546.261 540.264 546.178 540.35 546.116 540.454C546.054 540.557 546.014 540.676 546 540.8C545.987 540.923 545.999 541.049 546.037 541.166C546.111 541.435 546.263 541.67 546.47 541.834C546.677 541.997 546.926 542.08 547.18 542.069L549.851 541.824C549.964 541.817 550.073 541.782 550.17 541.72C550.268 541.659 550.351 541.573 550.413 541.469C550.476 541.365 550.515 541.247 550.529 541.123C550.543 541 550.53 540.874 550.492 540.757C550.418 540.487 550.266 540.253 550.059 540.089C549.853 539.926 549.603 539.843 549.349 539.854Z" fill="#0F0F0F"/>
<path d="M521.432 408.961L508.601 398.462C508.13 398.025 507.535 397.786 506.92 397.788C506.306 397.789 505.712 398.031 505.242 398.47L499.58 393.837C504.191 384.275 500.79 371.092 491.351 363.367C481.212 355.072 467.89 356.166 461.653 365.807C455.416 375.447 458.591 390.04 468.729 398.336C473.4 402.275 479.186 404.232 485.043 403.854C489.593 403.585 493.881 401.41 497.04 397.767L502.7 402.399C502.474 403.038 502.452 403.745 502.639 404.4C502.826 405.054 503.21 405.618 503.727 405.996L516.559 416.495C517.123 416.969 517.821 417.205 518.527 417.16C518.844 417.143 519.153 417.048 519.432 416.882C519.711 416.716 519.954 416.483 520.143 416.201L522.286 412.887C522.469 412.596 522.591 412.263 522.646 411.914C522.7 411.564 522.685 411.206 522.602 410.863C522.425 410.097 522.011 409.423 521.432 408.961ZM496.158 395.87C496.145 395.886 496.132 395.903 496.119 395.921C490.077 403.67 478.517 404.241 469.619 396.96C460.279 389.317 457.355 375.873 463.101 366.991C464.536 364.83 466.387 363.05 468.52 361.782C470.653 360.514 473.013 359.79 475.43 359.661C480.826 359.313 486.157 361.116 490.46 364.744C499.8 372.387 502.724 385.831 496.979 394.712C496.718 395.115 496.445 395.501 496.158 395.87ZM498.035 396.476C498.168 396.286 498.299 396.094 498.426 395.897C498.554 395.7 498.675 395.501 498.795 395.3L504.325 399.825L503.565 401.001L498.035 396.476ZM520.839 411.703L518.695 415.016C518.619 415.114 518.527 415.194 518.423 415.252C518.32 415.31 518.207 415.345 518.091 415.354C517.975 415.364 517.859 415.348 517.749 415.308C517.639 415.267 517.537 415.203 517.449 415.119L504.618 404.619C504.418 404.479 504.276 404.258 504.221 404.004C504.165 403.749 504.201 403.48 504.321 403.255L506.465 399.941C506.53 399.843 506.615 399.762 506.712 399.704C506.809 399.646 506.916 399.613 507.026 399.607C507.272 399.592 507.514 399.674 507.711 399.838L520.542 410.338C520.741 410.478 520.884 410.699 520.939 410.954C520.994 411.208 520.958 411.477 520.839 411.703Z" fill="#0F0F0F"/>
<path d="M494.226 377.725C491.722 376.098 489.048 374.818 486.264 373.911C486.253 373.907 486.242 373.901 486.231 373.898C484.723 373.414 483.177 373.088 481.613 372.925C481.577 372.921 481.542 372.918 481.506 372.915C481.35 372.9 481.195 372.888 481.041 372.877C480.995 372.874 480.948 372.87 480.902 372.868C480.728 372.857 480.554 372.849 480.382 372.843L480.331 372.841C480.142 372.835 479.954 372.833 479.768 372.833C479.718 372.834 479.669 372.835 479.62 372.835C479.477 372.837 479.334 372.84 479.192 372.845C479.138 372.847 479.084 372.849 479.03 372.852C478.843 372.861 478.656 372.871 478.472 372.887L478.471 372.887H478.471L478.469 372.887L478.397 372.894C478.236 372.908 478.076 372.924 477.915 372.944C477.844 372.952 477.774 372.962 477.703 372.971C477.592 372.986 477.48 373.001 477.369 373.018C477.296 373.03 477.222 373.041 477.149 373.053C477.022 373.074 476.894 373.098 476.767 373.122C476.719 373.132 476.671 373.14 476.624 373.149C476.455 373.183 476.287 373.221 476.119 373.26C476.062 373.273 476.006 373.288 475.949 373.302C475.826 373.332 475.702 373.364 475.578 373.397C475.526 373.411 475.475 373.425 475.423 373.44C475.272 373.482 475.12 373.527 474.969 373.574L474.92 373.589C474.562 373.702 474.205 373.827 473.849 373.965L473.847 373.966C473.014 374.289 472.201 374.673 471.414 375.115C471.405 375.12 471.397 375.127 471.388 375.132C469.141 376.412 467.097 378.089 465.336 380.098C465.161 380.305 465.037 380.559 464.976 380.836C464.916 381.112 464.92 381.401 464.988 381.674C465.06 381.981 465.186 382.269 465.359 382.521C465.533 382.772 465.75 382.983 465.998 383.14C468.502 384.767 471.176 386.048 473.961 386.954C473.972 386.958 473.982 386.964 473.993 386.967C474.924 387.262 475.87 387.501 476.825 387.682L476.836 387.684C477.237 387.759 477.633 387.822 478.026 387.873L478.085 387.88C478.249 387.901 478.413 387.92 478.576 387.936C478.632 387.942 478.689 387.947 478.745 387.952C478.878 387.965 479.011 387.975 479.143 387.985C479.204 387.989 479.264 387.994 479.325 387.997C479.504 388.008 479.682 388.017 479.859 388.023C479.909 388.024 479.959 388.024 480.009 388.026C480.142 388.029 480.275 388.031 480.407 388.031C480.483 388.031 480.558 388.03 480.634 388.029C480.749 388.027 480.864 388.025 480.978 388.021C481.049 388.018 481.121 388.016 481.193 388.013C481.356 388.005 481.518 387.995 481.679 387.983L481.752 387.978L481.753 387.978H481.754L481.755 387.978C481.939 387.963 482.124 387.943 482.308 387.921C482.361 387.915 482.414 387.908 482.467 387.901C482.607 387.884 482.746 387.864 482.885 387.842C482.933 387.835 482.98 387.828 483.027 387.82C483.208 387.791 483.389 387.758 483.569 387.722L483.615 387.712C483.779 387.679 483.944 387.643 484.109 387.604C484.151 387.594 484.194 387.583 484.236 387.573C484.382 387.538 484.527 387.5 484.672 387.461C484.704 387.452 484.737 387.443 484.769 387.434C486.168 387.041 487.523 386.476 488.809 385.75C488.819 385.745 488.826 385.738 488.835 385.733C491.082 384.453 493.127 382.776 494.888 380.767C495.063 380.559 495.187 380.305 495.248 380.029C495.308 379.753 495.304 379.464 495.236 379.19C495.164 378.883 495.038 378.596 494.865 378.344C494.691 378.092 494.474 377.882 494.226 377.725ZM471.99 384.415C470.16 383.654 468.391 382.721 466.703 381.628C466.688 381.619 466.675 381.606 466.664 381.591C466.653 381.575 466.646 381.558 466.642 381.539C466.637 381.522 466.637 381.504 466.64 381.488C466.644 381.471 466.652 381.455 466.663 381.443C467.84 380.101 469.152 378.912 470.573 377.901C470.481 379.006 470.556 380.12 470.796 381.198C471.045 382.331 471.448 383.415 471.99 384.415V384.415ZM487.613 384.238L487.589 384.251C487.499 384.3 487.407 384.348 487.316 384.395C487.27 384.419 487.223 384.444 487.175 384.468C487.089 384.512 487.002 384.555 486.915 384.597C486.862 384.623 486.808 384.649 486.755 384.674C486.669 384.715 486.584 384.755 486.498 384.795C486.442 384.82 486.386 384.845 486.33 384.869C486.138 384.954 485.946 385.036 485.754 385.113C485.73 385.122 485.708 385.132 485.684 385.141C485.606 385.172 485.528 385.201 485.45 385.231C485.38 385.257 485.31 385.283 485.24 385.309C485.162 385.337 485.084 385.364 485.006 385.391C484.931 385.417 484.856 385.442 484.781 385.466C484.706 385.491 484.631 385.516 484.555 385.539C484.454 385.571 484.351 385.601 484.249 385.631C484.16 385.656 484.072 385.681 483.983 385.705C483.878 385.733 483.772 385.761 483.665 385.787C483.6 385.803 483.535 385.819 483.471 385.834C483.368 385.858 483.265 385.88 483.161 385.902C483.104 385.914 483.047 385.927 482.99 385.938C482.836 385.968 482.68 385.997 482.522 386.023C482.484 386.029 482.445 386.035 482.406 386.041C482.275 386.061 482.144 386.08 482.011 386.097C481.963 386.103 481.914 386.109 481.866 386.115C481.698 386.135 481.53 386.153 481.36 386.167L481.357 386.167C481.189 386.181 481.021 386.191 480.854 386.199C480.785 386.202 480.715 386.204 480.646 386.206C480.547 386.209 480.448 386.212 480.349 386.213C480.275 386.214 480.202 386.215 480.128 386.215C479.981 386.215 479.834 386.213 479.687 386.209C479.606 386.207 479.525 386.203 479.444 386.199C479.361 386.196 479.277 386.192 479.193 386.187C479.105 386.182 479.016 386.176 478.927 386.169C478.851 386.164 478.775 386.157 478.7 386.15C478.535 386.136 478.369 386.119 478.203 386.1C478.137 386.092 478.071 386.086 478.006 386.077C477.908 386.065 477.81 386.051 477.712 386.037C477.646 386.027 477.58 386.018 477.514 386.008C477.416 385.993 477.317 385.977 477.219 385.96C477.156 385.95 477.093 385.938 477.03 385.927C476.929 385.909 476.828 385.891 476.726 385.871L476.672 385.86C476.442 385.815 476.21 385.765 475.976 385.71C475.921 385.697 475.866 385.685 475.812 385.672C475.709 385.647 475.606 385.621 475.503 385.595C475.444 385.58 475.385 385.565 475.325 385.549C475.223 385.522 475.12 385.494 475.017 385.465C474.961 385.45 474.905 385.434 474.85 385.418C474.743 385.387 474.637 385.357 474.53 385.324L474.5 385.315C473.51 384.108 472.805 382.646 472.449 381.062C472.111 379.598 472.168 378.056 472.611 376.627L472.64 376.611C472.725 376.565 472.81 376.521 472.895 376.476C472.947 376.45 472.999 376.423 473.051 376.396C473.134 376.354 473.217 376.312 473.301 376.271C473.356 376.245 473.411 376.218 473.467 376.192C473.551 376.152 473.635 376.112 473.719 376.073C473.773 376.049 473.828 376.025 473.883 376.001C474.053 375.925 474.224 375.852 474.396 375.783C474.439 375.765 474.481 375.747 474.525 375.73C474.609 375.697 474.693 375.665 474.777 375.634C474.839 375.61 474.901 375.587 474.964 375.564C475.048 375.534 475.131 375.504 475.215 375.475C475.281 375.453 475.347 375.431 475.414 375.409C475.496 375.381 475.579 375.354 475.662 375.328C475.762 375.297 475.863 375.267 475.964 375.238C476.071 375.207 476.177 375.178 476.284 375.149C476.365 375.128 476.445 375.106 476.526 375.086C476.603 375.067 476.679 375.049 476.756 375.031C476.845 375.01 476.935 374.991 477.025 374.972C477.092 374.957 477.159 374.942 477.226 374.929C477.37 374.9 477.516 374.874 477.662 374.849C477.727 374.839 477.793 374.829 477.858 374.819C477.961 374.803 478.064 374.788 478.168 374.775C478.232 374.766 478.295 374.757 478.358 374.75C478.525 374.73 478.693 374.712 478.863 374.698L478.865 374.698C479.035 374.684 479.205 374.674 479.375 374.667C479.425 374.664 479.474 374.662 479.524 374.661C479.658 374.656 479.793 374.652 479.928 374.651C479.968 374.651 480.008 374.65 480.048 374.649C480.211 374.649 480.374 374.651 480.536 374.656C480.596 374.658 480.657 374.661 480.717 374.663C480.826 374.668 480.935 374.673 481.043 374.679C481.113 374.683 481.182 374.687 481.252 374.692C481.365 374.701 481.479 374.71 481.592 374.721C481.689 374.73 481.786 374.739 481.884 374.75C481.995 374.762 482.106 374.774 482.216 374.788C482.299 374.799 482.382 374.81 482.465 374.822C482.549 374.834 482.632 374.846 482.715 374.859C482.801 374.872 482.888 374.886 482.975 374.9C483.055 374.913 483.134 374.928 483.213 374.942C483.3 374.958 483.388 374.973 483.476 374.99C483.543 375.003 483.61 375.018 483.677 375.031C483.854 375.067 484.031 375.106 484.209 375.147C484.276 375.162 484.344 375.178 484.412 375.194C484.509 375.217 484.606 375.242 484.703 375.266C484.769 375.283 484.835 375.3 484.901 375.317C484.999 375.344 485.098 375.37 485.197 375.398C485.258 375.415 485.319 375.432 485.38 375.45C485.483 375.479 485.585 375.509 485.688 375.54L485.723 375.551C486.713 376.758 487.418 378.22 487.775 379.804C488.112 381.268 488.056 382.809 487.613 384.238V384.238ZM493.561 379.422C492.384 380.764 491.072 381.953 489.651 382.964C489.743 381.859 489.668 380.745 489.428 379.667C489.178 378.534 488.776 377.45 488.234 376.45C490.064 377.212 491.833 378.144 493.521 379.237C493.536 379.246 493.549 379.259 493.56 379.274C493.57 379.29 493.578 379.307 493.582 379.326C493.587 379.343 493.587 379.361 493.584 379.378C493.58 379.394 493.572 379.41 493.561 379.422V379.422Z" fill="#0F0F0F"/>
<path d="M478.943 375.058C478.326 375.086 477.722 375.271 477.179 375.596C476.635 375.922 476.166 376.38 475.806 376.937C475.446 377.493 475.204 378.134 475.1 378.809C474.996 379.485 475.032 380.178 475.205 380.836C475.558 382.307 476.352 383.601 477.456 384.505C478.561 385.409 479.91 385.868 481.281 385.807C481.898 385.779 482.501 385.595 483.045 385.269C483.588 384.944 484.058 384.485 484.418 383.928C484.778 383.372 485.019 382.731 485.123 382.056C485.227 381.38 485.192 380.687 485.019 380.03C484.666 378.558 483.872 377.264 482.767 376.36C481.663 375.457 480.314 374.997 478.943 375.058ZM480.887 383.996C479.978 384.036 479.083 383.732 478.351 383.133C477.619 382.533 477.092 381.675 476.858 380.7C476.743 380.263 476.72 379.804 476.789 379.356C476.858 378.908 477.018 378.484 477.256 378.115C477.495 377.745 477.807 377.441 478.167 377.226C478.527 377.01 478.927 376.888 479.337 376.869C480.246 376.828 481.14 377.133 481.872 377.732C482.605 378.331 483.131 379.19 483.365 380.165C483.48 380.601 483.504 381.061 483.435 381.509C483.366 381.957 483.206 382.381 482.967 382.75C482.728 383.12 482.417 383.424 482.056 383.639C481.696 383.855 481.296 383.977 480.887 383.996Z" fill="#0F0F0F"/>
<path d="M497.021 377.198C495.553 372.791 492.939 368.968 489.509 366.213C485.599 362.916 480.755 361.277 475.851 361.594C473.812 361.677 471.812 362.238 469.983 363.24C468.153 364.242 466.535 365.663 465.236 367.408C463.936 369.153 462.985 371.184 462.443 373.367C461.902 375.55 461.783 377.835 462.094 380.072C462.131 380.326 462.245 380.557 462.417 380.729C462.589 380.9 462.808 381.002 463.039 381.016C463.072 381.017 463.104 381.017 463.136 381.014C463.232 381.01 463.326 380.984 463.412 380.936C463.498 380.889 463.574 380.822 463.635 380.74C463.696 380.658 463.74 380.563 463.766 380.46C463.791 380.357 463.796 380.25 463.782 380.145C463.5 378.118 463.608 376.048 464.098 374.07C464.589 372.093 465.451 370.253 466.628 368.672C467.806 367.091 469.271 365.804 470.929 364.896C472.586 363.988 474.398 363.48 476.245 363.405C480.688 363.118 485.076 364.602 488.619 367.59C491.726 370.085 494.094 373.548 495.424 377.54C495.504 377.78 495.655 377.983 495.853 378.114C496.052 378.245 496.285 378.297 496.513 378.261C496.616 378.24 496.713 378.193 496.797 378.125C496.881 378.056 496.95 377.968 496.999 377.866C497.048 377.763 497.075 377.65 497.079 377.534C497.083 377.419 497.063 377.304 497.021 377.198Z" fill="#0F0F0F"/>
<path d="M497.043 380.7C496.939 380.689 496.835 380.704 496.737 380.745C496.64 380.785 496.552 380.85 496.48 380.934C496.408 381.018 496.355 381.119 496.324 381.229C496.292 381.339 496.284 381.456 496.3 381.57C496.58 383.596 496.471 385.665 495.979 387.641C495.487 389.617 494.625 391.455 493.448 393.035C492.27 394.615 490.805 395.9 489.148 396.807C487.492 397.714 485.681 398.222 483.835 398.297C479.392 398.584 475.004 397.099 471.461 394.112C468.352 391.615 465.982 388.148 464.653 384.152C464.573 383.912 464.422 383.709 464.223 383.578C464.025 383.446 463.793 383.394 463.564 383.431C463.461 383.452 463.364 383.498 463.28 383.566C463.196 383.635 463.127 383.723 463.078 383.825C463.029 383.928 463.002 384.041 462.998 384.156C462.994 384.272 463.013 384.387 463.055 384.493C464.522 388.904 467.138 392.732 470.571 395.489C474.481 398.786 479.325 400.424 484.229 400.108C486.266 400.025 488.265 399.464 490.094 398.463C491.923 397.462 493.54 396.043 494.84 394.299C496.139 392.555 497.091 390.526 497.634 388.345C498.176 386.164 498.297 383.88 497.987 381.644C497.95 381.391 497.837 381.159 497.665 380.987C497.493 380.815 497.274 380.714 497.043 380.7Z" fill="#0F0F0F"/>
<path d="M442.291 99.24L394.425 101.774C394.331 101.77 394.237 101.79 394.151 101.834C394.065 101.878 393.99 101.944 393.931 102.026C393.873 102.108 393.833 102.205 393.814 102.307C393.796 102.41 393.8 102.516 393.825 102.617L404.151 146.423C404.217 146.65 404.349 146.848 404.525 146.985C404.702 147.122 404.914 147.191 405.129 147.182L452.994 144.648C453.089 144.653 453.182 144.632 453.268 144.588C453.354 144.545 453.429 144.479 453.488 144.397C453.547 144.314 453.587 144.218 453.605 144.115C453.624 144.012 453.62 143.906 453.594 143.805L451.579 135.258C451.513 135.03 451.382 134.833 451.205 134.696C451.029 134.559 450.817 134.489 450.602 134.498C450.507 134.494 450.413 134.514 450.327 134.558C450.242 134.602 450.166 134.668 450.108 134.75C450.049 134.832 450.009 134.929 449.99 135.031C449.972 135.134 449.976 135.24 450.001 135.341L451.827 143.087L405.54 145.538L397.103 109.746L443.39 107.295L449.246 132.136C449.312 132.363 449.443 132.561 449.62 132.698C449.796 132.835 450.008 132.904 450.224 132.896C450.318 132.9 450.412 132.879 450.498 132.836C450.584 132.792 450.659 132.726 450.718 132.644C450.776 132.562 450.816 132.465 450.835 132.362C450.853 132.259 450.85 132.153 450.824 132.052L443.268 99.9995C443.202 99.7721 443.071 99.5748 442.894 99.4378C442.718 99.3007 442.506 99.2312 442.291 99.24ZM395.592 103.335L424.785 101.789L425.918 106.597L396.725 108.143L395.592 103.335ZM427.496 106.514L426.363 101.706L441.879 100.884L443.013 105.692L427.496 106.514Z" fill="#0F0F0F"/>
<path d="M434.512 102.843C434.412 102.838 434.312 102.861 434.22 102.907C434.129 102.954 434.048 103.024 433.986 103.112C433.924 103.199 433.881 103.302 433.861 103.412C433.841 103.521 433.845 103.635 433.872 103.742C433.943 103.985 434.083 104.195 434.272 104.341C434.46 104.487 434.686 104.562 434.915 104.552C435.016 104.557 435.116 104.535 435.208 104.488C435.299 104.441 435.379 104.371 435.442 104.284C435.504 104.196 435.547 104.093 435.567 103.984C435.587 103.874 435.583 103.761 435.556 103.653C435.485 103.411 435.345 103.2 435.156 103.054C434.968 102.908 434.742 102.834 434.512 102.843Z" fill="#0F0F0F"/>
<path d="M430.2 103.071C430.099 103.067 429.999 103.089 429.908 103.136C429.816 103.182 429.736 103.252 429.674 103.34C429.611 103.428 429.568 103.531 429.549 103.64C429.529 103.75 429.533 103.863 429.56 103.971C429.631 104.213 429.771 104.423 429.959 104.57C430.147 104.716 430.373 104.79 430.603 104.781C430.704 104.785 430.804 104.763 430.895 104.716C430.987 104.67 431.067 104.6 431.129 104.512C431.192 104.424 431.235 104.321 431.254 104.212C431.274 104.102 431.27 103.989 431.243 103.881C431.172 103.639 431.032 103.429 430.844 103.283C430.656 103.136 430.43 103.062 430.2 103.071Z" fill="#0F0F0F"/>
<path d="M438.826 102.615C438.725 102.61 438.625 102.632 438.534 102.679C438.442 102.726 438.362 102.796 438.3 102.883C438.237 102.971 438.194 103.074 438.175 103.184C438.155 103.293 438.159 103.406 438.186 103.514C438.257 103.756 438.397 103.967 438.585 104.113C438.773 104.259 438.999 104.333 439.229 104.324C439.33 104.329 439.43 104.307 439.521 104.26C439.613 104.213 439.693 104.143 439.755 104.055C439.818 103.968 439.861 103.865 439.88 103.755C439.9 103.646 439.896 103.532 439.869 103.425C439.798 103.182 439.658 102.972 439.47 102.826C439.282 102.68 439.056 102.606 438.826 102.615Z" fill="#0F0F0F"/>
<path d="M432.214 131.926L428.993 136.451C429.215 136.751 429.377 137.1 429.469 137.475C429.545 137.777 429.556 138.096 429.501 138.404C429.445 138.712 429.325 139.001 429.149 139.248C428.974 139.495 428.748 139.692 428.49 139.823C428.233 139.955 427.951 140.017 427.668 140.004C427.023 140.03 426.387 139.821 425.858 139.41C425.328 138.999 424.934 138.407 424.735 137.725C424.658 137.423 424.647 137.104 424.703 136.796C424.758 136.488 424.879 136.199 425.054 135.952C425.23 135.705 425.456 135.508 425.713 135.377C425.97 135.246 426.252 135.184 426.535 135.196C426.901 135.179 427.266 135.241 427.61 135.377L430.831 130.852C430.978 130.69 431.173 130.595 431.379 130.584C431.585 130.573 431.788 130.647 431.947 130.793C432.034 130.845 432.11 130.917 432.171 131.003C432.232 131.09 432.276 131.189 432.301 131.295C432.326 131.401 432.331 131.512 432.317 131.621C432.302 131.729 432.267 131.833 432.214 131.926ZM427.891 137.559C427.824 137.331 427.693 137.134 427.516 136.997C427.34 136.86 427.128 136.79 426.913 136.799C426.819 136.795 426.725 136.815 426.639 136.859C426.553 136.903 426.478 136.969 426.419 137.051C426.361 137.133 426.321 137.23 426.302 137.332C426.284 137.435 426.287 137.541 426.313 137.642C426.379 137.869 426.511 138.067 426.687 138.204C426.864 138.341 427.075 138.41 427.291 138.402C427.385 138.406 427.479 138.385 427.565 138.341C427.65 138.298 427.726 138.232 427.784 138.15C427.843 138.067 427.883 137.971 427.901 137.868C427.92 137.766 427.916 137.659 427.891 137.559Z" fill="#0F0F0F"/>
<path d="M437.693 137.039C437.759 137.267 437.89 137.464 438.067 137.601C438.243 137.738 438.455 137.808 438.671 137.799L444.301 137.501C444.395 137.505 444.489 137.485 444.575 137.441C444.661 137.397 444.736 137.331 444.795 137.249C444.853 137.167 444.894 137.07 444.912 136.968C444.93 136.865 444.927 136.759 444.901 136.658C444.896 136.638 444.891 136.618 444.885 136.598C443.554 131.559 440.686 127.191 436.772 124.24C436.71 124.177 436.641 124.123 436.566 124.081C432.559 120.947 427.74 119.347 422.84 119.524C420.693 119.555 418.577 120.096 416.634 121.11C414.691 122.124 412.966 123.588 411.575 125.403C411.549 125.428 411.525 125.455 411.504 125.485C411.483 125.515 411.464 125.547 411.449 125.581C410.204 127.405 409.361 129.528 408.989 131.779C408.616 134.03 408.724 136.346 409.304 138.542C409.37 138.77 409.501 138.967 409.678 139.104C409.854 139.241 410.066 139.311 410.281 139.302L415.91 139.004C416.004 139.008 416.098 138.988 416.184 138.944C416.27 138.9 416.345 138.835 416.404 138.752C416.462 138.67 416.502 138.574 416.521 138.471C416.539 138.368 416.536 138.262 416.51 138.161C415.112 132.23 418.726 127.152 424.566 126.843C430.406 126.534 436.295 131.108 437.693 137.039ZM416.888 128.742L413.335 125.981C415.707 123.156 418.961 121.442 422.434 121.188L423.405 125.309C420.93 125.539 418.614 126.759 416.888 128.742ZM424.012 121.105C427.959 121.14 431.814 122.433 435.119 124.828L432.938 127.892C430.555 126.215 427.804 125.293 424.983 125.225L424.012 121.105ZM439.057 136.156C438.145 133.297 436.499 130.797 434.321 128.966L436.502 125.902C439.582 128.416 441.89 131.921 443.113 135.941L439.057 136.156L439.057 136.156ZM414.768 137.442L410.712 137.656C410.339 135.868 410.304 134.013 410.609 132.209C410.915 130.405 411.554 128.69 412.486 127.174L416.039 129.934C415.392 131.031 414.947 132.259 414.729 133.547C414.511 134.835 414.524 136.159 414.768 137.442V137.442Z" fill="#0F0F0F"/>
<path d="M400.816 104.402L420.8 103.344L421.17 104.913L401.186 105.971L400.816 104.402Z" fill="#0F0F0F"/>
<path d="M402.765 112.666L413.683 112.088L414.053 113.658L403.135 114.236L402.765 112.666Z" fill="#0F0F0F"/>
<path d="M403.554 116.014L414.472 115.436L414.842 117.005L403.924 117.583L403.554 116.014Z" fill="#0F0F0F"/>
<path d="M443.695 119.503L433.806 120.026L431.438 109.983L441.327 109.46L443.695 119.503ZM435.059 118.265L441.652 117.916L440.074 111.221L433.481 111.57L435.059 118.265Z" fill="#0F0F0F"/>
<path d="M448.376 274.819C448.486 275.193 448.513 275.591 448.455 275.979C448.422 276.112 448.362 276.235 448.28 276.339C448.198 276.443 448.095 276.524 447.98 276.577C448.267 276.656 448.523 276.835 448.712 277.088C448.932 277.426 449.086 277.812 449.164 278.221L450.101 282.27C450.323 283.232 450.788 283.687 451.497 283.636L451.856 283.61L452.194 285.071L451.562 285.117C451.244 285.155 450.923 285.123 450.617 285.022C450.31 284.922 450.025 284.754 449.777 284.531C449.256 284.002 448.9 283.304 448.761 282.536L447.777 278.283C447.634 277.667 447.348 277.374 446.917 277.405L446.415 277.441L446.072 275.962L446.575 275.926C447.005 275.895 447.149 275.571 447.007 274.955L446.022 270.702C445.801 270.027 445.828 269.282 446.097 268.629C446.257 268.365 446.475 268.151 446.73 268.007C446.986 267.864 447.271 267.796 447.557 267.81L448.188 267.764L448.526 269.225L448.168 269.251C447.459 269.302 447.217 269.808 447.439 270.769L448.376 274.819Z" fill="#0F0F0F"/>
<path d="M455.533 284.831C454.68 283.658 453.953 282.379 453.367 281.02C452.71 279.509 452.192 277.927 451.822 276.3C451.448 274.737 451.228 273.133 451.167 271.516C451.103 270.173 451.224 268.826 451.528 267.524L452.834 267.43C452.557 268.794 452.449 270.193 452.512 271.589C452.589 273.148 452.81 274.694 453.171 276.203C453.527 277.77 454.017 279.296 454.634 280.76C455.237 282.17 455.976 283.504 456.839 284.737L455.533 284.831Z" fill="#0F0F0F"/>
<path d="M467.513 283.969C467.79 282.605 467.898 281.206 467.835 279.81C467.767 278.25 467.551 276.703 467.19 275.194C466.834 273.626 466.339 272.1 465.712 270.639C465.11 269.228 464.37 267.895 463.508 266.662L464.814 266.568C465.678 267.727 466.409 269 466.99 270.359C467.649 271.877 468.168 273.464 468.539 275.097C468.913 276.661 469.133 278.265 469.194 279.881C469.255 281.226 469.128 282.573 468.819 283.875L467.513 283.969Z" fill="#0F0F0F"/>
<path d="M473.937 273.957L474.279 275.436L473.791 275.471C473.37 275.502 473.231 275.825 473.373 276.441L474.357 280.694C474.468 281.029 474.516 281.385 474.501 281.741C474.486 282.097 474.407 282.446 474.268 282.768C474.109 283.032 473.891 283.246 473.635 283.39C473.379 283.533 473.095 283.602 472.809 283.588L472.177 283.633L471.839 282.172L472.184 282.148C472.911 282.095 473.163 281.588 472.941 280.627L472.004 276.577C471.893 276.204 471.861 275.808 471.911 275.419C471.943 275.285 472.003 275.162 472.085 275.058C472.168 274.955 472.27 274.873 472.385 274.821C472.103 274.744 471.849 274.572 471.658 274.328C471.444 273.979 471.294 273.588 471.216 273.175L470.279 269.126C470.057 268.164 469.582 267.71 468.854 267.762L468.51 267.787L468.172 266.326L468.803 266.281C469.121 266.243 469.442 266.275 469.749 266.375C470.055 266.476 470.34 266.643 470.588 266.867C471.117 267.39 471.479 268.09 471.619 268.86L472.603 273.113C472.746 273.73 473.027 274.023 473.449 273.992L473.937 273.957Z" fill="#0F0F0F"/>
<path d="M457.997 280.539C457.723 280.556 457.453 280.463 457.236 280.276C456.998 280.078 456.829 279.795 456.758 279.475C456.719 279.34 456.708 279.197 456.726 279.056C456.744 278.916 456.791 278.782 456.863 278.665C456.93 278.552 457.021 278.458 457.127 278.392C457.234 278.326 457.354 278.29 457.476 278.287C457.746 278.268 458.012 278.362 458.223 278.55C458.453 278.746 458.615 279.023 458.682 279.336C458.722 279.476 458.735 279.624 458.718 279.77C458.701 279.915 458.656 280.055 458.585 280.179C458.521 280.287 458.434 280.377 458.331 280.439C458.229 280.502 458.114 280.536 457.997 280.539Z" fill="#0F0F0F"/>
<path d="M461.249 280.305C460.975 280.322 460.705 280.229 460.488 280.042C460.25 279.844 460.081 279.561 460.01 279.241C459.971 279.106 459.96 278.963 459.978 278.822C459.996 278.682 460.043 278.548 460.115 278.431C460.182 278.318 460.273 278.224 460.379 278.158C460.486 278.092 460.606 278.056 460.728 278.052C460.998 278.034 461.264 278.128 461.475 278.316C461.705 278.512 461.867 278.789 461.934 279.102C461.974 279.242 461.987 279.39 461.97 279.536C461.953 279.681 461.908 279.821 461.837 279.945C461.773 280.053 461.685 280.143 461.583 280.205C461.481 280.268 461.366 280.302 461.249 280.305Z" fill="#0F0F0F"/>
<path d="M464.501 280.071C464.227 280.088 463.957 279.995 463.74 279.808C463.502 279.61 463.333 279.327 463.262 279.007C463.223 278.872 463.212 278.729 463.23 278.588C463.248 278.448 463.295 278.314 463.367 278.197C463.434 278.083 463.525 277.99 463.631 277.924C463.738 277.858 463.858 277.822 463.98 277.818C464.25 277.8 464.516 277.894 464.727 278.082C464.957 278.278 465.119 278.555 465.186 278.868C465.226 279.008 465.239 279.156 465.222 279.302C465.205 279.447 465.16 279.587 465.089 279.711C465.025 279.819 464.937 279.909 464.835 279.971C464.733 280.034 464.618 280.068 464.501 280.071Z" fill="#0F0F0F"/>
<path d="M424.316 229.893C424.263 229.724 424.246 229.544 424.266 229.366C424.287 229.189 424.344 229.019 424.434 228.871C424.524 228.722 424.643 228.599 424.783 228.51C424.923 228.421 425.08 228.37 425.241 228.36L435.315 227.635C435.678 227.632 436.032 227.763 436.32 228.008C436.609 228.253 436.816 228.597 436.908 228.987L439.578 240.525C439.631 240.694 439.648 240.874 439.628 241.052C439.607 241.229 439.55 241.399 439.46 241.548C439.37 241.696 439.251 241.82 439.11 241.908C438.97 241.997 438.814 242.048 438.653 242.058L428.579 242.783C428.216 242.786 427.862 242.655 427.574 242.41C427.285 242.165 427.078 241.821 426.986 241.431L424.316 229.893ZM425.575 229.803L428.245 241.341L438.319 240.616L435.649 229.078L425.575 229.803Z" fill="#0F0F0F"/>
<path d="M443.204 228.534C443.151 228.365 443.134 228.185 443.155 228.007C443.175 227.83 443.233 227.66 443.323 227.511C443.412 227.363 443.532 227.239 443.672 227.151C443.812 227.062 443.969 227.011 444.13 227.001L454.204 226.276C454.567 226.273 454.921 226.404 455.209 226.649C455.497 226.894 455.704 227.238 455.797 227.628L458.467 239.166C458.52 239.335 458.537 239.515 458.516 239.693C458.496 239.87 458.438 240.04 458.349 240.188C458.259 240.337 458.139 240.461 457.999 240.549C457.859 240.638 457.702 240.689 457.541 240.699L447.468 241.424C447.104 241.427 446.751 241.296 446.462 241.051C446.174 240.806 445.967 240.462 445.875 240.072L443.204 228.534ZM444.464 228.443L447.134 239.981L457.208 239.256L454.537 227.719L444.464 228.443Z" fill="#0F0F0F"/>
<path d="M462.092 227.175C462.039 227.006 462.022 226.826 462.043 226.648C462.063 226.471 462.12 226.301 462.21 226.152C462.3 226.004 462.42 225.88 462.56 225.792C462.7 225.703 462.857 225.652 463.018 225.642L473.091 224.917C473.454 224.914 473.808 225.045 474.097 225.29C474.385 225.535 474.592 225.879 474.684 226.269L477.354 237.807C477.407 237.976 477.424 238.156 477.404 238.333C477.383 238.511 477.326 238.681 477.236 238.829C477.146 238.978 477.027 239.101 476.887 239.19C476.747 239.278 476.59 239.33 476.429 239.34L466.355 240.064C465.992 240.068 465.638 239.936 465.35 239.692C465.061 239.447 464.855 239.102 464.762 238.713L462.092 227.175ZM463.351 227.084L466.021 238.622L476.095 237.897L473.425 226.359L463.351 227.084Z" fill="#0F0F0F"/>
<path d="M448.878 230.764L452.134 233.286C452.204 233.33 452.266 233.389 452.315 233.46C452.364 233.53 452.399 233.611 452.419 233.698C452.439 233.784 452.443 233.875 452.431 233.963C452.419 234.051 452.391 234.136 452.348 234.212L450.347 237.111C450.232 237.246 450.076 237.327 449.91 237.339C449.743 237.351 449.579 237.293 449.45 237.176C449.379 237.132 449.318 237.073 449.269 237.002C449.22 236.932 449.184 236.851 449.164 236.764C449.144 236.678 449.14 236.587 449.152 236.499C449.165 236.411 449.193 236.326 449.235 236.25L450.412 234.546L438.395 235.411L438.092 234.102L450.109 233.237L448.195 231.755C448.125 231.711 448.063 231.652 448.014 231.581C447.965 231.51 447.929 231.429 447.909 231.343C447.889 231.256 447.885 231.166 447.898 231.078C447.91 230.989 447.938 230.905 447.981 230.829C448.095 230.695 448.252 230.614 448.418 230.602C448.584 230.59 448.749 230.648 448.878 230.764Z" fill="#0F0F0F"/>
<path d="M467.347 229.435L470.603 231.957C470.673 232.001 470.734 232.06 470.783 232.131C470.833 232.201 470.868 232.282 470.888 232.369C470.908 232.455 470.912 232.546 470.9 232.634C470.888 232.722 470.86 232.807 470.817 232.883L468.816 235.782C468.701 235.917 468.545 235.998 468.378 236.01C468.212 236.022 468.048 235.964 467.918 235.847C467.848 235.803 467.787 235.744 467.738 235.673C467.689 235.603 467.653 235.522 467.633 235.435C467.613 235.349 467.609 235.258 467.621 235.17C467.633 235.082 467.662 234.997 467.704 234.921L468.88 233.217L456.863 234.082L456.561 232.773L468.578 231.908L466.664 230.426C466.593 230.382 466.532 230.323 466.483 230.252C466.434 230.181 466.398 230.1 466.378 230.014C466.358 229.927 466.354 229.837 466.366 229.749C466.379 229.66 466.407 229.576 466.449 229.5C466.564 229.366 466.72 229.285 466.887 229.273C467.053 229.261 467.217 229.319 467.347 229.435Z" fill="#0F0F0F"/>
<path d="M435.064 236.506L432.001 233.666C431.949 233.602 431.884 233.552 431.812 233.519C431.74 233.487 431.662 233.473 431.584 233.478C431.506 233.484 431.431 233.509 431.363 233.551C431.295 233.594 431.237 233.653 431.193 233.724L429.523 236.905C429.453 237.081 429.438 237.278 429.481 237.465C429.524 237.651 429.623 237.816 429.761 237.933C429.813 237.997 429.877 238.048 429.949 238.08C430.022 238.113 430.1 238.127 430.177 238.121C430.255 238.115 430.331 238.09 430.398 238.048C430.466 238.005 430.524 237.946 430.569 237.875L431.55 236.005L434.535 248.903L435.678 248.821L432.693 235.923L434.494 237.592C434.546 237.657 434.611 237.707 434.683 237.739C434.755 237.772 434.833 237.786 434.911 237.78C434.989 237.775 435.064 237.75 435.132 237.707C435.2 237.664 435.258 237.605 435.302 237.534C435.372 237.358 435.387 237.161 435.343 236.975C435.3 236.788 435.202 236.623 435.064 236.506Z" fill="#0F0F0F"/>
<path d="M482.184 258.671C482.237 258.84 482.254 259.02 482.233 259.198C482.213 259.375 482.155 259.545 482.065 259.694C481.976 259.842 481.856 259.966 481.716 260.054C481.576 260.143 481.419 260.194 481.258 260.204L471.184 260.929C470.821 260.932 470.467 260.801 470.179 260.556C469.89 260.311 469.684 259.967 469.591 259.577L466.921 248.039C466.868 247.87 466.851 247.69 466.872 247.512C466.892 247.335 466.95 247.165 467.039 247.017C467.129 246.868 467.249 246.745 467.389 246.656C467.529 246.567 467.686 246.516 467.847 246.506L477.92 245.781C478.284 245.778 478.637 245.909 478.926 246.154C479.214 246.399 479.421 246.743 479.513 247.133L482.184 258.671ZM480.924 258.762L478.254 247.224L468.18 247.949L470.851 259.487L480.924 258.762Z" fill="#0F0F0F"/>
<path d="M463.295 260.03C463.348 260.199 463.365 260.379 463.344 260.557C463.324 260.734 463.267 260.904 463.177 261.053C463.087 261.201 462.967 261.325 462.827 261.413C462.687 261.502 462.53 261.553 462.369 261.563L452.296 262.288C451.933 262.291 451.579 262.16 451.29 261.915C451.002 261.67 450.795 261.326 450.703 260.936L448.033 249.398C447.98 249.229 447.963 249.049 447.983 248.872C448.004 248.694 448.061 248.524 448.151 248.376C448.24 248.227 448.36 248.104 448.5 248.015C448.64 247.927 448.797 247.875 448.958 247.866L459.032 247.141C459.395 247.137 459.749 247.269 460.037 247.513C460.326 247.758 460.532 248.103 460.625 248.492L463.295 260.03ZM462.036 260.121L459.366 248.583L449.292 249.308L451.962 260.846L462.036 260.121Z" fill="#0F0F0F"/>
<path d="M444.407 261.389C444.46 261.558 444.477 261.739 444.457 261.916C444.436 262.094 444.379 262.263 444.289 262.412C444.199 262.561 444.08 262.684 443.94 262.773C443.799 262.861 443.643 262.912 443.482 262.922L433.408 263.647C433.045 263.65 432.691 263.519 432.403 263.274C432.114 263.03 431.907 262.685 431.815 262.295L429.145 250.758C429.092 250.589 429.075 250.408 429.095 250.231C429.116 250.053 429.173 249.884 429.263 249.735C429.353 249.586 429.472 249.463 429.612 249.374C429.753 249.286 429.909 249.235 430.07 249.225L440.144 248.5C440.507 248.497 440.861 248.628 441.149 248.873C441.438 249.117 441.645 249.462 441.737 249.851L444.407 261.389ZM443.148 261.48L440.478 249.942L430.404 250.667L433.074 262.205L443.148 261.48Z" fill="#0F0F0F"/>
<path d="M457.621 257.8L454.365 255.278C454.294 255.234 454.233 255.175 454.184 255.105C454.135 255.034 454.099 254.953 454.079 254.866C454.059 254.78 454.055 254.69 454.067 254.601C454.08 254.513 454.108 254.428 454.15 254.353L456.152 251.453C456.266 251.319 456.423 251.238 456.589 251.226C456.755 251.214 456.92 251.272 457.049 251.388C457.119 251.432 457.181 251.491 457.23 251.562C457.279 251.633 457.315 251.714 457.335 251.8C457.355 251.887 457.359 251.977 457.346 252.065C457.334 252.153 457.306 252.238 457.263 252.314L456.087 254.018L468.104 253.154L468.407 254.463L456.39 255.327L458.304 256.81C458.374 256.853 458.435 256.912 458.485 256.983C458.534 257.054 458.569 257.135 458.589 257.222C458.609 257.308 458.613 257.398 458.601 257.486C458.589 257.575 458.561 257.659 458.518 257.735C458.403 257.869 458.247 257.95 458.081 257.962C457.914 257.974 457.75 257.916 457.621 257.8Z" fill="#0F0F0F"/>
<path d="M439.153 259.129L435.897 256.607C435.827 256.563 435.765 256.504 435.716 256.434C435.667 256.363 435.632 256.282 435.611 256.195C435.591 256.109 435.587 256.019 435.6 255.93C435.612 255.842 435.64 255.757 435.683 255.682L437.684 252.782C437.799 252.648 437.955 252.566 438.121 252.555C438.288 252.543 438.452 252.601 438.581 252.717C438.652 252.761 438.713 252.82 438.762 252.891C438.811 252.962 438.847 253.043 438.867 253.129C438.887 253.216 438.891 253.306 438.879 253.394C438.866 253.482 438.838 253.567 438.796 253.643L437.619 255.347L449.636 254.483L449.939 255.792L437.922 256.656L439.836 258.139C439.906 258.182 439.968 258.241 440.017 258.312C440.066 258.383 440.101 258.464 440.121 258.551C440.141 258.637 440.145 258.727 440.133 258.815C440.121 258.904 440.093 258.988 440.05 259.064C439.935 259.198 439.779 259.279 439.613 259.291C439.446 259.303 439.282 259.245 439.153 259.129Z" fill="#0F0F0F"/>
<path d="M471.435 252.058L474.499 254.898C474.551 254.962 474.616 255.013 474.688 255.045C474.76 255.078 474.838 255.092 474.915 255.086C474.993 255.08 475.069 255.055 475.137 255.013C475.204 254.97 475.263 254.911 475.307 254.84L476.977 251.659C477.047 251.483 477.061 251.286 477.018 251.099C476.975 250.913 476.877 250.748 476.739 250.631C476.687 250.567 476.622 250.517 476.55 250.484C476.478 250.452 476.4 250.438 476.322 250.443C476.244 250.449 476.169 250.474 476.101 250.516C476.033 250.559 475.975 250.618 475.931 250.689L474.949 252.559L471.964 239.661L470.821 239.743L473.806 252.641L472.005 250.972C471.953 250.908 471.889 250.857 471.816 250.825C471.744 250.792 471.666 250.778 471.589 250.784C471.511 250.789 471.435 250.814 471.368 250.857C471.3 250.9 471.242 250.959 471.197 251.03C471.127 251.206 471.113 251.403 471.156 251.59C471.199 251.776 471.297 251.941 471.435 252.058Z" fill="#0F0F0F"/>
</g>
<defs>
<clipPath id="clip0">
<rect y="0.998169" width="796" height="618" fill="white"/>
</clipPath>
</defs>
</svg>
