<svg width="796" height="618" viewBox="0 0 796 618" fill="none" xmlns="http://www.w3.org/2000/svg">
<g clip-path="url(#clip0)">
<line x1="478" y1="121.5" x2="786" y2="121.5" stroke="#0F0F0F"/>
<line x1="478" y1="241.5" x2="786" y2="241.5" stroke="#0F0F0F"/>
<line x1="478" y1="371.5" x2="786" y2="371.5" stroke="#0F0F0F"/>
<line x1="478" y1="500.5" x2="786" y2="500.5" stroke="#0F0F0F"/>
<path d="M780.856 85.8V111H778.264V88.104H772.324V85.8H780.856Z" fill="black"/>
<path d="M784.08 230.696V233H766.404V231.164L776.88 220.904C778.2 219.608 779.088 218.492 779.544 217.556C780.024 216.596 780.264 215.636 780.264 214.676C780.264 213.188 779.748 212.036 778.716 211.22C777.708 210.38 776.256 209.96 774.36 209.96C771.408 209.96 769.116 210.896 767.484 212.768L765.648 211.184C766.632 210.032 767.88 209.144 769.392 208.52C770.928 207.896 772.656 207.584 774.576 207.584C777.144 207.584 779.172 208.196 780.66 209.42C782.172 210.62 782.928 212.276 782.928 214.388C782.928 215.684 782.64 216.932 782.064 218.132C781.488 219.332 780.396 220.712 778.788 222.272L770.22 230.696H784.08Z" fill="black"/>
<path d="M775.44 348.6C778.08 348.744 780.084 349.464 781.452 350.76C782.844 352.032 783.54 353.7 783.54 355.764C783.54 357.204 783.192 358.488 782.496 359.616C781.8 360.72 780.768 361.596 779.4 362.244C778.032 362.892 776.364 363.216 774.396 363.216C772.572 363.216 770.844 362.928 769.212 362.352C767.604 361.752 766.308 360.96 765.324 359.976L766.584 357.924C767.424 358.788 768.54 359.496 769.932 360.048C771.324 360.576 772.812 360.84 774.396 360.84C776.46 360.84 778.056 360.396 779.184 359.508C780.312 358.596 780.876 357.348 780.876 355.764C780.876 354.204 780.312 352.98 779.184 352.092C778.056 351.204 776.352 350.76 774.072 350.76H772.272V348.852L779.256 340.104H766.368V337.8H782.568V339.636L775.44 348.6Z" fill="black"/>
<path d="M785.292 485.376H780.252V492H777.66V485.376H763.44V483.504L776.796 466.8H779.676L766.788 483.072H777.732V477.24H780.252V483.072H785.292V485.376Z" fill="black"/>
<path d="M704.231 436.146L796 568.163L230.776 618L270.192 473.016L704.231 436.146Z" fill="#D0D4D9"/>
<path d="M614.823 308.06L309.605 328.965L270.055 473.537L704.403 436.28L614.823 308.06Z" fill="#E4E4EA"/>
<path d="M309.402 329.438L614.426 307.677L523.259 177.049L348.438 186.765L309.402 329.438Z" fill="#F3F3F9"/>
<path d="M399.599 0L523.259 177.049L348.438 186.765L399.599 0Z" fill="#FFD200"/>
<path d="M270.484 472.879L230.776 617.117L0 520.879L84.7645 410.236L270.484 472.879Z" fill="#B3B6BB"/>
<path d="M309.599 328.986L174.407 293.539L84.792 410.353L270.125 473.28L309.599 328.986Z" fill="#C4C4C9"/>
<path d="M309.384 329.2L348.438 186.765L267.078 172.731L174.277 293.643L309.384 329.2Z" fill="#D1D1D6"/>
<path d="M399.599 0L348.437 186.765L267.078 172.731L399.599 0Z" fill="#DBB502"/>
<path d="M503.564 500.873L507.083 500.55C507.195 500.543 507.304 500.508 507.402 500.446C507.499 500.385 507.583 500.299 507.645 500.195C507.707 500.091 507.747 499.973 507.76 499.849C507.774 499.726 507.761 499.6 507.723 499.483C507.65 499.213 507.498 498.979 507.291 498.815C507.084 498.652 506.834 498.569 506.581 498.58L503.062 498.903C503.047 498.904 503.033 498.899 503.021 498.889C503.009 498.88 503.001 498.867 502.997 498.851L501.368 492.46C501.365 492.454 501.365 492.447 501.366 492.439C501.366 492.432 501.369 492.426 501.372 492.42C501.376 492.414 501.38 492.409 501.386 492.405C501.392 492.402 501.398 492.4 501.404 492.399L515.504 491.105C515.617 491.098 515.726 491.063 515.823 491.001C515.921 490.94 516.004 490.854 516.067 490.75C516.129 490.646 516.168 490.528 516.182 490.404C516.196 490.281 516.183 490.155 516.145 490.038C516.071 489.768 515.919 489.533 515.712 489.37C515.506 489.207 515.256 489.124 515.002 489.135L500.902 490.429C500.672 490.443 500.447 490.516 500.247 490.643C500.046 490.769 499.875 490.946 499.747 491.16C499.619 491.373 499.537 491.616 499.509 491.871C499.481 492.125 499.507 492.383 499.584 492.624L501.213 499.015C501.365 499.569 501.678 500.052 502.104 500.388C502.529 500.724 503.042 500.895 503.564 500.873Z" fill="#0F0F0F"/>
<path d="M547.435 516.741L543.248 517.126L543.128 516.657C542.753 515.288 541.979 514.095 540.928 513.265C539.878 512.434 538.609 512.013 537.32 512.067L527.765 512.944C527.648 512.799 527.517 512.668 527.374 512.555L517.884 505.055C517.742 504.943 517.589 504.848 517.428 504.774L516.139 499.718L526.932 498.727C527.162 498.714 527.387 498.641 527.587 498.514C527.788 498.387 527.959 498.21 528.087 497.997C528.215 497.784 528.296 497.54 528.325 497.286C528.353 497.032 528.327 496.774 528.249 496.533L526.621 490.142C526.469 489.588 526.156 489.105 525.731 488.769C525.305 488.433 524.792 488.262 524.27 488.284L519.106 488.758C518.994 488.764 518.885 488.8 518.787 488.861C518.689 488.923 518.606 489.009 518.544 489.113C518.482 489.216 518.442 489.335 518.428 489.458C518.415 489.582 518.427 489.708 518.465 489.825C518.539 490.094 518.691 490.329 518.898 490.493C519.105 490.656 519.354 490.739 519.608 490.728L524.772 490.254C524.787 490.253 524.801 490.258 524.813 490.267C524.825 490.277 524.833 490.29 524.837 490.306L526.466 496.696C526.468 496.703 526.469 496.71 526.468 496.717C526.468 496.724 526.465 496.731 526.462 496.737C526.458 496.743 526.454 496.748 526.448 496.751C526.443 496.755 526.436 496.757 526.43 496.757L510.685 498.203C510.572 498.209 510.463 498.245 510.366 498.306C510.268 498.368 510.185 498.454 510.123 498.558C510.06 498.661 510.021 498.78 510.007 498.903C509.993 499.027 510.006 499.153 510.044 499.27C510.118 499.539 510.27 499.774 510.477 499.938C510.683 500.101 510.933 500.184 511.187 500.173L514.356 499.882L515.644 504.938C515.529 505.036 515.43 505.154 515.349 505.288L510.029 514.147C509.948 514.283 509.887 514.432 509.848 514.589L500.294 515.466C499.725 515.499 499.17 515.68 498.674 515.993C498.178 516.306 497.756 516.744 497.439 517.271C497.123 517.798 496.922 518.399 496.852 519.027C496.783 519.656 496.846 520.293 497.038 520.889L497.226 521.627C496.587 521.8 495.988 522.119 495.468 522.565C494.948 523.011 494.518 523.573 494.206 524.215C493.894 524.857 493.706 525.564 493.656 526.291C493.606 527.018 493.694 527.749 493.915 528.436C494.358 530.029 495.218 531.44 496.384 532.491C497.55 533.542 498.971 534.186 500.466 534.341L502.981 544.206C502.342 544.379 501.744 544.699 501.223 545.145C500.703 545.591 500.273 546.153 499.961 546.795C499.649 547.437 499.462 548.144 499.412 548.871C499.361 549.599 499.449 550.329 499.67 551.017C500.153 552.776 501.146 554.308 502.496 555.375C503.846 556.442 505.476 556.983 507.132 556.914C507.787 556.882 508.427 556.696 509.012 556.368C509.597 556.041 510.113 555.58 510.526 555.015C510.938 554.45 511.238 553.795 511.406 553.093C511.574 552.39 511.605 551.656 511.498 550.939L515.957 550.529L515.914 550.361C516.053 550.905 515.443 550.612 515.935 550.567C516.744 550.683 517.688 549.096 517.239 548.397L515.428 541.291C515.414 541.249 515.409 541.203 515.414 541.158C515.419 541.114 515.434 541.071 515.456 541.033C515.479 540.996 515.509 540.965 515.544 540.943C515.58 540.92 515.619 540.907 515.66 540.905L519.366 540.565L520.373 544.514C520.511 545.016 520.794 545.453 521.179 545.757C521.564 546.062 522.029 546.216 522.501 546.197L526.076 545.868L528.24 554.356C528.414 554.992 528.774 555.546 529.262 555.932C529.75 556.318 530.339 556.513 530.938 556.489L550.664 554.678C550.929 554.662 551.186 554.578 551.417 554.433C551.647 554.287 551.843 554.084 551.99 553.839C552.137 553.594 552.231 553.315 552.263 553.023C552.295 552.731 552.266 552.435 552.177 552.158L551.38 549.031L555.566 548.646C555.797 548.633 556.021 548.56 556.222 548.433C556.423 548.306 556.594 548.129 556.722 547.916C556.85 547.703 556.931 547.459 556.959 547.205C556.987 546.951 556.961 546.693 556.884 546.451L549.785 518.599C549.633 518.045 549.32 517.562 548.895 517.226C548.47 516.89 547.956 516.719 547.435 516.741V516.741ZM511.645 515.424L516.964 506.565C516.966 506.562 516.969 506.561 516.971 506.561C516.974 506.561 516.976 506.561 516.978 506.563L526.468 514.063C526.47 514.065 526.471 514.067 526.472 514.07C526.473 514.073 526.473 514.076 526.471 514.078L521.152 522.938C521.151 522.939 521.15 522.94 521.149 522.94C521.148 522.941 521.146 522.941 521.145 522.941C521.144 522.941 521.143 522.941 521.141 522.941C521.14 522.94 521.139 522.94 521.138 522.939L511.648 515.439C511.647 515.437 511.645 515.435 511.644 515.432C511.644 515.43 511.644 515.427 511.645 515.424V515.424ZM495.698 528.272C495.527 527.741 495.47 527.173 495.533 526.613C495.595 526.053 495.774 525.517 496.056 525.047C496.338 524.578 496.714 524.188 497.156 523.909C497.598 523.629 498.093 523.468 498.6 523.439C499.749 523.391 500.88 523.767 501.817 524.507C502.753 525.247 503.443 526.31 503.778 527.531C503.949 528.062 504.005 528.63 503.943 529.19C503.881 529.75 503.702 530.286 503.42 530.756C503.138 531.225 502.761 531.615 502.319 531.895C501.877 532.174 501.383 532.335 500.875 532.364C499.726 532.412 498.595 532.036 497.659 531.296C496.722 530.556 496.033 529.493 495.698 528.273L495.698 528.272ZM506.63 554.944C505.481 554.992 504.35 554.616 503.414 553.876C502.477 553.136 501.788 552.073 501.453 550.852C501.282 550.321 501.225 549.753 501.288 549.193C501.35 548.633 501.529 548.097 501.811 547.627C502.093 547.158 502.47 546.768 502.911 546.489C503.353 546.21 503.848 546.049 504.355 546.019C505.504 545.971 506.635 546.347 507.572 547.087C508.508 547.827 509.198 548.89 509.533 550.111C509.704 550.642 509.76 551.21 509.698 551.77C509.636 552.33 509.457 552.866 509.175 553.336C508.893 553.805 508.516 554.195 508.074 554.474C507.632 554.754 507.138 554.915 506.63 554.944V554.944ZM517.858 534.645L518.864 538.595L515.157 538.935C514.893 538.95 514.635 539.034 514.405 539.18C514.174 539.325 513.978 539.529 513.831 539.773C513.684 540.018 513.59 540.298 513.558 540.59C513.526 540.881 513.555 541.178 513.644 541.455L515.455 548.559L510.996 548.969C510.439 547.612 509.57 546.443 508.476 545.578C507.382 544.713 506.101 544.184 504.764 544.043L502.25 534.177C502.888 534.004 503.487 533.684 504.007 533.238C504.527 532.792 504.957 532.23 505.27 531.589C505.582 530.947 505.769 530.239 505.819 529.512C505.869 528.785 505.781 528.054 505.561 527.367C505.117 525.774 504.258 524.363 503.092 523.312C501.926 522.262 500.505 521.618 499.009 521.462L498.821 520.725C498.705 520.364 498.666 519.977 498.709 519.596C498.751 519.215 498.873 518.85 499.065 518.53C499.257 518.211 499.513 517.946 499.814 517.756C500.114 517.566 500.451 517.456 500.796 517.436L510.35 516.559C510.468 516.704 510.6 516.834 510.743 516.948L520.232 524.448C520.375 524.56 520.528 524.654 520.688 524.729L522.626 532.33L519.05 532.658C518.842 532.67 518.638 532.737 518.457 532.851C518.275 532.966 518.12 533.127 518.005 533.32C517.889 533.513 517.815 533.733 517.79 533.963C517.764 534.193 517.787 534.427 517.858 534.645H517.858ZM519.676 534.617L528.364 533.819L530.81 543.417L522.122 544.215L519.676 534.617ZM550.393 552.322C550.407 552.364 550.412 552.41 550.407 552.454C550.402 552.499 550.387 552.542 550.365 552.579C550.342 552.617 550.312 552.648 550.277 552.67C550.242 552.692 550.202 552.705 550.162 552.707L530.436 554.518C530.344 554.522 530.254 554.492 530.18 554.433C530.105 554.374 530.05 554.289 530.023 554.192L527.86 545.704L531.435 545.376C531.644 545.364 531.847 545.298 532.029 545.183C532.21 545.068 532.365 544.908 532.481 544.715C532.597 544.522 532.67 544.301 532.696 544.071C532.722 543.841 532.698 543.608 532.628 543.389L531.621 539.439L540.735 538.603L543.059 547.721C543.211 548.275 543.524 548.758 543.95 549.094C544.375 549.43 544.888 549.6 545.41 549.579L549.596 549.194L550.393 552.322ZM555.101 546.615C555.103 546.622 555.104 546.629 555.103 546.636C555.102 546.643 555.1 546.65 555.096 546.656C555.093 546.662 555.088 546.667 555.082 546.67C555.077 546.674 555.071 546.676 555.064 546.676L544.908 547.609C544.894 547.609 544.879 547.605 544.867 547.595C544.855 547.586 544.847 547.572 544.843 547.557L540.431 530.249C540.358 529.979 540.205 529.745 539.999 529.581C539.792 529.418 539.542 529.335 539.289 529.346C539.176 529.352 539.067 529.387 538.97 529.449C538.872 529.511 538.789 529.597 538.726 529.7C538.664 529.804 538.625 529.923 538.611 530.046C538.597 530.17 538.61 530.295 538.648 530.413L540.233 536.633L531.119 537.469L530.113 533.52C529.975 533.018 529.692 532.581 529.307 532.277C528.922 531.973 528.457 531.818 527.985 531.838L524.409 532.166L522.472 524.565C522.587 524.467 522.687 524.349 522.768 524.215L528.087 515.355C528.168 515.22 528.229 515.071 528.267 514.914L537.822 514.037C538.604 514.004 539.373 514.26 540.011 514.763C540.648 515.267 541.117 515.99 541.345 516.821L541.465 517.289L537.278 517.674C537.048 517.687 536.823 517.76 536.623 517.887C536.422 518.013 536.251 518.19 536.123 518.404C535.995 518.617 535.913 518.86 535.885 519.114C535.857 519.369 535.883 519.627 535.96 519.868L537.492 525.878C537.566 526.148 537.718 526.383 537.925 526.546C538.132 526.71 538.381 526.792 538.635 526.782C538.747 526.775 538.856 526.74 538.954 526.678C539.051 526.617 539.135 526.53 539.197 526.427C539.259 526.323 539.299 526.205 539.312 526.081C539.326 525.957 539.313 525.832 539.276 525.715L537.744 519.704C537.742 519.697 537.741 519.69 537.742 519.683C537.742 519.676 537.745 519.669 537.748 519.664C537.752 519.658 537.757 519.653 537.762 519.649C537.768 519.646 537.774 519.644 537.781 519.644L547.937 518.711C547.951 518.711 547.965 518.715 547.977 518.724C547.989 518.734 547.998 518.747 548.002 518.762L555.101 546.615Z" fill="#0F0F0F"/>
<path d="M521.363 518.584L523.001 515.856C523.125 515.638 523.206 515.392 523.235 515.136C523.265 514.88 523.244 514.62 523.173 514.374C523.022 513.813 522.704 513.325 522.271 512.99L519.349 510.681C519.165 510.504 518.952 510.371 518.722 510.287C518.491 510.203 518.248 510.172 518.006 510.194C517.765 510.216 517.529 510.292 517.314 510.416C517.099 510.541 516.909 510.712 516.754 510.919L515.117 513.647C514.992 513.865 514.912 514.111 514.882 514.367C514.852 514.623 514.874 514.883 514.944 515.129C515.095 515.691 515.414 516.178 515.847 516.513L518.769 518.822C519.186 519.164 519.699 519.332 520.217 519.297C520.445 519.283 520.666 519.212 520.865 519.088C521.064 518.965 521.234 518.792 521.363 518.584ZM516.753 515.004C516.741 514.995 516.732 514.981 516.728 514.966C516.725 514.959 516.725 514.951 516.726 514.944C516.726 514.937 516.729 514.93 516.732 514.924L518.37 512.196C518.374 512.19 518.379 512.185 518.384 512.182C518.39 512.179 518.396 512.177 518.402 512.176C518.417 512.175 518.431 512.18 518.443 512.189L521.364 514.499C521.377 514.508 521.386 514.522 521.39 514.538C521.392 514.544 521.393 514.552 521.392 514.559C521.391 514.566 521.388 514.573 521.385 514.578L519.747 517.307C519.743 517.313 519.739 517.318 519.733 517.321C519.728 517.324 519.721 517.326 519.715 517.326C519.7 517.328 519.686 517.323 519.674 517.313L516.753 515.004Z" fill="#0F0F0F"/>
<path d="M546.395 527.267L543.724 527.512C543.612 527.518 543.502 527.554 543.405 527.615C543.307 527.677 543.224 527.763 543.162 527.867C543.1 527.971 543.06 528.089 543.046 528.213C543.033 528.336 543.045 528.462 543.083 528.579C543.157 528.848 543.309 529.083 543.516 529.247C543.723 529.41 543.972 529.493 544.226 529.482L546.897 529.237C547.009 529.23 547.119 529.195 547.216 529.133C547.314 529.072 547.397 528.986 547.459 528.882C547.522 528.778 547.561 528.66 547.575 528.536C547.588 528.413 547.576 528.287 547.538 528.17C547.464 527.9 547.312 527.666 547.105 527.502C546.898 527.339 546.649 527.256 546.395 527.267Z" fill="#0F0F0F"/>
<path d="M547.872 533.062L545.2 533.307C545.088 533.313 544.979 533.349 544.881 533.41C544.784 533.472 544.701 533.558 544.638 533.661C544.576 533.765 544.537 533.884 544.523 534.007C544.509 534.131 544.522 534.256 544.56 534.374C544.633 534.643 544.786 534.878 544.992 535.041C545.199 535.205 545.449 535.288 545.703 535.277L548.374 535.031C548.486 535.025 548.595 534.99 548.693 534.928C548.79 534.867 548.873 534.781 548.936 534.677C548.998 534.573 549.038 534.455 549.051 534.331C549.065 534.207 549.052 534.082 549.014 533.965C548.941 533.695 548.789 533.46 548.582 533.297C548.375 533.133 548.125 533.051 547.872 533.062V533.062Z" fill="#0F0F0F"/>
<path d="M549.349 538.856L546.678 539.101C546.566 539.107 546.457 539.143 546.359 539.204C546.261 539.266 546.178 539.352 546.116 539.456C546.054 539.559 546.014 539.678 546 539.801C545.987 539.925 545.999 540.05 546.037 540.168C546.111 540.437 546.263 540.672 546.47 540.836C546.677 540.999 546.926 541.082 547.18 541.071L549.851 540.826C549.964 540.819 550.073 540.784 550.17 540.722C550.268 540.661 550.351 540.575 550.413 540.471C550.476 540.367 550.515 540.249 550.529 540.125C550.543 540.002 550.53 539.876 550.492 539.759C550.418 539.489 550.266 539.254 550.059 539.091C549.853 538.928 549.603 538.845 549.349 538.856Z" fill="#0F0F0F"/>
<path d="M521.432 407.963L508.601 397.464C508.13 397.027 507.535 396.788 506.92 396.79C506.306 396.791 505.712 397.033 505.242 397.472L499.58 392.839C504.191 383.277 500.79 370.094 491.351 362.369C481.212 354.073 467.89 355.167 461.653 364.808C455.416 374.449 458.591 389.042 468.729 397.338C473.4 401.277 479.186 403.233 485.043 402.855C489.593 402.587 493.881 400.412 497.04 396.769L502.7 401.401C502.474 402.04 502.452 402.746 502.639 403.401C502.826 404.056 503.21 404.62 503.727 404.998L516.559 415.497C517.123 415.971 517.821 416.207 518.527 416.162C518.844 416.144 519.153 416.049 519.432 415.884C519.711 415.718 519.954 415.485 520.143 415.203L522.286 411.889C522.469 411.597 522.591 411.265 522.646 410.916C522.7 410.566 522.685 410.208 522.602 409.865C522.425 409.099 522.011 408.425 521.432 407.963ZM496.158 394.872C496.145 394.888 496.132 394.905 496.119 394.923C490.077 402.672 478.517 403.242 469.619 395.961C460.279 388.319 457.355 374.875 463.101 365.993C464.536 363.832 466.387 362.052 468.52 360.784C470.653 359.516 473.013 358.792 475.43 358.663C480.826 358.315 486.157 360.117 490.46 363.746C499.8 371.389 502.724 384.833 496.979 393.714C496.718 394.117 496.445 394.502 496.158 394.872ZM498.035 395.477C498.168 395.287 498.299 395.095 498.426 394.899C498.554 394.702 498.676 394.502 498.795 394.301L504.325 398.827L503.565 400.003L498.035 395.477ZM520.839 410.704L518.695 414.018C518.619 414.116 518.527 414.196 518.423 414.254C518.32 414.312 518.207 414.347 518.091 414.356C517.975 414.366 517.859 414.35 517.749 414.309C517.639 414.269 517.537 414.205 517.449 414.121L504.618 403.621C504.418 403.481 504.276 403.26 504.221 403.005C504.165 402.751 504.201 402.482 504.321 402.256L506.465 398.943C506.53 398.844 506.615 398.764 506.712 398.706C506.809 398.648 506.916 398.615 507.026 398.609C507.272 398.594 507.514 398.675 507.711 398.84L520.542 409.34C520.741 409.48 520.884 409.701 520.939 409.956C520.994 410.21 520.958 410.479 520.839 410.704V410.704Z" fill="#0F0F0F"/>
<path d="M494.226 376.726C491.722 375.1 489.048 373.819 486.264 372.913C486.253 372.909 486.242 372.903 486.231 372.899C484.723 372.416 483.177 372.09 481.613 371.927C481.577 371.923 481.542 371.92 481.506 371.917C481.35 371.902 481.195 371.889 481.041 371.879C480.995 371.876 480.948 371.872 480.902 371.869C480.728 371.859 480.554 371.85 480.382 371.845L480.331 371.843C480.142 371.837 479.954 371.835 479.768 371.835C479.718 371.835 479.669 371.837 479.62 371.837C479.477 371.839 479.334 371.842 479.192 371.847C479.138 371.849 479.084 371.851 479.03 371.854C478.843 371.862 478.656 371.873 478.472 371.888L478.471 371.889H478.471L478.469 371.889L478.397 371.895C478.236 371.909 478.076 371.926 477.915 371.945C477.844 371.954 477.774 371.964 477.703 371.973C477.592 371.988 477.48 372.003 477.369 372.02C477.296 372.031 477.222 372.043 477.149 372.055C477.022 372.076 476.894 372.1 476.767 372.124C476.719 372.133 476.671 372.141 476.624 372.151C476.455 372.185 476.287 372.222 476.119 372.262C476.062 372.275 476.006 372.29 475.949 372.303C475.826 372.334 475.702 372.366 475.578 372.399C475.526 372.413 475.475 372.427 475.423 372.442C475.272 372.484 475.12 372.529 474.969 372.576L474.92 372.591C474.562 372.703 474.205 372.829 473.849 372.967L473.847 372.968C473.014 373.291 472.201 373.674 471.414 374.116C471.405 374.122 471.397 374.129 471.388 374.134C469.141 375.414 467.097 377.091 465.336 379.099C465.161 379.307 465.037 379.561 464.976 379.837C464.916 380.114 464.92 380.402 464.988 380.676C465.06 380.983 465.186 381.271 465.359 381.522C465.533 381.774 465.75 381.985 465.998 382.142C468.502 383.769 471.176 385.05 473.961 385.956C473.972 385.96 473.982 385.966 473.993 385.969C474.924 386.264 475.87 386.503 476.825 386.684L476.836 386.686C477.237 386.761 477.633 386.824 478.026 386.875L478.085 386.882C478.249 386.903 478.413 386.921 478.576 386.938C478.632 386.944 478.689 386.949 478.745 386.954C478.878 386.966 479.011 386.977 479.143 386.986C479.204 386.991 479.264 386.996 479.325 386.999C479.504 387.01 479.682 387.019 479.859 387.025C479.909 387.026 479.959 387.026 480.009 387.027C480.142 387.03 480.275 387.032 480.407 387.033C480.483 387.033 480.558 387.032 480.634 387.031C480.749 387.029 480.864 387.026 480.978 387.022C481.049 387.02 481.121 387.018 481.193 387.015C481.356 387.007 481.518 386.997 481.679 386.985L481.752 386.98L481.753 386.98H481.754L481.755 386.98C481.939 386.965 482.124 386.945 482.308 386.923C482.361 386.917 482.414 386.91 482.467 386.903C482.607 386.885 482.746 386.866 482.885 386.844C482.933 386.837 482.98 386.83 483.027 386.822C483.208 386.792 483.389 386.76 483.569 386.724L483.615 386.714C483.779 386.681 483.944 386.645 484.109 386.606C484.151 386.596 484.194 386.585 484.236 386.575C484.382 386.539 484.527 386.502 484.672 386.463C484.704 386.454 484.737 386.445 484.769 386.436C486.168 386.043 487.523 385.478 488.809 384.752C488.818 384.747 488.826 384.74 488.835 384.735C491.082 383.455 493.127 381.778 494.888 379.769C495.063 379.561 495.187 379.307 495.248 379.031C495.308 378.755 495.304 378.466 495.236 378.192C495.164 377.885 495.038 377.598 494.865 377.346C494.691 377.094 494.474 376.883 494.226 376.726V376.726ZM471.99 383.416C470.16 382.655 468.391 381.723 466.703 380.63C466.688 380.621 466.675 380.608 466.664 380.593C466.653 380.577 466.646 380.56 466.642 380.541C466.637 380.524 466.637 380.506 466.64 380.489C466.644 380.473 466.652 380.457 466.663 380.445C467.84 379.102 469.152 377.914 470.573 376.903C470.481 378.008 470.556 379.122 470.796 380.2C471.045 381.333 471.448 382.417 471.99 383.417V383.416ZM487.613 383.24L487.589 383.253C487.499 383.302 487.407 383.35 487.316 383.397C487.27 383.421 487.223 383.446 487.175 383.47C487.089 383.514 487.002 383.557 486.915 383.599C486.862 383.625 486.808 383.651 486.755 383.676C486.669 383.717 486.584 383.757 486.498 383.796C486.442 383.822 486.386 383.846 486.33 383.871C486.138 383.956 485.946 384.037 485.754 384.115C485.73 384.124 485.708 384.134 485.684 384.143C485.606 384.174 485.528 384.203 485.45 384.232C485.38 384.259 485.31 384.285 485.24 384.311C485.162 384.339 485.084 384.366 485.006 384.393C484.931 384.419 484.856 384.444 484.781 384.468C484.706 384.493 484.631 384.518 484.555 384.541C484.454 384.573 484.351 384.603 484.249 384.632C484.16 384.658 484.072 384.683 483.983 384.707C483.878 384.735 483.772 384.763 483.665 384.789C483.6 384.805 483.535 384.82 483.471 384.836C483.368 384.859 483.265 384.882 483.161 384.904C483.104 384.916 483.047 384.928 482.99 384.94C482.836 384.97 482.68 384.999 482.522 385.025C482.484 385.031 482.445 385.036 482.406 385.043C482.275 385.063 482.144 385.082 482.011 385.099C481.963 385.105 481.914 385.111 481.866 385.117C481.698 385.137 481.53 385.155 481.36 385.169L481.357 385.169C481.189 385.183 481.021 385.193 480.854 385.2C480.785 385.204 480.715 385.206 480.646 385.208C480.547 385.211 480.448 385.214 480.349 385.215C480.275 385.216 480.202 385.217 480.128 385.217C479.981 385.217 479.834 385.215 479.687 385.211C479.606 385.209 479.525 385.205 479.444 385.201C479.361 385.198 479.277 385.194 479.193 385.189C479.105 385.184 479.016 385.178 478.927 385.171C478.851 385.166 478.775 385.159 478.7 385.152C478.535 385.138 478.369 385.121 478.203 385.102C478.137 385.094 478.071 385.087 478.006 385.079C477.908 385.067 477.81 385.053 477.712 385.038C477.646 385.029 477.58 385.02 477.514 385.01C477.416 384.995 477.317 384.979 477.219 384.962C477.156 384.951 477.093 384.94 477.03 384.929C476.929 384.911 476.828 384.893 476.726 384.873L476.672 384.862C476.442 384.817 476.21 384.767 475.976 384.712C475.921 384.699 475.866 384.687 475.812 384.674C475.709 384.649 475.606 384.623 475.503 384.597C475.444 384.582 475.385 384.567 475.325 384.551C475.223 384.524 475.12 384.496 475.017 384.467C474.961 384.452 474.905 384.436 474.85 384.42C474.743 384.389 474.637 384.358 474.53 384.326L474.5 384.317C473.51 383.109 472.805 381.648 472.449 380.064C472.111 378.6 472.168 377.058 472.611 375.629L472.64 375.613C472.725 375.567 472.81 375.523 472.895 375.478C472.947 375.451 472.999 375.425 473.051 375.398C473.134 375.356 473.217 375.314 473.301 375.273C473.356 375.247 473.411 375.22 473.467 375.194C473.551 375.154 473.635 375.114 473.719 375.075C473.773 375.051 473.828 375.027 473.883 375.003C474.053 374.927 474.224 374.854 474.396 374.785C474.439 374.767 474.481 374.749 474.525 374.732C474.609 374.698 474.693 374.667 474.777 374.635C474.839 374.612 474.901 374.589 474.964 374.566C475.048 374.535 475.131 374.506 475.215 374.477C475.281 374.454 475.347 374.432 475.414 374.41C475.496 374.383 475.579 374.356 475.662 374.33C475.762 374.299 475.863 374.269 475.964 374.24C476.071 374.209 476.177 374.18 476.284 374.151C476.365 374.13 476.445 374.108 476.526 374.088C476.603 374.069 476.679 374.051 476.756 374.033C476.845 374.012 476.935 373.993 477.025 373.973C477.092 373.959 477.159 373.944 477.226 373.931C477.37 373.902 477.516 373.876 477.662 373.851C477.727 373.84 477.793 373.831 477.858 373.821C477.961 373.805 478.064 373.79 478.168 373.776C478.232 373.768 478.295 373.759 478.358 373.752C478.525 373.732 478.693 373.714 478.863 373.7L478.865 373.7C479.035 373.686 479.205 373.676 479.375 373.668C479.425 373.666 479.474 373.664 479.524 373.662C479.658 373.657 479.793 373.654 479.928 373.653C479.968 373.653 480.008 373.651 480.048 373.651C480.211 373.651 480.374 373.653 480.536 373.658C480.596 373.66 480.657 373.663 480.717 373.665C480.826 373.669 480.935 373.675 481.043 373.681C481.113 373.685 481.182 373.689 481.252 373.694C481.365 373.702 481.479 373.712 481.592 373.723C481.689 373.731 481.786 373.741 481.884 373.752C481.995 373.764 482.106 373.776 482.216 373.79C482.299 373.801 482.382 373.812 482.465 373.824C482.549 373.836 482.632 373.848 482.715 373.861C482.801 373.874 482.888 373.888 482.975 373.902C483.055 373.915 483.134 373.93 483.213 373.944C483.3 373.96 483.388 373.975 483.476 373.992C483.543 374.005 483.61 374.019 483.677 374.033C483.854 374.069 484.031 374.108 484.209 374.149C484.276 374.164 484.344 374.18 484.412 374.196C484.509 374.219 484.606 374.244 484.703 374.268C484.769 374.285 484.835 374.302 484.901 374.319C484.999 374.345 485.098 374.372 485.197 374.4C485.258 374.417 485.319 374.434 485.38 374.452C485.483 374.481 485.585 374.511 485.688 374.542L485.723 374.552C486.713 375.76 487.418 377.222 487.775 378.806C488.112 380.269 488.056 381.811 487.613 383.24V383.24ZM493.561 378.424C492.384 379.766 491.072 380.955 489.651 381.966C489.743 380.861 489.668 379.747 489.428 378.669C489.178 377.536 488.776 376.452 488.234 375.452C490.064 376.213 491.833 377.146 493.521 378.239C493.536 378.248 493.549 378.261 493.56 378.276C493.57 378.291 493.578 378.309 493.582 378.328C493.587 378.345 493.587 378.362 493.584 378.379C493.58 378.396 493.572 378.412 493.561 378.424V378.424Z" fill="#0F0F0F"/>
<path d="M478.943 374.06C478.326 374.088 477.722 374.272 477.179 374.598C476.635 374.923 476.166 375.382 475.806 375.939C475.446 376.495 475.204 377.136 475.1 377.811C474.996 378.487 475.032 379.18 475.205 379.837C475.558 381.309 476.352 382.603 477.456 383.507C478.561 384.41 479.91 384.87 481.281 384.809C481.898 384.781 482.501 384.596 483.045 384.271C483.588 383.945 484.058 383.487 484.418 382.93C484.778 382.373 485.019 381.733 485.123 381.058C485.227 380.382 485.192 379.689 485.019 379.031C484.666 377.56 483.872 376.266 482.767 375.362C481.663 374.458 480.314 373.999 478.943 374.06ZM480.887 382.998C479.978 383.038 479.083 382.734 478.351 382.135C477.619 381.535 477.092 380.677 476.858 379.701C476.743 379.265 476.72 378.806 476.789 378.358C476.858 377.91 477.018 377.485 477.256 377.116C477.495 376.747 477.807 376.443 478.167 376.227C478.527 376.012 478.927 375.89 479.337 375.871C480.246 375.83 481.14 376.135 481.872 376.734C482.605 377.333 483.131 378.191 483.365 379.167C483.48 379.603 483.504 380.063 483.435 380.511C483.366 380.958 483.206 381.383 482.967 381.752C482.728 382.121 482.417 382.425 482.056 382.641C481.696 382.857 481.296 382.979 480.887 382.998V382.998Z" fill="#0F0F0F"/>
<path d="M497.021 376.199C495.553 371.793 492.939 367.97 489.509 365.215C485.599 361.917 480.755 360.279 475.851 360.596C473.812 360.679 471.812 361.24 469.983 362.242C468.153 363.244 466.535 364.664 465.236 366.41C463.936 368.155 462.985 370.186 462.443 372.369C461.902 374.552 461.783 376.837 462.094 379.074C462.131 379.328 462.245 379.559 462.417 379.731C462.589 379.902 462.808 380.004 463.039 380.018C463.072 380.019 463.104 380.019 463.136 380.016C463.232 380.012 463.326 379.985 463.412 379.938C463.498 379.891 463.574 379.824 463.635 379.742C463.696 379.66 463.74 379.564 463.766 379.462C463.791 379.359 463.796 379.252 463.782 379.147C463.5 377.12 463.608 375.049 464.098 373.072C464.589 371.095 465.451 369.255 466.628 367.674C467.806 366.093 469.271 364.806 470.929 363.898C472.586 362.99 474.398 362.482 476.245 362.407C480.688 362.12 485.076 363.604 488.619 366.592C491.726 369.087 494.094 372.55 495.424 376.542C495.504 376.782 495.655 376.985 495.853 377.116C496.052 377.247 496.285 377.299 496.513 377.262C496.616 377.241 496.713 377.195 496.797 377.127C496.881 377.058 496.95 376.97 496.999 376.867C497.048 376.765 497.075 376.652 497.079 376.536C497.083 376.421 497.063 376.305 497.021 376.199Z" fill="#0F0F0F"/>
<path d="M497.043 379.702C496.939 379.691 496.835 379.706 496.737 379.747C496.64 379.787 496.552 379.852 496.48 379.936C496.408 380.02 496.355 380.121 496.324 380.231C496.292 380.341 496.284 380.458 496.3 380.572C496.58 382.598 496.471 384.667 495.979 386.643C495.487 388.619 494.625 390.457 493.448 392.037C492.27 393.616 490.805 394.902 489.148 395.809C487.492 396.716 485.681 397.223 483.835 397.299C479.392 397.585 475.004 396.101 471.461 393.114C468.352 390.616 465.982 387.149 464.653 383.154C464.573 382.913 464.422 382.711 464.223 382.579C464.025 382.448 463.793 382.396 463.564 382.433C463.461 382.453 463.364 382.5 463.28 382.568C463.196 382.636 463.127 382.725 463.078 382.827C463.029 382.929 463.002 383.043 462.998 383.158C462.994 383.274 463.013 383.389 463.055 383.495C464.522 387.906 467.138 391.733 470.571 394.49C474.481 397.788 479.325 399.426 484.229 399.11C486.266 399.027 488.265 398.466 490.094 397.465C491.923 396.464 493.54 395.045 494.84 393.301C496.139 391.557 497.091 389.528 497.634 387.347C498.176 385.166 498.297 382.882 497.987 380.646C497.95 380.392 497.837 380.161 497.665 379.989C497.493 379.817 497.274 379.716 497.043 379.702V379.702Z" fill="#0F0F0F"/>
<path d="M448.376 273.821C448.486 274.195 448.513 274.593 448.455 274.981C448.422 275.114 448.362 275.237 448.28 275.341C448.198 275.444 448.095 275.526 447.98 275.579C448.267 275.658 448.523 275.837 448.712 276.09C448.932 276.428 449.086 276.814 449.164 277.223L450.101 281.272C450.323 282.234 450.788 282.689 451.497 282.638L451.856 282.612L452.194 284.073L451.562 284.118C451.244 284.157 450.923 284.125 450.617 284.024C450.31 283.923 450.025 283.756 449.777 283.533C449.256 283.004 448.9 282.306 448.761 281.538L447.777 277.285C447.634 276.669 447.348 276.376 446.917 276.407L446.415 276.443L446.072 274.964L446.575 274.928C447.005 274.897 447.149 274.573 447.007 273.957L446.022 269.704C445.801 269.029 445.828 268.284 446.097 267.631C446.257 267.367 446.475 267.153 446.73 267.009C446.986 266.866 447.271 266.798 447.557 266.812L448.188 266.766L448.526 268.227L448.168 268.253C447.459 268.304 447.217 268.81 447.439 269.771L448.376 273.821Z" fill="#0F0F0F"/>
<path d="M455.533 283.833C454.68 282.66 453.953 281.381 453.367 280.022C452.71 278.51 452.192 276.929 451.822 275.302C451.448 273.739 451.228 272.134 451.167 270.518C451.103 269.175 451.224 267.828 451.528 266.526L452.834 266.432C452.557 267.795 452.449 269.195 452.512 270.591C452.589 272.15 452.81 273.696 453.171 275.205C453.527 276.772 454.017 278.298 454.634 279.762C455.237 281.172 455.976 282.506 456.839 283.739L455.533 283.833Z" fill="#0F0F0F"/>
<path d="M467.513 282.971C467.79 281.607 467.898 280.208 467.835 278.812C467.767 277.252 467.551 275.705 467.19 274.196C466.834 272.628 466.339 271.102 465.712 269.641C465.11 268.23 464.37 266.897 463.508 265.664L464.814 265.57C465.678 266.729 466.409 268.002 466.99 269.361C467.649 270.878 468.168 272.466 468.539 274.099C468.913 275.663 469.133 277.267 469.194 278.883C469.255 280.228 469.128 281.575 468.819 282.877L467.513 282.971Z" fill="#0F0F0F"/>
<path d="M473.937 272.959L474.279 274.438L473.791 274.473C473.37 274.503 473.231 274.827 473.373 275.443L474.357 279.696C474.468 280.031 474.516 280.387 474.501 280.743C474.486 281.099 474.407 281.448 474.268 281.77C474.109 282.034 473.891 282.248 473.635 282.392C473.379 282.535 473.095 282.603 472.809 282.59L472.177 282.635L471.839 281.174L472.184 281.149C472.911 281.097 473.163 280.59 472.941 279.629L472.004 275.579C471.893 275.206 471.861 274.81 471.911 274.421C471.943 274.287 472.003 274.164 472.085 274.06C472.168 273.957 472.27 273.875 472.385 273.822C472.103 273.746 471.849 273.573 471.658 273.33C471.444 272.981 471.294 272.59 471.216 272.177L470.279 268.128C470.057 267.166 469.582 266.712 468.854 266.764L468.51 266.789L468.172 265.328L468.803 265.283C469.121 265.244 469.442 265.277 469.749 265.377C470.055 265.478 470.34 265.645 470.588 265.869C471.117 266.392 471.479 267.091 471.619 267.862L472.603 272.115C472.746 272.731 473.027 273.024 473.449 272.994L473.937 272.959Z" fill="#0F0F0F"/>
<path d="M457.997 279.541C457.723 279.558 457.453 279.465 457.236 279.278C456.998 279.08 456.829 278.797 456.758 278.477C456.719 278.342 456.708 278.199 456.726 278.058C456.744 277.918 456.791 277.784 456.863 277.667C456.93 277.553 457.021 277.46 457.127 277.394C457.234 277.328 457.354 277.292 457.476 277.288C457.746 277.27 458.012 277.364 458.223 277.552C458.453 277.748 458.615 278.025 458.682 278.338C458.722 278.478 458.735 278.626 458.718 278.771C458.701 278.917 458.656 279.057 458.585 279.181C458.521 279.289 458.434 279.378 458.331 279.441C458.229 279.504 458.114 279.538 457.997 279.541V279.541Z" fill="#0F0F0F"/>
<path d="M461.249 279.307C460.975 279.324 460.705 279.231 460.488 279.044C460.25 278.846 460.081 278.563 460.01 278.243C459.971 278.108 459.96 277.965 459.978 277.824C459.996 277.684 460.043 277.55 460.115 277.433C460.182 277.319 460.273 277.226 460.379 277.16C460.486 277.094 460.606 277.058 460.728 277.054C460.998 277.036 461.264 277.13 461.475 277.318C461.705 277.514 461.867 277.791 461.934 278.104C461.974 278.244 461.987 278.392 461.97 278.537C461.953 278.683 461.908 278.823 461.837 278.947C461.773 279.055 461.685 279.144 461.583 279.207C461.481 279.27 461.366 279.304 461.249 279.307Z" fill="#0F0F0F"/>
<path d="M464.501 279.073C464.227 279.09 463.957 278.997 463.74 278.81C463.502 278.612 463.333 278.329 463.262 278.008C463.223 277.874 463.212 277.73 463.23 277.59C463.248 277.45 463.295 277.316 463.367 277.199C463.434 277.085 463.525 276.992 463.631 276.926C463.738 276.86 463.858 276.824 463.98 276.82C464.25 276.802 464.516 276.896 464.727 277.084C464.957 277.279 465.119 277.557 465.186 277.87C465.226 278.01 465.239 278.158 465.222 278.303C465.205 278.449 465.16 278.589 465.089 278.713C465.025 278.821 464.937 278.91 464.835 278.973C464.733 279.036 464.618 279.07 464.501 279.073Z" fill="#0F0F0F"/>
<path d="M424.316 228.895C424.263 228.726 424.246 228.546 424.266 228.368C424.287 228.191 424.344 228.021 424.434 227.872C424.524 227.724 424.643 227.6 424.783 227.512C424.923 227.423 425.08 227.372 425.241 227.362L435.315 226.637C435.678 226.634 436.032 226.765 436.32 227.01C436.609 227.255 436.816 227.599 436.908 227.989L439.578 239.527C439.631 239.696 439.648 239.876 439.628 240.053C439.607 240.231 439.55 240.401 439.46 240.549C439.37 240.698 439.251 240.821 439.11 240.91C438.97 240.999 438.814 241.05 438.653 241.06L428.579 241.785C428.216 241.788 427.862 241.657 427.574 241.412C427.285 241.167 427.078 240.823 426.986 240.433L424.316 228.895ZM425.575 228.804L428.245 240.342L438.319 239.617L435.649 228.079L425.575 228.804Z" fill="#0F0F0F"/>
<path d="M443.204 227.536C443.151 227.367 443.134 227.187 443.155 227.009C443.175 226.832 443.233 226.662 443.323 226.513C443.412 226.365 443.532 226.241 443.672 226.153C443.812 226.064 443.969 226.013 444.13 226.003L454.204 225.278C454.567 225.275 454.921 225.406 455.209 225.651C455.497 225.896 455.704 226.24 455.797 226.63L458.467 238.168C458.52 238.337 458.537 238.517 458.516 238.694C458.496 238.872 458.438 239.042 458.349 239.19C458.259 239.339 458.139 239.462 457.999 239.551C457.859 239.639 457.702 239.691 457.541 239.7L447.468 240.425C447.104 240.429 446.751 240.297 446.462 240.053C446.174 239.808 445.967 239.463 445.875 239.074L443.204 227.536ZM444.464 227.445L447.134 238.983L457.208 238.258L454.537 226.72L444.464 227.445Z" fill="#0F0F0F"/>
<path d="M462.092 226.177C462.039 226.008 462.022 225.827 462.043 225.65C462.063 225.473 462.12 225.303 462.21 225.154C462.3 225.005 462.42 224.882 462.56 224.793C462.7 224.705 462.857 224.654 463.018 224.644L473.091 223.919C473.454 223.916 473.808 224.047 474.097 224.292C474.385 224.537 474.592 224.881 474.684 225.271L477.354 236.809C477.407 236.977 477.424 237.158 477.404 237.335C477.383 237.513 477.326 237.682 477.236 237.831C477.146 237.98 477.027 238.103 476.887 238.192C476.747 238.28 476.59 238.332 476.429 238.341L466.355 239.066C465.992 239.069 465.638 238.938 465.35 238.693C465.061 238.449 464.855 238.104 464.762 237.715L462.092 226.177ZM463.351 226.086L466.021 237.624L476.095 236.899L473.425 225.361L463.351 226.086Z" fill="#0F0F0F"/>
<path d="M448.878 229.766L452.134 232.288C452.204 232.332 452.266 232.391 452.315 232.461C452.364 232.532 452.399 232.613 452.419 232.7C452.439 232.786 452.443 232.876 452.431 232.965C452.419 233.053 452.391 233.138 452.348 233.213L450.347 236.113C450.232 236.247 450.076 236.329 449.91 236.341C449.743 236.353 449.579 236.294 449.45 236.178C449.379 236.134 449.318 236.075 449.269 236.004C449.22 235.934 449.184 235.852 449.164 235.766C449.144 235.679 449.14 235.589 449.152 235.501C449.165 235.413 449.193 235.328 449.235 235.252L450.412 233.548L438.395 234.412L438.092 233.103L450.109 232.239L448.195 230.756C448.125 230.713 448.063 230.654 448.014 230.583C447.965 230.512 447.929 230.431 447.909 230.344C447.889 230.258 447.885 230.168 447.898 230.08C447.91 229.991 447.938 229.907 447.981 229.831C448.095 229.697 448.252 229.616 448.418 229.604C448.584 229.592 448.749 229.65 448.878 229.766V229.766Z" fill="#0F0F0F"/>
<path d="M467.347 228.437L470.603 230.959C470.673 231.002 470.734 231.062 470.783 231.132C470.833 231.203 470.868 231.284 470.888 231.371C470.908 231.457 470.912 231.547 470.9 231.636C470.888 231.724 470.86 231.809 470.817 231.884L468.816 234.784C468.701 234.918 468.545 235 468.378 235.012C468.212 235.023 468.048 234.965 467.918 234.849C467.848 234.805 467.787 234.746 467.738 234.675C467.689 234.604 467.653 234.523 467.633 234.437C467.613 234.35 467.609 234.26 467.621 234.172C467.633 234.084 467.662 233.999 467.704 233.923L468.88 232.219L456.863 233.083L456.561 231.774L468.578 230.91L466.664 229.427C466.593 229.384 466.532 229.325 466.483 229.254C466.434 229.183 466.398 229.102 466.378 229.015C466.358 228.929 466.354 228.839 466.366 228.75C466.379 228.662 466.407 228.578 466.449 228.502C466.564 228.368 466.72 228.286 466.887 228.274C467.053 228.263 467.217 228.321 467.347 228.437V228.437Z" fill="#0F0F0F"/>
<path d="M435.064 235.508L432.001 232.668C431.949 232.604 431.884 232.553 431.812 232.521C431.74 232.488 431.662 232.474 431.584 232.48C431.506 232.486 431.431 232.511 431.363 232.553C431.295 232.596 431.237 232.655 431.193 232.726L429.523 235.907C429.453 236.083 429.438 236.28 429.481 236.467C429.524 236.653 429.623 236.818 429.761 236.935C429.813 236.999 429.877 237.049 429.949 237.082C430.022 237.114 430.1 237.128 430.177 237.123C430.255 237.117 430.331 237.092 430.398 237.05C430.466 237.007 430.524 236.948 430.569 236.877L431.55 235.007L434.535 247.905L435.678 247.823L432.693 234.925L434.494 236.594C434.546 236.658 434.611 236.709 434.683 236.741C434.755 236.774 434.833 236.788 434.911 236.782C434.989 236.777 435.064 236.752 435.132 236.709C435.2 236.666 435.258 236.607 435.302 236.536C435.372 236.36 435.387 236.163 435.343 235.976C435.3 235.79 435.202 235.625 435.064 235.508V235.508Z" fill="#0F0F0F"/>
<path d="M482.184 257.673C482.237 257.842 482.254 258.022 482.233 258.2C482.213 258.377 482.155 258.547 482.065 258.695C481.976 258.844 481.856 258.967 481.716 259.056C481.576 259.145 481.419 259.196 481.258 259.206L471.184 259.931C470.821 259.934 470.467 259.803 470.179 259.558C469.89 259.313 469.684 258.969 469.591 258.579L466.921 247.041C466.868 246.872 466.851 246.692 466.872 246.514C466.892 246.337 466.95 246.167 467.039 246.018C467.129 245.87 467.249 245.746 467.389 245.658C467.529 245.569 467.686 245.518 467.847 245.508L477.92 244.783C478.284 244.78 478.637 244.911 478.926 245.156C479.214 245.401 479.421 245.745 479.513 246.135L482.184 257.673ZM480.924 257.763L478.254 246.225L468.18 246.95L470.851 258.488L480.924 257.763Z" fill="#0F0F0F"/>
<path d="M463.295 259.032C463.348 259.201 463.365 259.381 463.344 259.559C463.324 259.736 463.267 259.906 463.177 260.055C463.087 260.203 462.967 260.327 462.827 260.415C462.687 260.504 462.53 260.555 462.369 260.565L452.296 261.29C451.933 261.293 451.579 261.162 451.29 260.917C451.002 260.672 450.795 260.328 450.703 259.938L448.033 248.4C447.98 248.231 447.963 248.051 447.983 247.874C448.004 247.696 448.061 247.526 448.151 247.378C448.24 247.229 448.36 247.106 448.5 247.017C448.64 246.928 448.797 246.877 448.958 246.867L459.032 246.143C459.395 246.139 459.749 246.271 460.037 246.515C460.326 246.76 460.532 247.104 460.625 247.494L463.295 259.032ZM462.036 259.123L459.366 247.585L449.292 248.31L451.962 259.848L462.036 259.123Z" fill="#0F0F0F"/>
<path d="M444.407 260.391C444.46 260.56 444.477 260.741 444.457 260.918C444.436 261.095 444.379 261.265 444.289 261.414C444.199 261.562 444.08 261.686 443.94 261.775C443.799 261.863 443.643 261.914 443.482 261.924L433.408 262.649C433.045 262.652 432.691 262.521 432.403 262.276C432.114 262.031 431.907 261.687 431.815 261.297L429.145 249.76C429.092 249.591 429.075 249.41 429.095 249.233C429.116 249.055 429.173 248.886 429.263 248.737C429.353 248.588 429.472 248.465 429.612 248.376C429.753 248.288 429.909 248.236 430.07 248.227L440.144 247.502C440.507 247.499 440.861 247.63 441.149 247.875C441.438 248.119 441.645 248.464 441.737 248.853L444.407 260.391ZM443.148 260.482L440.478 248.944L430.404 249.669L433.074 261.207L443.148 260.482Z" fill="#0F0F0F"/>
<path d="M457.621 256.802L454.365 254.28C454.294 254.236 454.233 254.177 454.184 254.106C454.135 254.036 454.099 253.955 454.079 253.868C454.059 253.782 454.055 253.691 454.067 253.603C454.08 253.515 454.108 253.43 454.15 253.354L456.152 250.455C456.266 250.321 456.423 250.239 456.589 250.227C456.755 250.215 456.92 250.274 457.049 250.39C457.119 250.434 457.181 250.493 457.23 250.564C457.279 250.634 457.315 250.716 457.335 250.802C457.355 250.889 457.359 250.979 457.346 251.067C457.334 251.155 457.306 251.24 457.263 251.316L456.087 253.02L468.104 252.155L468.407 253.464L456.39 254.329L458.304 255.811C458.374 255.855 458.435 255.914 458.485 255.985C458.534 256.056 458.569 256.137 458.589 256.223C458.609 256.31 458.613 256.4 458.601 256.488C458.589 256.577 458.561 256.661 458.518 256.737C458.403 256.871 458.247 256.952 458.081 256.964C457.914 256.976 457.75 256.918 457.621 256.802V256.802Z" fill="#0F0F0F"/>
<path d="M439.153 258.131L435.897 255.609C435.827 255.565 435.765 255.506 435.716 255.435C435.667 255.365 435.632 255.284 435.611 255.197C435.591 255.111 435.587 255.02 435.6 254.932C435.612 254.844 435.64 254.759 435.683 254.683L437.684 251.784C437.799 251.649 437.955 251.568 438.121 251.556C438.288 251.544 438.452 251.602 438.581 251.719C438.652 251.763 438.713 251.822 438.762 251.893C438.811 251.963 438.847 252.044 438.867 252.131C438.887 252.217 438.891 252.308 438.879 252.396C438.866 252.484 438.838 252.569 438.796 252.645L437.619 254.349L449.636 253.484L449.939 254.793L437.922 255.658L439.836 257.14C439.906 257.184 439.968 257.243 440.017 257.314C440.066 257.385 440.101 257.466 440.121 257.552C440.141 257.639 440.145 257.729 440.133 257.817C440.121 257.906 440.093 257.99 440.05 258.066C439.935 258.2 439.779 258.281 439.613 258.293C439.446 258.305 439.282 258.247 439.153 258.131V258.131Z" fill="#0F0F0F"/>
<path d="M471.435 251.06L474.499 253.9C474.551 253.964 474.616 254.014 474.688 254.047C474.76 254.079 474.838 254.093 474.915 254.088C474.993 254.082 475.069 254.057 475.137 254.015C475.204 253.972 475.263 253.913 475.307 253.842L476.977 250.661C477.047 250.485 477.061 250.288 477.018 250.101C476.975 249.915 476.877 249.75 476.739 249.633C476.687 249.569 476.622 249.518 476.55 249.486C476.478 249.453 476.4 249.439 476.322 249.445C476.244 249.451 476.169 249.476 476.101 249.518C476.033 249.561 475.975 249.62 475.931 249.691L474.949 251.561L471.964 238.663L470.821 238.745L473.806 251.643L472.005 249.974C471.953 249.909 471.889 249.859 471.816 249.827C471.744 249.794 471.666 249.78 471.589 249.786C471.511 249.791 471.435 249.816 471.368 249.859C471.3 249.901 471.242 249.961 471.197 250.032C471.127 250.208 471.113 250.405 471.156 250.591C471.199 250.778 471.297 250.943 471.435 251.06V251.06Z" fill="#0F0F0F"/>
<path d="M442.291 98.2418L394.425 100.776C394.331 100.772 394.237 100.792 394.151 100.836C394.065 100.88 393.99 100.945 393.931 101.028C393.873 101.11 393.833 101.206 393.814 101.309C393.796 101.412 393.8 101.518 393.825 101.619L404.151 145.425C404.217 145.652 404.349 145.849 404.525 145.987C404.702 146.124 404.914 146.193 405.129 146.184L452.994 143.65C453.089 143.654 453.182 143.634 453.268 143.59C453.354 143.546 453.429 143.481 453.488 143.398C453.547 143.316 453.587 143.22 453.605 143.117C453.624 143.014 453.62 142.908 453.594 142.807L451.579 134.26C451.513 134.032 451.382 133.835 451.205 133.698C451.029 133.561 450.817 133.491 450.602 133.5C450.507 133.496 450.413 133.516 450.327 133.56C450.242 133.604 450.166 133.669 450.108 133.752C450.049 133.834 450.009 133.93 449.99 134.033C449.972 134.136 449.976 134.242 450.001 134.343L451.827 142.089L405.54 144.54L397.103 108.747L443.39 106.297L449.246 131.138C449.312 131.365 449.443 131.563 449.62 131.7C449.796 131.837 450.008 131.906 450.224 131.897C450.318 131.902 450.412 131.881 450.498 131.837C450.584 131.794 450.659 131.728 450.718 131.646C450.776 131.563 450.816 131.467 450.835 131.364C450.853 131.261 450.85 131.155 450.824 131.054L443.268 99.0014C443.202 98.7739 443.071 98.5767 442.894 98.4396C442.718 98.3025 442.506 98.2331 442.291 98.2418V98.2418ZM395.592 102.337L424.785 100.791L425.918 105.599L396.725 107.145L395.592 102.337ZM427.496 105.516L426.363 100.708L441.879 99.8862L443.013 104.694L427.496 105.516Z" fill="#0F0F0F"/>
<path d="M434.512 101.845C434.412 101.84 434.312 101.862 434.22 101.909C434.129 101.956 434.048 102.026 433.986 102.114C433.924 102.201 433.881 102.304 433.861 102.414C433.841 102.523 433.845 102.636 433.872 102.744C433.943 102.987 434.083 103.197 434.272 103.343C434.46 103.489 434.686 103.563 434.915 103.554C435.016 103.559 435.116 103.537 435.208 103.49C435.299 103.443 435.379 103.373 435.442 103.285C435.504 103.198 435.547 103.095 435.567 102.985C435.587 102.876 435.583 102.763 435.556 102.655C435.485 102.412 435.345 102.202 435.156 102.056C434.968 101.91 434.742 101.836 434.512 101.845V101.845Z" fill="#0F0F0F"/>
<path d="M430.2 102.073C430.099 102.069 429.999 102.091 429.908 102.137C429.816 102.184 429.736 102.254 429.674 102.342C429.611 102.43 429.568 102.532 429.549 102.642C429.529 102.752 429.533 102.865 429.56 102.972C429.631 103.215 429.771 103.425 429.959 103.571C430.147 103.718 430.373 103.792 430.603 103.783C430.704 103.787 430.804 103.765 430.895 103.718C430.987 103.672 431.067 103.602 431.129 103.514C431.192 103.426 431.235 103.323 431.254 103.214C431.274 103.104 431.27 102.991 431.243 102.883C431.172 102.641 431.032 102.431 430.844 102.284C430.656 102.138 430.43 102.064 430.2 102.073Z" fill="#0F0F0F"/>
<path d="M438.826 101.616C438.725 101.612 438.625 101.634 438.534 101.681C438.442 101.727 438.362 101.798 438.3 101.885C438.237 101.973 438.194 102.076 438.175 102.185C438.155 102.295 438.159 102.408 438.186 102.516C438.257 102.758 438.397 102.968 438.585 103.115C438.773 103.261 438.999 103.335 439.229 103.326C439.33 103.33 439.43 103.308 439.521 103.262C439.613 103.215 439.693 103.145 439.755 103.057C439.818 102.969 439.861 102.867 439.88 102.757C439.9 102.647 439.896 102.534 439.869 102.427C439.798 102.184 439.658 101.974 439.47 101.828C439.282 101.682 439.056 101.607 438.826 101.616V101.616Z" fill="#0F0F0F"/>
<path d="M432.214 130.928L428.993 135.453C429.215 135.753 429.377 136.102 429.469 136.477C429.545 136.779 429.556 137.098 429.501 137.406C429.445 137.714 429.325 138.003 429.149 138.25C428.974 138.497 428.748 138.694 428.49 138.825C428.233 138.956 427.951 139.018 427.668 139.006C427.023 139.032 426.387 138.823 425.858 138.412C425.328 138.001 424.934 137.409 424.735 136.727C424.658 136.425 424.647 136.106 424.703 135.798C424.758 135.49 424.879 135.201 425.054 134.954C425.23 134.707 425.456 134.51 425.713 134.379C425.97 134.247 426.252 134.185 426.535 134.198C426.901 134.181 427.266 134.243 427.61 134.379L430.831 129.854C430.978 129.692 431.173 129.596 431.379 129.586C431.585 129.575 431.788 129.649 431.947 129.794C432.034 129.847 432.11 129.919 432.171 130.005C432.232 130.092 432.276 130.191 432.301 130.297C432.326 130.403 432.331 130.514 432.317 130.622C432.302 130.731 432.267 130.835 432.214 130.928V130.928ZM427.891 136.56C427.824 136.333 427.693 136.136 427.516 135.999C427.34 135.862 427.128 135.792 426.913 135.801C426.819 135.797 426.725 135.817 426.639 135.861C426.553 135.905 426.478 135.971 426.419 136.053C426.361 136.135 426.321 136.231 426.302 136.334C426.284 136.437 426.287 136.543 426.313 136.644C426.379 136.871 426.511 137.068 426.687 137.205C426.864 137.342 427.075 137.412 427.291 137.403C427.385 137.408 427.479 137.387 427.565 137.343C427.65 137.299 427.726 137.234 427.784 137.151C427.843 137.069 427.883 136.973 427.901 136.87C427.92 136.767 427.916 136.661 427.891 136.56V136.56Z" fill="#0F0F0F"/>
<path d="M437.693 136.041C437.759 136.269 437.89 136.466 438.067 136.603C438.243 136.74 438.455 136.81 438.671 136.801L444.301 136.503C444.395 136.507 444.489 136.487 444.575 136.443C444.661 136.399 444.736 136.333 444.795 136.251C444.853 136.169 444.894 136.072 444.912 135.97C444.93 135.867 444.927 135.761 444.901 135.66C444.896 135.639 444.891 135.619 444.885 135.6C443.554 130.561 440.686 126.192 436.772 123.242C436.71 123.179 436.641 123.125 436.566 123.082C432.559 119.949 427.74 118.349 422.84 118.526C420.693 118.557 418.577 119.098 416.634 120.112C414.691 121.126 412.966 122.589 411.575 124.404C411.549 124.429 411.525 124.457 411.504 124.487C411.483 124.517 411.464 124.549 411.449 124.583C410.204 126.407 409.361 128.53 408.989 130.781C408.616 133.032 408.724 135.348 409.304 137.544C409.37 137.772 409.501 137.969 409.678 138.106C409.854 138.243 410.066 138.313 410.281 138.304L415.91 138.006C416.004 138.01 416.098 137.99 416.184 137.946C416.27 137.902 416.345 137.836 416.404 137.754C416.462 137.672 416.502 137.575 416.521 137.473C416.539 137.37 416.536 137.264 416.51 137.163C415.112 131.231 418.726 126.154 424.566 125.845C430.406 125.536 436.295 130.11 437.693 136.041ZM416.888 127.743L413.335 124.983C415.707 122.158 418.961 120.443 422.434 120.19L423.405 124.311C420.93 124.54 418.614 125.76 416.888 127.743V127.743ZM424.012 120.107C427.959 120.142 431.814 121.435 435.119 123.83L432.938 126.894C430.555 125.217 427.804 124.295 424.983 124.227L424.012 120.107ZM439.057 135.158C438.145 132.299 436.499 129.799 434.321 127.968L436.502 124.904C439.582 127.418 441.89 130.923 443.113 134.943L439.057 135.158L439.057 135.158ZM414.768 136.444L410.712 136.658C410.339 134.87 410.304 133.015 410.609 131.211C410.915 129.406 411.554 127.692 412.486 126.175L416.039 128.935C415.392 130.032 414.947 131.26 414.729 132.549C414.511 133.837 414.524 135.161 414.768 136.444V136.444Z" fill="#0F0F0F"/>
<path d="M400.816 103.403L420.8 102.345L421.17 103.915L401.186 104.973L400.816 103.403Z" fill="#0F0F0F"/>
<path d="M402.765 111.668L413.683 111.09L414.053 112.659L403.135 113.237L402.765 111.668Z" fill="#0F0F0F"/>
<path d="M403.554 115.016L414.472 114.438L414.842 116.007L403.924 116.585L403.554 115.016Z" fill="#0F0F0F"/>
<path d="M443.695 118.505L433.806 119.028L431.438 108.985L441.327 108.461L443.695 118.505ZM435.059 117.267L441.652 116.918L440.074 110.223L433.481 110.572L435.059 117.267Z" fill="#0F0F0F"/>
</g>
<defs>
<clipPath id="clip0">
<rect width="796" height="618" fill="white"/>
</clipPath>
</defs>
</svg>
