<svg id="en1yxv51m6k1" xmlns="http://www.w3.org/2000/svg" xmlns:xlink="http://www.w3.org/1999/xlink" viewBox="0 0 796 618" shape-rendering="geometricPrecision" text-rendering="geometricPrecision" width="796" height="618"><defs><clipPath id="en1yxv51m6k2"><rect id="en1yxv51m6k3" width="796" height="618" rx="0" ry="0" fill="rgb(255,255,255)" stroke="none" stroke-width="1"/></clipPath></defs><g id="en1yxv51m6k4" clip-path="url(#en1yxv51m6k2)"><rect id="en1yxv51m6k5" width="400" height="619" rx="0" ry="0" transform="matrix(1 0 0 1 0 -0.99816900000000)" fill="rgb(255,255,255)" stroke="none" stroke-width="1"/><path id="en1yxv51m6k6" d="M704.231000,436.146000L796,568.163000L102,568.163000L173.500000,436.280000L704.231000,436.146000Z" fill="rgb(208,212,217)" stroke="none" stroke-width="1"/><path id="en1yxv51m6k7" d="M614.823000,308.060000L240.500000,307.677000L173.500000,436.280000L704.403000,436.280000L614.823000,308.060000Z" fill="rgb(228,228,234)" stroke="none" stroke-width="1"/><path id="en1yxv51m6k8" d="M240.100000,307.677000L614.426000,307.677000L523.259000,177.049000L309.402000,177.049000L240.100000,307.677000Z" transform="matrix(1 0 0 1 0.40000000000001 0)" fill="rgb(243,243,249)" stroke="none" stroke-width="1"/><path id="en1yxv51m6k9" d="M399.599000,0L523.259000,177.049000L309.902000,177.049000L399.599000,0Z" fill="rgb(255,210,0)" stroke="none" stroke-width="1"/><path id="en1yxv51m6k10" d="M173.500000,436.146000L102,568.163000L56,541L134,420L173.500000,436.146000Z" fill="rgb(179,182,187)" stroke="none" stroke-width="1"/><path id="en1yxv51m6k11" d="M240.500000,307.677000L210,300L134,420L173.500000,436.146000L240.500000,307.677000Z" fill="rgb(196,196,201)" stroke="none" stroke-width="1"/><path id="en1yxv51m6k12" d="M240.500000,307.677000L309.902000,177.049000L290.500000,172.731000L210,300L240.500000,307.677000Z" fill="rgb(209,209,214)" stroke="none" stroke-width="1"/><path id="en1yxv51m6k13" d="M399.599000,0L309.902000,177.049000L290.500000,172.731000L399.599000,0Z" fill="rgb(219,181,2)" stroke="none" stroke-width="1"/><g id="en1yxv51m6k14" transform="matrix(0.99767469572259 0.06815571520306 -0.06815571520306 0.99767469572259 -27.53725482470554 -54.79125051187611)"><path id="en1yxv51m6k15" d="M503.564000,500.873000L507.083000,500.550000C507.195000,500.543000,507.304000,500.508000,507.402000,500.446000C507.499000,500.385000,507.583000,500.299000,507.645000,500.195000C507.707000,500.091000,507.747000,499.973000,507.760000,499.849000C507.774000,499.726000,507.761000,499.600000,507.723000,499.483000C507.650000,499.213000,507.498000,498.979000,507.291000,498.815000C507.084000,498.652000,506.834000,498.569000,506.581000,498.580000L503.062000,498.903000C503.047000,498.904000,503.033000,498.899000,503.021000,498.889000C503.009000,498.880000,503.001000,498.867000,502.997000,498.851000L501.368000,492.460000C501.365000,492.454000,501.365000,492.446000,501.366000,492.439000C501.366000,492.432000,501.369000,492.426000,501.372000,492.420000C501.376000,492.414000,501.380000,492.409000,501.386000,492.405000C501.392000,492.402000,501.398000,492.400000,501.404000,492.399000L515.504000,491.105000C515.617000,491.098000,515.726000,491.063000,515.823000,491.001000C515.921000,490.940000,516.004000,490.854000,516.067000,490.750000C516.129000,490.646000,516.168000,490.528000,516.182000,490.404000C516.196000,490.281000,516.183000,490.155000,516.145000,490.038000C516.071000,489.768000,515.919000,489.533000,515.712000,489.370000C515.506000,489.207000,515.256000,489.124000,515.002000,489.135000L500.902000,490.429000C500.672000,490.443000,500.447000,490.516000,500.247000,490.643000C500.046000,490.769000,499.875000,490.946000,499.747000,491.160000C499.619000,491.373000,499.537000,491.616000,499.509000,491.871000C499.481000,492.125000,499.507000,492.383000,499.584000,492.624000L501.213000,499.015000C501.365000,499.569000,501.678000,500.052000,502.104000,500.388000C502.529000,500.724000,503.042000,500.895000,503.564000,500.873000Z" fill="rgb(15,15,15)" stroke="none" stroke-width="1"/><path id="en1yxv51m6k16" d="M547.435000,516.741000L543.248000,517.126000L543.128000,516.657000C542.753000,515.288000,541.979000,514.095000,540.928000,513.265000C539.878000,512.434000,538.609000,512.013000,537.320000,512.067000L527.765000,512.944000C527.648000,512.799000,527.517000,512.668000,527.374000,512.555000L517.884000,505.055000C517.742000,504.943000,517.589000,504.848000,517.428000,504.774000L516.139000,499.718000L526.932000,498.727000C527.162000,498.714000,527.387000,498.641000,527.587000,498.514000C527.788000,498.387000,527.959000,498.210000,528.087000,497.997000C528.215000,497.784000,528.296000,497.540000,528.325000,497.286000C528.353000,497.032000,528.327000,496.774000,528.249000,496.533000L526.621000,490.142000C526.469000,489.588000,526.156000,489.105000,525.731000,488.769000C525.305000,488.433000,524.792000,488.262000,524.270000,488.284000L519.106000,488.758000C518.994000,488.764000,518.885000,488.800000,518.787000,488.861000C518.689000,488.923000,518.606000,489.009000,518.544000,489.113000C518.482000,489.216000,518.442000,489.335000,518.428000,489.458000C518.415000,489.582000,518.427000,489.708000,518.465000,489.825000C518.539000,490.094000,518.691000,490.329000,518.898000,490.493000C519.105000,490.656000,519.354000,490.739000,519.608000,490.728000L524.772000,490.254000C524.787000,490.253000,524.801000,490.258000,524.813000,490.267000C524.825000,490.277000,524.833000,490.290000,524.837000,490.306000L526.466000,496.696000C526.468000,496.703000,526.469000,496.710000,526.468000,496.717000C526.468000,496.724000,526.465000,496.731000,526.462000,496.737000C526.458000,496.743000,526.454000,496.748000,526.448000,496.751000C526.443000,496.755000,526.436000,496.757000,526.430000,496.757000L510.685000,498.203000C510.572000,498.209000,510.463000,498.245000,510.366000,498.306000C510.268000,498.368000,510.185000,498.454000,510.123000,498.558000C510.060000,498.661000,510.021000,498.780000,510.007000,498.903000C509.993000,499.027000,510.006000,499.153000,510.044000,499.270000C510.118000,499.539000,510.270000,499.774000,510.477000,499.938000C510.683000,500.101000,510.933000,500.184000,511.187000,500.173000L514.356000,499.882000L515.644000,504.938000C515.529000,505.036000,515.430000,505.154000,515.349000,505.288000L510.029000,514.147000C509.948000,514.283000,509.887000,514.432000,509.848000,514.589000L500.294000,515.466000C499.725000,515.499000,499.170000,515.680000,498.674000,515.993000C498.178000,516.306000,497.756000,516.744000,497.439000,517.271000C497.123000,517.798000,496.922000,518.399000,496.852000,519.027000C496.783000,519.656000,496.846000,520.293000,497.038000,520.889000L497.226000,521.627000C496.587000,521.800000,495.988000,522.119000,495.468000,522.565000C494.948000,523.011000,494.518000,523.573000,494.206000,524.215000C493.894000,524.857000,493.706000,525.564000,493.656000,526.291000C493.606000,527.018000,493.694000,527.749000,493.915000,528.436000C494.358000,530.029000,495.218000,531.440000,496.384000,532.491000C497.550000,533.542000,498.971000,534.186000,500.466000,534.341000L502.981000,544.206000C502.342000,544.379000,501.744000,544.699000,501.223000,545.145000C500.703000,545.591000,500.273000,546.153000,499.961000,546.795000C499.649000,547.437000,499.462000,548.144000,499.412000,548.871000C499.361000,549.599000,499.449000,550.329000,499.670000,551.017000C500.153000,552.776000,501.146000,554.308000,502.496000,555.375000C503.846000,556.442000,505.476000,556.983000,507.132000,556.914000C507.787000,556.882000,508.427000,556.696000,509.012000,556.368000C509.597000,556.041000,510.113000,555.580000,510.526000,555.015000C510.938000,554.450000,511.238000,553.795000,511.406000,553.093000C511.574000,552.390000,511.605000,551.656000,511.498000,550.939000L515.957000,550.529000L515.914000,550.361000C516.053000,550.905000,515.443000,550.612000,515.935000,550.567000C516.744000,550.683000,517.688000,549.096000,517.239000,548.397000L515.428000,541.291000C515.414000,541.249000,515.409000,541.203000,515.414000,541.158000C515.419000,541.114000,515.434000,541.071000,515.456000,541.033000C515.479000,540.996000,515.509000,540.965000,515.544000,540.943000C515.580000,540.920000,515.619000,540.907000,515.660000,540.905000L519.366000,540.565000L520.373000,544.514000C520.511000,545.016000,520.794000,545.453000,521.179000,545.757000C521.564000,546.062000,522.029000,546.216000,522.501000,546.197000L526.076000,545.868000L528.240000,554.356000C528.414000,554.992000,528.774000,555.546000,529.262000,555.932000C529.750000,556.318000,530.339000,556.513000,530.938000,556.489000L550.664000,554.678000C550.929000,554.662000,551.186000,554.578000,551.417000,554.433000C551.647000,554.287000,551.843000,554.084000,551.990000,553.839000C552.137000,553.594000,552.231000,553.315000,552.263000,553.023000C552.295000,552.731000,552.266000,552.435000,552.177000,552.158000L551.380000,549.031000L555.566000,548.646000C555.797000,548.633000,556.021000,548.560000,556.222000,548.433000C556.423000,548.306000,556.594000,548.129000,556.722000,547.916000C556.850000,547.703000,556.931000,547.459000,556.959000,547.205000C556.987000,546.951000,556.961000,546.693000,556.884000,546.451000L549.785000,518.599000C549.633000,518.045000,549.320000,517.562000,548.895000,517.226000C548.470000,516.890000,547.956000,516.719000,547.435000,516.741000L547.435000,516.741000ZM511.645000,515.424000L516.964000,506.565000C516.966000,506.562000,516.969000,506.561000,516.971000,506.561000C516.974000,506.561000,516.976000,506.561000,516.978000,506.563000L526.468000,514.063000C526.470000,514.065000,526.471000,514.067000,526.472000,514.070000C526.473000,514.073000,526.473000,514.076000,526.471000,514.078000L521.152000,522.938000C521.151000,522.939000,521.150000,522.940000,521.149000,522.940000C521.148000,522.941000,521.146000,522.941000,521.145000,522.941000C521.144000,522.941000,521.143000,522.941000,521.141000,522.941000C521.140000,522.940000,521.139000,522.940000,521.138000,522.939000L511.648000,515.439000C511.647000,515.437000,511.645000,515.435000,511.644000,515.432000C511.644000,515.430000,511.644000,515.427000,511.645000,515.424000L511.645000,515.424000ZM495.698000,528.272000C495.527000,527.741000,495.470000,527.173000,495.533000,526.613000C495.595000,526.053000,495.774000,525.517000,496.056000,525.047000C496.338000,524.578000,496.714000,524.188000,497.156000,523.909000C497.598000,523.629000,498.093000,523.468000,498.600000,523.439000C499.749000,523.391000,500.880000,523.767000,501.817000,524.507000C502.753000,525.247000,503.443000,526.310000,503.778000,527.531000C503.949000,528.062000,504.005000,528.630000,503.943000,529.190000C503.881000,529.750000,503.702000,530.286000,503.420000,530.756000C503.138000,531.225000,502.761000,531.615000,502.319000,531.895000C501.877000,532.174000,501.383000,532.335000,500.875000,532.364000C499.726000,532.412000,498.595000,532.036000,497.659000,531.296000C496.722000,530.556000,496.033000,529.493000,495.698000,528.273000L495.698000,528.272000ZM506.630000,554.944000C505.481000,554.992000,504.350000,554.616000,503.414000,553.876000C502.477000,553.136000,501.788000,552.073000,501.453000,550.852000C501.282000,550.321000,501.225000,549.753000,501.288000,549.193000C501.350000,548.633000,501.529000,548.097000,501.811000,547.627000C502.093000,547.158000,502.470000,546.768000,502.911000,546.489000C503.353000,546.210000,503.848000,546.049000,504.355000,546.019000C505.504000,545.971000,506.635000,546.347000,507.572000,547.087000C508.508000,547.827000,509.198000,548.890000,509.533000,550.111000C509.704000,550.642000,509.760000,551.210000,509.698000,551.770000C509.636000,552.330000,509.457000,552.866000,509.175000,553.336000C508.893000,553.805000,508.516000,554.195000,508.074000,554.474000C507.632000,554.754000,507.138000,554.915000,506.630000,554.944000L506.630000,554.944000ZM517.858000,534.645000L518.864000,538.595000L515.157000,538.935000C514.893000,538.950000,514.635000,539.034000,514.405000,539.180000C514.174000,539.325000,513.978000,539.529000,513.831000,539.773000C513.684000,540.018000,513.590000,540.298000,513.558000,540.590000C513.526000,540.881000,513.555000,541.178000,513.644000,541.455000L515.455000,548.559000L510.996000,548.969000C510.439000,547.612000,509.570000,546.443000,508.476000,545.578000C507.382000,544.713000,506.101000,544.184000,504.764000,544.043000L502.250000,534.177000C502.888000,534.004000,503.487000,533.684000,504.007000,533.238000C504.527000,532.792000,504.957000,532.230000,505.270000,531.589000C505.582000,530.947000,505.769000,530.239000,505.819000,529.512000C505.869000,528.785000,505.781000,528.054000,505.561000,527.367000C505.117000,525.774000,504.258000,524.363000,503.092000,523.312000C501.926000,522.262000,500.505000,521.618000,499.009000,521.462000L498.821000,520.725000C498.705000,520.364000,498.666000,519.977000,498.709000,519.596000C498.751000,519.215000,498.873000,518.850000,499.065000,518.530000C499.257000,518.211000,499.513000,517.946000,499.814000,517.756000C500.114000,517.566000,500.451000,517.456000,500.796000,517.436000L510.350000,516.559000C510.468000,516.704000,510.600000,516.834000,510.743000,516.948000L520.232000,524.448000C520.375000,524.560000,520.528000,524.654000,520.688000,524.729000L522.626000,532.330000L519.050000,532.658000C518.842000,532.670000,518.638000,532.737000,518.457000,532.851000C518.275000,532.966000,518.120000,533.127000,518.005000,533.320000C517.889000,533.513000,517.815000,533.733000,517.790000,533.963000C517.764000,534.193000,517.787000,534.427000,517.858000,534.645000L517.858000,534.645000ZM519.676000,534.617000L528.364000,533.819000L530.810000,543.417000L522.122000,544.215000L519.676000,534.617000ZM550.393000,552.322000C550.407000,552.364000,550.412000,552.410000,550.407000,552.454000C550.402000,552.499000,550.387000,552.542000,550.365000,552.579000C550.342000,552.617000,550.312000,552.648000,550.277000,552.670000C550.242000,552.692000,550.202000,552.705000,550.162000,552.707000L530.436000,554.518000C530.344000,554.522000,530.254000,554.492000,530.180000,554.433000C530.105000,554.374000,530.050000,554.289000,530.023000,554.192000L527.860000,545.704000L531.435000,545.376000C531.644000,545.364000,531.847000,545.298000,532.029000,545.183000C532.210000,545.068000,532.365000,544.908000,532.481000,544.715000C532.597000,544.522000,532.670000,544.301000,532.696000,544.071000C532.722000,543.841000,532.698000,543.608000,532.628000,543.389000L531.621000,539.439000L540.735000,538.603000L543.059000,547.721000C543.211000,548.275000,543.524000,548.758000,543.950000,549.094000C544.375000,549.430000,544.888000,549.600000,545.410000,549.579000L549.596000,549.194000L550.393000,552.322000ZM555.101000,546.615000C555.103000,546.622000,555.104000,546.629000,555.103000,546.636000C555.102000,546.643000,555.100000,546.650000,555.096000,546.656000C555.093000,546.662000,555.088000,546.667000,555.082000,546.670000C555.077000,546.674000,555.071000,546.676000,555.064000,546.676000L544.908000,547.609000C544.894000,547.609000,544.879000,547.605000,544.867000,547.595000C544.855000,547.586000,544.847000,547.572000,544.843000,547.557000L540.431000,530.249000C540.358000,529.979000,540.205000,529.745000,539.999000,529.581000C539.792000,529.418000,539.542000,529.335000,539.289000,529.346000C539.176000,529.352000,539.067000,529.387000,538.970000,529.449000C538.872000,529.511000,538.789000,529.597000,538.726000,529.700000C538.664000,529.804000,538.625000,529.923000,538.611000,530.046000C538.597000,530.170000,538.610000,530.295000,538.648000,530.413000L540.233000,536.633000L531.119000,537.469000L530.113000,533.520000C529.975000,533.018000,529.692000,532.581000,529.307000,532.277000C528.922000,531.973000,528.457000,531.818000,527.985000,531.838000L524.409000,532.166000L522.472000,524.565000C522.587000,524.467000,522.687000,524.349000,522.768000,524.215000L528.087000,515.355000C528.168000,515.220000,528.229000,515.071000,528.267000,514.914000L537.822000,514.037000C538.604000,514.004000,539.373000,514.260000,540.011000,514.763000C540.648000,515.267000,541.117000,515.990000,541.345000,516.821000L541.465000,517.289000L537.278000,517.674000C537.048000,517.687000,536.823000,517.760000,536.623000,517.887000C536.422000,518.013000,536.251000,518.190000,536.123000,518.404000C535.995000,518.617000,535.913000,518.860000,535.885000,519.114000C535.857000,519.369000,535.883000,519.627000,535.960000,519.868000L537.492000,525.878000C537.566000,526.148000,537.718000,526.383000,537.925000,526.546000C538.132000,526.710000,538.381000,526.792000,538.635000,526.782000C538.747000,526.775000,538.856000,526.740000,538.954000,526.678000C539.051000,526.617000,539.135000,526.530000,539.197000,526.427000C539.259000,526.323000,539.299000,526.205000,539.312000,526.081000C539.326000,525.957000,539.313000,525.832000,539.276000,525.715000L537.744000,519.704000C537.742000,519.697000,537.741000,519.690000,537.742000,519.683000C537.742000,519.676000,537.745000,519.669000,537.748000,519.664000C537.752000,519.658000,537.757000,519.653000,537.762000,519.649000C537.768000,519.646000,537.774000,519.644000,537.781000,519.644000L547.937000,518.711000C547.951000,518.711000,547.965000,518.715000,547.977000,518.724000C547.989000,518.734000,547.998000,518.747000,548.002000,518.762000L555.101000,546.615000Z" fill="rgb(15,15,15)" stroke="none" stroke-width="1"/><path id="en1yxv51m6k17" d="M521.363000,518.584000L523.001000,515.856000C523.125000,515.638000,523.206000,515.392000,523.235000,515.136000C523.265000,514.880000,523.244000,514.620000,523.173000,514.374000C523.022000,513.813000,522.704000,513.325000,522.271000,512.990000L519.349000,510.681000C519.165000,510.504000,518.952000,510.371000,518.722000,510.287000C518.491000,510.203000,518.248000,510.172000,518.006000,510.194000C517.765000,510.216000,517.529000,510.292000,517.314000,510.416000C517.099000,510.541000,516.909000,510.712000,516.754000,510.919000L515.117000,513.647000C514.992000,513.865000,514.912000,514.111000,514.882000,514.367000C514.852000,514.623000,514.874000,514.883000,514.944000,515.129000C515.095000,515.691000,515.414000,516.178000,515.847000,516.513000L518.769000,518.822000C519.186000,519.164000,519.699000,519.332000,520.217000,519.297000C520.445000,519.283000,520.666000,519.212000,520.865000,519.088000C521.064000,518.965000,521.234000,518.792000,521.363000,518.584000ZM516.753000,515.004000C516.741000,514.995000,516.732000,514.981000,516.728000,514.966000C516.725000,514.959000,516.725000,514.951000,516.726000,514.944000C516.726000,514.937000,516.729000,514.930000,516.732000,514.924000L518.370000,512.196000C518.374000,512.190000,518.379000,512.185000,518.384000,512.182000C518.390000,512.179000,518.396000,512.177000,518.402000,512.176000C518.417000,512.175000,518.431000,512.180000,518.443000,512.189000L521.364000,514.499000C521.377000,514.508000,521.386000,514.522000,521.390000,514.538000C521.392000,514.544000,521.393000,514.552000,521.392000,514.559000C521.391000,514.566000,521.388000,514.573000,521.385000,514.578000L519.747000,517.307000C519.743000,517.313000,519.739000,517.318000,519.733000,517.321000C519.728000,517.324000,519.721000,517.326000,519.715000,517.326000C519.700000,517.328000,519.686000,517.323000,519.674000,517.313000L516.753000,515.004000Z" fill="rgb(15,15,15)" stroke="none" stroke-width="1"/><path id="en1yxv51m6k18" d="M546.395000,527.267000L543.724000,527.512000C543.612000,527.518000,543.502000,527.554000,543.405000,527.615000C543.307000,527.677000,543.224000,527.763000,543.162000,527.867000C543.100000,527.971000,543.060000,528.089000,543.046000,528.213000C543.033000,528.336000,543.045000,528.462000,543.083000,528.579000C543.157000,528.848000,543.309000,529.083000,543.516000,529.247000C543.723000,529.410000,543.972000,529.493000,544.226000,529.482000L546.897000,529.237000C547.009000,529.230000,547.119000,529.195000,547.216000,529.133000C547.314000,529.072000,547.397000,528.986000,547.459000,528.882000C547.522000,528.778000,547.561000,528.660000,547.575000,528.536000C547.588000,528.413000,547.576000,528.287000,547.538000,528.170000C547.464000,527.900000,547.312000,527.666000,547.105000,527.502000C546.898000,527.339000,546.649000,527.256000,546.395000,527.267000Z" fill="rgb(15,15,15)" stroke="none" stroke-width="1"/><path id="en1yxv51m6k19" d="M547.872000,533.062000L545.200000,533.307000C545.088000,533.313000,544.979000,533.349000,544.881000,533.410000C544.784000,533.472000,544.701000,533.558000,544.638000,533.661000C544.576000,533.765000,544.537000,533.884000,544.523000,534.007000C544.509000,534.131000,544.522000,534.256000,544.560000,534.374000C544.633000,534.643000,544.786000,534.878000,544.992000,535.041000C545.199000,535.205000,545.449000,535.288000,545.703000,535.277000L548.374000,535.031000C548.486000,535.025000,548.595000,534.990000,548.693000,534.928000C548.790000,534.867000,548.873000,534.781000,548.936000,534.677000C548.998000,534.573000,549.038000,534.455000,549.051000,534.331000C549.065000,534.207000,549.052000,534.082000,549.014000,533.965000C548.941000,533.695000,548.789000,533.460000,548.582000,533.297000C548.375000,533.133000,548.125000,533.051000,547.872000,533.062000L547.872000,533.062000Z" fill="rgb(15,15,15)" stroke="none" stroke-width="1"/><path id="en1yxv51m6k20" d="M549.349000,538.856000L546.678000,539.101000C546.566000,539.107000,546.457000,539.143000,546.359000,539.204000C546.261000,539.266000,546.178000,539.352000,546.116000,539.456000C546.054000,539.559000,546.014000,539.678000,546,539.801000C545.987000,539.925000,545.999000,540.050000,546.037000,540.168000C546.111000,540.437000,546.263000,540.672000,546.470000,540.836000C546.677000,540.999000,546.926000,541.082000,547.180000,541.071000L549.851000,540.826000C549.964000,540.819000,550.073000,540.784000,550.170000,540.722000C550.268000,540.661000,550.351000,540.575000,550.413000,540.471000C550.476000,540.367000,550.515000,540.249000,550.529000,540.125000C550.543000,540.002000,550.530000,539.876000,550.492000,539.759000C550.418000,539.489000,550.266000,539.254000,550.059000,539.091000C549.853000,538.928000,549.603000,538.845000,549.349000,538.856000Z" fill="rgb(15,15,15)" stroke="none" stroke-width="1"/></g><g id="en1yxv51m6k21" transform="matrix(0.99589788324474 0.09048428674998 -0.09048428674998 0.99589788324474 -4.92056506765249 -51.60027866969608)"><path id="en1yxv51m6k22" d="M521.432000,407.963000L508.601000,397.464000C508.130000,397.027000,507.535000,396.788000,506.920000,396.790000C506.306000,396.791000,505.712000,397.033000,505.242000,397.472000L499.580000,392.839000C504.191000,383.277000,500.790000,370.094000,491.351000,362.369000C481.212000,354.073000,467.890000,355.167000,461.653000,364.808000C455.416000,374.449000,458.591000,389.042000,468.729000,397.338000C473.400000,401.277000,479.186000,403.233000,485.043000,402.855000C489.593000,402.587000,493.881000,400.412000,497.040000,396.769000L502.700000,401.401000C502.474000,402.040000,502.452000,402.746000,502.639000,403.401000C502.826000,404.056000,503.210000,404.620000,503.727000,404.998000L516.559000,415.497000C517.123000,415.971000,517.821000,416.207000,518.527000,416.162000C518.844000,416.144000,519.153000,416.049000,519.432000,415.884000C519.711000,415.718000,519.954000,415.485000,520.143000,415.203000L522.286000,411.889000C522.469000,411.597000,522.591000,411.265000,522.646000,410.916000C522.700000,410.566000,522.685000,410.208000,522.602000,409.865000C522.425000,409.099000,522.011000,408.425000,521.432000,407.963000ZM496.158000,394.872000C496.145000,394.888000,496.132000,394.905000,496.119000,394.923000C490.077000,402.672000,478.517000,403.242000,469.619000,395.961000C460.279000,388.319000,457.355000,374.875000,463.101000,365.993000C464.536000,363.832000,466.387000,362.052000,468.520000,360.784000C470.653000,359.516000,473.013000,358.792000,475.430000,358.663000C480.826000,358.315000,486.157000,360.117000,490.460000,363.746000C499.800000,371.389000,502.724000,384.833000,496.979000,393.714000C496.718000,394.117000,496.445000,394.502000,496.158000,394.872000ZM498.035000,395.477000C498.168000,395.287000,498.299000,395.095000,498.426000,394.899000C498.554000,394.702000,498.676000,394.502000,498.795000,394.301000L504.325000,398.827000L503.565000,400.003000L498.035000,395.477000ZM520.839000,410.704000L518.695000,414.018000C518.619000,414.116000,518.527000,414.196000,518.423000,414.254000C518.320000,414.312000,518.207000,414.347000,518.091000,414.356000C517.975000,414.366000,517.859000,414.350000,517.749000,414.309000C517.639000,414.269000,517.537000,414.205000,517.449000,414.121000L504.618000,403.621000C504.418000,403.481000,504.276000,403.260000,504.221000,403.005000C504.165000,402.751000,504.201000,402.482000,504.321000,402.256000L506.465000,398.943000C506.530000,398.844000,506.615000,398.764000,506.712000,398.706000C506.809000,398.648000,506.916000,398.615000,507.026000,398.609000C507.272000,398.594000,507.514000,398.675000,507.711000,398.840000L520.542000,409.340000C520.741000,409.480000,520.884000,409.701000,520.939000,409.956000C520.994000,410.210000,520.958000,410.479000,520.839000,410.704000L520.839000,410.704000Z" fill="rgb(15,15,15)" stroke="none" stroke-width="1"/><path id="en1yxv51m6k23" d="M494.226000,376.726000C491.722000,375.100000,489.048000,373.819000,486.264000,372.913000C486.253000,372.909000,486.242000,372.903000,486.231000,372.899000C484.723000,372.416000,483.177000,372.090000,481.613000,371.927000C481.577000,371.923000,481.542000,371.920000,481.506000,371.917000C481.350000,371.902000,481.195000,371.889000,481.041000,371.879000C480.995000,371.876000,480.948000,371.872000,480.902000,371.869000C480.728000,371.859000,480.554000,371.850000,480.382000,371.845000L480.331000,371.842000C480.142000,371.837000,479.954000,371.835000,479.768000,371.835000C479.718000,371.835000,479.669000,371.837000,479.620000,371.837000C479.477000,371.839000,479.334000,371.842000,479.192000,371.847000C479.138000,371.849000,479.084000,371.851000,479.030000,371.854000C478.843000,371.862000,478.656000,371.873000,478.472000,371.888000L478.471000,371.888000L478.471000,371.888000L478.469000,371.889000L478.397000,371.895000C478.236000,371.909000,478.076000,371.926000,477.915000,371.945000C477.844000,371.954000,477.774000,371.964000,477.703000,371.973000C477.592000,371.987000,477.480000,372.003000,477.369000,372.020000C477.296000,372.031000,477.222000,372.043000,477.149000,372.055000C477.022000,372.076000,476.894000,372.100000,476.767000,372.124000C476.719000,372.133000,476.671000,372.141000,476.624000,372.151000C476.455000,372.185000,476.287000,372.222000,476.119000,372.262000C476.062000,372.275000,476.006000,372.290000,475.949000,372.303000C475.826000,372.334000,475.702000,372.366000,475.578000,372.399000C475.526000,372.413000,475.475000,372.427000,475.423000,372.442000C475.272000,372.484000,475.120000,372.529000,474.969000,372.576000L474.920000,372.591000C474.562000,372.703000,474.205000,372.829000,473.849000,372.967000L473.847000,372.968000C473.014000,373.291000,472.201000,373.674000,471.414000,374.116000C471.405000,374.122000,471.397000,374.129000,471.388000,374.134000C469.141000,375.414000,467.097000,377.091000,465.336000,379.099000C465.161000,379.307000,465.037000,379.561000,464.976000,379.837000C464.916000,380.114000,464.920000,380.402000,464.988000,380.676000C465.060000,380.983000,465.186000,381.271000,465.359000,381.522000C465.533000,381.774000,465.750000,381.985000,465.998000,382.142000C468.502000,383.769000,471.176000,385.050000,473.961000,385.956000C473.972000,385.960000,473.982000,385.966000,473.993000,385.969000C474.924000,386.264000,475.870000,386.503000,476.825000,386.684000L476.836000,386.686000C477.237000,386.761000,477.633000,386.824000,478.026000,386.875000L478.085000,386.882000C478.249000,386.903000,478.413000,386.921000,478.576000,386.938000C478.632000,386.944000,478.689000,386.949000,478.745000,386.954000C478.878000,386.966000,479.011000,386.977000,479.143000,386.986000C479.204000,386.991000,479.264000,386.995000,479.325000,386.999000C479.504000,387.010000,479.682000,387.019000,479.859000,387.025000C479.909000,387.026000,479.959000,387.026000,480.009000,387.027000C480.142000,387.030000,480.275000,387.032000,480.407000,387.033000C480.483000,387.033000,480.558000,387.032000,480.634000,387.030000C480.749000,387.029000,480.864000,387.026000,480.978000,387.022000C481.049000,387.020000,481.121000,387.018000,481.193000,387.015000C481.356000,387.007000,481.518000,386.997000,481.679000,386.985000L481.752000,386.980000L481.753000,386.980000L481.754000,386.980000L481.755000,386.980000C481.939000,386.965000,482.124000,386.945000,482.308000,386.923000C482.361000,386.917000,482.414000,386.910000,482.467000,386.903000C482.607000,386.885000,482.746000,386.866000,482.885000,386.844000C482.933000,386.837000,482.980000,386.830000,483.027000,386.822000C483.208000,386.792000,483.389000,386.760000,483.569000,386.724000L483.615000,386.714000C483.779000,386.681000,483.944000,386.645000,484.109000,386.606000C484.151000,386.596000,484.194000,386.585000,484.236000,386.575000C484.382000,386.539000,484.527000,386.502000,484.672000,386.463000C484.704000,386.454000,484.737000,386.445000,484.769000,386.436000C486.168000,386.043000,487.523000,385.478000,488.809000,384.752000C488.818000,384.747000,488.826000,384.740000,488.835000,384.735000C491.082000,383.455000,493.127000,381.778000,494.888000,379.769000C495.063000,379.561000,495.187000,379.307000,495.248000,379.031000C495.308000,378.755000,495.304000,378.466000,495.236000,378.192000C495.164000,377.885000,495.038000,377.597000,494.865000,377.346000C494.691000,377.094000,494.474000,376.883000,494.226000,376.726000L494.226000,376.726000ZM471.990000,383.416000C470.160000,382.655000,468.391000,381.723000,466.703000,380.630000C466.688000,380.621000,466.675000,380.608000,466.664000,380.593000C466.653000,380.577000,466.646000,380.560000,466.642000,380.541000C466.637000,380.524000,466.637000,380.506000,466.640000,380.489000C466.644000,380.472000,466.652000,380.457000,466.663000,380.445000C467.840000,379.102000,469.152000,377.914000,470.573000,376.903000C470.481000,378.008000,470.556000,379.122000,470.796000,380.199000C471.045000,381.332000,471.448000,382.417000,471.990000,383.416000L471.990000,383.416000ZM487.613000,383.240000L487.589000,383.253000C487.499000,383.302000,487.407000,383.350000,487.316000,383.397000C487.270000,383.421000,487.223000,383.445000,487.175000,383.470000C487.089000,383.514000,487.002000,383.557000,486.915000,383.599000C486.862000,383.625000,486.808000,383.651000,486.755000,383.676000C486.669000,383.717000,486.584000,383.757000,486.498000,383.796000C486.442000,383.822000,486.386000,383.846000,486.330000,383.871000C486.138000,383.956000,485.946000,384.037000,485.754000,384.115000C485.730000,384.124000,485.708000,384.134000,485.684000,384.143000C485.606000,384.174000,485.528000,384.203000,485.450000,384.232000C485.380000,384.259000,485.310000,384.285000,485.240000,384.311000C485.162000,384.339000,485.084000,384.366000,485.006000,384.393000C484.931000,384.418000,484.856000,384.444000,484.781000,384.468000C484.706000,384.493000,484.631000,384.518000,484.555000,384.541000C484.454000,384.573000,484.351000,384.603000,484.249000,384.632000C484.160000,384.658000,484.072000,384.683000,483.983000,384.707000C483.878000,384.735000,483.772000,384.763000,483.665000,384.789000C483.600000,384.805000,483.535000,384.820000,483.471000,384.835000C483.368000,384.859000,483.265000,384.882000,483.161000,384.904000C483.104000,384.916000,483.047000,384.928000,482.990000,384.940000C482.836000,384.970000,482.680000,384.999000,482.522000,385.025000C482.484000,385.031000,482.445000,385.036000,482.406000,385.043000C482.275000,385.063000,482.144000,385.082000,482.011000,385.099000C481.963000,385.105000,481.914000,385.111000,481.866000,385.117000C481.698000,385.137000,481.530000,385.155000,481.360000,385.169000L481.357000,385.169000C481.189000,385.183000,481.021000,385.192000,480.854000,385.200000C480.785000,385.204000,480.715000,385.206000,480.646000,385.208000C480.547000,385.211000,480.448000,385.214000,480.349000,385.215000C480.275000,385.216000,480.202000,385.217000,480.128000,385.217000C479.981000,385.217000,479.834000,385.215000,479.687000,385.211000C479.606000,385.209000,479.525000,385.205000,479.444000,385.201000C479.361000,385.198000,479.277000,385.194000,479.193000,385.189000C479.105000,385.184000,479.016000,385.178000,478.927000,385.171000C478.851000,385.166000,478.775000,385.159000,478.700000,385.152000C478.535000,385.138000,478.369000,385.121000,478.203000,385.102000C478.137000,385.094000,478.071000,385.087000,478.006000,385.079000C477.908000,385.067000,477.810000,385.052000,477.712000,385.038000C477.646000,385.029000,477.580000,385.020000,477.514000,385.010000C477.416000,384.994000,477.317000,384.979000,477.219000,384.962000C477.156000,384.951000,477.093000,384.940000,477.030000,384.929000C476.929000,384.911000,476.828000,384.893000,476.726000,384.873000L476.672000,384.862000C476.442000,384.817000,476.210000,384.767000,475.976000,384.712000C475.921000,384.699000,475.866000,384.687000,475.812000,384.674000C475.709000,384.649000,475.606000,384.623000,475.503000,384.597000C475.444000,384.582000,475.385000,384.566000,475.325000,384.551000C475.223000,384.524000,475.120000,384.496000,475.017000,384.467000C474.961000,384.452000,474.905000,384.436000,474.850000,384.420000C474.743000,384.389000,474.637000,384.358000,474.530000,384.326000L474.500000,384.317000C473.510000,383.109000,472.805000,381.648000,472.449000,380.064000C472.111000,378.600000,472.168000,377.058000,472.611000,375.629000L472.640000,375.613000C472.725000,375.567000,472.810000,375.523000,472.895000,375.478000C472.947000,375.451000,472.999000,375.425000,473.051000,375.398000C473.134000,375.356000,473.217000,375.314000,473.301000,375.273000C473.356000,375.246000,473.411000,375.220000,473.467000,375.194000C473.551000,375.154000,473.635000,375.114000,473.719000,375.075000C473.773000,375.051000,473.828000,375.027000,473.883000,375.003000C474.053000,374.927000,474.224000,374.854000,474.396000,374.785000C474.439000,374.767000,474.481000,374.749000,474.525000,374.732000C474.609000,374.698000,474.693000,374.667000,474.777000,374.635000C474.839000,374.612000,474.901000,374.589000,474.964000,374.566000C475.048000,374.535000,475.131000,374.506000,475.215000,374.477000C475.281000,374.454000,475.347000,374.432000,475.414000,374.410000C475.496000,374.383000,475.579000,374.356000,475.662000,374.330000C475.762000,374.299000,475.863000,374.269000,475.964000,374.240000C476.071000,374.209000,476.177000,374.180000,476.284000,374.151000C476.365000,374.129000,476.445000,374.108000,476.526000,374.088000C476.603000,374.069000,476.679000,374.051000,476.756000,374.033000C476.845000,374.012000,476.935000,373.993000,477.025000,373.973000C477.092000,373.959000,477.159000,373.944000,477.226000,373.931000C477.370000,373.902000,477.516000,373.875000,477.662000,373.851000C477.727000,373.840000,477.793000,373.831000,477.858000,373.821000C477.961000,373.805000,478.064000,373.790000,478.168000,373.776000C478.232000,373.768000,478.295000,373.759000,478.358000,373.752000C478.525000,373.732000,478.693000,373.714000,478.863000,373.700000L478.865000,373.700000C479.035000,373.686000,479.205000,373.676000,479.375000,373.668000C479.425000,373.666000,479.474000,373.664000,479.524000,373.662000C479.658000,373.657000,479.793000,373.654000,479.928000,373.653000C479.968000,373.653000,480.008000,373.651000,480.048000,373.651000C480.211000,373.651000,480.374000,373.653000,480.536000,373.658000C480.596000,373.660000,480.657000,373.663000,480.717000,373.665000C480.826000,373.669000,480.935000,373.675000,481.043000,373.681000C481.113000,373.685000,481.182000,373.689000,481.252000,373.694000C481.365000,373.702000,481.479000,373.712000,481.592000,373.723000C481.689000,373.731000,481.786000,373.741000,481.884000,373.752000C481.995000,373.764000,482.106000,373.776000,482.216000,373.790000C482.299000,373.801000,482.382000,373.812000,482.465000,373.824000C482.549000,373.836000,482.632000,373.848000,482.715000,373.860000C482.801000,373.874000,482.888000,373.888000,482.975000,373.902000C483.055000,373.915000,483.134000,373.930000,483.213000,373.944000C483.300000,373.960000,483.388000,373.975000,483.476000,373.992000C483.543000,374.005000,483.610000,374.019000,483.677000,374.033000C483.854000,374.069000,484.031000,374.108000,484.209000,374.149000C484.276000,374.164000,484.344000,374.180000,484.412000,374.196000C484.509000,374.219000,484.606000,374.243000,484.703000,374.268000C484.769000,374.285000,484.835000,374.302000,484.901000,374.319000C484.999000,374.345000,485.098000,374.372000,485.197000,374.400000C485.258000,374.417000,485.319000,374.434000,485.380000,374.452000C485.483000,374.481000,485.585000,374.511000,485.688000,374.542000L485.723000,374.552000C486.713000,375.760000,487.418000,377.221000,487.775000,378.805000C488.112000,380.269000,488.056000,381.811000,487.613000,383.240000L487.613000,383.240000ZM493.561000,378.424000C492.384000,379.766000,491.072000,380.955000,489.651000,381.966000C489.743000,380.861000,489.668000,379.747000,489.428000,378.669000C489.178000,377.536000,488.776000,376.452000,488.234000,375.452000C490.064000,376.213000,491.833000,377.146000,493.521000,378.239000C493.536000,378.248000,493.549000,378.261000,493.560000,378.276000C493.570000,378.291000,493.578000,378.309000,493.582000,378.328000C493.587000,378.345000,493.587000,378.362000,493.584000,378.379000C493.580000,378.396000,493.572000,378.412000,493.561000,378.424000L493.561000,378.424000Z" fill="rgb(15,15,15)" stroke="none" stroke-width="1"/><path id="en1yxv51m6k24" d="M478.943000,374.060000C478.326000,374.088000,477.722000,374.272000,477.179000,374.598000C476.635000,374.923000,476.166000,375.382000,475.806000,375.939000C475.446000,376.495000,475.204000,377.136000,475.100000,377.811000C474.996000,378.487000,475.032000,379.180000,475.205000,379.837000C475.558000,381.309000,476.352000,382.603000,477.456000,383.507000C478.561000,384.410000,479.910000,384.870000,481.281000,384.809000C481.898000,384.781000,482.501000,384.596000,483.045000,384.271000C483.588000,383.945000,484.058000,383.487000,484.418000,382.930000C484.778000,382.373000,485.019000,381.733000,485.123000,381.058000C485.227000,380.382000,485.192000,379.689000,485.019000,379.031000C484.666000,377.560000,483.872000,376.266000,482.767000,375.362000C481.663000,374.458000,480.314000,373.999000,478.943000,374.060000ZM480.887000,382.998000C479.978000,383.038000,479.083000,382.734000,478.351000,382.135000C477.619000,381.535000,477.092000,380.677000,476.858000,379.701000C476.743000,379.265000,476.720000,378.806000,476.789000,378.358000C476.858000,377.910000,477.018000,377.485000,477.256000,377.116000C477.495000,376.747000,477.807000,376.443000,478.167000,376.227000C478.527000,376.012000,478.927000,375.890000,479.337000,375.871000C480.246000,375.830000,481.140000,376.135000,481.872000,376.734000C482.605000,377.333000,483.131000,378.191000,483.365000,379.167000C483.480000,379.603000,483.504000,380.063000,483.435000,380.511000C483.366000,380.958000,483.206000,381.383000,482.967000,381.752000C482.728000,382.121000,482.417000,382.425000,482.056000,382.641000C481.696000,382.857000,481.296000,382.979000,480.887000,382.998000L480.887000,382.998000Z" fill="rgb(15,15,15)" stroke="none" stroke-width="1"/><path id="en1yxv51m6k25" d="M497.021000,376.199000C495.553000,371.793000,492.939000,367.970000,489.509000,365.215000C485.599000,361.917000,480.755000,360.279000,475.851000,360.596000C473.812000,360.679000,471.812000,361.240000,469.983000,362.242000C468.153000,363.244000,466.535000,364.664000,465.236000,366.410000C463.936000,368.155000,462.985000,370.186000,462.443000,372.369000C461.902000,374.552000,461.783000,376.837000,462.094000,379.074000C462.131000,379.328000,462.245000,379.559000,462.417000,379.731000C462.589000,379.902000,462.808000,380.004000,463.039000,380.018000C463.072000,380.019000,463.104000,380.019000,463.136000,380.016000C463.232000,380.012000,463.326000,379.985000,463.412000,379.938000C463.498000,379.891000,463.574000,379.824000,463.635000,379.742000C463.696000,379.660000,463.740000,379.564000,463.766000,379.462000C463.791000,379.359000,463.796000,379.252000,463.782000,379.147000C463.500000,377.120000,463.608000,375.049000,464.098000,373.072000C464.589000,371.095000,465.451000,369.255000,466.628000,367.674000C467.806000,366.093000,469.271000,364.806000,470.929000,363.898000C472.586000,362.990000,474.398000,362.482000,476.245000,362.407000C480.688000,362.120000,485.076000,363.604000,488.619000,366.592000C491.726000,369.087000,494.094000,372.550000,495.424000,376.542000C495.504000,376.782000,495.655000,376.985000,495.853000,377.116000C496.052000,377.247000,496.285000,377.299000,496.513000,377.262000C496.616000,377.241000,496.713000,377.195000,496.797000,377.127000C496.881000,377.058000,496.950000,376.970000,496.999000,376.867000C497.048000,376.765000,497.075000,376.652000,497.079000,376.536000C497.083000,376.421000,497.063000,376.305000,497.021000,376.199000Z" fill="rgb(15,15,15)" stroke="none" stroke-width="1"/><path id="en1yxv51m6k26" d="M497.043000,379.702000C496.939000,379.691000,496.835000,379.706000,496.737000,379.747000C496.640000,379.787000,496.552000,379.852000,496.480000,379.936000C496.408000,380.020000,496.355000,380.121000,496.324000,380.231000C496.292000,380.341000,496.284000,380.458000,496.300000,380.572000C496.580000,382.598000,496.471000,384.667000,495.979000,386.643000C495.487000,388.619000,494.625000,390.457000,493.448000,392.037000C492.270000,393.616000,490.805000,394.902000,489.148000,395.809000C487.492000,396.716000,485.681000,397.223000,483.835000,397.299000C479.392000,397.585000,475.004000,396.101000,471.461000,393.114000C468.352000,390.616000,465.982000,387.149000,464.653000,383.154000C464.573000,382.913000,464.422000,382.711000,464.223000,382.579000C464.025000,382.448000,463.793000,382.396000,463.564000,382.433000C463.461000,382.453000,463.364000,382.500000,463.280000,382.568000C463.196000,382.636000,463.127000,382.725000,463.078000,382.827000C463.029000,382.929000,463.002000,383.043000,462.998000,383.158000C462.994000,383.274000,463.013000,383.389000,463.055000,383.495000C464.522000,387.906000,467.138000,391.733000,470.571000,394.490000C474.481000,397.788000,479.325000,399.426000,484.229000,399.110000C486.266000,399.027000,488.265000,398.466000,490.094000,397.465000C491.923000,396.464000,493.540000,395.045000,494.840000,393.301000C496.139000,391.557000,497.091000,389.528000,497.634000,387.347000C498.176000,385.166000,498.297000,382.882000,497.987000,380.646000C497.950000,380.392000,497.837000,380.161000,497.665000,379.989000C497.493000,379.817000,497.274000,379.716000,497.043000,379.702000L497.043000,379.702000Z" fill="rgb(15,15,15)" stroke="none" stroke-width="1"/></g><g id="en1yxv51m6k27" transform="matrix(0.99653168751081 0.08321415616864 -0.08321415616864 0.99653168751081 -3.14243322751707 -42.44660058705503)"><path id="en1yxv51m6k28" d="M448.376000,273.821000C448.486000,274.195000,448.513000,274.593000,448.455000,274.981000C448.422000,275.114000,448.362000,275.237000,448.280000,275.341000C448.198000,275.444000,448.095000,275.526000,447.980000,275.579000C448.267000,275.658000,448.523000,275.837000,448.712000,276.090000C448.932000,276.428000,449.086000,276.814000,449.164000,277.223000L450.101000,281.272000C450.323000,282.234000,450.788000,282.689000,451.497000,282.638000L451.856000,282.612000L452.194000,284.073000L451.562000,284.118000C451.244000,284.157000,450.923000,284.125000,450.617000,284.024000C450.310000,283.923000,450.025000,283.756000,449.777000,283.532000C449.256000,283.004000,448.900000,282.306000,448.761000,281.538000L447.777000,277.285000C447.634000,276.669000,447.348000,276.376000,446.917000,276.407000L446.415000,276.443000L446.072000,274.964000L446.575000,274.928000C447.005000,274.897000,447.149000,274.573000,447.007000,273.957000L446.022000,269.704000C445.801000,269.029000,445.828000,268.284000,446.097000,267.631000C446.257000,267.367000,446.475000,267.153000,446.730000,267.009000C446.986000,266.866000,447.271000,266.798000,447.557000,266.812000L448.188000,266.766000L448.526000,268.227000L448.168000,268.253000C447.459000,268.304000,447.217000,268.810000,447.439000,269.771000L448.376000,273.821000Z" fill="rgb(15,15,15)" stroke="none" stroke-width="1"/><path id="en1yxv51m6k29" d="M455.533000,283.833000C454.680000,282.660000,453.953000,281.381000,453.367000,280.022000C452.710000,278.510000,452.192000,276.929000,451.822000,275.302000C451.448000,273.739000,451.228000,272.134000,451.167000,270.518000C451.103000,269.175000,451.224000,267.828000,451.528000,266.526000L452.834000,266.432000C452.557000,267.795000,452.449000,269.195000,452.512000,270.591000C452.589000,272.150000,452.810000,273.696000,453.171000,275.205000C453.527000,276.772000,454.017000,278.298000,454.634000,279.762000C455.237000,281.172000,455.976000,282.506000,456.839000,283.739000L455.533000,283.833000Z" fill="rgb(15,15,15)" stroke="none" stroke-width="1"/><path id="en1yxv51m6k30" d="M467.513000,282.970000C467.790000,281.607000,467.898000,280.208000,467.835000,278.812000C467.767000,277.252000,467.551000,275.705000,467.190000,274.196000C466.834000,272.628000,466.339000,271.102000,465.712000,269.641000C465.110000,268.230000,464.370000,266.897000,463.508000,265.664000L464.814000,265.570000C465.678000,266.729000,466.409000,268.002000,466.990000,269.361000C467.649000,270.878000,468.168000,272.466000,468.539000,274.099000C468.913000,275.663000,469.133000,277.267000,469.194000,278.883000C469.255000,280.228000,469.128000,281.575000,468.819000,282.876000L467.513000,282.970000Z" fill="rgb(15,15,15)" stroke="none" stroke-width="1"/><path id="en1yxv51m6k31" d="M473.937000,272.959000L474.279000,274.438000L473.791000,274.473000C473.370000,274.503000,473.231000,274.827000,473.373000,275.443000L474.357000,279.696000C474.468000,280.031000,474.516000,280.387000,474.501000,280.743000C474.486000,281.099000,474.407000,281.448000,474.268000,281.770000C474.109000,282.034000,473.891000,282.248000,473.635000,282.392000C473.379000,282.535000,473.095000,282.603000,472.809000,282.589000L472.177000,282.635000L471.839000,281.174000L472.184000,281.149000C472.911000,281.097000,473.163000,280.590000,472.941000,279.629000L472.004000,275.579000C471.893000,275.206000,471.861000,274.810000,471.911000,274.420000C471.943000,274.287000,472.003000,274.164000,472.085000,274.060000C472.168000,273.957000,472.270000,273.875000,472.385000,273.822000C472.103000,273.746000,471.849000,273.573000,471.658000,273.330000C471.444000,272.981000,471.294000,272.590000,471.216000,272.177000L470.279000,268.128000C470.057000,267.166000,469.582000,266.712000,468.854000,266.764000L468.510000,266.789000L468.172000,265.328000L468.803000,265.283000C469.121000,265.244000,469.442000,265.277000,469.749000,265.377000C470.055000,265.478000,470.340000,265.645000,470.588000,265.869000C471.117000,266.392000,471.479000,267.091000,471.619000,267.862000L472.603000,272.115000C472.746000,272.731000,473.027000,273.024000,473.449000,272.994000L473.937000,272.959000Z" fill="rgb(15,15,15)" stroke="none" stroke-width="1"/><path id="en1yxv51m6k32" d="M457.997000,279.541000C457.723000,279.558000,457.453000,279.465000,457.236000,279.278000C456.998000,279.080000,456.829000,278.797000,456.758000,278.477000C456.719000,278.342000,456.708000,278.199000,456.726000,278.058000C456.744000,277.918000,456.791000,277.784000,456.863000,277.667000C456.930000,277.553000,457.021000,277.460000,457.127000,277.394000C457.234000,277.328000,457.354000,277.292000,457.476000,277.288000C457.746000,277.270000,458.012000,277.364000,458.223000,277.552000C458.453000,277.748000,458.615000,278.025000,458.682000,278.338000C458.722000,278.478000,458.735000,278.626000,458.718000,278.772000C458.701000,278.917000,458.656000,279.057000,458.585000,279.181000C458.521000,279.289000,458.434000,279.379000,458.331000,279.441000C458.229000,279.504000,458.114000,279.538000,457.997000,279.541000L457.997000,279.541000Z" fill="rgb(15,15,15)" stroke="none" stroke-width="1"/><path id="en1yxv51m6k33" d="M461.249000,279.307000C460.975000,279.324000,460.705000,279.231000,460.488000,279.044000C460.250000,278.846000,460.081000,278.563000,460.010000,278.243000C459.971000,278.108000,459.960000,277.965000,459.978000,277.824000C459.996000,277.684000,460.043000,277.550000,460.115000,277.433000C460.182000,277.319000,460.273000,277.226000,460.379000,277.160000C460.486000,277.094000,460.606000,277.058000,460.728000,277.054000C460.998000,277.036000,461.264000,277.130000,461.475000,277.318000C461.705000,277.514000,461.867000,277.791000,461.934000,278.104000C461.974000,278.244000,461.987000,278.392000,461.970000,278.537000C461.953000,278.683000,461.908000,278.823000,461.837000,278.947000C461.773000,279.055000,461.685000,279.144000,461.583000,279.207000C461.481000,279.270000,461.366000,279.304000,461.249000,279.307000Z" fill="rgb(15,15,15)" stroke="none" stroke-width="1"/><path id="en1yxv51m6k34" d="M464.501000,279.073000C464.227000,279.090000,463.957000,278.997000,463.740000,278.810000C463.502000,278.612000,463.333000,278.329000,463.262000,278.009000C463.223000,277.874000,463.212000,277.731000,463.230000,277.590000C463.248000,277.450000,463.295000,277.316000,463.367000,277.199000C463.434000,277.085000,463.525000,276.992000,463.631000,276.926000C463.738000,276.860000,463.858000,276.824000,463.980000,276.820000C464.250000,276.802000,464.516000,276.896000,464.727000,277.084000C464.957000,277.279000,465.119000,277.557000,465.186000,277.870000C465.226000,278.010000,465.239000,278.158000,465.222000,278.303000C465.205000,278.449000,465.160000,278.589000,465.089000,278.713000C465.025000,278.821000,464.937000,278.910000,464.835000,278.973000C464.733000,279.036000,464.618000,279.070000,464.501000,279.073000Z" fill="rgb(15,15,15)" stroke="none" stroke-width="1"/><path id="en1yxv51m6k35" d="M424.316000,228.895000C424.263000,228.726000,424.246000,228.546000,424.266000,228.368000C424.287000,228.191000,424.344000,228.021000,424.434000,227.872000C424.524000,227.724000,424.643000,227.600000,424.783000,227.512000C424.923000,227.423000,425.080000,227.372000,425.241000,227.362000L435.315000,226.637000C435.678000,226.634000,436.032000,226.765000,436.320000,227.010000C436.609000,227.255000,436.816000,227.599000,436.908000,227.989000L439.578000,239.527000C439.631000,239.696000,439.648000,239.876000,439.628000,240.054000C439.607000,240.231000,439.550000,240.401000,439.460000,240.549000C439.370000,240.698000,439.251000,240.822000,439.110000,240.910000C438.970000,240.999000,438.814000,241.050000,438.653000,241.060000L428.579000,241.785000C428.216000,241.788000,427.862000,241.657000,427.574000,241.412000C427.285000,241.167000,427.078000,240.823000,426.986000,240.433000L424.316000,228.895000ZM425.575000,228.804000L428.245000,240.342000L438.319000,239.617000L435.649000,228.080000L425.575000,228.804000Z" fill="rgb(15,15,15)" stroke="none" stroke-width="1"/><path id="en1yxv51m6k36" d="M443.204000,227.536000C443.151000,227.367000,443.134000,227.187000,443.155000,227.009000C443.175000,226.832000,443.233000,226.662000,443.323000,226.513000C443.412000,226.365000,443.532000,226.241000,443.672000,226.153000C443.812000,226.064000,443.969000,226.013000,444.130000,226.003000L454.204000,225.278000C454.567000,225.275000,454.921000,225.406000,455.209000,225.651000C455.497000,225.896000,455.704000,226.240000,455.797000,226.630000L458.467000,238.168000C458.520000,238.337000,458.537000,238.517000,458.516000,238.694000C458.496000,238.872000,458.438000,239.042000,458.349000,239.190000C458.259000,239.339000,458.139000,239.462000,457.999000,239.551000C457.859000,239.639000,457.702000,239.691000,457.541000,239.701000L447.468000,240.425000C447.104000,240.429000,446.751000,240.297000,446.462000,240.053000C446.174000,239.808000,445.967000,239.463000,445.875000,239.074000L443.204000,227.536000ZM444.464000,227.445000L447.134000,238.983000L457.208000,238.258000L454.537000,226.720000L444.464000,227.445000Z" fill="rgb(15,15,15)" stroke="none" stroke-width="1"/><path id="en1yxv51m6k37" d="M462.092000,226.177000C462.039000,226.008000,462.022000,225.827000,462.043000,225.650000C462.063000,225.473000,462.120000,225.303000,462.210000,225.154000C462.300000,225.005000,462.420000,224.882000,462.560000,224.793000C462.700000,224.705000,462.857000,224.654000,463.018000,224.644000L473.091000,223.919000C473.454000,223.916000,473.808000,224.047000,474.097000,224.292000C474.385000,224.537000,474.592000,224.881000,474.684000,225.271000L477.354000,236.809000C477.407000,236.977000,477.424000,237.158000,477.404000,237.335000C477.383000,237.513000,477.326000,237.682000,477.236000,237.831000C477.146000,237.980000,477.027000,238.103000,476.887000,238.192000C476.747000,238.280000,476.590000,238.332000,476.429000,238.341000L466.355000,239.066000C465.992000,239.069000,465.638000,238.938000,465.350000,238.693000C465.061000,238.449000,464.855000,238.104000,464.762000,237.715000L462.092000,226.177000ZM463.351000,226.086000L466.021000,237.624000L476.095000,236.899000L473.425000,225.361000L463.351000,226.086000Z" fill="rgb(15,15,15)" stroke="none" stroke-width="1"/><path id="en1yxv51m6k38" d="M448.878000,229.766000L452.134000,232.288000C452.204000,232.332000,452.266000,232.391000,452.315000,232.461000C452.364000,232.532000,452.399000,232.613000,452.419000,232.700000C452.439000,232.786000,452.443000,232.876000,452.431000,232.965000C452.419000,233.053000,452.391000,233.138000,452.348000,233.213000L450.347000,236.113000C450.232000,236.247000,450.076000,236.329000,449.910000,236.341000C449.743000,236.353000,449.579000,236.294000,449.450000,236.178000C449.379000,236.134000,449.318000,236.075000,449.269000,236.004000C449.220000,235.933000,449.184000,235.852000,449.164000,235.766000C449.144000,235.679000,449.140000,235.589000,449.152000,235.501000C449.165000,235.413000,449.193000,235.328000,449.235000,235.252000L450.412000,233.548000L438.395000,234.412000L438.092000,233.103000L450.109000,232.239000L448.195000,230.756000C448.125000,230.713000,448.063000,230.654000,448.014000,230.583000C447.965000,230.512000,447.929000,230.431000,447.909000,230.344000C447.889000,230.258000,447.885000,230.168000,447.898000,230.080000C447.910000,229.991000,447.938000,229.907000,447.981000,229.831000C448.095000,229.697000,448.252000,229.616000,448.418000,229.604000C448.584000,229.592000,448.749000,229.650000,448.878000,229.766000L448.878000,229.766000Z" fill="rgb(15,15,15)" stroke="none" stroke-width="1"/><path id="en1yxv51m6k39" d="M467.347000,228.437000L470.603000,230.959000C470.673000,231.003000,470.734000,231.062000,470.783000,231.132000C470.833000,231.203000,470.868000,231.284000,470.888000,231.371000C470.908000,231.457000,470.912000,231.547000,470.900000,231.636000C470.888000,231.724000,470.860000,231.809000,470.817000,231.884000L468.816000,234.784000C468.701000,234.918000,468.545000,235,468.378000,235.012000C468.212000,235.024000,468.048000,234.965000,467.918000,234.849000C467.848000,234.805000,467.787000,234.746000,467.738000,234.675000C467.689000,234.604000,467.653000,234.523000,467.633000,234.437000C467.613000,234.350000,467.609000,234.260000,467.621000,234.172000C467.633000,234.084000,467.662000,233.999000,467.704000,233.923000L468.880000,232.219000L456.863000,233.083000L456.561000,231.774000L468.578000,230.910000L466.664000,229.427000C466.593000,229.384000,466.532000,229.325000,466.483000,229.254000C466.434000,229.183000,466.398000,229.102000,466.378000,229.015000C466.358000,228.929000,466.354000,228.839000,466.366000,228.751000C466.379000,228.662000,466.407000,228.578000,466.449000,228.502000C466.564000,228.368000,466.720000,228.287000,466.887000,228.275000C467.053000,228.263000,467.217000,228.321000,467.347000,228.437000L467.347000,228.437000Z" fill="rgb(15,15,15)" stroke="none" stroke-width="1"/><path id="en1yxv51m6k40" d="M435.064000,235.508000L432.001000,232.668000C431.949000,232.604000,431.884000,232.554000,431.812000,232.521000C431.740000,232.488000,431.662000,232.474000,431.584000,232.480000C431.506000,232.486000,431.431000,232.511000,431.363000,232.553000C431.295000,232.596000,431.237000,232.655000,431.193000,232.726000L429.523000,235.907000C429.453000,236.083000,429.438000,236.280000,429.481000,236.467000C429.524000,236.653000,429.623000,236.818000,429.761000,236.935000C429.813000,236.999000,429.877000,237.049000,429.949000,237.082000C430.022000,237.114000,430.100000,237.128000,430.177000,237.123000C430.255000,237.117000,430.331000,237.092000,430.398000,237.050000C430.466000,237.007000,430.524000,236.948000,430.569000,236.877000L431.550000,235.007000L434.535000,247.905000L435.678000,247.823000L432.693000,234.925000L434.494000,236.594000C434.546000,236.658000,434.611000,236.709000,434.683000,236.741000C434.755000,236.774000,434.833000,236.788000,434.911000,236.782000C434.989000,236.777000,435.064000,236.752000,435.132000,236.709000C435.200000,236.666000,435.258000,236.607000,435.302000,236.536000C435.372000,236.360000,435.387000,236.163000,435.343000,235.976000C435.300000,235.790000,435.202000,235.625000,435.064000,235.508000L435.064000,235.508000Z" fill="rgb(15,15,15)" stroke="none" stroke-width="1"/><path id="en1yxv51m6k41" d="M482.184000,257.673000C482.237000,257.842000,482.254000,258.022000,482.233000,258.200000C482.213000,258.377000,482.155000,258.547000,482.065000,258.695000C481.976000,258.844000,481.856000,258.968000,481.716000,259.056000C481.576000,259.145000,481.419000,259.196000,481.258000,259.206000L471.184000,259.931000C470.821000,259.934000,470.467000,259.803000,470.179000,259.558000C469.890000,259.313000,469.684000,258.969000,469.591000,258.579000L466.921000,247.041000C466.868000,246.872000,466.851000,246.692000,466.872000,246.514000C466.892000,246.337000,466.950000,246.167000,467.039000,246.018000C467.129000,245.870000,467.249000,245.746000,467.389000,245.658000C467.529000,245.569000,467.686000,245.518000,467.847000,245.508000L477.920000,244.783000C478.284000,244.780000,478.637000,244.911000,478.926000,245.156000C479.214000,245.401000,479.421000,245.745000,479.513000,246.135000L482.184000,257.673000ZM480.924000,257.763000L478.254000,246.226000L468.180000,246.950000L470.851000,258.488000L480.924000,257.763000Z" fill="rgb(15,15,15)" stroke="none" stroke-width="1"/><path id="en1yxv51m6k42" d="M463.295000,259.032000C463.348000,259.201000,463.365000,259.381000,463.344000,259.559000C463.324000,259.736000,463.267000,259.906000,463.177000,260.055000C463.087000,260.203000,462.967000,260.327000,462.827000,260.415000C462.687000,260.504000,462.530000,260.555000,462.369000,260.565000L452.296000,261.290000C451.933000,261.293000,451.579000,261.162000,451.290000,260.917000C451.002000,260.672000,450.795000,260.328000,450.703000,259.938000L448.033000,248.400000C447.980000,248.231000,447.963000,248.051000,447.983000,247.874000C448.004000,247.696000,448.061000,247.526000,448.151000,247.378000C448.240000,247.229000,448.360000,247.106000,448.500000,247.017000C448.640000,246.928000,448.797000,246.877000,448.958000,246.867000L459.032000,246.142000C459.395000,246.139000,459.749000,246.270000,460.037000,246.515000C460.326000,246.760000,460.532000,247.104000,460.625000,247.494000L463.295000,259.032000ZM462.036000,259.123000L459.366000,247.585000L449.292000,248.310000L451.962000,259.848000L462.036000,259.123000Z" fill="rgb(15,15,15)" stroke="none" stroke-width="1"/><path id="en1yxv51m6k43" d="M444.407000,260.391000C444.460000,260.560000,444.477000,260.740000,444.457000,260.918000C444.436000,261.095000,444.379000,261.265000,444.289000,261.414000C444.199000,261.562000,444.080000,261.686000,443.940000,261.774000C443.799000,261.863000,443.643000,261.914000,443.482000,261.924000L433.408000,262.649000C433.045000,262.652000,432.691000,262.521000,432.403000,262.276000C432.114000,262.031000,431.907000,261.687000,431.815000,261.297000L429.145000,249.759000C429.092000,249.590000,429.075000,249.410000,429.095000,249.233000C429.116000,249.055000,429.173000,248.885000,429.263000,248.737000C429.353000,248.588000,429.472000,248.465000,429.612000,248.376000C429.753000,248.288000,429.909000,248.236000,430.070000,248.227000L440.144000,247.502000C440.507000,247.499000,440.861000,247.630000,441.149000,247.874000C441.438000,248.119000,441.645000,248.464000,441.737000,248.853000L444.407000,260.391000ZM443.148000,260.482000L440.478000,248.944000L430.404000,249.669000L433.074000,261.207000L443.148000,260.482000Z" fill="rgb(15,15,15)" stroke="none" stroke-width="1"/><path id="en1yxv51m6k44" d="M457.621000,256.802000L454.365000,254.280000C454.294000,254.236000,454.233000,254.177000,454.184000,254.106000C454.135000,254.036000,454.099000,253.955000,454.079000,253.868000C454.059000,253.782000,454.055000,253.691000,454.067000,253.603000C454.080000,253.515000,454.108000,253.430000,454.150000,253.354000L456.152000,250.455000C456.266000,250.321000,456.423000,250.239000,456.589000,250.227000C456.755000,250.215000,456.920000,250.274000,457.049000,250.390000C457.119000,250.434000,457.181000,250.493000,457.230000,250.564000C457.279000,250.634000,457.315000,250.716000,457.335000,250.802000C457.355000,250.889000,457.359000,250.979000,457.346000,251.067000C457.334000,251.155000,457.306000,251.240000,457.263000,251.316000L456.087000,253.020000L468.104000,252.155000L468.407000,253.464000L456.390000,254.329000L458.304000,255.811000C458.374000,255.855000,458.435000,255.914000,458.485000,255.985000C458.534000,256.056000,458.569000,256.137000,458.589000,256.223000C458.609000,256.310000,458.613000,256.400000,458.601000,256.488000C458.589000,256.577000,458.561000,256.661000,458.518000,256.737000C458.403000,256.871000,458.247000,256.952000,458.081000,256.964000C457.914000,256.976000,457.750000,256.918000,457.621000,256.802000L457.621000,256.802000Z" fill="rgb(15,15,15)" stroke="none" stroke-width="1"/><path id="en1yxv51m6k45" d="M439.153000,258.131000L435.897000,255.609000C435.827000,255.565000,435.765000,255.506000,435.716000,255.435000C435.667000,255.365000,435.632000,255.284000,435.611000,255.197000C435.591000,255.111000,435.587000,255.020000,435.600000,254.932000C435.612000,254.844000,435.640000,254.759000,435.683000,254.683000L437.684000,251.784000C437.799000,251.649000,437.955000,251.568000,438.121000,251.556000C438.288000,251.544000,438.452000,251.602000,438.581000,251.719000C438.652000,251.763000,438.713000,251.822000,438.762000,251.893000C438.811000,251.963000,438.847000,252.044000,438.867000,252.131000C438.887000,252.217000,438.891000,252.308000,438.879000,252.396000C438.866000,252.484000,438.838000,252.569000,438.796000,252.645000L437.619000,254.349000L449.636000,253.484000L449.939000,254.793000L437.922000,255.658000L439.836000,257.140000C439.906000,257.184000,439.968000,257.243000,440.017000,257.314000C440.066000,257.385000,440.101000,257.466000,440.121000,257.552000C440.141000,257.639000,440.145000,257.729000,440.133000,257.817000C440.121000,257.906000,440.093000,257.990000,440.050000,258.066000C439.935000,258.200000,439.779000,258.281000,439.613000,258.293000C439.446000,258.305000,439.282000,258.247000,439.153000,258.131000L439.153000,258.131000Z" fill="rgb(15,15,15)" stroke="none" stroke-width="1"/><path id="en1yxv51m6k46" d="M471.435000,251.060000L474.499000,253.900000C474.551000,253.964000,474.616000,254.014000,474.688000,254.047000C474.760000,254.079000,474.838000,254.093000,474.915000,254.088000C474.993000,254.082000,475.069000,254.057000,475.137000,254.015000C475.204000,253.972000,475.263000,253.913000,475.307000,253.842000L476.977000,250.661000C477.047000,250.485000,477.061000,250.288000,477.018000,250.101000C476.975000,249.915000,476.877000,249.750000,476.739000,249.633000C476.687000,249.569000,476.622000,249.519000,476.550000,249.486000C476.478000,249.453000,476.400000,249.439000,476.322000,249.445000C476.244000,249.451000,476.169000,249.476000,476.101000,249.518000C476.033000,249.561000,475.975000,249.620000,475.931000,249.691000L474.949000,251.561000L471.964000,238.663000L470.821000,238.745000L473.806000,251.643000L472.005000,249.974000C471.953000,249.909000,471.889000,249.859000,471.816000,249.827000C471.744000,249.794000,471.666000,249.780000,471.589000,249.786000C471.511000,249.791000,471.435000,249.816000,471.368000,249.859000C471.300000,249.902000,471.242000,249.961000,471.197000,250.032000C471.127000,250.208000,471.113000,250.405000,471.156000,250.591000C471.199000,250.778000,471.297000,250.943000,471.435000,251.060000L471.435000,251.060000Z" fill="rgb(15,15,15)" stroke="none" stroke-width="1"/></g><g id="en1yxv51m6k47" transform="matrix(0.99750643400063 0.07057559158347 -0.07057559158347 0.99750643400063 -1.11972239948318 -33.78897472605796)"><path id="en1yxv51m6k48" d="M443.695000,118.505000L433.806000,119.028000L431.438000,108.985000L441.327000,108.461000L443.695000,118.505000ZM435.059000,117.267000L441.652000,116.918000L440.074000,110.223000L433.481000,110.572000L435.059000,117.267000Z" fill="rgb(15,15,15)" stroke="none" stroke-width="1"/><path id="en1yxv51m6k49" d="M403.554000,115.016000L414.472000,114.438000L414.842000,116.007000L403.924000,116.585000L403.554000,115.016000Z" fill="rgb(15,15,15)" stroke="none" stroke-width="1"/><path id="en1yxv51m6k50" d="M402.765000,111.668000L413.683000,111.090000L414.053000,112.659000L403.135000,113.237000L402.765000,111.668000Z" fill="rgb(15,15,15)" stroke="none" stroke-width="1"/><path id="en1yxv51m6k51" d="M400.816000,103.403000L420.800000,102.345000L421.170000,103.915000L401.186000,104.973000L400.816000,103.403000Z" fill="rgb(15,15,15)" stroke="none" stroke-width="1"/><path id="en1yxv51m6k52" d="M437.693000,136.041000C437.759000,136.269000,437.890000,136.466000,438.067000,136.603000C438.243000,136.740000,438.455000,136.810000,438.671000,136.801000L444.301000,136.503000C444.395000,136.507000,444.489000,136.487000,444.575000,136.443000C444.661000,136.399000,444.736000,136.333000,444.795000,136.251000C444.853000,136.169000,444.894000,136.072000,444.912000,135.970000C444.930000,135.867000,444.927000,135.761000,444.901000,135.660000C444.896000,135.639000,444.891000,135.619000,444.885000,135.600000C443.554000,130.561000,440.686000,126.192000,436.772000,123.242000C436.710000,123.179000,436.641000,123.125000,436.566000,123.082000C432.559000,119.949000,427.740000,118.349000,422.840000,118.526000C420.693000,118.557000,418.577000,119.098000,416.634000,120.112000C414.691000,121.126000,412.966000,122.589000,411.575000,124.404000C411.549000,124.429000,411.525000,124.457000,411.504000,124.487000C411.483000,124.517000,411.464000,124.549000,411.449000,124.583000C410.204000,126.407000,409.361000,128.530000,408.989000,130.781000C408.616000,133.032000,408.724000,135.348000,409.304000,137.544000C409.370000,137.772000,409.501000,137.969000,409.678000,138.106000C409.854000,138.243000,410.066000,138.313000,410.281000,138.304000L415.910000,138.006000C416.004000,138.010000,416.098000,137.990000,416.184000,137.946000C416.270000,137.902000,416.345000,137.836000,416.404000,137.754000C416.462000,137.672000,416.502000,137.575000,416.521000,137.473000C416.539000,137.370000,416.536000,137.264000,416.510000,137.163000C415.112000,131.231000,418.726000,126.154000,424.566000,125.845000C430.406000,125.536000,436.295000,130.110000,437.693000,136.041000ZM416.888000,127.743000L413.335000,124.983000C415.707000,122.158000,418.961000,120.443000,422.434000,120.190000L423.405000,124.311000C420.930000,124.540000,418.614000,125.760000,416.888000,127.743000L416.888000,127.743000ZM424.012000,120.107000C427.959000,120.142000,431.814000,121.435000,435.119000,123.830000L432.938000,126.894000C430.555000,125.217000,427.804000,124.295000,424.983000,124.227000L424.012000,120.107000ZM439.057000,135.158000C438.145000,132.299000,436.499000,129.799000,434.321000,127.968000L436.502000,124.904000C439.582000,127.418000,441.890000,130.923000,443.113000,134.943000L439.057000,135.158000L439.057000,135.158000ZM414.768000,136.444000L410.712000,136.658000C410.339000,134.870000,410.304000,133.015000,410.609000,131.211000C410.915000,129.406000,411.554000,127.692000,412.486000,126.175000L416.039000,128.935000C415.392000,130.032000,414.947000,131.260000,414.729000,132.549000C414.511000,133.837000,414.524000,135.161000,414.768000,136.444000L414.768000,136.444000Z" fill="rgb(15,15,15)" stroke="none" stroke-width="1"/><path id="en1yxv51m6k53" d="M432.214000,130.928000L428.993000,135.453000C429.215000,135.753000,429.377000,136.102000,429.469000,136.477000C429.545000,136.779000,429.556000,137.098000,429.501000,137.406000C429.445000,137.714000,429.325000,138.003000,429.149000,138.250000C428.974000,138.497000,428.748000,138.694000,428.490000,138.825000C428.233000,138.956000,427.951000,139.018000,427.668000,139.006000C427.023000,139.032000,426.387000,138.823000,425.858000,138.412000C425.328000,138.001000,424.934000,137.409000,424.735000,136.727000C424.658000,136.425000,424.647000,136.106000,424.703000,135.798000C424.758000,135.490000,424.879000,135.201000,425.054000,134.954000C425.230000,134.707000,425.456000,134.510000,425.713000,134.379000C425.970000,134.247000,426.252000,134.185000,426.535000,134.198000C426.901000,134.181000,427.266000,134.243000,427.610000,134.379000L430.831000,129.854000C430.978000,129.692000,431.173000,129.596000,431.379000,129.586000C431.585000,129.575000,431.788000,129.649000,431.947000,129.794000C432.034000,129.847000,432.110000,129.919000,432.171000,130.005000C432.232000,130.092000,432.276000,130.191000,432.301000,130.297000C432.326000,130.403000,432.331000,130.514000,432.317000,130.622000C432.302000,130.731000,432.267000,130.835000,432.214000,130.928000L432.214000,130.928000ZM427.891000,136.560000C427.824000,136.333000,427.693000,136.136000,427.516000,135.999000C427.340000,135.862000,427.128000,135.792000,426.913000,135.801000C426.819000,135.797000,426.725000,135.817000,426.639000,135.861000C426.553000,135.905000,426.478000,135.971000,426.419000,136.053000C426.361000,136.135000,426.321000,136.231000,426.302000,136.334000C426.284000,136.437000,426.287000,136.543000,426.313000,136.644000C426.379000,136.871000,426.511000,137.068000,426.687000,137.205000C426.864000,137.342000,427.075000,137.412000,427.291000,137.403000C427.385000,137.408000,427.479000,137.387000,427.565000,137.343000C427.650000,137.299000,427.726000,137.234000,427.784000,137.151000C427.843000,137.069000,427.883000,136.973000,427.901000,136.870000C427.920000,136.767000,427.916000,136.661000,427.891000,136.560000L427.891000,136.560000Z" fill="rgb(15,15,15)" stroke="none" stroke-width="1"/><path id="en1yxv51m6k54" d="M438.826000,101.616000C438.725000,101.612000,438.625000,101.634000,438.534000,101.681000C438.442000,101.727000,438.362000,101.798000,438.300000,101.885000C438.237000,101.973000,438.194000,102.076000,438.175000,102.185000C438.155000,102.295000,438.159000,102.408000,438.186000,102.516000C438.257000,102.758000,438.397000,102.968000,438.585000,103.115000C438.773000,103.261000,438.999000,103.335000,439.229000,103.326000C439.330000,103.330000,439.430000,103.308000,439.521000,103.262000C439.613000,103.215000,439.693000,103.145000,439.755000,103.057000C439.818000,102.969000,439.861000,102.867000,439.880000,102.757000C439.900000,102.647000,439.896000,102.534000,439.869000,102.427000C439.798000,102.184000,439.658000,101.974000,439.470000,101.828000C439.282000,101.682000,439.056000,101.607000,438.826000,101.616000L438.826000,101.616000Z" fill="rgb(15,15,15)" stroke="none" stroke-width="1"/><path id="en1yxv51m6k55" d="M430.200000,102.073000C430.099000,102.069000,429.999000,102.091000,429.908000,102.137000C429.816000,102.184000,429.736000,102.254000,429.674000,102.342000C429.611000,102.430000,429.568000,102.532000,429.549000,102.642000C429.529000,102.752000,429.533000,102.865000,429.560000,102.972000C429.631000,103.215000,429.771000,103.425000,429.959000,103.571000C430.147000,103.718000,430.373000,103.792000,430.603000,103.783000C430.704000,103.787000,430.804000,103.765000,430.895000,103.718000C430.987000,103.672000,431.067000,103.602000,431.129000,103.514000C431.192000,103.426000,431.235000,103.323000,431.254000,103.214000C431.274000,103.104000,431.270000,102.991000,431.243000,102.883000C431.172000,102.641000,431.032000,102.431000,430.844000,102.284000C430.656000,102.138000,430.430000,102.064000,430.200000,102.073000Z" fill="rgb(15,15,15)" stroke="none" stroke-width="1"/><path id="en1yxv51m6k56" d="M434.512000,101.845000C434.412000,101.840000,434.312000,101.862000,434.220000,101.909000C434.129000,101.956000,434.048000,102.026000,433.986000,102.114000C433.924000,102.201000,433.881000,102.304000,433.861000,102.414000C433.841000,102.523000,433.845000,102.636000,433.872000,102.744000C433.943000,102.987000,434.083000,103.197000,434.272000,103.343000C434.460000,103.489000,434.686000,103.563000,434.915000,103.554000C435.016000,103.559000,435.116000,103.537000,435.208000,103.490000C435.299000,103.443000,435.379000,103.373000,435.442000,103.285000C435.504000,103.198000,435.547000,103.095000,435.567000,102.985000C435.587000,102.876000,435.583000,102.763000,435.556000,102.655000C435.485000,102.412000,435.345000,102.202000,435.156000,102.056000C434.968000,101.910000,434.742000,101.836000,434.512000,101.845000L434.512000,101.845000Z" fill="rgb(15,15,15)" stroke="none" stroke-width="1"/><path id="en1yxv51m6k57" d="M442.291000,98.241800L394.425000,100.776000C394.331000,100.772000,394.237000,100.792000,394.151000,100.836000C394.065000,100.880000,393.990000,100.945000,393.931000,101.028000C393.873000,101.110000,393.833000,101.206000,393.814000,101.309000C393.796000,101.412000,393.800000,101.518000,393.825000,101.619000L404.151000,145.425000C404.217000,145.652000,404.349000,145.849000,404.525000,145.987000C404.702000,146.124000,404.914000,146.193000,405.129000,146.184000L452.994000,143.650000C453.089000,143.654000,453.182000,143.634000,453.268000,143.590000C453.354000,143.546000,453.429000,143.481000,453.488000,143.398000C453.547000,143.316000,453.587000,143.220000,453.605000,143.117000C453.624000,143.014000,453.620000,142.908000,453.594000,142.807000L451.579000,134.260000C451.513000,134.032000,451.382000,133.835000,451.205000,133.698000C451.029000,133.561000,450.817000,133.491000,450.602000,133.500000C450.507000,133.496000,450.413000,133.516000,450.327000,133.560000C450.242000,133.604000,450.166000,133.669000,450.108000,133.752000C450.049000,133.834000,450.009000,133.930000,449.990000,134.033000C449.972000,134.136000,449.976000,134.242000,450.001000,134.343000L451.827000,142.089000L405.540000,144.540000L397.103000,108.747000L443.390000,106.297000L449.246000,131.138000C449.312000,131.365000,449.443000,131.563000,449.620000,131.700000C449.796000,131.837000,450.008000,131.906000,450.224000,131.897000C450.318000,131.902000,450.412000,131.881000,450.498000,131.837000C450.584000,131.794000,450.659000,131.728000,450.718000,131.646000C450.776000,131.563000,450.816000,131.467000,450.835000,131.364000C450.853000,131.261000,450.850000,131.155000,450.824000,131.054000L443.268000,99.001400C443.202000,98.773900,443.071000,98.576700,442.894000,98.439600C442.718000,98.302500,442.506000,98.233100,442.291000,98.241800L442.291000,98.241800ZM395.592000,102.337000L424.785000,100.791000L425.918000,105.599000L396.725000,107.145000L395.592000,102.337000ZM427.496000,105.516000L426.363000,100.708000L441.879000,99.886200L443.013000,104.694000L427.496000,105.516000Z" fill="rgb(15,15,15)" stroke="none" stroke-width="1"/></g></g><script><![CDATA[!function(t,n){"object"==typeof exports&&"undefined"!=typeof module?module.exports=n():"function"==typeof define&&define.amd?define(n):(t=t||self).__SVGATOR_PLAYER__=n()}(this,(function(){"use strict";function t(n){return(t="function"==typeof Symbol&&"symbol"==typeof Symbol.iterator?function(t){return typeof t}:function(t){return t&&"function"==typeof Symbol&&t.constructor===Symbol&&t!==Symbol.prototype?"symbol":typeof t})(n)}function n(t,n){if(!(t instanceof n))throw new TypeError("Cannot call a class as a function")}function r(t,n){for(var r=0;r<n.length;r++){var e=n[r];e.enumerable=e.enumerable||!1,e.configurable=!0,"value"in e&&(e.writable=!0),Object.defineProperty(t,e.key,e)}}function e(t,n,e){return n&&r(t.prototype,n),e&&r(t,e),t}var i=1e-5,u=Math.abs;function o(t){return t}function a(t,n,r){var e=1-r;return 3*r*e*(t*e+n*r)+r*r*r}function l(){var t=arguments.length>0&&void 0!==arguments[0]?arguments[0]:0,n=arguments.length>1&&void 0!==arguments[1]?arguments[1]:0,r=arguments.length>2&&void 0!==arguments[2]?arguments[2]:1,e=arguments.length>3&&void 0!==arguments[3]?arguments[3]:1;return t<0||t>1||r<0||r>1?null:u(t-n)<=i&&u(r-e)<=i?o:function(o){if(o<=0)return t>0?o*n/t:0===n&&r>0?o*e/r:0;if(o>=1)return r<1?1+(o-1)*(e-1)/(r-1):1===r&&t<1?1+(o-1)*(n-1)/(t-1):1;for(var l,f=0,s=1;f<s;){var c=a(t,r,l=(f+s)/2);if(u(o-c)<i)break;c<o?f=l:s=l}return a(n,e,l)}}function f(){return 1}function s(t){return 1===t?1:0}function c(){var t=arguments.length>0&&void 0!==arguments[0]?arguments[0]:1,n=arguments.length>1&&void 0!==arguments[1]?arguments[1]:0;if(1===t){if(0===n)return s;if(1===n)return f}var r=1/t;return function(t){return t>=1?1:(t+=n*r)-t%r}}function v(t){var n=arguments.length>1&&void 0!==arguments[1]?arguments[1]:2;if(Number.isInteger(t))return t;var r=Math.pow(10,n);return Math.round(t*r)/r}var h=Math.PI/180;function y(t,n,r){return t>=.5?r:n}function d(t,n,r){return 0===t||n===r?n:t*(r-n)+n}function g(t,n,r){var e=d(t,n,r);return e<=0?0:e}function m(t,n,r){return 0===t?n:1===t?r:{x:d(t,n.x,r.x),y:d(t,n.y,r.y)}}function p(t,n,r){return 0===t?n:1===t?r:{x:g(t,n.x,r.x),y:g(t,n.y,r.y)}}function b(t,n,r){var e=function(t,n,r){return Math.round(d(t,n,r))}(t,n,r);return e<=0?0:e>=255?255:e}function w(t,n,r){return 0===t?n:1===t?r:{r:b(t,n.r,r.r),g:b(t,n.g,r.g),b:b(t,n.b,r.b),a:d(t,null==n.a?1:n.a,null==r.a?1:r.a)}}function A(t,n,r){if(0===t)return n;if(1===t)return r;var e=n.length;if(e!==r.length)return y(t,n,r);for(var i=[],u=0;u<e;u++)i.push(w(t,n[u],r[u]));return i}function x(t,n,r){var e=n.length;if(e!==r.length)return y(t,n,r);for(var i=new Array(e),u=0;u<e;u++)i[u]=d(t,n[u],r[u]);return i}function k(t,n){for(var r=[],e=0;e<t;e++)r.push(n);return r}function S(t,n){if(--n<=0)return t;var r=(t=Object.assign([],t)).length;do{for(var e=0;e<r;e++)t.push(t[e])}while(--n>0);return t}var _=6,M=/\.0+$/g;function I(t){return Number.isInteger(t)?t+"":t.toFixed(_).replace(M,"")}function E(t){var n=arguments.length>1&&void 0!==arguments[1]?arguments[1]:" ";return t&&t.length?t.map(I).join(n):""}function F(t){return I(t.x)+","+I(t.y)}function B(t){return t?null==t.a||t.a>=1?"rgb("+t.r+","+t.g+","+t.b+")":"rgba("+t.r+","+t.g+","+t.b+","+t.a+")":"transparent"}var j={f:null,i:p,u:function(t,n){return function(r){var e=n(r);t.setAttribute("rx",I(e.x)),t.setAttribute("ry",I(e.y))}}},q={f:null,i:function(t,n,r){return 0===t?n:1===t?r:{width:g(t,n.width,r.width),height:g(t,n.height,r.height)}},u:function(t,n){return function(r){var e=n(r);t.setAttribute("width",I(e.width)),t.setAttribute("height",I(e.height))}}},P=Math.sin,O=Math.cos,z=Math.acos,L=Math.asin,C=Math.tan,R=Math.atan2,T=Math.PI/180,V=180/Math.PI,D=Math.sqrt,N=function(){function t(){var r=arguments.length>0&&void 0!==arguments[0]?arguments[0]:1,e=arguments.length>1&&void 0!==arguments[1]?arguments[1]:0,i=arguments.length>2&&void 0!==arguments[2]?arguments[2]:0,u=arguments.length>3&&void 0!==arguments[3]?arguments[3]:1,o=arguments.length>4&&void 0!==arguments[4]?arguments[4]:0,a=arguments.length>5&&void 0!==arguments[5]?arguments[5]:0;n(this,t),this.m=[r,e,i,u,o,a],this.i=null,this.w=null,this.s=null}return e(t,[{key:"point",value:function(t,n){var r=this.m;return{x:r[0]*t+r[2]*n+r[4],y:r[1]*t+r[3]*n+r[5]}}},{key:"translateSelf",value:function(){var t=arguments.length>0&&void 0!==arguments[0]?arguments[0]:0,n=arguments.length>1&&void 0!==arguments[1]?arguments[1]:0;if(!t&&!n)return this;var r=this.m;return r[4]+=r[0]*t+r[2]*n,r[5]+=r[1]*t+r[3]*n,this.w=this.s=this.i=null,this}},{key:"rotateSelf",value:function(){var t=arguments.length>0&&void 0!==arguments[0]?arguments[0]:0;if(t%=360){var n=P(t*=T),r=O(t),e=this.m,i=e[0],u=e[1];e[0]=i*r+e[2]*n,e[1]=u*r+e[3]*n,e[2]=e[2]*r-i*n,e[3]=e[3]*r-u*n,this.w=this.s=this.i=null}return this}},{key:"scaleSelf",value:function(){var t=arguments.length>0&&void 0!==arguments[0]?arguments[0]:1,n=arguments.length>1&&void 0!==arguments[1]?arguments[1]:1;if(1!==t||1!==n){var r=this.m;r[0]*=t,r[1]*=t,r[2]*=n,r[3]*=n,this.w=this.s=this.i=null}return this}},{key:"skewSelf",value:function(t,n){if(n%=360,(t%=360)||n){var r=this.m,e=r[0],i=r[1],u=r[2],o=r[3];t&&(t=C(t*T),r[2]+=e*t,r[3]+=i*t),n&&(n=C(n*T),r[0]+=u*n,r[1]+=o*n),this.w=this.s=this.i=null}return this}},{key:"resetSelf",value:function(){var t=arguments.length>0&&void 0!==arguments[0]?arguments[0]:1,n=arguments.length>1&&void 0!==arguments[1]?arguments[1]:0,r=arguments.length>2&&void 0!==arguments[2]?arguments[2]:0,e=arguments.length>3&&void 0!==arguments[3]?arguments[3]:1,i=arguments.length>4&&void 0!==arguments[4]?arguments[4]:0,u=arguments.length>5&&void 0!==arguments[5]?arguments[5]:0,o=this.m;return o[0]=t,o[1]=n,o[2]=r,o[3]=e,o[4]=i,o[5]=u,this.w=this.s=this.i=null,this}},{key:"recomposeSelf",value:function(){var t=arguments.length>0&&void 0!==arguments[0]?arguments[0]:null,n=arguments.length>1&&void 0!==arguments[1]?arguments[1]:null,r=arguments.length>2&&void 0!==arguments[2]?arguments[2]:null,e=arguments.length>3&&void 0!==arguments[3]?arguments[3]:null,i=arguments.length>4&&void 0!==arguments[4]?arguments[4]:null;return this.isIdentity||this.resetSelf(),t&&(t.x||t.y)&&this.translateSelf(t.x,t.y),n&&this.rotateSelf(n),r&&(r.x&&this.skewSelf(r.x,0),r.y&&this.skewSelf(0,r.y)),!e||1===e.x&&1===e.y||this.scaleSelf(e.x,e.y),i&&(i.x||i.y)&&this.translateSelf(i.x,i.y),this}},{key:"decompose",value:function(){var t=arguments.length>0&&void 0!==arguments[0]?arguments[0]:0,n=arguments.length>1&&void 0!==arguments[1]?arguments[1]:0,r=this.m,e=r[0]*r[0]+r[1]*r[1],i=[[r[0],r[1]],[r[2],r[3]]],u=D(e);if(0===u)return{origin:{x:r[4],y:r[5]},translate:{x:t,y:n},scale:{x:0,y:0},skew:{x:0,y:0},rotate:0};i[0][0]/=u,i[0][1]/=u;var o=r[0]*r[3]-r[1]*r[2]<0;o&&(u=-u);var a=i[0][0]*i[1][0]+i[0][1]*i[1][1];i[1][0]-=i[0][0]*a,i[1][1]-=i[0][1]*a;var l=D(i[1][0]*i[1][0]+i[1][1]*i[1][1]);if(0===l)return{origin:{x:r[4],y:r[5]},translate:{x:t,y:n},scale:{x:u,y:0},skew:{x:0,y:0},rotate:0};i[1][0]/=l,i[1][1]/=l,a/=l;var f=0;return i[1][1]<0?(f=z(i[1][1])*V,i[0][1]<0&&(f=360-f)):f=L(i[0][1])*V,o&&(f=-f),a=R(a,D(i[0][0]*i[0][0]+i[0][1]*i[0][1]))*V,{origin:{x:r[4],y:r[5]},translate:{x:t,y:n},scale:{x:u,y:l},skew:{x:a,y:0},rotate:f}}},{key:"toString",value:function(){return null===this.s&&(this.s="matrix("+this.m.map($).join(" ")+")"),this.s}},{key:"determinant",get:function(){var t=this.m;return t[0]*t[3]-t[1]*t[2]}},{key:"isIdentity",get:function(){if(null===this.i){var t=this.m;this.i=1===t[0]&&0===t[1]&&0===t[2]&&1===t[3]&&0===t[4]&&0===t[5]}return this.i}}]),t}(),G=/\.0+$/;function $(t){return Number.isInteger(t)?t:t.toFixed(14).replace(G,"")}Object.freeze({M:2,L:2,Z:0,H:1,V:1,C:6,Q:4,T:2,S:4,A:7});function H(t,n,r){return t+(n-t)*r}function Q(t,n,r){var e=arguments.length>3&&void 0!==arguments[3]&&arguments[3],i={x:H(t.x,n.x,r),y:H(t.y,n.y,r)};return e&&(i.a=function(t,n){return Math.atan2(n.y-t.y,n.x-t.x)}(t,n)),i}function U(t,n,r,e){var i=1-e;return i*i*t+2*i*e*n+e*e*r}function Y(t,n,r,e){return 2*(1-e)*(n-t)+2*e*(r-n)}function Z(t,n,r,e){var i=arguments.length>4&&void 0!==arguments[4]&&arguments[4],u={x:U(t.x,n.x,r.x,e),y:U(t.y,n.y,r.y,e)};return i&&(u.a=function(t,n,r,e){return Math.atan2(Y(t.y,n.y,r.y,e),Y(t.x,n.x,r.x,e))}(t,n,r,e)),u}function J(t,n,r,e,i){var u=i*i;return i*u*(e-t+3*(n-r))+3*u*(t+r-2*n)+3*i*(n-t)+t}function K(t,n,r,e,i){var u=1-i;return 3*(u*u*(n-t)+2*u*i*(r-n)+i*i*(e-r))}function W(t,n,r,e,i){var u=arguments.length>5&&void 0!==arguments[5]&&arguments[5],o={x:J(t.x,n.x,r.x,e.x,i),y:J(t.y,n.y,r.y,e.y,i)};return u&&(o.a=function(t,n,r,e,i){return Math.atan2(K(t.y,n.y,r.y,e.y,i),K(t.x,n.x,r.x,e.x,i))}(t,n,r,e,i)),o}function X(t,n,r){var e,i=arguments.length>3&&void 0!==arguments[3]&&arguments[3];if(nt(n)){if(null!=(e=r).start&&!nt(e))return Z(n,r.start,r,t,i)}else if(nt(r)){if(n.end)return Z(n,n.end,r,t,i)}else{if(n.end)return r.start?W(n,n.end,r.start,r,t,i):Z(n,n.end,r,t,i);if(r.start)return Z(n,r.start,r,t,i)}return Q(n,r,t,i)}function tt(t,n,r){var e=X(t,n,r,!0);return e.a=function(t){return arguments.length>1&&void 0!==arguments[1]&&arguments[1]?t+Math.PI:t}(e.a)/h,e}function nt(t){return!t.type||"corner"===t.type}var rt=new N;var et={f:function(t){return t?t.join(" "):""},i:function(n,r,e){if(0===n)return r;if(1===n)return e;var i=r.length;if(i!==e.length)return y(n,r,e);for(var u,o=new Array(i),a=0;a<i;a++){if((u=t(r[a]))!==t(e[a]))return y(n,r,e);if("number"===u)o[a]=d(n,r[a],e[a]);else{if(r[a]!==e[a])return y(n,r,e);o[a]=r[a]}}return o}},it={f:null,i:x,u:function(t,n){return function(r){var e=n(r);t.setAttribute("x1",I(e[0])),t.setAttribute("y1",I(e[1])),t.setAttribute("x2",I(e[2])),t.setAttribute("y2",I(e[3]))}}},ut={f:I,i:d},ot={f:I,i:function(t,n,r){var e=d(t,n,r);return e<=0?0:e>=1?1:e}},at={f:E,i:function(t,n,r){var e,i,u,o=n.length,a=r.length;if(o!==a)if(0===o)n=k(o=a,0);else if(0===a)a=o,r=k(o,0);else{var l=(u=(e=o)*(i=a)/function(t,n){for(var r;n;)r=n,n=t%n,t=r;return t||1}(e,i))<0?-u:u;n=S(n,Math.floor(l/o)),r=S(r,Math.floor(l/a)),o=a=l}for(var f=[],s=0;s<o;s++)f.push(v(g(t,n[s],r[s]),6));return f}};function lt(t,n,r,e,i,u,o,a){return n=function(t,n,r){for(var e,i,u,o=t.length-1,a={},l=0;l<=o;l++)(e=t[l]).e&&(e.e=n(e.e)),e.v&&"g"===(i=e.v).t&&i.r&&(u=r.getElementById(i.r))&&(a[i.r]=u.querySelectorAll("stop"));return a}(t,e,a),function(e){var i,u=r(e,t,ft);return u?"c"===u.t?B(u.v):"g"===u.t?(n[u.r]&&function(t,n){for(var r=0,e=t.length;r<e;r++)t[r].setAttribute("stop-color",B(n[r]))}(n[u.r],u.v),(i=u.r)?"url(#"+i+")":"none"):"none":"none"}}function ft(t,n,r){if(0===t)return n;if(1===t)return r;if(n&&r){var e=n.t;if(e===r.t)switch(n.t){case"c":return{t:e,v:w(t,n.v,r.v)};case"g":if(n.r===r.r)return{t:e,v:A(t,n.v,r.v),r:n.r}}}return y(t,n,r)}var st={blur:p,brightness:g,contrast:g,"drop-shadow":function(t,n,r){return 0===t?n:1===t?r:{blur:p(t,n.blur,r.blur),offset:m(t,n.offset,r.offset),color:w(t,n.color,r.color)}},grayscale:g,"hue-rotate":d,invert:g,opacity:g,saturate:g,sepia:g};function ct(t,n,r){if(0===t)return n;if(1===t)return r;var e=n.length;if(e!==r.length)return y(t,n,r);for(var i,u=[],o=0;o<e;o++){if(n[o].type!==r[o].type)return n;if(!(i=st[n[o].type]))return y(t,n,r);u.push({type:n.type,value:i(t,n[o].value,r[o].value)})}return u}var vt={blur:function(t){return t?function(n){t.setAttribute("stdDeviation",F(n))}:null},brightness:function(t,n,r){return(t=yt(r,n))?function(n){n=I(n),t.map((function(t){return t.setAttribute("slope",n)}))}:null},contrast:function(t,n,r){return(t=yt(r,n))?function(n){var r=I((1-n)/2);n=I(n),t.map((function(t){t.setAttribute("slope",n),t.setAttribute("intercept",r)}))}:null},"drop-shadow":function(t,n,r){var e=r.getElementById(n+"-blur");if(!e)return null;var i=r.getElementById(n+"-offset");if(!i)return null;var u=r.getElementById(n+"-flood");return u?function(t){e.setAttribute("stdDeviation",F(t.blur)),i.setAttribute("dx",I(t.offset.x)),i.setAttribute("dy",I(t.offset.y)),u.setAttribute("flood-color",B(t.color))}:null},grayscale:function(t){return t?function(n){t.setAttribute("values",E(function(t){return[.2126+.7874*(t=1-t),.7152-.7152*t,.0722-.0722*t,0,0,.2126-.2126*t,.7152+.2848*t,.0722-.0722*t,0,0,.2126-.2126*t,.7152-.7152*t,.0722+.9278*t,0,0,0,0,0,1,0]}(n)))}:null},"hue-rotate":function(t){return t?function(n){return t.setAttribute("values",I(n))}:null},invert:function(t,n,r){return(t=yt(r,n))?function(n){n=I(n)+" "+I(1-n),t.map((function(t){return t.setAttribute("tableValues",n)}))}:null},opacity:function(t,n,r){return(t=r.getElementById(n+"-A"))?function(n){return t.setAttribute("tableValues","0 "+I(n))}:null},saturate:function(t){return t?function(n){return t.setAttribute("values",I(n))}:null},sepia:function(t){return t?function(n){return t.setAttribute("values",E(function(t){return[.393+.607*(t=1-t),.769-.769*t,.189-.189*t,0,0,.349-.349*t,.686+.314*t,.168-.168*t,0,0,.272-.272*t,.534-.534*t,.131+.869*t,0,0,0,0,0,1,0]}(n)))}:null}};var ht=["R","G","B"];function yt(t,n){var r=ht.map((function(r){return t.getElementById(n+"-"+r)||null}));return-1!==r.indexOf(null)?null:r}var dt={fill:lt,"fill-opacity":ot,stroke:lt,"stroke-opacity":ot,"stroke-width":ut,"stroke-dashoffset":{f:I,i:d},"stroke-dasharray":at,opacity:ot,transform:function(n,r,e,i){if(!(n=function(n,r){if(!n||"object"!==t(n))return null;var e=!1;for(var i in n)n.hasOwnProperty(i)&&(n[i]&&n[i].length?(n[i].forEach((function(t){t.e&&(t.e=r(t.e))})),e=!0):delete n[i]);return e?n:null}(n,i)))return null;var u=function(t,i,u){var o=arguments.length>3&&void 0!==arguments[3]?arguments[3]:null;return n[t]?e(i,n[t],u):r&&r[t]?r[t]:o};return r&&r.a&&n.o?function(t){var r=e(t,n.o,tt);return rt.recomposeSelf(r,u("r",t,d,0)+r.a,u("k",t,m),u("s",t,m),u("t",t,m)).toString()}:function(t){return rt.recomposeSelf(u("o",t,X,null),u("r",t,d,0),u("k",t,m),u("s",t,m),u("t",t,m)).toString()}},"#filter":function(t,n,r,e,i,u,o,a){if(!n.items||!t||!t.length)return null;var l=function(t,n){var r=(t=t.map((function(t){return t&&vt[t[0]]?(n.getElementById(t[1]),vt[t[0]](n.getElementById(t[1]),t[1],n)):null}))).length;return function(n){for(var e=0;e<r;e++)t[e]&&t[e](n[e].value)}}(n.items,a);return l?(t=function(t,n){return t.map((function(t){return t.e=n(t.e),t}))}(t,e),function(n){l(r(n,t,ct))}):null},"#line":it,points:{f:E,i:x},d:et,r:ut,"#size":q,"#radius":j,_:function(t,n){if(Array.isArray(t))for(var r=0;r<t.length;r++)this[t[r]]=n;else this[t]=n}},gt=function(){function t(r){n(this,t),this.list=r,this.length=r.length}return e(t,[{key:"setAttribute",value:function(t,n){for(var r=this.list,e=0;e<this.length;e++)r[e].setAttribute(t,n)}},{key:"removeAttribute",value:function(t){for(var n=this.list,r=0;r<this.length;r++)n[r].removeAttribute(t)}},{key:"style",value:function(t,n){for(var r=this.list,e=0;e<this.length;e++)r[e].style[t]=n}}]),t}(),mt=/-./g,pt=function(t,n){return n.toUpperCase()};function bt(t){return"function"==typeof t?t:y}function wt(t){return t?"function"==typeof t?t:Array.isArray(t)?function(t){var n=arguments.length>1&&void 0!==arguments[1]?arguments[1]:o;if(!Array.isArray(t))return n;switch(t.length){case 1:return c(t[0])||n;case 2:return c(t[0],t[1])||n;case 4:return l(t[0],t[1],t[2],t[3])||n}return n}(t,null):function(t,n){var r=arguments.length>2&&void 0!==arguments[2]?arguments[2]:o;switch(t){case"linear":return o;case"steps":return c(n.steps||1,n.jump||0)||r;case"bezier":case"cubic-bezier":return l(n.x1||0,n.y1||0,n.x2||0,n.y2||0)||r}return r}(t.type,t.value,null):null}function At(t,n,r){var e=arguments.length>3&&void 0!==arguments[3]&&arguments[3],i=n.length-1;if(t<=n[0].t)return e?[0,0,n[0].v]:n[0].v;if(t>=n[i].t)return e?[i,1,n[i].v]:n[i].v;var u,o=n[0],a=null;for(u=1;u<=i;u++){if(!(t>n[u].t)){a=n[u];break}o=n[u]}return null==a?e?[i,1,n[i].v]:n[i].v:o.t===a.t?e?[u,1,a.v]:a.v:(t=(t-o.t)/(a.t-o.t),o.e&&(t=o.e(t)),e?[u,t,r(t,o.v,a.v)]:r(t,o.v,a.v))}function xt(t,n){var r=arguments.length>2&&void 0!==arguments[2]?arguments[2]:null;return t&&t.length?"function"!=typeof n?null:("function"!=typeof r&&(r=null),function(e){var i=At(e,t,n);return null!=i&&r&&(i=r(i)),i}):null}function kt(t,n){return t.t-n.t}function St(n,r,e,i,u){var o,a="@"===e[0],l="#"===e[0],f=dt[e],s=y;switch(a?(o=e.substr(1),e=o.replace(mt,pt)):l&&(e=e.substr(1)),t(f)){case"function":if(s=f(i,u,At,wt,e,a,r,n),l)return s;break;case"string":s=xt(i,bt(f));break;case"object":if((s=xt(i,bt(f.i),f.f))&&"function"==typeof f.u)return f.u(r,s,e,a,n)}return s?function(t,n,r){if(arguments.length>3&&void 0!==arguments[3]&&arguments[3])return t instanceof gt?function(e){return t.style(n,r(e))}:function(e){return t.style[n]=r(e)};if(Array.isArray(n)){var e=n.length;return function(i){var u=r(i);if(null==u)for(var o=0;o<e;o++)t[o].removeAttribute(n);else for(var a=0;a<e;a++)t[a].setAttribute(n,u)}}return function(e){var i=r(e);null==i?t.removeAttribute(n):t.setAttribute(n,i)}}(r,e,s,a):null}function _t(n,r,e,i){if(!i||"object"!==t(i))return null;var u=null,o=null;return Array.isArray(i)?o=function(t){if(!t||!t.length)return null;for(var n=0;n<t.length;n++)t[n].e&&(t[n].e=wt(t[n].e));return t.sort(kt)}(i):(o=i.keys,u=i.data||null),o?St(n,r,e,o,u):null}function Mt(t,n,r){if(!r)return null;var e=[];for(var i in r)if(r.hasOwnProperty(i)){var u=_t(t,n,i,r[i]);u&&e.push(u)}return e.length?e:null}function It(t,n){if(!n.duration||n.duration<0)return null;var r=function(t,n){if(!n)return null;var r=[];if(Array.isArray(n))for(var e=n.length,i=0;i<e;i++){var u=n[i];if(2===u.length){var o=null;if("string"==typeof u[0])o=t.getElementById(u[0]);else if(Array.isArray(u[0])){o=[];for(var a=0;a<u[0].length;a++)if("string"==typeof u[0][a]){var l=t.getElementById(u[0][a]);l&&o.push(l)}o=o.length?1===o.length?o[0]:new gt(o):null}if(o){var f=Mt(t,o,u[1]);f&&(r=r.concat(f))}}}else for(var s in n)if(n.hasOwnProperty(s)){var c=t.getElementById(s);if(c){var v=Mt(t,c,n[s]);v&&(r=r.concat(v))}}return r.length?r:null}(t,n.elements);return r?function(t,n){var r=arguments.length>2&&void 0!==arguments[2]?arguments[2]:1/0,e=arguments.length>3&&void 0!==arguments[3]?arguments[3]:1,i=arguments.length>4&&void 0!==arguments[4]&&arguments[4],u=arguments.length>5&&void 0!==arguments[5]?arguments[5]:1,o=t.length,a=e>0?n:0;i&&r%2==0&&(a=n-a);var l=null;return function(f,s){var c=f%n,v=1+(f-c)/n;s*=e,i&&v%2==0&&(s=-s);var h=!1;if(v>r)c=a,h=!0,-1===u&&(c=e>0?0:n);else if(s<0&&(c=n-c),c===l)return!1;l=c;for(var y=0;y<o;y++)t[y](c);return h}}(r,n.duration,n.iterations||1/0,n.direction||1,!!n.alternate,n.fill||1):null}var Et=function(){function t(r){var e=arguments.length>1&&void 0!==arguments[1]?arguments[1]:{};n(this,t),this._id=0,this._running=!1,this._animations=r,this.direction=e.direction||1,this.speed=e.speed||1,this.fps=e.fps||100,this.offset=e.offset||0}return e(t,[{key:"_start",value:function(){var t=this,n=arguments.length>0&&void 0!==arguments[0]?arguments[0]:0,r=-1/0,e=null,i={},u=function u(o){t._running=!0,null==e&&(e=o);var a=Math.round((o-e+n)*t.speed),l=t.fps?1e3/t.fps:0;if(a>r+l){t.offset=a,r=a;for(var f=t._animations,s=f.length,c=0,v=0;v<s;v++)i[v]?c++:(i[v]=f[v](a,t.direction),i[v]&&c++);if(c===s)return void t._stop()}t._id=window.requestAnimationFrame(u)};this._id=window.requestAnimationFrame(u)}},{key:"_stop",value:function(){this._id&&window.cancelAnimationFrame(this._id),this._running=!1}},{key:"play",value:function(){this._running||this._start(this.offset)}},{key:"stop",value:function(){this._stop(),this.offset=0;var t=this.direction,n=this._animations;requestAnimationFrame((function(){for(var r=0;r<n.length;r++)n[r](0,t)}))}},{key:"restart",value:function(){this._stop(),this.offset=0,this._start()}},{key:"pause",value:function(){this._stop()}},{key:"reverse",value:function(){this.direction=-this.direction}}],[{key:"build",value:function(n){if(!(n=function(t){if(!t||!t.root||!Array.isArray(t.animations))return null;var n=window.document.getElementById(t.root);if(!n)return null;var r=t.animations.map((function(t){return It(n,t)})).filter((function(t){return!!t}));return r.length?{element:n,animations:r,options:t.options||void 0}:null}(n)))return null;var r=n.element,e=n.options||{},i=new t(n.animations,n.options);return function(t,n,r){var e=arguments.length>3&&void 0!==arguments[3]?arguments[3]:null;if("click"===r){return void n.addEventListener("click",(function r(){n.removeEventListener("click",r),t.play()}))}if("hover"===r)return n.addEventListener("mouseenter",(function(){return t.play()})),void n.addEventListener("mouseleave","freeze"===e?function(){return t.pause()}:function(){return t.stop()});t.play()}(i,r,e.start,e.hover),i}}]),t}();return function(){for(var t=0,n=["ms","moz","webkit","o"],r=0;r<n.length&&!window.requestAnimationFrame;++r)window.requestAnimationFrame=window[n[r]+"RequestAnimationFrame"],window.cancelAnimationFrame=window[n[r]+"CancelAnimationFrame"]||window[n[r]+"CancelRequestAnimationFrame"];window.requestAnimationFrame||(window.requestAnimationFrame=function(n){var r=Date.now(),e=Math.max(0,16-(r-t)),i=window.setTimeout((function(){n(r+e)}),e);return t=r+e,i},window.cancelAnimationFrame=window.clearTimeout)}(),Et}));
__SVGATOR_PLAYER__.build({"root":"en1yxv51m6k1","animations":[{"duration":3000,"direction":1,"iterations":1,"fill":1,"alternate":false,"elements":{"en1yxv51m6k14":{"transform":{"data":{"t":{"x":-525.306162455,"y":-522.60099146}},"keys":{"o":[{"t":0,"v":{"x":460.92916662500005,"y":502.39715183,"type":"corner"}},{"t":3000,"v":{"x":525.306162455,"y":522.60099146,"type":"corner"}}],"r":[{"t":0,"v":3.908064446995513},{"t":3000,"v":0}]}}},"en1yxv51m6k21":{"transform":{"data":{"t":{"x":-490.567791705,"y":-386.482206585}},"keys":{"o":[{"t":0,"v":{"x":448.66429347499997,"y":377.685209515,"type":"corner"}},{"t":3000,"v":{"x":490.567791705,"y":386.482206585,"type":"corner"}}],"r":[{"t":0,"v":5.191468356004478},{"t":3000,"v":0}]}}},"en1yxv51m6k27":{"transform":{"data":{"t":{"x":-453.994692115,"y":-255.0755}},"keys":{"o":[{"t":0,"v":{"x":428.05177093500004,"y":249.52300308,"type":"corner"}},{"t":3000,"v":{"x":453.994692115,"y":255.0755,"type":"corner"}}],"r":[{"t":0,"v":4.773339699145414},{"t":3000,"v":0}]}}},"en1yxv51m6k47":{"transform":{"data":{"t":{"x":-424.25787204,"y":-122.21292606}},"keys":{"o":[{"t":0,"v":{"x":413.45498508,"y":118.06145564,"type":"corner"}},{"t":3000,"v":{"x":424.25787204,"y":122.21292606,"type":"corner"}}],"r":[{"t":0,"v":4.047047954296603},{"t":3000,"v":0}]}}}}}],"options":{"start":"load","hover":"restart"}})]]></script></svg>