<svg width="1547" height="565" viewBox="0 0 1547 565" fill="none" xmlns="http://www.w3.org/2000/svg">
<g opacity="0.95">
<path opacity="0.548932" d="M74.9639 118.442L324.002 123.994L367.346 187.731L368.762 186.769L324.923 122.303L77.8146 116.794L144.551 -5.37994H142.6L75.6376 117.208L74.9639 118.442Z" fill="white"/>
<g opacity="0.261186">
<path opacity="0.261186" d="M373.378 183.633C374.094 184.686 374.481 185.927 374.491 187.199C374.501 188.472 374.134 189.718 373.435 190.782C372.736 191.846 371.737 192.678 370.564 193.174C369.392 193.67 368.098 193.808 366.848 193.57C365.597 193.331 364.445 192.728 363.538 191.835C362.63 190.942 362.008 189.801 361.75 188.555C361.492 187.309 361.609 186.014 362.087 184.835C362.565 183.655 363.382 182.644 364.435 181.929C365.847 180.97 367.583 180.611 369.26 180.93C370.937 181.25 372.418 182.222 373.378 183.633Z" fill="white"/>
</g>
<path opacity="0.654624" d="M368.762 186.769L367.346 187.731L399.244 234.638L400.66 233.676L368.762 186.769Z" fill="white"/>
<g opacity="0.811058">
<path opacity="0.811058" d="M405.276 230.54C405.992 231.593 406.379 232.833 406.389 234.106C406.399 235.378 406.032 236.625 405.332 237.689C404.633 238.752 403.634 239.585 402.462 240.081C401.289 240.577 399.996 240.715 398.745 240.477C397.495 240.238 396.343 239.634 395.435 238.742C394.528 237.849 393.906 236.707 393.647 235.461C393.389 234.215 393.507 232.921 393.985 231.741C394.463 230.562 395.28 229.551 396.333 228.835C397.745 227.876 399.481 227.517 401.158 227.837C402.835 228.157 404.316 229.129 405.276 230.54Z" fill="white"/>
</g>
<path opacity="0.466878" d="M485.657 358.667L400.66 233.676L399.244 234.638L487.216 364.002L497.917 -5.37994H496.204L485.657 358.667Z" fill="white"/>
<path opacity="0.811368" d="M430.602 281.234L430.072 279.607L308.509 319.085L452.251 -5.37994H450.378L305.391 321.896L430.602 281.234Z" fill="white"/>
<g opacity="0.578736">
<path opacity="0.578736" d="M428.347 274.302C429.558 273.909 430.859 273.883 432.084 274.229C433.31 274.574 434.405 275.275 435.232 276.242C436.059 277.21 436.58 278.401 436.73 279.664C436.88 280.928 436.651 282.208 436.073 283.342C435.495 284.475 434.594 285.412 433.483 286.034C432.372 286.656 431.101 286.935 429.832 286.835C428.563 286.735 427.351 286.261 426.352 285.473C425.352 284.686 424.608 283.619 424.214 282.409C423.687 280.786 423.826 279.02 424.601 277.5C425.376 275.98 426.724 274.829 428.347 274.302Z" fill="white"/>
</g>
<path opacity="0.525458" d="M443.718 275.174L430.073 279.608L430.603 281.235L444.248 276.801L443.718 275.174Z" fill="white"/>
<g opacity="0.263755">
<path opacity="0.263755" d="M441.994 269.87C443.205 269.477 444.505 269.452 445.731 269.797C446.956 270.142 448.052 270.843 448.879 271.811C449.706 272.778 450.227 273.969 450.377 275.233C450.526 276.497 450.298 277.776 449.72 278.91C449.142 280.044 448.24 280.981 447.129 281.603C446.018 282.224 444.748 282.503 443.478 282.403C442.209 282.303 440.998 281.83 439.998 281.042C438.998 280.254 438.254 279.188 437.861 277.978C437.333 276.355 437.473 274.589 438.248 273.069C439.023 271.548 440.37 270.398 441.994 269.87Z" fill="white"/>
</g>
<path opacity="0.678233" d="M488.785 260.538L443.72 275.179L444.249 276.806L489.314 262.165L488.785 260.538Z" fill="white"/>
<g opacity="0.911256">
<path opacity="0.911256" d="M487.06 255.235C488.271 254.842 489.572 254.816 490.797 255.162C492.023 255.507 493.118 256.208 493.945 257.176C494.772 258.143 495.293 259.334 495.443 260.598C495.593 261.861 495.364 263.141 494.786 264.275C494.208 265.409 493.307 266.346 492.196 266.967C491.085 267.589 489.814 267.868 488.545 267.768C487.276 267.668 486.065 267.195 485.065 266.407C484.065 265.619 483.321 264.553 482.927 263.342C482.4 261.72 482.539 259.954 483.314 258.434C484.089 256.913 485.437 255.763 487.06 255.235Z" fill="white"/>
</g>
<path opacity="0.297002" d="M767.688 169.943L488.793 260.564L489.322 262.191L768.217 171.57L767.688 169.943Z" fill="white"/>
<g opacity="0.407396">
<path opacity="0.407396" d="M765.971 164.661C767.181 164.268 768.482 164.242 769.707 164.588C770.933 164.933 772.028 165.634 772.855 166.601C773.682 167.569 774.203 168.76 774.353 170.023C774.503 171.287 774.274 172.567 773.696 173.7C773.118 174.834 772.217 175.771 771.106 176.393C769.995 177.015 768.724 177.293 767.455 177.194C766.186 177.094 764.975 176.62 763.975 175.832C762.975 175.045 762.231 173.978 761.837 172.768C761.31 171.145 761.449 169.379 762.224 167.859C762.999 166.339 764.347 165.188 765.971 164.661Z" fill="white"/>
</g>
<path opacity="0.456858" d="M498.472 9.11284L497.595 10.5819L767.522 171.514L768.399 170.045L498.472 9.11284Z" fill="white"/>
<g opacity="0.213724">
<path opacity="0.213724" d="M494.735 15.3732C493.642 14.7212 492.766 13.7599 492.219 12.6107C491.673 11.4615 491.479 10.1761 491.663 8.91706C491.848 7.65798 492.401 6.48177 493.255 5.53717C494.108 4.59257 495.222 3.922 496.456 3.61027C497.691 3.29853 498.99 3.35964 500.19 3.78584C501.389 4.21205 502.436 4.98423 503.196 6.00472C503.957 7.02521 504.398 8.24819 504.463 9.51899C504.528 10.7898 504.214 12.0514 503.562 13.1442C502.687 14.6094 501.266 15.6674 499.611 16.0854C497.955 16.5034 496.202 16.2472 494.735 15.3732Z" fill="white"/>
</g>
<path opacity="0.672518" d="M498.472 9.11301L474.164 -5.37994H470.822L497.595 10.5821L498.472 9.11301Z" fill="white"/>
<path opacity="0.941167" d="M384.692 148.656L310.313 -5.37994H308.412L383.149 149.399L384.692 148.656Z" fill="white"/>
<g opacity="0.694362">
<path opacity="0.694362" d="M389.719 146.232C390.272 147.378 390.473 148.662 390.296 149.922C390.119 151.182 389.572 152.361 388.725 153.311C387.877 154.26 386.767 154.937 385.534 155.256C384.301 155.575 383.002 155.521 381.8 155.102C380.598 154.683 379.547 153.917 378.78 152.901C378.014 151.884 377.566 150.664 377.494 149.394C377.421 148.123 377.728 146.86 378.374 145.763C379.02 144.667 379.976 143.786 381.123 143.233C382.661 142.492 384.43 142.391 386.042 142.954C387.654 143.516 388.977 144.695 389.719 146.232Z" fill="white"/>
</g>
<path opacity="0.320836" d="M384.692 148.656L383.149 149.399L485.665 361.706L487.207 360.962L384.692 148.656Z" fill="white"/>
<g opacity="0.899716">
<path opacity="0.899716" d="M492.235 358.538C492.788 359.684 492.989 360.968 492.812 362.229C492.635 363.489 492.088 364.668 491.241 365.618C490.393 366.567 489.283 367.244 488.05 367.563C486.817 367.882 485.518 367.828 484.316 367.409C483.113 366.99 482.063 366.223 481.296 365.207C480.53 364.191 480.082 362.971 480.009 361.7C479.937 360.43 480.243 359.166 480.889 358.07C481.535 356.973 482.492 356.093 483.639 355.54C485.177 354.799 486.946 354.698 488.558 355.26C490.17 355.822 491.493 357.001 492.235 358.538Z" fill="white"/>
</g>
<path opacity="0.22822" d="M520.38 250.587L485.64 361.084L487.273 361.597L522.014 251.1L520.38 250.587Z" fill="white"/>
<g opacity="0.783568">
<path opacity="0.783568" d="M523.119 256.995C526.515 255.943 528.415 252.339 527.364 248.945C526.313 245.55 522.707 243.651 519.311 244.703C515.915 245.755 514.014 249.36 515.066 252.754C516.117 256.148 519.722 258.047 523.119 256.995Z" fill="white"/>
</g>
<path opacity="0.856333" d="M718.838 46.6705L718.988 48.3749L582.079 60.366L522.033 251.106L520.399 250.593L580.789 58.761L718.838 46.6705Z" fill="white"/>
<g opacity="0.21608">
<path opacity="0.21608" d="M718.351 41.1134C719.619 41.0023 720.892 41.2696 722.009 41.8814C723.125 42.4933 724.035 43.4223 724.623 44.5509C725.211 45.6795 725.451 46.9571 725.313 48.222C725.174 49.487 724.664 50.6825 723.845 51.6574C723.027 52.6323 721.938 53.3428 720.716 53.6991C719.493 54.0554 718.193 54.0414 716.978 53.6589C715.764 53.2764 714.69 52.5427 713.893 51.5504C713.096 50.5581 712.611 49.3519 712.5 48.0843C712.351 46.3845 712.884 44.6953 713.981 43.388C715.078 42.0808 716.65 41.2626 718.351 41.1134Z" fill="white"/>
</g>
<path opacity="0.921795" d="M719.425 46.8376L649.545 -5.37994H646.687L718.4 48.2078L719.425 46.8376Z" fill="white"/>
<path opacity="0.356486" d="M76.8029 118.367L301.458 -5.37994H297.91L75.9766 116.868L76.8029 118.367Z" fill="white"/>
<path opacity="0.449774" d="M414.253 77.9237L76.292 116.764L76.4876 118.463L414.448 79.6236L414.253 77.9237Z" fill="white"/>
<g opacity="0.401693">
<path opacity="0.401693" d="M413.614 72.3779C414.879 72.2325 416.159 72.4652 417.291 73.0466C418.424 73.628 419.359 74.532 419.977 75.6443C420.596 76.7566 420.87 78.0271 420.766 79.2954C420.662 80.5636 420.184 81.7725 419.392 82.7693C418.601 83.766 417.531 84.5057 416.319 84.895C415.107 85.2842 413.806 85.3055 412.582 84.9561C411.358 84.6066 410.265 83.9022 409.441 82.9319C408.617 81.9616 408.1 80.769 407.954 79.5048C407.759 77.8097 408.246 76.1066 409.307 74.7701C410.369 73.4335 411.918 72.5731 413.614 72.3779Z" fill="white"/>
</g>
<path opacity="0.805188" d="M581.337 58.7182L414.251 77.9152L414.447 79.6151L581.533 60.4181L581.337 58.7182Z" fill="white"/>
<g opacity="0.815113">
<path opacity="0.815113" d="M580.698 53.1718C581.963 53.0264 583.243 53.2591 584.375 53.8405C585.508 54.4219 586.442 55.3259 587.061 56.4382C587.679 57.5504 587.954 58.821 587.85 60.0893C587.746 61.3575 587.268 62.5664 586.476 63.5631C585.685 64.5599 584.615 65.2996 583.403 65.6889C582.191 66.0781 580.89 66.0994 579.666 65.7499C578.442 65.4005 577.349 64.6961 576.525 63.7258C575.701 62.7554 575.184 61.5628 575.038 60.2986C574.843 58.6035 575.33 56.9004 576.391 55.5639C577.453 54.2274 579.002 53.367 580.698 53.1718Z" fill="white"/>
</g>
<path opacity="0.639901" d="M580.865 58.9644L493.271 142.151L494.451 143.391L582.044 60.205L580.865 58.9644Z" fill="white"/>
<g opacity="0.929103">
<path opacity="0.929103" d="M498.318 147.454C497.395 148.331 496.233 148.915 494.979 149.132C493.724 149.349 492.433 149.189 491.27 148.673C490.106 148.156 489.121 147.307 488.44 146.232C487.76 145.156 487.414 143.903 487.445 142.631C487.477 141.359 487.886 140.125 488.619 139.085C489.353 138.045 490.379 137.246 491.567 136.788C492.755 136.331 494.052 136.236 495.295 136.515C496.537 136.795 497.668 137.436 498.546 138.358C499.722 139.594 500.359 141.247 500.317 142.953C500.274 144.659 499.555 146.278 498.318 147.454Z" fill="white"/>
</g>
<path opacity="0.832256" d="M493.308 142.189L415.156 216.413L416.336 217.654L494.488 143.43L493.308 142.189Z" fill="white"/>
<g opacity="0.650612">
<path opacity="0.650612" d="M420.201 221.713C419.278 222.59 418.116 223.174 416.862 223.391C415.607 223.608 414.316 223.448 413.152 222.932C411.989 222.415 411.004 221.566 410.323 220.491C409.643 219.415 409.296 218.162 409.328 216.89C409.36 215.618 409.769 214.384 410.502 213.344C411.236 212.304 412.262 211.505 413.45 211.047C414.638 210.59 415.935 210.495 417.177 210.774C418.42 211.054 419.551 211.695 420.429 212.617C421.605 213.853 422.242 215.506 422.199 217.212C422.157 218.918 421.438 220.537 420.201 221.713Z" fill="white"/>
</g>
<path opacity="0.671925" d="M415.197 216.456L306.336 319.845L307.516 321.085L416.377 217.696L415.197 216.456Z" fill="white"/>
<g opacity="0.569208">
<path opacity="0.569208" d="M311.386 325.152C310.464 326.029 309.302 326.613 308.047 326.83C306.793 327.047 305.502 326.887 304.338 326.371C303.174 325.855 302.19 325.005 301.509 323.93C300.828 322.854 300.482 321.601 300.514 320.329C300.546 319.057 300.954 317.823 301.688 316.783C302.421 315.743 303.447 314.944 304.635 314.486C305.823 314.029 307.121 313.934 308.363 314.213C309.605 314.493 310.737 315.134 311.614 316.056C312.791 317.292 313.428 318.945 313.385 320.651C313.342 322.357 312.623 323.976 311.386 325.152Z" fill="white"/>
</g>
<path opacity="0.742891" d="M197.454 301.152L306.794 321.331L307.105 319.649L198.495 299.603L2.03292 -159.99L0 -159.99L197.254 300.839L197.454 301.152Z" fill="white"/>
<path opacity="0.711723" d="M353.859 87.1849L421.082 -5.37994H418.966L352.473 86.179L353.859 87.1849Z" fill="white"/>
<g opacity="0.954145">
<path opacity="0.954145" d="M358.376 90.4608C357.628 91.4907 356.592 92.2757 355.398 92.7168C354.203 93.1578 352.905 93.235 351.667 92.9385C350.428 92.6421 349.306 91.9853 348.441 91.0514C347.576 90.1174 347.008 88.9481 346.808 87.6913C346.608 86.4346 346.786 85.1469 347.319 83.991C347.851 82.8352 348.715 81.8631 349.8 81.1977C350.885 80.5323 352.144 80.2035 353.416 80.2528C354.688 80.3022 355.917 80.7275 356.948 81.4749C358.329 82.4773 359.256 83.9871 359.524 85.6722C359.792 87.3573 359.379 89.0798 358.376 90.4608Z" fill="white"/>
</g>
<path opacity="0.483165" d="M352.475 86.1805L325.223 123.699L326.609 124.704L353.861 87.1859L352.475 86.1805Z" fill="white"/>
<g opacity="0.251043">
<path opacity="0.251043" d="M331.127 127.983C330.379 129.012 329.342 129.798 328.148 130.239C326.953 130.68 325.655 130.757 324.417 130.46C323.178 130.164 322.056 129.507 321.191 128.573C320.326 127.639 319.758 126.47 319.558 125.213C319.358 123.957 319.536 122.669 320.068 121.513C320.601 120.357 321.464 119.385 322.55 118.72C323.635 118.054 324.893 117.725 326.166 117.775C327.438 117.824 328.667 118.249 329.698 118.997C331.079 119.999 332.006 121.509 332.274 123.194C332.542 124.879 332.129 126.602 331.127 127.983Z" fill="white"/>
</g>
<path opacity="0.239653" d="M325.234 123.708L197.271 299.868L198.657 300.873L326.619 124.713L325.234 123.708Z" fill="white"/>
<g opacity="0.79485">
<path opacity="0.79485" d="M203.184 304.156C202.436 305.186 201.399 305.971 200.205 306.412C199.011 306.853 197.712 306.93 196.474 306.634C195.236 306.337 194.113 305.68 193.249 304.746C192.384 303.812 191.816 302.643 191.616 301.386C191.416 300.13 191.594 298.842 192.126 297.686C192.659 296.53 193.522 295.558 194.608 294.893C195.693 294.227 196.951 293.899 198.224 293.948C199.496 293.997 200.725 294.423 201.756 295.17C203.137 296.173 204.064 297.682 204.332 299.368C204.6 301.053 204.187 302.775 203.184 304.156Z" fill="white"/>
</g>
<path opacity="0.568358" d="M215.91 121.728L197.128 300.288L198.831 300.467L217.612 121.907L215.91 121.728Z" fill="white"/>
<g opacity="0.965084">
<path opacity="0.965084" d="M222.684 124.35C224.081 121.082 222.563 117.3 219.295 115.903C216.026 114.505 212.243 116.021 210.846 119.288C209.449 122.556 210.966 126.337 214.235 127.735C217.504 129.133 221.286 127.617 222.684 124.35Z" fill="white"/>
</g>
<path opacity="0.773664" d="M218.151 100.481L215.916 121.729L217.619 121.908L219.854 100.66L218.151 100.481Z" fill="white"/>
<g opacity="0.769702">
<path opacity="0.769702" d="M212.6 99.8971C212.733 98.6316 213.239 97.434 214.053 96.4557C214.867 95.4775 215.953 94.7625 217.174 94.4012C218.395 94.0399 219.696 94.0485 220.912 94.4259C222.128 94.8034 223.204 95.5327 224.005 96.5217C224.807 97.5106 225.296 98.7148 225.413 99.982C225.529 101.249 225.267 102.522 224.659 103.641C224.052 104.759 223.126 105.672 221.999 106.264C220.872 106.857 219.595 107.102 218.329 106.969C216.631 106.79 215.073 105.944 213.999 104.618C212.925 103.292 212.421 101.594 212.6 99.8971Z" fill="white"/>
</g>
<path opacity="0.94539" d="M225.01 35.2792L218.154 100.481L219.857 100.66L226.713 35.458L225.01 35.2792Z" fill="white"/>
<g opacity="0.845728">
<path opacity="0.845728" d="M219.462 34.6961C219.595 33.4306 220.101 32.233 220.915 31.2548C221.729 30.2765 222.816 29.5615 224.036 29.2002C225.257 28.8389 226.558 28.8475 227.774 29.225C228.99 29.6024 230.067 30.3317 230.868 31.3207C231.669 32.3096 232.159 33.5138 232.275 34.781C232.392 36.0481 232.129 37.3213 231.522 38.4395C230.914 39.5577 229.988 40.4707 228.861 41.0631C227.734 41.6555 226.457 41.9006 225.191 41.7675C223.493 41.5888 221.936 40.7434 220.861 39.4173C219.787 38.0913 219.284 36.393 219.462 34.6961Z" fill="white"/>
</g>
<path opacity="0.800788" d="M226.716 35.4585L231.014 -5.37994H229.292L225.014 35.2795L226.716 35.4585Z" fill="white"/>
<path opacity="0.969718" d="M353.817 76.3254C356.577 76.332 359.222 77.4244 361.182 79.3661C363.141 81.3078 364.257 83.9427 364.287 86.7002C364.317 89.4577 363.259 92.1161 361.342 94.0998C359.425 96.0836 356.804 97.2331 354.045 97.2995C351.286 97.366 348.612 96.344 346.602 94.4548C344.592 92.5656 343.407 89.9612 343.304 87.2054C343.201 84.4497 344.188 81.7642 346.052 79.7304C347.916 77.6967 350.506 76.4782 353.262 76.3388C353.447 76.3297 353.633 76.325 353.817 76.3254ZM353.767 96.0109C353.929 96.0112 354.091 96.0071 354.255 95.9986C356.692 95.8756 358.981 94.7898 360.618 92.9802C362.255 91.1705 363.105 88.7852 362.982 86.3489C362.859 83.9127 361.773 81.6251 359.962 79.9894C358.151 78.3537 355.764 77.5039 353.326 77.6269C350.931 77.7478 348.677 78.7987 347.045 80.5557C345.413 82.3127 344.532 84.637 344.59 87.0335C344.647 89.4301 345.639 91.7095 347.353 93.3863C349.067 95.0631 351.369 96.0048 353.767 96.0109Z" fill="white"/>
<path opacity="0.969718" d="M76.4471 107.609C78.2919 107.516 80.123 107.972 81.7086 108.919C83.2943 109.866 84.5634 111.261 85.3554 112.929C86.1474 114.597 86.4268 116.462 86.1582 118.288C85.8896 120.115 85.0851 121.821 83.8464 123.19C82.6077 124.56 80.9905 125.531 79.1992 125.982C77.408 126.433 75.5231 126.343 73.783 125.724C72.043 125.104 70.5258 123.983 69.4235 122.501C68.3211 121.02 67.6831 119.245 67.59 117.402C67.4654 114.929 68.3285 112.509 69.9895 110.672C71.6505 108.836 73.9733 107.734 76.4471 107.609Z" fill="white"/>
<path opacity="0.969718" d="M76.9532 103.012C80.6157 103.02 84.1276 104.47 86.7285 107.047C89.3293 109.625 90.8099 113.122 90.8498 116.782C90.8896 120.442 89.4856 123.97 86.9415 126.603C84.3974 129.237 80.918 130.762 77.2565 130.851C73.595 130.939 70.046 129.583 67.3778 127.075C64.7095 124.568 63.1368 121.111 63 117.453C62.8631 113.796 64.1732 110.231 66.6467 107.532C69.1201 104.832 72.5579 103.215 76.2157 103.03C76.4624 103.018 76.709 103.011 76.9532 103.012ZM76.8871 129.139C77.1015 129.14 77.3171 129.135 77.5338 129.123C79.1364 129.043 80.7076 128.648 82.1575 127.961C83.6074 127.274 84.9076 126.308 85.9839 125.119C87.0602 123.93 87.8914 122.54 88.4301 121.029C88.9688 119.519 89.2045 117.917 89.1236 116.315C89.0427 114.714 88.6468 113.144 87.9586 111.695C87.2703 110.246 86.3032 108.948 85.1125 107.872C83.9218 106.797 82.5308 105.967 81.019 105.43C79.5072 104.892 77.9043 104.658 76.3018 104.739C73.1221 104.9 70.1307 106.294 67.9648 108.626C65.7989 110.958 64.6295 114.043 64.7058 117.224C64.7821 120.405 66.098 123.43 68.3733 125.656C70.6485 127.882 73.7034 129.131 76.8871 129.139Z" fill="white"/>
</g>
<path opacity="0.576199" d="M662.302 282.378L662.136 284.431L772.547 293.357L772.713 291.304L662.302 282.378Z" fill="white"/>
<g opacity="0.740749">
<path opacity="0.740749" d="M773.255 284.612C774.782 284.735 776.239 285.308 777.44 286.259C778.642 287.21 779.534 288.496 780.005 289.954C780.475 291.411 780.503 292.976 780.083 294.449C779.664 295.922 778.817 297.238 777.65 298.23C776.482 299.222 775.046 299.846 773.524 300.023C772.002 300.2 770.461 299.921 769.097 299.223C767.733 298.525 766.607 297.438 765.861 296.1C765.115 294.762 764.783 293.233 764.906 291.706C765.072 289.659 766.045 287.762 767.61 286.431C769.176 285.101 771.206 284.446 773.255 284.612Z" fill="white"/>
</g>
<path opacity="0.653462" d="M1215.8 329.191L772.546 293.357L772.713 291.304L1209.79 326.639L830.935 -7.84738L832.301 -9.39061L1215.8 329.191Z" fill="white"/>
<path opacity="0.726273" d="M830.605 -8.80853L747.447 434.677L749.472 435.056L832.63 -8.42928L830.605 -8.80853Z" fill="white"/>
<g opacity="0.667884">
<path opacity="0.667884" d="M756.076 436.293C755.793 437.798 755.071 439.186 753.999 440.281C752.927 441.376 751.555 442.129 750.055 442.445C748.555 442.76 746.996 442.624 745.573 442.054C744.151 441.483 742.93 440.504 742.064 439.24C741.199 437.976 740.727 436.484 740.71 434.952C740.693 433.421 741.131 431.919 741.968 430.636C742.806 429.353 744.005 428.347 745.414 427.745C746.824 427.143 748.38 426.972 749.886 427.254C751.906 427.633 753.693 428.798 754.854 430.493C756.014 432.188 756.454 434.274 756.076 436.293Z" fill="white"/>
</g>
<path opacity="0.836763" d="M1105.03 234.584L747.956 433.968L748.961 435.765L1106.03 236.381L1105.03 234.584Z" fill="white"/>
<g opacity="0.484253">
<path opacity="0.484253" d="M1101.75 228.722C1103.09 227.975 1104.62 227.641 1106.15 227.763C1107.68 227.885 1109.13 228.456 1110.34 229.406C1111.54 230.355 1112.43 231.64 1112.9 233.097C1113.38 234.554 1113.41 236.119 1112.99 237.592C1112.57 239.066 1111.73 240.383 1110.56 241.377C1109.39 242.37 1107.96 242.996 1106.44 243.175C1104.91 243.353 1103.37 243.076 1102.01 242.38C1100.64 241.683 1099.51 240.597 1098.77 239.26C1097.77 237.467 1097.52 235.35 1098.08 233.373C1098.64 231.397 1099.96 229.724 1101.75 228.722Z" fill="white"/>
</g>
<path opacity="0.203444" d="M1351.89 96.7411L1105.03 234.584L1106.03 236.381L1352.9 98.5387L1351.89 96.7411Z" fill="white"/>
<g opacity="0.519867">
<path opacity="0.519867" d="M1348.61 90.8789C1349.95 90.1318 1351.48 89.798 1353.01 89.9198C1354.54 90.0415 1355.99 90.6132 1357.2 91.5627C1358.4 92.5121 1359.29 93.7967 1359.77 95.2539C1360.24 96.7111 1360.27 98.2755 1359.85 99.7492C1359.43 101.223 1358.59 102.54 1357.42 103.534C1356.25 104.527 1354.82 105.153 1353.3 105.331C1351.77 105.51 1350.23 105.233 1348.87 104.537C1347.5 103.84 1346.38 102.754 1345.63 101.417C1344.63 99.624 1344.38 97.5065 1344.94 95.5302C1345.5 93.5539 1346.82 91.8808 1348.61 90.8789Z" fill="white"/>
</g>
<path opacity="0.563344" d="M1394.37 75.3802L1352.9 98.5387L1351.89 96.7408L1386.21 77.5741L1325.7 78.566L1325.67 76.5064L1394.37 75.3802Z" fill="white"/>
<g opacity="0.908346">
<path opacity="0.908346" d="M1325.81 85.2797C1324.28 85.3049 1322.77 84.8753 1321.49 84.0453C1320.2 83.2154 1319.19 82.0223 1318.58 80.617C1317.97 79.2118 1317.79 77.6574 1318.06 76.1504C1318.34 74.6435 1319.05 73.2517 1320.12 72.151C1321.18 71.0503 1322.55 70.2902 1324.05 69.9668C1325.55 69.6433 1327.11 69.7711 1328.53 70.3339C1329.96 70.8968 1331.18 71.8694 1332.06 73.1288C1332.93 74.3882 1333.41 75.8778 1333.43 77.4093C1333.47 79.4629 1332.68 81.4458 1331.25 82.9218C1329.82 84.3977 1327.87 85.2459 1325.81 85.2797Z" fill="white"/>
</g>
<path opacity="0.603303" d="M1325.67 76.5068L1132.88 79.6671L1132.91 81.7269L1325.71 78.5666L1325.67 76.5068Z" fill="white"/>
<g opacity="0.657548">
<path opacity="0.657548" d="M1133.02 88.4394C1131.48 88.4646 1129.98 88.0351 1128.69 87.2051C1127.4 86.3752 1126.39 85.1821 1125.78 83.7768C1125.17 82.3715 1124.99 80.8171 1125.27 79.3101C1125.54 77.8031 1126.26 76.4113 1127.32 75.3106C1128.39 74.2099 1129.76 73.4498 1131.25 73.1264C1132.75 72.803 1134.31 72.9308 1135.74 73.4937C1137.16 74.0566 1138.39 75.0293 1139.26 76.2888C1140.13 77.5482 1140.61 79.0379 1140.64 80.5694C1140.67 82.6229 1139.89 84.6057 1138.46 86.0815C1137.03 87.5574 1135.07 88.4055 1133.02 88.4394Z" fill="white"/>
</g>
<path opacity="0.849423" d="M1132.87 79.6666L815.018 84.8763L815.051 86.9361L1132.91 81.7264L1132.87 79.6666Z" fill="white"/>
<g opacity="0.58069">
<path opacity="0.58069" d="M815.162 93.6495C813.629 93.6747 812.124 93.2451 810.836 92.4151C809.547 91.5851 808.534 90.3921 807.925 88.9867C807.315 87.5814 807.136 86.0269 807.41 84.5199C807.685 83.0129 808.4 81.6211 809.466 80.5204C810.532 79.4196 811.9 78.6595 813.398 78.3361C814.896 78.0126 816.457 78.1404 817.882 78.7033C819.308 79.2662 820.534 80.2389 821.406 81.4983C822.279 82.7578 822.758 84.2475 822.783 85.779C822.816 87.8326 822.032 89.8155 820.603 91.2914C819.174 92.7674 817.217 93.6156 815.162 93.6495Z" fill="white"/>
</g>
<path opacity="0.979603" d="M815.854 85.3091L814.188 86.5231L975.882 308.027L977.547 306.813L815.854 85.3091Z" fill="white"/>
<g opacity="0.685416">
<path opacity="0.685416" d="M982.962 302.867C983.865 304.104 984.381 305.582 984.444 307.112C984.507 308.642 984.114 310.157 983.316 311.465C982.517 312.772 981.349 313.813 979.958 314.457C978.568 315.101 977.017 315.318 975.503 315.081C973.989 314.844 972.579 314.164 971.452 313.126C970.324 312.089 969.53 310.74 969.17 309.252C968.809 307.763 968.898 306.201 969.426 304.763C969.954 303.325 970.897 302.076 972.135 301.173C973.796 299.963 975.869 299.462 977.9 299.779C979.93 300.097 981.751 301.207 982.962 302.867Z" fill="white"/>
</g>
<path opacity="0.980323" d="M975.764 306.994L905.62 457.484L907.489 458.354L977.633 307.864L975.764 306.994Z" fill="white"/>
<g opacity="0.8493">
<path opacity="0.8493" d="M913.576 461.188C912.929 462.576 911.884 463.742 910.574 464.537C909.264 465.332 907.748 465.721 906.217 465.654C904.685 465.588 903.208 465.07 901.972 464.164C900.736 463.259 899.796 462.008 899.271 460.568C898.746 459.129 898.66 457.567 899.024 456.079C899.388 454.591 900.185 453.244 901.315 452.209C902.444 451.174 903.856 450.497 905.37 450.263C906.885 450.03 908.435 450.25 909.824 450.897C911.687 451.765 913.129 453.336 913.833 455.266C914.536 457.196 914.444 459.326 913.576 461.188Z" fill="white"/>
</g>
<path opacity="0.984283" d="M1048.88 313.733L905.821 457.19L907.281 458.644L1050.34 315.187L1048.88 313.733Z" fill="white"/>
<g opacity="0.760004">
<path opacity="0.760004" d="M1044.12 308.993C1045.2 307.908 1046.58 307.168 1048.08 306.867C1049.58 306.566 1051.14 306.716 1052.56 307.3C1053.98 307.884 1055.19 308.874 1056.04 310.146C1056.9 311.419 1057.35 312.915 1057.36 314.447C1057.36 315.979 1056.91 317.477 1056.06 318.752C1055.21 320.027 1054 321.021 1052.58 321.61C1051.17 322.199 1049.61 322.355 1048.11 322.058C1046.6 321.762 1045.22 321.027 1044.14 319.946C1042.68 318.496 1041.86 316.527 1041.86 314.473C1041.85 312.419 1042.67 310.448 1044.12 308.993Z" fill="white"/>
</g>
<path opacity="0.27286" d="M1118.23 244.188L1048.88 313.733L1050.34 315.187L1119.69 245.642L1118.23 244.188Z" fill="white"/>
<g opacity="0.576038">
<path opacity="0.576038" d="M1113.47 239.448C1114.55 238.363 1115.93 237.623 1117.43 237.322C1118.93 237.02 1120.49 237.171 1121.91 237.755C1123.33 238.338 1124.54 239.329 1125.39 240.601C1126.25 241.873 1126.7 243.37 1126.71 244.901C1126.71 246.433 1126.26 247.931 1125.41 249.206C1124.56 250.481 1123.35 251.476 1121.93 252.064C1120.52 252.653 1118.96 252.809 1117.46 252.513C1115.95 252.217 1114.57 251.481 1113.49 250.4C1112.03 248.95 1111.21 246.982 1111.21 244.928C1111.2 242.874 1112.02 240.903 1113.47 239.448Z" fill="white"/>
</g>
<path opacity="0.495233" d="M1157.64 207.578L1119.69 245.642L1118.23 244.188L1155.43 206.877L1100.84 -112.213L935.574 84.768L933.994 83.4445L1102.12 -116.945L1157.64 207.578Z" fill="white"/>
<g opacity="0.961224">
<path opacity="0.961224" d="M940.723 89.082C939.738 90.2557 938.427 91.1113 936.956 91.5405C935.485 91.9697 933.919 91.9532 932.457 91.4932C930.995 91.0332 929.703 90.1503 928.743 88.9561C927.783 87.7619 927.199 86.3101 927.065 84.7842C926.931 83.2584 927.252 81.7271 927.989 80.3839C928.726 79.0407 929.844 77.946 931.204 77.2383C932.563 76.5305 934.102 76.2414 935.625 76.4076C937.149 76.5737 938.589 77.1877 939.763 78.1718C941.338 79.4917 942.323 81.3825 942.503 83.4284C942.683 85.4743 942.043 87.5079 940.723 89.082Z" fill="white"/>
</g>
<path opacity="0.635578" d="M902.116 -29.623L900.141 -29.0375L933.805 84.3964L935.781 83.8109L902.116 -29.623Z" fill="white"/>
<path opacity="0.75419" d="M1424.51 30.8255L1213.64 328.51L1211.95 327.32L1422.01 30.7971L1292.7 -160.898L1294.41 -162.05L1424.51 30.8255Z" fill="white"/>
<g opacity="0.945532">
<path opacity="0.945532" d="M1219.12 332.39C1218.23 333.64 1217 334.599 1215.57 335.147C1214.14 335.695 1212.57 335.806 1211.08 335.467C1209.58 335.128 1208.22 334.353 1207.17 333.241C1206.12 332.129 1205.42 330.73 1205.16 329.22C1204.9 327.71 1205.09 326.158 1205.72 324.759C1206.34 323.36 1207.37 322.178 1208.67 321.362C1209.96 320.546 1211.47 320.132 1213 320.173C1214.54 320.215 1216.02 320.709 1217.27 321.594C1218.95 322.781 1220.09 324.585 1220.43 326.61C1220.78 328.634 1220.31 330.713 1219.12 332.39Z" fill="white"/>
</g>
<path opacity="0.998997" d="M1158.64 206.27L1156.77 207.122L1211.88 328.332L1213.75 327.48L1158.64 206.27Z" fill="white"/>
<g opacity="0.288058">
<path opacity="0.288058" d="M1150.67 209.888C1150.04 208.494 1149.83 206.943 1150.08 205.431C1150.33 203.92 1151.02 202.516 1152.07 201.397C1153.11 200.279 1154.47 199.495 1155.96 199.147C1157.45 198.798 1159.01 198.899 1160.45 199.437C1161.88 199.976 1163.13 200.927 1164.02 202.172C1164.91 203.416 1165.42 204.897 1165.47 206.428C1165.52 207.959 1165.12 209.47 1164.31 210.772C1163.5 212.073 1162.32 213.105 1160.93 213.739C1159.06 214.588 1156.92 214.659 1155 213.937C1153.08 213.215 1151.52 211.758 1150.67 209.888Z" fill="white"/>
</g>
<path opacity="0.321193" d="M1101.89 81.342L1100.01 82.1941L1156.81 207.103L1158.69 206.251L1101.89 81.342Z" fill="white"/>
<g opacity="0.548529">
<path opacity="0.548529" d="M1093.92 84.9591C1093.28 83.5644 1093.08 82.0133 1093.33 80.5019C1093.58 78.9906 1094.27 77.5868 1095.31 76.4682C1096.36 75.3496 1097.72 74.5663 1099.21 74.2174C1100.7 73.8686 1102.26 73.9698 1103.7 74.5084C1105.13 75.0469 1106.38 75.9985 1107.27 77.2429C1108.16 78.4872 1108.67 79.9685 1108.72 81.4993C1108.77 83.0301 1108.37 84.5417 1107.56 85.843C1106.75 87.1442 1105.57 88.1767 1104.18 88.8098C1102.31 89.6585 1100.17 89.7296 1098.25 89.0075C1096.33 88.2854 1094.77 86.8292 1093.92 84.9591Z" fill="white"/>
</g>
<path opacity="0.676251" d="M1043.26 -47.7319L1041.38 -46.8799L1100.06 82.1734L1101.93 81.3214L1043.26 -47.7319Z" fill="white"/>
<path opacity="0.406868" d="M1061.45 -149.261L1060.11 -147.689L1365 110.299L1366.33 108.727L1061.45 -149.261Z" fill="white"/>
<g opacity="0.546915">
<path opacity="0.546915" d="M1370.67 103.602C1371.84 104.592 1372.69 105.906 1373.12 107.378C1373.54 108.851 1373.51 110.415 1373.05 111.874C1372.58 113.333 1371.69 114.62 1370.49 115.574C1369.29 116.527 1367.83 117.104 1366.31 117.23C1364.78 117.357 1363.25 117.028 1361.91 116.286C1360.57 115.543 1359.48 114.419 1358.78 113.058C1358.07 111.696 1357.79 110.157 1357.97 108.635C1358.14 107.113 1358.76 105.677 1359.75 104.508C1361.08 102.941 1362.98 101.965 1365.03 101.795C1367.07 101.625 1369.11 102.275 1370.67 103.602Z" fill="white"/>
</g>
<path opacity="0.768117" d="M1366.33 108.725L1365 110.297L1395.21 135.857L1396.54 134.285L1366.33 108.725Z" fill="white"/>
<g opacity="0.605484">
<path opacity="0.605484" d="M1400.88 129.161C1402.05 130.151 1402.9 131.465 1403.32 132.937C1403.74 134.41 1403.72 135.974 1403.25 137.433C1402.78 138.892 1401.89 140.179 1400.69 141.133C1399.5 142.086 1398.04 142.663 1396.51 142.789C1394.99 142.916 1393.45 142.587 1392.11 141.845C1390.77 141.102 1389.68 139.979 1388.98 138.617C1388.28 137.255 1388 135.716 1388.17 134.194C1388.35 132.672 1388.97 131.236 1389.96 130.067C1391.29 128.5 1393.18 127.524 1395.23 127.354C1397.28 127.184 1399.31 127.834 1400.88 129.161Z" fill="white"/>
</g>
<path opacity="0.886214" d="M1391.5 76.3661L1389.45 76.5548L1394.84 135.166L1396.9 134.977L1391.5 76.3661Z" fill="white"/>
<g opacity="0.634812">
<path opacity="0.634812" d="M1382.76 77.1708C1382.61 75.6456 1382.93 74.113 1383.66 72.7667C1384.39 71.4205 1385.51 70.3212 1386.86 69.6078C1388.22 68.8944 1389.76 68.5989 1391.28 68.7587C1392.8 68.9185 1394.25 69.5265 1395.43 70.5057C1396.6 71.4849 1397.47 72.7913 1397.9 74.2598C1398.34 75.7284 1398.33 77.293 1397.87 78.7559C1397.42 80.2187 1396.54 81.5141 1395.35 82.4783C1394.16 83.4424 1392.71 84.032 1391.18 84.1725C1389.14 84.3605 1387.1 83.7285 1385.52 82.4155C1383.94 81.1025 1382.94 79.216 1382.76 77.1708Z" fill="white"/>
</g>
<path opacity="0.250338" d="M1380.99 -37.6883L1378.94 -37.4996L1389.44 76.5553L1391.49 76.3666L1380.99 -37.6883Z" fill="white"/>
<path opacity="0.519095" d="M1101.22 -113.646L992.795 -143.644L864.601 22.6152L862.969 21.3578L992.009 -145.998L1101.77 -115.632L1101.22 -113.646Z" fill="white"/>
<g opacity="0.877975">
<path opacity="0.877975" d="M869.924 26.7133C868.988 27.9266 867.714 28.8355 866.262 29.325C864.809 29.8144 863.244 29.8625 861.765 29.4631C860.285 29.0637 858.957 28.2347 857.949 27.0811C856.941 25.9275 856.297 24.501 856.1 22.982C855.903 21.4629 856.162 19.9197 856.842 18.5473C857.523 17.1749 858.595 16.0351 859.924 15.2719C861.253 14.5088 862.779 14.1566 864.308 14.2599C865.837 14.3631 867.301 14.9173 868.515 15.8522C870.143 17.106 871.206 18.9546 871.47 20.9913C871.734 23.0281 871.178 25.0862 869.924 26.7133Z" fill="white"/>
</g>
<path opacity="0.960914" d="M862.969 21.3577L661.402 282.776L663.035 284.033L864.601 22.6148L862.969 21.3577Z" fill="white"/>
<g opacity="0.698647">
<path opacity="0.698647" d="M668.356 288.131C667.421 289.345 666.146 290.254 664.694 290.743C663.242 291.233 661.677 291.281 660.197 290.881C658.718 290.482 657.39 289.653 656.382 288.499C655.373 287.346 654.73 285.919 654.533 284.4C654.336 282.881 654.594 281.338 655.275 279.965C655.956 278.593 657.028 277.453 658.357 276.69C659.686 275.927 661.211 275.575 662.741 275.678C664.27 275.781 665.734 276.335 666.948 277.27C668.576 278.524 669.638 280.373 669.903 282.41C670.167 284.446 669.61 286.504 668.356 288.131Z" fill="white"/>
</g>
<path opacity="0.735122" d="M1401.18 82.39C1399.51 85.261 1396.78 87.3604 1393.58 88.2337C1390.37 89.107 1386.95 88.684 1384.06 87.0561C1381.17 85.4283 1379.03 82.7267 1378.11 79.5361C1377.2 76.3455 1377.57 72.9226 1379.16 70.0085C1380.75 67.0943 1383.43 64.9234 1386.61 63.9656C1389.79 63.0078 1393.22 63.3402 1396.16 64.8908C1399.09 66.4415 1401.3 69.0857 1402.3 72.2509C1403.3 75.4161 1403.01 78.8478 1401.5 81.803C1401.4 82.0021 1401.29 82.1985 1401.18 82.39ZM1380.67 70.4947C1380.58 70.6629 1380.48 70.8345 1380.39 71.0098C1379.73 72.3041 1379.33 73.7165 1379.21 75.166C1379.1 76.6156 1379.27 78.0739 1379.71 79.4579C1380.16 80.8418 1380.87 82.1242 1381.82 83.2317C1382.76 84.3392 1383.91 85.2502 1385.21 85.9126C1386.5 86.575 1387.92 86.9759 1389.37 87.0923C1390.82 87.2087 1392.28 87.0383 1393.66 86.591C1395.05 86.1437 1396.33 85.4281 1397.44 84.4852C1398.55 83.5423 1399.46 82.3904 1400.12 81.0955C1401.43 78.5267 1401.69 75.5462 1400.84 72.7888C1399.99 70.0315 1398.1 67.7152 1395.56 66.3332C1393.03 64.9513 1390.05 64.613 1387.27 65.3903C1384.49 66.1676 1382.12 67.9991 1380.67 70.4947Z" fill="white"/>
<path opacity="0.735122" d="M944.826 86.9341C943.814 88.9122 942.236 90.5458 940.295 91.6282C938.353 92.7107 936.133 93.1933 933.917 93.0152C931.701 92.837 929.587 92.006 927.843 90.6273C926.099 89.2486 924.804 87.3841 924.12 85.2696C923.437 83.155 923.396 80.8854 924.004 78.7478C924.611 76.6101 925.839 74.7005 927.532 73.2602C929.225 71.82 931.308 70.9139 933.516 70.6565C935.725 70.3991 937.96 70.802 939.939 71.8142C942.594 73.1718 944.599 75.5273 945.516 78.3627C946.432 81.1982 946.184 84.2813 944.826 86.9341Z" fill="white"/>
<path opacity="0.735122" d="M949.319 90.2274C947.106 94.0379 943.481 96.8243 939.228 97.9833C934.975 99.1424 930.436 98.5809 926.594 96.4203C922.752 94.2597 919.916 90.674 918.7 86.4393C917.484 82.2046 917.986 77.6616 920.097 73.7939C922.208 69.9261 925.758 67.0448 929.979 65.7736C934.2 64.5024 938.752 64.9436 942.649 67.0017C946.547 69.0599 949.477 72.5693 950.805 76.7704C952.133 80.9714 951.751 85.526 949.744 89.4483C949.608 89.7126 949.466 89.9733 949.319 90.2274ZM922.101 74.4393C921.972 74.6625 921.848 74.8904 921.729 75.123C920.849 76.841 920.316 78.7154 920.161 80.6393C920.005 82.5631 920.231 84.4987 920.824 86.3355C921.418 88.1723 922.367 89.8742 923.619 91.3441C924.871 92.814 926.4 94.0231 928.119 94.9022C929.838 95.7814 931.714 96.3134 933.639 96.4679C935.564 96.6224 937.501 96.3964 939.339 95.8027C941.177 95.2091 942.879 94.2594 944.35 93.008C945.82 91.7566 947.029 90.2279 947.908 88.5094C949.654 85.0998 949.999 81.1439 948.869 77.4842C947.739 73.8245 945.224 70.7502 941.86 68.916C938.496 67.0818 934.548 66.6327 930.858 67.6644C927.167 68.6961 924.025 71.127 922.101 74.4393Z" fill="white"/>
<g opacity="0.22">
<g opacity="0.5">
<path opacity="0.654624" d="M666.63 -22.7654L668.046 -21.9687L636.148 16.8834L634.732 16.0866L666.63 -22.7654Z" fill="#0F0F0F"/>
<g opacity="0.811058">
<path opacity="0.811058" d="M630.116 13.4893C629.4 14.361 629.012 15.3889 629.002 16.4428C628.992 17.4968 629.36 18.5296 630.059 19.4105C630.758 20.2915 631.757 20.981 632.93 21.392C634.102 21.803 635.395 21.917 636.646 21.7195C637.897 21.5221 639.049 21.022 639.956 20.2826C640.864 19.5432 641.486 18.5977 641.744 17.5656C642.002 16.5335 641.885 15.4612 641.407 14.4843C640.929 13.5074 640.112 12.6697 639.059 12.0773C637.646 11.2831 635.911 10.9856 634.234 11.2504C632.557 11.5152 631.075 12.3206 630.116 13.4893Z" fill="#0F0F0F"/>
</g>
<path opacity="0.466878" d="M549.735 119.614L634.733 16.0871L636.148 16.8834L548.176 124.033L537.475 -181.919L539.188 -181.919L549.735 119.614Z" fill="#0F0F0F"/>
<path opacity="0.811368" d="M604.79 55.4784L605.319 54.1308L726.883 86.8291L583.141 -181.919L585.013 -181.919L730.001 89.1577L604.79 55.4784Z" fill="#0F0F0F"/>
<g opacity="0.578736">
<path opacity="0.578736" d="M607.044 49.7365C605.833 49.4108 604.533 49.3897 603.307 49.6757C602.082 49.9618 600.986 50.5422 600.159 51.3437C599.333 52.1451 598.811 53.1315 598.661 54.1782C598.512 55.2249 598.74 56.2848 599.318 57.2239C599.896 58.163 600.798 58.9392 601.909 59.4542C603.02 59.9692 604.29 60.2 605.56 60.1173C606.829 60.0346 608.04 59.6422 609.04 58.9897C610.04 58.3372 610.784 57.4539 611.177 56.4515C611.705 55.1074 611.566 53.6448 610.791 52.3856C610.015 51.1263 608.668 50.1734 607.044 49.7365Z" fill="#0F0F0F"/>
</g>
<path opacity="0.525458" d="M591.674 50.4592L605.319 54.1316L604.79 55.4792L591.145 51.8068L591.674 50.4592Z" fill="#0F0F0F"/>
<g opacity="0.263755">
<path opacity="0.263755" d="M593.398 46.0661C592.187 45.7403 590.886 45.7192 589.661 46.0052C588.435 46.2913 587.34 46.8718 586.513 47.6732C585.686 48.4746 585.165 49.4611 585.015 50.5077C584.865 51.5544 585.094 52.6143 585.672 53.5534C586.25 54.4925 587.151 55.2687 588.262 55.7837C589.373 56.2987 590.644 56.5294 591.913 56.4468C593.182 56.3641 594.394 55.9717 595.394 55.3192C596.394 54.6667 597.137 53.7834 597.531 52.781C598.058 51.4369 597.919 49.9744 597.144 48.7151C596.369 47.4559 595.021 46.503 593.398 46.0661Z" fill="#0F0F0F"/>
</g>
<path opacity="0.678233" d="M546.607 38.3359L591.672 50.4628L591.143 51.8105L546.078 39.6836L546.607 38.3359Z" fill="#0F0F0F"/>
<g opacity="0.911256">
<path opacity="0.911256" d="M548.331 33.944C547.12 33.6182 545.82 33.597 544.594 33.8831C543.369 34.1692 542.273 34.7496 541.446 35.551C540.62 36.3525 540.098 37.3389 539.948 38.3856C539.799 39.4322 540.027 40.4921 540.605 41.4313C541.183 42.3704 542.085 43.1465 543.196 43.6615C544.307 44.1766 545.577 44.4073 546.846 44.3247C548.116 44.242 549.327 43.8496 550.327 43.1972C551.327 42.5447 552.071 41.6614 552.464 40.659C552.992 39.3148 552.853 37.8523 552.078 36.593C551.303 35.3337 549.955 34.3808 548.331 33.944Z" fill="#0F0F0F"/>
</g>
<path opacity="0.297002" d="M267.704 -36.7026L546.599 38.3577L546.069 39.7054L267.174 -35.3549L267.704 -36.7026Z" fill="#0F0F0F"/>
<path opacity="0.320836" d="M650.7 -54.3342L652.242 -53.718L549.727 122.132L548.184 121.516L650.7 -54.3342Z" fill="#0F0F0F"/>
<g opacity="0.899716">
<path opacity="0.899716" d="M543.158 119.508C542.604 120.457 542.403 121.521 542.58 122.565C542.757 123.608 543.304 124.585 544.152 125.372C545 126.158 546.11 126.719 547.343 126.983C548.575 127.247 549.875 127.203 551.077 126.855C552.279 126.508 553.33 125.873 554.096 125.032C554.863 124.19 555.311 123.179 555.383 122.127C555.456 121.075 555.149 120.028 554.503 119.12C553.857 118.212 552.9 117.483 551.754 117.025C550.216 116.41 548.446 116.327 546.834 116.793C545.222 117.259 543.9 118.235 543.158 119.508Z" fill="#0F0F0F"/>
</g>
<path opacity="0.22822" d="M515.011 30.094L549.752 121.617L548.118 122.042L513.378 30.5188L515.011 30.094Z" fill="#0F0F0F"/>
<g opacity="0.783568">
<path opacity="0.783568" d="M512.272 35.4017C508.876 34.5305 506.975 31.545 508.027 28.7336C509.078 25.9221 512.683 24.3492 516.079 25.2205C519.475 26.0917 521.376 29.0772 520.325 31.8886C519.274 34.7001 515.668 36.273 512.272 35.4017Z" fill="#0F0F0F"/>
</g>
<path opacity="0.856333" d="M316.553 -138.807L316.404 -137.395L453.313 -127.463L513.359 30.5241L514.992 30.0991L454.602 -128.792L316.553 -138.807Z" fill="#0F0F0F"/>
<path opacity="0.832256" d="M542.084 -59.69L620.235 1.78802L619.056 2.81564L540.904 -58.6623L542.084 -59.69Z" fill="#0F0F0F"/>
<g opacity="0.650612">
<path opacity="0.650612" d="M615.191 6.17785C616.113 6.90425 617.275 7.38788 618.53 7.56759C619.785 7.74729 621.075 7.615 622.239 7.18744C623.403 6.75989 624.387 6.05625 625.068 5.16554C625.749 4.27483 626.095 3.23704 626.063 2.1834C626.032 1.12976 625.623 0.107605 624.889 -0.753823C624.156 -1.61525 623.13 -2.27725 621.942 -2.65612C620.754 -3.03498 619.456 -3.11369 618.214 -2.88229C616.972 -2.65089 615.841 -2.11978 614.963 -1.35612C613.787 -0.332004 613.15 1.03703 613.192 2.44989C613.235 3.86274 613.954 5.20371 615.191 6.17785Z" fill="#0F0F0F"/>
</g>
<path opacity="0.671925" d="M620.195 1.82338L729.056 87.4587L727.876 88.4863L619.015 2.85098L620.195 1.82338Z" fill="#0F0F0F"/>
<g opacity="0.569208">
<path opacity="0.569208" d="M724.005 91.8547C724.928 92.5811 726.09 93.0647 727.344 93.2444C728.599 93.4241 729.89 93.2918 731.054 92.8643C732.217 92.4367 733.202 91.7331 733.883 90.8423C734.563 89.9516 734.91 88.9139 734.878 87.8602C734.846 86.8066 734.437 85.7844 733.704 84.923C732.97 84.0615 731.944 83.3995 730.756 83.0207C729.568 82.6418 728.271 82.5631 727.029 82.7945C725.786 83.0259 724.655 83.557 723.778 84.3207C722.601 85.3448 721.964 86.7138 722.007 88.1267C722.049 89.5396 722.768 90.8805 724.005 91.8547Z" fill="#0F0F0F"/>
</g>
<path opacity="0.742891" d="M837.938 71.9756L728.598 88.6899L728.286 87.2969L836.897 70.6929L1032.35 -181.919L1034.38 -181.919L838.138 71.7165L837.938 71.9756Z" fill="#0F0F0F"/>
<path opacity="0.239653" d="M710.158 -74.9982L838.12 70.9121L836.734 71.7449L708.772 -74.1654L710.158 -74.9982Z" fill="#0F0F0F"/>
<g opacity="0.79485">
<path opacity="0.79485" d="M832.207 74.4643C832.955 75.3172 833.992 75.9675 835.187 76.3328C836.381 76.698 837.679 76.7619 838.918 76.5164C840.156 76.2708 841.278 75.7268 842.143 74.9532C843.008 74.1796 843.576 73.2111 843.776 72.1701C843.976 71.1292 843.798 70.0626 843.265 69.1052C842.733 68.1479 841.869 67.3427 840.784 66.7916C839.699 66.2405 838.44 65.9682 837.168 66.0091C835.895 66.05 834.666 66.4023 833.636 67.0214C832.254 67.8517 831.328 69.1022 831.06 70.498C830.792 71.8937 831.205 73.3204 832.207 74.4643Z" fill="#0F0F0F"/>
</g>
<path opacity="0.568358" d="M819.482 -76.6376L838.264 71.2607L836.561 71.4089L817.779 -76.4895L819.482 -76.6376Z" fill="#0F0F0F"/>
</g>
<g opacity="0.5">
<path opacity="0.281536" d="M1106.69 4.12399L1106.58 5.90873L979.105 -2.20047L1104.52 -188.332L1107.04 -188.869L982.331 -3.78794L1106.69 4.12399Z" fill="#0F0F0F"/>
<g opacity="0.742826">
<path opacity="0.742826" d="M1106.21 11.7276C1107.54 11.812 1108.86 11.5009 1110.01 10.8336C1111.16 10.1664 1112.08 9.17296 1112.67 7.97894C1113.26 6.78492 1113.47 5.44392 1113.3 4.12559C1113.12 2.80725 1112.56 1.57084 1111.68 0.572552C1110.8 -0.425735 1109.65 -1.14101 1108.36 -1.48276C1107.08 -1.82451 1105.72 -1.77739 1104.46 -1.34742C1103.2 -0.917439 1102.1 -0.123929 1101.29 0.932848C1100.49 1.98962 1100.01 3.26219 1099.93 4.58957C1099.82 6.36943 1100.41 8.12127 1101.59 9.45985C1102.77 10.7984 1104.43 11.6142 1106.21 11.7276Z" fill="#0F0F0F"/>
</g>
<path opacity="0.755944" d="M1357.29 21.8593L1185.97 -85.1329L1160.66 7.55703L1106.69 4.12399L1106.58 5.90876L1357.29 21.8593ZM1187.06 -82.3425L1350.34 19.6238L1162.48 7.67325L1187.06 -82.3425Z" fill="#0F0F0F"/>
<g opacity="0.97709">
<path opacity="0.97709" d="M1154.99 6.21766C1154.64 7.5006 1154.67 8.85878 1155.09 10.1204C1155.52 11.382 1156.3 12.4905 1157.35 13.3056C1158.4 14.1206 1159.67 14.6058 1161 14.6995C1162.32 14.7933 1163.65 14.4916 1164.8 13.8324C1165.96 13.1733 1166.89 12.1864 1167.48 10.9966C1168.08 9.8067 1168.3 8.46725 1168.14 7.14772C1167.97 5.82818 1167.41 4.58779 1166.54 3.58335C1165.67 2.57891 1164.52 1.85554 1163.24 1.50476C1161.52 1.0346 1159.68 1.26703 1158.14 2.15083C1156.59 3.03464 1155.46 4.49745 1154.99 6.21766Z" fill="#0F0F0F"/>
</g>
<path opacity="0.611018" d="M1082.1 302.096L1082.41 300.95L1162.33 8.22668L1160.61 7.75531L1081 299.333L732.233 87.1353L812.341 57.1731L811.714 55.4967L728.159 86.7501L1082.1 302.096Z" fill="#0F0F0F"/>
<g opacity="0.579343">
<path opacity="0.579343" d="M814.382 62.6337C815.627 62.168 816.706 61.3433 817.482 60.264C818.259 59.1846 818.698 57.8991 818.744 56.5699C818.79 55.2407 818.442 53.9273 817.742 52.7963C817.042 51.6652 816.023 50.7671 814.814 50.2154C813.604 49.6637 812.258 49.4833 810.946 49.6969C809.634 49.9106 808.415 50.5088 807.443 51.4158C806.471 52.3228 805.789 53.4979 805.485 54.7925C805.18 56.0871 805.267 57.4432 805.732 58.689C806.357 60.3595 807.619 61.7135 809.241 62.4533C810.863 63.193 812.712 63.2579 814.382 62.6337Z" fill="#0F0F0F"/>
</g>
<path opacity="0.285987" d="M812.341 57.1733L811.715 55.4969L1185.29 -84.2334L1132.71 -194.344L1134.51 -194.727L1187.74 -83.2415L812.341 57.1733Z" fill="#0F0F0F"/>
<path opacity="0.997416" d="M824.908 174.734L826.113 173.413L731.587 87.0035L955.459 -84.434L954.372 -85.8536L728.804 86.8827L824.908 174.734Z" fill="#0F0F0F"/>
<g opacity="0.980722">
<path opacity="0.980722" d="M820.978 179.038C821.96 179.935 823.185 180.521 824.499 180.721C825.813 180.922 827.157 180.728 828.361 180.164C829.565 179.601 830.574 178.692 831.262 177.554C831.95 176.416 832.285 175.1 832.225 173.771C832.165 172.442 831.712 171.161 830.924 170.09C830.137 169.018 829.049 168.204 827.799 167.751C826.549 167.298 825.193 167.226 823.903 167.544C822.612 167.861 821.445 168.555 820.548 169.537C819.346 170.854 818.716 172.594 818.797 174.376C818.878 176.158 819.662 177.834 820.978 179.038Z" fill="#0F0F0F"/>
</g>
<path opacity="0.750912" d="M992.457 325.497L991.251 326.817L824.919 174.721L826.125 173.401L992.457 325.497Z" fill="#0F0F0F"/>
<g opacity="0.960049">
<path opacity="0.960049" d="M987.332 331.108C988.314 332.006 989.539 332.592 990.853 332.792C992.168 332.993 993.511 332.799 994.715 332.235C995.919 331.671 996.929 330.763 997.617 329.625C998.304 328.487 998.639 327.171 998.579 325.842C998.519 324.513 998.067 323.232 997.279 322.161C996.491 321.089 995.404 320.275 994.154 319.822C992.904 319.369 991.548 319.297 990.257 319.615C988.967 319.932 987.799 320.626 986.903 321.608C985.701 322.925 985.071 324.665 985.151 326.447C985.232 328.228 986.016 329.905 987.332 331.108Z" fill="#0F0F0F"/>
</g>
<path opacity="0.780184" d="M1081.63 301.003L992.115 327.002L991.617 325.285L1081.13 299.286L1081.63 301.003Z" fill="#0F0F0F"/>
<g opacity="0.479299">
<path opacity="0.479299" d="M1083.26 306.602C1084.53 306.232 1085.67 305.491 1086.53 304.473C1087.38 303.455 1087.92 302.206 1088.06 300.884C1088.21 299.562 1087.96 298.226 1087.35 297.046C1086.73 295.865 1085.79 294.893 1084.62 294.252C1083.46 293.611 1082.13 293.33 1080.8 293.444C1079.48 293.559 1078.22 294.063 1077.18 294.895C1076.14 295.726 1075.38 296.847 1074.97 298.115C1074.57 299.383 1074.56 300.741 1074.93 302.019C1075.43 303.731 1076.58 305.176 1078.15 306.036C1079.71 306.896 1081.55 307.099 1083.26 306.602Z" fill="#0F0F0F"/>
</g>
<path opacity="0.242142" d="M1316.52 232.78L1081.63 301.003L1081.13 299.286L1316.02 231.063L1316.52 232.78Z" fill="#0F0F0F"/>
<g opacity="0.680183">
<path opacity="0.680183" d="M1318.14 238.38C1319.42 238.009 1320.56 237.268 1321.41 236.25C1322.27 235.232 1322.8 233.983 1322.95 232.661C1323.1 231.339 1322.85 230.003 1322.23 228.823C1321.62 227.642 1320.67 226.67 1319.51 226.029C1318.34 225.388 1317.01 225.107 1315.69 225.222C1314.37 225.336 1313.1 225.841 1312.07 226.672C1311.03 227.504 1310.26 228.624 1309.86 229.892C1309.46 231.16 1309.44 232.519 1309.82 233.796C1310.31 235.509 1311.47 236.954 1313.03 237.813C1314.59 238.673 1316.43 238.877 1318.14 238.38Z" fill="#0F0F0F"/>
</g>
<path opacity="0.628184" d="M1316.94 231.289L1315.63 232.506L1148.65 52.4128L1149.96 51.1964L1316.94 231.289Z" fill="#0F0F0F"/>
<g opacity="0.411604">
<path opacity="0.411604" d="M1154.26 47.2146C1153.35 46.2392 1152.18 45.5537 1150.89 45.245C1149.59 44.9363 1148.24 45.0182 1146.99 45.4803C1145.75 45.9424 1144.66 46.764 1143.89 47.8411C1143.11 48.9183 1142.66 50.2026 1142.61 51.5317C1142.56 52.8608 1142.91 54.175 1143.6 55.3081C1144.3 56.4412 1145.32 57.3424 1146.53 57.8975C1147.73 58.4527 1149.08 58.6369 1150.39 58.427C1151.7 58.217 1152.93 57.6224 1153.9 56.7182C1155.21 55.5056 1155.98 53.8231 1156.05 52.0409C1156.11 50.2587 1155.47 48.5227 1154.26 47.2146Z" fill="#0F0F0F"/>
</g>
<path opacity="0.430298" d="M1149.99 51.1677L1148.68 52.384L1065.04 -37.8252L1066.35 -39.0415L1149.99 51.1677Z" fill="#0F0F0F"/>
<path opacity="0.373344" d="M983.117 -3.77733L981.418 -3.2219L932.948 -151.743L934.707 -152.118L983.117 -3.77733Z" fill="#0F0F0F"/>
<g opacity="0.294542">
<path opacity="0.294542" d="M975.879 -1.41376C976.291 -0.149313 977.069 0.964354 978.115 1.7865C979.16 2.60864 980.425 3.10231 981.75 3.20503C983.076 3.30776 984.401 3.01498 985.56 2.36366C986.719 1.71235 987.659 0.73174 988.261 -0.454082C988.862 -1.6399 989.099 -2.97777 988.941 -4.2984C988.783 -5.61903 988.237 -6.86311 987.372 -7.87341C986.507 -8.88371 985.362 -9.61486 984.082 -9.9743C982.802 -10.3337 981.445 -10.3054 980.181 -9.89278C978.487 -9.33938 977.082 -8.13524 976.275 -6.54519C975.468 -4.95514 975.326 -3.10929 975.879 -1.41376Z" fill="#0F0F0F"/>
</g>
<path opacity="0.675331" d="M1013.89 90.4937L1012.19 91.0488L981.404 -3.22465L983.104 -3.77979L1013.89 90.4937Z" fill="#0F0F0F"/>
<g opacity="0.845093">
<path opacity="0.845093" d="M1006.65 92.8653C1007.06 94.1297 1007.84 95.2435 1008.88 96.0657C1009.93 96.8878 1011.19 97.3813 1012.52 97.4841C1013.84 97.5868 1015.17 97.294 1016.33 96.6427C1017.49 95.9914 1018.43 95.0108 1019.03 93.8249C1019.63 92.6391 1019.87 91.3014 1019.71 89.9807C1019.55 88.6601 1019 87.416 1018.14 86.4057C1017.27 85.3954 1016.13 84.6643 1014.85 84.3048C1013.57 83.9454 1012.21 83.9738 1010.95 84.3864C1009.25 84.9397 1007.85 86.1438 1007.04 87.7339C1006.24 89.3239 1006.09 91.1697 1006.65 92.8653Z" fill="#0F0F0F"/>
</g>
<path opacity="0.978333" d="M1083.15 302.734L1013.88 90.5025L1012.19 91.0574L1079.95 298.695L905.409 192.501L904.481 194.029L1083.15 302.734Z" fill="#0F0F0F"/>
<g opacity="0.457701">
<path opacity="0.457701" d="M908.436 187.519C907.3 186.828 905.985 186.489 904.657 186.546C903.329 186.603 902.047 187.052 900.975 187.837C899.902 188.623 899.086 189.709 898.631 190.958C898.175 192.208 898.1 193.564 898.415 194.856C898.73 196.149 899.421 197.318 900.4 198.218C901.38 199.118 902.604 199.706 903.917 199.91C905.231 200.114 906.575 199.923 907.78 199.362C908.986 198.801 909.997 197.895 910.688 196.759C911.613 195.235 911.896 193.406 911.474 191.673C911.052 189.94 909.959 188.446 908.436 187.519Z" fill="#0F0F0F"/>
</g>
<path opacity="0.753451" d="M905.419 192.483L904.49 194.012L729.72 87.7248L730.649 86.1962L905.419 192.483Z" fill="#0F0F0F"/>
<path opacity="0.85" d="M734.856 79.1685C733.321 78.2345 731.544 77.777 729.749 77.8536C727.954 77.9302 726.222 78.5377 724.773 79.5991C723.323 80.6606 722.221 82.1283 721.605 83.8168C720.99 85.5053 720.888 87.3386 721.314 89.0851C721.74 90.8315 722.674 92.4125 723.997 93.6282C725.321 94.8439 726.975 95.6396 728.75 95.9148C730.526 96.19 732.343 95.9322 733.971 95.1742C735.6 94.4161 736.967 93.1919 737.9 91.6561C739.151 89.5966 739.534 87.1241 738.963 84.7823C738.392 82.4405 736.915 80.4211 734.856 79.1685Z" fill="#0F0F0F"/>
<path opacity="0.363132" d="M844.066 -82.06L730.939 87.4398L729.453 86.4461L842.579 -83.0537L844.066 -82.06Z" fill="#0F0F0F"/>
<path opacity="0.702982" d="M1353.89 20.7625L1419.59 -197.502L1420.37 -193.872L1355.6 21.2782L1353.89 20.7625Z" fill="#0F0F0F"/>
<g opacity="0.256863">
<path opacity="0.256863" d="M1348.31 19.0792C1347.92 20.3527 1347.93 21.7113 1348.31 22.9834C1348.7 24.2556 1349.46 25.384 1350.49 26.226C1351.52 27.068 1352.77 27.5858 1354.1 27.7139C1355.42 27.842 1356.75 27.5746 1357.92 26.9456C1359.09 26.3166 1360.05 25.3542 1360.68 24.1801C1361.3 23.0061 1361.56 21.673 1361.43 20.3496C1361.3 19.0262 1360.77 17.7719 1359.93 16.7452C1359.08 15.7185 1357.95 14.9656 1356.68 14.5817C1354.97 14.0671 1353.13 14.2518 1351.56 15.0952C1349.99 15.9387 1348.82 17.3717 1348.31 19.0792Z" fill="#0F0F0F"/>
</g>
<path opacity="0.505781" d="M1355.6 21.2785L1298.06 212.416L1296.35 211.9L1353.89 20.7623L1355.6 21.2785Z" fill="#0F0F0F"/>
<g opacity="0.910817">
<path opacity="0.910817" d="M1290.77 210.217C1290.38 211.49 1290.39 212.849 1290.77 214.121C1291.16 215.393 1291.92 216.521 1292.95 217.363C1293.98 218.205 1295.23 218.723 1296.56 218.851C1297.88 218.979 1299.21 218.712 1300.38 218.083C1301.55 217.454 1302.51 216.492 1303.14 215.317C1303.76 214.143 1304.02 212.81 1303.89 211.487C1303.76 210.164 1303.23 208.909 1302.39 207.883C1301.54 206.856 1300.41 206.103 1299.14 205.719C1297.43 205.204 1295.59 205.389 1294.02 206.233C1292.45 207.076 1291.28 208.509 1290.77 210.217Z" fill="#0F0F0F"/>
</g>
<path opacity="0.803648" d="M1298.08 211.831L1296.4 212.458L1221.74 13.0852L1223.41 12.4579L1298.08 211.831Z" fill="#0F0F0F"/>
<g opacity="0.995942">
<path opacity="0.995942" d="M1228.9 10.4018C1228.44 9.15601 1227.61 8.07647 1226.54 7.29953C1225.46 6.5226 1224.17 6.08319 1222.84 6.03694C1221.51 5.99069 1220.2 6.33965 1219.07 7.03968C1217.94 7.73971 1217.04 8.75942 1216.49 9.96977C1215.94 11.1801 1215.76 12.5268 1215.98 13.8395C1216.19 15.1523 1216.79 16.372 1217.7 17.3446C1218.6 18.3172 1219.78 18.9989 1221.07 19.3036C1222.37 19.6083 1223.72 19.5222 1224.97 19.0562C1226.64 18.4312 1227.99 17.1684 1228.73 15.5454C1229.47 13.9225 1229.53 12.0723 1228.9 10.4018Z" fill="#0F0F0F"/>
</g>
<path opacity="0.285774" d="M1223.46 12.4378L1221.79 13.065L1185.66 -83.4177L1187.33 -84.045L1223.46 12.4378Z" fill="#0F0F0F"/>
<path opacity="0.647922" d="M732.624 101.609C736.471 101.014 739.929 98.9277 742.25 95.8005C744.571 92.6733 745.567 88.7572 745.023 84.8998C744.479 81.0424 742.439 77.5541 739.344 75.1901C736.249 72.8261 732.348 71.7765 728.486 72.2687C724.624 72.7609 721.112 74.7551 718.709 77.8197C716.307 80.8843 715.207 84.7727 715.649 88.6432C716.09 92.5136 718.038 96.0546 721.069 98.4997C724.101 100.945 727.972 102.097 731.846 101.708C732.107 101.681 732.367 101.648 732.624 101.609ZM728.373 74.1265C728.599 74.0918 728.826 74.0631 729.055 74.0403C730.752 73.8695 732.466 74.0347 734.099 74.5265C735.732 75.0184 737.252 75.8271 738.573 76.9067C739.894 77.9863 740.989 79.3156 741.796 80.8187C742.604 82.3217 743.107 83.9691 743.279 85.6667C743.45 87.3643 743.285 89.0789 742.794 90.7127C742.303 92.3465 741.495 93.8674 740.416 95.1887C739.338 96.5099 738.009 97.6054 736.507 98.4129C735.006 99.2204 733.359 99.724 731.663 99.8948C728.295 100.234 724.928 99.2442 722.279 97.1364C719.629 95.0286 717.907 91.9693 717.478 88.6101C717.049 85.2509 717.948 81.8573 719.983 79.1521C722.018 76.4468 725.029 74.6435 728.373 74.1265Z" fill="#0F0F0F"/>
</g>
</g>
</svg>
