<svg width="1541" height="563" viewBox="0 0 1541 563" fill="none" xmlns="http://www.w3.org/2000/svg">
<g opacity="0.95">
<path opacity="0.548932" d="M1465.08 446.89L1216.05 441.338L1172.7 377.601L1171.29 378.562L1215.13 443.029L1462.23 448.538L1395.5 570.712H1397.45L1464.41 448.124L1465.08 446.89Z" fill="white"/>
<g opacity="0.261186">
<path opacity="0.261186" d="M1166.67 381.698C1165.95 380.646 1165.57 379.405 1165.56 378.133C1165.55 376.86 1165.92 375.613 1166.61 374.55C1167.31 373.486 1168.31 372.654 1169.48 372.158C1170.66 371.661 1171.95 371.524 1173.2 371.762C1174.45 372.001 1175.6 372.604 1176.51 373.497C1177.42 374.39 1178.04 375.531 1178.3 376.777C1178.56 378.023 1178.44 379.318 1177.96 380.497C1177.48 381.677 1176.67 382.688 1175.61 383.403C1174.2 384.362 1172.47 384.721 1170.79 384.401C1169.11 384.082 1167.63 383.109 1166.67 381.698Z" fill="white"/>
</g>
<path opacity="0.654624" d="M1171.29 378.563L1172.7 377.601L1140.81 330.694L1139.39 331.656L1171.29 378.563Z" fill="white"/>
<g opacity="0.811058">
<path opacity="0.811058" d="M1134.77 334.792C1134.06 333.739 1133.67 332.498 1133.66 331.226C1133.65 329.953 1134.02 328.707 1134.72 327.643C1135.42 326.579 1136.41 325.747 1137.59 325.251C1138.76 324.754 1140.05 324.617 1141.3 324.855C1142.55 325.094 1143.71 325.697 1144.61 326.59C1145.52 327.483 1146.14 328.624 1146.4 329.87C1146.66 331.116 1146.54 332.411 1146.06 333.591C1145.59 334.77 1144.77 335.781 1143.72 336.496C1142.3 337.455 1140.57 337.814 1138.89 337.495C1137.21 337.175 1135.73 336.203 1134.77 334.792Z" fill="white"/>
</g>
<path opacity="0.466878" d="M1054.39 206.665L1139.39 331.655L1140.8 330.694L1052.83 201.33L1042.13 570.712H1043.84L1054.39 206.665Z" fill="white"/>
<path opacity="0.811368" d="M1109.45 284.098L1109.98 285.725L1231.54 246.247L1087.8 570.712H1089.67L1234.66 243.436L1109.45 284.098Z" fill="white"/>
<g opacity="0.578736">
<path opacity="0.578736" d="M1111.7 291.03C1110.49 291.423 1109.19 291.449 1107.96 291.103C1106.74 290.758 1105.64 290.057 1104.82 289.09C1103.99 288.122 1103.47 286.931 1103.32 285.667C1103.17 284.404 1103.4 283.124 1103.98 281.99C1104.55 280.856 1105.46 279.919 1106.57 279.298C1107.68 278.676 1108.95 278.397 1110.22 278.497C1111.49 278.597 1112.7 279.071 1113.7 279.858C1114.7 280.646 1115.44 281.713 1115.83 282.923C1116.36 284.546 1116.22 286.311 1115.45 287.832C1114.67 289.352 1113.33 290.502 1111.7 291.03Z" fill="white"/>
</g>
<path opacity="0.525458" d="M1096.33 290.157L1109.98 285.724L1109.45 284.097L1095.8 288.53L1096.33 290.157Z" fill="white"/>
<g opacity="0.263755">
<path opacity="0.263755" d="M1098.05 295.461C1096.84 295.855 1095.54 295.88 1094.32 295.535C1093.09 295.189 1092 294.489 1091.17 293.521C1090.34 292.553 1089.82 291.362 1089.67 290.099C1089.52 288.835 1089.75 287.556 1090.33 286.422C1090.91 285.288 1091.81 284.351 1092.92 283.729C1094.03 283.107 1095.3 282.829 1096.57 282.929C1097.84 283.028 1099.05 283.502 1100.05 284.29C1101.05 285.078 1101.79 286.144 1102.19 287.354C1102.72 288.977 1102.58 290.743 1101.8 292.263C1101.03 293.783 1099.68 294.934 1098.05 295.461Z" fill="white"/>
</g>
<path opacity="0.678233" d="M1051.26 304.794L1096.33 290.153L1095.8 288.526L1050.73 303.167L1051.26 304.794Z" fill="white"/>
<g opacity="0.911256">
<path opacity="0.911256" d="M1052.99 310.097C1051.78 310.49 1050.48 310.515 1049.25 310.17C1048.03 309.825 1046.93 309.124 1046.1 308.156C1045.28 307.189 1044.76 305.998 1044.61 304.734C1044.46 303.47 1044.68 302.191 1045.26 301.057C1045.84 299.923 1046.74 298.986 1047.85 298.364C1048.96 297.743 1050.23 297.464 1051.5 297.564C1052.77 297.664 1053.98 298.137 1054.98 298.925C1055.98 299.713 1056.73 300.779 1057.12 301.989C1057.65 303.612 1057.51 305.378 1056.73 306.898C1055.96 308.419 1054.61 309.569 1052.99 310.097Z" fill="white"/>
</g>
<path opacity="0.297002" d="M772.361 395.389L1051.26 304.768L1050.73 303.141L771.832 393.762L772.361 395.389Z" fill="white"/>
<g opacity="0.407396">
<path opacity="0.407396" d="M774.078 400.671C772.867 401.064 771.567 401.09 770.341 400.744C769.116 400.399 768.02 399.698 767.194 398.731C766.367 397.763 765.845 396.572 765.696 395.308C765.546 394.045 765.775 392.765 766.353 391.631C766.931 390.498 767.832 389.56 768.943 388.939C770.054 388.317 771.324 388.038 772.594 388.138C773.863 388.238 775.074 388.712 776.074 389.499C777.074 390.287 777.818 391.354 778.211 392.564C778.739 394.187 778.6 395.952 777.825 397.473C777.05 398.993 775.702 400.143 774.078 400.671Z" fill="white"/>
</g>
<path opacity="0.456858" d="M1041.58 556.219L1042.45 554.75L772.527 393.818L771.65 395.287L1041.58 556.219Z" fill="white"/>
<g opacity="0.213724">
<path opacity="0.213724" d="M1045.31 549.959C1046.41 550.611 1047.28 551.572 1047.83 552.721C1048.38 553.87 1048.57 555.156 1048.39 556.415C1048.2 557.674 1047.65 558.85 1046.79 559.795C1045.94 560.739 1044.83 561.41 1043.59 561.722C1042.36 562.033 1041.06 561.972 1039.86 561.546C1038.66 561.12 1037.61 560.348 1036.85 559.327C1036.09 558.307 1035.65 557.084 1035.59 555.813C1035.52 554.542 1035.83 553.28 1036.49 552.188C1037.36 550.722 1038.78 549.664 1040.44 549.246C1042.09 548.828 1043.85 549.085 1045.31 549.959Z" fill="white"/>
</g>
<path opacity="0.672518" d="M1041.58 556.219L1065.88 570.712H1069.23L1042.45 554.75L1041.58 556.219Z" fill="white"/>
<path opacity="0.941167" d="M1155.36 416.676L1229.74 570.712H1231.64L1156.9 415.932L1155.36 416.676Z" fill="white"/>
<g opacity="0.694362">
<path opacity="0.694362" d="M1150.33 419.1C1149.78 417.954 1149.58 416.67 1149.75 415.41C1149.93 414.15 1150.48 412.97 1151.32 412.021C1152.17 411.071 1153.28 410.394 1154.51 410.076C1155.75 409.757 1157.05 409.81 1158.25 410.23C1159.45 410.649 1160.5 411.415 1161.27 412.431C1162.03 413.447 1162.48 414.668 1162.56 415.938C1162.63 417.209 1162.32 418.472 1161.68 419.568C1161.03 420.665 1160.07 421.545 1158.93 422.098C1157.39 422.84 1155.62 422.941 1154.01 422.378C1152.39 421.816 1151.07 420.637 1150.33 419.1Z" fill="white"/>
</g>
<path opacity="0.320836" d="M1155.36 416.676L1156.9 415.932L1054.38 203.625L1052.84 204.369L1155.36 416.676Z" fill="white"/>
<g opacity="0.899716">
<path opacity="0.899716" d="M1047.81 206.794C1047.26 205.648 1047.06 204.363 1047.24 203.103C1047.41 201.843 1047.96 200.664 1048.81 199.714C1049.66 198.765 1050.77 198.088 1052 197.769C1053.23 197.45 1054.53 197.504 1055.73 197.923C1056.94 198.342 1057.99 199.108 1058.75 200.125C1059.52 201.141 1059.97 202.361 1060.04 203.631C1060.11 204.902 1059.81 206.165 1059.16 207.262C1058.51 208.358 1057.56 209.239 1056.41 209.792C1054.87 210.533 1053.1 210.634 1051.49 210.072C1049.88 209.509 1048.56 208.33 1047.81 206.794Z" fill="white"/>
</g>
<path opacity="0.22822" d="M1019.67 314.745L1054.41 204.248L1052.78 203.735L1018.03 314.232L1019.67 314.745Z" fill="white"/>
<g opacity="0.783568">
<path opacity="0.783568" d="M1016.93 308.336C1013.53 309.388 1011.63 312.993 1012.68 316.387C1013.74 319.781 1017.34 321.68 1020.74 320.628C1024.13 319.577 1026.03 315.972 1024.98 312.578C1023.93 309.184 1020.33 307.285 1016.93 308.336Z" fill="white"/>
</g>
<path opacity="0.856333" d="M821.21 518.661L821.061 516.957L957.97 504.966L1018.02 314.225L1019.65 314.739L959.26 506.571L821.21 518.661Z" fill="white"/>
<g opacity="0.21608">
<path opacity="0.21608" d="M821.698 524.218C820.429 524.329 819.157 524.062 818.04 523.45C816.924 522.838 816.014 521.909 815.426 520.781C814.838 519.652 814.598 518.375 814.736 517.11C814.874 515.845 815.385 514.649 816.203 513.674C817.022 512.699 818.111 511.989 819.333 511.633C820.556 511.276 821.856 511.29 823.071 511.673C824.285 512.055 825.359 512.789 826.156 513.781C826.953 514.774 827.438 515.98 827.549 517.248C827.698 518.947 827.165 520.636 826.068 521.944C824.97 523.251 823.399 524.069 821.698 524.218Z" fill="white"/>
</g>
<path opacity="0.921795" d="M820.624 518.494L890.504 570.712H893.362L821.648 517.124L820.624 518.494Z" fill="white"/>
<path opacity="0.356486" d="M1463.25 446.964L1238.59 570.712H1242.14L1464.07 448.463L1463.25 446.964Z" fill="white"/>
<path opacity="0.449774" d="M1125.8 487.408L1463.76 448.568L1463.56 446.868L1125.6 485.708L1125.8 487.408Z" fill="white"/>
<g opacity="0.401693">
<path opacity="0.401693" d="M1126.43 492.954C1125.17 493.099 1123.89 492.867 1122.76 492.285C1121.62 491.704 1120.69 490.8 1120.07 489.687C1119.45 488.575 1119.18 487.305 1119.28 486.036C1119.39 484.768 1119.86 483.559 1120.66 482.562C1121.45 481.566 1122.52 480.826 1123.73 480.437C1124.94 480.048 1126.24 480.026 1127.47 480.376C1128.69 480.725 1129.78 481.43 1130.61 482.4C1131.43 483.37 1131.95 484.563 1132.09 485.827C1132.29 487.522 1131.8 489.225 1130.74 490.562C1129.68 491.898 1128.13 492.759 1126.43 492.954Z" fill="white"/>
</g>
<path opacity="0.805188" d="M958.712 506.614L1125.8 487.417L1125.6 485.717L958.516 504.914L958.712 506.614Z" fill="white"/>
<g opacity="0.815113">
<path opacity="0.815113" d="M959.351 512.16C958.086 512.305 956.806 512.073 955.674 511.491C954.541 510.91 953.606 510.006 952.988 508.894C952.369 507.781 952.095 506.511 952.199 505.243C952.303 503.974 952.781 502.765 953.572 501.769C954.364 500.772 955.434 500.032 956.646 499.643C957.858 499.254 959.159 499.232 960.383 499.582C961.607 499.931 962.7 500.636 963.524 501.606C964.348 502.576 964.865 503.769 965.011 505.033C965.206 506.728 964.719 508.431 963.657 509.768C962.596 511.104 961.047 511.965 959.351 512.16Z" fill="white"/>
</g>
<path opacity="0.639901" d="M959.184 506.367L1046.78 423.181L1045.6 421.94L958.004 505.127L959.184 506.367Z" fill="white"/>
<g opacity="0.929103">
<path opacity="0.929103" d="M1041.73 417.878C1042.65 417.001 1043.82 416.417 1045.07 416.2C1046.32 415.983 1047.62 416.143 1048.78 416.659C1049.94 417.175 1050.93 418.025 1051.61 419.1C1052.29 420.176 1052.64 421.429 1052.6 422.701C1052.57 423.973 1052.16 425.207 1051.43 426.247C1050.7 427.287 1049.67 428.086 1048.48 428.544C1047.29 429.001 1046 429.096 1044.75 428.817C1043.51 428.537 1042.38 427.896 1041.5 426.974C1040.33 425.738 1039.69 424.085 1039.73 422.379C1039.77 420.673 1040.49 419.054 1041.73 417.878Z" fill="white"/>
</g>
<path opacity="0.832256" d="M1046.74 423.142L1124.89 348.919L1123.71 347.678L1045.56 421.902L1046.74 423.142Z" fill="white"/>
<g opacity="0.650612">
<path opacity="0.650612" d="M1119.85 343.619C1120.77 342.742 1121.93 342.158 1123.19 341.941C1124.44 341.724 1125.73 341.884 1126.9 342.4C1128.06 342.916 1129.04 343.766 1129.73 344.841C1130.41 345.917 1130.75 347.17 1130.72 348.442C1130.69 349.714 1130.28 350.948 1129.55 351.988C1128.81 353.028 1127.79 353.827 1126.6 354.284C1125.41 354.742 1124.11 354.837 1122.87 354.557C1121.63 354.278 1120.5 353.637 1119.62 352.715C1118.44 351.478 1117.81 349.826 1117.85 348.12C1117.89 346.414 1118.61 344.795 1119.85 343.619Z" fill="white"/>
</g>
<path opacity="0.671925" d="M1124.85 348.876L1233.71 245.487L1232.53 244.247L1123.67 347.636L1124.85 348.876Z" fill="white"/>
<g opacity="0.569208">
<path opacity="0.569208" d="M1228.66 240.18C1229.58 239.303 1230.75 238.719 1232 238.502C1233.26 238.285 1234.55 238.445 1235.71 238.961C1236.87 239.477 1237.86 240.327 1238.54 241.402C1239.22 242.477 1239.57 243.73 1239.54 245.002C1239.5 246.275 1239.09 247.509 1238.36 248.549C1237.63 249.589 1236.6 250.388 1235.41 250.845C1234.23 251.303 1232.93 251.398 1231.69 251.118C1230.44 250.839 1229.31 250.198 1228.43 249.276C1227.26 248.039 1226.62 246.387 1226.66 244.681C1226.71 242.975 1227.43 241.356 1228.66 240.18Z" fill="white"/>
</g>
<path opacity="0.742891" d="M1342.6 264.18L1233.25 244.001L1232.94 245.683L1341.55 265.729L1538.02 725.322L1540.05 725.322L1342.8 264.493L1342.6 264.18Z" fill="white"/>
<path opacity="0.711723" d="M1186.19 478.147L1118.97 570.712H1121.08L1187.58 479.153L1186.19 478.147Z" fill="white"/>
<g opacity="0.954145">
<path opacity="0.954145" d="M1181.67 474.871C1182.42 473.841 1183.46 473.056 1184.65 472.615C1185.85 472.174 1187.14 472.097 1188.38 472.393C1189.62 472.69 1190.74 473.346 1191.61 474.28C1192.47 475.214 1193.04 476.384 1193.24 477.64C1193.44 478.897 1193.26 480.185 1192.73 481.341C1192.2 482.497 1191.33 483.469 1190.25 484.134C1189.16 484.799 1187.91 485.128 1186.63 485.079C1185.36 485.03 1184.13 484.604 1183.1 483.857C1181.72 482.854 1180.79 481.345 1180.52 479.66C1180.26 477.974 1180.67 476.252 1181.67 474.871Z" fill="white"/>
</g>
<path opacity="0.483165" d="M1187.57 479.151L1214.83 441.633L1213.44 440.627L1186.19 478.146L1187.57 479.151Z" fill="white"/>
<g opacity="0.251043">
<path opacity="0.251043" d="M1208.92 437.349C1209.67 436.319 1210.71 435.534 1211.9 435.093C1213.1 434.652 1214.39 434.575 1215.63 434.871C1216.87 435.168 1217.99 435.824 1218.86 436.758C1219.72 437.692 1220.29 438.862 1220.49 440.118C1220.69 441.375 1220.51 442.663 1219.98 443.819C1219.45 444.975 1218.58 445.947 1217.5 446.612C1216.41 447.278 1215.16 447.606 1213.88 447.557C1212.61 447.508 1211.38 447.082 1210.35 446.335C1208.97 445.333 1208.04 443.823 1207.77 442.138C1207.51 440.453 1207.92 438.73 1208.92 437.349Z" fill="white"/>
</g>
<path opacity="0.239653" d="M1214.82 441.624L1342.78 265.464L1341.39 264.459L1213.43 440.619L1214.82 441.624Z" fill="white"/>
<g opacity="0.79485">
<path opacity="0.79485" d="M1336.86 261.176C1337.61 260.146 1338.65 259.361 1339.84 258.92C1341.04 258.479 1342.34 258.402 1343.57 258.698C1344.81 258.995 1345.94 259.651 1346.8 260.585C1347.67 261.519 1348.23 262.689 1348.43 263.945C1348.63 265.202 1348.46 266.49 1347.92 267.646C1347.39 268.802 1346.53 269.774 1345.44 270.439C1344.36 271.104 1343.1 271.433 1341.83 271.384C1340.55 271.334 1339.32 270.909 1338.29 270.162C1336.91 269.159 1335.98 267.649 1335.72 265.964C1335.45 264.279 1335.86 262.557 1336.86 261.176Z" fill="white"/>
</g>
<path opacity="0.568358" d="M1324.14 443.604L1342.92 265.043L1341.22 264.864L1322.44 443.425L1324.14 443.604Z" fill="white"/>
<g opacity="0.965084">
<path opacity="0.965084" d="M1317.37 440.982C1315.97 444.249 1317.49 448.031 1320.75 449.429C1324.02 450.827 1327.81 449.311 1329.2 446.044C1330.6 442.776 1329.08 438.994 1325.81 437.597C1322.54 436.199 1318.76 437.715 1317.37 440.982Z" fill="white"/>
</g>
<path opacity="0.773664" d="M1321.9 464.851L1324.13 443.603L1322.43 443.424L1320.2 464.672L1321.9 464.851Z" fill="white"/>
<g opacity="0.769702">
<path opacity="0.769702" d="M1327.45 465.435C1327.32 466.7 1326.81 467.898 1326 468.876C1325.18 469.854 1324.1 470.569 1322.87 470.931C1321.65 471.292 1320.35 471.283 1319.14 470.906C1317.92 470.528 1316.84 469.799 1316.04 468.81C1315.24 467.821 1314.75 466.617 1314.64 465.35C1314.52 464.083 1314.78 462.81 1315.39 461.691C1316 460.573 1316.92 459.66 1318.05 459.068C1319.18 458.475 1320.45 458.23 1321.72 458.363C1323.42 458.542 1324.98 459.387 1326.05 460.713C1327.12 462.04 1327.63 463.738 1327.45 465.435Z" fill="white"/>
</g>
<path opacity="0.94539" d="M1315.04 530.053L1321.89 464.851L1320.19 464.672L1313.34 529.874L1315.04 530.053Z" fill="white"/>
<g opacity="0.845728">
<path opacity="0.845728" d="M1320.59 530.636C1320.45 531.901 1319.95 533.099 1319.13 534.077C1318.32 535.055 1317.23 535.77 1316.01 536.132C1314.79 536.493 1313.49 536.484 1312.27 536.107C1311.06 535.729 1309.98 535 1309.18 534.011C1308.38 533.022 1307.89 531.818 1307.77 530.551C1307.66 529.284 1307.92 528.01 1308.53 526.892C1309.13 525.774 1310.06 524.861 1311.19 524.269C1312.31 523.676 1313.59 523.431 1314.86 523.564C1316.56 523.743 1318.11 524.588 1319.19 525.914C1320.26 527.241 1320.77 528.939 1320.59 530.636Z" fill="white"/>
</g>
<path opacity="0.800788" d="M1313.33 529.873L1309.03 570.712H1310.76L1315.04 530.052L1313.33 529.873Z" fill="white"/>
<path opacity="0.969718" d="M1186.23 489.006C1183.47 489 1180.83 487.907 1178.87 485.966C1176.91 484.024 1175.79 481.389 1175.76 478.632C1175.73 475.874 1176.79 473.216 1178.71 471.232C1180.62 469.248 1183.25 468.099 1186 468.032C1188.76 467.966 1191.44 468.988 1193.45 470.877C1195.46 472.766 1196.64 475.371 1196.74 478.126C1196.85 480.882 1195.86 483.568 1194 485.601C1192.13 487.635 1189.54 488.854 1186.79 488.993C1186.6 489.002 1186.42 489.007 1186.23 489.006ZM1186.28 469.321C1186.12 469.321 1185.96 469.325 1185.79 469.333C1183.36 469.456 1181.07 470.542 1179.43 472.352C1177.79 474.161 1176.94 476.547 1177.07 478.983C1177.19 481.419 1178.28 483.707 1180.09 485.342C1181.9 486.978 1184.28 487.828 1186.72 487.705C1189.12 487.584 1191.37 486.533 1193 484.776C1194.64 483.019 1195.52 480.695 1195.46 478.298C1195.4 475.902 1194.41 473.622 1192.7 471.945C1190.98 470.269 1188.68 469.327 1186.28 469.321Z" fill="white"/>
<path opacity="0.969718" d="M1463.6 457.723C1461.76 457.816 1459.93 457.36 1458.34 456.413C1456.75 455.466 1455.49 454.07 1454.69 452.403C1453.9 450.735 1453.62 448.87 1453.89 447.043C1454.16 445.217 1454.96 443.511 1456.2 442.142C1457.44 440.772 1459.06 439.801 1460.85 439.35C1462.64 438.899 1464.53 438.989 1466.27 439.608C1468.01 440.228 1469.52 441.349 1470.63 442.831C1471.73 444.312 1472.37 446.087 1472.46 447.93C1472.58 450.403 1471.72 452.823 1470.06 454.659C1468.4 456.496 1466.08 457.598 1463.6 457.723Z" fill="white"/>
<path opacity="0.969718" d="M1463.1 462.32C1459.43 462.311 1455.92 460.862 1453.32 458.284C1450.72 455.707 1449.24 452.21 1449.2 448.55C1449.16 444.89 1450.56 441.362 1453.11 438.728C1455.65 436.095 1459.13 434.569 1462.79 434.481C1466.45 434.393 1470 435.749 1472.67 438.257C1475.34 440.764 1476.91 444.221 1477.05 447.878C1477.19 451.536 1475.88 455.101 1473.4 457.8C1470.93 460.5 1467.49 462.117 1463.83 462.302C1463.59 462.314 1463.34 462.321 1463.1 462.32ZM1463.16 436.192C1462.95 436.192 1462.73 436.197 1462.52 436.209C1460.91 436.289 1459.34 436.683 1457.89 437.371C1456.44 438.058 1455.14 439.023 1454.06 440.213C1452.99 441.402 1452.16 442.792 1451.62 444.302C1451.08 445.813 1450.84 447.415 1450.93 449.016C1451.01 450.618 1451.4 452.188 1452.09 453.637C1452.78 455.085 1453.75 456.384 1454.94 457.459C1456.13 458.534 1457.52 459.364 1459.03 459.902C1460.54 460.44 1462.14 460.674 1463.75 460.593C1466.93 460.432 1469.92 459.037 1472.08 456.705C1474.25 454.373 1475.42 451.288 1475.34 448.108C1475.27 444.927 1473.95 441.901 1471.68 439.676C1469.4 437.45 1466.35 436.2 1463.16 436.192Z" fill="white"/>
</g>
<path opacity="0.576199" d="M877.747 282.953L877.913 280.901L767.502 271.975L767.336 274.028L877.747 282.953Z" fill="white"/>
<g opacity="0.740749">
<path opacity="0.740749" d="M766.794 280.72C765.267 280.597 763.81 280.023 762.608 279.072C761.407 278.122 760.514 276.836 760.044 275.378C759.574 273.921 759.546 272.356 759.965 270.883C760.385 269.41 761.232 268.094 762.399 267.102C763.567 266.109 765.003 265.485 766.525 265.309C768.047 265.132 769.588 265.41 770.952 266.109C772.316 266.807 773.442 267.894 774.188 269.232C774.934 270.57 775.266 272.099 775.143 273.626C774.977 275.673 774.004 277.57 772.439 278.901C770.873 280.231 768.843 280.886 766.794 280.72Z" fill="white"/>
</g>
<path opacity="0.653462" d="M324.252 236.141L767.503 271.975L767.336 274.027L330.256 238.693L709.113 573.179L707.748 574.722L324.252 236.141Z" fill="white"/>
<path opacity="0.726273" d="M709.444 574.14L792.602 130.655L790.576 130.275L707.418 573.761L709.444 574.14Z" fill="white"/>
<g opacity="0.667884">
<path opacity="0.667884" d="M783.973 129.039C784.255 127.533 784.978 126.146 786.05 125.05C787.121 123.955 788.494 123.203 789.994 122.887C791.493 122.572 793.053 122.708 794.475 123.278C795.898 123.849 797.119 124.828 797.985 126.092C798.85 127.356 799.321 128.848 799.338 130.379C799.355 131.911 798.918 133.413 798.08 134.696C797.243 135.979 796.044 136.985 794.635 137.587C793.225 138.189 791.669 138.359 790.162 138.077C788.143 137.699 786.356 136.534 785.195 134.839C784.034 133.144 783.595 131.058 783.973 129.039Z" fill="white"/>
</g>
<path opacity="0.836763" d="M435.02 330.748L792.093 131.364L791.088 129.567L434.015 328.951L435.02 330.748Z" fill="white"/>
<g opacity="0.484253">
<path opacity="0.484253" d="M438.297 336.609C436.959 337.357 435.429 337.691 433.901 337.569C432.373 337.447 430.916 336.876 429.713 335.926C428.511 334.977 427.617 333.692 427.144 332.235C426.672 330.778 426.643 329.213 427.061 327.739C427.478 326.266 428.323 324.949 429.49 323.955C430.656 322.961 432.091 322.336 433.614 322.157C435.136 321.979 436.677 322.255 438.042 322.952C439.407 323.649 440.534 324.734 441.282 326.072C442.284 327.865 442.532 329.982 441.973 331.958C441.413 333.934 440.091 335.607 438.297 336.609Z" fill="white"/>
</g>
<path opacity="0.203444" d="M188.158 468.591L435.02 330.748L434.015 328.95L187.153 466.793L188.158 468.591Z" fill="white"/>
<g opacity="0.519867">
<path opacity="0.519867" d="M191.435 474.453C190.097 475.2 188.567 475.534 187.04 475.412C185.512 475.29 184.054 474.719 182.852 473.769C181.649 472.82 180.755 471.535 180.283 470.078C179.811 468.621 179.782 467.056 180.199 465.583C180.617 464.109 181.462 462.792 182.628 461.798C183.795 460.805 185.23 460.179 186.752 460.001C188.274 459.822 189.815 460.099 191.18 460.795C192.545 461.492 193.673 462.578 194.42 463.915C195.423 465.708 195.671 467.825 195.111 469.802C194.551 471.778 193.229 473.451 191.435 474.453Z" fill="white"/>
</g>
<path opacity="0.563344" d="M145.679 489.952L187.153 466.793L188.157 468.591L153.834 487.758L214.346 486.766L214.38 488.825L145.679 489.952Z" fill="white"/>
<g opacity="0.908346">
<path opacity="0.908346" d="M214.236 480.052C215.769 480.027 217.274 480.457 218.562 481.286C219.85 482.116 220.863 483.309 221.473 484.715C222.083 486.12 222.261 487.674 221.987 489.181C221.713 490.688 220.998 492.08 219.932 493.181C218.866 494.282 217.498 495.042 216 495.365C214.501 495.688 212.941 495.561 211.516 494.998C210.09 494.435 208.864 493.462 207.992 492.203C207.119 490.944 206.64 489.454 206.615 487.923C206.582 485.869 207.366 483.886 208.795 482.41C210.224 480.934 212.181 480.086 214.236 480.052Z" fill="white"/>
</g>
<path opacity="0.603303" d="M214.376 488.825L407.172 485.665L407.138 483.605L214.342 486.765L214.376 488.825Z" fill="white"/>
<g opacity="0.657548">
<path opacity="0.657548" d="M407.032 476.892C408.564 476.867 410.07 477.297 411.358 478.127C412.646 478.957 413.659 480.15 414.269 481.555C414.878 482.96 415.057 484.515 414.783 486.022C414.509 487.529 413.793 488.921 412.728 490.021C411.662 491.122 410.293 491.882 408.795 492.205C407.297 492.529 405.737 492.401 404.311 491.838C402.886 491.275 401.659 490.302 400.787 489.043C399.915 487.784 399.436 486.294 399.411 484.762C399.377 482.709 400.161 480.726 401.591 479.25C403.02 477.774 404.977 476.926 407.032 476.892Z" fill="white"/>
</g>
<path opacity="0.849423" d="M407.176 485.665L725.031 480.455L724.997 478.396L407.142 483.605L407.176 485.665Z" fill="white"/>
<g opacity="0.58069">
<path opacity="0.58069" d="M724.887 471.682C726.42 471.657 727.925 472.087 729.213 472.917C730.501 473.747 731.514 474.94 732.124 476.345C732.734 477.75 732.913 479.305 732.639 480.812C732.364 482.319 731.649 483.711 730.583 484.812C729.517 485.912 728.149 486.672 726.651 486.996C725.152 487.319 723.592 487.191 722.167 486.629C720.741 486.066 719.515 485.093 718.642 483.834C717.77 482.574 717.291 481.084 717.266 479.553C717.232 477.499 718.017 475.516 719.446 474.04C720.875 472.564 722.832 471.716 724.887 471.682Z" fill="white"/>
</g>
<path opacity="0.979603" d="M724.195 480.023L725.86 478.809L564.167 257.305L562.502 258.518L724.195 480.023Z" fill="white"/>
<g opacity="0.685416">
<path opacity="0.685416" d="M557.087 262.465C556.184 261.228 555.668 259.75 555.605 258.22C555.542 256.689 555.935 255.175 556.733 253.867C557.531 252.56 558.7 251.518 560.091 250.875C561.481 250.231 563.032 250.014 564.546 250.251C566.06 250.487 567.47 251.168 568.597 252.205C569.725 253.243 570.519 254.591 570.879 256.08C571.24 257.569 571.15 259.131 570.623 260.569C570.095 262.007 569.152 263.256 567.914 264.159C566.253 265.369 564.18 265.87 562.149 265.553C560.119 265.235 558.298 264.124 557.087 262.465Z" fill="white"/>
</g>
<path opacity="0.980323" d="M564.285 258.338L634.429 107.848L632.56 106.978L562.416 257.468L564.285 258.338Z" fill="white"/>
<g opacity="0.8493">
<path opacity="0.8493" d="M626.473 104.144C627.12 102.756 628.165 101.59 629.475 100.795C630.785 100 632.301 99.6112 633.832 99.6775C635.363 99.7438 636.841 100.262 638.077 101.168C639.313 102.073 640.253 103.324 640.778 104.763C641.303 106.203 641.388 107.765 641.025 109.253C640.661 110.741 639.864 112.087 638.734 113.123C637.605 114.158 636.193 114.835 634.678 115.069C633.164 115.302 631.614 115.081 630.224 114.435C628.362 113.567 626.92 111.996 626.216 110.066C625.512 108.136 625.605 106.006 626.473 104.144Z" fill="white"/>
</g>
<path opacity="0.984283" d="M491.172 251.599L634.228 108.142L632.768 106.688L489.712 250.145L491.172 251.599Z" fill="white"/>
<g opacity="0.760004">
<path opacity="0.760004" d="M495.931 256.339C494.849 257.423 493.47 258.163 491.967 258.465C490.465 258.766 488.906 258.615 487.489 258.032C486.072 257.448 484.86 256.457 484.007 255.185C483.153 253.913 482.696 252.417 482.693 250.885C482.691 249.353 483.143 247.855 483.992 246.58C484.841 245.305 486.05 244.31 487.465 243.722C488.88 243.133 490.438 242.977 491.941 243.274C493.445 243.57 494.827 244.305 495.913 245.386C497.368 246.836 498.188 248.805 498.191 250.859C498.195 252.912 497.382 254.884 495.931 256.339Z" fill="white"/>
</g>
<path opacity="0.27286" d="M421.823 321.144L491.173 251.599L489.713 250.145L420.363 319.69L421.823 321.144Z" fill="white"/>
<g opacity="0.576038">
<path opacity="0.576038" d="M426.581 325.884C425.499 326.969 424.12 327.709 422.617 328.01C421.114 328.312 419.556 328.161 418.139 327.577C416.722 326.993 415.51 326.003 414.656 324.731C413.803 323.459 413.345 321.962 413.343 320.43C413.34 318.899 413.792 317.401 414.641 316.126C415.491 314.851 416.699 313.856 418.114 313.267C419.529 312.679 421.087 312.523 422.591 312.819C424.094 313.115 425.476 313.85 426.562 314.932C428.018 316.382 428.837 318.35 428.841 320.404C428.844 322.458 428.031 324.429 426.581 325.884Z" fill="white"/>
</g>
<path opacity="0.495233" d="M382.406 357.754L420.363 319.69L421.823 321.144L384.617 358.455L439.212 677.544L604.475 480.564L606.055 481.887L437.93 682.277L382.406 357.754Z" fill="white"/>
<g opacity="0.961224">
<path opacity="0.961224" d="M599.326 476.25C600.311 475.076 601.622 474.221 603.093 473.791C604.564 473.362 606.13 473.379 607.592 473.839C609.054 474.299 610.346 475.182 611.306 476.376C612.266 477.57 612.85 479.022 612.984 480.548C613.118 482.073 612.796 483.605 612.06 484.948C611.323 486.291 610.204 487.386 608.845 488.094C607.486 488.801 605.947 489.09 604.424 488.924C602.9 488.758 601.46 488.144 600.286 487.16C598.711 485.84 597.725 483.949 597.545 481.903C597.366 479.858 598.006 477.824 599.326 476.25Z" fill="white"/>
</g>
<path opacity="0.635578" d="M637.933 594.955L639.908 594.369L606.243 480.935L604.268 481.521L637.933 594.955Z" fill="white"/>
<path opacity="0.75419" d="M115.537 534.506L326.413 236.822L328.096 238.012L118.042 534.535L247.352 726.23L245.643 727.382L115.537 534.506Z" fill="white"/>
<g opacity="0.945532">
<path opacity="0.945532" d="M320.929 232.942C321.815 231.692 323.051 230.732 324.482 230.185C325.914 229.637 327.476 229.526 328.97 229.865C330.465 230.204 331.825 230.979 332.879 232.091C333.933 233.202 334.634 234.602 334.892 236.112C335.15 237.621 334.955 239.174 334.33 240.573C333.706 241.971 332.68 243.154 331.383 243.97C330.087 244.786 328.577 245.2 327.045 245.158C325.513 245.117 324.027 244.623 322.776 243.738C321.099 242.551 319.962 240.747 319.616 238.722C319.269 236.698 319.742 234.619 320.929 232.942Z" fill="white"/>
</g>
<path opacity="0.998997" d="M381.406 359.061L383.282 358.209L328.171 237L326.295 237.852L381.406 359.061Z" fill="white"/>
<g opacity="0.288058">
<path opacity="0.288058" d="M389.38 355.443C390.014 356.838 390.219 358.389 389.971 359.901C389.722 361.412 389.031 362.816 387.984 363.934C386.937 365.053 385.582 365.836 384.089 366.185C382.597 366.534 381.035 366.433 379.6 365.895C378.165 365.356 376.922 364.405 376.029 363.16C375.135 361.916 374.631 360.435 374.579 358.904C374.528 357.373 374.932 355.861 375.74 354.56C376.549 353.259 377.725 352.226 379.121 351.593C380.992 350.744 383.124 350.673 385.048 351.395C386.972 352.117 388.53 353.573 389.38 355.443Z" fill="white"/>
</g>
<path opacity="0.321193" d="M438.16 483.99L440.036 483.138L383.24 358.229L381.363 359.081L438.16 483.99Z" fill="white"/>
<g opacity="0.548529">
<path opacity="0.548529" d="M446.131 480.373C446.765 481.767 446.97 483.318 446.722 484.83C446.473 486.341 445.782 487.745 444.735 488.864C443.688 489.982 442.332 490.765 440.84 491.114C439.348 491.463 437.785 491.362 436.351 490.823C434.916 490.285 433.673 489.333 432.779 488.089C431.886 486.845 431.382 485.363 431.33 483.832C431.279 482.302 431.683 480.79 432.492 479.489C433.3 478.188 434.476 477.155 435.872 476.522C437.743 475.673 439.876 475.602 441.799 476.324C443.723 477.046 445.282 478.503 446.131 480.373Z" fill="white"/>
</g>
<path opacity="0.676251" d="M496.794 613.064L498.67 612.212L439.991 483.158L438.115 484.01L496.794 613.064Z" fill="white"/>
<path opacity="0.406868" d="M478.603 714.593L479.935 713.021L175.048 455.033L173.717 456.605L478.603 714.593Z" fill="white"/>
<g opacity="0.546915">
<path opacity="0.546915" d="M169.375 461.73C168.206 460.74 167.356 459.426 166.933 457.954C166.511 456.481 166.535 454.917 167.002 453.458C167.47 451.999 168.36 450.712 169.559 449.758C170.759 448.805 172.214 448.228 173.742 448.102C175.269 447.975 176.8 448.304 178.14 449.046C179.481 449.789 180.571 450.912 181.272 452.274C181.974 453.636 182.256 455.175 182.082 456.697C181.908 458.219 181.287 459.655 180.296 460.824C178.968 462.391 177.072 463.367 175.024 463.537C172.976 463.707 170.944 463.057 169.375 461.73Z" fill="white"/>
</g>
<path opacity="0.768117" d="M173.716 456.607L175.048 455.035L144.842 429.475L143.51 431.047L173.716 456.607Z" fill="white"/>
<g opacity="0.605484">
<path opacity="0.605484" d="M139.17 436.171C138 435.181 137.151 433.867 136.728 432.395C136.306 430.922 136.33 429.358 136.797 427.899C137.265 426.44 138.154 425.153 139.354 424.199C140.553 423.246 142.009 422.669 143.536 422.543C145.064 422.416 146.594 422.745 147.935 423.487C149.275 424.23 150.365 425.353 151.067 426.715C151.769 428.077 152.05 429.616 151.877 431.137C151.703 432.659 151.082 434.096 150.092 435.265C148.764 436.832 146.867 437.808 144.819 437.978C142.771 438.148 140.739 437.498 139.17 436.171Z" fill="white"/>
</g>
<path opacity="0.886214" d="M148.549 488.966L150.602 488.777L145.205 430.166L143.153 430.355L148.549 488.966Z" fill="white"/>
<g opacity="0.634812">
<path opacity="0.634812" d="M157.294 488.161C157.434 489.686 157.119 491.219 156.388 492.565C155.657 493.911 154.543 495.011 153.186 495.724C151.83 496.437 150.293 496.733 148.769 496.573C147.244 496.413 145.802 495.805 144.623 494.826C143.445 493.847 142.583 492.54 142.147 491.072C141.712 489.603 141.722 488.039 142.176 486.576C142.63 485.113 143.508 483.818 144.699 482.853C145.89 481.889 147.34 481.3 148.866 481.159C150.913 480.971 152.95 481.603 154.531 482.916C156.111 484.229 157.105 486.116 157.294 488.161Z" fill="white"/>
</g>
<path opacity="0.250338" d="M159.055 603.02L161.107 602.831L150.606 488.777L148.554 488.965L159.055 603.02Z" fill="white"/>
<path opacity="0.519095" d="M438.83 678.977L547.254 708.976L675.448 542.717L677.08 543.974L548.04 711.33L438.28 680.963L438.83 678.977Z" fill="white"/>
<g opacity="0.877975">
<path opacity="0.877975" d="M670.125 538.619C671.061 537.405 672.335 536.496 673.787 536.007C675.24 535.517 676.805 535.469 678.284 535.869C679.764 536.268 681.092 537.097 682.1 538.251C683.108 539.404 683.751 540.831 683.948 542.35C684.145 543.869 683.887 545.412 683.207 546.785C682.526 548.157 681.453 549.297 680.124 550.06C678.796 550.823 677.27 551.175 675.741 551.072C674.212 550.969 672.748 550.415 671.534 549.48C669.906 548.226 668.843 546.377 668.579 544.341C668.315 542.304 668.871 540.246 670.125 538.619Z" fill="white"/>
</g>
<path opacity="0.960914" d="M677.08 543.974L878.646 282.556L877.014 281.299L675.448 542.717L677.08 543.974Z" fill="white"/>
<g opacity="0.698647">
<path opacity="0.698647" d="M871.692 277.2C872.628 275.987 873.902 275.078 875.355 274.589C876.807 274.099 878.372 274.051 879.852 274.451C881.331 274.85 882.659 275.679 883.667 276.833C884.676 277.986 885.319 279.413 885.516 280.932C885.713 282.451 885.455 283.994 884.774 285.366C884.093 286.739 883.021 287.879 881.692 288.642C880.363 289.405 878.837 289.757 877.308 289.654C875.779 289.55 874.315 288.996 873.101 288.061C871.473 286.808 870.41 284.959 870.146 282.922C869.882 280.886 870.438 278.827 871.692 277.2Z" fill="white"/>
</g>
<path opacity="0.735122" d="M138.868 482.942C140.535 480.071 143.266 477.971 146.47 477.098C149.675 476.225 153.094 476.648 155.989 478.276C158.884 479.903 161.02 482.605 161.937 485.796C162.853 488.986 162.475 492.409 160.884 495.323C159.294 498.237 156.619 500.408 153.439 501.366C150.259 502.324 146.829 501.992 143.893 500.441C140.956 498.89 138.748 496.246 137.748 493.081C136.748 489.916 137.035 486.484 138.547 483.529C138.65 483.33 138.757 483.133 138.868 482.942ZM159.374 494.837C159.471 494.669 159.565 494.497 159.654 494.322C160.318 493.028 160.719 491.615 160.836 490.166C160.953 488.716 160.784 487.258 160.336 485.874C159.889 484.49 159.174 483.208 158.231 482.1C157.288 480.993 156.136 480.082 154.84 479.419C153.545 478.757 152.131 478.356 150.681 478.239C149.23 478.123 147.771 478.293 146.387 478.741C145.002 479.188 143.719 479.904 142.611 480.847C141.503 481.79 140.592 482.941 139.93 484.236C138.615 486.805 138.355 489.786 139.206 492.543C140.058 495.3 141.952 497.617 144.487 498.999C147.022 500.38 149.996 500.719 152.777 499.941C155.557 499.164 157.924 497.333 159.374 494.837Z" fill="white"/>
<path opacity="0.735122" d="M595.222 478.398C596.235 476.42 597.812 474.786 599.754 473.704C601.696 472.621 603.915 472.138 606.132 472.317C608.348 472.495 610.462 473.326 612.206 474.704C613.949 476.083 615.245 477.948 615.928 480.062C616.612 482.177 616.653 484.446 616.045 486.584C615.438 488.722 614.21 490.631 612.517 492.072C610.824 493.512 608.741 494.418 606.533 494.675C604.324 494.933 602.089 494.53 600.109 493.518C597.455 492.16 595.449 489.805 594.533 486.969C593.616 484.134 593.864 481.05 595.222 478.398Z" fill="white"/>
<path opacity="0.735122" d="M590.73 475.104C592.943 471.294 596.568 468.507 600.821 467.348C605.074 466.189 609.613 466.751 613.455 468.911C617.297 471.072 620.133 474.658 621.349 478.892C622.565 483.127 622.063 487.67 619.952 491.538C617.841 495.406 614.291 498.287 610.07 499.558C605.849 500.829 601.297 500.388 597.399 498.33C593.502 496.272 590.572 492.762 589.244 488.561C587.916 484.36 588.297 479.806 590.305 475.883C590.441 475.619 590.583 475.358 590.73 475.104ZM617.947 490.892C618.077 490.669 618.201 490.441 618.32 490.209C619.2 488.491 619.733 486.616 619.888 484.692C620.044 482.769 619.818 480.833 619.225 478.996C618.631 477.16 617.682 475.458 616.43 473.988C615.178 472.518 613.649 471.309 611.93 470.43C610.21 469.55 608.335 469.018 606.409 468.864C604.484 468.709 602.548 468.935 600.71 469.529C598.872 470.123 597.17 471.072 595.699 472.324C594.229 473.575 593.02 475.104 592.14 476.822C590.395 480.232 590.05 484.188 591.18 487.848C592.31 491.507 594.824 494.582 598.189 496.416C601.553 498.25 605.501 498.699 609.191 497.667C612.882 496.636 616.024 494.205 617.947 490.892Z" fill="white"/>
<g opacity="0.22">
<g opacity="0.5">
<path opacity="0.654624" d="M873.419 588.097L872.003 587.301L903.901 548.448L905.317 549.245L873.419 588.097Z" fill="#0F0F0F"/>
<g opacity="0.811058">
<path opacity="0.811058" d="M909.933 551.842C910.649 550.971 911.036 549.943 911.046 548.889C911.056 547.835 910.689 546.802 909.99 545.921C909.291 545.04 908.292 544.351 907.119 543.94C905.947 543.529 904.653 543.415 903.403 543.612C902.152 543.81 901 544.31 900.092 545.049C899.185 545.789 898.563 546.734 898.305 547.766C898.046 548.798 898.164 549.871 898.642 550.848C899.12 551.824 899.937 552.662 900.99 553.254C902.402 554.049 904.138 554.346 905.815 554.081C907.492 553.817 908.973 553.011 909.933 551.842Z" fill="#0F0F0F"/>
</g>
<path opacity="0.466878" d="M990.314 445.717L905.316 549.245L903.9 548.448L991.872 441.298L1002.57 747.251L1000.86 747.251L990.314 445.717Z" fill="#0F0F0F"/>
<path opacity="0.811368" d="M935.259 509.853L934.729 511.201L813.166 478.503L956.908 747.251L955.036 747.251L810.048 476.174L935.259 509.853Z" fill="#0F0F0F"/>
<g opacity="0.578736">
<path opacity="0.578736" d="M933.005 515.595C934.216 515.921 935.516 515.942 936.741 515.656C937.967 515.37 939.062 514.79 939.889 513.988C940.716 513.187 941.238 512.2 941.387 511.154C941.537 510.107 941.308 509.047 940.73 508.108C940.152 507.169 939.251 506.393 938.14 505.878C937.029 505.363 935.759 505.132 934.489 505.214C933.22 505.297 932.009 505.69 931.009 506.342C930.009 506.995 929.265 507.878 928.872 508.88C928.344 510.224 928.483 511.687 929.258 512.946C930.033 514.205 931.381 515.158 933.005 515.595Z" fill="#0F0F0F"/>
</g>
<path opacity="0.525458" d="M948.375 514.873L934.729 511.2L935.259 509.853L948.904 513.525L948.375 514.873Z" fill="#0F0F0F"/>
<g opacity="0.263755">
<path opacity="0.263755" d="M946.651 519.266C947.862 519.591 949.162 519.613 950.388 519.327C951.613 519.041 952.709 518.46 953.536 517.659C954.363 516.857 954.884 515.871 955.034 514.824C955.184 513.777 954.955 512.718 954.377 511.778C953.799 510.839 952.897 510.063 951.786 509.548C950.676 509.033 949.405 508.802 948.136 508.885C946.866 508.968 945.655 509.36 944.655 510.013C943.655 510.665 942.912 511.548 942.518 512.551C941.991 513.895 942.13 515.357 942.905 516.617C943.68 517.876 945.028 518.829 946.651 519.266Z" fill="#0F0F0F"/>
</g>
<path opacity="0.678233" d="M993.442 526.996L948.377 514.869L948.906 513.521L993.971 525.648L993.442 526.996Z" fill="#0F0F0F"/>
<g opacity="0.911256">
<path opacity="0.911256" d="M991.718 531.388C992.929 531.714 994.229 531.735 995.454 531.449C996.68 531.163 997.775 530.582 998.602 529.781C999.429 528.979 999.951 527.993 1000.1 526.946C1000.25 525.9 1000.02 524.84 999.443 523.9C998.865 522.961 997.964 522.185 996.853 521.67C995.742 521.155 994.472 520.924 993.202 521.007C991.933 521.09 990.722 521.482 989.722 522.135C988.722 522.787 987.978 523.67 987.585 524.673C987.057 526.017 987.196 527.479 987.971 528.739C988.746 529.998 990.094 530.951 991.718 531.388Z" fill="#0F0F0F"/>
</g>
<path opacity="0.297002" d="M1272.35 602.034L993.45 526.974L993.98 525.626L1272.87 600.687L1272.35 602.034Z" fill="#0F0F0F"/>
<path opacity="0.320836" d="M889.349 619.666L887.807 619.05L990.322 443.2L991.864 443.816L889.349 619.666Z" fill="#0F0F0F"/>
<g opacity="0.899716">
<path opacity="0.899716" d="M996.891 445.824C997.445 444.875 997.645 443.811 997.469 442.767C997.292 441.723 996.745 440.747 995.897 439.96C995.049 439.174 993.939 438.613 992.706 438.349C991.474 438.085 990.174 438.129 988.972 438.476C987.77 438.824 986.719 439.458 985.952 440.3C985.186 441.142 984.738 442.152 984.666 443.205C984.593 444.257 984.899 445.303 985.545 446.212C986.191 447.12 987.148 447.849 988.295 448.307C989.833 448.921 991.602 449.005 993.214 448.539C994.826 448.073 996.149 447.097 996.891 445.824Z" fill="#0F0F0F"/>
</g>
<path opacity="0.22822" d="M1025.04 535.238L990.297 443.715L991.93 443.29L1026.67 534.813L1025.04 535.238Z" fill="#0F0F0F"/>
<g opacity="0.783568">
<path opacity="0.783568" d="M1027.78 529.93C1031.17 530.801 1033.07 533.787 1032.02 536.598C1030.97 539.41 1027.37 540.983 1023.97 540.111C1020.57 539.24 1018.67 536.255 1019.72 533.443C1020.78 530.632 1024.38 529.059 1027.78 529.93Z" fill="#0F0F0F"/>
</g>
<path opacity="0.856333" d="M1223.5 704.138L1223.65 702.727L1086.74 692.795L1026.69 534.808L1025.06 535.233L1085.45 694.124L1223.5 704.138Z" fill="#0F0F0F"/>
<path opacity="0.832256" d="M997.965 625.022L919.813 563.544L920.993 562.516L999.145 623.994L997.965 625.022Z" fill="#0F0F0F"/>
<g opacity="0.650612">
<path opacity="0.650612" d="M924.858 559.154C923.935 558.428 922.773 557.944 921.519 557.764C920.264 557.585 918.973 557.717 917.81 558.144C916.646 558.572 915.661 559.276 914.981 560.166C914.3 561.057 913.954 562.095 913.985 563.148C914.017 564.202 914.426 565.224 915.159 566.086C915.893 566.947 916.919 567.609 918.107 567.988C919.295 568.367 920.592 568.445 921.835 568.214C923.077 567.983 924.208 567.452 925.086 566.688C926.262 565.664 926.899 564.295 926.857 562.882C926.814 561.469 926.095 560.128 924.858 559.154Z" fill="#0F0F0F"/>
</g>
<path opacity="0.671925" d="M919.854 563.508L810.993 477.873L812.173 476.845L921.034 562.481L919.854 563.508Z" fill="#0F0F0F"/>
<g opacity="0.569208">
<path opacity="0.569208" d="M816.044 473.477C815.121 472.751 813.959 472.267 812.704 472.087C811.45 471.908 810.159 472.04 808.995 472.468C807.831 472.895 806.847 473.599 806.166 474.489C805.485 475.38 805.139 476.418 805.171 477.472C805.203 478.525 805.611 479.547 806.345 480.409C807.079 481.27 808.104 481.932 809.293 482.311C810.481 482.69 811.778 482.769 813.02 482.537C814.262 482.306 815.394 481.775 816.271 481.011C817.448 479.987 818.085 478.618 818.042 477.205C818 475.792 817.281 474.451 816.044 473.477Z" fill="#0F0F0F"/>
</g>
<path opacity="0.742891" d="M702.111 493.356L811.451 476.642L811.762 478.035L703.152 494.639L507.698 747.251L505.665 747.251L701.911 493.615L702.111 493.356Z" fill="#0F0F0F"/>
<path opacity="0.239653" d="M829.891 640.33L701.929 494.42L703.315 493.587L831.277 639.497L829.891 640.33Z" fill="#0F0F0F"/>
<g opacity="0.79485">
<path opacity="0.79485" d="M707.841 490.868C707.093 490.015 706.057 489.364 704.862 488.999C703.668 488.634 702.37 488.57 701.131 488.815C699.893 489.061 698.771 489.605 697.906 490.379C697.041 491.152 696.473 492.121 696.273 493.162C696.073 494.203 696.251 495.269 696.784 496.227C697.316 497.184 698.18 497.989 699.265 498.54C700.35 499.091 701.609 499.364 702.881 499.323C704.153 499.282 705.382 498.93 706.413 498.31C707.795 497.48 708.721 496.23 708.989 494.834C709.257 493.438 708.844 492.011 707.841 490.868Z" fill="#0F0F0F"/>
</g>
<path opacity="0.568358" d="M720.567 641.969L701.785 494.071L703.488 493.923L722.27 641.821L720.567 641.969Z" fill="#0F0F0F"/>
</g>
<g opacity="0.5">
<path opacity="0.281536" d="M433.356 561.208L433.469 559.423L560.944 567.532L435.528 753.664L433.01 754.201L557.718 569.12L433.356 561.208Z" fill="#0F0F0F"/>
<g opacity="0.742826">
<path opacity="0.742826" d="M433.838 553.604C432.511 553.52 431.19 553.831 430.04 554.498C428.89 555.165 427.964 556.159 427.379 557.353C426.793 558.547 426.575 559.888 426.752 561.206C426.928 562.525 427.491 563.761 428.37 564.759C429.248 565.758 430.403 566.473 431.688 566.815C432.973 567.156 434.33 567.109 435.587 566.679C436.845 566.249 437.947 565.456 438.754 564.399C439.561 563.342 440.037 562.07 440.121 560.742C440.233 558.962 439.634 557.211 438.456 555.872C437.278 554.533 435.617 553.718 433.838 553.604Z" fill="#0F0F0F"/>
</g>
<path opacity="0.755944" d="M182.756 543.473L354.082 650.465L379.388 557.775L433.356 561.208L433.469 559.423L182.756 543.473ZM352.99 647.674L189.71 545.708L377.567 557.659L352.99 647.674Z" fill="#0F0F0F"/>
<g opacity="0.97709">
<path opacity="0.97709" d="M385.063 559.114C385.414 557.831 385.376 556.473 384.955 555.211C384.534 553.95 383.748 552.841 382.697 552.026C381.647 551.211 380.378 550.726 379.052 550.632C377.726 550.539 376.402 550.84 375.248 551.499C374.093 552.159 373.16 553.145 372.567 554.335C371.973 555.525 371.745 556.865 371.912 558.184C372.08 559.504 372.634 560.744 373.506 561.749C374.377 562.753 375.527 563.476 376.809 563.827C378.529 564.297 380.364 564.065 381.912 563.181C383.46 562.297 384.594 560.834 385.063 559.114Z" fill="#0F0F0F"/>
</g>
<path opacity="0.611018" d="M457.952 263.236L457.64 264.382L377.719 557.105L379.443 557.577L459.052 265.999L807.816 478.197L727.708 508.159L728.335 509.835L811.89 478.582L457.952 263.236Z" fill="#0F0F0F"/>
<g opacity="0.579343">
<path opacity="0.579343" d="M725.667 502.698C724.422 503.164 723.343 503.988 722.566 505.068C721.79 506.147 721.351 507.433 721.305 508.762C721.258 510.091 721.607 511.404 722.307 512.536C723.007 513.667 724.026 514.565 725.235 515.116C726.445 515.668 727.791 515.849 729.103 515.635C730.415 515.421 731.634 514.823 732.606 513.916C733.578 513.009 734.259 511.834 734.564 510.539C734.868 509.245 734.782 507.889 734.316 506.643C733.692 504.972 732.43 503.618 730.808 502.879C729.186 502.139 727.336 502.074 725.667 502.698Z" fill="#0F0F0F"/>
</g>
<path opacity="0.285987" d="M727.708 508.159L728.334 509.835L354.763 649.565L407.337 759.676L405.54 760.059L352.309 648.573L727.708 508.159Z" fill="#0F0F0F"/>
<path opacity="0.997416" d="M715.141 390.598L713.936 391.919L808.461 478.328L584.59 649.766L585.677 651.185L811.245 478.449L715.141 390.598Z" fill="#0F0F0F"/>
<g opacity="0.980722">
<path opacity="0.980722" d="M719.071 386.294C718.089 385.397 716.864 384.811 715.55 384.61C714.236 384.41 712.892 384.604 711.688 385.167C710.484 385.731 709.474 386.639 708.787 387.777C708.099 388.915 707.764 390.232 707.824 391.561C707.884 392.889 708.337 394.171 709.124 395.242C709.912 396.314 711 397.127 712.25 397.581C713.499 398.034 714.855 398.106 716.146 397.788C717.437 397.47 718.604 396.777 719.501 395.795C720.703 394.478 721.332 392.738 721.252 390.956C721.171 389.174 720.387 387.497 719.071 386.294Z" fill="#0F0F0F"/>
</g>
<path opacity="0.750912" d="M547.592 239.835L548.798 238.515L715.13 390.611L713.924 391.931L547.592 239.835Z" fill="#0F0F0F"/>
<g opacity="0.960049">
<path opacity="0.960049" d="M552.716 234.223C551.735 233.326 550.51 232.74 549.195 232.54C547.881 232.339 546.537 232.533 545.333 233.097C544.13 233.66 543.12 234.569 542.432 235.707C541.744 236.845 541.409 238.161 541.47 239.49C541.53 240.819 541.982 242.1 542.77 243.171C543.558 244.243 544.645 245.056 545.895 245.51C547.145 245.963 548.501 246.035 549.792 245.717C551.082 245.399 552.25 244.706 553.146 243.724C554.348 242.407 554.978 240.667 554.898 238.885C554.817 237.103 554.032 235.427 552.716 234.223Z" fill="#0F0F0F"/>
</g>
<path opacity="0.780184" d="M458.417 264.329L547.934 238.329L548.432 240.046L458.915 266.046L458.417 264.329Z" fill="#0F0F0F"/>
<g opacity="0.479299">
<path opacity="0.479299" d="M456.791 258.729C455.515 259.1 454.377 259.841 453.521 260.859C452.666 261.877 452.132 263.126 451.986 264.448C451.84 265.77 452.089 267.106 452.702 268.286C453.314 269.467 454.263 270.439 455.428 271.08C456.593 271.721 457.922 272.002 459.246 271.888C460.57 271.773 461.831 271.268 462.868 270.437C463.906 269.606 464.673 268.485 465.074 267.217C465.475 265.949 465.491 264.591 465.12 263.313C464.623 261.601 463.466 260.155 461.904 259.296C460.342 258.436 458.503 258.232 456.791 258.729Z" fill="#0F0F0F"/>
</g>
<path opacity="0.242142" d="M223.53 332.552L458.417 264.329L458.916 266.046L224.029 334.269L223.53 332.552Z" fill="#0F0F0F"/>
<g opacity="0.680183">
<path opacity="0.680183" d="M221.904 326.952C220.628 327.323 219.49 328.064 218.634 329.082C217.779 330.1 217.245 331.349 217.099 332.671C216.953 333.993 217.202 335.328 217.815 336.509C218.428 337.689 219.377 338.661 220.542 339.302C221.706 339.944 223.035 340.225 224.359 340.11C225.684 339.996 226.944 339.491 227.982 338.66C229.019 337.828 229.787 336.708 230.187 335.44C230.588 334.172 230.604 332.813 230.233 331.536C229.736 329.823 228.579 328.378 227.017 327.518C225.455 326.659 223.616 326.455 221.904 326.952Z" fill="#0F0F0F"/>
</g>
<path opacity="0.628184" d="M223.107 334.043L224.417 332.826L391.403 512.919L390.093 514.135L223.107 334.043Z" fill="#0F0F0F"/>
<g opacity="0.411604">
<path opacity="0.411604" d="M385.792 518.117C386.696 519.093 387.868 519.778 389.161 520.087C390.455 520.395 391.81 520.314 393.056 519.852C394.303 519.389 395.384 518.568 396.164 517.491C396.943 516.414 397.386 515.129 397.436 513.8C397.486 512.471 397.141 511.157 396.444 510.024C395.748 508.891 394.731 507.989 393.523 507.434C392.315 506.879 390.97 506.695 389.657 506.905C388.345 507.115 387.124 507.709 386.149 508.614C384.842 509.826 384.071 511.509 384.004 513.291C383.937 515.073 384.58 516.809 385.792 518.117Z" fill="#0F0F0F"/>
</g>
<path opacity="0.430298" d="M390.054 514.164L391.364 512.948L475.007 603.157L473.697 604.373L390.054 514.164Z" fill="#0F0F0F"/>
<g opacity="0.294542">
<path opacity="0.294542" d="M564.17 566.746C563.758 565.481 562.979 564.367 561.934 563.545C560.889 562.723 559.624 562.229 558.299 562.127C556.973 562.024 555.647 562.317 554.489 562.968C553.33 563.619 552.39 564.6 551.788 565.786C551.187 566.972 550.95 568.31 551.108 569.63C551.266 570.951 551.812 572.195 552.677 573.205C553.542 574.216 554.687 574.947 555.967 575.306C557.247 575.666 558.604 575.637 559.868 575.225C561.562 574.671 562.967 573.467 563.774 571.877C564.581 570.287 564.723 568.441 564.17 566.746Z" fill="#0F0F0F"/>
</g>
<path opacity="0.675331" d="M526.159 474.838L527.858 474.283L558.644 568.557L556.945 569.112L526.159 474.838Z" fill="#0F0F0F"/>
<g opacity="0.845093">
<path opacity="0.845093" d="M533.403 472.466C532.99 471.202 532.212 470.088 531.167 469.266C530.122 468.444 528.856 467.95 527.531 467.848C526.206 467.745 524.88 468.038 523.721 468.689C522.562 469.34 521.622 470.321 521.021 471.507C520.419 472.693 520.182 474.03 520.34 475.351C520.499 476.672 521.045 477.916 521.91 478.926C522.774 479.936 523.919 480.667 525.199 481.027C526.479 481.386 527.837 481.358 529.1 480.945C530.794 480.392 532.2 479.188 533.007 477.598C533.813 476.008 533.956 474.162 533.403 472.466Z" fill="#0F0F0F"/>
</g>
<path opacity="0.978333" d="M456.902 262.598L526.164 474.829L527.864 474.274L460.101 266.636L634.64 372.831L635.568 371.303L456.902 262.598Z" fill="#0F0F0F"/>
<g opacity="0.457701">
<path opacity="0.457701" d="M631.613 377.813C632.749 378.504 634.064 378.843 635.392 378.786C636.72 378.729 638.002 378.28 639.074 377.494C640.147 376.709 640.962 375.623 641.418 374.374C641.874 373.124 641.949 371.768 641.634 370.475C641.319 369.183 640.628 368.013 639.648 367.114C638.669 366.214 637.445 365.625 636.131 365.422C634.818 365.218 633.473 365.409 632.268 365.97C631.063 366.53 630.051 367.436 629.361 368.573C628.435 370.097 628.153 371.926 628.575 373.659C628.997 375.392 630.09 376.886 631.613 377.813Z" fill="#0F0F0F"/>
</g>
<path opacity="0.753451" d="M634.63 372.849L635.559 371.32L810.328 477.607L809.4 479.136L634.63 372.849Z" fill="#0F0F0F"/>
<path opacity="0.85" d="M805.192 486.163C806.728 487.097 808.505 487.555 810.3 487.478C812.095 487.402 813.826 486.794 815.276 485.733C816.725 484.671 817.828 483.204 818.443 481.515C819.059 479.827 819.161 477.993 818.735 476.247C818.309 474.5 817.375 472.919 816.052 471.704C814.728 470.488 813.074 469.692 811.299 469.417C809.523 469.142 807.706 469.4 806.078 470.158C804.449 470.916 803.081 472.14 802.148 473.676C800.897 475.735 800.515 478.208 801.086 480.55C801.657 482.891 803.134 484.911 805.192 486.163Z" fill="#0F0F0F"/>
<path opacity="0.363132" d="M695.983 647.392L809.109 477.892L810.596 478.886L697.47 648.386L695.983 647.392Z" fill="#0F0F0F"/>
<path opacity="0.702982" d="M186.163 544.569L120.458 762.834L119.684 759.203L184.451 544.054L186.163 544.569Z" fill="#0F0F0F"/>
<g opacity="0.256863">
<path opacity="0.256863" d="M191.742 546.253C192.126 544.979 192.123 543.621 191.735 542.348C191.346 541.076 190.59 539.948 189.56 539.106C188.531 538.264 187.276 537.746 185.952 537.618C184.629 537.49 183.298 537.757 182.127 538.386C180.956 539.015 179.997 539.978 179.373 541.152C178.749 542.326 178.486 543.659 178.619 544.982C178.752 546.306 179.274 547.56 180.12 548.587C180.965 549.613 182.096 550.366 183.368 550.75C185.075 551.265 186.916 551.08 188.487 550.237C190.057 549.393 191.228 547.96 191.742 546.253Z" fill="#0F0F0F"/>
</g>
<path opacity="0.505781" d="M184.451 544.053L241.99 352.916L243.702 353.432L186.162 544.57L184.451 544.053Z" fill="#0F0F0F"/>
<g opacity="0.910817">
<path opacity="0.910817" d="M249.282 355.115C249.665 353.842 249.663 352.483 249.274 351.211C248.886 349.939 248.129 348.81 247.1 347.968C246.071 347.127 244.815 346.609 243.492 346.481C242.169 346.353 240.838 346.62 239.667 347.249C238.496 347.878 237.537 348.84 236.913 350.014C236.289 351.188 236.027 352.521 236.159 353.845C236.292 355.168 236.814 356.423 237.66 357.449C238.505 358.476 239.636 359.229 240.908 359.613C242.615 360.127 244.456 359.943 246.026 359.099C247.597 358.256 248.768 356.823 249.282 355.115Z" fill="#0F0F0F"/>
</g>
<path opacity="0.803648" d="M241.973 353.501L243.647 352.874L318.311 552.247L316.637 552.874L241.973 353.501Z" fill="#0F0F0F"/>
<g opacity="0.995942">
<path opacity="0.995942" d="M311.144 554.93C311.61 556.176 312.435 557.255 313.514 558.032C314.593 558.809 315.878 559.249 317.206 559.295C318.535 559.341 319.847 558.992 320.977 558.292C322.107 557.592 323.004 556.572 323.555 555.362C324.106 554.152 324.286 552.805 324.072 551.492C323.857 550.18 323.259 548.96 322.352 547.987C321.445 547.015 320.27 546.333 318.976 546.028C317.682 545.723 316.327 545.81 315.082 546.276C313.413 546.901 312.06 548.163 311.322 549.786C310.583 551.409 310.519 553.26 311.144 554.93Z" fill="#0F0F0F"/>
</g>
<path opacity="0.285774" d="M316.585 552.894L318.259 552.267L354.391 648.749L352.717 649.377L316.585 552.894Z" fill="#0F0F0F"/>
<path opacity="0.647922" d="M807.425 463.723C803.578 464.317 800.119 466.404 797.799 469.531C795.478 472.659 794.482 476.575 795.026 480.432C795.57 484.289 797.61 487.778 800.705 490.142C803.8 492.506 807.701 493.555 811.563 493.063C815.425 492.571 818.937 490.577 821.34 487.512C823.742 484.448 824.842 480.559 824.4 476.689C823.958 472.818 822.011 469.277 818.98 466.832C815.948 464.387 812.077 463.234 808.203 463.624C807.942 463.651 807.682 463.684 807.425 463.723ZM811.676 491.205C811.45 491.24 811.223 491.269 810.993 491.291C809.297 491.462 807.583 491.297 805.95 490.805C804.317 490.313 802.797 489.505 801.476 488.425C800.155 487.345 799.06 486.016 798.252 484.513C797.445 483.01 796.941 481.363 796.77 479.665C796.599 477.967 796.764 476.253 797.255 474.619C797.746 472.985 798.554 471.464 799.633 470.143C800.711 468.822 802.039 467.726 803.541 466.919C805.043 466.111 806.69 465.608 808.386 465.437C811.754 465.098 815.121 466.088 817.77 468.195C820.419 470.303 822.142 473.363 822.571 476.722C823 480.081 822.101 483.474 820.066 486.18C818.031 488.885 815.02 490.688 811.676 491.205Z" fill="#0F0F0F"/>
</g>
</g>
</svg>
