<svg width="220" height="97" viewBox="0 0 220 97" fill="none" xmlns="http://www.w3.org/2000/svg">
<g clip-path="url(#clip0)">
<path d="M47.6665 80.2874C30.4152 79.2624 16.748 65.3384 16.748 48.304C16.748 31.2696 30.4152 17.3457 47.6665 16.3207V0C21.1697 0.997535 0 22.231 0 48.2927C0 74.3544 21.1697 95.5879 47.6665 96.5854V80.2874Z" fill="#00568F"/>
<path d="M51.7104 0.00378418V16.3182C58.6869 16.6705 65.3677 19.2446 70.7759 23.6641C76.1842 28.0837 80.0361 34.117 81.7686 40.8817H50.9836C49.8081 40.8743 48.6394 41.0608 47.5247 41.4336C45.1289 42.251 41.6008 44.1583 41.6008 48.313C41.6008 53.0292 46.3173 55.0146 48.5468 55.5083C49.1513 55.6404 49.7684 55.706 50.3871 55.7039H81.7738C80.0454 62.4737 76.1945 68.5127 70.7848 72.9367C65.3752 77.3608 58.6909 79.9376 51.7104 80.29V96.5817C78.1369 95.5096 99.226 74.3052 99.226 48.2928C99.226 22.2804 78.1369 1.0759 51.7104 0.00378418Z" fill="#888887"/>
<path d="M128.291 20.1804C128.316 22.4231 127.533 24.6 126.085 26.3131C125.345 27.0468 124.459 27.6158 123.483 27.9829C122.508 28.3499 121.466 28.5067 120.426 28.4429C119.295 28.4793 118.172 28.2389 117.154 27.7425C116.137 27.2461 115.257 26.5088 114.589 25.5946C113.038 23.328 112.278 20.6133 112.427 17.871V13.3549C112.275 10.6168 113.058 7.90846 114.649 5.67401C115.361 4.75459 116.283 4.01869 117.337 3.5277C118.392 3.0367 119.548 2.80483 120.71 2.85142C121.725 2.79051 122.741 2.95184 123.687 3.32414C124.633 3.69644 125.486 4.27072 126.187 5.00685C127.591 6.75511 128.336 8.94085 128.291 11.1823H125.189C125.207 9.64155 124.77 8.1297 123.93 6.83724C123.53 6.38683 123.032 6.03508 122.473 5.80952C121.914 5.58397 121.311 5.49074 120.71 5.53713C119.952 5.50583 119.199 5.67329 118.525 6.02288C117.852 6.37247 117.281 6.89204 116.871 7.53005C115.864 9.30527 115.398 11.3356 115.529 13.372V17.9394C115.411 19.95 115.843 21.9548 116.778 23.7386C117.145 24.3754 117.678 24.9002 118.321 25.2559C118.964 25.6117 119.692 25.785 120.426 25.7571C121.055 25.8172 121.69 25.7397 122.287 25.53C122.883 25.3202 123.427 24.9833 123.88 24.5425C124.744 23.2523 125.2 21.7326 125.189 20.1803L128.291 20.1804Z" fill="#00568F"/>
<path d="M158.688 28.1007H155.602V5.87921H146.043V28.1007H142.974V3.19348H158.688V28.1007Z" fill="#00568F"/>
<path d="M186.217 16.588H177.58V25.415H187.642V28.1007H174.51V3.19348H187.474V5.87921H177.58V13.9022H186.217V16.588Z" fill="#00568F"/>
<path d="M202.09 3.19348H205.175V25.415H214.717V3.19348H217.786V25.3465H220L219.699 34.1051H216.947V28.1007H202.09V3.19348Z" fill="#00568F"/>
<path d="M115.881 53.481C115.938 55.0621 116.467 56.59 117.398 57.8689C117.828 58.279 118.339 58.5951 118.897 58.7968C119.456 58.9986 120.051 59.0817 120.643 59.0407C121.406 59.0443 122.155 58.8352 122.805 58.437C123.455 58.0389 123.982 57.4673 124.325 56.7866C125.33 54.777 125.8 52.543 125.692 50.2992H117.793V47.6135H125.692C125.812 45.3694 125.326 43.1342 124.283 41.1432C123.906 40.4328 123.34 39.8402 122.648 39.4304C121.955 39.0206 121.163 38.8097 120.359 38.8207C119.784 38.7878 119.209 38.8884 118.68 39.1146C118.15 39.3409 117.68 39.6866 117.306 40.1247C116.441 41.4196 115.948 42.9271 115.881 44.483H112.778C112.856 42.2178 113.679 40.0415 115.118 38.2904C115.784 37.5732 116.597 37.009 117.502 36.6368C118.406 36.2647 119.381 36.0934 120.359 36.135C121.562 36.1059 122.754 36.3788 123.824 36.9286C124.895 37.4785 125.811 38.2878 126.488 39.2826C128.141 41.8245 128.942 44.8258 128.777 47.853V50.1966C128.815 52.2507 128.477 54.2944 127.779 56.2267C127.221 57.8169 126.231 59.2206 124.92 60.281C123.702 61.2371 122.192 61.7472 120.643 61.7265C119.637 61.7745 118.632 61.6105 117.693 61.245C116.754 60.8796 115.902 60.3209 115.193 59.6053C113.718 57.8959 112.867 55.7369 112.778 53.4811L115.881 53.481Z" fill="#888887"/>
<path d="M147.185 61.3837H144.1V49.8708H135.621V61.3837H132.551V36.4764H135.621V47.1852H144.1V36.4764H147.185L147.185 61.3837Z" fill="#888887"/>
<path d="M164.195 49.8709H155.559V58.6979H165.621V61.3837H152.489V36.4764H165.452V39.1622H155.559V47.1852H164.195L164.195 49.8709Z" fill="#888887"/>
<path d="M172.602 51.6329V61.3837H169.532V36.4764H177.314C178.302 36.4234 179.291 36.5814 180.213 36.9397C181.135 37.2981 181.971 37.8487 182.664 38.5549C184.01 40.075 184.708 42.0612 184.608 44.0889C184.741 46.1049 184.075 48.0923 182.756 49.6229C182.067 50.2948 181.249 50.8195 180.351 51.1651C179.452 51.5106 178.493 51.6698 177.531 51.6329H172.602ZM172.602 48.9472H177.314C177.897 48.9843 178.481 48.8913 179.023 48.675C179.565 48.4586 180.053 48.1244 180.45 47.6964C181.238 46.6751 181.625 45.4014 181.54 44.1145C181.605 42.8197 181.206 41.5441 180.416 40.5162C180.04 40.0681 179.567 39.7127 179.031 39.4778C178.496 39.2429 177.914 39.1349 177.33 39.1622H172.602L172.602 48.9472Z" fill="#888887"/>
<path d="M200.726 39.1622H191.116V61.3837H188.031V36.4764H200.726L200.726 39.1622Z" fill="#888887"/>
<path d="M219.379 51.1197C219.556 53.9004 218.807 56.6616 217.249 58.9716C216.535 59.8833 215.613 60.6096 214.559 61.089C213.505 61.5685 212.351 61.7869 211.195 61.7258C210.061 61.7743 208.932 61.5575 207.897 61.0927C206.862 60.628 205.95 59.928 205.233 59.0486C203.642 56.8542 202.841 54.1863 202.96 51.4789V46.7917C202.799 44.0158 203.559 41.2646 205.124 38.9654C205.825 38.0396 206.741 37.2981 207.793 36.8049C208.844 36.3117 210 36.0815 211.161 36.1343C212.306 36.0786 213.448 36.2953 214.494 36.7666C215.539 37.238 216.457 37.9505 217.174 38.8457C218.749 41.1091 219.525 43.8329 219.379 46.5864V51.1197ZM216.31 46.7575C216.45 44.7187 216.011 42.6818 215.044 40.8814C214.594 40.2817 214.011 39.7953 213.34 39.4612C212.669 39.127 211.929 38.9543 211.18 38.9568C210.43 38.9593 209.692 39.1369 209.023 39.4756C208.354 39.8142 207.774 40.3044 207.329 40.907C206.35 42.6581 205.893 44.6526 206.012 46.6548V51.1197C205.887 53.1424 206.338 55.1591 207.313 56.9359C207.75 57.5422 208.322 58.0386 208.984 58.3859C209.646 58.7331 210.38 58.9216 211.127 58.9365C211.875 58.9515 212.616 58.7924 213.291 58.4719C213.966 58.1514 214.558 57.6783 215.019 57.0899C215.97 55.3602 216.418 53.3986 216.31 51.4276L216.31 46.7575Z" fill="#888887"/>
<path d="M127.251 71.7705H120.828V93.992H117.759V71.7705H111.352V69.0848H127.251V71.7705Z" fill="#00568F"/>
<path d="M137.773 84.2413V93.9921H134.703V69.085H142.486C143.474 69.032 144.462 69.1899 145.385 69.5483C146.307 69.9066 147.142 70.4572 147.835 71.1634C149.182 72.6835 149.879 74.6697 149.78 76.6974C149.912 78.7134 149.247 80.7008 147.928 82.2314C147.239 82.9033 146.42 83.428 145.522 83.7736C144.624 84.1191 143.665 84.2783 142.703 84.2414L137.773 84.2413ZM137.773 81.5556H142.486C143.068 81.5927 143.652 81.4998 144.195 81.2834C144.737 81.0671 145.224 80.7328 145.621 80.3048C146.409 79.2836 146.797 78.0098 146.711 76.723C146.776 75.4281 146.378 74.1525 145.587 73.1247C145.212 72.6765 144.738 72.3212 144.203 72.0863C143.668 71.8514 143.085 71.7434 142.502 71.7706H137.773L137.773 81.5556Z" fill="#00568F"/>
<path d="M166.658 87.4744H158.407L156.512 93.9921H153.359L161.224 69.0848H163.857L171.739 93.9921H168.587L166.658 87.4744ZM159.212 84.7887H165.87L162.533 73.4642L159.212 84.7887Z" fill="#00568F"/>
<path d="M194.889 93.992H191.803V82.4793H181.977V93.992H178.907V69.0848H181.977V79.7936H191.803V69.0848H194.889L194.889 93.992Z" fill="#00568F"/>
<path d="M219.364 86.0717C219.389 88.3144 218.606 90.4913 217.158 92.2044C216.418 92.9381 215.532 93.5071 214.556 93.8742C213.581 94.2412 212.539 94.398 211.499 94.3342C210.368 94.3706 209.244 94.1302 208.227 93.6338C207.21 93.1374 206.329 92.4001 205.662 91.486C204.111 89.2193 203.351 86.5046 203.499 83.7623V79.2462C203.348 76.5082 204.131 73.7998 205.721 71.5654C206.434 70.6459 207.355 69.9101 208.41 69.4191C209.464 68.9281 210.621 68.6962 211.783 68.7428C212.798 68.6819 213.814 68.8432 214.76 69.2155C215.705 69.5878 216.559 70.1621 217.259 70.8982C218.663 72.6465 219.408 74.8322 219.364 77.0737H216.262C216.28 75.5329 215.842 74.0211 215.003 72.7286C214.603 72.2782 214.104 71.9264 213.546 71.7009C212.987 71.4753 212.384 71.3821 211.783 71.4285C211.025 71.3972 210.272 71.5647 209.598 71.9143C208.925 72.2638 208.354 72.7834 207.943 73.4214C206.937 75.1966 206.471 77.227 206.602 79.2633V83.8308C206.484 85.8414 206.916 87.8462 207.851 89.6299C208.217 90.2667 208.751 90.7915 209.394 91.1472C210.037 91.503 210.765 91.6763 211.499 91.6484C212.128 91.7085 212.763 91.631 213.36 91.4213C213.956 91.2115 214.5 90.8746 214.953 90.4338C215.817 89.1436 216.272 87.6239 216.262 86.0716L219.364 86.0717Z" fill="#00568F"/>
</g>
<defs>
<clipPath id="clip0">
<rect width="220" height="96.5854" fill="white"/>
</clipPath>
</defs>
</svg>
