<svg width="458" height="518" viewBox="0 0 458 518" fill="none" xmlns="http://www.w3.org/2000/svg">
<g clip-path="url(#clip0)">
<path d="M447.91 124.535C445.021 118.098 440.558 115.265 434.472 116.824C433.929 116.497 433.335 116.269 432.716 116.151C431.534 115.972 430.444 115.4 429.616 114.524C428.953 113.637 428.355 112.702 427.827 111.726C427.24 110.65 426.576 109.619 425.842 108.641C424.503 107.093 422.851 105.859 420.999 105.024C420.837 104.939 420.695 104.871 420.592 104.815C420.366 104.523 420.163 104.214 419.984 103.89C420.956 102.692 421.52 101.206 421.591 99.6533C421.789 98.2187 421.95 97.3062 422.737 96.6651C423.607 96.089 424.573 95.6782 425.587 95.4527C426.661 95.2157 427.681 94.7704 428.59 94.1409L428.56 94.1038C430.561 92.0469 444.128 74.9276 443.702 62.9741C443.688 60.7213 443.004 58.5257 441.74 56.6762C440.477 54.8267 438.694 53.4101 436.625 52.6126C434.186 51.3925 431.529 50.6895 428.815 50.546C427.498 50.3263 425.753 50.0348 424.542 49.7887C425.726 49.027 427.485 48.0305 428.902 47.2274C434.741 43.921 437.152 42.4115 437.466 40.7612C437.53 40.5196 437.539 40.2662 437.491 40.0206C437.444 39.7751 437.342 39.5439 437.193 39.3448C437.044 39.1457 436.852 38.9841 436.632 38.8724C436.412 38.7607 436.17 38.7018 435.924 38.7004C432.143 38.4942 419.287 37.1689 412.641 28.7426C409.424 24.665 409.498 23.4899 409.441 23.4899C410.505 22.7587 416.515 24.5971 420.106 25.6893C427.452 27.9256 433.805 29.8607 435.846 26.7729C437.393 24.434 435.691 20.4422 430.158 13.4259C429.691 12.8779 429.168 12.3821 428.598 11.9469C428.156 11.6141 427.746 11.2412 427.371 10.8326C427.746 9.80378 427.8 8.6817 427.525 7.62047C427.249 6.55925 426.658 5.61093 425.832 4.90573C411.61 -8.41659 302.199 8.06122 268.863 22.6053C260.195 26.3873 255.803 30.0391 255.458 33.8514C254.436 33.5277 253.441 33.1209 252.483 32.6351C250.976 31.7731 249.318 31.2194 247.602 31.0052C246.706 31.1489 245.855 31.4993 245.113 32.0295C241.373 34.333 237.137 35.6716 232.773 35.929C231.871 35.929 230.992 35.9011 230.162 35.8749C229.387 35.85 228.65 35.8265 227.968 35.8265C221.963 35.8265 220.612 44.199 219.045 53.8927C217.186 65.4041 215.078 78.4525 205.05 78.4525C202.952 78.2316 200.88 77.8039 198.863 77.1753C199.445 77.1558 200.127 77.1435 200.925 77.1435C215.861 77.1435 219.094 52.5008 219.094 46.4009C219.026 44.6029 218.388 42.8757 217.277 41.4771C217.82 39.8343 218.082 38.1086 218.052 36.3754C218.052 18.9148 210.945 10.4264 196.325 10.4264C182.725 10.4264 174.924 18.9492 174.924 33.8098C174.924 38.6366 177.104 39.3568 178.404 39.3568C178.555 39.3559 178.704 39.3312 178.847 39.2835C178.961 39.245 179.851 38.9506 181.255 38.5551C181.142 39.5166 180.87 40.4518 180.451 41.3211C180.021 41.1319 179.554 41.0431 179.086 41.0613C178.732 41.0267 178.358 40.992 178.017 40.992C177.614 40.9535 177.207 41.0188 176.835 41.1818C176.462 41.3448 176.136 41.6003 175.885 41.925C175.577 42.4885 175.447 43.1355 175.513 43.7772C175.914 46.858 176.778 49.8576 178.075 52.6706C180.884 59.0358 182.539 65.8656 182.962 72.8307C182.962 80.7595 180.72 83.4354 174.077 83.4354C173.914 83.4354 173.767 83.4325 173.633 83.4286C174.206 82.92 174.968 82.313 175.595 81.8142C178.547 79.4643 182.221 76.5395 182.221 73.3202C182.22 73.0087 182.155 72.701 182.028 72.4172C181.902 72.1334 181.719 71.88 181.49 71.6735C181.261 71.4671 180.991 71.3124 180.699 71.2196C180.407 71.1267 180.099 71.0978 179.796 71.1348C175.957 71.1348 152.173 83.8266 152.173 86.9049C152.138 87.2944 152.202 87.6866 152.36 88.0432C152.518 88.3997 152.764 88.7085 153.074 88.9394C154.046 89.5933 155.124 89.1248 156.262 88.6313C157.371 88.0696 158.579 87.7413 159.815 87.6664C162.113 87.6664 166.765 90.695 169.576 94.0207C170.272 94.7834 170.834 95.6624 171.236 96.6192C170.954 96.7441 170.644 96.7927 170.338 96.7602C167.229 96.6516 164.157 96.0419 161.236 94.9537C157.659 93.646 153.899 92.9365 150.1 92.8527C134.214 92.8527 115.884 101.692 110.798 121.281C108.337 123.806 105.713 126.16 102.943 128.328C87.6271 141.257 72.6735 154.621 72.6735 163.53C72.6735 170.396 87.2007 183.242 99.3867 192.81C110.004 201.147 126.548 212.694 129.996 212.694C132.608 212.694 134.414 210.044 136.159 207.483C136.894 206.3 137.757 205.204 138.731 204.216C138.373 205.994 137.421 207.59 136.037 208.732C134.539 209.951 133.555 211.706 133.285 213.639C133.285 216.939 140.82 223.278 151.13 223.278C153.564 223.229 155.992 223.018 158.399 222.647C157.999 223.657 157.518 224.632 156.961 225.561C156.728 225.904 156.574 226.297 156.512 226.71C156.449 227.122 156.48 227.544 156.601 227.943C157.304 230.254 160.686 231.767 167.66 234.705C180.722 240.206 200.46 248.519 200.46 267.365C200.351 271.268 174.147 335.919 159.247 353.036C156.71 356.303 155.33 360.347 155.329 364.512C155.201 366.908 154.748 369.275 153.984 371.545C152.141 369.801 150.402 362.107 150.402 356.495C150.402 342.108 158.291 324.772 171.505 310.115C174.408 306.396 175.97 301.775 175.93 297.025C175.997 293.79 176.759 290.61 178.164 287.709C180.225 284.436 182.799 281.529 185.784 279.105C190.227 275.119 194.424 271.354 194.424 263.196C194.424 253.633 180.162 238.977 167.835 238.977C163.621 238.977 157.679 240.668 153.298 248.722C149.317 256.044 147.298 267.376 147.298 282.404C147.298 282.799 147.31 283.269 147.324 283.797C147.341 284.444 147.361 285.185 147.361 285.992C147.361 307.182 136.887 324.015 126.757 340.292C116.628 356.572 107.059 371.949 107.059 391.278C107.373 401.699 108.628 412.068 110.809 422.254C112.178 428.465 113.037 434.78 113.377 441.136C113.377 451.395 110.578 460.952 107.617 471.067C106.084 476.297 104.502 481.705 103.34 487.22C103.31 487.409 103.291 487.599 103.283 487.789C103.246 488.777 103.361 489.763 103.623 490.714C103.726 491.198 103.985 491.633 104.36 491.948C104.734 492.264 105.202 492.442 105.688 492.453C110.905 492.453 120.571 462.779 120.565 453.139C120.492 452.18 118.757 429.406 118.757 408.266C118.757 404.069 118.741 400.376 118.726 397.13C118.67 384.872 118.636 377.475 119.892 376.574C120.37 376.22 122.253 376.919 124.073 377.582C129.889 379.906 136.083 381.094 142.331 381.085C142.882 381.085 144.127 380.953 146.281 380.72C148.671 380.463 153.278 380.015 155.213 379.985C154.891 386.299 151.793 390.664 147.927 396.113C141.191 405.604 131.966 418.605 131.966 450.499C132.069 457.789 133.444 465.003 136.028 471.802C135.56 473.793 134.686 475.662 133.464 477.287C132.825 478.258 132.241 479.265 131.714 480.303C130.079 484.51 129.012 488.924 128.541 493.423C126.854 504.114 125.109 515.169 114.083 515.169C106.846 515.169 101.275 506.309 100.063 497.737C100.012 497.398 99.8464 497.088 99.5942 496.86C99.342 496.633 99.0195 496.502 98.6827 496.492H1.38989C1.02127 496.492 0.667746 496.641 0.407091 496.906C0.146435 497.172 0 497.532 0 497.907C0 498.283 0.146435 498.643 0.407091 498.908C0.667746 499.174 1.02127 499.323 1.38989 499.323H97.503C99.1955 508.592 105.38 518 114.082 518C127.479 518 129.59 504.622 131.285 493.871C131.727 489.646 132.713 485.499 134.217 481.536C134.696 480.599 135.226 479.69 135.804 478.813C137.431 476.712 138.472 474.203 138.817 471.551C138.816 471.362 138.779 471.175 138.707 471C136.207 464.459 134.866 457.517 134.745 450.499C134.745 419.523 143.303 407.461 150.181 397.769C154.368 391.869 157.987 386.766 158.02 378.994C158.007 378.539 157.838 378.103 157.541 377.762C156.724 376.984 155.274 376.902 145.988 377.906C144.328 378.086 142.761 378.254 142.331 378.254C136.405 378.255 130.531 377.125 125.013 374.921C121.962 373.804 119.95 373.071 118.288 374.26C115.85 376.015 115.87 380.491 115.947 397.142C115.961 400.384 115.978 404.075 115.978 408.266C115.978 429.517 117.72 452.396 117.791 453.267C117.791 463.788 109.405 485.069 106.118 489.064C106.076 488.647 106.056 488.228 106.058 487.809C107.196 482.407 108.763 477.055 110.28 471.877C113.169 462.011 116.157 451.81 116.157 441.136C115.823 434.604 114.948 428.113 113.541 421.732C111.395 411.717 110.156 401.523 109.838 391.278C109.838 372.77 119.197 357.731 129.105 341.807C139.447 325.19 150.141 308.006 150.141 285.992C150.141 285.157 150.121 284.389 150.104 283.72C150.09 283.222 150.078 282.78 150.078 282.404C150.078 267.862 151.979 256.991 155.731 250.094C158.72 244.597 162.793 241.808 167.836 241.808C179.031 241.808 191.644 255.761 191.644 263.196C191.644 270.074 188.248 273.121 183.947 276.98C180.744 279.6 177.983 282.737 175.774 286.266C174.151 289.517 173.259 293.097 173.165 296.743C173.235 300.879 171.929 304.918 169.459 308.202C155.785 323.365 147.622 341.42 147.622 356.495C147.622 356.679 148.158 374.961 154.851 374.736C155.094 374.715 155.327 374.628 155.526 374.486C155.726 374.344 155.885 374.15 155.987 373.925C157.244 371.045 157.959 367.949 158.095 364.8C158.063 361.231 159.2 357.753 161.327 354.917C175.971 338.092 203.24 272.612 203.24 267.368C203.24 246.626 181.632 237.526 168.723 232.09C168.213 231.874 167.687 231.653 167.158 231.428C167.358 231.463 167.56 231.481 167.763 231.48C169.773 231.48 169.773 228.739 169.773 227.708C169.687 225.61 169.311 223.536 168.656 221.545C168.118 219.926 167.796 218.241 167.699 216.535C167.696 216.29 167.712 216.045 167.747 215.803C168.847 216.273 169.906 216.837 170.912 217.489C175.223 220.405 180.159 222.223 185.304 222.79C186.79 222.79 187.33 220.954 187.33 219.72C187.33 218.837 187.193 218.737 183.69 216.198C179.851 213.613 176.269 210.653 172.994 207.36L173.142 207.359C175.473 207.548 177.751 208.167 179.865 209.185C182.432 210.404 185.201 211.118 188.028 211.29C189.46 211.29 192.438 211.29 192.438 207.834C192.45 207.539 192.403 207.244 192.3 206.967C192.196 206.691 192.039 206.438 191.838 206.225C189.879 205.165 187.825 204.298 185.704 203.635C181.435 201.92 175.881 199.689 173.255 198.633C174.941 197.435 176.977 196.854 179.029 196.986L181.641 197.018C183.026 197.061 184.412 196.939 185.771 196.656C187.659 196.175 187.94 195.089 187.94 194.484C187.94 191.477 180.454 189.854 177.393 189.854C173.872 189.923 170.403 190.728 167.2 192.218C167.101 191.095 166.868 189.989 166.505 188.924C165.494 186.119 145.126 150.348 136.712 150.348C133.162 150.591 129.657 151.297 126.284 152.448C122.109 153.855 117.768 154.688 113.377 154.926C111.968 154.939 110.563 154.775 109.195 154.435C108.861 154.35 108.508 154.394 108.204 154.559C107.9 154.724 107.667 154.998 107.55 155.327C107.433 155.657 107.441 156.019 107.571 156.344C107.701 156.668 107.945 156.932 108.256 157.084C116.33 161.032 120.421 169.869 124.378 178.416C125.819 181.533 127.311 184.754 128.966 187.656C129.659 188.871 142.619 204.022 147.786 204.022C151.972 204.022 156.183 201.545 160.64 198.922C161.918 198.17 163.204 197.414 164.51 196.698C163.819 204.522 162.152 212.225 159.549 219.62C156.764 220.088 153.952 220.365 151.131 220.447C142.065 220.447 136.238 215.081 136.065 213.639C136.065 212.822 137.032 211.78 138.057 210.677C140.015 209.022 141.256 206.65 141.514 204.073C141.51 203.402 141.411 202.736 141.22 202.095C141.118 201.749 140.907 201.448 140.62 201.238C140.333 201.028 139.985 200.921 139.632 200.934C137.237 200.934 135.528 203.442 133.875 205.87C132.663 207.648 131.155 209.863 130.015 209.863C123.924 209.343 75.4535 173.255 75.4535 163.53C75.4535 155.207 94.4897 139.14 104.717 130.508C111.508 124.776 113.126 123.319 113.427 122.166C118.191 103.872 135.28 95.6835 150.1 95.6835C153.619 95.7759 157.101 96.4423 160.412 97.6572C163.6 98.8321 166.95 99.4848 170.338 99.591C171.208 99.64 172.072 99.4168 172.814 98.9512C173.167 98.7061 173.454 98.375 173.65 97.9881C173.845 97.6011 173.943 97.1705 173.934 96.7355C173.934 92.6203 164.697 84.8355 159.815 84.8355C159.323 84.8361 158.833 84.881 158.349 84.9697C164.432 80.9737 175.979 74.4686 179.318 73.9795C177.92 76.2211 176.067 78.1318 173.883 79.5831C171.218 81.7049 169.609 82.9861 170.174 84.656C170.651 86.0714 172.333 86.2662 174.077 86.2662C184.329 86.2662 185.742 79.8085 185.742 72.8307C185.313 65.519 183.595 58.3458 180.669 51.6546C179.547 49.1633 178.748 46.5339 178.293 43.8326C178.409 43.8394 178.525 43.8504 178.641 43.8615C178.691 43.9266 178.743 43.9886 178.794 44.0481C178.814 44.3106 178.906 44.5621 179.059 44.7743C179.212 44.9866 179.421 45.1511 179.661 45.2495C179.9 45.3478 180.162 45.3761 180.417 45.3312C180.672 45.2862 180.909 45.1698 181.103 44.9949C183 43.0931 184.091 40.5109 184.143 37.8003C188.163 36.7764 192.282 36.2094 196.424 36.1098C198.562 36.1052 200.695 36.3154 202.792 36.7374C202.591 38.2938 202.242 39.9277 201.957 41.2656C201.279 44.4325 200.871 46.3442 201.757 47.4638C201.933 47.6879 202.157 47.868 202.412 47.9904C202.667 48.1128 202.945 48.1743 203.227 48.1701L203.823 48.1715C207.078 48.1978 211.972 48.2061 215.127 45.0046C215.351 44.7768 215.563 44.5364 215.761 44.2844C216.107 44.9354 216.297 45.6607 216.315 46.4008C216.315 46.6799 214.925 74.3126 200.925 74.3126C199.219 74.2762 197.512 74.37 195.819 74.5932C195.183 74.6996 193.243 75.0204 193.243 76.6583C193.243 79.9175 204.932 81.2833 205.05 81.2833C217.438 81.2833 219.85 66.3509 221.788 54.3516C223.093 46.2804 224.324 38.6573 227.968 38.6573C228.623 38.6573 229.33 38.6796 230.075 38.7043C230.934 38.7306 231.841 38.7598 232.773 38.7598C237.597 38.5158 242.286 37.0614 246.424 34.526C246.829 34.3187 247.222 34.0883 247.602 33.836C248.902 34.0997 250.156 34.5616 251.321 35.2062C253.675 36.3147 255.705 37.2683 257.152 36.3491C257.501 36.1152 257.784 35.7923 257.972 35.4125C258.16 35.0327 258.247 34.6094 258.225 34.1847C258.243 33.0153 259.427 29.8028 269.957 25.2083C305.066 9.89006 411.479 -4.70357 423.948 6.98872C424.376 7.3257 424.685 7.79599 424.826 8.32798C424.968 8.85997 424.935 9.42451 424.732 9.93564C424.094 11.8793 425.688 13.1909 426.852 14.1474C427.263 14.462 427.644 14.8141 427.992 15.1993C434.529 23.4886 433.584 25.1268 433.541 25.1917C432.648 26.5615 424.713 24.1383 420.905 22.9774C413.206 20.633 408.775 19.4263 407.179 21.8577C406.034 23.5883 406.989 26.0969 410.475 30.5148C416.697 38.4047 427.55 40.6645 433.3 41.3141C431.714 42.3964 429.247 43.7925 427.55 44.7533C422.447 47.6442 421.011 48.5695 420.712 49.753C420.664 50.0034 420.666 50.2611 420.717 50.5109C420.768 50.7606 420.868 50.9975 421.01 51.2077C421.764 52.1633 423.526 52.5323 428.364 53.3399C430.533 53.6107 432.675 54.0665 434.768 54.7026C434.914 54.8891 435.105 55.0346 435.322 55.1256C436.624 55.5691 437.796 56.3401 438.729 57.3672C439.661 58.3943 440.324 59.6443 440.656 61.0015C442.847 70.3068 431.299 86.6148 426.847 91.9351C426.21 92.3045 425.523 92.5743 424.808 92.7354C423.439 93.0506 422.143 93.6357 420.994 94.4577C420.337 95.0696 419.807 95.8099 419.437 96.6347C419.067 97.4595 418.863 98.3517 418.839 99.2583C418.646 100.652 418.491 101.536 417.758 102.135C416.61 103.076 416.873 104.626 418.54 106.738C418.882 107.1 419.299 107.38 419.762 107.557C421.248 108.221 422.581 109.194 423.676 110.414C424.324 111.284 424.909 112.201 425.427 113.157C426.025 114.252 426.701 115.301 427.449 116.296C428.642 117.661 430.253 118.576 432.021 118.892C432.259 118.959 432.501 119.012 432.746 119.051C432.92 119.336 433.177 119.558 433.481 119.687C433.785 119.817 434.121 119.846 434.442 119.772C439.491 118.171 443.016 120.189 445.331 125.594C454.103 146.077 431.78 194.437 413.796 203.637L412.594 203.619C409.598 203.855 390.626 186.769 377.427 172.026C348.448 139.658 317.198 87.5727 293.147 87.7363C292.905 87.738 292.663 87.742 292.427 87.7515C288.23 87.9355 282.751 92.1512 280.134 95.4587C278.128 96.1806 271.684 93.0867 243.842 93.0867C238.197 92.9973 232.554 93.3425 226.96 94.1191C227.273 93.0478 227.426 91.9345 227.413 90.8169C227.413 90.7934 227.408 90.542 227.406 90.5185C227.163 85.5782 221.062 81.6982 217.212 81.8184C216.675 81.7849 216.137 81.8681 215.633 82.0625C215.13 82.2569 214.673 82.5581 214.293 82.9461C213.913 83.3341 213.618 83.8 213.428 84.3129C213.238 84.8258 213.158 85.3739 213.192 85.921C213.192 101.655 206.853 101.655 204.771 101.655C202.325 101.552 199.895 101.213 197.511 100.645C194.749 99.993 191.931 99.6153 189.096 99.517C186.816 99.517 186.75 101.203 186.75 101.397C186.75 103.434 190.723 105.818 194.056 107.459C197.993 109.505 202.293 110.723 206.702 111.039C214.807 110.746 222.795 108.967 230.28 105.787C234.698 104.002 239.28 102.675 243.959 101.825C252.184 100.653 267.394 107.625 275.038 117.533C282.636 127.38 280.301 140.448 280.67 141.844C280.581 142.15 280.596 142.478 280.713 142.774C280.868 143.17 281.261 143.337 281.59 143.599C288.242 148.908 289.285 171.673 288.232 175.271C288.17 175.806 288.253 176.347 288.471 176.837C288.69 177.328 289.036 177.747 289.471 178.052C293.018 181.327 296.041 185.143 298.435 189.365C306.175 203.275 310.666 229.65 311.568 232C312.671 233.573 314.284 235.27 315.776 237.101C318.841 241.743 322.526 248.99 321.831 252.617C321.64 253.617 320.007 260.314 319.399 262.083C317.488 263.498 313.159 264.205 313.058 262.702C312.884 260.137 315.743 259.775 315.837 259.163C316.113 258.049 316.097 256.88 315.793 255.773C315.488 254.666 314.904 253.66 314.1 252.853C312.602 251.59 310.513 251.54 310.307 252.588C310.287 253.228 310.448 253.86 310.772 254.409C311.095 254.958 311.567 255.401 312.131 255.684C316.011 256.863 312.824 258.374 311.755 258.81C311.388 259.027 310.982 259.167 310.561 259.222C310.141 259.276 309.713 259.245 309.305 259.129C308.896 259.014 308.514 258.816 308.181 258.548C307.849 258.28 307.572 257.947 307.368 257.568C305.51 255.114 301.56 250.341 301.408 248.124C301.805 247.483 301.541 241.367 302.546 239.318C303.589 237.195 310.957 235.512 310.133 232.064C309.091 227.7 299.814 231.593 299.13 230.767C296.002 226.992 292.279 219.617 289.632 216.612C280.249 205.96 280.773 207.047 276.66 200.571C273.861 196.164 272.685 186.295 269.247 184.293C266.722 182.78 264.388 180.958 262.297 178.868C260.213 176.021 258.348 173.015 256.72 169.875C256.55 169.815 255.96 168.999 255.001 170.139C254.306 170.965 254.639 171.496 254.653 172.026C254.919 172.658 258.121 177.722 258.359 178.396C259.231 180.848 263.382 184.148 266.663 186.177C269.906 188.182 271.462 198.044 273.301 201.396C276.23 206.737 277.332 208.197 286.968 218.499C290.634 222.419 293.858 229.952 298.435 234.423C299.22 235.19 306.16 232.003 306.311 232.653C306.552 233.698 299.187 235.543 299.187 238.61C298.599 242.115 298.443 245.681 298.724 249.226C300.486 252.996 302.768 256.492 305.5 259.605C306.225 260.607 307.305 261.282 308.511 261.486C309.717 261.689 310.953 261.406 311.957 260.696C309.061 262.761 311.001 265.916 314.216 265.827C315.928 265.922 317.644 265.763 319.312 265.356C320.354 265.002 322.169 266.167 323.742 256.155C324.09 253.944 325.74 253.678 324.524 248.636C322.745 241.78 319.265 235.504 314.418 230.412C311.87 222.274 309.213 202.046 301.446 187.95C298.866 183.249 295.655 178.938 291.904 175.142C291.904 175.142 293.107 150.559 284.072 141.83C283.926 141.004 283.44 137.596 283.44 136.736C283.44 124.469 280.829 120.717 277.702 116.471C270.219 106.309 255.116 98.0701 243.574 99.0217C238.677 99.7534 233.895 101.131 229.347 103.119C222.158 106.179 214.488 107.902 206.702 108.208C201.085 107.63 195.694 105.649 191.01 102.439C193.013 102.66 195.003 102.988 196.973 103.421C199.533 104.027 202.144 104.384 204.77 104.486C212.203 104.486 215.971 98.2394 215.971 85.9206C215.971 85.1357 216.186 84.6754 217.281 84.6475C219.94 84.6102 224.473 87.4673 224.634 90.8165C224.73 92.2667 224.332 93.7062 223.506 94.8916C221.109 95.6352 220.86 96.4174 220.86 97.1182C220.898 97.5213 221.079 97.8966 221.368 98.1743C221.657 98.452 222.036 98.6131 222.433 98.6276C223.392 98.5443 224.291 98.1189 224.972 97.4266C231.183 96.1776 237.516 95.671 243.842 95.9172C275.224 95.9172 280.139 99.5623 280.598 99.3675C280.821 99.272 281.015 99.1186 281.162 98.9225C283.315 96.061 287.663 90.757 292.546 90.5792C313.615 89.8121 350.252 146.146 377.543 176.626C400.492 202.258 411.309 208.812 414.979 206.929C434.788 196.818 457.577 146.077 447.91 124.535ZM159.163 196.382C155.037 198.809 151.14 201.102 147.699 201.102C144.626 201.102 132.588 188.361 131.282 186.146C129.688 183.349 128.287 180.323 126.805 177.12C123.481 169.938 120.065 162.561 114.26 157.649C118.572 157.291 122.829 156.431 126.947 155.083C130.08 154.014 133.331 153.345 136.625 153.09C142.543 153.09 162.262 185.517 163.809 189.811C164.187 190.973 164.399 192.186 164.436 193.41C162.603 194.357 160.846 195.391 159.163 196.382ZM167.238 195.165C170.368 193.566 173.806 192.688 177.306 192.596C179.53 192.671 181.723 193.151 183.781 194.011C183.231 194.063 182.506 194.099 181.554 194.099L178.942 194.067C172.95 194.067 169.758 197.079 169.758 199.253C169.758 200.218 169.758 200.218 184.597 206.179L189.532 208.163L189.522 208.206C189.011 208.365 188.474 208.421 187.941 208.37C185.463 208.188 183.04 207.54 180.793 206.46C178.36 205.303 175.735 204.617 173.055 204.439C171.338 204.439 170.292 205 169.944 206.106C169.236 208.368 171.937 211.129 181.991 218.415C182.599 218.856 183.247 219.326 183.77 219.714C179.653 218.921 175.73 217.304 172.23 214.958C169.509 213.337 167.713 212.26 166.185 213.151C165.694 213.53 165.311 214.035 165.073 214.614C164.836 215.192 164.753 215.825 164.833 216.447C164.923 218.416 165.281 220.363 165.897 222.231C166.475 223.971 166.815 225.785 166.907 227.619C166.907 227.705 166.907 227.787 166.905 227.863C166.45 226.982 166.071 226.062 165.775 225.113C165.054 223.044 164.192 220.568 162.31 219.68C165.091 211.789 166.751 203.534 167.238 195.165ZM161.335 222.393C162.211 223.456 162.833 224.71 163.154 226.059C163.574 227.861 164.49 229.503 165.795 230.793C162.506 229.368 159.405 227.886 159.201 227.021C160.051 225.548 160.765 223.999 161.335 222.393ZM196.337 33.1906C192.297 33.269 188.276 33.7857 184.343 34.7319C184.666 32.3805 185.422 31.2001 188.857 31.2001C189.895 31.2001 190.98 31.286 192.105 31.3728C194.91 31.6852 197.744 31.594 200.523 31.1018C200.84 31.0593 201.162 31.0957 201.461 31.208C201.761 31.3202 202.029 31.5049 202.243 31.7461C202.64 32.3524 202.852 33.0655 202.85 33.7945C200.702 33.3886 198.522 33.1864 196.337 33.1906ZM213.077 42.9105C210.796 45.226 206.88 45.2562 203.951 45.2536C204.025 44.4008 204.34 42.9259 204.586 41.7785C204.886 40.3701 205.213 38.844 205.422 37.3361C206.315 37.6084 207.191 37.9217 208.05 38.2759C210.198 39.0973 212.179 40.3147 213.894 41.8672C213.661 42.2452 213.387 42.5952 213.077 42.9105H213.077ZM214.944 39.0416C213.17 37.6221 211.199 36.4798 209.095 35.6525C207.968 35.1868 206.815 34.7871 205.643 34.4553C205.741 32.8608 205.306 31.2794 204.407 29.9699C203.934 29.3988 203.336 28.9479 202.662 28.653C201.988 28.3581 201.256 28.2273 200.523 28.2711C200.402 28.2732 200.281 28.2871 200.162 28.3127C197.571 28.7678 194.929 28.8479 192.316 28.5505C191.119 28.4579 189.964 28.3694 188.857 28.3694C182.626 28.3694 181.792 32.0878 181.467 35.4465C179.932 35.8584 178.781 36.218 178.205 36.4033C177.902 36.2181 177.618 35.2905 177.618 33.7216C177.618 20.4687 184.23 13.1691 196.238 13.1691C209.342 13.1691 215.185 20.2986 215.185 36.2872C215.193 37.2112 215.112 38.1337 214.944 39.0416H214.944Z" fill="#0F0F0F"/>
<path d="M456.611 483.488H456.605L351.321 483.842C351.223 483.842 351.128 483.876 351.03 483.875C332.516 483.685 292.587 465.295 288.659 453.073C288.568 452.789 288.391 452.542 288.153 452.367C287.916 452.191 287.63 452.097 287.337 452.097C287 452.091 286.671 452.195 286.396 452.392C286.121 452.589 285.914 452.87 285.806 453.194C285.144 453.893 284.64 454.729 284.326 455.646C284.013 456.562 283.898 457.536 283.99 458.502C284.519 468.916 302.107 486.377 313.069 494.933C313.661 495.372 314.21 495.871 314.706 496.42C309.285 497.316 278.045 488.442 263.554 479.952C258.268 476.853 258.005 475.346 257.989 475.346C260.256 467.506 261.521 459.401 261.754 451.232C261.754 424.436 245.349 399.699 238.697 390.772C246.718 396.058 265.38 414.729 265.38 446.045C265.38 448.951 265.31 451.03 265.264 452.468C265.171 455.199 265.142 456.119 266.228 456.598C267.248 457.043 267.973 456.31 268.668 455.597C270.321 453.905 274.193 449.944 283.807 449.944C284.022 449.943 284.234 449.893 284.426 449.795C284.618 449.698 284.786 449.556 284.915 449.382C285.045 449.208 285.133 449.005 285.173 448.791C285.213 448.576 285.204 448.354 285.146 448.144C283.905 443.66 281.652 421.527 279.472 400.125C273.924 345.617 273.449 345.738 271.266 345.774C269.697 345.857 269.108 345.89 269.108 361.67C269.108 374.171 249.956 378.42 248.268 378.42C246.609 378.42 244.899 378.252 243.088 378.069C241.245 377.887 239.342 377.699 237.464 377.699C236.133 377.656 234.802 377.771 233.497 378.042C233.493 377.605 233.491 377.176 233.491 376.778C233.606 371.512 234.042 366.257 234.798 361.046C235.555 355.805 235.999 350.522 236.128 345.227C239.058 346.507 242.232 347.1 245.417 346.96C253.483 346.96 267.134 344.522 267.134 335.291C266.372 273.859 257.935 236.181 252.218 236.181H252.21C249.725 236.198 249.408 240.074 249.408 243.449C249.819 250.149 250.902 256.789 252.638 263.265C256.065 276.715 257.947 290.525 258.247 304.418C258.247 322.793 254.997 333.331 249.329 333.331H248.075C229.659 333.331 227.615 320.985 225.026 305.352C222.989 293.041 220.697 279.202 209.816 268.916C220.022 267.072 226.4 258.321 232.587 249.83C235.076 246.223 237.816 242.804 240.786 239.597C242.15 238.421 243.684 237.466 245.333 236.764C248.65 235.123 252.407 233.26 252.407 228.847C252.407 219.231 251.14 213.999 248.173 211.352C245.007 208.528 240.509 209.139 234.81 209.913C231.233 210.47 227.624 210.777 224.006 210.832C211.163 210.832 201.954 207.986 195.131 201.888C195.171 201.813 195.21 201.734 195.246 201.65C200.769 201.033 206.324 200.751 211.881 200.805C215.277 200.805 218.666 200.874 222.057 200.942C225.467 201.011 228.878 201.08 232.296 201.08L235.381 201.084C244.017 201.108 246.604 201.106 248.01 199.474C249.052 198.267 248.846 196.696 248.563 194.52C248.29 192.639 248.147 190.741 248.134 188.839C248.267 179.441 250.243 170.164 253.947 161.555C255.61 157.98 256.641 154.135 256.993 150.196C256.993 148.549 256.865 146.808 256.74 145.123C256.704 143.181 256.563 141.242 256.316 139.316C256.16 139.048 255.924 138.838 255.644 138.714C255.363 138.591 255.051 138.56 254.753 138.627C254.454 138.705 254.189 138.883 254 139.131C253.811 139.379 253.708 139.684 253.708 139.999C253.708 141.773 253.841 143.583 253.968 145.334C254.09 146.996 254.213 148.636 254.213 150.196C253.836 153.781 252.869 157.276 251.354 160.535C247.542 169.475 245.503 179.094 245.355 188.839C245.366 190.865 245.518 192.888 245.808 194.892C246.012 195.782 246.051 196.703 245.922 197.607C245.347 198.272 241.174 198.263 235.387 198.254L232.296 198.25C228.896 198.25 225.504 198.181 222.112 198.113C218.702 198.044 215.294 197.975 211.88 197.975C205.827 197.909 199.775 198.246 193.764 198.982C193.547 198.98 193.332 199.031 193.138 199.132C192.943 199.233 192.776 199.379 192.65 199.56C192.536 199.724 192.468 199.916 192.453 200.116C192.437 200.316 192.475 200.517 192.563 200.696C192.216 201.067 192.011 201.553 191.986 202.065C192.022 202.53 192.213 202.969 192.528 203.307C199.962 210.372 209.964 213.663 224.006 213.663C227.746 213.609 231.478 213.294 235.176 212.719C240.371 212.014 244.125 211.504 246.34 213.482C248.583 215.481 249.627 220.364 249.627 228.847C249.627 231.312 247.545 232.521 244.117 234.22C242.183 235.044 240.394 236.184 238.82 237.595C235.755 240.901 232.926 244.426 230.355 248.143C223.916 256.979 217.258 266.115 206.406 266.43C206.121 266.439 205.845 266.537 205.616 266.711C205.387 266.885 205.216 267.127 205.127 267.403C205.037 267.679 205.034 267.977 205.116 268.255C205.198 268.534 205.362 268.78 205.587 268.96C217.8 278.732 220.183 293.124 222.286 305.822C224.869 321.425 227.309 336.162 248.075 336.162H249.329C258.996 336.162 261.026 318.898 261.026 304.417C260.731 290.314 258.825 276.293 255.347 262.638C253.666 256.365 252.608 249.937 252.187 243.449C252.153 242.156 252.251 240.862 252.481 239.59C255.491 244.306 263.578 272.872 264.354 335.388C264.354 342.302 251.967 344.129 245.417 344.129C242.187 344.42 238.949 343.674 236.156 341.998C235.887 341.754 235.553 341.596 235.197 341.542C234.84 341.489 234.476 341.542 234.149 341.697C233.31 342.175 233.322 342.996 233.338 344.035L233.348 344.959C233.233 350.226 232.796 355.48 232.041 360.692C231.267 366.02 230.823 371.393 230.711 376.778C230.711 383.576 230.711 383.706 232.216 383.706C232.63 383.706 233.596 383.537 233.623 381.959L233.629 380.964C234.864 380.552 236.17 380.404 237.464 380.53C239.208 380.53 241.041 380.712 242.817 380.889C244.614 381.066 246.473 381.251 248.268 381.251C251.772 381.251 271.888 375.852 271.888 361.67C271.888 359.763 271.899 358.121 271.918 356.702C273.321 367.138 275.145 385.072 276.709 400.417C278.786 420.811 280.759 440.185 282.081 447.154C276.959 447.155 271.997 448.973 268.049 452.296C268.098 450.85 268.16 448.818 268.16 446.045C268.16 407.884 240.577 386.382 235.448 386.382C235.202 386.366 234.955 386.401 234.723 386.486C234.492 386.571 234.279 386.703 234.1 386.875C233.92 387.047 233.777 387.255 233.679 387.485C233.582 387.715 233.532 387.964 233.533 388.215C233.535 388.556 233.656 388.885 233.873 389.144C234.898 390.363 258.974 419.374 258.974 451.232C258.743 459.134 257.515 466.973 255.32 474.556C255.267 474.74 255.232 474.929 255.217 475.12C255.217 483.2 290.741 494.806 304.243 497.852C314.822 500.241 316.918 499.182 317.608 497.675C318.433 495.87 316.522 494.062 314.763 492.688C301.325 482.197 287.179 466.486 286.767 458.356C286.709 457.642 286.814 456.924 287.073 456.258C294.873 469.555 333.038 487.4 351.475 486.673L456.616 486.319C456.985 486.318 457.338 486.168 457.598 485.902C457.858 485.636 458.004 485.276 458.003 484.9C458.003 484.525 457.855 484.165 457.594 483.9C457.333 483.635 456.979 483.487 456.611 483.488H456.611Z" fill="#0F0F0F"/>
<path d="M363.387 318.778L347.797 281.147C347.735 280.995 347.648 280.854 347.542 280.73L345.354 278.192C345.201 278.016 345.011 277.878 344.798 277.788L320.179 267.336L319.877 258.036C319.864 257.739 319.766 257.452 319.596 257.21C319.426 256.968 319.191 256.781 318.919 256.673C318.919 256.673 314.397 253.674 312.524 252.629C312.52 252.914 312.499 253.2 312.516 253.483C312.526 253.65 312.646 254.312 312.623 254.384C312.693 254.544 312.765 254.706 312.836 254.856C312.872 254.932 312.905 255.012 312.941 255.088C313.314 255.313 313.639 255.611 313.898 255.965C314.157 256.318 314.346 256.72 314.453 257.148C314.474 257.248 314.465 257.352 314.478 257.453C315.757 258.347 316.905 259.178 316.905 259.178L317.089 266.025L298.605 258.177L298.728 252.113C299.622 251.437 301.881 252.735 302.344 252.853C302.293 252.598 301.07 249.283 301.07 249.019L297.859 248.258C297.634 248.17 297.392 248.137 297.152 248.162C296.912 248.188 296.682 248.271 296.48 248.404C296.278 248.538 296.11 248.72 295.991 248.933C295.872 249.147 295.805 249.387 295.796 249.632L295.625 256.911L282.983 251.545C282.648 251.402 282.274 251.387 281.929 251.503L274.407 254.016C274.086 254.124 273.809 254.338 273.621 254.625C273.434 254.911 273.346 255.254 273.373 255.598L273.49 257.137L271.785 256.391C271.551 256.289 271.296 256.248 271.043 256.273C270.789 256.298 270.547 256.387 270.336 256.533C270.126 256.679 269.955 256.876 269.84 257.107C269.724 257.338 269.668 257.595 269.676 257.853L271.589 323.223C271.598 323.5 271.68 323.77 271.826 324.005C271.973 324.239 272.179 324.428 272.423 324.553L329.862 353.856C330.073 353.963 330.305 354.019 330.54 354.019C330.71 354.02 330.879 353.991 331.04 353.934C332.503 353.411 337.351 351.67 338.272 351.164C340.116 350.039 341.858 348.748 343.476 347.307L347.325 348.515C347.564 348.593 347.819 348.608 348.065 348.558C348.312 348.508 348.542 348.395 348.734 348.231L356.94 341.328C357.164 341.14 357.33 340.891 357.418 340.61C357.506 340.329 357.512 340.028 357.437 339.744L352.035 319.225L357.174 321.401C357.424 321.504 357.696 321.54 357.964 321.506L362.204 320.903C362.433 320.87 362.652 320.784 362.844 320.651C363.036 320.518 363.195 320.342 363.309 320.137C363.424 319.932 363.49 319.702 363.504 319.466C363.517 319.231 363.477 318.995 363.387 318.777V318.778ZM282.339 254.608L295.5 260.195L295.473 260.916L284.221 256.081C284.037 256 283.84 255.957 283.64 255.954C283.44 255.951 283.242 255.988 283.057 256.064C282.871 256.14 282.702 256.252 282.559 256.394C282.417 256.537 282.303 256.707 282.225 256.894C282.148 257.081 282.107 257.283 282.106 257.486C282.105 257.69 282.144 257.891 282.219 258.079C282.295 258.268 282.407 258.439 282.549 258.582C282.69 258.726 282.858 258.84 283.042 258.918L296.309 264.618C296.534 264.717 296.779 264.758 297.024 264.737C297.268 264.717 297.504 264.635 297.71 264.499C297.915 264.365 298.086 264.183 298.208 263.967C298.33 263.752 298.399 263.509 298.41 263.261L298.478 261.458L317.249 269.428L317.399 272.621C317.412 272.909 317.504 273.188 317.665 273.425C317.825 273.662 318.048 273.848 318.308 273.962L331.797 279.906L329.02 281.454L276.625 258.511L276.478 256.565L282.339 254.608ZM354.263 339.583L347.436 345.328L343.568 344.114C343.32 344.037 343.057 344.026 342.804 344.081C342.55 344.137 342.315 344.258 342.121 344.432C340.476 345.923 338.709 347.268 336.838 348.452C336.38 348.703 333.437 349.809 330.643 350.81L274.586 322.211L272.77 260.176L273.753 260.607L274.331 268.231C274.352 268.506 274.444 268.769 274.599 268.995C274.754 269.221 274.965 269.4 275.211 269.514L325.689 292.918L329.577 346.06C329.602 346.41 329.744 346.739 329.978 346.996C330.212 347.252 330.525 347.419 330.865 347.47C331.206 347.521 331.553 347.452 331.849 347.276C332.146 347.099 332.375 346.824 332.498 346.497C333.857 342.884 334.719 339.097 335.06 335.243C335.22 329.946 335.356 319.292 335.454 310.324L339.428 330.789C339.496 331.143 339.683 331.461 339.957 331.688L344.062 335.08C344.3 335.275 344.59 335.393 344.894 335.418C345.198 335.442 345.503 335.372 345.768 335.217C346.032 335.063 346.245 334.83 346.378 334.55C346.51 334.27 346.557 333.955 346.511 333.648L339.298 285.819L339.996 285.388L354.263 339.583ZM357.955 318.396L351.519 315.67C351.376 315.609 351.224 315.57 351.068 315.557L342.395 282.61C342.335 282.378 342.222 282.165 342.066 281.986C341.911 281.807 341.716 281.667 341.498 281.578C341.28 281.489 341.045 281.453 340.811 281.473C340.577 281.492 340.351 281.567 340.15 281.692L336.865 283.721C336.609 283.879 336.405 284.11 336.279 284.386C336.152 284.663 336.109 284.971 336.154 285.272L342.924 330.173L342.287 329.645L335.562 295.017C335.481 294.647 335.273 294.319 334.975 294.092C334.678 293.866 334.31 293.755 333.939 293.781C333.566 293.817 333.219 293.992 332.965 294.274C332.712 294.555 332.571 294.922 332.568 295.304C332.565 295.6 332.34 325.089 332.036 335.149C332.022 335.627 331.982 336.125 331.922 336.634L328.64 291.782C328.619 291.507 328.527 291.242 328.371 291.016C328.216 290.789 328.004 290.609 327.758 290.494L277.276 267.087L276.888 261.978L328.502 284.581C328.713 284.671 328.941 284.712 329.17 284.701C329.398 284.69 329.622 284.627 329.824 284.517L335.964 281.097C336.213 280.959 336.418 280.752 336.556 280.501C336.695 280.249 336.762 279.964 336.749 279.675C336.736 279.387 336.644 279.109 336.483 278.872C336.322 278.634 336.099 278.448 335.839 278.333L320.374 271.518L320.339 270.739L343.313 280.495L345.107 282.576L359.837 318.131L357.955 318.396Z" fill="#0F0F0F"/>
<path d="M233.944 169.698L188.541 171.849C188.373 171.856 188.206 171.828 188.049 171.767C187.892 171.705 187.749 171.611 187.629 171.492C187.509 171.372 187.415 171.228 187.352 171.069C187.289 170.91 187.258 170.74 187.263 170.569C187.263 170.569 186.959 152.052 186.959 145.87C186.959 140.072 185.453 122.677 185.453 122.677C185.452 122.321 185.583 121.979 185.82 121.718C186.058 121.458 186.384 121.3 186.732 121.275L232.439 119.097C232.607 119.09 232.774 119.118 232.931 119.179C233.088 119.241 233.231 119.334 233.351 119.454C233.471 119.574 233.565 119.718 233.628 119.877C233.691 120.035 233.721 120.206 233.717 120.377C233.717 120.377 235.223 138.258 235.223 144.219V168.297C235.224 168.652 235.093 168.995 234.856 169.255C234.618 169.516 234.292 169.674 233.944 169.698ZM189.82 169.107L232.666 167.079V144.219C232.666 138.624 231.16 121.839 231.16 121.839L188.01 123.895C188.01 123.895 189.516 140.2 189.516 145.634C189.516 151.509 189.82 169.107 189.82 169.107V169.107Z" fill="#0F0F0F"/>
<path d="M207.905 146.645L198.626 147.087V155.042L209.404 154.529V156.949L195.803 157.597V135.151L209.257 134.51V136.931L198.626 137.437V144.667L207.905 144.225V146.645Z" fill="#0F0F0F"/>
<path d="M219.227 146.476C217.3 146.1 215.489 145.264 213.94 144.038C213.404 143.557 212.977 142.963 212.691 142.296C212.406 141.629 212.267 140.906 212.286 140.178C212.277 139.325 212.454 138.481 212.803 137.706C213.153 136.931 213.666 136.244 214.307 135.695C215.777 134.427 217.637 133.725 219.564 133.71C220.912 133.618 222.262 133.861 223.498 134.418C224.587 134.906 225.511 135.71 226.156 136.729C226.8 137.748 227.136 138.937 227.122 140.149L224.284 140.284C224.319 139.699 224.227 139.113 224.013 138.568C223.799 138.023 223.47 137.534 223.048 137.134C222.063 136.343 220.81 135.982 219.564 136.131C218.385 136.121 217.238 136.516 216.307 137.252C215.923 137.589 215.617 138.009 215.415 138.483C215.213 138.957 215.118 139.471 215.139 139.987C215.133 140.428 215.231 140.864 215.424 141.259C215.617 141.654 215.9 141.996 216.249 142.258C217.392 143.031 218.677 143.561 220.027 143.816C221.481 144.134 222.886 144.651 224.203 145.353C225.114 145.847 225.884 146.573 226.438 147.459C227.087 148.658 227.311 150.048 227.075 151.397C226.838 152.745 226.154 153.969 225.137 154.866C223.587 156.097 221.677 156.766 219.711 156.767C218.306 156.848 216.9 156.612 215.595 156.076C214.415 155.62 213.391 154.826 212.646 153.789C211.95 152.78 211.588 151.571 211.609 150.339L214.447 150.203C214.418 150.807 214.532 151.409 214.782 151.957C215.032 152.505 215.409 152.983 215.881 153.35C217 154.136 218.358 154.489 219.711 154.347C220.943 154.364 222.146 153.971 223.137 153.227C223.523 152.906 223.832 152.499 224.038 152.038C224.245 151.576 224.344 151.072 224.328 150.565C224.358 150.088 224.273 149.612 224.081 149.176C223.888 148.741 223.595 148.36 223.226 148.066C221.998 147.294 220.643 146.755 219.227 146.476Z" fill="#0F0F0F"/>
</g>
<defs>
<clipPath id="clip0">
<rect width="458" height="518" fill="white"/>
</clipPath>
</defs>
</svg>
