<svg width="29" height="16" viewBox="0 0 29 16" fill="none" xmlns="http://www.w3.org/2000/svg">
<path d="M15.6172 0H28.6316L11.8988 16H0L15.6172 0Z" fill="#F3F3F9"/>
<path d="M14.3156 9.26316H11.7893C11.7893 6.73684 13.1367 5.89474 14.063 5.38947C14.3998 5.22105 14.6525 5.05263 14.8209 4.88421C15.242 4.46316 15.0735 3.87368 14.9893 3.70526C14.7367 3.11579 14.1472 2.52632 13.0525 2.52632C11.2841 2.52632 10.9472 4.12632 10.9472 4.46316L8.4209 4.12632C8.58932 2.69474 9.85248 0 13.0525 0C14.9893 0 16.6735 1.09474 17.3472 2.69474C17.9367 4.12632 17.6841 5.64211 16.6735 6.65263C16.2525 7.07368 15.7472 7.32632 15.3262 7.57895C14.5683 8 14.3156 8.42105 14.3156 9.26316Z" fill="#1E1E1F"/>
<rect x="11.7891" y="11.7896" width="2.52632" height="2.52632" fill="#1E1E1F"/>
</svg>
